# Blender v2.73 (sub 0) OBJ File: ''
# www.blender.org
mtllib camera.mtl
o Cone
v -2.250000 1.068914 1.068914
v -2.250000 1.068914 -1.068915
v -2.250000 -1.068914 -1.068915
v 2.250000 -0.000000 0.000000
v -2.250000 -1.068914 1.068914
vt 0.746023 0.670263
vt 0.873012 0.000000
vt 1.000000 0.670263
vt 0.498563 0.618213
vt 0.746023 0.000000
vt 0.746023 0.687915
vt 0.249282 0.000000
vt 0.249282 0.687915
vt 0.000000 0.070791
vt 0.498563 0.000000
vt 0.498563 0.687915
vt 0.249282 0.070791
vt 0.000000 0.687915
vt 0.253977 0.687915
vt 0.253977 1.000000
vt 0.000000 1.000000
vn 0.231100 -0.972900 0.000000
vn 0.231100 0.972900 0.000000
vn 0.231100 0.000000 0.972900
vn 0.231100 -0.000000 -0.972900
vn -1.000000 -0.000000 -0.000000
usemtl None
s off
f 3/1/1 4/2/1 5/3/1
f 1/4/2 4/5/2 2/6/2
f 5/7/3 4/8/3 1/9/3
f 2/10/4 4/11/4 3/12/4
f 1/13/5 2/14/5 3/15/5 5/16/5
