# Blender v2.73 (sub 0) OBJ File: 'level1.blend'
# www.blender.org
mtllib level.mtl
o Plane
v -3.851008 0.335441 5.080699
v 6.148993 0.335441 5.080699
v -3.851008 0.335441 -4.919301
v 6.148993 0.335441 -4.919301
v -3.851008 0.335441 5.080699
v -3.851008 0.335441 -4.919301
v -3.851008 0.335441 5.080699
v -3.851008 0.335441 -4.919301
v -3.851008 4.335442 5.080699
v -3.851008 4.335442 -4.919301
v -3.851008 4.335442 5.080699
v 6.148993 4.335442 5.080699
v 6.148993 4.335442 5.080699
v 6.148993 4.335442 -4.919301
v -3.851008 4.335442 -4.919301
v 6.148993 4.335442 -4.919301
v -3.851008 0.335441 0.080699
v -3.851008 4.335442 0.080699
v -3.851008 2.335442 5.080699
v -3.851008 2.335442 -4.919301
v -3.851008 2.335442 0.080699
v -3.851008 0.335441 4.880700
v -3.851008 4.335442 4.880700
v -3.851008 2.335442 4.880700
v -3.851008 0.335441 -4.719301
v -3.851008 4.335442 -4.719301
v -3.851008 2.335442 -4.719301
v 1.148992 0.335441 5.080699
v 1.148992 4.335442 5.080699
v 6.148993 2.335442 5.080699
v -3.851008 2.335442 5.080699
v 1.148992 0.335441 -4.919301
v 1.148992 4.335442 -4.919301
v -3.851008 2.335442 -4.919301
v 6.148993 2.335442 -4.919301
v 1.148992 0.335441 4.880699
v 6.148993 0.335441 0.080699
v 6.148993 4.335442 0.080699
v 6.148993 2.335442 -4.919301
v 6.148993 2.335442 5.080699
v 6.148993 2.335442 0.080699
v 6.148993 0.335441 4.880700
v 6.148993 4.335442 4.880700
v 6.148993 2.335442 4.880700
v 6.148993 0.335441 -4.719301
v 6.148993 4.335442 -4.719301
v 6.148993 2.335442 -4.719301
v 5.948993 0.335441 5.080699
v 5.948993 4.335442 5.080699
v 5.948993 2.335442 5.080699
v -3.651008 0.335441 5.080699
v -3.651008 4.335442 5.080699
v -3.651008 2.335442 5.080699
v 5.948993 0.335441 -4.919301
v 5.948993 4.335442 -4.919301
v 5.948993 2.335442 -4.919301
v -3.651008 0.335441 -4.919301
v -3.651008 4.335442 -4.919301
v -3.651008 2.335442 -4.919301
v -3.851008 0.335441 -4.919301
v 6.148993 0.335441 -4.919301
v -3.851008 4.335442 -4.919301
v 6.148993 4.335442 -4.919301
v -3.851008 2.335442 -4.919301
v 6.148993 2.335442 -4.919301
v 5.948993 0.335441 -4.919301
v 5.948993 4.335442 -4.919301
v 5.948993 2.335442 -4.919301
v -3.651008 0.335441 -4.919301
v -3.651008 4.335442 -4.919301
v -3.651008 2.335442 -4.919301
v -3.851008 0.335441 -4.919301
v 6.148993 0.335441 -4.919301
v -3.851008 4.335442 -4.919301
v 6.148993 4.335442 -4.919301
v -3.851008 2.335442 -4.919301
v 6.148993 2.335442 -4.919301
v 5.948993 0.335441 -4.919301
v 5.948993 4.335442 -4.919301
v 5.948993 2.335442 -4.919301
v -3.651008 0.335441 -4.919301
v -3.651008 4.335442 -4.919301
v -3.651008 2.335442 -4.919301
v -3.851008 0.335441 -4.919301
v 6.148993 0.335441 -4.919301
v -3.851008 4.335442 -4.919301
v 6.148993 4.335442 -4.919301
v -3.851008 2.335442 -4.919301
v 6.148993 2.335442 -4.919301
v 5.948993 0.335441 -4.919301
v 5.948993 4.335442 -4.919301
v 5.948993 2.335442 -4.919301
v -3.651008 0.335441 -4.919301
v -3.651008 4.335442 -4.919301
v -3.651008 2.335442 -4.919301
v -3.851008 0.335441 -4.719300
v 6.148993 0.335441 -4.719300
v -3.851008 4.335442 -4.719300
v 6.148993 4.335442 -4.719300
v -3.851008 2.335442 -4.719300
v 6.148993 2.335442 -4.719300
v 5.948993 0.335441 -4.719300
v 5.948993 4.335442 -4.719300
v 5.948993 2.335442 -4.719300
v -3.651008 0.335441 -4.719300
v -3.651008 4.335442 -4.719300
v -3.651008 2.335442 -4.719300
v 6.148993 0.335441 5.080699
v 6.148993 4.335442 5.080699
v 6.148993 2.335442 5.080699
v 6.148993 0.335441 4.880700
v 6.148993 4.335442 4.880700
v 6.148993 2.335442 4.880700
v 5.948992 0.335441 5.080699
v 5.948992 4.335442 5.080699
v 5.948992 2.335442 5.080699
v 5.948992 0.335441 4.880700
v 5.948992 4.335442 4.880700
v 5.948992 2.335442 4.880700
v -3.851008 0.335441 5.080699
v -3.851008 4.335442 5.080699
v -3.851008 2.335442 5.080699
v -3.651008 0.335441 5.080699
v -3.651008 4.335442 5.080699
v -3.651008 2.335442 5.080699
v -3.851008 0.335441 4.880699
v -3.851008 4.335442 4.880699
v -3.851008 2.335442 4.880699
v -3.651008 0.335441 4.880699
v -3.651008 4.335442 4.880699
v -3.651008 2.335442 4.880699
v 1.248992 0.335441 -4.919301
v 1.248992 4.335442 -4.919301
v 1.248992 2.335442 -4.919301
v 1.048992 0.335441 -4.919301
v 1.048992 4.335442 -4.919301
v 1.048992 2.335442 -4.919301
v 1.048992 0.335441 5.080699
v 1.048992 4.335442 5.080699
v 1.048992 2.335442 5.080699
v 1.248992 0.335441 5.080699
v 1.248992 4.335442 5.080699
v 1.248992 2.335442 5.080699
v 1.148992 0.335441 -4.719300
v 1.148992 4.335442 -4.719300
v 1.148992 2.335442 -4.719300
v 1.248992 0.335441 -4.719300
v 1.248992 4.335442 -4.719300
v 1.248992 2.335442 -4.719300
v 1.048992 0.335441 -4.719300
v 1.048992 4.335442 -4.719300
v 1.048992 2.335442 -4.719300
v 1.148992 4.335442 4.880699
v 1.148992 2.335442 4.880699
v 1.048992 0.335441 4.880699
v 1.048992 4.335442 4.880699
v 1.048992 2.335442 4.880699
v 1.248992 0.335441 4.880699
v 1.248992 4.335442 4.880699
v 1.248992 2.335442 4.880699
vt 0.000000 1.000000
vt 0.000000 0.980000
vt 0.000000 0.510000
vt 0.000000 0.500000
vt 0.000000 0.490000
vt 0.000000 0.020000
vt 0.000000 0.000000
vt 0.020000 0.000000
vt 0.500000 0.000000
vt 0.980000 0.000000
vt 1.000000 0.000000
vt 1.000000 0.020000
vt 1.000000 0.490000
vt 1.000000 0.500000
vt 1.000000 0.510000
vt 1.000000 0.980000
vt 1.000000 1.000000
vt 0.979650 0.867721
vt 1.459650 0.867721
vt 1.459650 1.067721
vt 0.979650 1.067721
vt 0.979650 0.667721
vt 1.459650 0.667721
vt 0.459650 0.667721
vt 0.939650 0.667721
vt 0.939650 0.867721
vt 0.459650 0.867721
vt 0.939650 1.067721
vt 0.459650 1.067721
vt -0.020350 0.667721
vt -0.020350 0.867721
vt -0.020350 1.067721
vt 0.064496 0.667721
vt -0.405504 0.667721
vt -0.405504 0.867721
vt 0.064496 0.867721
vt -0.405504 1.067721
vt 0.064496 1.067721
vt 0.084496 0.667721
vt 0.554496 0.667721
vt 0.554496 0.867721
vt 0.084496 0.867721
vt 0.554496 1.067721
vt 0.084496 1.067721
vt 0.594496 0.667721
vt 1.064496 0.667721
vt 1.064496 0.867721
vt 0.594496 0.867721
vt 1.064496 1.067721
vt 0.594496 1.067721
vt 0.628794 1.007259
vt 0.628794 3.043031
vt 0.628794 3.002316
vt 0.628794 2.025145
vt 0.628794 1.047975
vt 1.372165 0.820112
vt 1.412880 0.820112
vt 1.412880 1.227266
vt 1.372165 1.227266
vt 0.669510 1.007259
vt 0.588079 1.007259
vt 1.372165 0.412957
vt 1.412880 0.412957
vt 1.453596 0.412957
vt 1.453596 0.820112
vt 1.453596 1.227266
vt 1.412880 -0.808506
vt 1.412880 -1.215660
vt 1.453596 -1.215660
vt 1.453596 -0.808506
vt -0.389092 1.007259
vt -0.368734 1.007259
vt -0.368734 0.966544
vt -0.389092 0.966544
vt -0.409449 1.007259
vt -0.409449 0.966544
vt 0.628794 0.412957
vt 0.588079 0.412957
vt 0.588079 0.820112
vt 0.628794 0.820112
vt 0.588079 1.227266
vt 0.628794 1.227266
vt 1.372165 -1.215660
vt 1.372165 -0.808506
vt 0.628794 0.966544
vt 0.588079 0.966544
vt 0.669510 0.412957
vt 0.669510 0.820112
vt 0.669510 1.227266
vt 0.669510 0.966544
vt 0.588079 1.047975
vt 0.628794 -0.808506
vt 0.628794 -1.215660
vt 0.588079 -1.215660
vt 0.588079 -0.808506
vt 0.669510 1.047975
vt -0.389092 1.047975
vt -0.368734 1.047975
vt -0.409449 0.820112
vt -0.389092 0.820112
vt -0.389092 1.227266
vt -0.409449 1.227266
vt -0.409449 0.412957
vt -0.389092 0.412957
vt -0.368734 0.820112
vt -0.368734 1.227266
vt -0.368734 0.412957
vt -0.409449 1.047975
vn 0.000000 1.000000 0.000000
vn 1.000000 0.000000 0.000000
vn -1.000000 0.000000 0.000000
vn 0.000000 0.000000 -1.000000
vn 0.000000 0.000000 1.000000
vn 0.000000 -1.000000 0.000000
g Plane_Plane_Material.001
usemtl Material.001
s off
f 1/1/1 51/2/1 138/3/1 28/4/1 141/5/1 48/6/1 2/7/1 42/8/1 37/9/1 45/10/1 4/11/1 54/12/1 132/13/1 32/14/1 135/15/1 57/16/1 3/17/1
g Plane_Plane_Material.002
usemtl Material.002
f 24/18/2 21/19/2 18/20/2 23/21/2
f 22/22/2 17/23/2 21/19/2 24/18/2
f 17/24/2 25/25/2 27/26/2 21/27/2
f 21/27/2 27/26/2 26/28/2 18/29/2
f 47/26/3 41/27/3 38/29/3 46/28/3
f 45/25/3 37/24/3 41/27/3 47/26/3
f 37/24/3 42/30/3 44/31/3 41/27/3
f 41/27/3 44/31/3 43/32/3 38/29/3
f 138/33/4 51/34/4 53/35/4 140/36/4
f 140/36/4 53/35/4 52/37/4 139/38/4
f 132/39/5 54/40/5 56/41/5 134/42/5
f 134/42/5 56/41/5 55/43/5 133/44/5
f 57/45/5 135/46/5 137/47/5 59/48/5
f 59/48/5 137/47/5 136/49/5 58/50/5
f 48/40/4 141/39/4 143/42/4 50/41/4
f 50/41/4 143/42/4 142/44/4 49/43/4
g Plane_Plane_Material.003
usemtl Material.003
f 1/51/5 3/52/5 6/52/5 5/51/5
f 5/51/1 6/52/1 8/52/1 25/53/1 17/54/1 22/55/1 7/51/1
f 27/56/2 20/57/2 10/58/2 26/59/2
f 52/60/5 53/60/5 125/60/5 124/60/5
f 2/51/5 40/51/5 110/51/5 108/51/5
f 55/61/5 56/61/5 68/61/5 67/61/5
f 25/62/2 8/63/2 20/57/2 27/56/2
f 7/63/2 22/64/2 24/65/2 19/57/2
f 19/57/2 24/65/2 23/66/2 9/58/2
f 138/63/3 140/57/3 157/65/3 155/64/3
f 142/67/2 143/68/2 160/69/2 159/70/2
f 51/60/5 1/51/5 120/51/5 123/60/5
f 32/71/6 132/72/6 147/73/6 144/74/6
f 135/75/6 32/71/6 144/74/6 150/76/6
f 59/60/5 58/60/5 70/60/5 71/60/5
f 42/55/5 2/51/5 108/51/5 111/55/5
f 4/63/3 45/62/3 47/56/3 39/57/3
f 39/57/3 47/56/3 46/59/3 14/58/3
f 2/77/4 48/78/4 50/79/4 30/80/4
f 30/80/4 50/79/4 49/81/4 12/82/4
f 58/60/5 15/51/5 62/51/5 70/60/5
f 54/61/5 4/51/5 61/51/5 66/61/5
f 62/51/5 64/51/5 76/51/5 74/51/5
f 60/51/5 69/60/5 81/60/5 72/51/5
f 61/51/5 65/51/5 77/51/5 73/51/5
f 68/61/5 66/61/5 78/61/5 80/61/5
f 3/51/5 57/60/5 69/60/5 60/51/5
f 57/60/5 59/60/5 71/60/5 69/60/5
f 56/61/5 54/61/5 66/61/5 68/61/5
f 4/51/5 35/51/5 65/51/5 61/51/5
f 35/51/5 16/51/5 63/51/5 65/51/5
f 16/51/5 55/61/5 67/61/5 63/51/5
f 15/51/5 34/51/5 64/51/5 62/51/5
f 34/51/5 3/51/5 60/51/5 64/51/5
f 73/51/5 77/51/5 89/51/5 85/51/5
f 80/61/5 78/61/5 90/61/5 92/61/5
f 82/60/5 74/51/5 86/51/5 94/60/5
f 79/61/5 80/61/5 92/61/5 91/61/5
f 71/60/5 70/60/5 82/60/5 83/60/5
f 63/51/5 67/61/5 79/61/5 75/51/5
f 65/51/5 63/51/5 75/51/5 77/51/5
f 69/60/5 71/60/5 83/60/5 81/60/5
f 66/61/5 61/51/5 73/51/5 78/61/5
f 64/51/5 60/51/5 72/51/5 76/51/5
f 67/61/5 68/61/5 80/61/5 79/61/5
f 70/60/5 62/51/5 74/51/5 82/60/5
f 91/67/3 92/68/3 104/83/3 103/84/3
f 88/57/3 84/63/3 96/62/3 100/56/3
f 90/61/6 85/51/6 97/85/6 102/86/6
f 93/63/2 95/57/2 107/56/2 105/62/2
f 72/51/5 81/60/5 93/60/5 84/51/5
f 74/51/5 76/51/5 88/51/5 86/51/5
f 83/60/5 82/60/5 94/60/5 95/60/5
f 75/51/5 79/61/5 91/61/5 87/51/5
f 77/51/5 75/51/5 87/51/5 89/51/5
f 81/60/5 83/60/5 95/60/5 93/60/5
f 78/61/5 73/51/5 85/51/5 90/61/5
f 76/51/5 72/51/5 84/51/5 88/51/5
f 104/79/5 101/80/5 99/82/5 103/81/5
f 102/78/5 97/77/5 101/80/5 104/79/5
f 96/77/5 105/87/5 107/88/5 100/80/5
f 100/80/5 107/88/5 106/89/5 98/82/5
f 94/60/1 86/51/1 98/85/1 106/90/1
f 92/57/3 90/63/3 102/62/3 104/56/3
f 85/63/2 89/57/2 101/56/2 97/62/2
f 84/51/6 93/60/6 105/90/6 96/85/6
f 86/67/3 88/68/3 100/83/3 98/84/3
f 95/57/2 94/58/2 106/59/2 107/56/2
f 87/51/1 91/61/1 103/86/1 99/85/1
f 89/57/2 87/58/2 99/59/2 101/56/2
f 111/55/6 108/51/6 114/61/6 117/91/6
f 109/51/1 112/55/1 118/91/1 115/61/1
f 43/55/5 44/55/5 113/55/5 112/55/5
f 40/51/5 13/51/5 109/51/5 110/51/5
f 44/55/5 42/55/5 111/55/5 113/55/5
f 13/51/5 43/55/5 112/55/5 109/51/5
f 119/65/3 116/57/3 115/58/3 118/66/3
f 117/64/3 114/63/3 116/57/3 119/65/3
f 112/92/4 113/93/4 119/94/4 118/95/4
f 108/77/5 110/80/5 116/79/5 114/78/5
f 113/80/4 111/77/4 117/78/4 119/79/4
f 110/80/5 109/82/5 115/81/5 116/79/5
f 122/57/3 121/58/3 127/66/3 128/65/3
f 125/57/2 123/63/2 129/64/2 131/65/2
f 1/51/5 31/51/5 122/51/5 120/51/5
f 53/60/5 51/60/5 123/60/5 125/60/5
f 11/51/5 52/60/5 124/60/5 121/51/5
f 31/51/5 11/51/5 121/51/5 122/51/5
f 131/88/4 128/80/4 127/82/4 130/89/4
f 129/87/4 126/77/4 128/80/4 131/88/4
f 121/51/1 124/60/1 130/96/1 127/55/1
f 123/60/6 120/51/6 126/55/6 129/96/6
f 124/67/2 125/68/2 131/69/2 130/70/2
f 120/63/3 122/57/3 128/65/3 126/64/3
f 133/72/1 33/71/1 145/74/1 148/73/1
f 33/71/1 136/75/1 151/76/1 145/74/1
f 141/72/6 28/71/6 36/97/6 158/98/6
f 29/71/1 142/72/1 159/98/1 153/97/1
f 152/99/5 146/100/5 145/101/5 151/102/5
f 150/103/5 144/104/5 146/100/5 152/99/5
f 146/100/5 149/105/5 148/106/5 145/101/5
f 144/104/5 147/107/5 149/105/5 146/100/5
f 136/67/3 137/68/3 152/83/3 151/84/3
f 132/63/2 134/57/2 149/56/2 147/62/2
f 137/57/3 135/63/3 150/62/3 152/56/3
f 134/57/2 133/58/2 148/59/2 149/56/2
f 160/105/4 154/100/4 153/101/4 159/106/4
f 158/107/4 36/104/4 154/100/4 160/105/4
f 154/100/4 157/99/4 156/102/4 153/101/4
f 36/104/4 155/103/4 157/99/4 154/100/4
f 143/57/2 141/63/2 158/64/2 160/65/2
f 140/57/3 139/58/3 156/66/3 157/65/3
f 139/75/1 29/71/1 153/97/1 156/108/1
f 28/71/6 138/75/6 155/108/6 36/97/6
