# Blender v2.73 (sub 0) OBJ File: ''
# www.blender.org
mtllib box.mtl
v -2.000000 0.000000 2.000000
v 2.000000 0.000000 2.000000
v -2.000000 0.000000 -2.000000
v 2.000000 0.000000 -2.000000
v -2.000000 0.000000 2.000000
v 2.000000 0.000000 2.000000
v -2.000000 0.000000 -2.000000
v 2.000000 0.000000 -2.000000
v -2.000000 0.000000 2.000000
v 2.000000 0.000000 2.000000
v -2.000000 0.000000 -2.000000
v 2.000000 0.000000 -2.000000
v -2.000000 0.000000 2.000000
v 2.000000 0.000000 2.000000
v -2.000000 0.000000 -2.000000
v 2.000000 0.000000 -2.000000
v -2.000000 0.000000 2.000000
v 2.000000 0.000000 2.000000
v -2.000000 0.000000 -2.000000
v 2.000000 0.000000 -2.000000
v -2.000000 0.000000 2.000000
v 2.000000 0.000000 2.000000
v -2.000000 0.000000 -2.000000
v 2.000000 0.000000 -2.000000
v -2.000000 0.000000 2.000000
v 2.000000 0.000000 2.000000
v -2.000000 0.000000 -2.000000
v 2.000000 0.000000 -2.000000
v -2.000000 0.000000 2.000000
v 2.000000 0.000000 2.000000
v -2.000000 0.000000 -2.000000
v 2.000000 0.000000 -2.000000
v -2.000000 5.000000 2.000000
v 2.000000 5.000000 2.000000
v -2.000000 5.000000 -2.000000
v 2.000000 5.000000 -2.000000
v -2.000000 5.000000 2.000000
v 2.000000 5.000000 2.000000
v -2.000000 5.000000 -2.000000
v 2.000000 5.000000 -2.000000
vn 0.000000 0.707100 0.707100
vn 0.000000 0.447200 0.894400
vn 0.000000 0.000000 1.000000
vn 0.316200 0.000000 0.948700
vn 0.707100 0.000000 0.707100
vn 0.707100 0.000000 -0.707100
vn 0.000000 0.000000 -1.000000
vn 0.000000 -1.000000 0.000000
g Plane_Plane_Material.001
usemtl Material.001
s 1
f 2//1 1//2 5//3 6//3
f 1//2 3//2 7//3 5//3
f 3//2 4//1 8//3 7//3
f 7//3 8//3 12//3 11//3
f 6//3 5//3 9//3 10//3
f 5//3 7//3 11//3 9//3
f 10//3 9//3 13//3 14//3
f 9//3 11//3 15//3 13//3
f 11//3 12//3 16//3 15//3
f 15//3 16//3 20//3 19//3
f 14//3 13//3 17//3 18//3
f 13//3 15//3 19//3 17//3
f 19//3 20//3 24//3 23//3
f 18//3 17//3 21//3 22//3
f 17//3 19//3 23//3 21//3
f 21//3 23//3 27//3 25//3
f 23//3 24//3 28//3 27//3
f 22//3 21//3 25//3 26//3
f 27//3 28//3 32//3 31//4
f 26//3 25//3 29//5 30//5
f 25//3 27//3 31//4 29//5
f 31//4 32//3 36//3 35//5
f 34//3 36//3 40//3 38//3
f 36//3 35//3 39//3 40//3
f 33//3 34//3 38//3 37//3
f 35//3 33//3 37//3 39//3
g Plane_Plane_Material.002
usemtl Material.002
f 30//5 29//5 33//6 34//7
g Plane_Plane_Material.003
usemtl Material.003
f 29//5 31//4 35//5 33//6
g Plane_Plane_Material.004
usemtl Material.004
f 1//2 2//1 4//1 3//2
f 39//8 40//8 38//8 37//8
