# Blender v2.73 (sub 0) OBJ File: 'untitled.blend'
# www.blender.org
mtllib Landscape.021.mtl
o Landscape.021
v -63.353535 4.215720 94.383835
v -63.353535 5.080306 91.797981
v -63.353535 5.721871 89.212120
v -63.353535 6.880293 86.626259
v -63.353535 7.388701 84.040405
v -63.353535 8.417091 81.454544
v -63.353535 9.329583 78.868690
v -63.353535 10.415037 76.282829
v -63.353535 10.373091 73.696968
v -63.353535 9.986125 71.111115
v -63.353535 10.238220 68.525253
v -63.353535 10.630451 65.939392
v -60.767677 4.311206 94.383835
v -60.767677 5.101940 91.797981
v -60.767677 5.818267 89.212120
v -60.767677 6.450761 86.626259
v -60.767677 7.265400 84.040405
v -60.767677 8.016459 81.454544
v -60.767677 8.931519 78.868690
v -60.767677 9.798020 76.282829
v -60.767677 9.765674 73.696968
v -60.767677 9.577062 71.111115
v -60.767677 9.654006 68.525253
v -60.767677 9.853996 65.939392
v -58.181820 4.209203 94.383835
v -58.181820 5.153385 91.797981
v -58.181820 5.772929 89.212120
v -58.181820 6.271345 86.626259
v -58.181820 6.839749 84.040405
v -58.181820 7.389371 81.454544
v -58.181820 8.441948 78.868690
v -58.181820 9.458590 76.282829
v -58.181820 9.262700 73.696968
v -58.181820 9.539284 71.111115
v -58.181820 9.089594 68.525253
v -58.181820 9.230894 65.939392
v -55.595959 4.422007 94.383835
v -55.595959 5.078381 91.797981
v -55.595959 5.637395 89.212120
v -55.595959 6.180718 86.626259
v -55.595959 6.378384 84.040405
v -55.595959 7.413047 81.454544
v -55.595959 8.268738 78.868690
v -55.595959 8.719995 76.282829
v -55.595959 8.712274 73.696968
v -55.595959 8.949683 71.111115
v -55.595959 8.858080 68.525253
v -55.595959 9.323008 65.939392
v -53.010101 4.478580 94.383835
v -53.010101 4.798233 91.797981
v -53.010101 5.298171 89.212120
v -53.010101 5.769304 86.626259
v -53.010101 6.095026 84.040405
v -53.010101 7.060903 81.454544
v -53.010101 7.976812 78.868690
v -53.010101 8.272375 76.282829
v -53.010101 8.466815 73.696968
v -53.010101 8.772947 71.111115
v -53.010101 8.569024 68.525253
v -53.010101 9.451236 65.939392
v -50.424244 4.375631 94.383835
v -50.424244 4.703002 91.797981
v -50.424244 5.020721 89.212120
v -50.424244 5.607366 86.626259
v -50.424244 6.060321 84.040405
v -50.424244 6.528473 81.454544
v -50.424244 7.155021 78.868690
v -50.424244 8.041612 76.282829
v -50.424244 8.434161 73.696968
v -50.424244 8.839980 71.111115
v -50.424244 9.087277 68.525253
v -50.424244 9.940062 65.939392
v -47.838383 4.194935 94.383835
v -47.838383 4.616768 91.797981
v -47.838383 4.920515 89.212120
v -47.838383 5.678338 86.626259
v -47.838383 5.872101 84.040405
v -47.838383 6.229018 81.454544
v -47.838383 7.220196 78.868690
v -47.838383 8.189163 76.282829
v -47.838383 8.572631 73.696968
v -47.838383 9.208945 71.111115
v -47.838383 9.630674 68.525253
v -47.838383 11.088958 65.939392
v -45.252525 3.917983 94.383835
v -45.252525 4.333348 91.797981
v -45.252525 4.802965 89.212120
v -45.252525 5.389119 86.626259
v -45.252525 5.828551 84.040405
v -45.252525 6.378461 81.454544
v -45.252525 7.419528 78.868690
v -45.252525 8.200334 76.282829
v -45.252525 8.716863 73.696968
v -45.252525 9.574057 71.111115
v -45.252525 10.601215 68.525253
v -45.252525 11.504209 65.939392
v -42.666668 3.845999 94.383835
v -42.666668 4.223760 91.797981
v -42.666668 4.869082 89.212120
v -42.666668 5.760856 86.626259
v -42.666668 6.387174 84.040405
v -42.666668 7.134568 81.454544
v -42.666668 8.370202 78.868690
v -42.666668 8.944372 76.282829
v -42.666668 9.744126 73.696968
v -42.666668 11.039385 71.111115
v -42.666668 11.541930 68.525253
v -42.666668 12.683304 65.939392
v -40.080807 3.812945 94.383835
v -40.080807 4.536624 91.797981
v -40.080807 5.442837 89.212120
v -40.080807 6.408819 86.626259
v -40.080807 7.355601 84.040405
v -40.080807 8.721865 81.454544
v -40.080807 9.546313 78.868690
v -40.080807 10.779829 76.282829
v -40.080807 11.289473 73.696968
v -40.080807 12.004952 71.111115
v -40.080807 12.854975 68.525253
v -40.080807 13.621476 65.939392
v -37.494949 4.454840 94.383835
v -37.494949 5.407557 91.797981
v -37.494949 6.182807 89.212120
v -37.494949 7.167879 86.626259
v -37.494949 8.571873 84.040405
v -37.494949 10.450402 81.454544
v -37.494949 11.696031 78.868690
v -37.494949 12.643949 76.282829
v -37.494949 12.146237 73.696968
v -37.494949 13.508000 71.111115
v -37.494949 14.834683 68.525253
v -37.494949 15.134390 65.939392
v -34.909092 4.444089 94.383835
v -34.909092 5.573067 91.797981
v -34.909092 6.915254 89.212120
v -34.909092 7.924326 86.626259
v -34.909092 9.686233 84.040405
v -34.909092 11.296950 81.454544
v -34.909092 13.105124 78.868690
v -34.909092 14.491866 76.282829
v -34.909092 14.622383 73.696968
v -34.909092 14.963256 71.111115
v -34.909092 15.684917 68.525253
v -34.909092 15.893862 65.939392
v -32.323231 4.549123 94.383835
v -32.323231 5.805740 91.797981
v -32.323231 7.060453 89.212120
v -32.323231 8.345028 86.626259
v -32.323231 10.036642 84.040405
v -32.323231 11.976137 81.454544
v -32.323231 13.296627 78.868690
v -32.323231 15.424137 76.282829
v -32.323231 15.787170 73.696968
v -32.323231 15.653347 71.111115
v -32.323231 15.259761 68.525253
v -32.323231 15.840242 65.939392
v -64.000000 4.982121 91.797981
v -64.000000 4.154978 94.383835
v -64.000000 8.464527 81.454544
v -64.000000 7.347179 84.040405
v -64.000000 5.743851 89.212120
v -64.000000 6.804782 86.626259
v -64.000000 10.218360 68.525253
v -64.000000 10.528694 65.939392
v -64.000000 9.393591 78.868690
v -64.000000 10.420804 76.282829
v -64.000000 9.855981 71.111115
v -64.000000 10.316333 73.696968
v -32.000000 15.648214 71.111115
v -32.000000 15.271824 68.525253
v -32.000000 15.814153 65.939392
v -32.000000 15.784088 73.696968
v -32.000000 11.910110 81.454544
v -32.000000 13.237425 78.868690
v -32.000000 15.288560 76.282829
v -32.000000 4.582532 94.383835
v -32.000000 5.793037 91.797981
v -32.000000 7.003793 89.212120
v -32.000000 9.934882 84.040405
v -32.000000 8.287607 86.626259
v -53.010101 4.227705 96.000000
v -45.252525 3.603232 96.000000
v -60.767677 4.041183 96.000000
v -63.353535 3.879053 96.000000
v -47.838383 4.000906 96.000000
v -32.323231 4.029835 96.000000
v -50.424244 4.025382 96.000000
v -37.494949 4.067882 96.000000
v -58.181820 4.000735 96.000000
v -42.666668 3.587966 96.000000
v -55.595959 4.203187 96.000000
v -40.080807 3.651955 96.000000
v -34.909092 4.034227 96.000000
v -64.000000 3.816678 96.000000
v -32.000000 4.044583 96.000000
v -55.595959 9.889058 64.000000
v -58.181820 9.780560 64.000000
v -40.080807 14.874710 64.000000
v -42.666668 13.809995 64.000000
v -45.252525 12.817404 64.000000
v -37.494949 16.105024 64.000000
v -32.000000 16.432459 64.000000
v -32.323231 16.472902 64.000000
v -63.353535 10.243672 64.000000
v -64.000000 10.147077 64.000000
v -34.909092 16.415207 64.000000
v -60.767677 10.084949 64.000000
v -53.010101 10.342330 64.000000
v -50.424244 10.864435 64.000000
v -47.838383 11.928239 64.000000
vn -0.092800 0.974700 0.203500
vn -0.071100 0.978400 0.194000
vn -0.070200 0.965400 0.251200
vn -0.104400 0.961100 0.255800
vn -0.053700 0.957800 0.282200
vn -0.087300 0.954200 0.286000
vn -0.014300 0.950800 0.309500
vn -0.047500 0.943100 0.329100
vn 0.009300 0.956500 0.291400
vn -0.063000 0.951900 0.300000
vn 0.028900 0.956500 0.290300
vn -0.042900 0.955700 0.291300
vn 0.081300 0.935600 0.343600
vn 0.043300 0.932400 0.358700
vn 0.114600 0.930600 0.347700
vn 0.065100 0.932000 0.356600
vn 0.106800 0.979200 0.172600
vn 0.005300 0.983900 0.178500
vn 0.061000 0.995000 -0.078400
vn -0.090900 0.991300 -0.094900
vn 0.031400 0.999200 -0.023000
vn -0.129100 0.991400 -0.021300
vn 0.059800 0.992400 0.107600
vn -0.103700 0.986600 0.125600
vn 0.047200 0.998900 0.003300
vn -0.122600 0.992000 -0.030100
vn -0.010900 0.986100 0.165500
vn -0.008500 0.970800 0.239500
vn -0.008900 0.959400 0.281900
vn 0.020200 0.965000 0.261500
vn 0.079600 0.961800 0.261800
vn 0.126900 0.955400 0.266700
vn 0.157800 0.936800 0.312100
vn 0.167100 0.925100 0.340800
vn 0.183700 0.969700 0.161000
vn 0.172200 0.984300 -0.037700
vn 0.150200 0.988300 -0.025100
vn 0.195700 0.979800 0.041400
vn 0.207800 0.974500 0.083900
vn -0.026000 0.990000 0.138700
vn -0.017200 0.974700 0.222900
vn 0.005600 0.962400 0.271500
vn 0.030900 0.974800 0.220700
vn 0.075700 0.976200 0.203400
vn 0.122600 0.964200 0.234900
vn 0.124800 0.943600 0.306500
vn 0.136700 0.935300 0.326200
vn 0.182300 0.974200 0.133300
vn 0.181200 0.983400 0.008200
vn 0.147600 0.988900 -0.015100
vn 0.131100 0.991300 0.001700
vn 0.097000 0.981700 0.163500
vn -0.047600 0.989400 0.137300
vn -0.019500 0.981600 0.189800
vn 0.043600 0.973100 0.226200
vn 0.085200 0.975600 0.202500
vn 0.105300 0.981700 0.158300
vn 0.108900 0.968100 0.225500
vn 0.084700 0.940300 0.329600
vn 0.113100 0.956100 0.270500
vn 0.171900 0.979600 0.103900
vn 0.167700 0.984600 0.049700
vn 0.136300 0.990600 0.010400
vn 0.076400 0.995600 0.053300
vn -0.021200 0.968000 0.249900
vn 0.021400 0.986300 0.163400
vn 0.030700 0.986800 0.159000
vn 0.066800 0.983800 0.166200
vn 0.102900 0.977000 0.186600
vn 0.098700 0.982100 0.160200
vn 0.097800 0.970900 0.218400
vn 0.146600 0.940300 0.307000
vn 0.173100 0.955000 0.240600
vn 0.129800 0.983300 0.127600
vn 0.064500 0.993100 0.097400
vn 0.013000 0.998700 0.048300
vn -0.043400 0.990600 0.129400
vn -0.108400 0.936300 0.333900
vn 0.048500 0.983500 0.174200
vn 0.046500 0.987000 0.154000
vn 0.048900 0.989500 0.135500
vn 0.048700 0.982100 0.181900
vn 0.037300 0.982700 0.181500
vn 0.064700 0.982500 0.174200
vn 0.120300 0.960400 0.251000
vn 0.111800 0.951700 0.285900
vn 0.038900 0.977600 0.206800
vn -0.026600 0.988500 0.148700
vn -0.097000 0.988300 0.117600
vn -0.189900 0.958600 0.212100
vn -0.249500 0.890900 0.379400
vn 0.083800 0.983500 0.160200
vn 0.081100 0.984500 0.155700
vn 0.067300 0.987500 0.142200
vn 0.048600 0.980000 0.192700
vn 0.041900 0.981500 0.186900
vn 0.039600 0.988800 0.143800
vn 0.013600 0.968500 0.248600
vn -0.024400 0.943400 0.330900
vn -0.040500 0.968700 0.244800
vn -0.068600 0.977700 0.198200
vn -0.151200 0.964600 0.216000
vn -0.237200 0.924900 0.297100
vn -0.278000 0.866900 0.413700
vn 0.071800 0.983700 0.164700
vn 0.071500 0.984500 0.159900
vn 0.056500 0.984300 0.167400
vn 0.020000 0.975000 0.221200
vn -0.028500 0.976500 0.213500
vn -0.092500 0.978700 0.183400
vn -0.153000 0.944200 0.291500
vn -0.175100 0.926300 0.333600
vn -0.173700 0.953900 0.244600
vn -0.212100 0.941900 0.260300
vn -0.290700 0.911000 0.292300
vn -0.313200 0.894300 0.319700
vn -0.286100 0.856900 0.428700
vn 0.005400 0.988400 0.151600
vn -0.001900 0.986100 0.165800
vn -0.042600 0.975900 0.213900
vn -0.112800 0.954700 0.275300
vn -0.190500 0.943300 0.271700
vn -0.279000 0.922900 0.265300
vn -0.347600 0.878100 0.328800
vn -0.383200 0.869400 0.312000
vn -0.409100 0.878600 0.246500
vn -0.424300 0.860700 0.281400
vn -0.405400 0.866000 0.292600
vn -0.383300 0.877200 0.289100
vn -0.348200 0.839100 0.417900
vn -0.101700 0.983900 0.146800
vn -0.131000 0.971000 0.199800
vn -0.192800 0.942500 0.273000
vn -0.232500 0.920800 0.313000
vn -0.273800 0.901800 0.334200
vn -0.368100 0.851500 0.373200
vn -0.466100 0.802200 0.372900
vn -0.520400 0.795800 0.309700
vn -0.526400 0.823700 0.210500
vn -0.454700 0.862500 0.222100
vn -0.428100 0.849400 0.308500
vn -0.464500 0.843100 0.270900
vn -0.421500 0.832100 0.360300
vn -0.096400 0.974500 0.202400
vn -0.123800 0.954200 0.272400
vn -0.185200 0.922900 0.337400
vn -0.239800 0.908900 0.341100
vn -0.287600 0.873200 0.393400
vn -0.344900 0.807400 0.478600
vn -0.421700 0.788500 0.447600
vn -0.499100 0.783100 0.371100
vn -0.558500 0.814100 0.158800
vn -0.521300 0.841700 0.140500
vn -0.486400 0.815100 0.314600
vn -0.442000 0.865900 0.234100
vn -0.375300 0.884300 0.277600
vn -0.005200 0.966200 0.257900
vn -0.024300 0.944500 0.327400
vn -0.078400 0.911500 0.403800
vn -0.147600 0.907000 0.394400
vn -0.197300 0.868500 0.454700
vn -0.220200 0.813300 0.538500
vn -0.242300 0.817800 0.521900
vn -0.301000 0.825800 0.476800
vn -0.434500 0.865400 0.249700
vn -0.494900 0.864600 0.086400
vn -0.351100 0.918400 0.182200
vn -0.161500 0.973100 0.163900
vn -0.100800 0.968800 0.226300
vn -0.044600 0.955000 0.293200
vn -0.044800 0.932100 0.359300
vn -0.013900 0.901600 0.432300
vn 0.022700 0.901400 0.432300
vn 0.034900 0.870400 0.491000
vn 0.030300 0.822100 0.568500
vn 0.017400 0.845900 0.533100
vn 0.021300 0.838100 0.545000
vn -0.037400 0.934200 0.354700
vn -0.124200 0.990400 0.060300
vn -0.098800 0.994800 -0.025300
vn 0.012600 0.997500 0.069900
vn 0.052800 0.969500 0.239200
vn 0.001000 0.995000 -0.099800
vn 0.005400 0.999400 0.033100
vn 0.059000 0.964200 0.258700
vn 0.111100 0.992300 0.054700
vn 0.188100 0.828900 0.526800
vn 0.198300 0.825600 0.528300
vn 0.225600 0.878700 0.420700
vn -0.070600 0.948100 0.310100
vn -0.049400 0.926700 0.372500
vn 0.033200 0.902100 0.430200
vn 0.124900 0.892300 0.433800
vn 0.202700 0.804600 0.558100
vn 0.178400 0.856900 0.483600
vn -0.071700 0.946700 0.314100
vn 0.069100 0.969200 0.236500
vn -0.373700 0.798600 0.471900
vn -0.322900 0.804200 0.498900
vn -0.283100 0.824100 0.490600
vn -0.297300 0.866000 0.402000
vn 0.097500 0.947200 0.305500
vn 0.047900 0.954100 0.295600
vn 0.013900 0.992900 -0.118200
vn -0.148800 0.970000 -0.192200
vn -0.094500 0.942600 0.320100
vn 0.176700 0.981200 0.077200
vn -0.141400 0.911700 0.385800
vn -0.277300 0.872500 0.402300
vn -0.283500 0.854500 0.435300
usemtl None
s 1
f 194//1 184//2 1//3 158//4
f 158//4 1//3 2//5 157//6
f 157//6 2//5 3//7 161//8
f 161//8 3//7 4//9 162//10
f 162//10 4//9 5//11 160//12
f 160//12 5//11 6//13 159//14
f 159//14 6//13 7//15 165//16
f 165//16 7//15 8//17 166//18
f 166//18 8//17 9//19 168//20
f 168//20 9//19 10//21 167//22
f 167//22 10//21 11//23 163//24
f 163//24 11//23 12//25 164//26
f 184//2 183//27 13//28 1//3
f 1//3 13//28 14//29 2//5
f 2//5 14//29 15//30 3//7
f 3//7 15//30 16//31 4//9
f 4//9 16//31 17//32 5//11
f 5//11 17//32 18//33 6//13
f 6//13 18//33 19//34 7//15
f 7//15 19//34 20//35 8//17
f 8//17 20//35 21//36 9//19
f 9//19 21//36 22//37 10//21
f 10//21 22//37 23//38 11//23
f 11//23 23//38 24//39 12//25
f 183//27 189//40 25//41 13//28
f 13//28 25//41 26//42 14//29
f 14//29 26//42 27//43 15//30
f 15//30 27//43 28//44 16//31
f 16//31 28//44 29//45 17//32
f 17//32 29//45 30//46 18//33
f 18//33 30//46 31//47 19//34
f 19//34 31//47 32//48 20//35
f 20//35 32//48 33//49 21//36
f 21//36 33//49 34//50 22//37
f 22//37 34//50 35//51 23//38
f 23//38 35//51 36//52 24//39
f 189//40 191//53 37//54 25//41
f 25//41 37//54 38//55 26//42
f 26//42 38//55 39//56 27//43
f 27//43 39//56 40//57 28//44
f 28//44 40//57 41//58 29//45
f 29//45 41//58 42//59 30//46
f 30//46 42//59 43//60 31//47
f 31//47 43//60 44//61 32//48
f 32//48 44//61 45//62 33//49
f 33//49 45//62 46//63 34//50
f 34//50 46//63 47//64 35//51
f 35//51 47//64 48//65 36//52
f 191//53 181//66 49//67 37//54
f 37//54 49//67 50//68 38//55
f 38//55 50//68 51//69 39//56
f 39//56 51//69 52//70 40//57
f 40//57 52//70 53//71 41//58
f 41//58 53//71 54//72 42//59
f 42//59 54//72 55//73 43//60
f 43//60 55//73 56//74 44//61
f 44//61 56//74 57//75 45//62
f 45//62 57//75 58//76 46//63
f 46//63 58//76 59//77 47//64
f 47//64 59//77 60//78 48//65
f 181//66 187//79 61//80 49//67
f 49//67 61//80 62//81 50//68
f 50//68 62//81 63//82 51//69
f 51//69 63//82 64//83 52//70
f 52//70 64//83 65//84 53//71
f 53//71 65//84 66//85 54//72
f 54//72 66//85 67//86 55//73
f 55//73 67//86 68//87 56//74
f 56//74 68//87 69//88 57//75
f 57//75 69//88 70//89 58//76
f 58//76 70//89 71//90 59//77
f 59//77 71//90 72//91 60//78
f 187//79 185//92 73//93 61//80
f 61//80 73//93 74//94 62//81
f 62//81 74//94 75//95 63//82
f 63//82 75//95 76//96 64//83
f 64//83 76//96 77//97 65//84
f 65//84 77//97 78//98 66//85
f 66//85 78//98 79//99 67//86
f 67//86 79//99 80//100 68//87
f 68//87 80//100 81//101 69//88
f 69//88 81//101 82//102 70//89
f 70//89 82//102 83//103 71//90
f 71//90 83//103 84//104 72//91
f 185//92 182//105 85//106 73//93
f 73//93 85//106 86//107 74//94
f 74//94 86//107 87//108 75//95
f 75//95 87//108 88//109 76//96
f 76//96 88//109 89//110 77//97
f 77//97 89//110 90//111 78//98
f 78//98 90//111 91//112 79//99
f 79//99 91//112 92//113 80//100
f 80//100 92//113 93//114 81//101
f 81//101 93//114 94//115 82//102
f 82//102 94//115 95//116 83//103
f 83//103 95//116 96//117 84//104
f 182//105 190//118 97//119 85//106
f 85//106 97//119 98//120 86//107
f 86//107 98//120 99//121 87//108
f 87//108 99//121 100//122 88//109
f 88//109 100//122 101//123 89//110
f 89//110 101//123 102//124 90//111
f 90//111 102//124 103//125 91//112
f 91//112 103//125 104//126 92//113
f 92//113 104//126 105//127 93//114
f 93//114 105//127 106//128 94//115
f 94//115 106//128 107//129 95//116
f 95//116 107//129 108//130 96//117
f 190//118 192//131 109//132 97//119
f 97//119 109//132 110//133 98//120
f 98//120 110//133 111//134 99//121
f 99//121 111//134 112//135 100//122
f 100//122 112//135 113//136 101//123
f 101//123 113//136 114//137 102//124
f 102//124 114//137 115//138 103//125
f 103//125 115//138 116//139 104//126
f 104//126 116//139 117//140 105//127
f 105//127 117//140 118//141 106//128
f 106//128 118//141 119//142 107//129
f 107//129 119//142 120//143 108//130
f 192//131 188//144 121//145 109//132
f 109//132 121//145 122//146 110//133
f 110//133 122//146 123//147 111//134
f 111//134 123//147 124//148 112//135
f 112//135 124//148 125//149 113//136
f 113//136 125//149 126//150 114//137
f 114//137 126//150 127//151 115//138
f 115//138 127//151 128//152 116//139
f 116//139 128//152 129//153 117//140
f 117//140 129//153 130//154 118//141
f 118//141 130//154 131//155 119//142
f 119//142 131//155 132//156 120//143
f 188//144 193//157 133//158 121//145
f 121//145 133//158 134//159 122//146
f 122//146 134//159 135//160 123//147
f 123//147 135//160 136//161 124//148
f 124//148 136//161 137//162 125//149
f 125//149 137//162 138//163 126//150
f 126//150 138//163 139//164 127//151
f 127//151 139//164 140//165 128//152
f 128//152 140//165 141//166 129//153
f 129//153 141//166 142//167 130//154
f 130//154 142//167 143//168 131//155
f 131//155 143//168 144//169 132//156
f 193//157 186//170 145//171 133//158
f 133//158 145//171 146//172 134//159
f 134//159 146//172 147//173 135//160
f 135//160 147//173 148//174 136//161
f 136//161 148//174 149//175 137//162
f 137//162 149//175 150//176 138//163
f 138//163 150//176 151//177 139//164
f 139//164 151//177 152//178 140//165
f 140//165 152//178 153//179 141//166
f 141//166 153//179 154//180 142//167
f 142//167 154//180 155//181 143//168
f 143//168 155//181 156//182 144//169
f 154//180 169//183 170//184 155//181
f 155//181 170//184 171//185 156//182
f 153//179 172//186 169//183 154//180
f 150//176 173//187 174//188 151//177
f 151//177 174//188 175//189 152//178
f 152//178 175//189 172//186 153//179
f 186//170 195//190 176//191 145//171
f 145//171 176//191 177//192 146//172
f 146//172 177//192 178//193 147//173
f 149//175 179//194 173//187 150//176
f 147//173 178//193 180//195 148//174
f 148//174 180//195 179//194 149//175
f 36//52 48//65 196//196 197//197
f 108//130 120//143 198//198 199//199
f 96//117 108//130 199//199 200//200
f 120//143 132//156 201//201 198//198
f 156//182 171//185 202//202 203//203
f 164//26 12//25 204//204 205//205
f 132//156 144//169 206//206 201//201
f 144//169 156//182 203//203 206//206
f 12//25 24//39 207//207 204//204
f 24//39 36//52 197//197 207//207
f 48//65 60//78 208//208 196//196
f 60//78 72//91 209//209 208//208
f 72//91 84//104 210//210 209//209
f 84//104 96//117 200//200 210//210
