# Blender v2.73 (sub 0) OBJ File: 'untitled.blend'
# www.blender.org
mtllib Landscape.065.mtl
o Landscape.065
v 96.969696 0.000000 125.414139
v 96.969696 0.000000 122.828285
v 96.969696 0.000000 120.242424
v 96.969696 0.000000 117.656563
v 96.969696 0.002336 115.070709
v 96.969696 0.045068 112.484848
v 96.969696 0.133589 109.898987
v 96.969696 0.301213 107.313133
v 96.969696 0.544482 104.727272
v 96.969696 0.746761 102.141411
v 96.969696 0.908329 99.555557
v 96.969696 1.196595 96.969696
v 99.555557 0.000000 125.414139
v 99.555557 0.000000 122.828285
v 99.555557 0.000000 120.242424
v 99.555557 0.000000 117.656563
v 99.555557 0.000000 115.070709
v 99.555557 0.012619 112.484848
v 99.555557 0.072335 109.898987
v 99.555557 0.188096 107.313133
v 99.555557 0.361675 104.727272
v 99.555557 0.542431 102.141411
v 99.555557 0.698043 99.555557
v 99.555557 0.929781 96.969696
v 102.141411 0.000000 125.414139
v 102.141411 0.000000 122.828285
v 102.141411 0.000000 120.242424
v 102.141411 0.000000 117.656563
v 102.141411 0.000000 115.070709
v 102.141411 0.000000 112.484848
v 102.141411 0.023012 109.898987
v 102.141411 0.095453 107.313133
v 102.141411 0.205421 104.727272
v 102.141411 0.349146 102.141411
v 102.141411 0.494878 99.555557
v 102.141411 0.656013 96.969696
v 104.727272 0.000000 125.414139
v 104.727272 0.000000 122.828285
v 104.727272 0.000000 120.242424
v 104.727272 0.000000 117.656563
v 104.727272 0.000000 115.070709
v 104.727272 0.000000 112.484848
v 104.727272 0.000587 109.898987
v 104.727272 0.028725 107.313133
v 104.727272 0.094128 104.727272
v 104.727272 0.193166 102.141411
v 104.727272 0.306157 99.555557
v 104.727272 0.424257 96.969696
v 107.313133 0.000000 125.414139
v 107.313133 0.000000 122.828285
v 107.313133 0.000000 120.242424
v 107.313133 0.000000 117.656563
v 107.313133 0.000000 115.070709
v 107.313133 0.000000 112.484848
v 107.313133 0.000000 109.898987
v 107.313133 0.001153 107.313133
v 107.313133 0.027528 104.727272
v 107.313133 0.086944 102.141411
v 107.313133 0.178441 99.555557
v 107.313133 0.274193 96.969696
v 109.898987 0.000000 125.414139
v 109.898987 0.000000 122.828285
v 109.898987 0.000000 120.242424
v 109.898987 0.000000 117.656563
v 109.898987 0.000000 115.070709
v 109.898987 0.000000 112.484848
v 109.898987 0.000000 109.898987
v 109.898987 0.000000 107.313133
v 109.898987 0.000540 104.727272
v 109.898987 0.021604 102.141411
v 109.898987 0.074209 99.555557
v 109.898987 0.144559 96.969696
v 112.484848 0.000000 125.414139
v 112.484848 0.000000 122.828285
v 112.484848 0.000000 120.242424
v 112.484848 0.000000 117.656563
v 112.484848 0.000000 115.070709
v 112.484848 0.000000 112.484848
v 112.484848 0.000000 109.898987
v 112.484848 0.000000 107.313133
v 112.484848 0.000000 104.727272
v 112.484848 0.000000 102.141411
v 112.484848 0.013102 99.555557
v 112.484848 0.051042 96.969696
v 115.070709 0.000000 125.414139
v 115.070709 0.000000 122.828285
v 115.070709 0.000000 120.242424
v 115.070709 0.000000 117.656563
v 115.070709 0.000000 115.070709
v 115.070709 0.000000 112.484848
v 115.070709 0.000000 109.898987
v 115.070709 0.000000 107.313133
v 115.070709 0.000000 104.727272
v 115.070709 0.000000 102.141411
v 115.070709 0.000000 99.555557
v 115.070709 0.003015 96.969696
v 117.656563 0.000000 125.414139
v 117.656563 0.000000 122.828285
v 117.656563 0.000000 120.242424
v 117.656563 0.000000 117.656563
v 117.656563 0.000000 115.070709
v 117.656563 0.000000 112.484848
v 117.656563 0.000000 109.898987
v 117.656563 0.000000 107.313133
v 117.656563 0.000000 104.727272
v 117.656563 0.000000 102.141411
v 117.656563 0.000000 99.555557
v 117.656563 0.000000 96.969696
v 120.242424 0.000000 125.414139
v 120.242424 0.000000 122.828285
v 120.242424 0.000000 120.242424
v 120.242424 0.000000 117.656563
v 120.242424 0.000000 115.070709
v 120.242424 0.000000 112.484848
v 120.242424 0.000000 109.898987
v 120.242424 0.000000 107.313133
v 120.242424 0.000000 104.727272
v 120.242424 0.000000 102.141411
v 120.242424 0.000000 99.555557
v 120.242424 0.000000 96.969696
v 122.828285 0.000000 125.414139
v 122.828285 0.000000 122.828285
v 122.828285 0.000000 120.242424
v 122.828285 0.000000 117.656563
v 122.828285 0.000000 115.070709
v 122.828285 0.000000 112.484848
v 122.828285 0.000000 109.898987
v 122.828285 0.000000 107.313133
v 122.828285 0.000000 104.727272
v 122.828285 0.000000 102.141411
v 122.828285 0.000000 99.555557
v 122.828285 0.000000 96.969696
v 125.414139 0.000000 125.414139
v 125.414139 0.000000 122.828285
v 125.414139 0.000000 120.242424
v 125.414139 0.000000 117.656563
v 125.414139 0.000000 115.070709
v 125.414139 0.000000 112.484848
v 125.414139 0.000000 109.898987
v 125.414139 0.000000 107.313133
v 125.414139 0.000000 104.727272
v 125.414139 0.000000 102.141411
v 125.414139 0.000000 99.555557
v 125.414139 0.000000 96.969696
v 128.000000 0.000000 125.414139
v 128.000000 0.000000 122.828285
v 128.000000 0.000000 120.242424
v 128.000000 0.000000 117.656563
v 128.000000 0.000000 115.070709
v 128.000000 0.000000 112.484848
v 128.000000 0.000000 109.898987
v 128.000000 0.000000 107.313133
v 128.000000 0.000000 104.727272
v 128.000000 0.000000 102.141411
v 128.000000 0.000000 99.555557
v 128.000000 0.000000 96.969696
v 96.000000 1.293798 96.969696
v 96.000000 0.832295 102.141411
v 96.000000 1.010818 99.555557
v 96.000000 0.000000 120.242424
v 96.000000 0.000000 122.828285
v 96.000000 0.000000 117.656563
v 96.000000 0.008443 115.070709
v 96.000000 0.168380 109.898987
v 96.000000 0.062728 112.484848
v 96.000000 0.602373 104.727272
v 96.000000 0.348169 107.313133
v 96.000000 0.000000 125.414139
v 122.828285 0.000000 128.000000
v 107.313133 0.000000 128.000000
v 104.727272 0.000000 128.000000
v 120.242424 0.000000 128.000000
v 117.656563 0.000000 128.000000
v 99.555557 0.000000 128.000000
v 125.414139 0.000000 128.000000
v 96.969696 0.000000 128.000000
v 112.484848 0.000000 128.000000
v 128.000000 0.000000 128.000000
v 115.070709 0.000000 128.000000
v 109.898987 0.000000 128.000000
v 102.141411 0.000000 128.000000
v 96.000000 0.000000 128.000000
v 128.000000 0.000000 96.000000
v 125.414139 0.000000 96.000000
v 115.070709 0.012179 96.000000
v 112.484848 0.074893 96.000000
v 96.969696 1.317385 96.000000
v 96.000000 1.419729 96.000000
v 122.828285 0.000000 96.000000
v 120.242424 0.000000 96.000000
v 109.898987 0.179963 96.000000
v 107.313133 0.314514 96.000000
v 99.555557 1.029979 96.000000
v 102.141411 0.724747 96.000000
v 104.727272 0.483880 96.000000
v 117.656563 0.000000 96.000000
vn 0.000000 1.000000 0.000000
vn 0.000900 1.000000 0.000600
vn 0.001600 1.000000 0.001000
vn 0.005600 0.999900 0.008000
vn 0.007700 0.999900 0.010400
vn 0.016000 0.999600 0.023900
vn 0.019600 0.999400 0.028100
vn 0.030200 0.998400 0.046900
vn 0.034500 0.998000 0.052300
vn 0.046600 0.996100 0.074300
vn 0.047900 0.995500 0.081300
vn 0.064600 0.994400 0.083100
vn 0.063700 0.994000 0.089300
vn 0.081000 0.994200 0.070800
vn 0.085000 0.993600 0.074200
vn 0.092300 0.992200 0.083800
vn 0.099100 0.991200 0.087400
vn 0.100200 0.988600 0.111700
vn 0.101700 0.987900 0.117400
vn 0.000100 1.000000 0.000100
vn 0.002400 1.000000 0.003400
vn 0.009800 0.999800 0.014400
vn 0.022800 0.999100 0.033900
vn 0.041500 0.997500 0.056500
vn 0.061600 0.995800 0.067800
vn 0.074400 0.995200 0.063800
vn 0.084700 0.993700 0.073500
vn 0.099900 0.990600 0.093400
vn 0.000600 1.000000 0.000600
vn 0.004700 1.000000 0.005700
vn 0.015200 0.999700 0.019100
vn 0.031700 0.998800 0.036100
vn 0.050300 0.997500 0.049400
vn 0.065400 0.996400 0.054300
vn 0.078800 0.995100 0.059200
vn 0.093500 0.993100 0.070300
vn 0.001100 1.000000 0.001200
vn 0.006800 0.999900 0.007400
vn 0.018800 0.999600 0.019200
vn 0.034400 0.998900 0.032300
vn 0.049100 0.997900 0.041700
vn 0.061500 0.997000 0.046100
vn 0.071700 0.996000 0.053000
vn 0.001400 1.000000 0.001500
vn 0.007300 0.999900 0.007200
vn 0.018700 0.999700 0.017300
vn 0.032300 0.999100 0.028400
vn 0.044200 0.998400 0.035200
vn 0.052800 0.997700 0.040900
vn 0.001400 1.000000 0.001400
vn 0.006900 0.999900 0.006200
vn 0.017700 0.999700 0.015000
vn 0.030900 0.999200 0.023400
vn 0.041100 0.998700 0.030600
vn 0.001100 1.000000 0.001000
vn 0.005700 1.000000 0.004800
vn 0.015000 0.999800 0.011000
vn 0.025400 0.999500 0.019100
vn 0.003700 1.000000 0.002700
vn 0.009200 0.999900 0.007500
vn 0.000900 1.000000 0.001300
vn 0.012200 0.999900 0.010900
vn 0.029900 0.999300 0.023800
vn 0.103700 0.987500 0.119100
vn 0.101500 0.986900 0.125500
vn 0.044700 0.998400 0.034700
vn 0.056300 0.997400 0.045200
vn 0.108400 0.989100 0.099500
vn 0.100900 0.992000 0.076100
vn 0.076200 0.995400 0.058600
vn 0.001500 1.000000 0.002400
usemtl None
s 1
f 182//1 176//1 1//1 168//1
f 168//1 1//1 2//1 161//1
f 161//1 2//1 3//1 160//1
f 160//1 3//1 4//2 162//3
f 162//3 4//2 5//4 163//5
f 163//5 5//4 6//6 165//7
f 165//7 6//6 7//8 164//9
f 164//9 7//8 8//10 167//11
f 167//11 8//10 9//12 166//13
f 166//13 9//12 10//14 158//15
f 158//15 10//14 11//16 159//17
f 159//17 11//16 12//18 157//19
f 176//1 174//1 13//1 1//1
f 1//1 13//1 14//1 2//1
f 2//1 14//1 15//1 3//1
f 3//1 15//1 16//20 4//2
f 4//2 16//20 17//21 5//4
f 5//4 17//21 18//22 6//6
f 6//6 18//22 19//23 7//8
f 7//8 19//23 20//24 8//10
f 8//10 20//24 21//25 9//12
f 9//12 21//25 22//26 10//14
f 10//14 22//26 23//27 11//16
f 11//16 23//27 24//28 12//18
f 174//1 181//1 25//1 13//1
f 13//1 25//1 26//1 14//1
f 14//1 26//1 27//1 15//1
f 15//1 27//1 28//1 16//20
f 16//20 28//1 29//29 17//21
f 17//21 29//29 30//30 18//22
f 18//22 30//30 31//31 19//23
f 19//23 31//31 32//32 20//24
f 20//24 32//32 33//33 21//25
f 21//25 33//33 34//34 22//26
f 22//26 34//34 35//35 23//27
f 23//27 35//35 36//36 24//28
f 181//1 171//1 37//1 25//1
f 25//1 37//1 38//1 26//1
f 26//1 38//1 39//1 27//1
f 27//1 39//1 40//1 28//1
f 28//1 40//1 41//1 29//29
f 29//29 41//1 42//37 30//30
f 30//30 42//37 43//38 31//31
f 31//31 43//38 44//39 32//32
f 32//32 44//39 45//40 33//33
f 33//33 45//40 46//41 34//34
f 34//34 46//41 47//42 35//35
f 35//35 47//42 48//43 36//36
f 171//1 170//1 49//1 37//1
f 37//1 49//1 50//1 38//1
f 38//1 50//1 51//1 39//1
f 39//1 51//1 52//1 40//1
f 40//1 52//1 53//1 41//1
f 41//1 53//1 54//1 42//37
f 42//37 54//1 55//44 43//38
f 43//38 55//44 56//45 44//39
f 44//39 56//45 57//46 45//40
f 45//40 57//46 58//47 46//41
f 46//41 58//47 59//48 47//42
f 47//42 59//48 60//49 48//43
f 170//1 180//1 61//1 49//1
f 49//1 61//1 62//1 50//1
f 50//1 62//1 63//1 51//1
f 51//1 63//1 64//1 52//1
f 52//1 64//1 65//1 53//1
f 53//1 65//1 66//1 54//1
f 54//1 66//1 67//1 55//44
f 55//44 67//1 68//50 56//45
f 56//45 68//50 69//51 57//46
f 57//46 69//51 70//52 58//47
f 58//47 70//52 71//53 59//48
f 59//48 71//53 72//54 60//49
f 180//1 177//1 73//1 61//1
f 61//1 73//1 74//1 62//1
f 62//1 74//1 75//1 63//1
f 63//1 75//1 76//1 64//1
f 64//1 76//1 77//1 65//1
f 65//1 77//1 78//1 66//1
f 66//1 78//1 79//1 67//1
f 67//1 79//1 80//1 68//50
f 68//50 80//1 81//55 69//51
f 69//51 81//55 82//56 70//52
f 70//52 82//56 83//57 71//53
f 71//53 83//57 84//58 72//54
f 177//1 179//1 85//1 73//1
f 73//1 85//1 86//1 74//1
f 74//1 86//1 87//1 75//1
f 75//1 87//1 88//1 76//1
f 76//1 88//1 89//1 77//1
f 77//1 89//1 90//1 78//1
f 78//1 90//1 91//1 79//1
f 79//1 91//1 92//1 80//1
f 80//1 92//1 93//1 81//55
f 81//55 93//1 94//29 82//56
f 82//56 94//29 95//59 83//57
f 83//57 95//59 96//60 84//58
f 179//1 173//1 97//1 85//1
f 85//1 97//1 98//1 86//1
f 86//1 98//1 99//1 87//1
f 87//1 99//1 100//1 88//1
f 88//1 100//1 101//1 89//1
f 89//1 101//1 102//1 90//1
f 90//1 102//1 103//1 91//1
f 91//1 103//1 104//1 92//1
f 92//1 104//1 105//1 93//1
f 93//1 105//1 106//1 94//29
f 94//29 106//1 107//20 95//59
f 95//59 107//20 108//61 96//60
f 173//1 172//1 109//1 97//1
f 97//1 109//1 110//1 98//1
f 98//1 110//1 111//1 99//1
f 99//1 111//1 112//1 100//1
f 100//1 112//1 113//1 101//1
f 101//1 113//1 114//1 102//1
f 102//1 114//1 115//1 103//1
f 103//1 115//1 116//1 104//1
f 104//1 116//1 117//1 105//1
f 105//1 117//1 118//1 106//1
f 106//1 118//1 119//1 107//20
f 107//20 119//1 120//1 108//61
f 172//1 169//1 121//1 109//1
f 109//1 121//1 122//1 110//1
f 110//1 122//1 123//1 111//1
f 111//1 123//1 124//1 112//1
f 112//1 124//1 125//1 113//1
f 113//1 125//1 126//1 114//1
f 114//1 126//1 127//1 115//1
f 115//1 127//1 128//1 116//1
f 116//1 128//1 129//1 117//1
f 117//1 129//1 130//1 118//1
f 118//1 130//1 131//1 119//1
f 119//1 131//1 132//1 120//1
f 169//1 175//1 133//1 121//1
f 121//1 133//1 134//1 122//1
f 122//1 134//1 135//1 123//1
f 123//1 135//1 136//1 124//1
f 124//1 136//1 137//1 125//1
f 125//1 137//1 138//1 126//1
f 126//1 138//1 139//1 127//1
f 127//1 139//1 140//1 128//1
f 128//1 140//1 141//1 129//1
f 129//1 141//1 142//1 130//1
f 130//1 142//1 143//1 131//1
f 131//1 143//1 144//1 132//1
f 175//1 178//1 145//1 133//1
f 133//1 145//1 146//1 134//1
f 134//1 146//1 147//1 135//1
f 135//1 147//1 148//1 136//1
f 136//1 148//1 149//1 137//1
f 137//1 149//1 150//1 138//1
f 138//1 150//1 151//1 139//1
f 139//1 151//1 152//1 140//1
f 140//1 152//1 153//1 141//1
f 141//1 153//1 154//1 142//1
f 142//1 154//1 155//1 143//1
f 143//1 155//1 156//1 144//1
f 144//1 156//1 183//1 184//1
f 84//58 96//60 185//62 186//63
f 157//19 12//18 187//64 188//65
f 120//1 132//1 189//1 190//1
f 132//1 144//1 184//1 189//1
f 60//49 72//54 191//66 192//67
f 72//54 84//58 186//63 191//66
f 12//18 24//28 193//68 187//64
f 24//28 36//36 194//69 193//68
f 36//36 48//43 195//70 194//69
f 48//43 60//49 192//67 195//70
f 96//60 108//61 196//71 185//62
f 108//61 120//1 190//1 196//71
