# Blender v2.73 (sub 0) OBJ File: 'untitled.blend'
# www.blender.org
mtllib Landscape.023.mtl
o Landscape.023
v -63.353535 15.721972 29.737373
v -63.353535 16.365324 27.151516
v -63.353535 17.148071 24.565657
v -63.353535 18.031488 21.979797
v -63.353535 16.626753 19.393940
v -63.353535 15.198157 16.808081
v -63.353535 14.036095 14.222222
v -63.353535 13.580398 11.636364
v -63.353535 13.573112 9.050505
v -63.353535 13.195251 6.464646
v -63.353535 12.648893 3.878788
v -63.353535 11.190429 1.292929
v -60.767677 16.202835 29.737373
v -60.767677 17.180714 27.151516
v -60.767677 17.546202 24.565657
v -60.767677 17.516258 21.979797
v -60.767677 16.371689 19.393940
v -60.767677 14.922188 16.808081
v -60.767677 14.274977 14.222222
v -60.767677 13.973860 11.636364
v -60.767677 13.468029 9.050505
v -60.767677 13.532242 6.464646
v -60.767677 12.517618 3.878788
v -60.767677 11.062231 1.292929
v -58.181820 17.531202 29.737373
v -58.181820 18.238573 27.151516
v -58.181820 17.538927 24.565657
v -58.181820 17.242775 21.979797
v -58.181820 16.586359 19.393940
v -58.181820 15.267945 16.808081
v -58.181820 14.826921 14.222222
v -58.181820 14.656888 11.636364
v -58.181820 14.059146 9.050505
v -58.181820 13.707093 6.464646
v -58.181820 13.090132 3.878788
v -58.181820 11.483438 1.292929
v -55.595959 17.163153 29.737373
v -55.595959 17.423548 27.151516
v -55.595959 17.065372 24.565657
v -55.595959 17.036520 21.979797
v -55.595959 16.485441 19.393940
v -55.595959 15.261153 16.808081
v -55.595959 14.416798 14.222222
v -55.595959 14.533034 11.636364
v -55.595959 14.604002 9.050505
v -55.595959 14.458803 6.464646
v -55.595959 13.592058 3.878788
v -55.595959 12.421938 1.292929
v -53.010101 16.084299 29.737373
v -53.010101 15.934957 27.151516
v -53.010101 16.235128 24.565657
v -53.010101 16.342960 21.979797
v -53.010101 15.801712 19.393940
v -53.010101 15.735033 16.808081
v -53.010101 15.959815 14.222222
v -53.010101 15.219375 11.636364
v -53.010101 15.161822 9.050505
v -53.010101 15.439164 6.464646
v -53.010101 14.750656 3.878788
v -53.010101 14.053638 1.292929
v -50.424244 15.971292 29.737373
v -50.424244 15.768609 27.151516
v -50.424244 15.973134 24.565657
v -50.424244 16.445297 21.979797
v -50.424244 16.525625 19.393940
v -50.424244 17.458742 16.808081
v -50.424244 18.571299 14.222222
v -50.424244 17.334204 11.636364
v -50.424244 16.300495 9.050505
v -50.424244 16.259529 6.464646
v -50.424244 16.408554 3.878788
v -50.424244 15.817063 1.292929
v -47.838383 16.788958 29.737373
v -47.838383 16.164972 27.151516
v -47.838383 16.065514 24.565657
v -47.838383 17.613186 21.979797
v -47.838383 17.747599 19.393940
v -47.838383 18.946377 16.808081
v -47.838383 19.314837 14.222222
v -47.838383 18.771748 11.636364
v -47.838383 18.482950 9.050505
v -47.838383 17.349432 6.464646
v -47.838383 17.955984 3.878788
v -47.838383 18.051474 1.292929
v -45.252525 18.370098 29.737373
v -45.252525 18.034363 27.151516
v -45.252525 18.658146 24.565657
v -45.252525 19.030899 21.979797
v -45.252525 20.489069 19.393940
v -45.252525 21.427935 16.808081
v -45.252525 22.043056 14.222222
v -45.252525 21.149805 11.636364
v -45.252525 20.407267 9.050505
v -45.252525 19.873272 6.464646
v -45.252525 19.865330 3.878788
v -45.252525 19.693340 1.292929
v -42.666668 19.324244 29.737373
v -42.666668 20.212574 27.151516
v -42.666668 21.014620 24.565657
v -42.666668 21.660902 21.979797
v -42.666668 22.465164 19.393940
v -42.666668 23.717192 16.808081
v -42.666668 23.797302 14.222222
v -42.666668 22.440115 11.636364
v -42.666668 21.687635 9.050505
v -42.666668 20.624434 6.464646
v -42.666668 20.521812 3.878788
v -42.666668 20.645885 1.292929
v -40.080807 19.766031 29.737373
v -40.080807 19.670284 27.151516
v -40.080807 21.272432 24.565657
v -40.080807 21.532368 21.979797
v -40.080807 23.683517 19.393940
v -40.080807 24.628862 16.808081
v -40.080807 24.557535 14.222222
v -40.080807 24.384651 11.636364
v -40.080807 22.826330 9.050505
v -40.080807 21.188984 6.464646
v -40.080807 20.740067 3.878788
v -40.080807 20.336472 1.292929
v -37.494949 20.319551 29.737373
v -37.494949 21.218111 27.151516
v -37.494949 22.302414 24.565657
v -37.494949 21.757627 21.979797
v -37.494949 22.768892 19.393940
v -37.494949 24.220497 16.808081
v -37.494949 25.056227 14.222222
v -37.494949 24.606853 11.636364
v -37.494949 21.465698 9.050505
v -37.494949 20.139950 6.464646
v -37.494949 20.109898 3.878788
v -37.494949 19.411123 1.292929
v -34.909092 21.921053 29.737373
v -34.909092 21.950085 27.151516
v -34.909092 22.921474 24.565657
v -34.909092 23.435743 21.979797
v -34.909092 23.297140 19.393940
v -34.909092 25.271711 16.808081
v -34.909092 25.299618 14.222222
v -34.909092 25.107811 11.636364
v -34.909092 22.491657 9.050505
v -34.909092 20.079685 6.464646
v -34.909092 20.542332 3.878788
v -34.909092 19.222342 1.292929
v -32.323231 21.755062 29.737373
v -32.323231 23.080544 27.151516
v -32.323231 24.579292 24.565657
v -32.323231 25.059488 21.979797
v -32.323231 24.424768 19.393940
v -32.323231 24.596542 16.808081
v -32.323231 24.874252 14.222222
v -32.323231 25.229820 11.636364
v -32.323231 23.744394 9.050505
v -32.323231 21.594299 6.464646
v -32.323231 21.680367 3.878788
v -32.323231 20.402357 1.292929
v -64.000000 17.181046 24.565657
v -64.000000 16.441692 27.151516
v -64.000000 15.824352 29.737373
v -64.000000 17.969843 21.979797
v -64.000000 13.871402 14.222222
v -64.000000 13.304622 11.636364
v -64.000000 12.457547 3.878788
v -64.000000 13.013017 6.464646
v -64.000000 13.408220 9.050505
v -64.000000 11.053998 1.292929
v -64.000000 15.029226 16.808081
v -64.000000 16.471407 19.393940
v -32.000000 24.909222 14.222222
v -32.000000 25.193243 11.636364
v -32.000000 24.542519 19.393940
v -32.000000 24.601734 16.808081
v -32.000000 23.675716 9.050505
v -32.000000 21.671146 6.464646
v -32.000000 21.665487 3.878788
v -32.000000 20.382500 1.292929
v -32.000000 21.888195 29.737373
v -32.000000 23.151196 27.151516
v -32.000000 25.245163 21.979797
v -32.000000 24.623653 24.565657
v -60.767677 15.322438 32.000000
v -34.909092 21.683416 32.000000
v -55.595959 16.377569 32.000000
v -47.838383 16.057367 32.000000
v -40.080807 19.551214 32.000000
v -53.010101 15.806871 32.000000
v -50.424244 15.336804 32.000000
v -37.494949 19.855888 32.000000
v -32.323231 22.854889 32.000000
v -63.353535 15.419773 32.000000
v -42.666668 19.078920 32.000000
v -58.181820 16.350727 32.000000
v -45.252525 17.839321 32.000000
v -64.000000 15.570517 32.000000
v -32.000000 22.782000 32.000000
v -58.181820 11.503988 0.000000
v -60.767677 10.791630 0.000000
v -63.353535 10.481712 0.000000
v -64.000000 10.354350 0.000000
v -32.000000 19.389164 0.000000
v -32.323231 19.341187 0.000000
v -55.595959 12.553984 0.000000
v -53.010101 13.996872 0.000000
v -50.424244 15.546646 0.000000
v -37.494949 19.226635 0.000000
v -40.080807 20.060085 0.000000
v -42.666668 20.362217 0.000000
v -45.252525 19.411472 0.000000
v -34.909092 18.582806 0.000000
v -47.838383 17.771448 0.000000
vn 0.190700 0.974300 0.119700
vn 0.058800 0.980300 0.188800
vn 0.006200 0.973800 0.227300
vn 0.161800 0.970500 0.178600
vn -0.061000 0.963900 0.259300
vn 0.106600 0.960100 0.258700
vn -0.037100 0.969300 0.243100
vn 0.029500 0.955000 0.295000
vn -0.004300 0.992900 -0.118700
vn -0.091100 0.990900 -0.099300
vn -0.033100 0.879100 -0.475400
vn -0.182200 0.858600 -0.479100
vn -0.087200 0.898800 -0.429500
vn -0.222400 0.873100 -0.433900
vn -0.168000 0.948100 -0.269700
vn -0.277200 0.916700 -0.287800
vn -0.207400 0.972700 -0.103900
vn -0.321500 0.943400 -0.081300
vn -0.171100 0.982700 -0.071300
vn -0.290400 0.954800 -0.063600
vn -0.153800 0.972400 -0.175300
vn -0.264700 0.948800 -0.172700
vn -0.122600 0.923000 -0.364600
vn -0.245200 0.904600 -0.348600
vn -0.096600 0.887300 -0.451000
vn -0.195200 0.859800 -0.471800
vn -0.224700 0.920400 0.320100
vn -0.276600 0.910000 0.308800
vn -0.271700 0.944200 0.185900
vn -0.087300 0.994200 0.062500
vn 0.057900 0.982900 -0.174400
vn 0.033600 0.900200 -0.434100
vn -0.043100 0.926700 -0.373400
vn -0.128700 0.972700 -0.192900
vn -0.161500 0.977600 -0.134800
vn -0.120000 0.987300 -0.104100
vn -0.092800 0.979900 -0.176700
vn -0.074600 0.912300 -0.402600
vn -0.093400 0.926700 -0.363900
vn -0.177700 0.899100 0.400100
vn -0.128200 0.938700 0.320000
vn -0.036200 0.997900 0.054000
vn 0.057600 0.993500 -0.098000
vn 0.063500 0.983000 -0.172000
vn -0.001300 0.929800 -0.368100
vn -0.042100 0.937800 -0.344600
vn -0.055300 0.988800 -0.138700
vn -0.111400 0.988600 -0.100800
vn -0.178100 0.977300 -0.114400
vn -0.189400 0.965100 -0.180800
vn -0.193100 0.902900 -0.384000
vn -0.250400 0.933600 -0.256200
vn 0.183000 0.933100 0.309600
vn 0.259300 0.943100 0.207900
vn 0.329400 0.944200 -0.002000
vn 0.268100 0.961300 -0.062800
vn 0.181400 0.976100 -0.119200
vn 0.095000 0.955100 -0.280700
vn -0.061600 0.962600 -0.263800
vn -0.143400 0.982200 -0.121200
vn -0.154500 0.986400 -0.055900
vn -0.211600 0.976400 -0.041600
vn -0.285500 0.946000 -0.153500
vn -0.326900 0.887100 -0.325700
vn -0.395500 0.901000 -0.178400
vn 0.202700 0.956900 0.208200
vn 0.232300 0.968000 0.094100
vn 0.249500 0.968300 0.009900
vn 0.205000 0.977300 0.053600
vn 0.105700 0.993500 -0.042600
vn -0.077900 0.992100 -0.098400
vn -0.359100 0.933300 -0.004700
vn -0.532900 0.842400 -0.079300
vn -0.453800 0.880300 -0.137800
vn -0.352600 0.935400 -0.026900
vn -0.363800 0.928700 -0.071600
vn -0.451400 0.864800 -0.219900
vn -0.512300 0.845400 -0.150600
vn -0.082100 0.966900 0.241600
vn -0.089300 0.993700 0.067400
vn -0.046300 0.998600 -0.026400
vn -0.051400 0.987700 0.147900
vn -0.197200 0.974200 0.110000
vn -0.365800 0.924400 0.108100
vn -0.481300 0.842700 0.241000
vn -0.513600 0.857400 -0.031100
vn -0.542400 0.804700 -0.241400
vn -0.494100 0.859400 -0.131400
vn -0.444200 0.895500 -0.028400
vn -0.508500 0.859100 -0.058400
vn -0.580200 0.802200 -0.140600
vn -0.395400 0.881700 0.257500
vn -0.418800 0.906600 0.051100
vn -0.391000 0.918900 -0.052300
vn -0.391700 0.901000 0.186300
vn -0.482000 0.845700 0.228800
vn -0.536000 0.812700 0.228400
vn -0.566700 0.782900 0.256800
vn -0.569800 0.821200 -0.029100
vn -0.564500 0.796400 -0.216800
vn -0.592900 0.780400 -0.198500
vn -0.566500 0.822600 -0.049100
vn -0.571200 0.820200 0.031200
vn -0.581200 0.806600 -0.107600
vn -0.465500 0.863200 0.195300
vn -0.499100 0.862600 0.082300
vn -0.597500 0.800300 0.048900
vn -0.643600 0.743500 0.181600
vn -0.631600 0.738600 0.235800
vn -0.637300 0.715200 0.287000
vn -0.653900 0.726900 0.209800
vn -0.627900 0.773700 -0.084600
vn -0.564700 0.790200 -0.238000
vn -0.518000 0.824000 -0.229600
vn -0.493600 0.861800 -0.116700
vn -0.451000 0.892500 0.011800
vn -0.436000 0.894200 -0.101400
vn -0.283600 0.950200 0.129200
vn -0.276300 0.952700 0.126300
vn -0.295200 0.925200 0.238300
vn -0.351600 0.901400 0.252600
vn -0.404400 0.863700 0.300600
vn -0.452100 0.807300 0.379200
vn -0.473000 0.858200 0.199200
vn -0.471000 0.873800 -0.120900
vn -0.461000 0.831300 -0.310400
vn -0.385200 0.859200 -0.336700
vn -0.266400 0.939900 -0.213400
vn -0.174700 0.983500 -0.047300
vn -0.126800 0.984600 -0.120400
vn -0.167700 0.978200 0.122800
vn -0.174300 0.975200 0.136400
vn -0.176200 0.942000 0.285500
vn -0.169000 0.951800 0.256100
vn -0.086600 0.953300 0.289200
vn -0.052400 0.890300 0.452300
vn -0.116600 0.964400 0.237300
vn -0.233000 0.970800 -0.057100
vn -0.225100 0.900100 -0.372900
vn -0.076000 0.849500 -0.522000
vn 0.070000 0.949900 -0.304600
vn 0.116900 0.986600 -0.113300
vn 0.184300 0.969700 -0.159900
vn -0.353800 0.924700 0.140700
vn -0.379900 0.913500 0.145400
vn -0.362500 0.889200 0.279300
vn -0.328000 0.926600 0.183900
vn -0.230400 0.958800 0.165900
vn -0.082800 0.903600 0.420300
vn -0.070900 0.939000 0.336600
vn -0.137200 0.990400 0.016500
vn -0.088500 0.892300 -0.442700
vn 0.061100 0.785700 -0.615600
vn 0.115600 0.954500 -0.274800
vn 0.122700 0.981300 -0.148500
vn 0.178200 0.948600 -0.261300
vn -0.385800 0.922300 -0.023500
vn -0.337200 0.937000 0.091300
vn -0.313600 0.903700 0.291500
vn -0.411200 0.881400 0.232500
vn -0.453800 0.889900 0.046200
vn -0.316400 0.915900 0.247100
vn -0.087100 0.955500 0.281700
vn -0.029400 0.999000 0.032700
vn -0.127800 0.917800 -0.375800
vn -0.241500 0.725800 -0.644100
vn -0.274700 0.926400 -0.257400
vn -0.257100 0.952700 -0.162000
vn -0.141300 0.898600 -0.415400
vn -0.135800 0.944800 -0.298300
vn -0.191500 0.981200 0.025000
vn -0.272900 0.876100 0.397400
vn -0.366700 0.876300 0.312400
vn -0.439200 0.898400 -0.001800
vn -0.299600 0.953800 0.020000
vn -0.032100 0.987700 0.153100
vn 0.052400 0.995300 0.081600
vn -0.001500 0.967800 -0.251800
vn -0.103200 0.796100 -0.596200
vn -0.268400 0.909400 -0.317600
vn -0.226400 0.955100 -0.191000
vn -0.167900 0.845200 -0.507300
vn -0.029300 0.992600 0.117600
vn 0.076000 0.976300 -0.202500
vn -0.308300 0.946300 -0.097100
vn -0.124400 0.989100 0.078300
vn 0.059600 0.819700 -0.569700
vn -0.054000 0.939000 -0.339700
vn -0.023900 0.974700 -0.222200
vn 0.006200 0.843100 -0.537800
vn -0.197900 0.980000 0.019800
vn -0.208600 0.860600 0.464500
vn -0.380100 0.924800 -0.014900
vn -0.247200 0.905400 0.345200
vn -0.085000 0.911800 -0.401700
vn -0.287600 0.957600 -0.019400
vn -0.122300 0.965400 -0.230200
vn -0.108500 0.902300 -0.417200
vn -0.176400 0.864400 -0.470800
vn -0.034000 0.782500 -0.621700
vn -0.179400 0.798500 -0.574700
vn -0.438300 0.897900 0.039700
vn -0.524600 0.850400 -0.039600
vn -0.588000 0.798200 -0.130900
vn 0.233800 0.943100 -0.236200
vn 0.220200 0.957000 -0.188800
vn -0.118300 0.970300 -0.211200
vn -0.440700 0.877100 -0.191200
vn -0.074800 0.901400 -0.426400
vn -0.592100 0.787900 -0.169400
usemtl None
s 1
f 194//1 190//2 1//3 159//4
f 159//4 1//3 2//5 158//6
f 158//6 2//5 3//7 157//8
f 157//8 3//7 4//9 160//10
f 160//10 4//9 5//11 168//12
f 168//12 5//11 6//13 167//14
f 167//14 6//13 7//15 161//16
f 161//16 7//15 8//17 162//18
f 162//18 8//17 9//19 165//20
f 165//20 9//19 10//21 164//22
f 164//22 10//21 11//23 163//24
f 163//24 11//23 12//25 166//26
f 190//2 181//27 13//28 1//3
f 1//3 13//28 14//29 2//5
f 2//5 14//29 15//30 3//7
f 3//7 15//30 16//31 4//9
f 4//9 16//31 17//32 5//11
f 5//11 17//32 18//33 6//13
f 6//13 18//33 19//34 7//15
f 7//15 19//34 20//35 8//17
f 8//17 20//35 21//36 9//19
f 9//19 21//36 22//37 10//21
f 10//21 22//37 23//38 11//23
f 11//23 23//38 24//39 12//25
f 181//27 192//40 25//41 13//28
f 13//28 25//41 26//42 14//29
f 14//29 26//42 27//43 15//30
f 15//30 27//43 28//44 16//31
f 16//31 28//44 29//45 17//32
f 17//32 29//45 30//46 18//33
f 18//33 30//46 31//47 19//34
f 19//34 31//47 32//48 20//35
f 20//35 32//48 33//49 21//36
f 21//36 33//49 34//50 22//37
f 22//37 34//50 35//51 23//38
f 23//38 35//51 36//52 24//39
f 192//40 183//53 37//54 25//41
f 25//41 37//54 38//55 26//42
f 26//42 38//55 39//56 27//43
f 27//43 39//56 40//57 28//44
f 28//44 40//57 41//58 29//45
f 29//45 41//58 42//59 30//46
f 30//46 42//59 43//60 31//47
f 31//47 43//60 44//61 32//48
f 32//48 44//61 45//62 33//49
f 33//49 45//62 46//63 34//50
f 34//50 46//63 47//64 35//51
f 35//51 47//64 48//65 36//52
f 183//53 186//66 49//67 37//54
f 37//54 49//67 50//68 38//55
f 38//55 50//68 51//69 39//56
f 39//56 51//69 52//70 40//57
f 40//57 52//70 53//71 41//58
f 41//58 53//71 54//72 42//59
f 42//59 54//72 55//73 43//60
f 43//60 55//73 56//74 44//61
f 44//61 56//74 57//75 45//62
f 45//62 57//75 58//76 46//63
f 46//63 58//76 59//77 47//64
f 47//64 59//77 60//78 48//65
f 186//66 187//79 61//80 49//67
f 49//67 61//80 62//81 50//68
f 50//68 62//81 63//82 51//69
f 51//69 63//82 64//83 52//70
f 52//70 64//83 65//84 53//71
f 53//71 65//84 66//85 54//72
f 54//72 66//85 67//86 55//73
f 55//73 67//86 68//87 56//74
f 56//74 68//87 69//88 57//75
f 57//75 69//88 70//89 58//76
f 58//76 70//89 71//90 59//77
f 59//77 71//90 72//91 60//78
f 187//79 184//92 73//93 61//80
f 61//80 73//93 74//94 62//81
f 62//81 74//94 75//95 63//82
f 63//82 75//95 76//96 64//83
f 64//83 76//96 77//97 65//84
f 65//84 77//97 78//98 66//85
f 66//85 78//98 79//99 67//86
f 67//86 79//99 80//100 68//87
f 68//87 80//100 81//101 69//88
f 69//88 81//101 82//102 70//89
f 70//89 82//102 83//103 71//90
f 71//90 83//103 84//104 72//91
f 184//92 193//105 85//106 73//93
f 73//93 85//106 86//107 74//94
f 74//94 86//107 87//108 75//95
f 75//95 87//108 88//109 76//96
f 76//96 88//109 89//110 77//97
f 77//97 89//110 90//111 78//98
f 78//98 90//111 91//112 79//99
f 79//99 91//112 92//113 80//100
f 80//100 92//113 93//114 81//101
f 81//101 93//114 94//115 82//102
f 82//102 94//115 95//116 83//103
f 83//103 95//116 96//117 84//104
f 193//105 191//118 97//119 85//106
f 85//106 97//119 98//120 86//107
f 86//107 98//120 99//121 87//108
f 87//108 99//121 100//122 88//109
f 88//109 100//122 101//123 89//110
f 89//110 101//123 102//124 90//111
f 90//111 102//124 103//125 91//112
f 91//112 103//125 104//126 92//113
f 92//113 104//126 105//127 93//114
f 93//114 105//127 106//128 94//115
f 94//115 106//128 107//129 95//116
f 95//116 107//129 108//130 96//117
f 191//118 185//131 109//132 97//119
f 97//119 109//132 110//133 98//120
f 98//120 110//133 111//134 99//121
f 99//121 111//134 112//135 100//122
f 100//122 112//135 113//136 101//123
f 101//123 113//136 114//137 102//124
f 102//124 114//137 115//138 103//125
f 103//125 115//138 116//139 104//126
f 104//126 116//139 117//140 105//127
f 105//127 117//140 118//141 106//128
f 106//128 118//141 119//142 107//129
f 107//129 119//142 120//143 108//130
f 185//131 188//144 121//145 109//132
f 109//132 121//145 122//146 110//133
f 110//133 122//146 123//147 111//134
f 111//134 123//147 124//148 112//135
f 112//135 124//148 125//149 113//136
f 113//136 125//149 126//150 114//137
f 114//137 126//150 127//151 115//138
f 115//138 127//151 128//152 116//139
f 116//139 128//152 129//153 117//140
f 117//140 129//153 130//154 118//141
f 118//141 130//154 131//155 119//142
f 119//142 131//155 132//156 120//143
f 188//144 182//157 133//158 121//145
f 121//145 133//158 134//159 122//146
f 122//146 134//159 135//160 123//147
f 123//147 135//160 136//161 124//148
f 124//148 136//161 137//162 125//149
f 125//149 137//162 138//163 126//150
f 126//150 138//163 139//164 127//151
f 127//151 139//164 140//165 128//152
f 128//152 140//165 141//166 129//153
f 129//153 141//166 142//167 130//154
f 130//154 142//167 143//168 131//155
f 131//155 143//168 144//169 132//156
f 182//157 189//170 145//171 133//158
f 133//158 145//171 146//172 134//159
f 134//159 146//172 147//173 135//160
f 135//160 147//173 148//174 136//161
f 136//161 148//174 149//175 137//162
f 137//162 149//175 150//176 138//163
f 138//163 150//176 151//177 139//164
f 139//164 151//177 152//178 140//165
f 140//165 152//178 153//179 141//166
f 141//166 153//179 154//180 142//167
f 142//167 154//180 155//181 143//168
f 143//168 155//181 156//182 144//169
f 151//177 169//183 170//184 152//178
f 149//175 171//185 172//186 150//176
f 150//176 172//186 169//183 151//177
f 152//178 170//184 173//187 153//179
f 153//179 173//187 174//188 154//180
f 154//180 174//188 175//189 155//181
f 155//181 175//189 176//190 156//182
f 145//171 177//191 178//192 146//172
f 148//174 179//193 171//185 149//175
f 146//172 178//192 180//194 147//173
f 147//173 180//194 179//193 148//174
f 189//170 195//195 177//191 145//171
f 24//39 36//52 196//196 197//197
f 166//26 12//25 198//198 199//199
f 12//25 24//39 197//197 198//198
f 156//182 176//190 200//200 201//201
f 36//52 48//65 202//202 196//196
f 48//65 60//78 203//203 202//202
f 60//78 72//91 204//204 203//203
f 120//143 132//156 205//205 206//206
f 96//117 108//130 207//207 208//208
f 108//130 120//143 206//206 207//207
f 132//156 144//169 209//209 205//205
f 144//169 156//182 201//201 209//209
f 72//91 84//104 210//210 204//204
f 84//104 96//117 208//208 210//210
