# Blender v2.73 (sub 0) OBJ File: 'untitled.blend'
# www.blender.org
mtllib Landscape.027.mtl
o Landscape.027
v -63.353535 3.328722 -96.969696
v -63.353535 2.852429 -99.555557
v -63.353535 2.343101 -102.141411
v -63.353535 1.873355 -104.727272
v -63.353535 1.613725 -107.313133
v -63.353535 1.322637 -109.898987
v -63.353535 0.986348 -112.484848
v -63.353535 0.673000 -115.070709
v -63.353535 0.429217 -117.656563
v -63.353535 0.221535 -120.242424
v -63.353535 0.073310 -122.828285
v -63.353535 0.003088 -125.414139
v -63.353535 0.000000 -128.000000
v -60.767677 3.210834 -96.969696
v -60.767677 2.826463 -99.555557
v -60.767677 2.325431 -102.141411
v -60.767677 1.824885 -104.727272
v -60.767677 1.570923 -107.313133
v -60.767677 1.363830 -109.898987
v -60.767677 1.011626 -112.484848
v -60.767677 0.688266 -115.070709
v -60.767677 0.415154 -117.656563
v -60.767677 0.221051 -120.242424
v -60.767677 0.084949 -122.828285
v -60.767677 0.006810 -125.414139
v -60.767677 0.000000 -128.000000
v -58.181820 3.052201 -96.969696
v -58.181820 2.714990 -99.555557
v -58.181820 2.173342 -102.141411
v -58.181820 1.707972 -104.727272
v -58.181820 1.476818 -107.313133
v -58.181820 1.264516 -109.898987
v -58.181820 0.953265 -112.484848
v -58.181820 0.642011 -115.070709
v -58.181820 0.403785 -117.656563
v -58.181820 0.215075 -120.242424
v -58.181820 0.088280 -122.828285
v -58.181820 0.010233 -125.414139
v -58.181820 0.000000 -128.000000
v -55.595959 2.959854 -96.969696
v -55.595959 2.556332 -99.555557
v -55.595959 2.069541 -102.141411
v -55.595959 1.687610 -104.727272
v -55.595959 1.458028 -107.313133
v -55.595959 1.178900 -109.898987
v -55.595959 0.880974 -112.484848
v -55.595959 0.613318 -115.070709
v -55.595959 0.394407 -117.656563
v -55.595959 0.227519 -120.242424
v -55.595959 0.096343 -122.828285
v -55.595959 0.014761 -125.414139
v -55.595959 0.000000 -128.000000
v -53.010101 2.774767 -96.969696
v -53.010101 2.377627 -99.555557
v -53.010101 2.009164 -102.141411
v -53.010101 1.662321 -104.727272
v -53.010101 1.372494 -107.313133
v -53.010101 1.141185 -109.898987
v -53.010101 0.889158 -112.484848
v -53.010101 0.634773 -115.070709
v -53.010101 0.415765 -117.656563
v -53.010101 0.244310 -120.242424
v -53.010101 0.115570 -122.828285
v -53.010101 0.019842 -125.414139
v -53.010101 0.000000 -128.000000
v -50.424244 2.566603 -96.969696
v -50.424244 2.297870 -99.555557
v -50.424244 1.928748 -102.141411
v -50.424244 1.622275 -104.727272
v -50.424244 1.362298 -107.313133
v -50.424244 1.155703 -109.898987
v -50.424244 0.910531 -112.484848
v -50.424244 0.646880 -115.070709
v -50.424244 0.447961 -117.656563
v -50.424244 0.272592 -120.242424
v -50.424244 0.129602 -122.828285
v -50.424244 0.025426 -125.414139
v -50.424244 0.000000 -128.000000
v -47.838383 2.460251 -96.969696
v -47.838383 2.311166 -99.555557
v -47.838383 1.957110 -102.141411
v -47.838383 1.678869 -104.727272
v -47.838383 1.444448 -107.313133
v -47.838383 1.177046 -109.898987
v -47.838383 0.952679 -112.484848
v -47.838383 0.709362 -115.070709
v -47.838383 0.492540 -117.656563
v -47.838383 0.294709 -120.242424
v -47.838383 0.133443 -122.828285
v -47.838383 0.028577 -125.414139
v -47.838383 0.000000 -128.000000
v -45.252525 2.499868 -96.969696
v -45.252525 2.386612 -99.555557
v -45.252525 2.000981 -102.141411
v -45.252525 1.776864 -104.727272
v -45.252525 1.529608 -107.313133
v -45.252525 1.281547 -109.898987
v -45.252525 1.083541 -112.484848
v -45.252525 0.787346 -115.070709
v -45.252525 0.541109 -117.656563
v -45.252525 0.323773 -120.242424
v -45.252525 0.149467 -122.828285
v -45.252525 0.033871 -125.414139
v -45.252525 0.000000 -128.000000
v -42.666668 2.860126 -96.969696
v -42.666668 2.664150 -99.555557
v -42.666668 2.305594 -102.141411
v -42.666668 1.956223 -104.727272
v -42.666668 1.680364 -107.313133
v -42.666668 1.516445 -109.898987
v -42.666668 1.286937 -112.484848
v -42.666668 0.943717 -115.070709
v -42.666668 0.636916 -117.656563
v -42.666668 0.379119 -120.242424
v -42.666668 0.173023 -122.828285
v -42.666668 0.042871 -125.414139
v -42.666668 0.000000 -128.000000
v -40.080807 3.082260 -96.969696
v -40.080807 2.981117 -99.555557
v -40.080807 2.586788 -102.141411
v -40.080807 2.203541 -104.727272
v -40.080807 2.047873 -107.313133
v -40.080807 1.806688 -109.898987
v -40.080807 1.521185 -112.484848
v -40.080807 1.109149 -115.070709
v -40.080807 0.717647 -117.656563
v -40.080807 0.438133 -120.242424
v -40.080807 0.203710 -122.828285
v -40.080807 0.050743 -125.414139
v -40.080807 0.000000 -128.000000
v -37.494949 3.177673 -96.969696
v -37.494949 2.993976 -99.555557
v -37.494949 2.817345 -102.141411
v -37.494949 2.589716 -104.727272
v -37.494949 2.350330 -107.313133
v -37.494949 2.126689 -109.898987
v -37.494949 1.730361 -112.484848
v -37.494949 1.227030 -115.070709
v -37.494949 0.812356 -117.656563
v -37.494949 0.473518 -120.242424
v -37.494949 0.215904 -122.828285
v -37.494949 0.053301 -125.414139
v -37.494949 0.000000 -128.000000
v -34.909092 3.355293 -96.969696
v -34.909092 3.008424 -99.555557
v -34.909092 2.970499 -102.141411
v -34.909092 2.816571 -104.727272
v -34.909092 2.600558 -107.313133
v -34.909092 2.245378 -109.898987
v -34.909092 1.897407 -112.484848
v -34.909092 1.357744 -115.070709
v -34.909092 0.901539 -117.656563
v -34.909092 0.515619 -120.242424
v -34.909092 0.231054 -122.828285
v -34.909092 0.058844 -125.414139
v -34.909092 0.000000 -128.000000
v -32.323231 3.604410 -96.969696
v -32.323231 3.212479 -99.555557
v -32.323231 3.055638 -102.141411
v -32.323231 2.872947 -104.727272
v -32.323231 2.550141 -107.313133
v -32.323231 2.327249 -109.898987
v -32.323231 1.931519 -112.484848
v -32.323231 1.429818 -115.070709
v -32.323231 0.970975 -117.656563
v -32.323231 0.562651 -120.242424
v -32.323231 0.260840 -122.828285
v -32.323231 0.063002 -125.414139
v -32.323231 0.000000 -128.000000
v -64.000000 1.619529 -107.313133
v -64.000000 0.670987 -115.070709
v -64.000000 0.425452 -117.656563
v -64.000000 0.218090 -120.242424
v -64.000000 3.395027 -96.969696
v -64.000000 2.364149 -102.141411
v -64.000000 2.904182 -99.555557
v -64.000000 0.000000 -128.000000
v -64.000000 0.070578 -122.828285
v -64.000000 0.002460 -125.414139
v -64.000000 0.974339 -112.484848
v -64.000000 1.318007 -109.898987
v -64.000000 1.902643 -104.727272
v -32.000000 0.062829 -125.414139
v -32.000000 0.000000 -128.000000
v -32.000000 3.630815 -96.969696
v -32.000000 3.221412 -99.555557
v -32.000000 2.555627 -107.313133
v -32.000000 2.333193 -109.898987
v -32.000000 2.864352 -104.727272
v -32.000000 3.051779 -102.141411
v -32.000000 1.927068 -112.484848
v -32.000000 1.424438 -115.070709
v -32.000000 0.964164 -117.656563
v -32.000000 0.559164 -120.242424
v -32.000000 0.259169 -122.828285
v -42.666668 2.873257 -96.000000
v -47.838383 2.548506 -96.000000
v -63.353535 3.613753 -96.000000
v -60.767677 3.404706 -96.000000
v -32.323231 3.693106 -96.000000
v -45.252525 2.629139 -96.000000
v -58.181820 3.227326 -96.000000
v -40.080807 3.103618 -96.000000
v -34.909092 3.480726 -96.000000
v -50.424244 2.667431 -96.000000
v -37.494949 3.258543 -96.000000
v -53.010101 2.885682 -96.000000
v -55.595959 3.076112 -96.000000
v -64.000000 3.675908 -96.000000
v -32.000000 3.723430 -96.000000
vn 0.094900 0.955600 -0.278900
vn 0.078400 0.962600 -0.259500
vn 0.068300 0.973900 -0.216300
vn 0.092300 0.968300 -0.232000
vn 0.045000 0.981800 -0.184500
vn 0.072400 0.979000 -0.190800
vn 0.028500 0.981700 -0.187900
vn 0.046700 0.981100 -0.187900
vn 0.023800 0.989700 -0.141200
vn 0.032700 0.989500 -0.141000
vn 0.011400 0.994600 -0.103200
vn 0.014000 0.993900 -0.109100
vn -0.006100 0.993000 -0.118000
vn -0.005900 0.992500 -0.122100
vn -0.011000 0.992000 -0.125700
vn -0.011800 0.992200 -0.124400
vn -0.005800 0.994000 -0.108600
vn -0.007600 0.994300 -0.106300
vn -0.001800 0.996100 -0.087800
vn -0.005000 0.996200 -0.087100
vn -0.002400 0.997700 -0.067400
vn -0.005200 0.997600 -0.068500
vn -0.003100 0.999100 -0.041800
vn -0.003700 0.999100 -0.041900
vn -0.001700 0.999900 -0.014600
vn -0.001500 0.999900 -0.013900
vn -0.000600 1.000000 -0.001500
vn -0.000500 1.000000 -0.001100
vn 0.062500 0.975000 -0.213200
vn 0.051000 0.981900 -0.182100
vn 0.034300 0.984300 -0.172800
vn 0.030400 0.981400 -0.189300
vn 0.030500 0.989700 -0.140200
vn 0.023900 0.995400 -0.092200
vn 0.013800 0.993900 -0.109000
vn 0.007400 0.992000 -0.125800
vn 0.005800 0.993800 -0.110400
vn 0.004200 0.996200 -0.087300
vn 0.001100 0.997900 -0.064200
vn -0.001500 0.999100 -0.041100
vn -0.001400 0.999800 -0.016000
vn -0.000700 1.000000 -0.002600
vn 0.055200 0.984300 -0.167600
vn 0.052400 0.986700 -0.153600
vn 0.049800 0.984500 -0.168000
vn 0.043600 0.981900 -0.184300
vn 0.030700 0.990800 -0.131800
vn 0.026400 0.995600 -0.089300
vn 0.029500 0.994000 -0.104900
vn 0.025000 0.992500 -0.119300
vn 0.014500 0.994400 -0.104900
vn 0.005300 0.996600 -0.082200
vn -0.000200 0.998100 -0.060700
vn -0.001800 0.999200 -0.040400
vn -0.001300 0.999800 -0.017300
vn -0.000800 1.000000 -0.004100
vn 0.059200 0.989400 -0.132300
vn 0.058900 0.988400 -0.139600
vn 0.053200 0.985200 -0.163100
vn 0.033800 0.985700 -0.164700
vn 0.017200 0.992300 -0.122500
vn 0.018200 0.995300 -0.095300
vn 0.020000 0.994400 -0.103900
vn 0.012400 0.994000 -0.108600
vn 0.003200 0.995400 -0.096000
vn -0.002200 0.997000 -0.076600
vn -0.004700 0.998300 -0.058500
vn -0.004500 0.999100 -0.041300
vn -0.002200 0.999800 -0.019100
vn -0.000900 1.000000 -0.005800
vn 0.076800 0.990700 -0.112100
vn 0.069600 0.989600 -0.126100
vn 0.050100 0.988000 -0.146100
vn 0.028900 0.989400 -0.142200
vn 0.017600 0.992900 -0.117600
vn 0.013500 0.995200 -0.097000
vn 0.005400 0.995400 -0.096000
vn -0.003300 0.994900 -0.100400
vn -0.007200 0.995800 -0.091300
vn -0.008900 0.997200 -0.074300
vn -0.008500 0.998200 -0.058700
vn -0.005900 0.999000 -0.043900
vn -0.002600 0.999700 -0.022100
vn -0.001000 1.000000 -0.007700
vn 0.062600 0.992800 -0.102600
vn 0.049500 0.993400 -0.103300
vn 0.023900 0.992200 -0.122000
vn 0.007400 0.991500 -0.129300
vn -0.002600 0.994000 -0.109600
vn -0.009400 0.995500 -0.094100
vn -0.009900 0.995800 -0.090400
vn -0.011400 0.995300 -0.095800
vn -0.013900 0.995900 -0.089400
vn -0.013400 0.997100 -0.074900
vn -0.009400 0.998000 -0.062500
vn -0.004600 0.998800 -0.047500
vn -0.001700 0.999700 -0.024500
vn -0.000800 1.000000 -0.009600
vn 0.010100 0.994500 -0.104200
vn 0.004000 0.996400 -0.084900
vn -0.008800 0.994600 -0.102900
vn -0.018600 0.992300 -0.122300
vn -0.026400 0.994700 -0.099200
vn -0.029600 0.995100 -0.094500
vn -0.028500 0.995500 -0.090500
vn -0.029400 0.995200 -0.093200
vn -0.026300 0.995300 -0.092600
vn -0.018200 0.996600 -0.080300
vn -0.010400 0.997600 -0.068800
vn -0.004800 0.998600 -0.051600
vn -0.001800 0.999600 -0.026400
vn -0.000800 0.999900 -0.011300
vn -0.069800 0.993300 -0.092100
vn -0.070800 0.994800 -0.073600
vn -0.069700 0.992700 -0.098500
vn -0.063300 0.990400 -0.122400
vn -0.054600 0.993500 -0.099900
vn -0.052300 0.994300 -0.092800
vn -0.060000 0.994500 -0.085500
vn -0.059600 0.993400 -0.097400
vn -0.045400 0.993400 -0.105300
vn -0.029200 0.995300 -0.091700
vn -0.017000 0.996800 -0.077400
vn -0.008600 0.998300 -0.057000
vn -0.003300 0.999500 -0.029200
vn -0.001400 0.999900 -0.013500
vn -0.101500 0.993800 -0.045200
vn -0.107200 0.992900 -0.051700
vn -0.112600 0.988500 -0.100300
vn -0.104400 0.985500 -0.133500
vn -0.093700 0.989700 -0.108000
vn -0.095200 0.991800 -0.085000
vn -0.096100 0.991800 -0.084400
vn -0.082400 0.990300 -0.111900
vn -0.060200 0.990100 -0.126600
vn -0.037900 0.993300 -0.108600
vn -0.022100 0.995800 -0.088200
vn -0.011500 0.997800 -0.065100
vn -0.004200 0.999400 -0.033800
vn -0.001600 0.999900 -0.016500
vn -0.067700 0.997100 -0.035200
vn -0.065000 0.996800 -0.045600
vn -0.071200 0.993300 -0.091100
vn -0.094900 0.987300 -0.127300
vn -0.116900 0.987700 -0.103600
vn -0.123500 0.989000 -0.081100
vn -0.111500 0.988800 -0.098800
vn -0.084900 0.986900 -0.136700
vn -0.056600 0.986800 -0.151400
vn -0.034900 0.991200 -0.127400
vn -0.019600 0.994800 -0.100400
vn -0.009200 0.997200 -0.073800
vn -0.003100 0.999200 -0.038400
vn -0.001000 0.999800 -0.019100
vn -0.062500 0.994900 -0.079200
vn -0.045700 0.995800 -0.078800
vn -0.034200 0.996400 -0.077000
vn -0.067400 0.994000 -0.085300
vn -0.103500 0.990700 -0.088300
vn -0.103200 0.990500 -0.090700
vn -0.086300 0.989200 -0.118000
vn -0.068600 0.984600 -0.161000
vn -0.050200 0.983700 -0.172800
vn -0.033100 0.989000 -0.144300
vn -0.017500 0.993300 -0.114100
vn -0.006700 0.996700 -0.081100
vn -0.002100 0.999100 -0.041800
vn -0.000800 0.999800 -0.020900
vn -0.082500 0.990800 -0.107400
vn -0.072100 0.990800 -0.114500
vn -0.052900 0.995300 -0.080400
vn -0.047100 0.997400 -0.054300
vn -0.048200 0.995400 -0.082400
vn -0.042400 0.993700 -0.103300
vn -0.038400 0.991200 -0.126700
vn -0.038300 0.984700 -0.169800
vn -0.036300 0.982300 -0.183800
vn -0.029100 0.987100 -0.157700
vn -0.018300 0.991700 -0.126900
vn -0.009100 0.996000 -0.088200
vn -0.003100 0.999000 -0.045300
vn -0.000900 0.999700 -0.022600
vn -0.087700 0.991000 -0.101000
vn -0.078900 0.989100 -0.124000
vn -0.051100 0.993800 -0.098800
vn -0.017900 0.998100 -0.059200
vn -0.001100 0.995900 -0.090300
vn -0.005000 0.994400 -0.105400
vn -0.012000 0.992300 -0.123100
vn -0.007400 0.985200 -0.170900
vn -0.003400 0.982800 -0.184300
vn -0.003700 0.986400 -0.164100
vn -0.003300 0.991000 -0.133900
vn -0.002600 0.995600 -0.093900
vn -0.001000 0.998800 -0.048800
vn -0.000300 0.999700 -0.023900
vn 0.001600 0.998700 -0.050200
vn 0.000300 0.999700 -0.024300
vn -0.087000 0.991900 -0.092700
vn -0.070600 0.989900 -0.122700
vn -0.031000 0.993600 -0.108200
vn -0.006400 0.994600 -0.103500
vn -0.010000 0.992800 -0.119500
vn 0.012000 0.995300 -0.096400
vn 0.005700 0.997700 -0.067200
vn 0.006300 0.985100 -0.172000
vn 0.016700 0.983000 -0.182800
vn 0.017100 0.986100 -0.165100
vn 0.011800 0.990700 -0.135500
vn 0.005400 0.995400 -0.095800
usemtl None
s 1
f 209//1 198//2 1//3 174//4
f 174//4 1//3 2//5 176//6
f 176//6 2//5 3//7 175//8
f 175//8 3//7 4//9 182//10
f 182//10 4//9 5//11 170//12
f 170//12 5//11 6//13 181//14
f 181//14 6//13 7//15 180//16
f 180//16 7//15 8//17 171//18
f 171//18 8//17 9//19 172//20
f 172//20 9//19 10//21 173//22
f 173//22 10//21 11//23 178//24
f 178//24 11//23 12//25 179//26
f 179//26 12//25 13//27 177//28
f 198//2 199//29 14//30 1//3
f 1//3 14//30 15//31 2//5
f 2//5 15//31 16//32 3//7
f 3//7 16//32 17//33 4//9
f 4//9 17//33 18//34 5//11
f 5//11 18//34 19//35 6//13
f 6//13 19//35 20//36 7//15
f 7//15 20//36 21//37 8//17
f 8//17 21//37 22//38 9//19
f 9//19 22//38 23//39 10//21
f 10//21 23//39 24//40 11//23
f 11//23 24//40 25//41 12//25
f 12//25 25//41 26//42 13//27
f 199//29 202//43 27//44 14//30
f 14//30 27//44 28//45 15//31
f 15//31 28//45 29//46 16//32
f 16//32 29//46 30//47 17//33
f 17//33 30//47 31//48 18//34
f 18//34 31//48 32//49 19//35
f 19//35 32//49 33//50 20//36
f 20//36 33//50 34//51 21//37
f 21//37 34//51 35//52 22//38
f 22//38 35//52 36//53 23//39
f 23//39 36//53 37//54 24//40
f 24//40 37//54 38//55 25//41
f 25//41 38//55 39//56 26//42
f 202//43 208//57 40//58 27//44
f 27//44 40//58 41//59 28//45
f 28//45 41//59 42//60 29//46
f 29//46 42//60 43//61 30//47
f 30//47 43//61 44//62 31//48
f 31//48 44//62 45//63 32//49
f 32//49 45//63 46//64 33//50
f 33//50 46//64 47//65 34//51
f 34//51 47//65 48//66 35//52
f 35//52 48//66 49//67 36//53
f 36//53 49//67 50//68 37//54
f 37//54 50//68 51//69 38//55
f 38//55 51//69 52//70 39//56
f 208//57 207//71 53//72 40//58
f 40//58 53//72 54//73 41//59
f 41//59 54//73 55//74 42//60
f 42//60 55//74 56//75 43//61
f 43//61 56//75 57//76 44//62
f 44//62 57//76 58//77 45//63
f 45//63 58//77 59//78 46//64
f 46//64 59//78 60//79 47//65
f 47//65 60//79 61//80 48//66
f 48//66 61//80 62//81 49//67
f 49//67 62//81 63//82 50//68
f 50//68 63//82 64//83 51//69
f 51//69 64//83 65//84 52//70
f 207//71 205//85 66//86 53//72
f 53//72 66//86 67//87 54//73
f 54//73 67//87 68//88 55//74
f 55//74 68//88 69//89 56//75
f 56//75 69//89 70//90 57//76
f 57//76 70//90 71//91 58//77
f 58//77 71//91 72//92 59//78
f 59//78 72//92 73//93 60//79
f 60//79 73//93 74//94 61//80
f 61//80 74//94 75//95 62//81
f 62//81 75//95 76//96 63//82
f 63//82 76//96 77//97 64//83
f 64//83 77//97 78//98 65//84
f 205//85 197//99 79//100 66//86
f 66//86 79//100 80//101 67//87
f 67//87 80//101 81//102 68//88
f 68//88 81//102 82//103 69//89
f 69//89 82//103 83//104 70//90
f 70//90 83//104 84//105 71//91
f 71//91 84//105 85//106 72//92
f 72//92 85//106 86//107 73//93
f 73//93 86//107 87//108 74//94
f 74//94 87//108 88//109 75//95
f 75//95 88//109 89//110 76//96
f 76//96 89//110 90//111 77//97
f 77//97 90//111 91//112 78//98
f 197//99 201//113 92//114 79//100
f 79//100 92//114 93//115 80//101
f 80//101 93//115 94//116 81//102
f 81//102 94//116 95//117 82//103
f 82//103 95//117 96//118 83//104
f 83//104 96//118 97//119 84//105
f 84//105 97//119 98//120 85//106
f 85//106 98//120 99//121 86//107
f 86//107 99//121 100//122 87//108
f 87//108 100//122 101//123 88//109
f 88//109 101//123 102//124 89//110
f 89//110 102//124 103//125 90//111
f 90//111 103//125 104//126 91//112
f 201//113 196//127 105//128 92//114
f 92//114 105//128 106//129 93//115
f 93//115 106//129 107//130 94//116
f 94//116 107//130 108//131 95//117
f 95//117 108//131 109//132 96//118
f 96//118 109//132 110//133 97//119
f 97//119 110//133 111//134 98//120
f 98//120 111//134 112//135 99//121
f 99//121 112//135 113//136 100//122
f 100//122 113//136 114//137 101//123
f 101//123 114//137 115//138 102//124
f 102//124 115//138 116//139 103//125
f 103//125 116//139 117//140 104//126
f 196//127 203//141 118//142 105//128
f 105//128 118//142 119//143 106//129
f 106//129 119//143 120//144 107//130
f 107//130 120//144 121//145 108//131
f 108//131 121//145 122//146 109//132
f 109//132 122//146 123//147 110//133
f 110//133 123//147 124//148 111//134
f 111//134 124//148 125//149 112//135
f 112//135 125//149 126//150 113//136
f 113//136 126//150 127//151 114//137
f 114//137 127//151 128//152 115//138
f 115//138 128//152 129//153 116//139
f 116//139 129//153 130//154 117//140
f 203//141 206//155 131//156 118//142
f 118//142 131//156 132//157 119//143
f 119//143 132//157 133//158 120//144
f 120//144 133//158 134//159 121//145
f 121//145 134//159 135//160 122//146
f 122//146 135//160 136//161 123//147
f 123//147 136//161 137//162 124//148
f 124//148 137//162 138//163 125//149
f 125//149 138//163 139//164 126//150
f 126//150 139//164 140//165 127//151
f 127//151 140//165 141//166 128//152
f 128//152 141//166 142//167 129//153
f 129//153 142//167 143//168 130//154
f 206//155 204//169 144//170 131//156
f 131//156 144//170 145//171 132//157
f 132//157 145//171 146//172 133//158
f 133//158 146//172 147//173 134//159
f 134//159 147//173 148//174 135//160
f 135//160 148//174 149//175 136//161
f 136//161 149//175 150//176 137//162
f 137//162 150//176 151//177 138//163
f 138//163 151//177 152//178 139//164
f 139//164 152//178 153//179 140//165
f 140//165 153//179 154//180 141//166
f 141//166 154//180 155//181 142//167
f 142//167 155//181 156//182 143//168
f 204//169 200//183 157//184 144//170
f 144//170 157//184 158//185 145//171
f 145//171 158//185 159//186 146//172
f 146//172 159//186 160//187 147//173
f 147//173 160//187 161//188 148//174
f 148//174 161//188 162//189 149//175
f 149//175 162//189 163//190 150//176
f 150//176 163//190 164//191 151//177
f 151//177 164//191 165//192 152//178
f 152//178 165//192 166//193 153//179
f 153//179 166//193 167//194 154//180
f 154//180 167//194 168//195 155//181
f 155//181 168//195 169//196 156//182
f 168//195 183//197 184//198 169//196
f 200//183 210//199 185//200 157//184
f 157//184 185//200 186//201 158//185
f 161//188 187//202 188//203 162//189
f 160//187 189//204 187//202 161//188
f 158//185 186//201 190//205 159//186
f 159//186 190//205 189//204 160//187
f 162//189 188//203 191//206 163//190
f 163//190 191//206 192//207 164//191
f 164//191 192//207 193//208 165//192
f 165//192 193//208 194//209 166//193
f 166//193 194//209 195//210 167//194
f 167//194 195//210 183//197 168//195
