# Blender v2.73 (sub 0) OBJ File: 'untitled.blend'
# www.blender.org
mtllib Landscape.066.mtl
o Landscape.066
v 96.969696 1.518703 94.383835
v 96.969696 1.780718 91.797981
v 96.969696 2.001116 89.212120
v 96.969696 2.221906 86.626259
v 96.969696 2.437926 84.040405
v 96.969696 2.615048 81.454544
v 96.969696 2.595973 78.868690
v 96.969696 2.517270 76.282829
v 96.969696 2.374440 73.696968
v 96.969696 2.264519 71.111115
v 96.969696 2.401259 68.525253
v 96.969696 2.532157 65.939392
v 99.555557 1.196975 94.383835
v 99.555557 1.438228 91.797981
v 99.555557 1.631303 89.212120
v 99.555557 1.827833 86.626259
v 99.555557 1.858814 84.040405
v 99.555557 1.977859 81.454544
v 99.555557 2.112288 78.868690
v 99.555557 1.952770 76.282829
v 99.555557 1.863893 73.696968
v 99.555557 1.928898 71.111115
v 99.555557 2.091204 68.525253
v 99.555557 2.191291 65.939392
v 102.141411 0.839303 94.383835
v 102.141411 1.005810 91.797981
v 102.141411 1.163696 89.212120
v 102.141411 1.358748 86.626259
v 102.141411 1.462336 84.040405
v 102.141411 1.504616 81.454544
v 102.141411 1.591137 78.868690
v 102.141411 1.571841 76.282829
v 102.141411 1.599108 73.696968
v 102.141411 1.621331 71.111115
v 102.141411 1.685540 68.525253
v 102.141411 1.807813 65.939392
v 104.727272 0.583253 94.383835
v 104.727272 0.745571 91.797981
v 104.727272 0.869717 89.212120
v 104.727272 0.988932 86.626259
v 104.727272 1.140824 84.040405
v 104.727272 1.255295 81.454544
v 104.727272 1.299373 78.868690
v 104.727272 1.307457 76.282829
v 104.727272 1.342254 73.696968
v 104.727272 1.407878 71.111115
v 104.727272 1.368138 68.525253
v 104.727272 1.475432 65.939392
v 107.313133 0.381715 94.383835
v 107.313133 0.508329 91.797981
v 107.313133 0.663886 89.212120
v 107.313133 0.773676 86.626259
v 107.313133 0.828375 84.040405
v 107.313133 0.968182 81.454544
v 107.313133 1.002859 78.868690
v 107.313133 1.042879 76.282829
v 107.313133 1.141256 73.696968
v 107.313133 1.217828 71.111115
v 107.313133 1.254623 68.525253
v 107.313133 1.334778 65.939392
v 109.898987 0.238970 94.383835
v 109.898987 0.336202 91.797981
v 109.898987 0.470350 89.212120
v 109.898987 0.549919 86.626259
v 109.898987 0.616862 84.040405
v 109.898987 0.718017 81.454544
v 109.898987 0.807302 78.868690
v 109.898987 0.858432 76.282829
v 109.898987 0.954177 73.696968
v 109.898987 1.056275 71.111115
v 109.898987 1.111998 68.525253
v 109.898987 1.200162 65.939392
v 112.484848 0.114645 94.383835
v 112.484848 0.189478 91.797981
v 112.484848 0.284586 89.212120
v 112.484848 0.360121 86.626259
v 112.484848 0.430931 84.040405
v 112.484848 0.517490 81.454544
v 112.484848 0.577739 78.868690
v 112.484848 0.639185 76.282829
v 112.484848 0.710587 73.696968
v 112.484848 0.794959 71.111115
v 112.484848 0.897236 68.525253
v 112.484848 0.941756 65.939392
v 115.070709 0.027451 94.383835
v 115.070709 0.074264 91.797981
v 115.070709 0.134534 89.212120
v 115.070709 0.191802 86.626259
v 115.070709 0.250741 84.040405
v 115.070709 0.326678 81.454544
v 115.070709 0.383453 78.868690
v 115.070709 0.424420 76.282829
v 115.070709 0.502512 73.696968
v 115.070709 0.581362 71.111115
v 115.070709 0.658360 68.525253
v 115.070709 0.744206 65.939392
v 117.656563 0.000000 94.383835
v 117.656563 0.005619 91.797981
v 117.656563 0.030448 89.212120
v 117.656563 0.066093 86.626259
v 117.656563 0.114443 84.040405
v 117.656563 0.165556 81.454544
v 117.656563 0.208316 78.868690
v 117.656563 0.260720 76.282829
v 117.656563 0.306317 73.696968
v 117.656563 0.377282 71.111115
v 117.656563 0.432147 68.525253
v 117.656563 0.475541 65.939392
v 120.242424 0.000000 94.383835
v 120.242424 0.000000 91.797981
v 120.242424 0.000000 89.212120
v 120.242424 0.001654 86.626259
v 120.242424 0.015660 84.040405
v 120.242424 0.038434 81.454544
v 120.242424 0.065785 78.868690
v 120.242424 0.100062 76.282829
v 120.242424 0.139043 73.696968
v 120.242424 0.183932 71.111115
v 120.242424 0.208526 68.525253
v 120.242424 0.255359 65.939392
v 122.828285 0.000000 94.383835
v 122.828285 0.000000 91.797981
v 122.828285 0.000000 89.212120
v 122.828285 0.000000 86.626259
v 122.828285 0.000000 84.040405
v 122.828285 0.000000 81.454544
v 122.828285 0.000740 78.868690
v 122.828285 0.008161 76.282829
v 122.828285 0.020842 73.696968
v 122.828285 0.037370 71.111115
v 122.828285 0.058396 68.525253
v 122.828285 0.079173 65.939392
v 125.414139 0.000000 94.383835
v 125.414139 0.000000 91.797981
v 125.414139 0.000000 89.212120
v 125.414139 0.000000 86.626259
v 125.414139 0.000000 84.040405
v 125.414139 0.000000 81.454544
v 125.414139 0.000000 78.868690
v 125.414139 0.000000 76.282829
v 125.414139 0.000000 73.696968
v 125.414139 0.000000 71.111115
v 125.414139 0.000000 68.525253
v 125.414139 0.000692 65.939392
v 128.000000 0.000000 94.383835
v 128.000000 0.000000 91.797981
v 128.000000 0.000000 89.212120
v 128.000000 0.000000 86.626259
v 128.000000 0.000000 84.040405
v 128.000000 0.000000 81.454544
v 128.000000 0.000000 78.868690
v 128.000000 0.000000 76.282829
v 128.000000 0.000000 73.696968
v 128.000000 0.000000 71.111115
v 128.000000 0.000000 68.525253
v 128.000000 0.000000 65.939392
v 96.000000 2.577542 73.696968
v 96.000000 2.440862 71.111115
v 96.000000 2.544889 68.525253
v 96.000000 2.691445 65.939392
v 96.000000 2.741769 76.282829
v 96.000000 2.896344 81.454544
v 96.000000 2.872806 78.868690
v 96.000000 1.921112 91.797981
v 96.000000 2.135687 89.212120
v 96.000000 2.650999 84.040405
v 96.000000 2.394023 86.626259
v 96.000000 1.629613 94.383835
v 117.656563 0.000000 96.000000
v 104.727272 0.483880 96.000000
v 99.555557 1.029979 96.000000
v 109.898987 0.179963 96.000000
v 122.828285 0.000000 96.000000
v 96.969696 1.317385 96.000000
v 112.484848 0.074893 96.000000
v 125.414139 0.000000 96.000000
v 102.141411 0.724747 96.000000
v 120.242424 0.000000 96.000000
v 128.000000 0.000000 96.000000
v 107.313133 0.314514 96.000000
v 115.070709 0.012179 96.000000
v 96.000000 1.419729 96.000000
v 122.828285 0.096492 64.000000
v 120.242424 0.286188 64.000000
v 125.414139 0.003026 64.000000
v 128.000000 0.000000 64.000000
v 109.898987 1.299017 64.000000
v 107.313133 1.496203 64.000000
v 104.727272 1.671566 64.000000
v 102.141411 1.995857 64.000000
v 112.484848 1.047908 64.000000
v 117.656563 0.543247 64.000000
v 115.070709 0.824390 64.000000
v 99.555557 2.342723 64.000000
v 96.969696 2.808861 64.000000
v 96.000000 3.006300 64.000000
vn 0.108400 0.986200 0.125500
vn 0.112400 0.986500 0.118900
vn 0.119800 0.986700 0.109900
vn 0.118200 0.986300 0.115400
vn 0.132600 0.987000 0.090900
vn 0.133900 0.986500 0.094200
vn 0.144300 0.986000 0.083100
vn 0.147800 0.985200 0.087100
vn 0.170000 0.982400 0.076700
vn 0.175000 0.980400 0.090200
vn 0.213500 0.974600 0.067800
vn 0.220600 0.971700 0.084100
vn 0.241000 0.969800 0.037200
vn 0.261800 0.964500 0.035200
vn 0.234400 0.972000 -0.017600
vn 0.263400 0.964400 -0.023500
vn 0.216700 0.975100 -0.046500
vn 0.232700 0.971300 -0.048500
vn 0.193000 0.980400 -0.039300
vn 0.203500 0.977700 -0.052400
vn 0.160000 0.987000 0.012000
vn 0.177400 0.984100 -0.000500
vn 0.141300 0.988700 0.050100
vn 0.158300 0.986100 0.049400
vn 0.152800 0.984300 0.088400
vn 0.166800 0.980800 0.101300
vn 0.121500 0.987600 0.099200
vn 0.130100 0.987100 0.093100
vn 0.146200 0.986000 0.079900
vn 0.157600 0.984600 0.074900
vn 0.168200 0.984100 0.056600
vn 0.186000 0.981700 0.039700
vn 0.198800 0.979300 0.037600
vn 0.192900 0.981200 -0.003900
vn 0.174400 0.984100 -0.033700
vn 0.149700 0.988600 -0.011800
vn 0.133000 0.990700 0.027200
vn 0.133900 0.989900 0.046800
vn 0.142000 0.987300 0.070400
vn 0.111000 0.990900 0.075900
vn 0.118000 0.990300 0.073200
vn 0.131800 0.989100 0.065500
vn 0.145600 0.987300 0.063800
vn 0.150600 0.987200 0.052300
vn 0.143200 0.989100 0.033800
vn 0.142100 0.989300 0.032000
vn 0.143100 0.989700 0.007700
vn 0.125700 0.992000 -0.009000
vn 0.106200 0.994300 0.008400
vn 0.109800 0.993700 0.020400
vn 0.128500 0.991100 0.033600
vn 0.135000 0.988500 0.067700
vn 0.083400 0.994800 0.058500
vn 0.087600 0.994400 0.058900
vn 0.093800 0.994000 0.056700
vn 0.099900 0.993600 0.053000
vn 0.110500 0.992700 0.048200
vn 0.114700 0.992500 0.041900
vn 0.110200 0.993400 0.029800
vn 0.107700 0.994100 0.011800
vn 0.101200 0.994800 0.011200
vn 0.088900 0.995800 0.020400
vn 0.081700 0.996600 0.012100
vn 0.083600 0.996300 0.021100
vn 0.089900 0.993700 0.067400
vn 0.062500 0.997000 0.045100
vn 0.067500 0.996600 0.047200
vn 0.075200 0.995800 0.052100
vn 0.079300 0.995700 0.047500
vn 0.086700 0.995600 0.035900
vn 0.097300 0.994400 0.039600
vn 0.100500 0.994400 0.033500
vn 0.094800 0.995400 0.016400
vn 0.085600 0.996100 0.022500
vn 0.076000 0.996600 0.031200
vn 0.065000 0.997700 0.019800
vn 0.055000 0.998200 0.021500
vn 0.056800 0.996800 0.056800
vn 0.048900 0.998200 0.034700
vn 0.052700 0.997900 0.036400
vn 0.061900 0.997100 0.044100
vn 0.071800 0.996500 0.041600
vn 0.077200 0.996600 0.029100
vn 0.079900 0.996200 0.033100
vn 0.083000 0.996000 0.033800
vn 0.082100 0.996300 0.023000
vn 0.080100 0.996400 0.027200
vn 0.081200 0.996100 0.035000
vn 0.078600 0.996500 0.029600
vn 0.073700 0.996900 0.026600
vn 0.076600 0.996100 0.044300
vn 0.036600 0.999000 0.023800
vn 0.041100 0.998800 0.026000
vn 0.051700 0.998100 0.032700
vn 0.062300 0.997500 0.032400
vn 0.068400 0.997300 0.026800
vn 0.071400 0.997000 0.029800
vn 0.075700 0.996700 0.029700
vn 0.080600 0.996500 0.023200
vn 0.083900 0.996100 0.025600
vn 0.087200 0.995700 0.032000
vn 0.089300 0.995500 0.033100
vn 0.088400 0.995600 0.028900
vn 0.088500 0.995300 0.037700
vn 0.018300 0.999800 0.010900
vn 0.023600 0.999600 0.013800
vn 0.035600 0.999100 0.020000
vn 0.047600 0.998600 0.022500
vn 0.055900 0.998200 0.022300
vn 0.061700 0.997800 0.025400
vn 0.067000 0.997400 0.024400
vn 0.070800 0.997300 0.019900
vn 0.073800 0.997000 0.022600
vn 0.077300 0.996600 0.028200
vn 0.082100 0.996200 0.030000
vn 0.087300 0.995800 0.027500
vn 0.091500 0.995200 0.033900
vn 0.003800 1.000000 0.002400
vn 0.006800 0.999900 0.004000
vn 0.015000 0.999800 0.008100
vn 0.025800 0.999600 0.011600
vn 0.036200 0.999200 0.014500
vn 0.045800 0.998800 0.017900
vn 0.054500 0.998400 0.017900
vn 0.060200 0.998000 0.016800
vn 0.064100 0.997700 0.018700
vn 0.069800 0.997300 0.022800
vn 0.077500 0.996700 0.023000
vn 0.086000 0.996100 0.020700
vn 0.094500 0.995100 0.026300
vn 0.000000 1.000000 0.000000
vn 0.000200 1.000000 0.000200
vn 0.002000 1.000000 0.001500
vn 0.006400 1.000000 0.003100
vn 0.013400 0.999900 0.005600
vn 0.022200 0.999700 0.008300
vn 0.031500 0.999500 0.009400
vn 0.040200 0.999100 0.010900
vn 0.048200 0.998700 0.012800
vn 0.056100 0.998300 0.015100
vn 0.064600 0.997800 0.014600
vn 0.071500 0.997300 0.013600
vn 0.077700 0.996800 0.017000
vn 0.000100 1.000000 0.000100
vn 0.000900 1.000000 0.000700
vn 0.003400 1.000000 0.001800
vn 0.007600 0.999900 0.002500
vn 0.013000 0.999900 0.003800
vn 0.019600 0.999800 0.005500
vn 0.027100 0.999600 0.006900
vn 0.034500 0.999400 0.007000
vn 0.041300 0.999100 0.007500
vn 0.048300 0.998800 0.008600
vn 0.000500 1.000000 0.000400
vn 0.001800 1.000000 0.000900
vn 0.004200 1.000000 0.001400
vn 0.007400 1.000000 0.001800
vn 0.011300 0.999900 0.002100
vn 0.015100 0.999900 0.002500
vn 0.000400 1.000000 0.000400
vn 0.051900 0.998600 0.008700
vn 0.081200 0.996500 0.018800
vn 0.017000 0.999900 0.002800
vn 0.000700 1.000000 0.000600
vn 0.080900 0.994900 0.059700
vn 0.062300 0.994900 0.079300
vn 0.093300 0.991100 0.094800
vn 0.132400 0.986900 0.092000
vn 0.089500 0.994700 0.050200
vn 0.098800 0.994600 0.031600
vn 0.093300 0.994700 0.042900
vn 0.146400 0.984400 0.097500
vn 0.166400 0.977600 0.128800
vn 0.178900 0.972600 0.148300
usemtl None
s 1
f 182//1 174//2 1//3 168//4
f 168//4 1//3 2//5 164//6
f 164//6 2//5 3//7 165//8
f 165//8 3//7 4//9 167//10
f 167//10 4//9 5//11 166//12
f 166//12 5//11 6//13 162//14
f 162//14 6//13 7//15 163//16
f 163//16 7//15 8//17 161//18
f 161//18 8//17 9//19 157//20
f 157//20 9//19 10//21 158//22
f 158//22 10//21 11//23 159//24
f 159//24 11//23 12//25 160//26
f 174//2 171//27 13//28 1//3
f 1//3 13//28 14//29 2//5
f 2//5 14//29 15//30 3//7
f 3//7 15//30 16//31 4//9
f 4//9 16//31 17//32 5//11
f 5//11 17//32 18//33 6//13
f 6//13 18//33 19//34 7//15
f 7//15 19//34 20//35 8//17
f 8//17 20//35 21//36 9//19
f 9//19 21//36 22//37 10//21
f 10//21 22//37 23//38 11//23
f 11//23 23//38 24//39 12//25
f 171//27 177//40 25//41 13//28
f 13//28 25//41 26//42 14//29
f 14//29 26//42 27//43 15//30
f 15//30 27//43 28//44 16//31
f 16//31 28//44 29//45 17//32
f 17//32 29//45 30//46 18//33
f 18//33 30//46 31//47 19//34
f 19//34 31//47 32//48 20//35
f 20//35 32//48 33//49 21//36
f 21//36 33//49 34//50 22//37
f 22//37 34//50 35//51 23//38
f 23//38 35//51 36//52 24//39
f 177//40 170//53 37//54 25//41
f 25//41 37//54 38//55 26//42
f 26//42 38//55 39//56 27//43
f 27//43 39//56 40//57 28//44
f 28//44 40//57 41//58 29//45
f 29//45 41//58 42//59 30//46
f 30//46 42//59 43//60 31//47
f 31//47 43//60 44//61 32//48
f 32//48 44//61 45//62 33//49
f 33//49 45//62 46//63 34//50
f 34//50 46//63 47//64 35//51
f 35//51 47//64 48//65 36//52
f 170//53 180//66 49//67 37//54
f 37//54 49//67 50//68 38//55
f 38//55 50//68 51//69 39//56
f 39//56 51//69 52//70 40//57
f 40//57 52//70 53//71 41//58
f 41//58 53//71 54//72 42//59
f 42//59 54//72 55//73 43//60
f 43//60 55//73 56//74 44//61
f 44//61 56//74 57//75 45//62
f 45//62 57//75 58//76 46//63
f 46//63 58//76 59//77 47//64
f 47//64 59//77 60//78 48//65
f 180//66 172//79 61//80 49//67
f 49//67 61//80 62//81 50//68
f 50//68 62//81 63//82 51//69
f 51//69 63//82 64//83 52//70
f 52//70 64//83 65//84 53//71
f 53//71 65//84 66//85 54//72
f 54//72 66//85 67//86 55//73
f 55//73 67//86 68//87 56//74
f 56//74 68//87 69//88 57//75
f 57//75 69//88 70//89 58//76
f 58//76 70//89 71//90 59//77
f 59//77 71//90 72//91 60//78
f 172//79 175//92 73//93 61//80
f 61//80 73//93 74//94 62//81
f 62//81 74//94 75//95 63//82
f 63//82 75//95 76//96 64//83
f 64//83 76//96 77//97 65//84
f 65//84 77//97 78//98 66//85
f 66//85 78//98 79//99 67//86
f 67//86 79//99 80//100 68//87
f 68//87 80//100 81//101 69//88
f 69//88 81//101 82//102 70//89
f 70//89 82//102 83//103 71//90
f 71//90 83//103 84//104 72//91
f 175//92 181//105 85//106 73//93
f 73//93 85//106 86//107 74//94
f 74//94 86//107 87//108 75//95
f 75//95 87//108 88//109 76//96
f 76//96 88//109 89//110 77//97
f 77//97 89//110 90//111 78//98
f 78//98 90//111 91//112 79//99
f 79//99 91//112 92//113 80//100
f 80//100 92//113 93//114 81//101
f 81//101 93//114 94//115 82//102
f 82//102 94//115 95//116 83//103
f 83//103 95//116 96//117 84//104
f 181//105 169//118 97//119 85//106
f 85//106 97//119 98//120 86//107
f 86//107 98//120 99//121 87//108
f 87//108 99//121 100//122 88//109
f 88//109 100//122 101//123 89//110
f 89//110 101//123 102//124 90//111
f 90//111 102//124 103//125 91//112
f 91//112 103//125 104//126 92//113
f 92//113 104//126 105//127 93//114
f 93//114 105//127 106//128 94//115
f 94//115 106//128 107//129 95//116
f 95//116 107//129 108//130 96//117
f 169//118 178//131 109//132 97//119
f 97//119 109//132 110//133 98//120
f 98//120 110//133 111//134 99//121
f 99//121 111//134 112//135 100//122
f 100//122 112//135 113//136 101//123
f 101//123 113//136 114//137 102//124
f 102//124 114//137 115//138 103//125
f 103//125 115//138 116//139 104//126
f 104//126 116//139 117//140 105//127
f 105//127 117//140 118//141 106//128
f 106//128 118//141 119//142 107//129
f 107//129 119//142 120//143 108//130
f 178//131 173//131 121//131 109//132
f 109//132 121//131 122//131 110//133
f 110//133 122//131 123//144 111//134
f 111//134 123//144 124//145 112//135
f 112//135 124//145 125//146 113//136
f 113//136 125//146 126//147 114//137
f 114//137 126//147 127//148 115//138
f 115//138 127//148 128//149 116//139
f 116//139 128//149 129//150 117//140
f 117//140 129//150 130//151 118//141
f 118//141 130//151 131//152 119//142
f 119//142 131//152 132//153 120//143
f 173//131 176//131 133//131 121//131
f 121//131 133//131 134//131 122//131
f 122//131 134//131 135//131 123//144
f 123//144 135//131 136//131 124//145
f 124//145 136//131 137//131 125//146
f 125//146 137//131 138//131 126//147
f 126//147 138//131 139//154 127//148
f 127//148 139//154 140//155 128//149
f 128//149 140//155 141//156 129//150
f 129//150 141//156 142//157 130//151
f 130//151 142//157 143//158 131//152
f 131//152 143//158 144//159 132//153
f 176//131 179//131 145//131 133//131
f 133//131 145//131 146//131 134//131
f 134//131 146//131 147//131 135//131
f 135//131 147//131 148//131 136//131
f 136//131 148//131 149//131 137//131
f 137//131 149//131 150//131 138//131
f 138//131 150//131 151//131 139//154
f 139//154 151//131 152//131 140//155
f 140//155 152//131 153//131 141//156
f 141//156 153//131 154//131 142//157
f 142//157 154//131 155//144 143//158
f 143//158 155//144 156//160 144//159
f 120//143 132//153 183//161 184//162
f 132//153 144//159 185//163 183//161
f 144//159 156//160 186//164 185//163
f 60//78 72//91 187//165 188//166
f 36//52 48//65 189//167 190//168
f 48//65 60//78 188//166 189//167
f 72//91 84//104 191//169 187//165
f 108//130 120//143 184//162 192//170
f 84//104 96//117 193//171 191//169
f 96//117 108//130 192//170 193//171
f 24//39 36//52 190//168 194//172
f 160//26 12//25 195//173 196//174
f 12//25 24//39 194//172 195//173
