# Blender v2.73 (sub 0) OBJ File: 'untitled.blend'
# www.blender.org
mtllib Landscape.007.mtl
o Landscape.007
v -128.000000 0.000000 -32.323231
v -128.000000 0.000000 -34.909092
v -128.000000 0.000000 -37.494949
v -128.000000 0.000000 -40.080807
v -128.000000 0.000000 -42.666668
v -128.000000 0.000000 -45.252525
v -128.000000 0.000000 -47.838383
v -128.000000 0.000000 -50.424244
v -128.000000 0.000000 -53.010101
v -128.000000 0.000000 -55.595959
v -128.000000 0.000000 -58.181820
v -128.000000 0.000000 -60.767677
v -128.000000 0.000000 -63.353535
v -125.414139 0.055704 -32.323231
v -125.414139 0.063403 -34.909092
v -125.414139 0.067590 -37.494949
v -125.414139 0.062753 -40.080807
v -125.414139 0.061397 -42.666668
v -125.414139 0.051429 -45.252525
v -125.414139 0.046394 -47.838383
v -125.414139 0.043730 -50.424244
v -125.414139 0.037127 -53.010101
v -125.414139 0.028676 -55.595959
v -125.414139 0.020461 -58.181820
v -125.414139 0.010825 -60.767677
v -125.414139 0.004487 -63.353535
v -122.828285 0.233762 -32.323231
v -122.828285 0.257612 -34.909092
v -122.828285 0.267871 -37.494949
v -122.828285 0.263037 -40.080807
v -122.828285 0.265971 -42.666668
v -122.828285 0.247223 -45.252525
v -122.828285 0.240137 -47.838383
v -122.828285 0.242651 -50.424244
v -122.828285 0.237802 -53.010101
v -122.828285 0.232306 -55.595959
v -122.828285 0.192576 -58.181820
v -122.828285 0.146616 -60.767677
v -122.828285 0.114265 -63.353535
v -120.242424 0.521073 -32.323231
v -120.242424 0.575702 -34.909092
v -120.242424 0.583804 -37.494949
v -120.242424 0.606788 -40.080807
v -120.242424 0.592826 -42.666668
v -120.242424 0.564628 -45.252525
v -120.242424 0.556594 -47.838383
v -120.242424 0.536878 -50.424244
v -120.242424 0.541503 -53.010101
v -120.242424 0.552364 -55.595959
v -120.242424 0.502992 -58.181820
v -120.242424 0.425542 -60.767677
v -120.242424 0.380193 -63.353535
v -117.656563 0.963687 -32.323231
v -117.656563 1.050997 -34.909092
v -117.656563 1.032249 -37.494949
v -117.656563 1.091310 -40.080807
v -117.656563 1.091408 -42.666668
v -117.656563 1.013950 -45.252525
v -117.656563 0.998559 -47.838383
v -117.656563 0.972235 -50.424244
v -117.656563 1.008440 -53.010101
v -117.656563 0.991897 -55.595959
v -117.656563 0.960883 -58.181820
v -117.656563 0.885189 -60.767677
v -117.656563 0.784375 -63.353535
v -115.070709 1.513975 -32.323231
v -115.070709 1.605742 -34.909092
v -115.070709 1.689368 -37.494949
v -115.070709 1.757247 -40.080807
v -115.070709 1.724950 -42.666668
v -115.070709 1.626847 -45.252525
v -115.070709 1.598404 -47.838383
v -115.070709 1.516840 -50.424244
v -115.070709 1.529233 -53.010101
v -115.070709 1.559063 -55.595959
v -115.070709 1.570511 -58.181820
v -115.070709 1.438817 -60.767677
v -115.070709 1.262165 -63.353535
v -112.484848 2.337008 -32.323231
v -112.484848 2.419359 -34.909092
v -112.484848 2.460180 -37.494949
v -112.484848 2.426127 -40.080807
v -112.484848 2.419272 -42.666668
v -112.484848 2.315787 -45.252525
v -112.484848 2.197486 -47.838383
v -112.484848 2.044811 -50.424244
v -112.484848 2.056831 -53.010101
v -112.484848 1.988659 -55.595959
v -112.484848 2.069054 -58.181820
v -112.484848 2.005026 -60.767677
v -112.484848 1.930077 -63.353535
v -109.898987 3.244988 -32.323231
v -109.898987 3.356769 -34.909092
v -109.898987 3.337892 -37.494949
v -109.898987 3.336208 -40.080807
v -109.898987 3.302300 -42.666668
v -109.898987 3.118246 -45.252525
v -109.898987 2.928688 -47.838383
v -109.898987 2.691816 -50.424244
v -109.898987 2.526652 -53.010101
v -109.898987 2.486429 -55.595959
v -109.898987 2.596081 -58.181820
v -109.898987 2.621723 -60.767677
v -109.898987 2.688885 -63.353535
v -107.313133 4.079043 -32.323231
v -107.313133 4.130422 -34.909092
v -107.313133 4.135026 -37.494949
v -107.313133 4.028519 -40.080807
v -107.313133 4.010437 -42.666668
v -107.313133 3.952471 -45.252525
v -107.313133 3.756455 -47.838383
v -107.313133 3.554853 -50.424244
v -107.313133 3.256800 -53.010101
v -107.313133 3.254012 -55.595959
v -107.313133 3.403534 -58.181820
v -107.313133 3.548446 -60.767677
v -107.313133 3.564268 -63.353535
v -104.727272 4.893228 -32.323231
v -104.727272 5.028613 -34.909092
v -104.727272 4.887302 -37.494949
v -104.727272 4.951162 -40.080807
v -104.727272 5.104209 -42.666668
v -104.727272 5.197531 -45.252525
v -104.727272 5.046405 -47.838383
v -104.727272 4.736844 -50.424244
v -104.727272 4.463099 -53.010101
v -104.727272 4.306595 -55.595959
v -104.727272 4.338239 -58.181820
v -104.727272 4.691299 -60.767677
v -104.727272 4.827175 -63.353535
v -102.141411 5.594475 -32.323231
v -102.141411 5.876553 -34.909092
v -102.141411 5.797913 -37.494949
v -102.141411 6.141035 -40.080807
v -102.141411 6.531602 -42.666668
v -102.141411 6.611300 -45.252525
v -102.141411 6.363939 -47.838383
v -102.141411 5.969095 -50.424244
v -102.141411 5.539651 -53.010101
v -102.141411 5.328440 -55.595959
v -102.141411 5.539400 -58.181820
v -102.141411 5.852201 -60.767677
v -102.141411 5.750223 -63.353535
v -99.555557 6.442961 -32.323231
v -99.555557 6.579553 -34.909092
v -99.555557 7.031147 -37.494949
v -99.555557 7.585859 -40.080807
v -99.555557 7.797584 -42.666668
v -99.555557 7.864328 -45.252525
v -99.555557 7.192387 -47.838383
v -99.555557 6.901361 -50.424244
v -99.555557 6.513825 -53.010101
v -99.555557 6.594353 -55.595959
v -99.555557 6.653508 -58.181820
v -99.555557 6.670749 -60.767677
v -99.555557 6.514757 -63.353535
v -96.969696 7.543633 -32.323231
v -96.969696 7.675462 -34.909092
v -96.969696 8.219438 -37.494949
v -96.969696 9.054002 -40.080807
v -96.969696 9.283478 -42.666668
v -96.969696 9.198182 -45.252525
v -96.969696 8.275203 -47.838383
v -96.969696 7.734408 -50.424244
v -96.969696 7.374837 -53.010101
v -96.969696 7.413144 -55.595959
v -96.969696 7.124930 -58.181820
v -96.969696 7.099303 -60.767677
v -96.969696 7.133533 -63.353535
v -96.000000 7.799953 -50.424244
v -96.000000 7.406545 -53.010101
v -96.000000 8.069543 -34.909092
v -96.000000 8.631204 -37.494949
v -96.000000 7.246715 -60.767677
v -96.000000 7.331898 -63.353535
v -96.000000 7.202678 -58.181820
v -96.000000 7.498164 -55.595959
v -96.000000 7.842215 -32.323231
v -96.000000 9.542511 -40.080807
v -96.000000 8.459479 -47.838383
v -96.000000 9.437875 -45.252525
v -96.000000 9.745615 -42.666668
v -104.727272 4.847023 -32.000000
v -117.656563 0.948880 -32.000000
v -128.000000 0.000000 -32.000000
v -99.555557 6.463947 -32.000000
v -115.070709 1.502823 -32.000000
v -102.141411 5.608922 -32.000000
v -120.242424 0.514027 -32.000000
v -107.313133 4.037032 -32.000000
v -112.484848 2.305355 -32.000000
v -96.969696 7.575044 -32.000000
v -125.414139 0.055039 -32.000000
v -109.898987 3.194580 -32.000000
v -122.828285 0.230844 -32.000000
v -96.000000 7.869864 -32.000000
v -109.898987 2.676226 -64.000000
v -112.484848 1.901136 -64.000000
v -125.414139 0.003569 -64.000000
v -128.000000 0.000000 -64.000000
v -96.000000 7.306643 -64.000000
v -96.969696 7.110276 -64.000000
v -107.313133 3.535203 -64.000000
v -115.070709 1.241841 -64.000000
v -122.828285 0.108300 -64.000000
v -120.242424 0.365143 -64.000000
v -99.555557 6.489338 -64.000000
v -102.141411 5.771374 -64.000000
v -117.656563 0.752072 -64.000000
v -104.727272 4.786447 -64.000000
vn -0.021400 0.999800 0.001000
vn -0.044800 0.999000 0.003300
vn -0.046100 0.998900 0.003500
vn -0.022200 0.999800 0.001300
vn -0.049000 0.998800 0.002800
vn -0.024200 0.999700 0.001100
vn -0.051000 0.998700 0.000200
vn -0.025300 0.999700 -0.000100
vn -0.051100 0.998700 -0.000700
vn -0.024600 0.999700 -0.000600
vn -0.050300 0.998700 -0.001800
vn -0.022900 0.999700 -0.001100
vn -0.048200 0.998800 -0.002700
vn -0.020400 0.999800 -0.001500
vn -0.046800 0.998900 -0.000900
vn -0.018200 0.999800 -0.000700
vn -0.046400 0.998900 -0.001000
vn -0.016500 0.999900 -0.000900
vn -0.045800 0.998900 -0.001900
vn -0.014200 0.999900 -0.001500
vn -0.043200 0.999100 -0.003800
vn -0.011100 0.999900 -0.001600
vn -0.036900 0.999300 -0.005900
vn -0.007800 1.000000 -0.001700
vn -0.029000 0.999500 -0.005300
vn -0.004500 1.000000 -0.001500
vn -0.023300 0.999700 -0.003700
vn -0.002300 1.000000 -0.001000
vn -0.089000 0.996000 0.010400
vn -0.091500 0.995700 0.010500
vn -0.096500 0.995300 0.006900
vn -0.100400 0.994900 0.002000
vn -0.102600 0.994700 -0.000000
vn -0.101900 0.994800 -0.004100
vn -0.099400 0.995000 -0.004900
vn -0.097400 0.995200 -0.002100
vn -0.096200 0.995300 -0.001400
vn -0.097400 0.995200 -0.001000
vn -0.097800 0.995200 -0.007000
vn -0.091500 0.995700 -0.015200
vn -0.081200 0.996600 -0.014200
vn -0.073500 0.997200 -0.011000
vn -0.138400 0.990100 0.024300
vn -0.142000 0.989600 0.022700
vn -0.147200 0.989000 0.010900
vn -0.150400 0.988600 0.005100
vn -0.154900 0.987900 0.003600
vn -0.154900 0.987900 -0.008500
vn -0.148900 0.988800 -0.009100
vn -0.144000 0.989500 -0.004900
vn -0.142800 0.989700 -0.001100
vn -0.144800 0.989400 0.001900
vn -0.146200 0.989200 -0.008100
vn -0.145000 0.989200 -0.021300
vn -0.139300 0.989900 -0.023900
vn -0.130300 0.991200 -0.023800
vn -0.187800 0.981500 0.036300
vn -0.189900 0.981200 0.033400
vn -0.197000 0.980200 0.017800
vn -0.207300 0.978200 0.012400
vn -0.214100 0.976800 0.007700
vn -0.211300 0.977300 -0.015400
vn -0.203200 0.979000 -0.016400
vn -0.195400 0.980700 -0.010500
vn -0.189200 0.981900 -0.003000
vn -0.188100 0.982100 0.004600
vn -0.192900 0.981200 -0.004400
vn -0.196800 0.980200 -0.021800
vn -0.188500 0.981400 -0.037200
vn -0.173700 0.984000 -0.039100
vn -0.254000 0.965900 0.051100
vn -0.254900 0.966000 0.042100
vn -0.258100 0.965800 0.025300
vn -0.259400 0.965600 0.016400
vn -0.253700 0.967300 0.004200
vn -0.247800 0.968600 -0.021000
vn -0.240500 0.970200 -0.026600
vn -0.224700 0.974100 -0.025100
vn -0.207600 0.978100 -0.012600
vn -0.197400 0.980300 0.002300
vn -0.196600 0.980500 0.002200
vn -0.204900 0.978600 -0.015600
vn -0.212100 0.976200 -0.044000
vn -0.214900 0.975600 -0.044200
vn -0.312500 0.945600 0.090600
vn -0.316000 0.946700 0.062700
vn -0.315400 0.948600 0.023600
vn -0.304900 0.952300 0.006700
vn -0.294500 0.955600 -0.003700
vn -0.287800 0.957300 -0.026300
vn -0.273400 0.960900 -0.043800
vn -0.248900 0.967200 -0.050400
vn -0.220200 0.974800 -0.035200
vn -0.194200 0.980900 -0.013100
vn -0.184200 0.982800 0.006400
vn -0.197200 0.980300 0.002300
vn -0.226700 0.973700 -0.023200
vn -0.255500 0.966300 -0.029100
vn -0.316100 0.940200 0.126700
vn -0.316300 0.945200 0.080000
vn -0.313600 0.949400 0.016700
vn -0.306400 0.951900 -0.006300
vn -0.298200 0.954400 -0.010900
vn -0.296100 0.954700 -0.028600
vn -0.296200 0.953500 -0.056400
vn -0.289100 0.954700 -0.070200
vn -0.268000 0.961100 -0.067000
vn -0.241800 0.969700 -0.035600
vn -0.237000 0.971400 0.013800
vn -0.255300 0.966500 0.027000
vn -0.280200 0.959900 0.009400
vn -0.297300 0.954700 -0.011900
vn -0.301400 0.944300 0.132000
vn -0.303700 0.949200 0.082100
vn -0.301500 0.953400 0.009100
vn -0.294900 0.955400 -0.013900
vn -0.302600 0.953100 -0.003300
vn -0.331400 0.943400 -0.006000
vn -0.362000 0.931200 -0.042600
vn -0.371800 0.925200 -0.075300
vn -0.363500 0.927300 -0.088800
vn -0.347400 0.936100 -0.055300
vn -0.332300 0.943100 0.011100
vn -0.334900 0.940900 0.050000
vn -0.360500 0.931800 0.040700
vn -0.377500 0.926000 -0.009400
vn -0.285100 0.954300 0.089300
vn -0.292500 0.953600 0.071300
vn -0.306800 0.951700 0.011600
vn -0.327600 0.944800 -0.000200
vn -0.374600 0.926000 0.045600
vn -0.427400 0.903200 0.038600
vn -0.450500 0.892500 -0.023100
vn -0.443600 0.892200 -0.084800
vn -0.422400 0.899900 -0.108200
vn -0.399500 0.913300 -0.079300
vn -0.382500 0.923900 -0.004400
vn -0.384200 0.920600 0.070000
vn -0.395900 0.916300 0.059900
vn -0.394500 0.918900 -0.007400
vn -0.292800 0.956200 -0.002800
vn -0.289600 0.956400 0.037600
vn -0.311600 0.949100 0.045600
vn -0.376000 0.924500 0.062400
vn -0.436400 0.893500 0.106100
vn -0.458200 0.886600 0.062800
vn -0.439400 0.897200 -0.044800
vn -0.398800 0.909300 -0.118900
vn -0.377300 0.917000 -0.129200
vn -0.381100 0.920200 -0.089400
vn -0.396400 0.918100 0.000100
vn -0.394500 0.916400 0.067100
vn -0.357400 0.933300 0.033100
vn -0.322600 0.946400 -0.014600
vn -0.353200 0.933400 -0.063400
vn -0.345900 0.938200 -0.000100
vn -0.356800 0.929800 0.090500
vn -0.413500 0.896800 0.157000
vn -0.464400 0.874100 0.142100
vn -0.468900 0.881900 0.049700
vn -0.427500 0.897900 -0.105300
vn -0.360100 0.916300 -0.175200
vn -0.328100 0.934400 -0.138900
vn -0.340700 0.937400 -0.071400
vn -0.342600 0.939500 0.001000
vn -0.296600 0.954900 0.015700
vn -0.253500 0.967300 -0.003100
vn -0.250200 0.967800 -0.027700
vn -0.341200 0.936500 -0.080900
vn -0.354300 0.935000 -0.012100
vn -0.376100 0.918700 0.120200
vn -0.406500 0.886100 0.222500
vn -0.447000 0.878100 0.170500
vn -0.438900 0.898300 0.018500
vn -0.359300 0.917100 -0.172500
vn -0.273400 0.929300 -0.248100
vn -0.208900 0.964000 -0.164600
vn -0.184900 0.980900 -0.059400
vn -0.174100 0.984300 -0.027200
vn -0.153700 0.987400 -0.038200
vn -0.165300 0.986200 0.000400
vn -0.201600 0.979300 -0.018400
vn -0.087500 0.978900 -0.184700
vn -0.055000 0.996700 -0.059700
vn -0.357600 0.924500 0.132100
vn -0.391000 0.886700 0.246900
vn -0.145500 0.989300 0.013200
vn -0.187500 0.982200 -0.007000
vn -0.099400 0.993600 -0.054400
vn -0.071700 0.996500 -0.043300
vn -0.291500 0.952600 -0.087000
vn -0.314600 0.949200 -0.010900
vn -0.424500 0.887700 0.178300
vn -0.164500 0.944600 -0.283900
vn -0.275900 0.939700 -0.202100
vn -0.391100 0.920400 0.002200
vn -0.301000 0.953100 -0.030700
vn -0.266200 0.963300 -0.033900
vn -0.021500 0.999800 -0.003000
vn -0.001600 1.000000 -0.000700
vn -0.199300 0.979200 -0.036700
vn -0.216200 0.975700 -0.036700
vn -0.377400 0.925200 -0.039500
vn -0.216100 0.975600 -0.038500
vn -0.071000 0.997400 -0.010700
vn -0.125800 0.991700 -0.026200
vn -0.254500 0.966900 -0.019800
vn -0.310800 0.950400 -0.008700
vn -0.167400 0.985200 -0.038100
vn -0.392600 0.919100 -0.031700
usemtl None
s 1
f 185//1 193//2 14//3 1//4
f 1//4 14//3 15//5 2//6
f 2//6 15//5 16//7 3//8
f 3//8 16//7 17//9 4//10
f 4//10 17//9 18//11 5//12
f 5//12 18//11 19//13 6//14
f 6//14 19//13 20//15 7//16
f 7//16 20//15 21//17 8//18
f 8//18 21//17 22//19 9//20
f 9//20 22//19 23//21 10//22
f 10//22 23//21 24//23 11//24
f 11//24 24//23 25//25 12//26
f 12//26 25//25 26//27 13//28
f 193//2 195//29 27//30 14//3
f 14//3 27//30 28//31 15//5
f 15//5 28//31 29//32 16//7
f 16//7 29//32 30//33 17//9
f 17//9 30//33 31//34 18//11
f 18//11 31//34 32//35 19//13
f 19//13 32//35 33//36 20//15
f 20//15 33//36 34//37 21//17
f 21//17 34//37 35//38 22//19
f 22//19 35//38 36//39 23//21
f 23//21 36//39 37//40 24//23
f 24//23 37//40 38//41 25//25
f 25//25 38//41 39//42 26//27
f 195//29 189//43 40//44 27//30
f 27//30 40//44 41//45 28//31
f 28//31 41//45 42//46 29//32
f 29//32 42//46 43//47 30//33
f 30//33 43//47 44//48 31//34
f 31//34 44//48 45//49 32//35
f 32//35 45//49 46//50 33//36
f 33//36 46//50 47//51 34//37
f 34//37 47//51 48//52 35//38
f 35//38 48//52 49//53 36//39
f 36//39 49//53 50//54 37//40
f 37//40 50//54 51//55 38//41
f 38//41 51//55 52//56 39//42
f 189//43 184//57 53//58 40//44
f 40//44 53//58 54//59 41//45
f 41//45 54//59 55//60 42//46
f 42//46 55//60 56//61 43//47
f 43//47 56//61 57//62 44//48
f 44//48 57//62 58//63 45//49
f 45//49 58//63 59//64 46//50
f 46//50 59//64 60//65 47//51
f 47//51 60//65 61//66 48//52
f 48//52 61//66 62//67 49//53
f 49//53 62//67 63//68 50//54
f 50//54 63//68 64//69 51//55
f 51//55 64//69 65//70 52//56
f 184//57 187//71 66//72 53//58
f 53//58 66//72 67//73 54//59
f 54//59 67//73 68//74 55//60
f 55//60 68//74 69//75 56//61
f 56//61 69//75 70//76 57//62
f 57//62 70//76 71//77 58//63
f 58//63 71//77 72//78 59//64
f 59//64 72//78 73//79 60//65
f 60//65 73//79 74//80 61//66
f 61//66 74//80 75//81 62//67
f 62//67 75//81 76//82 63//68
f 63//68 76//82 77//83 64//69
f 64//69 77//83 78//84 65//70
f 187//71 191//85 79//86 66//72
f 66//72 79//86 80//87 67//73
f 67//73 80//87 81//88 68//74
f 68//74 81//88 82//89 69//75
f 69//75 82//89 83//90 70//76
f 70//76 83//90 84//91 71//77
f 71//77 84//91 85//92 72//78
f 72//78 85//92 86//93 73//79
f 73//79 86//93 87//94 74//80
f 74//80 87//94 88//95 75//81
f 75//81 88//95 89//96 76//82
f 76//82 89//96 90//97 77//83
f 77//83 90//97 91//98 78//84
f 191//85 194//99 92//100 79//86
f 79//86 92//100 93//101 80//87
f 80//87 93//101 94//102 81//88
f 81//88 94//102 95//103 82//89
f 82//89 95//103 96//104 83//90
f 83//90 96//104 97//105 84//91
f 84//91 97//105 98//106 85//92
f 85//92 98//106 99//107 86//93
f 86//93 99//107 100//108 87//94
f 87//94 100//108 101//109 88//95
f 88//95 101//109 102//110 89//96
f 89//96 102//110 103//111 90//97
f 90//97 103//111 104//112 91//98
f 194//99 190//113 105//114 92//100
f 92//100 105//114 106//115 93//101
f 93//101 106//115 107//116 94//102
f 94//102 107//116 108//117 95//103
f 95//103 108//117 109//118 96//104
f 96//104 109//118 110//119 97//105
f 97//105 110//119 111//120 98//106
f 98//106 111//120 112//121 99//107
f 99//107 112//121 113//122 100//108
f 100//108 113//122 114//123 101//109
f 101//109 114//123 115//124 102//110
f 102//110 115//124 116//125 103//111
f 103//111 116//125 117//126 104//112
f 190//113 183//127 118//128 105//114
f 105//114 118//128 119//129 106//115
f 106//115 119//129 120//130 107//116
f 107//116 120//130 121//131 108//117
f 108//117 121//131 122//132 109//118
f 109//118 122//132 123//133 110//119
f 110//119 123//133 124//134 111//120
f 111//120 124//134 125//135 112//121
f 112//121 125//135 126//136 113//122
f 113//122 126//136 127//137 114//123
f 114//123 127//137 128//138 115//124
f 115//124 128//138 129//139 116//125
f 116//125 129//139 130//140 117//126
f 183//127 188//141 131//142 118//128
f 118//128 131//142 132//143 119//129
f 119//129 132//143 133//144 120//130
f 120//130 133//144 134//145 121//131
f 121//131 134//145 135//146 122//132
f 122//132 135//146 136//147 123//133
f 123//133 136//147 137//148 124//134
f 124//134 137//148 138//149 125//135
f 125//135 138//149 139//150 126//136
f 126//136 139//150 140//151 127//137
f 127//137 140//151 141//152 128//138
f 128//138 141//152 142//153 129//139
f 129//139 142//153 143//154 130//140
f 188//141 186//155 144//156 131//142
f 131//142 144//156 145//157 132//143
f 132//143 145//157 146//158 133//144
f 133//144 146//158 147//159 134//145
f 134//145 147//159 148//160 135//146
f 135//146 148//160 149//161 136//147
f 136//147 149//161 150//162 137//148
f 137//148 150//162 151//163 138//149
f 138//149 151//163 152//164 139//150
f 139//150 152//164 153//165 140//151
f 140//151 153//165 154//166 141//152
f 141//152 154//166 155//167 142//153
f 142//153 155//167 156//168 143//154
f 186//155 192//169 157//170 144//156
f 144//156 157//170 158//171 145//157
f 145//157 158//171 159//172 146//158
f 146//158 159//172 160//173 147//159
f 147//159 160//173 161//174 148//160
f 148//160 161//174 162//175 149//161
f 149//161 162//175 163//176 150//162
f 150//162 163//176 164//177 151//163
f 151//163 164//177 165//178 152//164
f 152//164 165//178 166//179 153//165
f 153//165 166//179 167//180 154//166
f 154//166 167//180 168//181 155//167
f 155//167 168//181 169//182 156//168
f 164//177 170//183 171//184 165//178
f 158//171 172//185 173//186 159//172
f 168//181 174//187 175//188 169//182
f 167//180 176//189 174//187 168//181
f 165//178 171//184 177//190 166//179
f 166//179 177//190 176//189 167//180
f 192//169 196//191 178//192 157//170
f 157//170 178//192 172//185 158//171
f 159//172 173//186 179//193 160//173
f 163//176 180//194 170//183 164//177
f 162//175 181//195 180//194 163//176
f 160//173 179//193 182//196 161//174
f 161//174 182//196 181//195 162//175
f 91//98 104//112 197//197 198//198
f 13//28 26//27 199//199 200//200
f 169//182 175//188 201//201 202//202
f 104//112 117//126 203//203 197//197
f 78//84 91//98 198//198 204//204
f 26//27 39//42 205//205 199//199
f 39//42 52//56 206//206 205//205
f 143//154 156//168 207//207 208//208
f 156//168 169//182 202//202 207//207
f 52//56 65//70 209//209 206//206
f 65//70 78//84 204//204 209//209
f 117//126 130//140 210//210 203//203
f 130//140 143//154 208//208 210//210
