# Blender v2.73 (sub 0) OBJ File: 'untitled.blend'
# www.blender.org
mtllib Landscape.063.mtl
o Landscape.063
v 65.939392 5.589497 -96.969696
v 65.939392 5.260897 -99.555557
v 65.939392 4.518489 -102.141411
v 65.939392 3.700213 -104.727272
v 65.939392 3.003326 -107.313133
v 65.939392 2.373016 -109.898987
v 65.939392 1.823912 -112.484848
v 65.939392 1.299139 -115.070709
v 65.939392 0.913291 -117.656563
v 65.939392 0.488524 -120.242424
v 65.939392 0.145313 -122.828285
v 65.939392 0.001286 -125.414139
v 65.939392 0.000000 -128.000000
v 68.525253 5.173755 -96.969696
v 68.525253 4.968136 -99.555557
v 68.525253 4.618913 -102.141411
v 68.525253 3.911632 -104.727272
v 68.525253 3.087864 -107.313133
v 68.525253 2.364190 -109.898987
v 68.525253 1.729185 -112.484848
v 68.525253 1.193650 -115.070709
v 68.525253 0.806511 -117.656563
v 68.525253 0.385932 -120.242424
v 68.525253 0.097708 -122.828285
v 68.525253 0.000000 -125.414139
v 68.525253 0.000000 -128.000000
v 71.111115 4.785029 -96.969696
v 71.111115 4.616856 -99.555557
v 71.111115 4.347279 -102.141411
v 71.111115 3.821273 -104.727272
v 71.111115 3.078207 -107.313133
v 71.111115 2.330503 -109.898987
v 71.111115 1.663980 -112.484848
v 71.111115 1.096827 -115.070709
v 71.111115 0.653456 -117.656563
v 71.111115 0.277739 -120.242424
v 71.111115 0.055180 -122.828285
v 71.111115 0.000000 -125.414139
v 71.111115 0.000000 -128.000000
v 73.696968 4.086137 -96.969696
v 73.696968 3.927190 -99.555557
v 73.696968 3.902499 -102.141411
v 73.696968 3.380952 -104.727272
v 73.696968 2.851403 -107.313133
v 73.696968 2.070632 -109.898987
v 73.696968 1.487621 -112.484848
v 73.696968 0.974279 -115.070709
v 73.696968 0.509468 -117.656563
v 73.696968 0.201892 -120.242424
v 73.696968 0.028233 -122.828285
v 73.696968 0.000000 -125.414139
v 73.696968 0.000000 -128.000000
v 76.282829 3.560531 -96.969696
v 76.282829 3.424390 -99.555557
v 76.282829 3.348272 -102.141411
v 76.282829 2.936856 -104.727272
v 76.282829 2.364582 -107.313133
v 76.282829 1.728267 -109.898987
v 76.282829 1.223445 -112.484848
v 76.282829 0.753663 -115.070709
v 76.282829 0.362555 -117.656563
v 76.282829 0.126700 -120.242424
v 76.282829 0.009611 -122.828285
v 76.282829 0.000000 -125.414139
v 76.282829 0.000000 -128.000000
v 78.868690 3.137780 -96.969696
v 78.868690 2.945794 -99.555557
v 78.868690 2.714592 -102.141411
v 78.868690 2.371934 -104.727272
v 78.868690 1.817071 -107.313133
v 78.868690 1.372581 -109.898987
v 78.868690 0.983187 -112.484848
v 78.868690 0.591074 -115.070709
v 78.868690 0.260331 -117.656563
v 78.868690 0.071391 -120.242424
v 78.868690 0.000824 -122.828285
v 78.868690 0.000000 -125.414139
v 78.868690 0.000000 -128.000000
v 81.454544 2.686464 -96.969696
v 81.454544 2.514019 -99.555557
v 81.454544 2.292306 -102.141411
v 81.454544 1.754794 -104.727272
v 81.454544 1.354315 -107.313133
v 81.454544 0.979207 -109.898987
v 81.454544 0.684561 -112.484848
v 81.454544 0.395239 -115.070709
v 81.454544 0.170249 -117.656563
v 81.454544 0.036427 -120.242424
v 81.454544 0.000000 -122.828285
v 81.454544 0.000000 -125.414139
v 81.454544 0.000000 -128.000000
v 84.040405 2.421629 -96.969696
v 84.040405 2.174319 -99.555557
v 84.040405 1.786399 -102.141411
v 84.040405 1.400644 -104.727272
v 84.040405 1.057240 -107.313133
v 84.040405 0.760424 -109.898987
v 84.040405 0.494337 -112.484848
v 84.040405 0.260051 -115.070709
v 84.040405 0.100995 -117.656563
v 84.040405 0.012494 -120.242424
v 84.040405 0.000000 -122.828285
v 84.040405 0.000000 -125.414139
v 84.040405 0.000000 -128.000000
v 86.626259 2.248198 -96.969696
v 86.626259 1.868718 -99.555557
v 86.626259 1.590233 -102.141411
v 86.626259 1.222619 -104.727272
v 86.626259 0.872163 -107.313133
v 86.626259 0.568875 -109.898987
v 86.626259 0.347690 -112.484848
v 86.626259 0.171577 -115.070709
v 86.626259 0.056201 -117.656563
v 86.626259 0.001287 -120.242424
v 86.626259 0.000000 -122.828285
v 86.626259 0.000000 -125.414139
v 86.626259 0.000000 -128.000000
v 89.212120 2.014902 -96.969696
v 89.212120 1.662613 -99.555557
v 89.212120 1.383847 -102.141411
v 89.212120 1.041973 -104.727272
v 89.212120 0.686846 -107.313133
v 89.212120 0.442808 -109.898987
v 89.212120 0.253898 -112.484848
v 89.212120 0.111000 -115.070709
v 89.212120 0.024340 -117.656563
v 89.212120 0.000000 -120.242424
v 89.212120 0.000000 -122.828285
v 89.212120 0.000000 -125.414139
v 89.212120 0.000000 -128.000000
v 91.797981 1.828236 -96.969696
v 91.797981 1.355074 -99.555557
v 91.797981 1.073216 -102.141411
v 91.797981 0.787615 -104.727272
v 91.797981 0.525293 -107.313133
v 91.797981 0.307004 -109.898987
v 91.797981 0.166876 -112.484848
v 91.797981 0.060114 -115.070709
v 91.797981 0.004480 -117.656563
v 91.797981 0.000000 -120.242424
v 91.797981 0.000000 -122.828285
v 91.797981 0.000000 -125.414139
v 91.797981 0.000000 -128.000000
v 94.383835 1.594513 -96.969696
v 94.383835 1.175315 -99.555557
v 94.383835 0.877630 -102.141411
v 94.383835 0.594053 -104.727272
v 94.383835 0.369494 -107.313133
v 94.383835 0.216778 -109.898987
v 94.383835 0.102805 -112.484848
v 94.383835 0.023764 -115.070709
v 94.383835 0.000000 -117.656563
v 94.383835 0.000000 -120.242424
v 94.383835 0.000000 -122.828285
v 94.383835 0.000000 -125.414139
v 94.383835 0.000000 -128.000000
v 64.000000 0.000000 -128.000000
v 64.000000 0.005367 -125.414139
v 64.000000 0.170055 -122.828285
v 64.000000 0.526578 -120.242424
v 64.000000 0.982009 -117.656563
v 64.000000 2.348396 -109.898987
v 64.000000 2.951117 -107.313133
v 64.000000 1.420251 -115.070709
v 64.000000 1.874748 -112.484848
v 64.000000 5.749212 -96.969696
v 64.000000 3.659339 -104.727272
v 64.000000 4.477167 -102.141411
v 64.000000 5.250129 -99.555557
v 96.000000 0.070422 -112.484848
v 96.000000 0.010777 -115.070709
v 96.000000 0.000000 -117.656563
v 96.000000 0.000000 -120.242424
v 96.000000 0.168247 -109.898987
v 96.000000 0.313239 -107.313133
v 96.000000 0.760577 -102.141411
v 96.000000 0.506732 -104.727272
v 96.000000 1.075558 -99.555557
v 96.000000 1.463364 -96.969696
v 96.000000 0.000000 -122.828285
v 96.000000 0.000000 -125.414139
v 96.000000 0.000000 -128.000000
v 86.626259 2.318396 -96.000000
v 89.212120 2.097736 -96.000000
v 91.797981 1.971265 -96.000000
v 73.696968 4.205886 -96.000000
v 76.282829 3.608580 -96.000000
v 65.939392 5.649386 -96.000000
v 78.868690 3.115119 -96.000000
v 71.111115 4.800822 -96.000000
v 84.040405 2.484577 -96.000000
v 81.454544 2.695339 -96.000000
v 68.525253 5.227930 -96.000000
v 94.383835 1.765139 -96.000000
v 64.000000 5.813062 -96.000000
v 96.000000 1.624395 -96.000000
vn 0.082900 0.994500 -0.063500
vn 0.121100 0.990800 -0.060800
vn 0.103900 0.990000 -0.095500
vn 0.060600 0.992000 -0.110500
vn 0.049500 0.981000 -0.187200
vn 0.012500 0.975400 -0.220100
vn -0.013800 0.963200 -0.268300
vn -0.016600 0.956500 -0.291400
vn -0.038900 0.958600 -0.282100
vn -0.021700 0.959200 -0.281800
vn -0.027800 0.965900 -0.257300
vn -0.021200 0.968800 -0.247000
vn -0.001800 0.974200 -0.225700
vn -0.006300 0.977000 -0.213000
vn 0.026900 0.979200 -0.201000
vn 0.025000 0.981500 -0.190000
vn 0.042600 0.984000 -0.172900
vn 0.045900 0.984100 -0.171600
vn 0.038900 0.986600 -0.158400
vn 0.037700 0.986000 -0.162400
vn 0.028000 0.988900 -0.146100
vn 0.021600 0.988300 -0.150900
vn 0.015400 0.995800 -0.090400
vn 0.011700 0.995200 -0.096900
vn 0.004500 0.999600 -0.026900
vn 0.004200 0.999500 -0.030500
vn 0.000700 1.000000 -0.000800
vn 0.001100 1.000000 -0.001300
vn 0.157600 0.986400 -0.046900
vn 0.147900 0.986700 -0.066700
vn 0.107900 0.986300 -0.124800
vn 0.041700 0.976800 -0.209900
vn -0.006400 0.962300 -0.271700
vn -0.010700 0.961400 -0.274800
vn 0.008000 0.968600 -0.248600
vn 0.026600 0.975300 -0.219100
vn 0.039200 0.983100 -0.178800
vn 0.044500 0.986900 -0.154800
vn 0.036900 0.990400 -0.133200
vn 0.018900 0.997100 -0.073900
vn 0.004500 0.999800 -0.019100
vn 0.000100 1.000000 -0.000100
vn 0.199100 0.978600 -0.051700
vn 0.199600 0.978100 -0.059000
vn 0.183500 0.980000 -0.076700
vn 0.141900 0.978300 -0.150500
vn 0.094300 0.966400 -0.238900
vn 0.060400 0.960700 -0.270900
vn 0.049600 0.964600 -0.258900
vn 0.046900 0.973700 -0.222800
vn 0.046400 0.981400 -0.185900
vn 0.047600 0.987000 -0.153500
vn 0.035200 0.992800 -0.114400
vn 0.015600 0.998400 -0.055100
vn 0.003400 0.999900 -0.011400
vn 0.000000 1.000000 0.000000
vn 0.227100 0.970900 -0.075800
vn 0.226900 0.971600 -0.067300
vn 0.216900 0.975000 -0.047900
vn 0.192000 0.975000 -0.111500
vn 0.162400 0.965500 -0.203300
vn 0.135100 0.959700 -0.246400
vn 0.109900 0.963000 -0.245800
vn 0.086000 0.974500 -0.207200
vn 0.067300 0.981100 -0.181500
vn 0.051400 0.988400 -0.142800
vn 0.030700 0.995300 -0.092000
vn 0.011700 0.999100 -0.039000
vn 0.002200 1.000000 -0.005900
vn 0.193200 0.979900 -0.048800
vn 0.188000 0.980700 -0.053700
vn 0.194000 0.979800 -0.048800
vn 0.205300 0.973700 -0.098400
vn 0.197400 0.963300 -0.182000
vn 0.175300 0.959700 -0.219600
vn 0.137200 0.968200 -0.209200
vn 0.098800 0.978500 -0.180900
vn 0.072200 0.984000 -0.162700
vn 0.048400 0.991400 -0.121800
vn 0.025900 0.997200 -0.069600
vn 0.008900 0.999600 -0.025400
vn 0.001300 1.000000 -0.002300
vn 0.170300 0.985400 -0.002900
vn 0.170000 0.984800 -0.034400
vn 0.178000 0.981600 -0.068900
vn 0.197800 0.973800 -0.112500
vn 0.206100 0.963000 -0.173300
vn 0.184200 0.965100 -0.185700
vn 0.143500 0.976000 -0.163900
vn 0.103900 0.983500 -0.148400
vn 0.069200 0.988500 -0.134700
vn 0.040000 0.994400 -0.097200
vn 0.018400 0.998500 -0.050300
vn 0.005300 0.999800 -0.014800
vn 0.000500 1.000000 -0.000500
vn 0.129000 0.991500 -0.014900
vn 0.135500 0.989700 -0.044900
vn 0.151500 0.984500 -0.087800
vn 0.169900 0.976200 -0.135000
vn 0.170400 0.971500 -0.164600
vn 0.146200 0.977700 -0.150500
vn 0.117400 0.984500 -0.130000
vn 0.091600 0.988900 -0.117000
vn 0.062700 0.992700 -0.102800
vn 0.034100 0.996900 -0.071500
vn 0.013400 0.999300 -0.033800
vn 0.002900 0.999900 -0.007600
vn 0.078500 0.995500 -0.052600
vn 0.091100 0.992900 -0.076400
vn 0.116000 0.987000 -0.110800
vn 0.122400 0.982500 -0.140400
vn 0.106500 0.983200 -0.147800
vn 0.090900 0.987400 -0.129300
vn 0.078500 0.990700 -0.111100
vn 0.062800 0.993500 -0.095200
vn 0.043200 0.996100 -0.076600
vn 0.023500 0.998500 -0.049400
vn 0.008900 0.999700 -0.020700
vn 0.001700 1.000000 -0.003000
vn 0.076200 0.994400 -0.073300
vn 0.082000 0.991400 -0.101500
vn 0.087600 0.988500 -0.123400
vn 0.080000 0.988500 -0.128300
vn 0.071200 0.988000 -0.136700
vn 0.067800 0.990200 -0.121900
vn 0.059800 0.993300 -0.098100
vn 0.045600 0.995900 -0.078300
vn 0.029600 0.997900 -0.058100
vn 0.015200 0.999300 -0.033800
vn 0.004900 0.999900 -0.011500
vn 0.000600 1.000000 -0.000700
vn 0.073700 0.992600 -0.096900
vn 0.081200 0.989100 -0.122700
vn 0.093700 0.987400 -0.127700
vn 0.094700 0.988600 -0.117300
vn 0.082900 0.988400 -0.127100
vn 0.066600 0.991500 -0.111700
vn 0.050500 0.995100 -0.084100
vn 0.035400 0.997400 -0.063000
vn 0.022000 0.998800 -0.044100
vn 0.010400 0.999700 -0.021900
vn 0.002600 1.000000 -0.005300
vn 0.071800 0.987900 -0.137200
vn 0.079100 0.985400 -0.150300
vn 0.090700 0.986500 -0.136100
vn 0.093100 0.989300 -0.111800
vn 0.082200 0.990500 -0.110100
vn 0.062800 0.993700 -0.093000
vn 0.044300 0.996700 -0.068200
vn 0.029700 0.998300 -0.049100
vn 0.016900 0.999300 -0.031700
vn 0.006600 0.999900 -0.012300
vn 0.001200 1.000000 -0.001600
vn 0.083200 0.983000 -0.163500
vn 0.078800 0.983500 -0.162600
vn 0.071800 0.987800 -0.137900
vn 0.068900 0.991500 -0.110200
vn 0.062200 0.993400 -0.096600
vn 0.047800 0.996000 -0.075700
vn 0.033600 0.997900 -0.054700
vn 0.022000 0.999000 -0.038100
vn 0.011300 0.999700 -0.021200
vn 0.003200 1.000000 -0.005700
vn 0.000200 1.000000 -0.000200
vn 0.019500 0.999200 -0.033900
vn 0.009000 0.999800 -0.016700
vn 0.002000 1.000000 -0.003300
vn 0.028700 0.998400 -0.049200
vn 0.038300 0.996900 -0.069000
vn 0.064600 0.991800 -0.110200
vn 0.053500 0.994300 -0.091800
vn 0.068400 0.988400 -0.135500
vn 0.082600 0.982300 -0.168000
vn 0.076500 0.984000 -0.160800
usemtl None
s 1
f 195//1 188//2 1//3 166//4
f 166//4 1//3 2//5 169//6
f 169//6 2//5 3//7 168//8
f 168//8 3//7 4//9 167//10
f 167//10 4//9 5//11 163//12
f 163//12 5//11 6//13 162//14
f 162//14 6//13 7//15 165//16
f 165//16 7//15 8//17 164//18
f 164//18 8//17 9//19 161//20
f 161//20 9//19 10//21 160//22
f 160//22 10//21 11//23 159//24
f 159//24 11//23 12//25 158//26
f 158//26 12//25 13//27 157//28
f 188//2 193//29 14//30 1//3
f 1//3 14//30 15//31 2//5
f 2//5 15//31 16//32 3//7
f 3//7 16//32 17//33 4//9
f 4//9 17//33 18//34 5//11
f 5//11 18//34 19//35 6//13
f 6//13 19//35 20//36 7//15
f 7//15 20//36 21//37 8//17
f 8//17 21//37 22//38 9//19
f 9//19 22//38 23//39 10//21
f 10//21 23//39 24//40 11//23
f 11//23 24//40 25//41 12//25
f 12//25 25//41 26//42 13//27
f 193//29 190//43 27//44 14//30
f 14//30 27//44 28//45 15//31
f 15//31 28//45 29//46 16//32
f 16//32 29//46 30//47 17//33
f 17//33 30//47 31//48 18//34
f 18//34 31//48 32//49 19//35
f 19//35 32//49 33//50 20//36
f 20//36 33//50 34//51 21//37
f 21//37 34//51 35//52 22//38
f 22//38 35//52 36//53 23//39
f 23//39 36//53 37//54 24//40
f 24//40 37//54 38//55 25//41
f 25//41 38//55 39//56 26//42
f 190//43 186//57 40//58 27//44
f 27//44 40//58 41//59 28//45
f 28//45 41//59 42//60 29//46
f 29//46 42//60 43//61 30//47
f 30//47 43//61 44//62 31//48
f 31//48 44//62 45//63 32//49
f 32//49 45//63 46//64 33//50
f 33//50 46//64 47//65 34//51
f 34//51 47//65 48//66 35//52
f 35//52 48//66 49//67 36//53
f 36//53 49//67 50//68 37//54
f 37//54 50//68 51//69 38//55
f 38//55 51//69 52//56 39//56
f 186//57 187//70 53//71 40//58
f 40//58 53//71 54//72 41//59
f 41//59 54//72 55//73 42//60
f 42//60 55//73 56//74 43//61
f 43//61 56//74 57//75 44//62
f 44//62 57//75 58//76 45//63
f 45//63 58//76 59//77 46//64
f 46//64 59//77 60//78 47//65
f 47//65 60//78 61//79 48//66
f 48//66 61//79 62//80 49//67
f 49//67 62//80 63//81 50//68
f 50//68 63//81 64//82 51//69
f 51//69 64//82 65//56 52//56
f 187//70 189//83 66//84 53//71
f 53//71 66//84 67//85 54//72
f 54//72 67//85 68//86 55//73
f 55//73 68//86 69//87 56//74
f 56//74 69//87 70//88 57//75
f 57//75 70//88 71//89 58//76
f 58//76 71//89 72//90 59//77
f 59//77 72//90 73//91 60//78
f 60//78 73//91 74//92 61//79
f 61//79 74//92 75//93 62//80
f 62//80 75//93 76//94 63//81
f 63//81 76//94 77//95 64//82
f 64//82 77//95 78//56 65//56
f 189//83 192//96 79//97 66//84
f 66//84 79//97 80//98 67//85
f 67//85 80//98 81//99 68//86
f 68//86 81//99 82//100 69//87
f 69//87 82//100 83//101 70//88
f 70//88 83//101 84//102 71//89
f 71//89 84//102 85//103 72//90
f 72//90 85//103 86//104 73//91
f 73//91 86//104 87//105 74//92
f 74//92 87//105 88//106 75//93
f 75//93 88//106 89//107 76//94
f 76//94 89//107 90//56 77//95
f 77//95 90//56 91//56 78//56
f 192//96 191//108 92//109 79//97
f 79//97 92//109 93//110 80//98
f 80//98 93//110 94//111 81//99
f 81//99 94//111 95//112 82//100
f 82//100 95//112 96//113 83//101
f 83//101 96//113 97//114 84//102
f 84//102 97//114 98//115 85//103
f 85//103 98//115 99//116 86//104
f 86//104 99//116 100//117 87//105
f 87//105 100//117 101//118 88//106
f 88//106 101//118 102//119 89//107
f 89//107 102//119 103//56 90//56
f 90//56 103//56 104//56 91//56
f 191//108 183//120 105//121 92//109
f 92//109 105//121 106//122 93//110
f 93//110 106//122 107//123 94//111
f 94//111 107//123 108//124 95//112
f 95//112 108//124 109//125 96//113
f 96//113 109//125 110//126 97//114
f 97//114 110//126 111//127 98//115
f 98//115 111//127 112//128 99//116
f 99//116 112//128 113//129 100//117
f 100//117 113//129 114//130 101//118
f 101//118 114//130 115//131 102//119
f 102//119 115//131 116//56 103//56
f 103//56 116//56 117//56 104//56
f 183//120 184//132 118//133 105//121
f 105//121 118//133 119//134 106//122
f 106//122 119//134 120//135 107//123
f 107//123 120//135 121//136 108//124
f 108//124 121//136 122//137 109//125
f 109//125 122//137 123//138 110//126
f 110//126 123//138 124//139 111//127
f 111//127 124//139 125//140 112//128
f 112//128 125//140 126//141 113//129
f 113//129 126//141 127//142 114//130
f 114//130 127//142 128//42 115//131
f 115//131 128//42 129//56 116//56
f 116//56 129//56 130//56 117//56
f 184//132 185//143 131//144 118//133
f 118//133 131//144 132//145 119//134
f 119//134 132//145 133//146 120//135
f 120//135 133//146 134//147 121//136
f 121//136 134//147 135//148 122//137
f 122//137 135//148 136//149 123//138
f 123//138 136//149 137//150 124//139
f 124//139 137//150 138//151 125//140
f 125//140 138//151 139//152 126//141
f 126//141 139//152 140//153 127//142
f 127//142 140//153 141//56 128//42
f 128//42 141//56 142//56 129//56
f 129//56 142//56 143//56 130//56
f 185//143 194//154 144//155 131//144
f 131//144 144//155 145//156 132//145
f 132//145 145//156 146//157 133//146
f 133//146 146//157 147//158 134//147
f 134//147 147//158 148//159 135//148
f 135//148 148//159 149//160 136//149
f 136//149 149//160 150//161 137//150
f 137//150 150//161 151//162 138//151
f 138//151 151//162 152//163 139//152
f 139//152 152//163 153//164 140//153
f 140//153 153//164 154//56 141//56
f 141//56 154//56 155//56 142//56
f 142//56 155//56 156//56 143//56
f 150//161 170//165 171//166 151//162
f 151//162 171//166 172//167 152//163
f 152//163 172//167 173//56 153//164
f 149//160 174//168 170//165 150//161
f 148//159 175//169 174//168 149//160
f 146//157 176//170 177//171 147//158
f 147//158 177//171 175//169 148//159
f 145//156 178//172 176//170 146//157
f 194//154 196//173 179//174 144//155
f 144//155 179//174 178//172 145//156
f 153//164 173//56 180//56 154//56
f 154//56 180//56 181//56 155//56
f 155//56 181//56 182//56 156//56
