# Blender v2.73 (sub 0) OBJ File: 'untitled.blend'
# www.blender.org
mtllib Landscape.043.mtl
o Landscape.043
v 1.292929 18.839615 -32.323231
v 1.292929 18.670509 -34.909092
v 1.292929 17.671717 -37.494949
v 1.292929 17.361130 -40.080807
v 1.292929 15.335015 -42.666668
v 1.292929 14.642688 -45.252525
v 1.292929 14.557480 -47.838383
v 1.292929 14.850889 -50.424244
v 1.292929 14.744953 -53.010101
v 1.292929 14.270183 -55.595959
v 1.292929 14.290491 -58.181820
v 1.292929 14.715486 -60.767677
v 1.292929 14.538017 -63.353535
v 3.878788 18.065012 -32.323231
v 3.878788 17.754082 -34.909092
v 3.878788 17.840494 -37.494949
v 3.878788 16.754076 -40.080807
v 3.878788 14.904970 -42.666668
v 3.878788 14.181973 -45.252525
v 3.878788 14.131880 -47.838383
v 3.878788 14.565291 -50.424244
v 3.878788 14.868060 -53.010101
v 3.878788 14.548822 -55.595959
v 3.878788 14.174892 -58.181820
v 3.878788 14.421550 -60.767677
v 3.878788 14.430406 -63.353535
v 6.464646 17.486530 -32.323231
v 6.464646 17.460707 -34.909092
v 6.464646 16.594967 -37.494949
v 6.464646 15.746844 -40.080807
v 6.464646 15.100839 -42.666668
v 6.464646 13.875388 -45.252525
v 6.464646 14.304594 -47.838383
v 6.464646 14.696115 -50.424244
v 6.464646 14.740391 -53.010101
v 6.464646 15.078815 -55.595959
v 6.464646 15.314137 -58.181820
v 6.464646 15.132895 -60.767677
v 6.464646 14.842715 -63.353535
v 9.050505 15.253517 -32.323231
v 9.050505 16.015032 -34.909092
v 9.050505 15.721660 -37.494949
v 9.050505 14.559216 -40.080807
v 9.050505 14.260087 -42.666668
v 9.050505 14.296429 -45.252525
v 9.050505 15.107443 -47.838383
v 9.050505 14.670594 -50.424244
v 9.050505 15.637272 -53.010101
v 9.050505 16.537754 -55.595959
v 9.050505 15.919507 -58.181820
v 9.050505 14.426418 -60.767677
v 9.050505 14.594657 -63.353535
v 11.636364 14.228381 -32.323231
v 11.636364 14.781869 -34.909092
v 11.636364 15.685235 -37.494949
v 11.636364 14.626218 -40.080807
v 11.636364 13.576303 -42.666668
v 11.636364 15.041458 -45.252525
v 11.636364 15.760101 -47.838383
v 11.636364 15.628588 -50.424244
v 11.636364 15.499169 -53.010101
v 11.636364 16.540270 -55.595959
v 11.636364 15.929008 -58.181820
v 11.636364 14.999205 -60.767677
v 11.636364 15.325618 -63.353535
v 14.222222 13.312613 -32.323231
v 14.222222 13.652228 -34.909092
v 14.222222 13.935454 -37.494949
v 14.222222 13.040477 -40.080807
v 14.222222 13.470659 -42.666668
v 14.222222 14.452601 -45.252525
v 14.222222 15.191666 -47.838383
v 14.222222 16.448540 -50.424244
v 14.222222 15.752837 -53.010101
v 14.222222 15.228002 -55.595959
v 14.222222 15.451286 -58.181820
v 14.222222 14.796154 -60.767677
v 14.222222 14.322417 -63.353535
v 16.808081 12.681762 -32.323231
v 16.808081 12.440439 -34.909092
v 16.808081 12.265415 -37.494949
v 16.808081 11.940362 -40.080807
v 16.808081 12.425956 -42.666668
v 16.808081 13.710324 -45.252525
v 16.808081 14.905568 -47.838383
v 16.808081 15.303625 -50.424244
v 16.808081 14.628488 -53.010101
v 16.808081 14.205920 -55.595959
v 16.808081 13.770501 -58.181820
v 16.808081 13.421862 -60.767677
v 16.808081 13.212460 -63.353535
v 19.393940 10.741741 -32.323231
v 19.393940 10.685765 -34.909092
v 19.393940 10.879863 -37.494949
v 19.393940 11.261645 -40.080807
v 19.393940 12.080769 -42.666668
v 19.393940 12.888566 -45.252525
v 19.393940 13.627652 -47.838383
v 19.393940 13.776282 -50.424244
v 19.393940 13.836553 -53.010101
v 19.393940 13.508993 -55.595959
v 19.393940 13.637854 -58.181820
v 19.393940 13.055542 -60.767677
v 19.393940 12.432225 -63.353535
v 21.979797 8.974348 -32.323231
v 21.979797 9.452776 -34.909092
v 21.979797 9.715299 -37.494949
v 21.979797 10.092259 -40.080807
v 21.979797 10.776035 -42.666668
v 21.979797 11.938019 -45.252525
v 21.979797 12.350593 -47.838383
v 21.979797 12.973315 -50.424244
v 21.979797 13.145715 -53.010101
v 21.979797 13.375525 -55.595959
v 21.979797 13.610518 -58.181820
v 21.979797 12.932893 -60.767677
v 21.979797 12.394948 -63.353535
v 24.565657 7.672966 -32.323231
v 24.565657 7.929838 -34.909092
v 24.565657 8.533304 -37.494949
v 24.565657 8.898680 -40.080807
v 24.565657 9.556241 -42.666668
v 24.565657 10.236941 -45.252525
v 24.565657 11.443859 -47.838383
v 24.565657 12.236114 -50.424244
v 24.565657 12.345346 -53.010101
v 24.565657 13.133036 -55.595959
v 24.565657 13.696655 -58.181820
v 24.565657 13.380351 -60.767677
v 24.565657 13.137640 -63.353535
v 27.151516 6.679468 -32.323231
v 27.151516 7.250956 -34.909092
v 27.151516 7.494709 -37.494949
v 27.151516 8.369280 -40.080807
v 27.151516 8.791783 -42.666668
v 27.151516 9.512371 -45.252525
v 27.151516 10.470235 -47.838383
v 27.151516 11.237940 -50.424244
v 27.151516 11.965695 -53.010101
v 27.151516 12.785106 -55.595959
v 27.151516 13.958759 -58.181820
v 27.151516 14.155491 -60.767677
v 27.151516 13.617396 -63.353535
v 29.737373 5.727293 -32.323231
v 29.737373 6.319274 -34.909092
v 29.737373 6.836085 -37.494949
v 29.737373 7.531146 -40.080807
v 29.737373 8.350285 -42.666668
v 29.737373 9.101245 -45.252525
v 29.737373 10.566293 -47.838383
v 29.737373 11.074389 -50.424244
v 29.737373 11.483840 -53.010101
v 29.737373 12.554335 -55.595959
v 29.737373 14.007855 -58.181820
v 29.737373 14.368904 -60.767677
v 29.737373 14.388732 -63.353535
v 0.000000 14.256901 -53.010101
v 0.000000 14.080696 -55.595959
v 0.000000 14.562477 -58.181820
v 0.000000 14.510075 -50.424244
v 0.000000 14.545065 -63.353535
v 0.000000 14.935398 -45.252525
v 0.000000 14.287719 -47.838383
v 0.000000 14.677513 -60.767677
v 0.000000 18.698814 -34.909092
v 0.000000 17.684076 -37.494949
v 0.000000 15.868275 -42.666668
v 0.000000 17.394386 -40.080807
v 0.000000 19.252520 -32.323231
v 32.000000 6.513772 -37.494949
v 32.000000 7.007284 -40.080807
v 32.000000 7.574685 -42.666668
v 32.000000 8.674119 -45.252525
v 32.000000 5.263202 -32.323231
v 32.000000 6.102527 -34.909092
v 32.000000 11.617210 -53.010101
v 32.000000 12.370651 -55.595959
v 32.000000 11.153481 -50.424244
v 32.000000 10.351143 -47.838383
v 32.000000 13.601230 -58.181820
v 32.000000 15.008889 -60.767677
v 32.000000 14.466615 -63.353535
v 6.464646 17.406958 -32.000000
v 3.878788 17.999453 -32.000000
v 19.393940 10.567513 -32.000000
v 16.808081 12.573230 -32.000000
v 21.979797 8.805691 -32.000000
v 29.737373 5.638062 -32.000000
v 9.050505 15.195694 -32.000000
v 24.565657 7.571455 -32.000000
v 27.151516 6.585401 -32.000000
v 11.636364 14.170312 -32.000000
v 1.292929 18.759739 -32.000000
v 14.222222 13.269745 -32.000000
v 0.000000 19.171583 -32.000000
v 32.000000 5.178572 -32.000000
v 27.151516 13.404891 -64.000000
v 24.565657 13.066509 -64.000000
v 11.636364 15.251794 -64.000000
v 9.050505 14.597734 -64.000000
v 29.737373 14.149794 -64.000000
v 32.000000 14.355389 -64.000000
v 21.979797 12.407516 -64.000000
v 19.393940 12.413307 -64.000000
v 16.808081 13.220576 -64.000000
v 1.292929 14.609689 -64.000000
v 0.000000 14.548566 -64.000000
v 3.878788 14.229528 -64.000000
v 6.464646 14.595187 -64.000000
v 14.222222 14.319072 -64.000000
vn 0.295700 0.927000 0.230600
vn 0.286500 0.932400 0.220300
vn 0.266500 0.962200 0.055300
vn 0.235500 0.970700 0.047400
vn 0.160400 0.968100 -0.192200
vn 0.091800 0.963500 -0.251600
vn 0.063800 0.971300 -0.229000
vn 0.016200 0.970300 -0.241200
vn 0.110700 0.915600 -0.386500
vn 0.100500 0.932700 -0.346300
vn 0.202900 0.881000 -0.427300
vn 0.231600 0.867100 -0.440900
vn 0.158600 0.970800 -0.180000
vn 0.158000 0.962700 -0.219500
vn 0.020900 0.999600 0.017900
vn -0.112800 0.993400 -0.020900
vn -0.093100 0.994300 0.052500
vn -0.267800 0.963400 0.015300
vn -0.151400 0.985600 -0.075600
vn -0.277800 0.956000 -0.094000
vn -0.083500 0.994600 -0.061500
vn -0.112500 0.993600 -0.012900
vn 0.042000 0.997000 0.065200
vn 0.061200 0.993100 0.100100
vn 0.058500 0.997700 0.034800
vn 0.039000 0.999000 0.021900
vn 0.034700 0.998800 -0.033400
vn -0.016400 0.999900 -0.000900
vn 0.246000 0.945700 0.212500
vn 0.246500 0.966700 0.069000
vn 0.225000 0.967300 -0.117100
vn 0.218900 0.949600 -0.224300
vn 0.199600 0.889100 -0.411900
vn 0.121200 0.904400 -0.409100
vn 0.095500 0.984900 -0.144100
vn 0.068300 0.994000 0.085900
vn 0.027300 0.994500 0.100700
vn -0.031000 0.999500 -0.010700
vn -0.125200 0.990200 -0.061000
vn -0.149700 0.988600 0.012200
vn -0.100900 0.994800 0.014100
vn -0.046700 0.990300 -0.130700
vn 0.456500 0.869100 0.190200
vn 0.405500 0.907500 0.109100
vn 0.362500 0.929200 -0.071600
vn 0.356900 0.898700 -0.254800
vn 0.305700 0.895700 -0.322900
vn 0.156700 0.941600 -0.297900
vn -0.026600 0.997300 -0.068900
vn -0.102900 0.988000 0.115100
vn -0.093100 0.990400 0.101700
vn -0.162600 0.979400 0.119700
vn -0.295800 0.954600 0.033600
vn -0.252900 0.962200 -0.100900
vn -0.090900 0.991100 -0.096700
vn -0.031300 0.988600 -0.147100
vn 0.502100 0.849100 0.164100
vn 0.498200 0.850100 0.170600
vn 0.415200 0.907700 0.060500
vn 0.254900 0.942800 -0.214800
vn 0.205200 0.934600 -0.290400
vn 0.138700 0.985800 -0.093900
vn -0.104300 0.984200 0.143000
vn -0.234700 0.967100 0.098400
vn -0.192000 0.979600 0.058600
vn -0.181100 0.955600 0.232500
vn -0.187900 0.979800 0.068000
vn -0.120900 0.957900 -0.260500
vn -0.037700 0.985700 -0.164200
vn -0.070200 0.996600 -0.042800
vn 0.345100 0.925700 0.154700
vn 0.361300 0.916100 0.173400
vn 0.374300 0.910100 0.177700
vn 0.311000 0.944600 -0.104700
vn 0.247000 0.927900 -0.279300
vn 0.143500 0.985400 0.091000
vn 0.014900 0.949200 0.314400
vn -0.100000 0.981100 0.165700
vn -0.178400 0.983600 0.026700
vn -0.035200 0.992600 0.116000
vn 0.136600 0.989900 0.038100
vn 0.090000 0.962000 -0.257600
vn 0.000400 0.985300 -0.170900
vn 0.018700 0.999800 -0.011400
vn 0.284500 0.940700 0.184700
vn 0.318600 0.938100 0.135300
vn 0.418500 0.902900 0.098300
vn 0.497300 0.864300 -0.075700
vn 0.424000 0.898900 -0.110400
vn 0.285200 0.932100 0.223400
vn 0.201900 0.912000 0.356900
vn 0.155700 0.946700 0.282100
vn 0.102300 0.994400 0.025600
vn 0.198700 0.972400 -0.121700
vn 0.348100 0.936200 -0.047900
vn 0.354100 0.924000 -0.144300
vn 0.328800 0.931900 -0.153000
vn 0.353600 0.934000 -0.050800
vn 0.430400 0.856400 0.285100
vn 0.435700 0.890700 0.129600
vn 0.484700 0.874700 -0.002300
vn 0.463600 0.884900 -0.045600
vn 0.354700 0.933300 0.055100
vn 0.270400 0.919000 0.287000
vn 0.267400 0.895300 0.356300
vn 0.320600 0.909500 0.264700
vn 0.388600 0.921300 0.011300
vn 0.364200 0.917300 -0.161000
vn 0.322700 0.941200 -0.100100
vn 0.310600 0.943800 -0.112800
vn 0.313000 0.936900 -0.155700
vn 0.333600 0.940100 -0.070000
vn 0.540000 0.755000 0.371900
vn 0.555300 0.809900 0.188800
vn 0.506000 0.862100 0.027400
vn 0.431600 0.900200 0.057400
vn 0.352300 0.921900 0.160900
vn 0.298100 0.905900 0.300600
vn 0.330900 0.892500 0.306300
vn 0.397900 0.896900 0.193000
vn 0.385200 0.921900 0.041800
vn 0.281500 0.957900 -0.056600
vn 0.155500 0.987200 -0.035800
vn 0.078700 0.991700 -0.101200
vn 0.092600 0.975900 -0.197400
vn 0.137400 0.985700 -0.097300
vn 0.457500 0.807000 0.373500
vn 0.485500 0.839500 0.244000
vn 0.464500 0.879300 0.105100
vn 0.424800 0.897000 0.121700
vn 0.413200 0.891400 0.186000
vn 0.422400 0.863100 0.276900
vn 0.415600 0.866800 0.275500
vn 0.370800 0.903100 0.216500
vn 0.308300 0.943600 0.120500
vn 0.229400 0.971000 0.067600
vn 0.103600 0.989700 0.098800
vn -0.003100 0.998700 -0.051300
vn -0.067100 0.977800 -0.198200
vn -0.111500 0.988300 -0.104200
vn 0.376200 0.873500 0.309200
vn 0.386900 0.893400 0.228200
vn 0.387900 0.910300 0.144100
vn 0.369000 0.914700 0.164600
vn 0.336900 0.921200 0.194600
vn 0.348200 0.904900 0.244800
vn 0.366700 0.880200 0.301300
vn 0.345000 0.892900 0.289400
vn 0.294100 0.938100 0.183000
vn 0.217600 0.960400 0.173900
vn 0.093700 0.966200 0.239900
vn -0.064500 0.995600 0.067400
vn -0.188500 0.973900 -0.126500
vn -0.217400 0.966300 -0.137600
vn 0.338300 0.903200 0.264100
vn 0.330000 0.917300 0.222900
vn 0.310100 0.936800 0.161900
vn 0.288500 0.936300 0.200000
vn 0.255600 0.938600 0.231700
vn 0.223300 0.945500 0.237100
vn 0.192200 0.923800 0.331000
vn 0.177100 0.926300 0.332500
vn 0.186300 0.956700 0.223500
vn 0.160700 0.954300 0.251800
vn 0.077800 0.932300 0.353200
vn -0.051600 0.974500 0.218000
vn -0.167000 0.985200 -0.039000
vn -0.212400 0.957200 -0.196300
vn 0.260700 0.930700 0.256600
vn 0.252100 0.935500 0.247400
vn 0.223300 0.954400 0.197900
vn 0.214500 0.955300 0.203500
vn 0.238300 0.939600 0.245400
vn 0.225700 0.936100 0.269600
vn 0.144800 0.910200 0.388000
vn 0.054200 0.932300 0.357400
vn 0.029100 0.975800 0.216700
vn 0.053200 0.963300 0.263100
vn 0.072700 0.914900 0.397200
vn 0.010200 0.941200 0.337700
vn -0.112000 0.991800 0.060900
vn -0.166800 0.966800 -0.193600
vn 0.147500 0.969100 0.197700
vn 0.222300 0.946300 0.234800
vn 0.256000 0.923400 0.285900
vn 0.186300 0.888800 0.418700
vn 0.169400 0.950800 0.259300
vn 0.130300 0.966600 0.220600
vn 0.193400 0.947500 0.254800
vn -0.017700 0.967800 0.251200
vn 0.062000 0.916400 0.395400
vn -0.008800 0.978500 0.206000
vn 0.076800 0.918200 0.388600
vn 0.037600 0.917400 0.396300
vn -0.106200 0.988300 0.109300
vn -0.108800 0.977500 -0.180600
vn -0.208100 0.942000 -0.263500
vn -0.208800 0.969600 -0.127300
vn 0.049200 0.997200 -0.057000
vn -0.107400 0.986800 -0.120800
vn -0.168700 0.941400 -0.292200
vn -0.060400 0.963500 -0.260900
vn -0.127900 0.991500 -0.024600
vn 0.152100 0.988300 -0.006500
vn 0.343700 0.939100 -0.002300
vn 0.036300 0.999100 -0.020300
vn -0.020900 0.998100 0.058000
vn -0.024000 0.976400 -0.214700
vn -0.048900 0.964900 -0.257900
vn 0.371700 0.928000 -0.026200
usemtl None
s 1
f 195//1 193//2 1//3 169//4
f 169//4 1//3 2//5 165//6
f 165//6 2//5 3//7 166//8
f 166//8 3//7 4//9 168//10
f 168//10 4//9 5//11 167//12
f 167//12 5//11 6//13 162//14
f 162//14 6//13 7//15 163//16
f 163//16 7//15 8//17 160//18
f 160//18 8//17 9//19 157//20
f 157//20 9//19 10//21 158//22
f 158//22 10//21 11//23 159//24
f 159//24 11//23 12//25 164//26
f 164//26 12//25 13//27 161//28
f 193//2 184//29 14//30 1//3
f 1//3 14//30 15//31 2//5
f 2//5 15//31 16//32 3//7
f 3//7 16//32 17//33 4//9
f 4//9 17//33 18//34 5//11
f 5//11 18//34 19//35 6//13
f 6//13 19//35 20//36 7//15
f 7//15 20//36 21//37 8//17
f 8//17 21//37 22//38 9//19
f 9//19 22//38 23//39 10//21
f 10//21 23//39 24//40 11//23
f 11//23 24//40 25//41 12//25
f 12//25 25//41 26//42 13//27
f 184//29 183//43 27//44 14//30
f 14//30 27//44 28//45 15//31
f 15//31 28//45 29//46 16//32
f 16//32 29//46 30//47 17//33
f 17//33 30//47 31//48 18//34
f 18//34 31//48 32//49 19//35
f 19//35 32//49 33//50 20//36
f 20//36 33//50 34//51 21//37
f 21//37 34//51 35//52 22//38
f 22//38 35//52 36//53 23//39
f 23//39 36//53 37//54 24//40
f 24//40 37//54 38//55 25//41
f 25//41 38//55 39//56 26//42
f 183//43 189//57 40//58 27//44
f 27//44 40//58 41//59 28//45
f 28//45 41//59 42//60 29//46
f 29//46 42//60 43//61 30//47
f 30//47 43//61 44//62 31//48
f 31//48 44//62 45//63 32//49
f 32//49 45//63 46//64 33//50
f 33//50 46//64 47//65 34//51
f 34//51 47//65 48//66 35//52
f 35//52 48//66 49//67 36//53
f 36//53 49//67 50//68 37//54
f 37//54 50//68 51//69 38//55
f 38//55 51//69 52//70 39//56
f 189//57 192//71 53//72 40//58
f 40//58 53//72 54//73 41//59
f 41//59 54//73 55//74 42//60
f 42//60 55//74 56//75 43//61
f 43//61 56//75 57//76 44//62
f 44//62 57//76 58//77 45//63
f 45//63 58//77 59//78 46//64
f 46//64 59//78 60//79 47//65
f 47//65 60//79 61//80 48//66
f 48//66 61//80 62//81 49//67
f 49//67 62//81 63//82 50//68
f 50//68 63//82 64//83 51//69
f 51//69 64//83 65//84 52//70
f 192//71 194//85 66//86 53//72
f 53//72 66//86 67//87 54//73
f 54//73 67//87 68//88 55//74
f 55//74 68//88 69//89 56//75
f 56//75 69//89 70//90 57//76
f 57//76 70//90 71//91 58//77
f 58//77 71//91 72//92 59//78
f 59//78 72//92 73//93 60//79
f 60//79 73//93 74//94 61//80
f 61//80 74//94 75//95 62//81
f 62//81 75//95 76//96 63//82
f 63//82 76//96 77//97 64//83
f 64//83 77//97 78//98 65//84
f 194//85 186//99 79//100 66//86
f 66//86 79//100 80//101 67//87
f 67//87 80//101 81//102 68//88
f 68//88 81//102 82//103 69//89
f 69//89 82//103 83//104 70//90
f 70//90 83//104 84//105 71//91
f 71//91 84//105 85//106 72//92
f 72//92 85//106 86//107 73//93
f 73//93 86//107 87//108 74//94
f 74//94 87//108 88//109 75//95
f 75//95 88//109 89//110 76//96
f 76//96 89//110 90//111 77//97
f 77//97 90//111 91//112 78//98
f 186//99 185//113 92//114 79//100
f 79//100 92//114 93//115 80//101
f 80//101 93//115 94//116 81//102
f 81//102 94//116 95//117 82//103
f 82//103 95//117 96//118 83//104
f 83//104 96//118 97//119 84//105
f 84//105 97//119 98//120 85//106
f 85//106 98//120 99//121 86//107
f 86//107 99//121 100//122 87//108
f 87//108 100//122 101//123 88//109
f 88//109 101//123 102//124 89//110
f 89//110 102//124 103//125 90//111
f 90//111 103//125 104//126 91//112
f 185//113 187//127 105//128 92//114
f 92//114 105//128 106//129 93//115
f 93//115 106//129 107//130 94//116
f 94//116 107//130 108//131 95//117
f 95//117 108//131 109//132 96//118
f 96//118 109//132 110//133 97//119
f 97//119 110//133 111//134 98//120
f 98//120 111//134 112//135 99//121
f 99//121 112//135 113//136 100//122
f 100//122 113//136 114//137 101//123
f 101//123 114//137 115//138 102//124
f 102//124 115//138 116//139 103//125
f 103//125 116//139 117//140 104//126
f 187//127 190//141 118//142 105//128
f 105//128 118//142 119//143 106//129
f 106//129 119//143 120//144 107//130
f 107//130 120//144 121//145 108//131
f 108//131 121//145 122//146 109//132
f 109//132 122//146 123//147 110//133
f 110//133 123//147 124//148 111//134
f 111//134 124//148 125//149 112//135
f 112//135 125//149 126//150 113//136
f 113//136 126//150 127//151 114//137
f 114//137 127//151 128//152 115//138
f 115//138 128//152 129//153 116//139
f 116//139 129//153 130//154 117//140
f 190//141 191//155 131//156 118//142
f 118//142 131//156 132//157 119//143
f 119//143 132//157 133//158 120//144
f 120//144 133//158 134//159 121//145
f 121//145 134//159 135//160 122//146
f 122//146 135//160 136//161 123//147
f 123//147 136//161 137//162 124//148
f 124//148 137//162 138//163 125//149
f 125//149 138//163 139//164 126//150
f 126//150 139//164 140//165 127//151
f 127//151 140//165 141//166 128//152
f 128//152 141//166 142//167 129//153
f 129//153 142//167 143//168 130//154
f 191//155 188//169 144//170 131//156
f 131//156 144//170 145//171 132//157
f 132//157 145//171 146//172 133//158
f 133//158 146//172 147//173 134//159
f 134//159 147//173 148//174 135//160
f 135//160 148//174 149//175 136//161
f 136//161 149//175 150//176 137//162
f 137//162 150//176 151//177 138//163
f 138//163 151//177 152//178 139//164
f 139//164 152//178 153//179 140//165
f 140//165 153//179 154//180 141//166
f 141//166 154//180 155//181 142//167
f 142//167 155//181 156//182 143//168
f 146//172 170//183 171//184 147//173
f 147//173 171//184 172//185 148//174
f 148//174 172//185 173//186 149//175
f 144//170 174//187 175//188 145//171
f 145//171 175//188 170//183 146//172
f 188//169 196//189 174//187 144//170
f 152//178 176//190 177//191 153//179
f 151//177 178//192 176//190 152//178
f 149//175 173//186 179//193 150//176
f 150//176 179//193 178//192 151//177
f 153//179 177//191 180//194 154//180
f 154//180 180//194 181//195 155//181
f 155//181 181//195 182//196 156//182
f 130//154 143//168 197//197 198//198
f 52//70 65//84 199//199 200//200
f 143//168 156//182 201//201 197//197
f 156//182 182//196 202//202 201//201
f 104//126 117//140 203//203 204//204
f 117//140 130//154 198//198 203//203
f 91//112 104//126 204//204 205//205
f 161//28 13//27 206//206 207//207
f 13//27 26//42 208//208 206//206
f 26//42 39//56 209//209 208//208
f 39//56 52//70 200//200 209//209
f 65//84 78//98 210//210 199//199
f 78//98 91//112 205//205 210//210
