# Blender v2.73 (sub 0) OBJ File: 'untitled.blend'
# www.blender.org
mtllib Landscape.070.mtl
o Landscape.070
v 96.969696 4.197054 -32.323231
v 96.969696 4.305150 -34.909092
v 96.969696 4.048128 -37.494949
v 96.969696 3.827652 -40.080807
v 96.969696 3.686319 -42.666668
v 96.969696 3.715787 -45.252525
v 96.969696 3.681236 -47.838383
v 96.969696 3.697193 -50.424244
v 96.969696 3.735254 -53.010101
v 96.969696 4.083596 -55.595959
v 96.969696 4.138734 -58.181820
v 96.969696 4.327813 -60.767677
v 96.969696 4.495395 -63.353535
v 99.555557 3.803717 -32.323231
v 99.555557 3.779473 -34.909092
v 99.555557 3.512778 -37.494949
v 99.555557 3.232384 -40.080807
v 99.555557 3.174854 -42.666668
v 99.555557 3.161603 -45.252525
v 99.555557 3.458334 -47.838383
v 99.555557 3.475692 -50.424244
v 99.555557 3.457910 -53.010101
v 99.555557 3.670627 -55.595959
v 99.555557 3.790464 -58.181820
v 99.555557 3.922925 -60.767677
v 99.555557 3.904123 -63.353535
v 102.141411 3.254468 -32.323231
v 102.141411 3.198759 -34.909092
v 102.141411 2.937475 -37.494949
v 102.141411 2.825178 -40.080807
v 102.141411 2.850871 -42.666668
v 102.141411 2.976279 -45.252525
v 102.141411 3.117442 -47.838383
v 102.141411 3.200461 -50.424244
v 102.141411 3.158797 -53.010101
v 102.141411 3.054199 -55.595959
v 102.141411 3.202328 -58.181820
v 102.141411 3.399937 -60.767677
v 102.141411 3.388173 -63.353535
v 104.727272 2.888972 -32.323231
v 104.727272 2.770866 -34.909092
v 104.727272 2.720836 -37.494949
v 104.727272 2.707977 -40.080807
v 104.727272 2.679090 -42.666668
v 104.727272 2.760738 -45.252525
v 104.727272 2.803761 -47.838383
v 104.727272 2.773596 -50.424244
v 104.727272 2.759030 -53.010101
v 104.727272 2.643831 -55.595959
v 104.727272 2.712979 -58.181820
v 104.727272 2.849092 -60.767677
v 104.727272 2.821175 -63.353535
v 107.313133 2.391061 -32.323231
v 107.313133 2.439296 -34.909092
v 107.313133 2.429405 -37.494949
v 107.313133 2.346707 -40.080807
v 107.313133 2.364638 -42.666668
v 107.313133 2.314502 -45.252525
v 107.313133 2.472257 -47.838383
v 107.313133 2.463203 -50.424244
v 107.313133 2.485043 -53.010101
v 107.313133 2.320783 -55.595959
v 107.313133 2.361983 -58.181820
v 107.313133 2.465632 -60.767677
v 107.313133 2.404454 -63.353535
v 109.898987 1.950872 -32.323231
v 109.898987 2.089126 -34.909092
v 109.898987 2.051410 -37.494949
v 109.898987 2.029000 -40.080807
v 109.898987 1.949296 -42.666668
v 109.898987 1.964346 -45.252525
v 109.898987 2.023442 -47.838383
v 109.898987 2.098129 -50.424244
v 109.898987 2.095059 -53.010101
v 109.898987 2.024940 -55.595959
v 109.898987 1.937550 -58.181820
v 109.898987 1.909988 -60.767677
v 109.898987 1.846294 -63.353535
v 112.484848 1.635373 -32.323231
v 112.484848 1.777819 -34.909092
v 112.484848 1.701988 -37.494949
v 112.484848 1.645058 -40.080807
v 112.484848 1.664837 -42.666668
v 112.484848 1.704684 -45.252525
v 112.484848 1.726490 -47.838383
v 112.484848 1.756976 -50.424244
v 112.484848 1.743302 -53.010101
v 112.484848 1.710842 -55.595959
v 112.484848 1.528125 -58.181820
v 112.484848 1.425034 -60.767677
v 112.484848 1.305166 -63.353535
v 115.070709 1.331995 -32.323231
v 115.070709 1.379795 -34.909092
v 115.070709 1.323976 -37.494949
v 115.070709 1.248896 -40.080807
v 115.070709 1.302860 -42.666668
v 115.070709 1.334385 -45.252525
v 115.070709 1.409198 -47.838383
v 115.070709 1.370452 -50.424244
v 115.070709 1.326120 -53.010101
v 115.070709 1.268941 -55.595959
v 115.070709 1.122446 -58.181820
v 115.070709 0.984200 -60.767677
v 115.070709 0.869835 -63.353535
v 117.656563 0.976797 -32.323231
v 117.656563 1.002641 -34.909092
v 117.656563 0.975711 -37.494949
v 117.656563 0.929305 -40.080807
v 117.656563 0.944749 -42.666668
v 117.656563 0.929238 -45.252525
v 117.656563 0.917430 -47.838383
v 117.656563 0.937259 -50.424244
v 117.656563 0.899433 -53.010101
v 117.656563 0.872558 -55.595959
v 117.656563 0.746563 -58.181820
v 117.656563 0.636321 -60.767677
v 117.656563 0.495198 -63.353535
v 120.242424 0.574656 -32.323231
v 120.242424 0.588144 -34.909092
v 120.242424 0.570363 -37.494949
v 120.242424 0.570744 -40.080807
v 120.242424 0.570125 -42.666668
v 120.242424 0.595192 -45.252525
v 120.242424 0.568750 -47.838383
v 120.242424 0.523358 -50.424244
v 120.242424 0.519818 -53.010101
v 120.242424 0.470001 -55.595959
v 120.242424 0.419219 -58.181820
v 120.242424 0.324111 -60.767677
v 120.242424 0.258526 -63.353535
v 122.828285 0.269827 -32.323231
v 122.828285 0.273063 -34.909092
v 122.828285 0.261729 -37.494949
v 122.828285 0.259051 -40.080807
v 122.828285 0.260538 -42.666668
v 122.828285 0.259052 -45.252525
v 122.828285 0.229236 -47.838383
v 122.828285 0.200600 -50.424244
v 122.828285 0.185779 -53.010101
v 122.828285 0.170172 -55.595959
v 122.828285 0.143330 -58.181820
v 122.828285 0.111679 -60.767677
v 122.828285 0.086001 -63.353535
v 125.414139 0.066041 -32.323231
v 125.414139 0.061102 -34.909092
v 125.414139 0.062121 -37.494949
v 125.414139 0.058657 -40.080807
v 125.414139 0.056786 -42.666668
v 125.414139 0.049266 -45.252525
v 125.414139 0.041344 -47.838383
v 125.414139 0.032248 -50.424244
v 125.414139 0.026378 -53.010101
v 125.414139 0.020657 -55.595959
v 125.414139 0.013516 -58.181820
v 125.414139 0.008294 -60.767677
v 125.414139 0.003443 -63.353535
v 128.000000 0.000000 -32.323231
v 128.000000 0.000000 -34.909092
v 128.000000 0.000000 -37.494949
v 128.000000 0.000000 -40.080807
v 128.000000 0.000000 -42.666668
v 128.000000 0.000000 -45.252525
v 128.000000 0.000000 -47.838383
v 128.000000 0.000000 -50.424244
v 128.000000 0.000000 -53.010101
v 128.000000 0.000000 -55.595959
v 128.000000 0.000000 -58.181820
v 128.000000 0.000000 -60.767677
v 128.000000 0.000000 -63.353535
v 96.000000 4.357427 -32.323231
v 96.000000 4.090184 -37.494949
v 96.000000 4.392295 -34.909092
v 96.000000 4.612167 -63.353535
v 96.000000 4.433475 -60.767677
v 96.000000 3.844041 -53.010101
v 96.000000 3.889766 -50.424244
v 96.000000 3.932306 -47.838383
v 96.000000 3.913366 -45.252525
v 96.000000 3.907313 -40.080807
v 96.000000 3.812034 -42.666668
v 96.000000 4.135540 -55.595959
v 96.000000 4.235159 -58.181820
v 120.242424 0.573416 -32.000000
v 125.414139 0.066500 -32.000000
v 109.898987 1.974295 -32.000000
v 122.828285 0.270052 -32.000000
v 96.969696 4.191304 -32.000000
v 104.727272 2.912225 -32.000000
v 128.000000 0.000000 -32.000000
v 99.555557 3.818261 -32.000000
v 115.070709 1.334835 -32.000000
v 117.656563 0.975861 -32.000000
v 102.141411 3.281116 -32.000000
v 107.313133 2.409940 -32.000000
v 112.484848 1.645996 -32.000000
v 96.000000 4.344387 -32.000000
v 115.070709 0.845869 -64.000000
v 112.484848 1.279468 -64.000000
v 117.656563 0.478249 -64.000000
v 102.141411 3.364434 -64.000000
v 99.555557 3.874667 -64.000000
v 96.969696 4.458918 -64.000000
v 96.000000 4.613497 -64.000000
v 104.727272 2.807307 -64.000000
v 128.000000 0.000000 -64.000000
v 125.414139 0.002731 -64.000000
v 109.898987 1.810047 -64.000000
v 107.313133 2.374167 -64.000000
v 122.828285 0.080029 -64.000000
v 120.242424 0.247157 -64.000000
vn 0.159500 0.986800 0.028700
vn 0.153100 0.988200 0.007600
vn 0.152000 0.988300 0.014600
vn 0.143000 0.989300 0.028000
vn 0.142000 0.989000 -0.040700
vn 0.096700 0.994500 -0.039800
vn 0.135600 0.986200 -0.094700
vn 0.064300 0.993600 -0.092500
vn 0.147800 0.986900 -0.064000
vn 0.083800 0.994600 -0.061600
vn 0.170500 0.985300 -0.013800
vn 0.134900 0.990800 -0.010300
vn 0.185100 0.982500 0.018800
vn 0.195100 0.980700 0.011000
vn 0.170900 0.985200 0.012100
vn 0.224200 0.974500 -0.004000
vn 0.139700 0.990200 0.000900
vn 0.188500 0.982100 -0.003200
vn 0.116100 0.991500 0.058000
vn 0.117900 0.991200 0.060800
vn 0.108900 0.991300 0.073200
vn 0.079200 0.994000 0.076100
vn 0.117300 0.991800 0.049700
vn 0.089900 0.994600 0.052200
vn 0.137600 0.988800 0.057600
vn 0.108600 0.991600 0.070300
vn 0.165700 0.986100 0.004600
vn 0.126300 0.991800 0.019600
vn 0.175900 0.983700 -0.037800
vn 0.185200 0.982500 -0.018800
vn 0.201600 0.978200 -0.049300
vn 0.204100 0.974600 -0.091700
vn 0.187100 0.980900 -0.053000
vn 0.162400 0.986700 -0.004700
vn 0.137300 0.989700 0.039700
vn 0.113400 0.992700 0.039900
vn 0.102600 0.994700 0.004500
vn 0.128300 0.991300 0.029900
vn 0.169700 0.984000 0.053100
vn 0.181500 0.982000 0.051900
vn 0.184900 0.982100 0.036500
vn 0.200600 0.979500 -0.016900
vn 0.173100 0.982500 -0.069200
vn 0.177600 0.983000 -0.046700
vn 0.176800 0.982800 -0.052000
vn 0.147900 0.986900 -0.064400
vn 0.111700 0.993400 -0.026300
vn 0.092100 0.995600 0.013700
vn 0.093800 0.994500 0.045200
vn 0.115700 0.992600 0.037200
vn 0.132100 0.991200 0.001800
vn 0.149400 0.988700 -0.010800
vn 0.181700 0.983200 0.017500
vn 0.201200 0.978000 0.054300
vn 0.203800 0.978600 0.028000
vn 0.203700 0.978800 -0.020500
vn 0.164700 0.983800 -0.070100
vn 0.160000 0.986000 -0.046700
vn 0.138300 0.989900 -0.029400
vn 0.108200 0.993700 -0.028400
vn 0.093800 0.995500 -0.011300
vn 0.101500 0.994800 0.010800
vn 0.117600 0.992600 0.029900
vn 0.128800 0.991500 0.019100
vn 0.133800 0.991000 -0.001700
vn 0.134900 0.990500 -0.026200
vn 0.142500 0.989700 -0.008300
vn 0.159400 0.986300 0.042800
vn 0.175600 0.984200 0.021200
vn 0.184700 0.982500 -0.021600
vn 0.178100 0.981900 -0.064100
vn 0.166400 0.985700 -0.026500
vn 0.142100 0.989800 0.000400
vn 0.129400 0.991500 -0.014700
vn 0.132100 0.991100 -0.013100
vn 0.140400 0.990100 -0.003600
vn 0.148300 0.988700 0.019700
vn 0.145000 0.989200 0.021200
vn 0.133900 0.991000 0.002500
vn 0.125600 0.991800 -0.023400
vn 0.128300 0.991500 -0.021500
vn 0.148500 0.988700 0.018100
vn 0.172500 0.985000 0.004900
vn 0.184300 0.982400 -0.031100
vn 0.145200 0.987700 -0.058300
vn 0.140400 0.990100 -0.006700
vn 0.134400 0.990800 0.014600
vn 0.134900 0.990700 -0.016500
vn 0.135500 0.990700 -0.014600
vn 0.129900 0.991500 -0.004900
vn 0.127700 0.991700 0.015200
vn 0.134400 0.990700 0.022400
vn 0.138800 0.990300 0.008300
vn 0.134100 0.990800 -0.016100
vn 0.133800 0.990500 -0.031200
vn 0.158300 0.987200 -0.017800
vn 0.190400 0.981500 -0.017200
vn 0.204900 0.978000 -0.038900
vn 0.120700 0.992000 -0.036500
vn 0.124100 0.992200 0.004300
vn 0.132400 0.991100 0.010800
vn 0.140800 0.989800 -0.021800
vn 0.140400 0.990000 -0.009400
vn 0.129500 0.991500 0.006700
vn 0.120900 0.992600 0.014600
vn 0.124000 0.992200 0.013200
vn 0.135900 0.990700 0.001100
vn 0.144500 0.989400 -0.012800
vn 0.147800 0.988300 -0.037800
vn 0.157900 0.986400 -0.046300
vn 0.173300 0.984100 -0.037600
vn 0.182400 0.982300 -0.041000
vn 0.127400 0.991800 -0.011800
vn 0.132300 0.991100 0.006700
vn 0.140500 0.990100 0.002400
vn 0.140800 0.989800 -0.022400
vn 0.137700 0.990400 -0.005200
vn 0.140300 0.990000 0.011000
vn 0.147200 0.989000 0.011800
vn 0.153400 0.988100 0.006300
vn 0.157100 0.987500 -0.008000
vn 0.159600 0.987100 -0.015000
vn 0.157500 0.986800 -0.037000
vn 0.152200 0.987000 -0.052000
vn 0.151200 0.987400 -0.046800
vn 0.153100 0.987300 -0.040700
vn 0.145300 0.989400 0.000200
vn 0.146700 0.989200 0.005500
vn 0.147900 0.989000 -0.000700
vn 0.142400 0.989700 -0.014100
vn 0.136100 0.990700 -0.004000
vn 0.138000 0.990400 0.005200
vn 0.145900 0.989300 0.002400
vn 0.155900 0.987800 -0.000900
vn 0.159400 0.987200 -0.008000
vn 0.155600 0.987700 -0.013600
vn 0.148500 0.988500 -0.029100
vn 0.137100 0.989600 -0.043200
vn 0.126200 0.991000 -0.043900
vn 0.118900 0.992200 -0.035400
vn 0.135300 0.990800 0.002400
vn 0.136400 0.990600 0.003900
vn 0.137900 0.990400 -0.000800
vn 0.135400 0.990800 -0.005800
vn 0.131200 0.991300 -0.001600
vn 0.129800 0.991500 0.002300
vn 0.130000 0.991500 -0.002900
vn 0.133300 0.991000 -0.009300
vn 0.137600 0.990400 -0.007600
vn 0.137200 0.990500 -0.009600
vn 0.130400 0.991300 -0.019000
vn 0.116700 0.992700 -0.028100
vn 0.099100 0.994600 -0.030300
vn 0.083800 0.996200 -0.023100
vn 0.097700 0.995200 0.000300
vn 0.098600 0.995100 0.000800
vn 0.099600 0.995000 -0.001200
vn 0.098800 0.995100 -0.002300
vn 0.098400 0.995100 -0.000400
vn 0.100200 0.995000 0.000700
vn 0.102500 0.994700 -0.003800
vn 0.100500 0.994900 -0.009900
vn 0.096300 0.995300 -0.007200
vn 0.092700 0.995700 -0.006000
vn 0.086500 0.996200 -0.009500
vn 0.075900 0.997000 -0.013200
vn 0.062300 0.998000 -0.013700
vn 0.051600 0.998600 -0.010500
vn 0.052100 0.998600 -0.000900
vn 0.052200 0.998600 -0.000700
vn 0.052000 0.998600 -0.000800
vn 0.050900 0.998700 -0.000900
vn 0.050200 0.998700 -0.000500
vn 0.050100 0.998700 -0.000900
vn 0.048600 0.998800 -0.003000
vn 0.044300 0.999000 -0.004500
vn 0.039400 0.999200 -0.003500
vn 0.035800 0.999300 -0.002600
vn 0.032300 0.999500 -0.003300
vn 0.027400 0.999600 -0.004000
vn 0.021900 0.999700 -0.003700
vn 0.017500 0.999800 -0.003100
vn 0.025600 0.999700 -0.000700
vn 0.025100 0.999700 -0.000800
vn 0.024200 0.999700 -0.000400
vn 0.023600 0.999700 -0.000200
vn 0.022800 0.999700 -0.000500
vn 0.021400 0.999800 -0.000900
vn 0.019000 0.999800 -0.001500
vn 0.015900 0.999900 -0.001600
vn 0.012800 0.999900 -0.001400
vn 0.010200 0.999900 -0.001100
vn 0.007900 1.000000 -0.001200
vn 0.005400 1.000000 -0.001200
vn 0.003200 1.000000 -0.001000
vn 0.001700 1.000000 -0.000700
vn 0.153800 0.987500 -0.034600
vn 0.184100 0.982000 -0.042300
vn 0.116000 0.992900 -0.026600
vn 0.203400 0.978500 -0.034300
vn 0.207900 0.977100 -0.045000
vn 0.180400 0.982800 -0.038400
vn 0.138500 0.990000 -0.026900
vn 0.187200 0.981800 -0.031100
vn 0.001200 1.000000 -0.000600
vn 0.016000 0.999900 -0.002900
vn 0.207200 0.977100 -0.048500
vn 0.187100 0.981400 -0.042000
vn 0.048200 0.998800 -0.009300
vn 0.077800 0.996800 -0.017600
usemtl None
s 1
f 196//1 187//2 1//3 170//4
f 170//4 1//3 2//5 172//6
f 172//6 2//5 3//7 171//8
f 171//8 3//7 4//9 179//10
f 179//10 4//9 5//11 180//12
f 180//12 5//11 6//13 178//14
f 178//14 6//13 7//15 177//16
f 177//16 7//15 8//17 176//18
f 176//18 8//17 9//19 175//20
f 175//20 9//19 10//21 181//22
f 181//22 10//21 11//23 182//24
f 182//24 11//23 12//25 174//26
f 174//26 12//25 13//27 173//28
f 187//2 190//29 14//30 1//3
f 1//3 14//30 15//31 2//5
f 2//5 15//31 16//32 3//7
f 3//7 16//32 17//33 4//9
f 4//9 17//33 18//34 5//11
f 5//11 18//34 19//35 6//13
f 6//13 19//35 20//36 7//15
f 7//15 20//36 21//37 8//17
f 8//17 21//37 22//38 9//19
f 9//19 22//38 23//39 10//21
f 10//21 23//39 24//40 11//23
f 11//23 24//40 25//41 12//25
f 12//25 25//41 26//42 13//27
f 190//29 193//43 27//44 14//30
f 14//30 27//44 28//45 15//31
f 15//31 28//45 29//46 16//32
f 16//32 29//46 30//47 17//33
f 17//33 30//47 31//48 18//34
f 18//34 31//48 32//49 19//35
f 19//35 32//49 33//50 20//36
f 20//36 33//50 34//51 21//37
f 21//37 34//51 35//52 22//38
f 22//38 35//52 36//53 23//39
f 23//39 36//53 37//54 24//40
f 24//40 37//54 38//55 25//41
f 25//41 38//55 39//56 26//42
f 193//43 188//57 40//58 27//44
f 27//44 40//58 41//59 28//45
f 28//45 41//59 42//60 29//46
f 29//46 42//60 43//61 30//47
f 30//47 43//61 44//62 31//48
f 31//48 44//62 45//63 32//49
f 32//49 45//63 46//64 33//50
f 33//50 46//64 47//65 34//51
f 34//51 47//65 48//66 35//52
f 35//52 48//66 49//67 36//53
f 36//53 49//67 50//68 37//54
f 37//54 50//68 51//69 38//55
f 38//55 51//69 52//70 39//56
f 188//57 194//71 53//72 40//58
f 40//58 53//72 54//73 41//59
f 41//59 54//73 55//74 42//60
f 42//60 55//74 56//75 43//61
f 43//61 56//75 57//76 44//62
f 44//62 57//76 58//77 45//63
f 45//63 58//77 59//78 46//64
f 46//64 59//78 60//79 47//65
f 47//65 60//79 61//80 48//66
f 48//66 61//80 62//81 49//67
f 49//67 62//81 63//82 50//68
f 50//68 63//82 64//83 51//69
f 51//69 64//83 65//84 52//70
f 194//71 185//85 66//86 53//72
f 53//72 66//86 67//87 54//73
f 54//73 67//87 68//88 55//74
f 55//74 68//88 69//89 56//75
f 56//75 69//89 70//90 57//76
f 57//76 70//90 71//91 58//77
f 58//77 71//91 72//92 59//78
f 59//78 72//92 73//93 60//79
f 60//79 73//93 74//94 61//80
f 61//80 74//94 75//95 62//81
f 62//81 75//95 76//96 63//82
f 63//82 76//96 77//97 64//83
f 64//83 77//97 78//98 65//84
f 185//85 195//99 79//100 66//86
f 66//86 79//100 80//101 67//87
f 67//87 80//101 81//102 68//88
f 68//88 81//102 82//103 69//89
f 69//89 82//103 83//104 70//90
f 70//90 83//104 84//105 71//91
f 71//91 84//105 85//106 72//92
f 72//92 85//106 86//107 73//93
f 73//93 86//107 87//108 74//94
f 74//94 87//108 88//109 75//95
f 75//95 88//109 89//110 76//96
f 76//96 89//110 90//111 77//97
f 77//97 90//111 91//112 78//98
f 195//99 191//113 92//114 79//100
f 79//100 92//114 93//115 80//101
f 80//101 93//115 94//116 81//102
f 81//102 94//116 95//117 82//103
f 82//103 95//117 96//118 83//104
f 83//104 96//118 97//119 84//105
f 84//105 97//119 98//120 85//106
f 85//106 98//120 99//121 86//107
f 86//107 99//121 100//122 87//108
f 87//108 100//122 101//123 88//109
f 88//109 101//123 102//124 89//110
f 89//110 102//124 103//125 90//111
f 90//111 103//125 104//126 91//112
f 191//113 192//127 105//128 92//114
f 92//114 105//128 106//129 93//115
f 93//115 106//129 107//130 94//116
f 94//116 107//130 108//131 95//117
f 95//117 108//131 109//132 96//118
f 96//118 109//132 110//133 97//119
f 97//119 110//133 111//134 98//120
f 98//120 111//134 112//135 99//121
f 99//121 112//135 113//136 100//122
f 100//122 113//136 114//137 101//123
f 101//123 114//137 115//138 102//124
f 102//124 115//138 116//139 103//125
f 103//125 116//139 117//140 104//126
f 192//127 183//141 118//142 105//128
f 105//128 118//142 119//143 106//129
f 106//129 119//143 120//144 107//130
f 107//130 120//144 121//145 108//131
f 108//131 121//145 122//146 109//132
f 109//132 122//146 123//147 110//133
f 110//133 123//147 124//148 111//134
f 111//134 124//148 125//149 112//135
f 112//135 125//149 126//150 113//136
f 113//136 126//150 127//151 114//137
f 114//137 127//151 128//152 115//138
f 115//138 128//152 129//153 116//139
f 116//139 129//153 130//154 117//140
f 183//141 186//155 131//156 118//142
f 118//142 131//156 132//157 119//143
f 119//143 132//157 133//158 120//144
f 120//144 133//158 134//159 121//145
f 121//145 134//159 135//160 122//146
f 122//146 135//160 136//161 123//147
f 123//147 136//161 137//162 124//148
f 124//148 137//162 138//163 125//149
f 125//149 138//163 139//164 126//150
f 126//150 139//164 140//165 127//151
f 127//151 140//165 141//166 128//152
f 128//152 141//166 142//167 129//153
f 129//153 142//167 143//168 130//154
f 186//155 184//169 144//170 131//156
f 131//156 144//170 145//171 132//157
f 132//157 145//171 146//172 133//158
f 133//158 146//172 147//173 134//159
f 134//159 147//173 148//174 135//160
f 135//160 148//174 149//175 136//161
f 136//161 149//175 150//176 137//162
f 137//162 150//176 151//177 138//163
f 138//163 151//177 152//178 139//164
f 139//164 152//178 153//179 140//165
f 140//165 153//179 154//180 141//166
f 141//166 154//180 155//181 142//167
f 142//167 155//181 156//182 143//168
f 184//169 189//183 157//184 144//170
f 144//170 157//184 158//185 145//171
f 145//171 158//185 159//186 146//172
f 146//172 159//186 160//187 147//173
f 147//173 160//187 161//188 148//174
f 148//174 161//188 162//189 149//175
f 149//175 162//189 163//190 150//176
f 150//176 163//190 164//191 151//177
f 151//177 164//191 165//192 152//178
f 152//178 165//192 166//193 153//179
f 153//179 166//193 167//194 154//180
f 154//180 167//194 168//195 155//181
f 155//181 168//195 169//196 156//182
f 91//112 104//126 197//197 198//198
f 104//126 117//140 199//199 197//197
f 26//42 39//56 200//200 201//201
f 173//28 13//27 202//202 203//203
f 13//27 26//42 201//201 202//202
f 39//56 52//70 204//204 200//200
f 156//182 169//196 205//205 206//206
f 78//98 91//112 198//198 207//207
f 52//70 65//84 208//208 204//204
f 65//84 78//98 207//207 208//208
f 143//168 156//182 206//206 209//209
f 117//140 130//154 210//210 199//199
f 130//154 143//168 209//209 210//210
