# Blender v2.73 (sub 0) OBJ File: 'untitled.blend'
# www.blender.org
mtllib Landscape.040.mtl
o Landscape.040
v 1.292929 10.398254 63.353535
v 1.292929 11.282050 60.767677
v 1.292929 11.419593 58.181820
v 1.292929 11.248032 55.595959
v 1.292929 11.455138 53.010101
v 1.292929 12.306003 50.424244
v 1.292929 15.077128 47.838383
v 1.292929 17.186110 45.252525
v 1.292929 18.471729 42.666668
v 1.292929 18.560999 40.080807
v 1.292929 17.600220 37.494949
v 1.292929 16.658533 34.909092
v 1.292929 16.419598 32.323231
v 3.878788 10.344499 63.353535
v 3.878788 10.652993 60.767677
v 3.878788 10.632389 58.181820
v 3.878788 10.901859 55.595959
v 3.878788 11.578420 53.010101
v 3.878788 12.777715 50.424244
v 3.878788 14.480264 47.838383
v 3.878788 16.313433 45.252525
v 3.878788 17.005449 42.666668
v 3.878788 17.266735 40.080807
v 3.878788 16.974155 37.494949
v 3.878788 15.726972 34.909092
v 3.878788 15.732661 32.323231
v 6.464646 9.916221 63.353535
v 6.464646 10.395317 60.767677
v 6.464646 10.117600 58.181820
v 6.464646 10.373619 55.595959
v 6.464646 11.233394 53.010101
v 6.464646 13.535557 50.424244
v 6.464646 14.842898 47.838383
v 6.464646 16.758736 45.252525
v 6.464646 17.374693 42.666668
v 6.464646 16.729078 40.080807
v 6.464646 15.875917 37.494949
v 6.464646 14.848611 34.909092
v 6.464646 15.032118 32.323231
v 9.050505 9.864666 63.353535
v 9.050505 9.954648 60.767677
v 9.050505 10.401442 58.181820
v 9.050505 10.908780 55.595959
v 9.050505 12.119242 53.010101
v 9.050505 13.618825 50.424244
v 9.050505 15.396294 47.838383
v 9.050505 17.202944 45.252525
v 9.050505 17.588633 42.666668
v 9.050505 17.207327 40.080807
v 9.050505 15.733388 37.494949
v 9.050505 14.709932 34.909092
v 9.050505 14.414617 32.323231
v 11.636364 10.076286 63.353535
v 11.636364 10.823183 60.767677
v 11.636364 10.825062 58.181820
v 11.636364 11.640985 55.595959
v 11.636364 12.844344 53.010101
v 11.636364 13.958122 50.424244
v 11.636364 15.397201 47.838383
v 11.636364 16.717724 45.252525
v 11.636364 17.357607 42.666668
v 11.636364 18.066866 40.080807
v 11.636364 16.180687 37.494949
v 11.636364 14.886352 34.909092
v 11.636364 14.325890 32.323231
v 14.222222 10.196366 63.353535
v 14.222222 11.454500 60.767677
v 14.222222 11.874615 58.181820
v 14.222222 13.325563 55.595959
v 14.222222 14.520732 53.010101
v 14.222222 15.795568 50.424244
v 14.222222 16.539938 47.838383
v 14.222222 16.788734 45.252525
v 14.222222 17.813002 42.666668
v 14.222222 17.100468 40.080807
v 14.222222 15.262384 37.494949
v 14.222222 14.145098 34.909092
v 14.222222 13.656449 32.323231
v 16.808081 10.270843 63.353535
v 16.808081 11.896437 60.767677
v 16.808081 12.731908 58.181820
v 16.808081 14.377631 55.595959
v 16.808081 15.735981 53.010101
v 16.808081 16.761274 50.424244
v 16.808081 17.557447 47.838383
v 16.808081 17.522026 45.252525
v 16.808081 18.087029 42.666668
v 16.808081 16.113237 40.080807
v 16.808081 14.456317 37.494949
v 16.808081 13.492910 34.909092
v 16.808081 13.753325 32.323231
v 19.393940 10.806355 63.353535
v 19.393940 11.948529 60.767677
v 19.393940 12.819600 58.181820
v 19.393940 14.717752 55.595959
v 19.393940 16.187637 53.010101
v 19.393940 17.224075 50.424244
v 19.393940 17.210485 47.838383
v 19.393940 17.598370 45.252525
v 19.393940 17.330921 42.666668
v 19.393940 16.459103 40.080807
v 19.393940 13.784779 37.494949
v 19.393940 13.221310 34.909092
v 19.393940 13.751856 32.323231
v 21.979797 11.140598 63.353535
v 21.979797 12.225780 60.767677
v 21.979797 12.846729 58.181820
v 21.979797 14.637578 55.595959
v 21.979797 16.675886 53.010101
v 21.979797 17.712542 50.424244
v 21.979797 17.910717 47.838383
v 21.979797 17.850727 45.252525
v 21.979797 17.281059 42.666668
v 21.979797 16.817934 40.080807
v 21.979797 14.026185 37.494949
v 21.979797 13.283291 34.909092
v 21.979797 12.821831 32.323231
v 24.565657 11.405701 63.353535
v 24.565657 12.693295 60.767677
v 24.565657 13.112872 58.181820
v 24.565657 14.581831 55.595959
v 24.565657 16.699371 53.010101
v 24.565657 18.234062 50.424244
v 24.565657 17.617636 47.838383
v 24.565657 18.372478 45.252525
v 24.565657 16.927835 42.666668
v 24.565657 15.322903 40.080807
v 24.565657 13.333551 37.494949
v 24.565657 12.131874 34.909092
v 24.565657 11.691929 32.323231
v 27.151516 11.406724 63.353535
v 27.151516 12.417904 60.767677
v 27.151516 12.760575 58.181820
v 27.151516 14.153436 55.595959
v 27.151516 15.954453 53.010101
v 27.151516 17.010904 50.424244
v 27.151516 16.606989 47.838383
v 27.151516 16.901487 45.252525
v 27.151516 16.724480 42.666668
v 27.151516 14.873691 40.080807
v 27.151516 13.117678 37.494949
v 27.151516 11.313683 34.909092
v 27.151516 10.679861 32.323231
v 29.737373 11.548214 63.353535
v 29.737373 12.405107 60.767677
v 29.737373 12.318422 58.181820
v 29.737373 13.304768 55.595959
v 29.737373 14.208721 53.010101
v 29.737373 15.355026 50.424244
v 29.737373 15.164277 47.838383
v 29.737373 15.328215 45.252525
v 29.737373 16.374273 42.666668
v 29.737373 14.819521 40.080807
v 29.737373 12.619893 37.494949
v 29.737373 10.907437 34.909092
v 29.737373 9.876974 32.323231
v 0.000000 11.469449 53.010101
v 0.000000 11.072527 55.595959
v 0.000000 16.873274 32.323231
v 0.000000 16.685028 34.909092
v 0.000000 16.995153 37.494949
v 0.000000 17.376064 45.252525
v 0.000000 15.443472 47.838383
v 0.000000 18.281708 40.080807
v 0.000000 18.673023 42.666668
v 0.000000 10.475643 63.353535
v 0.000000 11.065901 60.767677
v 0.000000 11.037951 58.181820
v 0.000000 12.644734 50.424244
v 32.000000 12.420849 60.767677
v 32.000000 12.541761 58.181820
v 32.000000 13.221708 55.595959
v 32.000000 14.793053 42.666668
v 32.000000 14.375659 40.080807
v 32.000000 12.292192 37.494949
v 32.000000 11.168580 34.909092
v 32.000000 13.223214 53.010101
v 32.000000 14.819530 45.252525
v 32.000000 14.275118 47.838383
v 32.000000 13.642738 50.424244
v 32.000000 9.678966 32.323231
v 32.000000 11.796656 63.353535
v 14.222222 10.030272 64.000000
v 21.979797 10.943054 64.000000
v 24.565657 11.147015 64.000000
v 11.636364 9.928348 64.000000
v 6.464646 9.873807 64.000000
v 19.393940 10.569049 64.000000
v 29.737373 11.351428 64.000000
v 3.878788 10.220205 64.000000
v 16.808081 10.028773 64.000000
v 1.292929 10.242030 64.000000
v 27.151516 11.130309 64.000000
v 9.050505 9.850588 64.000000
v 0.000000 10.329735 64.000000
v 32.000000 11.619320 64.000000
v 16.808081 13.675660 32.000000
v 14.222222 13.674417 32.000000
v 1.292929 16.464193 32.000000
v 0.000000 16.880091 32.000000
v 11.636364 14.374627 32.000000
v 3.878788 15.663922 32.000000
v 32.000000 9.669003 32.000000
v 29.737373 9.875725 32.000000
v 9.050505 14.532740 32.000000
v 6.464646 15.063177 32.000000
v 24.565657 11.623841 32.000000
v 21.979797 12.693451 32.000000
v 27.151516 10.660075 32.000000
v 19.393940 13.604927 32.000000
vn 0.062000 0.971900 0.227100
vn 0.038000 0.974900 0.219600
vn 0.038600 0.971400 0.234400
vn 0.004800 0.967900 0.251100
vn 0.029000 0.990400 0.135300
vn -0.139100 0.978800 0.150400
vn 0.010800 0.999900 0.009000
vn -0.217900 0.976000 -0.002600
vn -0.004000 0.997500 0.070300
vn -0.137400 0.989500 0.044700
vn 0.000300 0.966800 0.255500
vn 0.032800 0.969700 0.242100
vn 0.052800 0.848300 0.526900
vn 0.160800 0.804700 0.571600
vn 0.153500 0.745400 0.648600
vn 0.174400 0.731500 0.659100
vn 0.234800 0.837000 0.494300
vn 0.150600 0.838600 0.523500
vn 0.245700 0.948500 0.199600
vn 0.052700 0.979200 0.195700
vn 0.126700 0.979600 -0.155900
vn -0.174200 0.957200 -0.231200
vn 0.023600 0.947900 -0.317600
vn -0.253500 0.919500 -0.300400
vn 0.140600 0.974500 -0.174600
vn -0.015400 0.992300 -0.123000
vn 0.269600 0.963000 -0.004200
vn 0.251700 0.967200 0.033300
vn 0.081400 0.982200 0.169400
vn 0.104700 0.978400 0.178200
vn 0.168500 0.982000 0.085400
vn 0.206000 0.978300 0.020900
vn 0.155000 0.977400 0.143600
vn 0.005700 0.935700 0.352600
vn -0.080600 0.844600 0.529200
vn -0.022900 0.807800 0.589000
vn 0.085100 0.881500 0.464500
vn 0.194700 0.969000 0.151900
vn 0.292700 0.949600 -0.112300
vn 0.307700 0.904300 -0.295800
vn 0.304200 0.932500 -0.194500
vn 0.278000 0.960200 -0.024900
vn 0.080700 0.993100 0.085200
vn 0.096500 0.989500 0.107100
vn 0.101300 0.993100 0.058600
vn 0.055200 0.996900 0.055500
vn -0.010700 0.974500 0.224000
vn -0.076100 0.891100 0.447300
vn -0.129500 0.833600 0.536900
vn -0.141100 0.828800 0.541400
vn -0.142300 0.902600 0.406100
vn -0.095600 0.994600 0.041000
vn 0.038300 0.972700 -0.228600
vn 0.157900 0.923100 -0.350700
vn 0.206400 0.960600 -0.186000
vn 0.224800 0.973300 0.045700
vn -0.020500 0.996300 0.084000
vn -0.037400 0.993300 0.109000
vn -0.079800 0.992100 0.097100
vn -0.146300 0.981100 0.126400
vn -0.216900 0.932000 0.290300
vn -0.206200 0.865100 0.457100
vn -0.124300 0.846900 0.516900
vn -0.060200 0.842000 0.536100
vn -0.015700 0.928400 0.371300
vn -0.061100 0.996100 0.063900
vn -0.136300 0.949200 -0.283300
vn -0.080100 0.899000 -0.430600
vn 0.018000 0.969900 -0.242600
vn 0.096300 0.992800 0.071200
vn -0.048700 0.982500 0.180000
vn -0.109300 0.969400 0.219900
vn -0.222800 0.959400 0.172700
vn -0.299700 0.934800 0.190800
vn -0.350900 0.868500 0.350100
vn -0.369100 0.839200 0.399300
vn -0.314200 0.846400 0.430000
vn -0.179100 0.884100 0.431600
vn -0.025800 0.942300 0.333600
vn 0.003600 0.989500 0.144500
vn 0.012400 0.964400 -0.264300
vn 0.063000 0.865400 -0.497000
vn 0.106400 0.947100 -0.302600
vn 0.141100 0.990000 -0.002700
vn -0.027600 0.962900 0.268500
vn -0.069600 0.935200 0.347000
vn -0.195000 0.936200 0.292300
vn -0.329300 0.897600 0.292800
vn -0.405300 0.816600 0.411100
vn -0.442300 0.812400 0.379800
vn -0.423100 0.839900 0.339900
vn -0.339500 0.910500 0.236200
vn -0.207400 0.950900 0.229500
vn -0.016300 0.999300 0.032700
vn 0.202000 0.889400 -0.410000
vn 0.274500 0.839800 -0.468300
vn 0.228000 0.939900 -0.254200
vn 0.151100 0.986800 -0.057200
vn -0.100800 0.941300 0.322000
vn -0.099600 0.911100 0.400000
vn -0.114900 0.919700 0.375300
vn -0.163800 0.896900 0.410700
vn -0.219900 0.844300 0.488700
vn -0.255500 0.874900 0.411500
vn -0.225700 0.928500 0.294700
vn -0.159600 0.978400 0.131400
vn -0.083400 0.989600 0.117400
vn 0.034700 0.988200 -0.149000
vn 0.134500 0.831800 -0.538500
vn 0.186600 0.865000 -0.465700
vn 0.148300 0.979800 -0.134000
vn 0.038900 0.996100 -0.079500
vn -0.161400 0.930300 0.329300
vn -0.131400 0.914700 0.382100
vn -0.072900 0.928100 0.365100
vn -0.036100 0.897500 0.439600
vn -0.065500 0.835600 0.545400
vn -0.132800 0.885400 0.445500
vn -0.147300 0.961400 0.232300
vn -0.094200 0.992400 0.079300
vn -0.009900 0.999900 0.006700
vn 0.026600 0.975500 -0.218300
vn -0.006200 0.841500 -0.540200
vn 0.023200 0.877400 -0.479100
vn 0.084900 0.992100 -0.091800
vn 0.135600 0.981600 -0.134600
vn -0.107400 0.940000 0.323800
vn -0.112200 0.924600 0.364100
vn -0.107800 0.940400 0.322500
vn -0.056500 0.914100 0.401600
vn -0.021300 0.817100 0.576000
vn -0.083700 0.861400 0.501000
vn -0.136900 0.970600 0.197800
vn -0.123600 0.991600 0.037700
vn -0.074900 0.993500 -0.085400
vn 0.046400 0.957100 -0.285900
vn 0.118200 0.858200 -0.499400
vn 0.126700 0.843600 -0.521800
vn 0.210600 0.959200 -0.188400
vn 0.318800 0.925800 -0.202900
vn -0.041600 0.933100 0.357200
vn -0.040900 0.922000 0.385000
vn -0.024100 0.956500 0.290700
vn 0.020800 0.936400 0.350300
vn 0.071200 0.823200 0.563200
vn 0.107500 0.842800 0.527400
vn 0.148100 0.976800 0.154600
vn 0.198300 0.980000 0.014000
vn 0.163400 0.983000 -0.083500
vn 0.178800 0.902100 -0.392700
vn 0.207600 0.806100 -0.554100
vn 0.223900 0.826700 -0.516200
vn 0.305100 0.903500 -0.301000
vn 0.364500 0.911900 -0.188800
vn -0.031100 0.931200 0.363200
vn -0.009600 0.929700 0.368100
vn 0.058500 0.969200 0.239000
vn 0.143600 0.950500 0.275600
vn 0.241000 0.843900 0.479200
vn 0.359900 0.816100 0.452000
vn 0.446200 0.885900 0.126400
vn 0.464400 0.885600 -0.005100
vn 0.399400 0.916200 0.030600
vn 0.214400 0.921900 -0.322600
vn 0.089400 0.814500 -0.573200
vn 0.125100 0.818100 -0.561200
vn 0.219300 0.894700 -0.389100
vn 0.298700 0.940000 -0.164400
vn -0.087000 0.946600 0.310500
vn -0.063700 0.949000 0.308800
vn -0.011300 0.985400 0.169700
vn 0.056700 0.979300 0.194100
vn 0.207500 0.920100 0.332200
vn 0.418900 0.856200 0.302400
vn 0.514200 0.845400 0.144300
vn 0.453800 0.889900 0.046900
vn 0.392300 0.909900 0.134600
vn 0.311000 0.938500 -0.150000
vn 0.173500 0.828300 -0.532700
vn 0.095600 0.814600 -0.572000
vn 0.091600 0.891000 -0.444600
vn 0.148300 0.968400 -0.200600
vn -0.054900 0.988300 0.142000
vn -0.041500 0.986300 0.159800
vn 0.099200 0.965700 0.240000
vn 0.412300 0.906900 -0.086700
vn 0.257400 0.828000 -0.498200
vn 0.069200 0.828000 -0.556500
vn 0.000600 0.887800 -0.460300
vn 0.362600 0.907600 0.211500
vn 0.352700 0.923100 0.153000
vn 0.402700 0.909700 0.101000
vn 0.498300 0.850100 0.170400
vn 0.040000 0.972300 -0.230200
vn -0.109000 0.954900 0.276300
vn -0.082100 0.957700 0.275700
vn -0.002800 0.977300 -0.211900
vn 0.120300 0.992700 0.004200
vn 0.298100 0.954300 0.021100
vn 0.317800 0.945200 0.075200
vn 0.150100 0.972700 0.177100
vn 0.259400 0.964700 -0.046500
vn 0.089100 0.995900 -0.017300
vn 0.192200 0.981100 -0.024300
vn 0.131600 0.963000 0.235100
vn 0.230000 0.969900 0.080700
vn 0.366000 0.910000 -0.194800
vn 0.347500 0.882400 -0.317100
vn 0.323800 0.942900 -0.078100
vn 0.171100 0.918900 -0.355500
usemtl None
s 1
f 195//1 192//2 1//3 166//4
f 166//4 1//3 2//5 167//6
f 167//6 2//5 3//7 168//8
f 168//8 3//7 4//9 158//10
f 158//10 4//9 5//11 157//12
f 157//12 5//11 6//13 169//14
f 169//14 6//13 7//15 163//16
f 163//16 7//15 8//17 162//18
f 162//18 8//17 9//19 165//20
f 165//20 9//19 10//21 164//22
f 164//22 10//21 11//23 161//24
f 161//24 11//23 12//25 160//26
f 160//26 12//25 13//27 159//28
f 192//2 190//29 14//30 1//3
f 1//3 14//30 15//31 2//5
f 2//5 15//31 16//32 3//7
f 3//7 16//32 17//33 4//9
f 4//9 17//33 18//34 5//11
f 5//11 18//34 19//35 6//13
f 6//13 19//35 20//36 7//15
f 7//15 20//36 21//37 8//17
f 8//17 21//37 22//38 9//19
f 9//19 22//38 23//39 10//21
f 10//21 23//39 24//40 11//23
f 11//23 24//40 25//41 12//25
f 12//25 25//41 26//42 13//27
f 190//29 187//43 27//44 14//30
f 14//30 27//44 28//45 15//31
f 15//31 28//45 29//46 16//32
f 16//32 29//46 30//47 17//33
f 17//33 30//47 31//48 18//34
f 18//34 31//48 32//49 19//35
f 19//35 32//49 33//50 20//36
f 20//36 33//50 34//51 21//37
f 21//37 34//51 35//52 22//38
f 22//38 35//52 36//53 23//39
f 23//39 36//53 37//54 24//40
f 24//40 37//54 38//55 25//41
f 25//41 38//55 39//56 26//42
f 187//43 194//57 40//58 27//44
f 27//44 40//58 41//59 28//45
f 28//45 41//59 42//60 29//46
f 29//46 42//60 43//61 30//47
f 30//47 43//61 44//62 31//48
f 31//48 44//62 45//63 32//49
f 32//49 45//63 46//64 33//50
f 33//50 46//64 47//65 34//51
f 34//51 47//65 48//66 35//52
f 35//52 48//66 49//67 36//53
f 36//53 49//67 50//68 37//54
f 37//54 50//68 51//69 38//55
f 38//55 51//69 52//70 39//56
f 194//57 186//71 53//72 40//58
f 40//58 53//72 54//73 41//59
f 41//59 54//73 55//74 42//60
f 42//60 55//74 56//75 43//61
f 43//61 56//75 57//76 44//62
f 44//62 57//76 58//77 45//63
f 45//63 58//77 59//78 46//64
f 46//64 59//78 60//79 47//65
f 47//65 60//79 61//80 48//66
f 48//66 61//80 62//81 49//67
f 49//67 62//81 63//82 50//68
f 50//68 63//82 64//83 51//69
f 51//69 64//83 65//84 52//70
f 186//71 183//85 66//86 53//72
f 53//72 66//86 67//87 54//73
f 54//73 67//87 68//88 55//74
f 55//74 68//88 69//89 56//75
f 56//75 69//89 70//90 57//76
f 57//76 70//90 71//91 58//77
f 58//77 71//91 72//92 59//78
f 59//78 72//92 73//93 60//79
f 60//79 73//93 74//94 61//80
f 61//80 74//94 75//95 62//81
f 62//81 75//95 76//96 63//82
f 63//82 76//96 77//97 64//83
f 64//83 77//97 78//98 65//84
f 183//85 191//99 79//100 66//86
f 66//86 79//100 80//101 67//87
f 67//87 80//101 81//102 68//88
f 68//88 81//102 82//103 69//89
f 69//89 82//103 83//104 70//90
f 70//90 83//104 84//105 71//91
f 71//91 84//105 85//106 72//92
f 72//92 85//106 86//107 73//93
f 73//93 86//107 87//108 74//94
f 74//94 87//108 88//109 75//95
f 75//95 88//109 89//110 76//96
f 76//96 89//110 90//111 77//97
f 77//97 90//111 91//112 78//98
f 191//99 188//113 92//114 79//100
f 79//100 92//114 93//115 80//101
f 80//101 93//115 94//116 81//102
f 81//102 94//116 95//117 82//103
f 82//103 95//117 96//118 83//104
f 83//104 96//118 97//119 84//105
f 84//105 97//119 98//120 85//106
f 85//106 98//120 99//121 86//107
f 86//107 99//121 100//122 87//108
f 87//108 100//122 101//123 88//109
f 88//109 101//123 102//124 89//110
f 89//110 102//124 103//125 90//111
f 90//111 103//125 104//126 91//112
f 188//113 184//127 105//128 92//114
f 92//114 105//128 106//129 93//115
f 93//115 106//129 107//130 94//116
f 94//116 107//130 108//131 95//117
f 95//117 108//131 109//132 96//118
f 96//118 109//132 110//133 97//119
f 97//119 110//133 111//134 98//120
f 98//120 111//134 112//135 99//121
f 99//121 112//135 113//136 100//122
f 100//122 113//136 114//137 101//123
f 101//123 114//137 115//138 102//124
f 102//124 115//138 116//139 103//125
f 103//125 116//139 117//140 104//126
f 184//127 185//141 118//142 105//128
f 105//128 118//142 119//143 106//129
f 106//129 119//143 120//144 107//130
f 107//130 120//144 121//145 108//131
f 108//131 121//145 122//146 109//132
f 109//132 122//146 123//147 110//133
f 110//133 123//147 124//148 111//134
f 111//134 124//148 125//149 112//135
f 112//135 125//149 126//150 113//136
f 113//136 126//150 127//151 114//137
f 114//137 127//151 128//152 115//138
f 115//138 128//152 129//153 116//139
f 116//139 129//153 130//154 117//140
f 185//141 193//155 131//156 118//142
f 118//142 131//156 132//157 119//143
f 119//143 132//157 133//158 120//144
f 120//144 133//158 134//159 121//145
f 121//145 134//159 135//160 122//146
f 122//146 135//160 136//161 123//147
f 123//147 136//161 137//162 124//148
f 124//148 137//162 138//163 125//149
f 125//149 138//163 139//164 126//150
f 126//150 139//164 140//165 127//151
f 127//151 140//165 141//166 128//152
f 128//152 141//166 142//167 129//153
f 129//153 142//167 143//168 130//154
f 193//155 189//169 144//170 131//156
f 131//156 144//170 145//171 132//157
f 132//157 145//171 146//172 133//158
f 133//158 146//172 147//173 134//159
f 134//159 147//173 148//174 135//160
f 135//160 148//174 149//175 136//161
f 136//161 149//175 150//176 137//162
f 137//162 150//176 151//177 138//163
f 138//163 151//177 152//178 139//164
f 139//164 152//178 153//179 140//165
f 140//165 153//179 154//180 141//166
f 141//166 154//180 155//181 142//167
f 142//167 155//181 156//182 143//168
f 145//171 170//183 171//184 146//172
f 146//172 171//184 172//185 147//173
f 152//178 173//186 174//187 153//179
f 153//179 174//187 175//188 154//180
f 154//180 175//188 176//189 155//181
f 147//173 172//185 177//190 148//174
f 151//177 178//191 173//186 152//178
f 150//176 179//192 178//191 151//177
f 148//174 177//190 180//193 149//175
f 149//175 180//193 179//192 150//176
f 155//181 176//189 181//194 156//182
f 189//169 196//195 182//196 144//170
f 144//170 182//196 170//183 145//171
f 78//98 91//112 197//197 198//198
f 159//28 13//27 199//199 200//200
f 65//84 78//98 198//198 201//201
f 13//27 26//42 202//202 199//199
f 156//182 181//194 203//203 204//204
f 52//70 65//84 201//201 205//205
f 26//42 39//56 206//206 202//202
f 39//56 52//70 205//205 206//206
f 117//140 130//154 207//207 208//208
f 130//154 143//168 209//209 207//207
f 143//168 156//182 204//204 209//209
f 91//112 104//126 210//210 197//197
f 104//126 117//140 208//208 210//210
