# Blender v2.73 (sub 0) OBJ File: 'untitled.blend'
# www.blender.org
mtllib Landscape.005.mtl
o Landscape.005
v -128.000000 0.000000 29.737373
v -128.000000 0.000000 27.151516
v -128.000000 0.000000 24.565657
v -128.000000 0.000000 21.979797
v -128.000000 0.000000 19.393940
v -128.000000 0.000000 16.808081
v -128.000000 0.000000 14.222222
v -128.000000 0.000000 11.636364
v -128.000000 0.000000 9.050505
v -128.000000 0.000000 6.464646
v -128.000000 0.000000 3.878788
v -128.000000 0.000000 1.292929
v -125.414139 0.068500 29.737373
v -125.414139 0.065180 27.151516
v -125.414139 0.065716 24.565657
v -125.414139 0.067574 21.979797
v -125.414139 0.070073 19.393940
v -125.414139 0.068213 16.808081
v -125.414139 0.062839 14.222222
v -125.414139 0.059379 11.636364
v -125.414139 0.055809 9.050505
v -125.414139 0.054393 6.464646
v -125.414139 0.046797 3.878788
v -125.414139 0.039338 1.292929
v -122.828285 0.257052 29.737373
v -122.828285 0.247630 27.151516
v -122.828285 0.239422 24.565657
v -122.828285 0.255656 21.979797
v -122.828285 0.248026 19.393940
v -122.828285 0.244097 16.808081
v -122.828285 0.238329 14.222222
v -122.828285 0.229472 11.636364
v -122.828285 0.204303 9.050505
v -122.828285 0.183017 6.464646
v -122.828285 0.158741 3.878788
v -122.828285 0.137051 1.292929
v -120.242424 0.535827 29.737373
v -120.242424 0.512102 27.151516
v -120.242424 0.507940 24.565657
v -120.242424 0.511829 21.979797
v -120.242424 0.473007 19.393940
v -120.242424 0.478581 16.808081
v -120.242424 0.483922 14.222222
v -120.242424 0.469075 11.636364
v -120.242424 0.420953 9.050505
v -120.242424 0.371199 6.464646
v -120.242424 0.315522 3.878788
v -120.242424 0.278656 1.292929
v -117.656563 0.857522 29.737373
v -117.656563 0.911460 27.151516
v -117.656563 0.885773 24.565657
v -117.656563 0.851828 21.979797
v -117.656563 0.817524 19.393940
v -117.656563 0.839168 16.808081
v -117.656563 0.796878 14.222222
v -117.656563 0.776582 11.636364
v -117.656563 0.722463 9.050505
v -117.656563 0.615698 6.464646
v -117.656563 0.507138 3.878788
v -117.656563 0.475551 1.292929
v -115.070709 1.211638 29.737373
v -115.070709 1.280375 27.151516
v -115.070709 1.293149 24.565657
v -115.070709 1.264187 21.979797
v -115.070709 1.166958 19.393940
v -115.070709 1.216763 16.808081
v -115.070709 1.219043 14.222222
v -115.070709 1.118495 11.636364
v -115.070709 1.022143 9.050505
v -115.070709 0.931552 6.464646
v -115.070709 0.779029 3.878788
v -115.070709 0.718482 1.292929
v -112.484848 1.573239 29.737373
v -112.484848 1.575762 27.151516
v -112.484848 1.658510 24.565657
v -112.484848 1.652800 21.979797
v -112.484848 1.630745 19.393940
v -112.484848 1.615114 16.808081
v -112.484848 1.643716 14.222222
v -112.484848 1.535170 11.636364
v -112.484848 1.412833 9.050505
v -112.484848 1.231583 6.464646
v -112.484848 1.097487 3.878788
v -112.484848 1.073670 1.292929
v -109.898987 2.003601 29.737373
v -109.898987 1.959508 27.151516
v -109.898987 1.899757 24.565657
v -109.898987 1.969550 21.979797
v -109.898987 2.030122 19.393940
v -109.898987 2.045709 16.808081
v -109.898987 2.049654 14.222222
v -109.898987 1.922591 11.636364
v -109.898987 1.757383 9.050505
v -109.898987 1.590540 6.464646
v -109.898987 1.429869 3.878788
v -109.898987 1.403228 1.292929
v -107.313133 2.610049 29.737373
v -107.313133 2.587978 27.151516
v -107.313133 2.482080 24.565657
v -107.313133 2.372399 21.979797
v -107.313133 2.441363 19.393940
v -107.313133 2.513249 16.808081
v -107.313133 2.576409 14.222222
v -107.313133 2.536127 11.636364
v -107.313133 2.301907 9.050505
v -107.313133 2.108963 6.464646
v -107.313133 1.988041 3.878788
v -107.313133 1.905645 1.292929
v -104.727272 3.281326 29.737373
v -104.727272 3.404617 27.151516
v -104.727272 3.288162 24.565657
v -104.727272 3.097710 21.979797
v -104.727272 3.032501 19.393940
v -104.727272 3.024091 16.808081
v -104.727272 3.092768 14.222222
v -104.727272 3.085339 11.636364
v -104.727272 3.040178 9.050505
v -104.727272 2.863023 6.464646
v -104.727272 2.596154 3.878788
v -104.727272 2.564667 1.292929
v -102.141411 4.310008 29.737373
v -102.141411 4.414255 27.151516
v -102.141411 4.140029 24.565657
v -102.141411 3.928485 21.979797
v -102.141411 3.708037 19.393940
v -102.141411 3.592364 16.808081
v -102.141411 3.683760 14.222222
v -102.141411 3.762666 11.636364
v -102.141411 3.788764 9.050505
v -102.141411 3.595618 6.464646
v -102.141411 3.315083 3.878788
v -102.141411 3.239871 1.292929
v -99.555557 5.257575 29.737373
v -99.555557 5.571339 27.151516
v -99.555557 5.124988 24.565657
v -99.555557 4.759554 21.979797
v -99.555557 4.599831 19.393940
v -99.555557 4.500971 16.808081
v -99.555557 4.358541 14.222222
v -99.555557 4.256541 11.636364
v -99.555557 4.563945 9.050505
v -99.555557 4.382822 6.464646
v -99.555557 4.191338 3.878788
v -99.555557 3.868556 1.292929
v -96.969696 5.925691 29.737373
v -96.969696 6.403629 27.151516
v -96.969696 6.068822 24.565657
v -96.969696 5.671983 21.979797
v -96.969696 5.624500 19.393940
v -96.969696 5.315475 16.808081
v -96.969696 4.951416 14.222222
v -96.969696 5.017919 11.636364
v -96.969696 5.332494 9.050505
v -96.969696 5.222276 6.464646
v -96.969696 5.251892 3.878788
v -96.969696 5.003100 1.292929
v -96.000000 5.580359 6.464646
v -96.000000 5.634960 3.878788
v -96.000000 5.427971 11.636364
v -96.000000 5.720324 9.050505
v -96.000000 5.481349 1.292929
v -96.000000 6.117364 21.979797
v -96.000000 6.053839 19.393940
v -96.000000 5.710233 16.808081
v -96.000000 5.329112 14.222222
v -96.000000 6.622959 27.151516
v -96.000000 6.408796 24.565657
v -96.000000 6.311124 29.737373
v -122.828285 0.262021 32.000000
v -109.898987 2.035123 32.000000
v -99.555557 4.943952 32.000000
v -115.070709 1.229077 32.000000
v -112.484848 1.577098 32.000000
v -128.000000 0.000000 32.000000
v -96.969696 5.700697 32.000000
v -107.313133 2.557496 32.000000
v -125.414139 0.067630 32.000000
v -102.141411 4.094801 32.000000
v -117.656563 0.866596 32.000000
v -104.727272 3.223186 32.000000
v -120.242424 0.513978 32.000000
v -96.000000 6.126322 32.000000
v -125.414139 0.036266 0.000000
v -128.000000 0.000000 0.000000
v -96.000000 5.398174 0.000000
v -96.969696 4.914246 0.000000
v -112.484848 1.071742 0.000000
v -115.070709 0.731384 0.000000
v -99.555557 3.773532 0.000000
v -102.141411 3.134923 0.000000
v -109.898987 1.412059 0.000000
v -107.313133 1.895549 0.000000
v -117.656563 0.478376 0.000000
v -120.242424 0.275503 0.000000
v -104.727272 2.531331 0.000000
v -122.828285 0.131692 0.000000
vn -0.026300 0.999700 0.000200
vn -0.050100 0.998700 -0.000400
vn -0.049400 0.998700 -0.000900
vn -0.026100 0.999700 -0.000200
vn -0.047900 0.998800 -0.001100
vn -0.025600 0.999700 -0.000300
vn -0.047400 0.998900 0.000600
vn -0.025500 0.999700 0.000200
vn -0.048200 0.998800 0.000800
vn -0.026200 0.999700 0.000400
vn -0.048000 0.998800 -0.000500
vn -0.026700 0.999600 0.000100
vn -0.047000 0.998900 -0.001200
vn -0.026000 0.999700 -0.000700
vn -0.045800 0.998900 -0.001600
vn -0.024500 0.999700 -0.000900
vn -0.043500 0.999000 -0.002300
vn -0.022900 0.999700 -0.000700
vn -0.039600 0.999200 -0.002700
vn -0.021800 0.999800 -0.000500
vn -0.035200 0.999400 -0.003100
vn -0.020400 0.999800 -0.000900
vn -0.030800 0.999500 -0.003700
vn -0.018100 0.999800 -0.001500
vn -0.027300 0.999600 -0.002900
vn -0.015600 0.999900 -0.001300
vn -0.088000 0.996100 0.001400
vn -0.088000 0.996100 -0.001500
vn -0.086800 0.996200 -0.003100
vn -0.085500 0.996300 0.000900
vn -0.083500 0.996500 -0.000600
vn -0.080000 0.996800 -0.002700
vn -0.079200 0.996800 -0.000700
vn -0.080100 0.996800 -0.002300
vn -0.077400 0.997000 -0.006600
vn -0.070200 0.997500 -0.009400
vn -0.061100 0.998100 -0.009900
vn -0.052800 0.998500 -0.009600
vn -0.047600 0.998800 -0.005900
vn -0.115700 0.993300 0.003300
vn -0.118500 0.993000 0.001500
vn -0.123400 0.992300 -0.002200
vn -0.122400 0.992500 -0.002500
vn -0.115600 0.993300 -0.006200
vn -0.111900 0.993700 -0.004300
vn -0.111300 0.993800 -0.000400
vn -0.108500 0.994100 -0.004600
vn -0.104300 0.994500 -0.011300
vn -0.096900 0.995100 -0.019400
vn -0.083400 0.996200 -0.022700
vn -0.070700 0.997300 -0.017900
vn -0.066200 0.997800 -0.007000
vn -0.133300 0.991100 -0.001500
vn -0.135700 0.990700 0.006500
vn -0.143400 0.989600 0.005300
vn -0.147800 0.989000 -0.006500
vn -0.142700 0.989700 -0.014200
vn -0.137800 0.990400 -0.005100
vn -0.139100 0.990300 0.001000
vn -0.136800 0.990500 -0.011100
vn -0.126300 0.991800 -0.019600
vn -0.115800 0.992800 -0.029100
vn -0.105000 0.993700 -0.037400
vn -0.092700 0.995300 -0.028100
vn -0.086600 0.996200 -0.006200
vn -0.136600 0.990600 -0.005200
vn -0.134400 0.990900 0.006700
vn -0.134900 0.990800 0.013200
vn -0.144000 0.989600 -0.000700
vn -0.152300 0.988200 -0.016600
vn -0.153000 0.988200 -0.006900
vn -0.153400 0.988100 0.004600
vn -0.154100 0.987900 -0.016200
vn -0.145900 0.988700 -0.033400
vn -0.131800 0.990400 -0.040100
vn -0.120400 0.991500 -0.048700
vn -0.114900 0.992800 -0.034700
vn -0.114200 0.993400 -0.005900
vn -0.152600 0.988300 -0.006200
vn -0.146700 0.989200 -0.001600
vn -0.132100 0.991200 0.007100
vn -0.124500 0.992200 0.007100
vn -0.137900 0.990400 -0.002400
vn -0.155700 0.987800 -0.002200
vn -0.159900 0.987100 0.004600
vn -0.157200 0.987400 -0.018200
vn -0.151500 0.987400 -0.045400
vn -0.140200 0.988600 -0.053800
vn -0.129400 0.989900 -0.057400
vn -0.126700 0.991300 -0.034300
vn -0.129500 0.991500 -0.004700
vn -0.191400 0.981500 -0.001600
vn -0.192700 0.981200 -0.005900
vn -0.184100 0.982800 -0.011800
vn -0.160600 0.987000 -0.005500
vn -0.146900 0.989100 0.009200
vn -0.154600 0.987900 0.012200
vn -0.168600 0.985600 0.008900
vn -0.179000 0.983700 -0.014400
vn -0.181300 0.982100 -0.051800
vn -0.173400 0.982600 -0.066200
vn -0.167900 0.983900 -0.061000
vn -0.165900 0.985500 -0.035000
vn -0.160900 0.986900 -0.007000
vn -0.231700 0.972700 0.014100
vn -0.243200 0.969900 0.008700
vn -0.259200 0.965700 -0.016500
vn -0.249700 0.967700 -0.033900
vn -0.218300 0.975800 -0.009300
vn -0.194700 0.980700 0.013500
vn -0.189900 0.981700 0.016600
vn -0.200200 0.979700 -0.000700
vn -0.219200 0.974800 -0.042000
vn -0.234400 0.969900 -0.066100
vn -0.233700 0.970100 -0.065600
vn -0.224100 0.973600 -0.041900
vn -0.217300 0.976000 -0.014700
vn -0.297500 0.953900 0.040100
vn -0.309600 0.950200 0.035000
vn -0.320800 0.947100 -0.013100
vn -0.307300 0.949700 -0.060300
vn -0.279600 0.959000 -0.045400
vn -0.242100 0.970100 -0.015800
vn -0.213900 0.976800 0.011000
vn -0.213400 0.976800 0.014900
vn -0.236900 0.971400 -0.012800
vn -0.264700 0.963100 -0.048300
vn -0.268600 0.960100 -0.077900
vn -0.255300 0.965300 -0.053600
vn -0.245200 0.969100 -0.027400
vn -0.335600 0.938400 0.082700
vn -0.353300 0.932800 0.070700
vn -0.366500 0.930200 -0.021100
vn -0.338900 0.936100 -0.094100
vn -0.308300 0.948300 -0.075200
vn -0.289500 0.956100 -0.046200
vn -0.268500 0.963200 -0.010300
vn -0.242700 0.970000 0.007400
vn -0.240700 0.970400 0.017000
vn -0.267200 0.963400 -0.019700
vn -0.284400 0.955200 -0.081400
vn -0.278200 0.957900 -0.070500
vn -0.254000 0.965600 -0.055100
vn -0.296000 0.948600 0.111900
vn -0.311000 0.943900 0.110700
vn -0.339900 0.940400 -0.011900
vn -0.342000 0.930900 -0.128000
vn -0.332800 0.939000 -0.087000
vn -0.332100 0.941600 -0.055300
vn -0.304400 0.951000 -0.054400
vn -0.257400 0.965900 -0.028500
vn -0.248500 0.967700 0.041300
vn -0.277300 0.960700 0.013900
vn -0.308900 0.949200 -0.059500
vn -0.330300 0.941000 -0.073200
vn -0.327400 0.941600 -0.078600
vn -0.323600 0.941000 0.099200
vn -0.305600 0.944300 0.121600
vn -0.294400 0.955600 0.011900
vn -0.326900 0.936600 -0.125900
vn -0.367600 0.926600 -0.079300
vn -0.371800 0.926200 -0.062000
vn -0.338600 0.935100 -0.104300
vn -0.314800 0.947800 -0.050800
vn -0.322900 0.944400 0.061500
vn -0.330900 0.943100 0.031100
vn -0.339300 0.940200 -0.028300
vn -0.374400 0.926100 -0.046400
vn -0.410000 0.909000 -0.074300
vn -0.357900 0.933600 -0.015100
vn -0.381300 0.924000 -0.027700
vn -0.377500 0.923400 0.069500
vn -0.369500 0.928700 0.031000
vn -0.424000 0.903300 -0.065300
vn -0.392000 0.917100 -0.072000
vn -0.400500 0.913900 -0.066600
vn -0.378000 0.917500 -0.123700
vn -0.372600 0.926500 -0.052700
vn -0.287300 0.957600 0.021200
vn -0.323500 0.939600 -0.111900
vn -0.384500 0.919400 0.083300
vn -0.339000 0.933800 0.114700
vn -0.026000 0.999700 -0.002200
vn -0.014600 0.999900 -0.001200
vn -0.443600 0.894200 -0.059500
vn -0.422500 0.904200 -0.062300
vn -0.130900 0.991400 0.003400
vn -0.114400 0.993400 0.005100
vn -0.319600 0.945000 -0.070300
vn -0.238600 0.969100 -0.063200
vn -0.157900 0.987400 0.001100
vn -0.215100 0.976600 -0.008400
vn -0.086300 0.996300 0.003000
vn -0.066100 0.997800 -0.001700
vn -0.241300 0.969900 -0.034000
vn -0.046200 0.998900 -0.003300
usemtl None
s 1
f 174//1 177//2 13//3 1//4
f 1//4 13//3 14//5 2//6
f 2//6 14//5 15//7 3//8
f 3//8 15//7 16//9 4//10
f 4//10 16//9 17//11 5//12
f 5//12 17//11 18//13 6//14
f 6//14 18//13 19//15 7//16
f 7//16 19//15 20//17 8//18
f 8//18 20//17 21//19 9//20
f 9//20 21//19 22//21 10//22
f 10//22 22//21 23//23 11//24
f 11//24 23//23 24//25 12//26
f 177//2 169//27 25//28 13//3
f 13//3 25//28 26//29 14//5
f 14//5 26//29 27//30 15//7
f 15//7 27//30 28//31 16//9
f 16//9 28//31 29//32 17//11
f 17//11 29//32 30//33 18//13
f 18//13 30//33 31//34 19//15
f 19//15 31//34 32//35 20//17
f 20//17 32//35 33//36 21//19
f 21//19 33//36 34//37 22//21
f 22//21 34//37 35//38 23//23
f 23//23 35//38 36//39 24//25
f 169//27 181//40 37//41 25//28
f 25//28 37//41 38//42 26//29
f 26//29 38//42 39//43 27//30
f 27//30 39//43 40//44 28//31
f 28//31 40//44 41//45 29//32
f 29//32 41//45 42//46 30//33
f 30//33 42//46 43//47 31//34
f 31//34 43//47 44//48 32//35
f 32//35 44//48 45//49 33//36
f 33//36 45//49 46//50 34//37
f 34//37 46//50 47//51 35//38
f 35//38 47//51 48//52 36//39
f 181//40 179//53 49//54 37//41
f 37//41 49//54 50//55 38//42
f 38//42 50//55 51//56 39//43
f 39//43 51//56 52//57 40//44
f 40//44 52//57 53//58 41//45
f 41//45 53//58 54//59 42//46
f 42//46 54//59 55//60 43//47
f 43//47 55//60 56//61 44//48
f 44//48 56//61 57//62 45//49
f 45//49 57//62 58//63 46//50
f 46//50 58//63 59//64 47//51
f 47//51 59//64 60//65 48//52
f 179//53 172//66 61//67 49//54
f 49//54 61//67 62//68 50//55
f 50//55 62//68 63//69 51//56
f 51//56 63//69 64//70 52//57
f 52//57 64//70 65//71 53//58
f 53//58 65//71 66//72 54//59
f 54//59 66//72 67//73 55//60
f 55//60 67//73 68//74 56//61
f 56//61 68//74 69//75 57//62
f 57//62 69//75 70//76 58//63
f 58//63 70//76 71//77 59//64
f 59//64 71//77 72//78 60//65
f 172//66 173//79 73//80 61//67
f 61//67 73//80 74//81 62//68
f 62//68 74//81 75//82 63//69
f 63//69 75//82 76//83 64//70
f 64//70 76//83 77//84 65//71
f 65//71 77//84 78//85 66//72
f 66//72 78//85 79//86 67//73
f 67//73 79//86 80//87 68//74
f 68//74 80//87 81//88 69//75
f 69//75 81//88 82//89 70//76
f 70//76 82//89 83//90 71//77
f 71//77 83//90 84//91 72//78
f 173//79 170//92 85//93 73//80
f 73//80 85//93 86//94 74//81
f 74//81 86//94 87//95 75//82
f 75//82 87//95 88//96 76//83
f 76//83 88//96 89//97 77//84
f 77//84 89//97 90//98 78//85
f 78//85 90//98 91//99 79//86
f 79//86 91//99 92//100 80//87
f 80//87 92//100 93//101 81//88
f 81//88 93//101 94//102 82//89
f 82//89 94//102 95//103 83//90
f 83//90 95//103 96//104 84//91
f 170//92 176//105 97//106 85//93
f 85//93 97//106 98//107 86//94
f 86//94 98//107 99//108 87//95
f 87//95 99//108 100//109 88//96
f 88//96 100//109 101//110 89//97
f 89//97 101//110 102//111 90//98
f 90//98 102//111 103//112 91//99
f 91//99 103//112 104//113 92//100
f 92//100 104//113 105//114 93//101
f 93//101 105//114 106//115 94//102
f 94//102 106//115 107//116 95//103
f 95//103 107//116 108//117 96//104
f 176//105 180//118 109//119 97//106
f 97//106 109//119 110//120 98//107
f 98//107 110//120 111//121 99//108
f 99//108 111//121 112//122 100//109
f 100//109 112//122 113//123 101//110
f 101//110 113//123 114//124 102//111
f 102//111 114//124 115//125 103//112
f 103//112 115//125 116//126 104//113
f 104//113 116//126 117//127 105//114
f 105//114 117//127 118//128 106//115
f 106//115 118//128 119//129 107//116
f 107//116 119//129 120//130 108//117
f 180//118 178//131 121//132 109//119
f 109//119 121//132 122//133 110//120
f 110//120 122//133 123//134 111//121
f 111//121 123//134 124//135 112//122
f 112//122 124//135 125//136 113//123
f 113//123 125//136 126//137 114//124
f 114//124 126//137 127//138 115//125
f 115//125 127//138 128//139 116//126
f 116//126 128//139 129//140 117//127
f 117//127 129//140 130//141 118//128
f 118//128 130//141 131//142 119//129
f 119//129 131//142 132//143 120//130
f 178//131 171//144 133//145 121//132
f 121//132 133//145 134//146 122//133
f 122//133 134//146 135//147 123//134
f 123//134 135//147 136//148 124//135
f 124//135 136//148 137//149 125//136
f 125//136 137//149 138//150 126//137
f 126//137 138//150 139//151 127//138
f 127//138 139//151 140//152 128//139
f 128//139 140//152 141//153 129//140
f 129//140 141//153 142//154 130//141
f 130//141 142//154 143//155 131//142
f 131//142 143//155 144//156 132//143
f 171//144 175//157 145//158 133//145
f 133//145 145//158 146//159 134//146
f 134//146 146//159 147//160 135//147
f 135//147 147//160 148//161 136//148
f 136//148 148//161 149//162 137//149
f 137//149 149//162 150//163 138//150
f 138//150 150//163 151//164 139//151
f 139//151 151//164 152//165 140//152
f 140//152 152//165 153//166 141//153
f 141//153 153//166 154//167 142//154
f 142//154 154//167 155//168 143//155
f 143//155 155//168 156//169 144//156
f 154//167 157//170 158//171 155//168
f 152//165 159//172 160//173 153//166
f 153//166 160//173 157//170 154//167
f 155//168 158//171 161//174 156//169
f 148//161 162//175 163//176 149//162
f 149//162 163//176 164//177 150//163
f 150//163 164//177 165//178 151//164
f 151//164 165//178 159//172 152//165
f 146//159 166//179 167//180 147//160
f 147//160 167//180 162//175 148//161
f 175//157 182//181 168//182 145//158
f 145//158 168//182 166//179 146//159
f 12//26 24//25 183//183 184//184
f 156//169 161//174 185//185 186//186
f 72//78 84//91 187//187 188//188
f 132//143 144//156 189//189 190//190
f 144//156 156//169 186//186 189//189
f 84//91 96//104 191//191 187//187
f 96//104 108//117 192//192 191//191
f 48//52 60//65 193//193 194//194
f 60//65 72//78 188//188 193//193
f 108//117 120//130 195//195 192//192
f 120//130 132//143 190//190 195//195
f 24//25 36//39 196//196 183//183
f 36//39 48//52 194//194 196//196
