# Blender v2.73 (sub 0) OBJ File: 'untitled.blend'
# www.blender.org
mtllib Landscape.052.mtl
o Landscape.052
v 32.323231 5.196903 -32.323231
v 32.323231 6.071563 -34.909092
v 32.323231 6.467728 -37.494949
v 32.323231 6.932446 -40.080807
v 32.323231 7.463885 -42.666668
v 32.323231 8.613101 -45.252525
v 32.323231 10.320408 -47.838383
v 32.323231 11.164781 -50.424244
v 32.323231 11.636263 -53.010101
v 32.323231 12.344411 -55.595959
v 32.323231 13.543140 -58.181820
v 32.323231 15.100315 -60.767677
v 32.323231 14.477740 -63.353535
v 34.909092 4.743813 -32.323231
v 34.909092 5.627851 -34.909092
v 34.909092 6.251420 -37.494949
v 34.909092 6.639527 -40.080807
v 34.909092 7.090856 -42.666668
v 34.909092 7.896713 -45.252525
v 34.909092 9.413007 -47.838383
v 34.909092 11.028764 -50.424244
v 34.909092 11.718035 -53.010101
v 34.909092 12.191749 -55.595959
v 34.909092 12.838933 -58.181820
v 34.909092 13.516922 -60.767677
v 34.909092 13.434048 -63.353535
v 37.494949 4.332556 -32.323231
v 37.494949 5.200111 -34.909092
v 37.494949 5.908866 -37.494949
v 37.494949 6.177263 -40.080807
v 37.494949 6.562441 -42.666668
v 37.494949 6.908609 -45.252525
v 37.494949 8.152006 -47.838383
v 37.494949 9.574161 -50.424244
v 37.494949 11.105436 -53.010101
v 37.494949 11.320708 -55.595959
v 37.494949 11.638363 -58.181820
v 37.494949 11.859771 -60.767677
v 37.494949 11.979703 -63.353535
v 40.080807 3.653565 -32.323231
v 40.080807 4.550495 -34.909092
v 40.080807 5.176791 -37.494949
v 40.080807 5.534504 -40.080807
v 40.080807 5.772510 -42.666668
v 40.080807 5.924069 -45.252525
v 40.080807 7.038394 -47.838383
v 40.080807 8.368100 -50.424244
v 40.080807 8.927699 -53.010101
v 40.080807 9.718242 -55.595959
v 40.080807 10.029511 -58.181820
v 40.080807 10.213369 -60.767677
v 40.080807 11.462186 -63.353535
v 42.666668 3.454849 -32.323231
v 42.666668 3.974216 -34.909092
v 42.666668 4.556029 -37.494949
v 42.666668 5.199057 -40.080807
v 42.666668 5.562299 -42.666668
v 42.666668 5.733770 -45.252525
v 42.666668 6.608309 -47.838383
v 42.666668 7.284578 -50.424244
v 42.666668 7.719617 -53.010101
v 42.666668 8.039668 -55.595959
v 42.666668 8.422921 -58.181820
v 42.666668 9.169516 -60.767677
v 42.666668 10.163830 -63.353535
v 45.252525 3.355679 -32.323231
v 45.252525 3.705906 -34.909092
v 45.252525 4.197657 -37.494949
v 45.252525 4.782646 -40.080807
v 45.252525 5.512777 -42.666668
v 45.252525 5.905304 -45.252525
v 45.252525 6.415205 -47.838383
v 45.252525 6.804960 -50.424244
v 45.252525 7.145636 -53.010101
v 45.252525 7.323582 -55.595959
v 45.252525 7.988746 -58.181820
v 45.252525 8.680698 -60.767677
v 45.252525 9.473325 -63.353535
v 47.838383 3.256570 -32.323231
v 47.838383 3.738701 -34.909092
v 47.838383 4.122921 -37.494949
v 47.838383 4.588521 -40.080807
v 47.838383 5.534387 -42.666668
v 47.838383 6.300731 -45.252525
v 47.838383 6.334504 -47.838383
v 47.838383 6.501285 -50.424244
v 47.838383 6.547533 -53.010101
v 47.838383 7.035818 -55.595959
v 47.838383 7.833172 -58.181820
v 47.838383 8.918484 -60.767677
v 47.838383 9.213778 -63.353535
v 50.424244 3.106359 -32.323231
v 50.424244 3.570515 -34.909092
v 50.424244 4.038044 -37.494949
v 50.424244 4.383135 -40.080807
v 50.424244 4.989317 -42.666668
v 50.424244 5.646661 -45.252525
v 50.424244 6.065562 -47.838383
v 50.424244 6.272724 -50.424244
v 50.424244 6.824871 -53.010101
v 50.424244 7.444187 -55.595959
v 50.424244 8.066958 -58.181820
v 50.424244 8.670083 -60.767677
v 50.424244 8.680113 -63.353535
v 53.010101 3.099829 -32.323231
v 53.010101 3.341067 -34.909092
v 53.010101 3.834138 -37.494949
v 53.010101 4.274686 -40.080807
v 53.010101 4.798040 -42.666668
v 53.010101 5.178074 -45.252525
v 53.010101 5.673484 -47.838383
v 53.010101 6.245914 -50.424244
v 53.010101 6.861434 -53.010101
v 53.010101 7.431880 -55.595959
v 53.010101 8.011765 -58.181820
v 53.010101 8.190458 -60.767677
v 53.010101 8.464195 -63.353535
v 55.595959 3.016480 -32.323231
v 55.595959 3.262629 -34.909092
v 55.595959 3.737067 -37.494949
v 55.595959 4.082755 -40.080807
v 55.595959 4.550483 -42.666668
v 55.595959 4.979325 -45.252525
v 55.595959 5.457784 -47.838383
v 55.595959 6.305001 -50.424244
v 55.595959 6.941567 -53.010101
v 55.595959 7.558102 -55.595959
v 55.595959 7.891188 -58.181820
v 55.595959 7.689985 -60.767677
v 55.595959 7.768482 -63.353535
v 58.181820 2.922930 -32.323231
v 58.181820 3.218243 -34.909092
v 58.181820 3.480428 -37.494949
v 58.181820 3.593758 -40.080807
v 58.181820 4.074340 -42.666668
v 58.181820 4.829978 -45.252525
v 58.181820 5.389662 -47.838383
v 58.181820 6.211692 -50.424244
v 58.181820 7.081809 -53.010101
v 58.181820 7.604087 -55.595959
v 58.181820 7.425918 -58.181820
v 58.181820 7.258841 -60.767677
v 58.181820 7.477138 -63.353535
v 60.767677 3.045659 -32.323231
v 60.767677 3.069919 -34.909092
v 60.767677 3.302269 -37.494949
v 60.767677 3.646634 -40.080807
v 60.767677 3.910456 -42.666668
v 60.767677 4.594580 -45.252525
v 60.767677 5.236495 -47.838383
v 60.767677 6.234563 -50.424244
v 60.767677 7.097053 -53.010101
v 60.767677 7.519969 -55.595959
v 60.767677 6.914717 -58.181820
v 60.767677 6.887228 -60.767677
v 60.767677 7.384104 -63.353535
v 63.353535 3.197395 -32.323231
v 63.353535 3.257695 -34.909092
v 63.353535 3.283575 -37.494949
v 63.353535 3.496381 -40.080807
v 63.353535 3.853803 -42.666668
v 63.353535 4.520140 -45.252525
v 63.353535 5.184188 -47.838383
v 63.353535 5.881609 -50.424244
v 63.353535 6.568016 -53.010101
v 63.353535 7.142009 -55.595959
v 63.353535 6.976133 -58.181820
v 63.353535 6.744153 -60.767677
v 63.353535 7.219397 -63.353535
v 32.000000 14.466615 -63.353535
v 32.000000 13.601230 -58.181820
v 32.000000 15.008889 -60.767677
v 32.000000 10.351143 -47.838383
v 32.000000 11.153481 -50.424244
v 32.000000 12.370651 -55.595959
v 32.000000 11.617210 -53.010101
v 32.000000 6.102527 -34.909092
v 32.000000 5.263202 -32.323231
v 32.000000 8.674119 -45.252525
v 32.000000 7.574685 -42.666668
v 32.000000 6.513772 -37.494949
v 32.000000 7.007284 -40.080807
v 64.000000 7.265159 -63.353535
v 64.000000 6.996074 -58.181820
v 64.000000 6.820423 -60.767677
v 64.000000 5.183299 -47.838383
v 64.000000 5.845626 -50.424244
v 64.000000 7.065142 -55.595959
v 64.000000 6.477324 -53.010101
v 64.000000 3.232949 -32.323231
v 64.000000 3.305809 -34.909092
v 64.000000 3.263900 -37.494949
v 64.000000 4.470376 -45.252525
v 64.000000 3.840610 -42.666668
v 64.000000 3.475668 -40.080807
v 32.323231 5.112930 -32.000000
v 45.252525 3.266906 -32.000000
v 37.494949 4.235098 -32.000000
v 50.424244 3.060314 -32.000000
v 34.909092 4.670191 -32.000000
v 47.838383 3.188304 -32.000000
v 60.767677 3.075544 -32.000000
v 53.010101 3.055483 -32.000000
v 55.595959 2.997101 -32.000000
v 40.080807 3.585340 -32.000000
v 58.181820 2.943085 -32.000000
v 42.666668 3.372198 -32.000000
v 63.353535 3.216898 -32.000000
v 32.000000 5.178572 -32.000000
v 64.000000 3.244869 -32.000000
v 64.000000 7.402684 -64.000000
v 63.353535 7.365330 -64.000000
v 55.595959 7.863428 -64.000000
v 53.010101 8.493467 -64.000000
v 40.080807 11.442476 -64.000000
v 37.494949 12.075886 -64.000000
v 42.666668 10.272856 -64.000000
v 34.909092 13.422590 -64.000000
v 32.323231 14.384759 -64.000000
v 32.000000 14.355389 -64.000000
v 60.767677 7.476113 -64.000000
v 58.181820 7.578712 -64.000000
v 50.424244 8.679460 -64.000000
v 47.838383 9.245945 -64.000000
v 45.252525 9.639915 -64.000000
vn 0.193700 0.949300 0.247600
vn 0.179500 0.953900 0.240400
vn 0.166400 0.946100 0.277900
vn 0.166800 0.945100 0.280900
vn 0.136300 0.960100 0.244000
vn 0.129400 0.964100 0.232000
vn 0.129400 0.976600 0.171500
vn 0.149400 0.974700 0.166500
vn 0.168200 0.968800 0.182000
vn 0.227200 0.955100 0.190200
vn 0.208000 0.937300 0.279500
vn 0.253800 0.919200 0.301000
vn 0.205800 0.868600 0.450700
vn 0.175000 0.863900 0.472300
vn 0.144700 0.882000 0.448400
vn 0.072900 0.902400 0.424700
vn 0.042900 0.958300 0.282400
vn -0.008600 0.970400 0.241500
vn -0.002900 0.974700 0.223200
vn -0.018000 0.974200 0.224800
vn 0.074300 0.946700 0.313500
vn 0.065300 0.934400 0.350100
vn 0.160200 0.898000 0.409700
vn 0.032300 0.885600 0.463300
vn 0.162700 0.977800 0.132000
vn -0.104800 0.981700 0.158800
vn 0.156800 0.976500 -0.148000
vn -0.107300 0.976600 -0.186600
vn 0.161000 0.956500 0.243400
vn 0.159100 0.946600 0.280300
vn 0.145600 0.952000 0.269200
vn 0.129300 0.974900 0.181100
vn 0.140300 0.977500 0.157300
vn 0.196300 0.954400 0.224700
vn 0.275300 0.882400 0.381600
vn 0.307800 0.830400 0.464300
vn 0.235900 0.897800 0.371700
vn 0.162100 0.957900 0.236600
vn 0.205500 0.954600 0.215700
vn 0.347700 0.901500 0.257600
vn 0.461200 0.880800 0.107100
vn 0.452300 0.891200 -0.033100
vn 0.200700 0.948100 0.246800
vn 0.196800 0.939000 0.281900
vn 0.195700 0.939800 0.280200
vn 0.200400 0.962600 0.182500
vn 0.215000 0.968100 0.128200
vn 0.262900 0.954200 0.142900
vn 0.328800 0.900400 0.285000
vn 0.370400 0.822000 0.432600
vn 0.420700 0.814900 0.398500
vn 0.432100 0.867900 0.244900
vn 0.440800 0.886700 0.139500
vn 0.475800 0.870900 0.123000
vn 0.476900 0.871100 0.117200
vn 0.399100 0.912400 0.090400
vn 0.158200 0.959200 0.234400
vn 0.174900 0.949400 0.260700
vn 0.213500 0.941500 0.260700
vn 0.226300 0.954800 0.192700
vn 0.201300 0.970400 0.133500
vn 0.193500 0.976300 0.096300
vn 0.215700 0.950000 0.225600
vn 0.274600 0.881600 0.383700
vn 0.392300 0.860900 0.323900
vn 0.496400 0.841400 0.213400
vn 0.533300 0.834500 0.138200
vn 0.509900 0.853100 0.110500
vn 0.440400 0.872500 0.211500
vn 0.354700 0.917800 0.178300
vn 0.057600 0.968700 0.241600
vn 0.082100 0.970300 0.227500
vn 0.137500 0.967200 0.213400
vn 0.165700 0.963400 0.210400
vn 0.129000 0.974300 0.184400
vn 0.061600 0.990400 0.123200
vn 0.042500 0.979400 0.197200
vn 0.126500 0.947700 0.293100
vn 0.248000 0.943100 0.221100
vn 0.331700 0.931400 0.149900
vn 0.369900 0.917000 0.149300
vn 0.345600 0.919900 0.185300
vn 0.307700 0.910300 0.276800
vn 0.322000 0.914600 0.244600
vn 0.035800 0.968600 0.246000
vn 0.038500 0.978100 0.204300
vn 0.052000 0.983500 0.173400
vn 0.080200 0.976600 0.199300
vn 0.079000 0.968400 0.236300
vn 0.004500 0.977400 0.211200
vn -0.039600 0.984000 0.173600
vn 0.036000 0.985000 0.168400
vn 0.142500 0.981000 0.131900
vn 0.194400 0.974700 0.110000
vn 0.176000 0.969200 0.171800
vn 0.113000 0.957700 0.264600
vn 0.092400 0.955400 0.280300
vn 0.146700 0.963900 0.222100
vn 0.043200 0.977800 0.204900
vn 0.039900 0.981500 0.187300
vn 0.032300 0.985400 0.167000
vn 0.040600 0.984500 0.170700
vn 0.069500 0.968900 0.237300
vn 0.078400 0.959900 0.269000
vn 0.063600 0.983800 0.167300
vn 0.071200 0.993100 0.092500
vn 0.082900 0.992300 0.092000
vn 0.050500 0.990000 0.131500
vn 0.000900 0.975900 0.218100
vn -0.012500 0.956100 0.292800
vn 0.036200 0.973600 0.225300
vn 0.121800 0.986400 0.110400
vn 0.027500 0.987300 0.156200
vn 0.040200 0.986800 0.156800
vn 0.059100 0.984500 0.164900
vn 0.061300 0.984800 0.162200
vn 0.077200 0.976600 0.200800
vn 0.133900 0.961800 0.238700
vn 0.170900 0.968700 0.179600
vn 0.128200 0.984500 0.119500
vn 0.041300 0.989400 0.139300
vn -0.036600 0.980600 0.192500
vn -0.059900 0.971000 0.231100
vn 0.000000 0.971200 0.238300
vn 0.097000 0.984700 0.144500
vn 0.142100 0.989000 0.039600
vn 0.014700 0.992900 0.118300
vn 0.026400 0.992800 0.116400
vn 0.047900 0.987700 0.148700
vn 0.057600 0.984300 0.166500
vn 0.063700 0.982500 0.175200
vn 0.087100 0.978400 0.187500
vn 0.112200 0.977800 0.176600
vn 0.087700 0.977200 0.193100
vn 0.020400 0.975800 0.217500
vn -0.017800 0.974000 0.225800
vn -0.008000 0.977200 0.212200
vn 0.058500 0.988900 0.136800
vn 0.145400 0.987100 0.066700
vn 0.171000 0.983500 0.059000
vn 0.027900 0.998400 0.048400
vn 0.028400 0.996900 0.073800
vn 0.037100 0.990700 0.130600
vn 0.072300 0.987400 0.140700
vn 0.115700 0.981700 0.151200
vn 0.116200 0.975700 0.185600
vn 0.080400 0.978600 0.189200
vn 0.044800 0.970100 0.238400
vn 0.005900 0.962300 0.271700
vn -0.027200 0.970700 0.238500
vn 0.001400 0.986900 0.161200
vn 0.092700 0.995100 0.032900
vn 0.163500 0.986400 0.012000
vn 0.179800 0.979400 0.091600
vn -0.010300 0.999200 -0.039200
vn 0.002700 0.999800 0.021900
vn 0.038000 0.994200 0.100500
vn 0.071600 0.992100 0.103000
vn 0.091900 0.988000 0.123900
vn 0.098900 0.974200 0.202800
vn 0.076600 0.970600 0.227900
vn 0.041900 0.963100 0.265900
vn 0.009500 0.950900 0.309200
vn -0.009500 0.968600 0.248300
vn 0.043500 0.996600 0.069600
vn 0.133500 0.989400 -0.057100
vn 0.141800 0.989700 0.021800
vn 0.093500 0.988000 0.122600
vn -0.052800 0.995700 -0.076600
vn -0.041600 0.998900 -0.018800
vn -0.007700 0.998400 0.055800
vn 0.021700 0.996100 0.085100
vn 0.029400 0.993000 0.114200
vn 0.039900 0.979800 0.195700
vn 0.048900 0.967500 0.247900
vn 0.048900 0.959200 0.278400
vn 0.063800 0.948100 0.311300
vn 0.084400 0.966500 0.242300
vn 0.090300 0.995700 0.018000
vn 0.089500 0.991400 -0.095600
vn 0.083200 0.994800 0.058700
vn 0.059200 0.984900 0.162400
vn -0.052700 0.996700 -0.062300
vn -0.058900 0.998000 -0.020700
vn -0.046200 0.998700 0.022200
vn 0.002200 0.998200 0.059000
vn 0.032300 0.993200 0.111600
vn 0.034400 0.981400 0.188500
vn 0.033300 0.967800 0.249400
vn 0.040800 0.962900 0.266800
vn 0.089200 0.957500 0.274000
vn 0.138000 0.962300 0.234100
vn 0.101500 0.993400 0.053400
vn 0.011500 0.996700 -0.080400
vn -0.023100 0.998000 0.057800
vn -0.011200 0.982000 0.188700
vn -0.015000 0.998000 -0.062000
vn -0.084000 0.995300 0.048900
vn -0.077500 0.977900 0.194300
vn 0.032700 0.966200 0.255600
vn 0.060800 0.966300 0.250200
vn 0.085800 0.992400 0.087900
vn 0.109700 0.966500 0.232000
vn -0.049000 0.997600 -0.048500
vn -0.056800 0.998300 -0.011400
vn -0.043300 0.999000 0.011300
vn 0.004600 0.999200 0.039400
vn 0.042600 0.967300 0.249900
vn 0.036600 0.981000 0.190700
vn 0.028600 0.993500 0.110000
vn -0.062700 0.974900 0.213700
vn -0.005200 0.980300 0.197600
vn 0.180000 0.976200 0.120900
vn 0.162700 0.985000 0.057500
vn 0.326100 0.943400 0.060300
vn 0.353700 0.933500 0.058100
vn 0.341900 0.930600 0.130800
vn 0.420000 0.907500 -0.008500
vn 0.155500 0.980800 -0.117700
vn -0.061800 0.985900 -0.155700
vn 0.044800 0.985400 0.164300
vn 0.073700 0.986100 0.148800
vn 0.143000 0.989400 0.023000
vn 0.166200 0.982200 0.087900
vn 0.185600 0.966400 0.177700
usemtl None
s 1
f 209//1 196//2 1//3 178//4
f 178//4 1//3 2//5 177//6
f 177//6 2//5 3//7 181//8
f 181//8 3//7 4//9 182//10
f 182//10 4//9 5//11 180//12
f 180//12 5//11 6//13 179//14
f 179//14 6//13 7//15 173//16
f 173//16 7//15 8//17 174//18
f 174//18 8//17 9//19 176//20
f 176//20 9//19 10//21 175//22
f 175//22 10//21 11//23 171//24
f 171//24 11//23 12//25 172//26
f 172//26 12//25 13//27 170//28
f 196//2 200//29 14//30 1//3
f 1//3 14//30 15//31 2//5
f 2//5 15//31 16//32 3//7
f 3//7 16//32 17//33 4//9
f 4//9 17//33 18//34 5//11
f 5//11 18//34 19//35 6//13
f 6//13 19//35 20//36 7//15
f 7//15 20//36 21//37 8//17
f 8//17 21//37 22//38 9//19
f 9//19 22//38 23//39 10//21
f 10//21 23//39 24//40 11//23
f 11//23 24//40 25//41 12//25
f 12//25 25//41 26//42 13//27
f 200//29 198//43 27//44 14//30
f 14//30 27//44 28//45 15//31
f 15//31 28//45 29//46 16//32
f 16//32 29//46 30//47 17//33
f 17//33 30//47 31//48 18//34
f 18//34 31//48 32//49 19//35
f 19//35 32//49 33//50 20//36
f 20//36 33//50 34//51 21//37
f 21//37 34//51 35//52 22//38
f 22//38 35//52 36//53 23//39
f 23//39 36//53 37//54 24//40
f 24//40 37//54 38//55 25//41
f 25//41 38//55 39//56 26//42
f 198//43 205//57 40//58 27//44
f 27//44 40//58 41//59 28//45
f 28//45 41//59 42//60 29//46
f 29//46 42//60 43//61 30//47
f 30//47 43//61 44//62 31//48
f 31//48 44//62 45//63 32//49
f 32//49 45//63 46//64 33//50
f 33//50 46//64 47//65 34//51
f 34//51 47//65 48//66 35//52
f 35//52 48//66 49//67 36//53
f 36//53 49//67 50//68 37//54
f 37//54 50//68 51//69 38//55
f 38//55 51//69 52//70 39//56
f 205//57 207//71 53//72 40//58
f 40//58 53//72 54//73 41//59
f 41//59 54//73 55//74 42//60
f 42//60 55//74 56//75 43//61
f 43//61 56//75 57//76 44//62
f 44//62 57//76 58//77 45//63
f 45//63 58//77 59//78 46//64
f 46//64 59//78 60//79 47//65
f 47//65 60//79 61//80 48//66
f 48//66 61//80 62//81 49//67
f 49//67 62//81 63//82 50//68
f 50//68 63//82 64//83 51//69
f 51//69 64//83 65//84 52//70
f 207//71 197//85 66//86 53//72
f 53//72 66//86 67//87 54//73
f 54//73 67//87 68//88 55//74
f 55//74 68//88 69//89 56//75
f 56//75 69//89 70//90 57//76
f 57//76 70//90 71//91 58//77
f 58//77 71//91 72//92 59//78
f 59//78 72//92 73//93 60//79
f 60//79 73//93 74//94 61//80
f 61//80 74//94 75//95 62//81
f 62//81 75//95 76//96 63//82
f 63//82 76//96 77//97 64//83
f 64//83 77//97 78//98 65//84
f 197//85 201//99 79//100 66//86
f 66//86 79//100 80//101 67//87
f 67//87 80//101 81//102 68//88
f 68//88 81//102 82//103 69//89
f 69//89 82//103 83//104 70//90
f 70//90 83//104 84//105 71//91
f 71//91 84//105 85//106 72//92
f 72//92 85//106 86//107 73//93
f 73//93 86//107 87//108 74//94
f 74//94 87//108 88//109 75//95
f 75//95 88//109 89//110 76//96
f 76//96 89//110 90//111 77//97
f 77//97 90//111 91//112 78//98
f 201//99 199//113 92//114 79//100
f 79//100 92//114 93//115 80//101
f 80//101 93//115 94//116 81//102
f 81//102 94//116 95//117 82//103
f 82//103 95//117 96//118 83//104
f 83//104 96//118 97//119 84//105
f 84//105 97//119 98//120 85//106
f 85//106 98//120 99//121 86//107
f 86//107 99//121 100//122 87//108
f 87//108 100//122 101//123 88//109
f 88//109 101//123 102//124 89//110
f 89//110 102//124 103//125 90//111
f 90//111 103//125 104//126 91//112
f 199//113 203//127 105//128 92//114
f 92//114 105//128 106//129 93//115
f 93//115 106//129 107//130 94//116
f 94//116 107//130 108//131 95//117
f 95//117 108//131 109//132 96//118
f 96//118 109//132 110//133 97//119
f 97//119 110//133 111//134 98//120
f 98//120 111//134 112//135 99//121
f 99//121 112//135 113//136 100//122
f 100//122 113//136 114//137 101//123
f 101//123 114//137 115//138 102//124
f 102//124 115//138 116//139 103//125
f 103//125 116//139 117//140 104//126
f 203//127 204//141 118//142 105//128
f 105//128 118//142 119//143 106//129
f 106//129 119//143 120//144 107//130
f 107//130 120//144 121//145 108//131
f 108//131 121//145 122//146 109//132
f 109//132 122//146 123//147 110//133
f 110//133 123//147 124//148 111//134
f 111//134 124//148 125//149 112//135
f 112//135 125//149 126//150 113//136
f 113//136 126//150 127//151 114//137
f 114//137 127//151 128//152 115//138
f 115//138 128//152 129//153 116//139
f 116//139 129//153 130//154 117//140
f 204//141 206//155 131//156 118//142
f 118//142 131//156 132//157 119//143
f 119//143 132//157 133//158 120//144
f 120//144 133//158 134//159 121//145
f 121//145 134//159 135//160 122//146
f 122//146 135//160 136//161 123//147
f 123//147 136//161 137//162 124//148
f 124//148 137//162 138//163 125//149
f 125//149 138//163 139//164 126//150
f 126//150 139//164 140//165 127//151
f 127//151 140//165 141//166 128//152
f 128//152 141//166 142//167 129//153
f 129//153 142//167 143//168 130//154
f 206//155 202//169 144//170 131//156
f 131//156 144//170 145//171 132//157
f 132//157 145//171 146//172 133//158
f 133//158 146//172 147//173 134//159
f 134//159 147//173 148//174 135//160
f 135//160 148//174 149//175 136//161
f 136//161 149//175 150//176 137//162
f 137//162 150//176 151//177 138//163
f 138//163 151//177 152//178 139//164
f 139//164 152//178 153//179 140//165
f 140//165 153//179 154//180 141//166
f 141//166 154//180 155//181 142//167
f 142//167 155//181 156//182 143//168
f 202//169 208//183 157//184 144//170
f 144//170 157//184 158//185 145//171
f 145//171 158//185 159//186 146//172
f 146//172 159//186 160//187 147//173
f 147//173 160//187 161//188 148//174
f 148//174 161//188 162//189 149//175
f 149//175 162//189 163//190 150//176
f 150//176 163//190 164//191 151//177
f 151//177 164//191 165//192 152//178
f 152//178 165//192 166//193 153//179
f 153//179 166//193 167//194 154//180
f 154//180 167//194 168//195 155//181
f 155//181 168//195 169//196 156//182
f 167//194 184//197 185//198 168//195
f 168//195 185//198 183//199 169//196
f 163//190 186//200 187//201 164//191
f 166//193 188//202 184//197 167//194
f 164//191 187//201 189//203 165//192
f 165//192 189//203 188//202 166//193
f 208//183 210//204 190//205 157//184
f 157//184 190//205 191//206 158//185
f 158//185 191//206 192//207 159//186
f 162//189 193//208 186//200 163//190
f 161//188 194//209 193//208 162//189
f 159//186 192//207 195//210 160//187
f 160//187 195//210 194//209 161//188
f 169//196 183//199 211//211 212//212
f 117//140 130//154 213//213 214//214
f 39//56 52//70 215//215 216//216
f 52//70 65//84 217//217 215//215
f 26//42 39//56 216//216 218//218
f 170//28 13//27 219//219 220//220
f 13//27 26//42 218//218 219//219
f 156//182 169//196 212//212 221//221
f 130//154 143//168 222//222 213//213
f 143//168 156//182 221//221 222//222
f 91//112 104//126 223//223 224//224
f 104//126 117//140 214//214 223//223
f 65//84 78//98 225//225 217//217
f 78//98 91//112 224//224 225//225
