# Blender v2.73 (sub 0) OBJ File: 'untitled.blend'
# www.blender.org
mtllib Landscape.026.mtl
o Landscape.026
v -63.353535 9.308619 -65.939392
v -63.353535 9.038001 -68.525253
v -63.353535 8.646832 -71.111115
v -63.353535 7.945525 -73.696968
v -63.353535 7.381771 -76.282829
v -63.353535 7.684233 -78.868690
v -63.353535 7.104389 -81.454544
v -63.353535 6.479235 -84.040405
v -63.353535 6.036655 -86.626259
v -63.353535 5.307922 -89.212120
v -63.353535 4.657268 -91.797981
v -63.353535 4.088805 -94.383835
v -60.767677 10.475047 -65.939392
v -60.767677 9.538176 -68.525253
v -60.767677 9.163229 -71.111115
v -60.767677 8.496430 -73.696968
v -60.767677 7.839091 -76.282829
v -60.767677 7.451787 -78.868690
v -60.767677 6.665022 -81.454544
v -60.767677 6.125180 -84.040405
v -60.767677 5.596681 -86.626259
v -60.767677 5.049017 -89.212120
v -60.767677 4.313712 -91.797981
v -60.767677 3.727827 -94.383835
v -58.181820 11.614170 -65.939392
v -58.181820 10.182244 -68.525253
v -58.181820 9.402405 -71.111115
v -58.181820 8.567453 -73.696968
v -58.181820 7.850514 -76.282829
v -58.181820 6.952878 -78.868690
v -58.181820 6.128350 -81.454544
v -58.181820 5.871376 -84.040405
v -58.181820 5.170194 -86.626259
v -58.181820 4.626871 -89.212120
v -58.181820 3.907126 -91.797981
v -58.181820 3.519203 -94.383835
v -55.595959 12.109098 -65.939392
v -55.595959 10.580213 -68.525253
v -55.595959 9.755411 -71.111115
v -55.595959 8.296395 -73.696968
v -55.595959 7.583567 -76.282829
v -55.595959 6.723222 -78.868690
v -55.595959 5.736564 -81.454544
v -55.595959 5.303581 -84.040405
v -55.595959 4.611111 -86.626259
v -55.595959 4.077432 -89.212120
v -55.595959 3.588245 -91.797981
v -55.595959 3.269877 -94.383835
v -53.010101 12.871359 -65.939392
v -53.010101 11.898699 -68.525253
v -53.010101 10.001713 -71.111115
v -53.010101 8.416803 -73.696968
v -53.010101 7.422923 -76.282829
v -53.010101 6.562840 -78.868690
v -53.010101 5.546739 -81.454544
v -53.010101 5.121989 -84.040405
v -53.010101 4.327681 -86.626259
v -53.010101 3.714891 -89.212120
v -53.010101 3.417842 -91.797981
v -53.010101 3.070541 -94.383835
v -50.424244 14.089129 -65.939392
v -50.424244 12.466911 -68.525253
v -50.424244 10.359180 -71.111115
v -50.424244 8.646216 -73.696968
v -50.424244 7.810193 -76.282829
v -50.424244 7.005757 -78.868690
v -50.424244 5.762277 -81.454544
v -50.424244 4.874433 -84.040405
v -50.424244 4.151409 -86.626259
v -50.424244 3.823051 -89.212120
v -50.424244 3.380548 -91.797981
v -50.424244 2.835478 -94.383835
v -47.838383 15.215969 -65.939392
v -47.838383 12.861532 -68.525253
v -47.838383 11.252066 -71.111115
v -47.838383 9.412779 -73.696968
v -47.838383 8.096199 -76.282829
v -47.838383 7.211999 -78.868690
v -47.838383 6.137487 -81.454544
v -47.838383 5.011942 -84.040405
v -47.838383 4.190628 -86.626259
v -47.838383 3.826267 -89.212120
v -47.838383 3.292371 -91.797981
v -47.838383 2.695599 -94.383835
v -45.252525 15.236183 -65.939392
v -45.252525 14.263812 -68.525253
v -45.252525 12.318584 -71.111115
v -45.252525 10.374588 -73.696968
v -45.252525 8.377707 -76.282829
v -45.252525 7.054190 -78.868690
v -45.252525 6.150760 -81.454544
v -45.252525 4.964276 -84.040405
v -45.252525 4.111086 -86.626259
v -45.252525 3.686431 -89.212120
v -45.252525 3.236612 -91.797981
v -45.252525 2.844591 -94.383835
v -42.666668 15.746389 -65.939392
v -42.666668 14.482366 -68.525253
v -42.666668 12.623837 -71.111115
v -42.666668 10.675421 -73.696968
v -42.666668 9.147669 -76.282829
v -42.666668 7.685828 -78.868690
v -42.666668 6.197737 -81.454544
v -42.666668 4.856144 -84.040405
v -42.666668 4.226578 -86.626259
v -42.666668 3.659417 -89.212120
v -42.666668 3.058356 -91.797981
v -42.666668 2.895143 -94.383835
v -40.080807 14.597276 -65.939392
v -40.080807 13.832522 -68.525253
v -40.080807 12.339972 -71.111115
v -40.080807 11.238339 -73.696968
v -40.080807 9.806867 -76.282829
v -40.080807 7.820289 -78.868690
v -40.080807 6.168014 -81.454544
v -40.080807 5.146667 -84.040405
v -40.080807 4.380637 -86.626259
v -40.080807 3.712075 -89.212120
v -40.080807 3.220663 -91.797981
v -40.080807 3.139214 -94.383835
v -37.494949 13.951884 -65.939392
v -37.494949 13.046191 -68.525253
v -37.494949 12.173010 -71.111115
v -37.494949 11.346109 -73.696968
v -37.494949 9.616093 -76.282829
v -37.494949 7.730448 -78.868690
v -37.494949 6.671645 -81.454544
v -37.494949 5.604700 -84.040405
v -37.494949 4.581692 -86.626259
v -37.494949 4.107390 -89.212120
v -37.494949 3.658451 -91.797981
v -37.494949 3.393328 -94.383835
v -34.909092 13.431279 -65.939392
v -34.909092 13.086801 -68.525253
v -34.909092 12.619282 -71.111115
v -34.909092 12.116801 -73.696968
v -34.909092 10.450529 -76.282829
v -34.909092 8.407562 -78.868690
v -34.909092 7.310366 -81.454544
v -34.909092 6.146495 -84.040405
v -34.909092 5.185125 -86.626259
v -34.909092 4.509547 -89.212120
v -34.909092 3.992329 -91.797981
v -34.909092 3.689782 -94.383835
v -32.323231 13.713545 -65.939392
v -32.323231 12.943107 -68.525253
v -32.323231 12.236176 -71.111115
v -32.323231 11.966348 -73.696968
v -32.323231 11.079627 -76.282829
v -32.323231 9.120577 -78.868690
v -32.323231 7.993972 -81.454544
v -32.323231 6.645571 -84.040405
v -32.323231 5.636560 -86.626259
v -32.323231 4.830546 -89.212120
v -32.323231 4.177071 -91.797981
v -32.323231 3.840932 -94.383835
v -64.000000 8.916853 -68.525253
v -64.000000 9.138389 -65.939392
v -64.000000 8.402429 -71.111115
v -64.000000 7.688578 -73.696968
v -64.000000 7.226936 -76.282829
v -64.000000 7.061854 -81.454544
v -64.000000 7.473725 -78.868690
v -64.000000 4.144045 -94.383835
v -64.000000 5.335150 -89.212120
v -64.000000 6.467744 -84.040405
v -64.000000 6.053445 -86.626259
v -64.000000 4.730463 -91.797981
v -32.000000 4.197370 -91.797981
v -32.000000 3.877789 -94.383835
v -32.000000 5.661888 -86.626259
v -32.000000 4.855886 -89.212120
v -32.000000 6.682184 -84.040405
v -32.000000 7.972012 -81.454544
v -32.000000 13.721208 -65.939392
v -32.000000 12.984436 -68.525253
v -32.000000 12.243107 -71.111115
v -32.000000 11.959784 -73.696968
v -32.000000 11.072483 -76.282829
v -32.000000 9.100658 -78.868690
v -60.767677 11.183660 -64.000000
v -55.595959 13.018403 -64.000000
v -47.838383 15.578977 -64.000000
v -58.181820 12.076615 -64.000000
v -45.252525 15.695072 -64.000000
v -40.080807 15.102665 -64.000000
v -32.323231 13.860689 -64.000000
v -50.424244 14.589375 -64.000000
v -63.353535 9.586590 -64.000000
v -34.909092 14.192135 -64.000000
v -53.010101 13.981703 -64.000000
v -37.494949 14.673915 -64.000000
v -42.666668 16.041597 -64.000000
v -64.000000 9.341494 -64.000000
v -32.000000 13.864120 -64.000000
v -53.010101 2.885682 -96.000000
v -55.595959 3.076112 -96.000000
v -50.424244 2.667431 -96.000000
v -34.909092 3.480726 -96.000000
v -37.494949 3.258543 -96.000000
v -40.080807 3.103618 -96.000000
v -58.181820 3.227326 -96.000000
v -32.323231 3.693106 -96.000000
v -32.000000 3.723430 -96.000000
v -60.767677 3.404706 -96.000000
v -63.353535 3.613753 -96.000000
v -64.000000 3.675908 -96.000000
v -47.838383 2.548506 -96.000000
v -45.252525 2.629139 -96.000000
v -42.666668 2.873257 -96.000000
vn -0.303700 0.945500 -0.117300
vn -0.386900 0.906100 -0.171000
vn -0.321300 0.933000 -0.162200
vn -0.260900 0.959700 -0.104800
vn -0.244300 0.957300 -0.154700
vn -0.244300 0.961000 -0.130000
vn -0.250600 0.946700 -0.202400
vn -0.312000 0.926800 -0.209200
vn -0.259300 0.938300 -0.228600
vn -0.323200 0.921600 -0.215000
vn -0.204100 0.975500 -0.082100
vn -0.287300 0.956900 -0.041500
vn -0.095300 0.991400 -0.089800
vn -0.232000 0.971800 -0.043000
vn 0.010400 0.974600 -0.223500
vn -0.114500 0.971400 -0.207900
vn 0.065500 0.977800 -0.199100
vn -0.018300 0.980300 -0.196500
vn 0.079200 0.973700 -0.213600
vn 0.018400 0.976100 -0.216500
vn 0.087700 0.964300 -0.249900
vn 0.053900 0.966100 -0.252500
vn 0.103900 0.967300 -0.231500
vn 0.085700 0.970300 -0.226200
vn 0.105500 0.965500 -0.237800
vn 0.091800 0.964500 -0.247700
vn -0.401600 0.881700 -0.247700
vn -0.357000 0.891000 -0.280300
vn -0.239700 0.939900 -0.242900
vn -0.152000 0.963000 -0.222300
vn -0.114100 0.960400 -0.253900
vn -0.039900 0.981400 -0.187600
vn 0.090400 0.975100 -0.202500
vn 0.153200 0.961100 -0.229600
vn 0.143500 0.970300 -0.194600
vn 0.140900 0.966600 -0.213800
vn 0.138200 0.960500 -0.241400
vn 0.128500 0.964300 -0.231600
vn 0.106900 0.972600 -0.206300
vn -0.300800 0.905900 -0.298300
vn -0.263600 0.889700 -0.372800
vn -0.191400 0.916000 -0.352600
vn -0.093500 0.949400 -0.299900
vn 0.002500 0.952900 -0.303300
vn 0.066600 0.960300 -0.270800
vn 0.121500 0.947400 -0.296200
vn 0.157700 0.961200 -0.226400
vn 0.165600 0.967500 -0.191000
vn 0.174600 0.959200 -0.222300
vn 0.169800 0.959600 -0.224300
vn 0.134800 0.969900 -0.202800
vn 0.093500 0.982100 -0.163300
vn -0.270600 0.880500 -0.389300
vn -0.260700 0.871400 -0.415500
vn -0.218700 0.882300 -0.416700
vn -0.119000 0.901100 -0.416900
vn 0.008800 0.927500 -0.373700
vn 0.064000 0.950500 -0.304100
vn 0.081400 0.940100 -0.331100
vn 0.107600 0.963100 -0.246600
vn 0.136800 0.968700 -0.207100
vn 0.154600 0.959300 -0.236300
vn 0.147200 0.969100 -0.197800
vn 0.110400 0.981100 -0.158900
vn 0.082400 0.987900 -0.131600
vn -0.298400 0.866400 -0.400400
vn -0.306000 0.857100 -0.414300
vn -0.259600 0.838300 -0.479400
vn -0.140600 0.839100 -0.525500
vn -0.065800 0.903300 -0.423900
vn -0.049400 0.947200 -0.316700
vn -0.036200 0.937200 -0.347000
vn 0.006500 0.956100 -0.292900
vn 0.060200 0.968400 -0.241800
vn 0.075000 0.968400 -0.237800
vn 0.055300 0.983600 -0.171300
vn 0.052600 0.987700 -0.147200
vn 0.071000 0.988900 -0.130500
vn -0.343200 0.896400 -0.280500
vn -0.301400 0.860600 -0.410500
vn -0.218800 0.806600 -0.549000
vn -0.174700 0.805100 -0.566800
vn -0.160700 0.878800 -0.449100
vn -0.133700 0.934300 -0.330500
vn -0.115200 0.928000 -0.354200
vn -0.076700 0.931900 -0.354400
vn -0.009600 0.955700 -0.294300
vn 0.012500 0.975400 -0.220000
vn 0.001900 0.987100 -0.159800
vn 0.024400 0.983700 -0.178100
vn 0.058000 0.987300 -0.147800
vn -0.197300 0.958100 -0.207800
vn -0.219600 0.898000 -0.381300
vn -0.261300 0.788000 -0.557400
vn -0.277500 0.783900 -0.555400
vn -0.234700 0.828100 -0.509000
vn -0.124100 0.906300 -0.404000
vn -0.047200 0.929000 -0.366900
vn -0.040600 0.922200 -0.384500
vn -0.024100 0.939400 -0.341900
vn 0.006100 0.975400 -0.220400
vn 0.021800 0.986200 -0.163900
vn 0.019700 0.980800 -0.193900
vn 0.007700 0.988200 -0.152900
vn -0.094200 0.975600 -0.198100
vn -0.136600 0.932100 -0.335400
vn -0.194300 0.834700 -0.515300
vn -0.215000 0.790400 -0.573600
vn -0.195500 0.802300 -0.564000
vn -0.158900 0.859300 -0.486000
vn -0.084800 0.908800 -0.408400
vn -0.018800 0.913600 -0.406200
vn 0.009700 0.933300 -0.358900
vn 0.011800 0.972900 -0.230800
vn 0.025200 0.983100 -0.181300
vn 0.020700 0.985100 -0.170400
vn -0.023500 0.992500 -0.120000
vn 0.104700 0.975200 -0.195200
vn 0.098600 0.953600 -0.284400
vn 0.065800 0.878700 -0.472800
vn -0.015700 0.826900 -0.562200
vn -0.129900 0.832300 -0.538900
vn -0.179500 0.836600 -0.517600
vn -0.125800 0.862700 -0.489800
vn -0.042900 0.892700 -0.448600
vn -0.030100 0.937200 -0.347500
vn -0.034800 0.970300 -0.239300
vn -0.014300 0.978300 -0.206600
vn -0.014000 0.990100 -0.139900
vn -0.050500 0.996800 -0.061300
vn 0.286000 0.927400 -0.241100
vn 0.280800 0.916200 -0.285900
vn 0.220400 0.888400 -0.402600
vn 0.069600 0.888000 -0.454500
vn -0.053500 0.881000 -0.470000
vn -0.069500 0.838200 -0.540800
vn -0.043100 0.843500 -0.535400
vn -0.077400 0.893700 -0.441800
vn -0.104000 0.933300 -0.343500
vn -0.088400 0.962100 -0.257800
vn -0.087300 0.974300 -0.207600
vn -0.101900 0.987000 -0.124400
vn -0.095200 0.994400 -0.045900
vn 0.186600 0.927900 -0.322700
vn 0.181400 0.937600 -0.296700
vn 0.104400 0.947300 -0.302800
vn -0.036300 0.947800 -0.316900
vn -0.116400 0.898500 -0.423200
vn -0.105500 0.816200 -0.568000
vn -0.121700 0.852500 -0.508300
vn -0.167500 0.900600 -0.400900
vn -0.174900 0.917100 -0.358300
vn -0.155100 0.948700 -0.275500
vn -0.148000 0.969200 -0.196700
vn -0.137200 0.981500 -0.133600
vn -0.107700 0.990700 -0.083100
vn 0.097300 0.951000 -0.293600
vn 0.062000 0.964600 -0.256100
vn 0.017900 0.973100 -0.229500
vn -0.027800 0.975600 -0.217500
vn -0.113600 0.932800 -0.342100
vn -0.194300 0.815800 -0.544700
vn -0.226900 0.841600 -0.490100
vn -0.218800 0.892600 -0.394100
vn -0.194400 0.904700 -0.379100
vn -0.175500 0.938200 -0.298300
vn -0.140800 0.964800 -0.222000
vn -0.104700 0.981800 -0.158300
vn -0.088400 0.989800 -0.111400
vn -0.003900 0.988400 -0.151900
vn -0.026700 0.979600 -0.198800
vn -0.017600 0.969200 -0.245400
vn 0.032000 0.982000 -0.186100
vn 0.009300 0.966000 -0.258400
vn -0.055500 0.866700 -0.495700
vn -0.088900 0.855200 -0.510600
vn -0.101700 0.902400 -0.418600
vn -0.121600 0.908000 -0.400900
vn -0.119200 0.939200 -0.321900
vn -0.095300 0.961100 -0.258900
vn -0.079000 0.980800 -0.178400
vn -0.081100 0.990300 -0.112400
vn -0.077900 0.979400 -0.186100
vn -0.095100 0.989500 -0.109100
vn -0.081900 0.940000 -0.331100
vn -0.071500 0.959800 -0.271500
vn -0.053600 0.910000 -0.411100
vn 0.018800 0.903700 -0.427700
vn -0.045000 0.983100 -0.177600
vn -0.072100 0.959000 -0.274100
vn -0.017100 0.997100 -0.074600
vn -0.036400 0.981400 -0.188600
vn 0.009800 0.976100 -0.217000
vn 0.027100 0.881400 -0.471500
vn 0.046900 0.862700 -0.503500
vn 0.080800 0.990400 -0.112100
vn 0.075500 0.988400 -0.132000
vn 0.068200 0.992400 -0.102500
vn -0.084600 0.990600 -0.107400
vn -0.089000 0.992900 -0.078800
vn -0.085100 0.995800 -0.035100
vn 0.074800 0.983100 -0.167200
vn -0.086200 0.991100 -0.101100
vn -0.102900 0.990400 -0.092600
vn 0.089700 0.973100 -0.212300
vn 0.096800 0.961200 -0.258500
vn 0.086800 0.956300 -0.279100
vn 0.002800 0.994500 -0.104300
vn -0.050400 0.994500 -0.092400
vn -0.074100 0.996200 -0.045500
usemtl None
s 1
f 194//1 189//2 1//3 158//4
f 158//4 1//3 2//5 157//6
f 157//6 2//5 3//7 159//8
f 159//8 3//7 4//9 160//10
f 160//10 4//9 5//11 161//12
f 161//12 5//11 6//13 163//14
f 163//14 6//13 7//15 162//16
f 162//16 7//15 8//17 166//18
f 166//18 8//17 9//19 167//20
f 167//20 9//19 10//21 165//22
f 165//22 10//21 11//23 168//24
f 168//24 11//23 12//25 164//26
f 189//2 181//27 13//28 1//3
f 1//3 13//28 14//29 2//5
f 2//5 14//29 15//30 3//7
f 3//7 15//30 16//31 4//9
f 4//9 16//31 17//32 5//11
f 5//11 17//32 18//33 6//13
f 6//13 18//33 19//34 7//15
f 7//15 19//34 20//35 8//17
f 8//17 20//35 21//36 9//19
f 9//19 21//36 22//37 10//21
f 10//21 22//37 23//38 11//23
f 11//23 23//38 24//39 12//25
f 181//27 184//40 25//41 13//28
f 13//28 25//41 26//42 14//29
f 14//29 26//42 27//43 15//30
f 15//30 27//43 28//44 16//31
f 16//31 28//44 29//45 17//32
f 17//32 29//45 30//46 18//33
f 18//33 30//46 31//47 19//34
f 19//34 31//47 32//48 20//35
f 20//35 32//48 33//49 21//36
f 21//36 33//49 34//50 22//37
f 22//37 34//50 35//51 23//38
f 23//38 35//51 36//52 24//39
f 184//40 182//53 37//54 25//41
f 25//41 37//54 38//55 26//42
f 26//42 38//55 39//56 27//43
f 27//43 39//56 40//57 28//44
f 28//44 40//57 41//58 29//45
f 29//45 41//58 42//59 30//46
f 30//46 42//59 43//60 31//47
f 31//47 43//60 44//61 32//48
f 32//48 44//61 45//62 33//49
f 33//49 45//62 46//63 34//50
f 34//50 46//63 47//64 35//51
f 35//51 47//64 48//65 36//52
f 182//53 191//66 49//67 37//54
f 37//54 49//67 50//68 38//55
f 38//55 50//68 51//69 39//56
f 39//56 51//69 52//70 40//57
f 40//57 52//70 53//71 41//58
f 41//58 53//71 54//72 42//59
f 42//59 54//72 55//73 43//60
f 43//60 55//73 56//74 44//61
f 44//61 56//74 57//75 45//62
f 45//62 57//75 58//76 46//63
f 46//63 58//76 59//77 47//64
f 47//64 59//77 60//78 48//65
f 191//66 188//79 61//80 49//67
f 49//67 61//80 62//81 50//68
f 50//68 62//81 63//82 51//69
f 51//69 63//82 64//83 52//70
f 52//70 64//83 65//84 53//71
f 53//71 65//84 66//85 54//72
f 54//72 66//85 67//86 55//73
f 55//73 67//86 68//87 56//74
f 56//74 68//87 69//88 57//75
f 57//75 69//88 70//89 58//76
f 58//76 70//89 71//90 59//77
f 59//77 71//90 72//91 60//78
f 188//79 183//92 73//93 61//80
f 61//80 73//93 74//94 62//81
f 62//81 74//94 75//95 63//82
f 63//82 75//95 76//96 64//83
f 64//83 76//96 77//97 65//84
f 65//84 77//97 78//98 66//85
f 66//85 78//98 79//99 67//86
f 67//86 79//99 80//100 68//87
f 68//87 80//100 81//101 69//88
f 69//88 81//101 82//102 70//89
f 70//89 82//102 83//103 71//90
f 71//90 83//103 84//104 72//91
f 183//92 185//105 85//106 73//93
f 73//93 85//106 86//107 74//94
f 74//94 86//107 87//108 75//95
f 75//95 87//108 88//109 76//96
f 76//96 88//109 89//110 77//97
f 77//97 89//110 90//111 78//98
f 78//98 90//111 91//112 79//99
f 79//99 91//112 92//113 80//100
f 80//100 92//113 93//114 81//101
f 81//101 93//114 94//115 82//102
f 82//102 94//115 95//116 83//103
f 83//103 95//116 96//117 84//104
f 185//105 193//118 97//119 85//106
f 85//106 97//119 98//120 86//107
f 86//107 98//120 99//121 87//108
f 87//108 99//121 100//122 88//109
f 88//109 100//122 101//123 89//110
f 89//110 101//123 102//124 90//111
f 90//111 102//124 103//125 91//112
f 91//112 103//125 104//126 92//113
f 92//113 104//126 105//127 93//114
f 93//114 105//127 106//128 94//115
f 94//115 106//128 107//129 95//116
f 95//116 107//129 108//130 96//117
f 193//118 186//131 109//132 97//119
f 97//119 109//132 110//133 98//120
f 98//120 110//133 111//134 99//121
f 99//121 111//134 112//135 100//122
f 100//122 112//135 113//136 101//123
f 101//123 113//136 114//137 102//124
f 102//124 114//137 115//138 103//125
f 103//125 115//138 116//139 104//126
f 104//126 116//139 117//140 105//127
f 105//127 117//140 118//141 106//128
f 106//128 118//141 119//142 107//129
f 107//129 119//142 120//143 108//130
f 186//131 192//144 121//145 109//132
f 109//132 121//145 122//146 110//133
f 110//133 122//146 123//147 111//134
f 111//134 123//147 124//148 112//135
f 112//135 124//148 125//149 113//136
f 113//136 125//149 126//150 114//137
f 114//137 126//150 127//151 115//138
f 115//138 127//151 128//152 116//139
f 116//139 128//152 129//153 117//140
f 117//140 129//153 130//154 118//141
f 118//141 130//154 131//155 119//142
f 119//142 131//155 132//156 120//143
f 192//144 190//157 133//158 121//145
f 121//145 133//158 134//159 122//146
f 122//146 134//159 135//160 123//147
f 123//147 135//160 136//161 124//148
f 124//148 136//161 137//162 125//149
f 125//149 137//162 138//163 126//150
f 126//150 138//163 139//164 127//151
f 127//151 139//164 140//165 128//152
f 128//152 140//165 141//166 129//153
f 129//153 141//166 142//167 130//154
f 130//154 142//167 143//168 131//155
f 131//155 143//168 144//169 132//156
f 190//157 187//170 145//171 133//158
f 133//158 145//171 146//172 134//159
f 134//159 146//172 147//173 135//160
f 135//160 147//173 148//174 136//161
f 136//161 148//174 149//175 137//162
f 137//162 149//175 150//176 138//163
f 138//163 150//176 151//177 139//164
f 139//164 151//177 152//178 140//165
f 140//165 152//178 153//179 141//166
f 141//166 153//179 154//180 142//167
f 142//167 154//180 155//181 143//168
f 143//168 155//181 156//182 144//169
f 155//181 169//183 170//184 156//182
f 153//179 171//185 172//186 154//180
f 154//180 172//186 169//183 155//181
f 152//178 173//187 171//185 153//179
f 151//177 174//188 173//187 152//178
f 145//171 175//189 176//190 146//172
f 187//170 195//191 175//189 145//171
f 146//172 176//190 177//192 147//173
f 147//173 177//192 178//193 148//174
f 148//174 178//193 179//194 149//175
f 149//175 179//194 180//195 150//176
f 150//176 180//195 174//188 151//177
f 48//65 60//78 196//196 197//197
f 60//78 72//91 198//198 196//196
f 132//156 144//169 199//199 200//200
f 120//143 132//156 200//200 201//201
f 36//52 48//65 197//197 202//202
f 144//169 156//182 203//203 199//199
f 156//182 170//184 204//204 203//203
f 24//39 36//52 202//202 205//205
f 164//26 12//25 206//206 207//207
f 12//25 24//39 205//205 206//206
f 72//91 84//104 208//208 198//198
f 84//104 96//117 209//209 208//208
f 96//117 108//130 210//210 209//209
f 108//130 120//143 201//201 210//210
