# Blender v2.73 (sub 0) OBJ File: 'untitled.blend'
# www.blender.org
mtllib Landscape.030.mtl
o Landscape.030
v -29.737373 4.816394 94.383835
v -29.737373 5.704116 91.797981
v -29.737373 6.607174 89.212120
v -29.737373 7.885661 86.626259
v -29.737373 9.222563 84.040405
v -29.737373 11.447911 81.454544
v -29.737373 12.823009 78.868690
v -29.737373 14.339516 76.282829
v -29.737373 15.762514 73.696968
v -29.737373 15.612286 71.111115
v -29.737373 15.356266 68.525253
v -29.737373 15.631524 65.939392
v -27.151516 4.879394 94.383835
v -27.151516 5.652357 91.797981
v -27.151516 6.889736 89.212120
v -27.151516 8.136317 86.626259
v -27.151516 9.223858 84.040405
v -27.151516 10.716063 81.454544
v -27.151516 11.977627 78.868690
v -27.151516 13.906569 76.282829
v -27.151516 14.635627 73.696968
v -27.151516 15.564750 71.111115
v -27.151516 15.649027 68.525253
v -27.151516 16.102686 65.939392
v -24.565657 4.995884 94.383835
v -24.565657 5.883136 91.797981
v -24.565657 7.047137 89.212120
v -24.565657 7.907386 86.626259
v -24.565657 8.795718 84.040405
v -24.565657 9.911905 81.454544
v -24.565657 11.117166 78.868690
v -24.565657 12.680511 76.282829
v -24.565657 13.435726 73.696968
v -24.565657 14.250802 71.111115
v -24.565657 14.845700 68.525253
v -24.565657 15.317735 65.939392
v -21.979797 5.212684 94.383835
v -21.979797 6.249557 91.797981
v -21.979797 7.131896 89.212120
v -21.979797 7.764401 86.626259
v -21.979797 8.583591 84.040405
v -21.979797 9.847495 81.454544
v -21.979797 10.645175 78.868690
v -21.979797 12.312095 76.282829
v -21.979797 13.371689 73.696968
v -21.979797 13.797286 71.111115
v -21.979797 14.046407 68.525253
v -21.979797 14.569495 65.939392
v -19.393940 5.427381 94.383835
v -19.393940 6.327125 91.797981
v -19.393940 7.210096 89.212120
v -19.393940 7.747682 86.626259
v -19.393940 8.412237 84.040405
v -19.393940 9.335487 81.454544
v -19.393940 10.912743 78.868690
v -19.393940 11.181215 76.282829
v -19.393940 12.442636 73.696968
v -19.393940 13.205124 71.111115
v -19.393940 14.140832 68.525253
v -19.393940 14.855314 65.939392
v -16.808081 5.279719 94.383835
v -16.808081 6.087126 91.797981
v -16.808081 6.824626 89.212120
v -16.808081 7.733757 86.626259
v -16.808081 8.227882 84.040405
v -16.808081 9.108831 81.454544
v -16.808081 10.226151 78.868690
v -16.808081 11.169209 76.282829
v -16.808081 11.931000 73.696968
v -16.808081 12.332332 71.111115
v -16.808081 13.765489 68.525253
v -16.808081 14.725347 65.939392
v -14.222222 5.086596 94.383835
v -14.222222 5.704197 91.797981
v -14.222222 6.422596 89.212120
v -14.222222 7.497809 86.626259
v -14.222222 8.572809 84.040405
v -14.222222 9.513994 81.454544
v -14.222222 10.292400 78.868690
v -14.222222 11.407213 76.282829
v -14.222222 11.113893 73.696968
v -14.222222 11.019662 71.111115
v -14.222222 12.331129 68.525253
v -14.222222 13.763628 65.939392
v -11.636364 4.662787 94.383835
v -11.636364 5.525348 91.797981
v -11.636364 6.494899 89.212120
v -11.636364 8.008781 86.626259
v -11.636364 9.342211 84.040405
v -11.636364 9.435781 81.454544
v -11.636364 9.768758 78.868690
v -11.636364 10.376425 76.282829
v -11.636364 10.459484 73.696968
v -11.636364 10.702074 71.111115
v -11.636364 11.582395 68.525253
v -11.636364 12.372466 65.939392
v -9.050505 4.396571 94.383835
v -9.050505 5.429979 91.797981
v -9.050505 6.616930 89.212120
v -9.050505 8.189443 86.626259
v -9.050505 9.228314 84.040405
v -9.050505 9.181307 81.454544
v -9.050505 9.214506 78.868690
v -9.050505 9.479619 76.282829
v -9.050505 9.298451 73.696968
v -9.050505 9.755616 71.111115
v -9.050505 10.893145 68.525253
v -9.050505 11.455741 65.939392
v -6.464646 4.332730 94.383835
v -6.464646 5.466886 91.797981
v -6.464646 6.585331 89.212120
v -6.464646 8.132736 86.626259
v -6.464646 9.109294 84.040405
v -6.464646 9.107665 81.454544
v -6.464646 8.783467 78.868690
v -6.464646 8.328207 76.282829
v -6.464646 8.373842 73.696968
v -6.464646 9.138898 71.111115
v -6.464646 10.200948 68.525253
v -6.464646 10.492738 65.939392
v -3.878788 4.820704 94.383835
v -3.878788 5.937928 91.797981
v -3.878788 7.112857 89.212120
v -3.878788 8.096713 86.626259
v -3.878788 8.840956 84.040405
v -3.878788 8.949790 81.454544
v -3.878788 8.739721 78.868690
v -3.878788 7.859423 76.282829
v -3.878788 8.321678 73.696968
v -3.878788 8.935975 71.111115
v -3.878788 9.502747 68.525253
v -3.878788 9.899070 65.939392
v -1.292929 4.901471 94.383835
v -1.292929 6.026772 91.797981
v -1.292929 7.348737 89.212120
v -1.292929 8.385506 86.626259
v -1.292929 9.242496 84.040405
v -1.292929 9.195102 81.454544
v -1.292929 9.086173 78.868690
v -1.292929 8.482979 76.282829
v -1.292929 8.790884 73.696968
v -1.292929 9.337839 71.111115
v -1.292929 9.574463 68.525253
v -1.292929 10.010658 65.939392
v -32.000000 8.287607 86.626259
v -32.000000 9.934882 84.040405
v -32.000000 7.003793 89.212120
v -32.000000 5.793037 91.797981
v -32.000000 4.582532 94.383835
v -32.000000 15.288560 76.282829
v -32.000000 13.237425 78.868690
v -32.000000 11.910110 81.454544
v -32.000000 15.784088 73.696968
v -32.000000 15.814153 65.939392
v -32.000000 15.271824 68.525253
v -32.000000 15.648214 71.111115
v 0.000000 9.892009 65.939392
v 0.000000 9.641779 68.525253
v 0.000000 9.425743 71.111115
v 0.000000 9.192224 73.696968
v 0.000000 6.067904 91.797981
v 0.000000 7.202270 89.212120
v 0.000000 4.841977 94.383835
v 0.000000 8.269238 86.626259
v 0.000000 9.254446 84.040405
v 0.000000 9.462935 81.454544
v 0.000000 9.512684 78.868690
v 0.000000 9.178386 76.282829
v -21.979797 4.413653 96.000000
v -16.808081 4.638767 96.000000
v -29.737373 4.147821 96.000000
v -1.292929 4.174704 96.000000
v -19.393940 4.628083 96.000000
v -14.222222 4.561663 96.000000
v -6.464646 3.885171 96.000000
v -27.151516 4.346693 96.000000
v -11.636364 4.268406 96.000000
v -9.050505 4.053452 96.000000
v -24.565657 4.328157 96.000000
v -3.878788 4.240919 96.000000
v -32.000000 4.044583 96.000000
v 0.000000 4.071955 96.000000
v -24.565657 15.468011 64.000000
v -27.151516 15.970468 64.000000
v -1.292929 10.417439 64.000000
v -3.878788 10.543782 64.000000
v 0.000000 10.329735 64.000000
v -14.222222 13.357797 64.000000
v -16.808081 14.385320 64.000000
v -11.636364 12.567018 64.000000
v -6.464646 10.867949 64.000000
v -19.393940 14.720872 64.000000
v -29.737373 16.149349 64.000000
v -32.000000 16.432459 64.000000
v -9.050505 11.991487 64.000000
v -21.979797 14.604230 64.000000
vn -0.069600 0.934600 0.348900
vn -0.058700 0.935500 0.348400
vn -0.037000 0.937900 0.345000
vn -0.050100 0.930800 0.362100
vn 0.006200 0.932600 0.360900
vn 0.035300 0.925600 0.376900
vn 0.030200 0.911700 0.409700
vn 0.129000 0.903200 0.409400
vn 0.056600 0.891000 0.450400
vn 0.184000 0.865800 0.465400
vn 0.119600 0.840200 0.528900
vn 0.203000 0.801700 0.562200
vn 0.190900 0.828900 0.525700
vn 0.183300 0.825200 0.534300
vn 0.216500 0.838700 0.499600
vn 0.207700 0.836000 0.507900
vn 0.230500 0.858300 0.458400
vn 0.218300 0.872000 0.438200
vn 0.174700 0.964200 0.199200
vn 0.107600 0.983400 0.146400
vn 0.043900 0.998900 -0.016300
vn 0.001000 0.996100 -0.088300
vn -0.045400 0.998300 0.035100
vn 0.005400 0.999800 0.017400
vn -0.020800 0.985300 0.169300
vn 0.060500 0.973800 0.219300
vn -0.032700 0.936900 0.348100
vn -0.032600 0.944500 0.326900
vn -0.043700 0.934500 0.353200
vn -0.047900 0.913000 0.405100
vn -0.000500 0.916700 0.399400
vn 0.101000 0.885000 0.454400
vn 0.215200 0.854400 0.472800
vn 0.268800 0.833300 0.483000
vn 0.303000 0.853800 0.423300
vn 0.333600 0.902700 0.271600
vn 0.243400 0.961100 0.130000
vn 0.122000 0.987200 0.102100
vn 0.083300 0.991100 0.104100
vn -0.035400 0.924100 0.380600
vn -0.059900 0.933400 0.353800
vn -0.079700 0.929300 0.360500
vn -0.031300 0.931900 0.361200
vn 0.051400 0.942100 0.331200
vn 0.109200 0.917500 0.382300
vn 0.157300 0.898400 0.410100
vn 0.207800 0.863200 0.460100
vn 0.239800 0.874200 0.422200
vn 0.254700 0.925700 0.279400
vn 0.286800 0.935800 0.204900
vn 0.296900 0.941900 0.156800
vn 0.278700 0.955100 0.100400
vn -0.063500 0.901900 0.427200
vn -0.071800 0.918600 0.388500
vn -0.066700 0.935500 0.347000
vn -0.027500 0.954300 0.297500
vn 0.024700 0.962000 0.271800
vn 0.067900 0.934700 0.348900
vn 0.076200 0.915100 0.395900
vn 0.106700 0.905000 0.411900
vn 0.184600 0.896000 0.403800
vn 0.197600 0.936100 0.290800
vn 0.173900 0.962600 0.207600
vn 0.134700 0.970500 0.200000
vn 0.110800 0.987500 0.111900
vn -0.025600 0.904700 0.425300
vn -0.007700 0.925600 0.378300
vn 0.026400 0.946600 0.321400
vn 0.036900 0.959900 0.277700
vn 0.033700 0.968700 0.246000
vn 0.067000 0.950600 0.303100
vn 0.100200 0.911700 0.398400
vn 0.121300 0.924900 0.360200
vn 0.176400 0.927000 0.330800
vn 0.246800 0.922100 0.297900
vn 0.211900 0.939500 0.269100
vn 0.081700 0.952400 0.293700
vn 0.008600 0.995000 0.099200
vn 0.036700 0.927100 0.373100
vn 0.062900 0.941400 0.331300
vn 0.109300 0.952000 0.285700
vn 0.112200 0.947800 0.298600
vn 0.051100 0.957500 0.283700
vn -0.010300 0.956300 0.292300
vn 0.001400 0.930300 0.366700
vn 0.037200 0.933900 0.355500
vn 0.070000 0.961500 0.265700
vn 0.213900 0.959300 0.184400
vn 0.328700 0.900900 0.283300
vn 0.281100 0.879100 0.384900
vn 0.235900 0.966500 0.100700
vn 0.091400 0.948000 0.305000
vn 0.099500 0.952600 0.287500
vn 0.095200 0.955400 0.279400
vn 0.045100 0.936900 0.346500
vn -0.054600 0.923200 0.380200
vn -0.129400 0.941100 0.312300
vn -0.059100 0.960800 0.271000
vn 0.064800 0.948200 0.311000
vn 0.161600 0.969700 0.183100
vn 0.249400 0.967800 0.033100
vn 0.295600 0.928900 0.223200
vn 0.344900 0.852000 0.393900
vn 0.384400 0.913300 0.134200
vn 0.111000 0.962900 0.246100
vn 0.099900 0.955300 0.278300
vn 0.048200 0.943200 0.328600
vn -0.034200 0.909300 0.414700
vn -0.097500 0.888500 0.448400
vn -0.071000 0.963000 0.259700
vn 0.052700 0.991100 0.121600
vn 0.203100 0.961200 0.186400
vn 0.308600 0.945300 0.105200
vn 0.311900 0.949800 0.024800
vn 0.261100 0.938500 0.225800
vn 0.276800 0.900200 0.336000
vn 0.330900 0.923800 0.192300
vn 0.066700 0.971000 0.229600
vn 0.051200 0.953200 0.297800
vn 0.016300 0.924600 0.380700
vn -0.010500 0.889500 0.456800
vn -0.003700 0.891600 0.452700
vn 0.032600 0.979400 0.199100
vn 0.090000 0.995900 0.003300
vn 0.204000 0.978300 0.034500
vn 0.326600 0.944900 0.022100
vn 0.350000 0.933600 0.077200
vn 0.292800 0.917400 0.269500
vn 0.276900 0.918600 0.281900
vn 0.308400 0.930200 0.198900
vn -0.054700 0.961400 0.269600
vn -0.068100 0.941400 0.330200
vn -0.084700 0.913400 0.398100
vn -0.062600 0.895000 0.441500
vn 0.004400 0.911900 0.410400
vn 0.052400 0.983200 0.174600
vn 0.063900 0.997300 -0.036800
vn 0.132800 0.984800 -0.111300
vn 0.216700 0.974700 -0.054800
vn 0.201500 0.969600 0.138600
vn 0.181000 0.940100 0.288700
vn 0.235400 0.941000 0.243100
vn 0.268700 0.944700 0.187700
vn -0.079300 0.937900 0.337800
vn -0.089000 0.925300 0.368500
vn -0.107300 0.907100 0.407000
vn -0.101100 0.906500 0.409800
vn -0.062700 0.933100 0.354100
vn -0.028900 0.985900 0.164600
vn -0.029400 0.999000 -0.033100
vn -0.040300 0.983900 -0.173800
vn -0.047500 0.996400 -0.069900
vn -0.055500 0.982100 0.180100
vn -0.011000 0.972400 0.233100
vn 0.070300 0.979700 0.187500
vn 0.095100 0.975100 0.200300
vn 0.027500 0.917100 0.397700
vn 0.007400 0.915700 0.401700
vn -0.011000 0.907900 0.418900
vn -0.004900 0.916200 0.400600
vn -0.022800 0.939200 0.342500
vn -0.080700 0.982200 0.169300
vn -0.151700 0.988400 -0.007400
vn -0.240200 0.962200 -0.128200
vn -0.292900 0.954300 -0.059800
vn -0.237600 0.960900 0.141800
vn -0.124200 0.980700 0.150800
vn -0.041400 0.990300 0.132700
vn 0.016500 0.981300 0.191800
vn -0.019900 0.993800 0.109500
vn 0.048500 0.984000 0.171700
vn -0.121900 0.985600 0.117000
vn -0.287900 0.952100 0.103000
vn 0.021700 0.906600 0.421400
vn 0.064500 0.912900 0.403000
vn 0.056800 0.906000 0.419500
vn 0.032000 0.908400 0.416900
vn 0.066500 0.932200 0.355900
vn -0.035400 0.982000 0.185700
vn -0.184500 0.982800 0.009800
vn -0.327100 0.941000 -0.087200
vn -0.393700 0.917600 -0.055800
vn 0.269200 0.962800 0.024800
vn 0.094700 0.994100 0.052000
vn 0.040000 0.970600 0.237300
vn 0.087700 0.962400 0.256900
vn 0.077700 0.974200 0.212100
vn 0.372300 0.921400 -0.110900
vn 0.227000 0.962100 -0.151000
vn 0.334200 0.940400 0.062600
vn 0.271900 0.933900 0.232400
vn 0.005900 0.997300 -0.073700
vn 0.022500 0.981100 0.192100
vn 0.098300 0.955000 0.279700
vn 0.317200 0.928200 0.194800
vn 0.112200 0.993600 0.010200
usemtl None
s 1
f 181//1 171//2 1//3 149//4
f 149//4 1//3 2//5 148//6
f 148//6 2//5 3//7 147//8
f 147//8 3//7 4//9 145//10
f 145//10 4//9 5//11 146//12
f 146//12 5//11 6//13 152//14
f 152//14 6//13 7//15 151//16
f 151//16 7//15 8//17 150//18
f 150//18 8//17 9//19 153//20
f 153//20 9//19 10//21 156//22
f 156//22 10//21 11//23 155//24
f 155//24 11//23 12//25 154//26
f 171//2 176//27 13//28 1//3
f 1//3 13//28 14//29 2//5
f 2//5 14//29 15//30 3//7
f 3//7 15//30 16//31 4//9
f 4//9 16//31 17//32 5//11
f 5//11 17//32 18//33 6//13
f 6//13 18//33 19//34 7//15
f 7//15 19//34 20//35 8//17
f 8//17 20//35 21//36 9//19
f 9//19 21//36 22//37 10//21
f 10//21 22//37 23//38 11//23
f 11//23 23//38 24//39 12//25
f 176//27 179//40 25//41 13//28
f 13//28 25//41 26//42 14//29
f 14//29 26//42 27//43 15//30
f 15//30 27//43 28//44 16//31
f 16//31 28//44 29//45 17//32
f 17//32 29//45 30//46 18//33
f 18//33 30//46 31//47 19//34
f 19//34 31//47 32//48 20//35
f 20//35 32//48 33//49 21//36
f 21//36 33//49 34//50 22//37
f 22//37 34//50 35//51 23//38
f 23//38 35//51 36//52 24//39
f 179//40 169//53 37//54 25//41
f 25//41 37//54 38//55 26//42
f 26//42 38//55 39//56 27//43
f 27//43 39//56 40//57 28//44
f 28//44 40//57 41//58 29//45
f 29//45 41//58 42//59 30//46
f 30//46 42//59 43//60 31//47
f 31//47 43//60 44//61 32//48
f 32//48 44//61 45//62 33//49
f 33//49 45//62 46//63 34//50
f 34//50 46//63 47//64 35//51
f 35//51 47//64 48//65 36//52
f 169//53 173//66 49//67 37//54
f 37//54 49//67 50//68 38//55
f 38//55 50//68 51//69 39//56
f 39//56 51//69 52//70 40//57
f 40//57 52//70 53//71 41//58
f 41//58 53//71 54//72 42//59
f 42//59 54//72 55//73 43//60
f 43//60 55//73 56//74 44//61
f 44//61 56//74 57//75 45//62
f 45//62 57//75 58//76 46//63
f 46//63 58//76 59//77 47//64
f 47//64 59//77 60//78 48//65
f 173//66 170//79 61//80 49//67
f 49//67 61//80 62//81 50//68
f 50//68 62//81 63//82 51//69
f 51//69 63//82 64//83 52//70
f 52//70 64//83 65//84 53//71
f 53//71 65//84 66//85 54//72
f 54//72 66//85 67//86 55//73
f 55//73 67//86 68//87 56//74
f 56//74 68//87 69//88 57//75
f 57//75 69//88 70//89 58//76
f 58//76 70//89 71//90 59//77
f 59//77 71//90 72//91 60//78
f 170//79 174//92 73//93 61//80
f 61//80 73//93 74//94 62//81
f 62//81 74//94 75//95 63//82
f 63//82 75//95 76//96 64//83
f 64//83 76//96 77//97 65//84
f 65//84 77//97 78//98 66//85
f 66//85 78//98 79//99 67//86
f 67//86 79//99 80//100 68//87
f 68//87 80//100 81//101 69//88
f 69//88 81//101 82//102 70//89
f 70//89 82//102 83//103 71//90
f 71//90 83//103 84//104 72//91
f 174//92 177//105 85//106 73//93
f 73//93 85//106 86//107 74//94
f 74//94 86//107 87//108 75//95
f 75//95 87//108 88//109 76//96
f 76//96 88//109 89//110 77//97
f 77//97 89//110 90//111 78//98
f 78//98 90//111 91//112 79//99
f 79//99 91//112 92//113 80//100
f 80//100 92//113 93//114 81//101
f 81//101 93//114 94//115 82//102
f 82//102 94//115 95//116 83//103
f 83//103 95//116 96//117 84//104
f 177//105 178//118 97//119 85//106
f 85//106 97//119 98//120 86//107
f 86//107 98//120 99//121 87//108
f 87//108 99//121 100//122 88//109
f 88//109 100//122 101//123 89//110
f 89//110 101//123 102//124 90//111
f 90//111 102//124 103//125 91//112
f 91//112 103//125 104//126 92//113
f 92//113 104//126 105//127 93//114
f 93//114 105//127 106//128 94//115
f 94//115 106//128 107//129 95//116
f 95//116 107//129 108//130 96//117
f 178//118 175//131 109//132 97//119
f 97//119 109//132 110//133 98//120
f 98//120 110//133 111//134 99//121
f 99//121 111//134 112//135 100//122
f 100//122 112//135 113//136 101//123
f 101//123 113//136 114//137 102//124
f 102//124 114//137 115//138 103//125
f 103//125 115//138 116//139 104//126
f 104//126 116//139 117//140 105//127
f 105//127 117//140 118//141 106//128
f 106//128 118//141 119//142 107//129
f 107//129 119//142 120//143 108//130
f 175//131 180//144 121//145 109//132
f 109//132 121//145 122//146 110//133
f 110//133 122//146 123//147 111//134
f 111//134 123//147 124//148 112//135
f 112//135 124//148 125//149 113//136
f 113//136 125//149 126//150 114//137
f 114//137 126//150 127//151 115//138
f 115//138 127//151 128//152 116//139
f 116//139 128//152 129//153 117//140
f 117//140 129//153 130//154 118//141
f 118//141 130//154 131//155 119//142
f 119//142 131//155 132//156 120//143
f 180//144 172//157 133//158 121//145
f 121//145 133//158 134//159 122//146
f 122//146 134//159 135//160 123//147
f 123//147 135//160 136//161 124//148
f 124//148 136//161 137//162 125//149
f 125//149 137//162 138//163 126//150
f 126//150 138//163 139//164 127//151
f 127//151 139//164 140//165 128//152
f 128//152 140//165 141//166 129//153
f 129//153 141//166 142//167 130//154
f 130//154 142//167 143//168 131//155
f 131//155 143//168 144//169 132//156
f 143//168 158//170 157//171 144//169
f 142//167 159//172 158//170 143//168
f 141//166 160//173 159//172 142//167
f 134//159 161//174 162//175 135//160
f 172//157 182//176 163//177 133//158
f 133//158 163//177 161//174 134//159
f 135//160 162//175 164//178 136//161
f 136//161 164//178 165//179 137//162
f 137//162 165//179 166//180 138//163
f 138//163 166//180 167//181 139//164
f 139//164 167//181 168//182 140//165
f 140//165 168//182 160//173 141//166
f 24//39 36//52 183//183 184//184
f 132//156 144//169 185//185 186//186
f 144//169 157//171 187//187 185//185
f 72//91 84//104 188//188 189//189
f 84//104 96//117 190//190 188//188
f 120//143 132//156 186//186 191//191
f 60//78 72//91 189//189 192//192
f 154//26 12//25 193//193 194//194
f 12//25 24//39 184//184 193//193
f 96//117 108//130 195//195 190//190
f 108//130 120//143 191//191 195//195
f 36//52 48//65 196//196 183//183
f 48//65 60//78 192//192 196//196
