# Blender v2.73 (sub 0) OBJ File: 'untitled.blend'
# www.blender.org
mtllib Landscape.011.mtl
o Landscape.011
v -94.383835 0.000000 125.414139
v -94.383835 0.000000 122.828285
v -94.383835 0.000000 120.242424
v -94.383835 0.000000 117.656563
v -94.383835 0.016557 115.070709
v -94.383835 0.076956 112.484848
v -94.383835 0.180903 109.898987
v -94.383835 0.336905 107.313133
v -94.383835 0.507723 104.727272
v -94.383835 0.703157 102.141411
v -94.383835 0.905965 99.555557
v -94.383835 1.137903 96.969696
v -91.797981 0.000000 125.414139
v -91.797981 0.000000 122.828285
v -91.797981 0.000000 120.242424
v -91.797981 0.003362 117.656563
v -91.797981 0.047719 115.070709
v -91.797981 0.143191 112.484848
v -91.797981 0.279211 109.898987
v -91.797981 0.479217 107.313133
v -91.797981 0.663287 104.727272
v -91.797981 0.900674 102.141411
v -91.797981 1.134895 99.555557
v -91.797981 1.344926 96.969696
v -89.212120 0.000000 125.414139
v -89.212120 0.000000 122.828285
v -89.212120 0.000000 120.242424
v -89.212120 0.018888 117.656563
v -89.212120 0.090746 115.070709
v -89.212120 0.211542 112.484848
v -89.212120 0.377501 109.898987
v -89.212120 0.595301 107.313133
v -89.212120 0.870914 104.727272
v -89.212120 1.113835 102.141411
v -89.212120 1.362240 99.555557
v -89.212120 1.626257 96.969696
v -86.626259 0.000000 125.414139
v -86.626259 0.000000 122.828285
v -86.626259 0.001022 120.242424
v -86.626259 0.044584 117.656563
v -86.626259 0.133838 115.070709
v -86.626259 0.270412 112.484848
v -86.626259 0.437473 109.898987
v -86.626259 0.704669 107.313133
v -86.626259 1.005309 104.727272
v -86.626259 1.325416 102.141411
v -86.626259 1.593923 99.555557
v -86.626259 1.883697 96.969696
v -84.040405 0.000000 125.414139
v -84.040405 0.000000 122.828285
v -84.040405 0.009907 120.242424
v -84.040405 0.077809 117.656563
v -84.040405 0.187666 115.070709
v -84.040405 0.345320 112.484848
v -84.040405 0.561942 109.898987
v -84.040405 0.875636 107.313133
v -84.040405 1.185206 104.727272
v -84.040405 1.598770 102.141411
v -84.040405 1.992760 99.555557
v -84.040405 2.199568 96.969696
v -81.454544 0.000000 125.414139
v -81.454544 0.000000 122.828285
v -81.454544 0.027830 120.242424
v -81.454544 0.116479 117.656563
v -81.454544 0.253544 115.070709
v -81.454544 0.458262 112.484848
v -81.454544 0.743529 109.898987
v -81.454544 1.078181 107.313133
v -81.454544 1.417010 104.727272
v -81.454544 1.846092 102.141411
v -81.454544 2.355937 99.555557
v -81.454544 2.668677 96.969696
v -78.868690 0.000000 125.414139
v -78.868690 0.000619 122.828285
v -78.868690 0.056380 120.242424
v -78.868690 0.179545 117.656563
v -78.868690 0.338138 115.070709
v -78.868690 0.573938 112.484848
v -78.868690 0.891949 109.898987
v -78.868690 1.266248 107.313133
v -78.868690 1.743935 104.727272
v -78.868690 2.190646 102.141411
v -78.868690 2.571623 99.555557
v -78.868690 3.087070 96.969696
v -76.282829 0.000000 125.414139
v -76.282829 0.006888 122.828285
v -76.282829 0.089642 120.242424
v -76.282829 0.239505 117.656563
v -76.282829 0.430295 115.070709
v -76.282829 0.674457 112.484848
v -76.282829 1.013738 109.898987
v -76.282829 1.327672 107.313133
v -76.282829 1.799141 104.727272
v -76.282829 2.203155 102.141411
v -76.282829 2.658063 99.555557
v -76.282829 3.181735 96.969696
v -73.696968 0.000000 125.414139
v -73.696968 0.018235 122.828285
v -73.696968 0.132153 120.242424
v -73.696968 0.321622 117.656563
v -73.696968 0.540250 115.070709
v -73.696968 0.820848 112.484848
v -73.696968 1.132745 109.898987
v -73.696968 1.429234 107.313133
v -73.696968 1.816294 104.727272
v -73.696968 2.332053 102.141411
v -73.696968 2.738658 99.555557
v -73.696968 3.218660 96.969696
v -71.111115 0.000000 125.414139
v -71.111115 0.033464 122.828285
v -71.111115 0.165642 120.242424
v -71.111115 0.387010 117.656563
v -71.111115 0.636556 115.070709
v -71.111115 0.958632 112.484848
v -71.111115 1.269846 109.898987
v -71.111115 1.578992 107.313133
v -71.111115 2.096294 104.727272
v -71.111115 2.608215 102.141411
v -71.111115 2.877599 99.555557
v -71.111115 3.236817 96.969696
v -68.525253 0.000000 125.414139
v -68.525253 0.050102 122.828285
v -68.525253 0.194609 120.242424
v -68.525253 0.424011 117.656563
v -68.525253 0.713635 115.070709
v -68.525253 1.043770 112.484848
v -68.525253 1.420962 109.898987
v -68.525253 1.766510 107.313133
v -68.525253 2.341224 104.727272
v -68.525253 2.722791 102.141411
v -68.525253 2.910216 99.555557
v -68.525253 3.236916 96.969696
v -65.939392 0.000690 125.414139
v -65.939392 0.068462 122.828285
v -65.939392 0.217622 120.242424
v -65.939392 0.443512 117.656563
v -65.939392 0.756415 115.070709
v -65.939392 1.079119 112.484848
v -65.939392 1.475309 109.898987
v -65.939392 1.905533 107.313133
v -65.939392 2.396052 104.727272
v -65.939392 2.866529 102.141411
v -65.939392 3.209885 99.555557
v -65.939392 3.423637 96.969696
v -96.000000 0.049796 112.484848
v -96.000000 0.131338 109.898987
v -96.000000 0.000000 117.656563
v -96.000000 0.421967 104.727272
v -96.000000 0.000000 122.828285
v -96.000000 0.000000 120.242424
v -96.000000 0.259391 107.313133
v -96.000000 0.991696 96.969696
v -96.000000 0.000000 125.414139
v -96.000000 0.577940 102.141411
v -96.000000 0.773391 99.555557
v -96.000000 0.007324 115.070709
v -64.000000 3.613699 96.969696
v -64.000000 3.405228 99.555557
v -64.000000 0.002795 125.414139
v -64.000000 0.079604 122.828285
v -64.000000 0.802234 115.070709
v -64.000000 1.168121 112.484848
v -64.000000 0.462079 117.656563
v -64.000000 0.231776 120.242424
v -64.000000 1.597169 109.898987
v -64.000000 1.992180 107.313133
v -64.000000 2.437018 104.727272
v -64.000000 2.951966 102.141411
v -84.040405 0.000000 128.000000
v -65.939392 0.000000 128.000000
v -71.111115 0.000000 128.000000
v -78.868690 0.000000 128.000000
v -89.212120 0.000000 128.000000
v -76.282829 0.000000 128.000000
v -73.696968 0.000000 128.000000
v -91.797981 0.000000 128.000000
v -68.525253 0.000000 128.000000
v -81.454544 0.000000 128.000000
v -94.383835 0.000000 128.000000
v -86.626259 0.000000 128.000000
v -96.000000 0.000000 128.000000
v -64.000000 0.000000 128.000000
v -64.000000 3.816678 96.000000
v -65.939392 3.629556 96.000000
v -84.040405 2.350593 96.000000
v -86.626259 1.981133 96.000000
v -81.454544 2.846210 96.000000
v -94.383835 1.221723 96.000000
v -96.000000 1.079827 96.000000
v -68.525253 3.464779 96.000000
v -71.111115 3.439115 96.000000
v -91.797981 1.440300 96.000000
v -89.212120 1.745421 96.000000
v -73.696968 3.316345 96.000000
v -76.282829 3.316834 96.000000
v -78.868690 3.267271 96.000000
vn 0.000000 1.000000 0.000000
vn -0.000200 1.000000 0.000200
vn -0.002500 1.000000 0.004200
vn -0.001400 1.000000 0.002300
vn -0.009900 0.999800 0.016600
vn -0.007100 0.999900 0.012300
vn -0.021400 0.999200 0.033000
vn -0.017500 0.999500 0.027900
vn -0.035200 0.998000 0.051400
vn -0.031500 0.998500 0.045300
vn -0.048300 0.996800 0.064000
vn -0.044800 0.997200 0.059500
vn -0.060100 0.995700 0.070800
vn -0.057600 0.996200 0.065900
vn -0.073500 0.994200 0.077800
vn -0.072100 0.994800 0.072100
vn -0.082600 0.993100 0.082900
vn -0.082400 0.993300 0.081500
vn -0.084800 0.992500 0.087700
vn -0.087000 0.992400 0.087200
vn -0.000900 1.000000 0.001200
vn -0.005400 0.999900 0.009800
vn -0.014600 0.999500 0.026500
vn -0.026100 0.998700 0.044100
vn -0.037900 0.997300 0.063400
vn -0.051800 0.995700 0.076400
vn -0.067000 0.994300 0.083000
vn -0.078800 0.993000 0.088000
vn -0.086900 0.992300 0.088000
vn -0.093700 0.991100 0.094100
vn -0.002100 1.000000 0.004100
vn -0.008200 0.999800 0.017500
vn -0.016400 0.999200 0.036300
vn -0.024000 0.998300 0.053500
vn -0.032200 0.996700 0.074100
vn -0.045700 0.994600 0.093200
vn -0.064000 0.992900 0.099800
vn -0.079100 0.992000 0.098000
vn -0.090200 0.991200 0.097100
vn -0.099400 0.989600 0.104200
vn -0.000500 1.000000 0.000500
vn -0.003800 0.999900 0.009000
vn -0.010800 0.999600 0.025800
vn -0.018600 0.998800 0.044000
vn -0.026500 0.997800 0.061200
vn -0.037600 0.995600 0.085700
vn -0.050800 0.992800 0.108100
vn -0.066700 0.990700 0.118800
vn -0.091400 0.988700 0.118300
vn -0.110700 0.988100 0.106600
vn -0.113700 0.987500 0.109300
vn -0.001300 1.000000 0.002300
vn -0.006000 0.999800 0.015300
vn -0.014000 0.999300 0.034500
vn -0.024100 0.998300 0.053200
vn -0.038600 0.996500 0.074300
vn -0.056300 0.993200 0.101500
vn -0.070100 0.990400 0.119100
vn -0.081900 0.987400 0.135200
vn -0.105300 0.983200 0.149200
vn -0.134400 0.983300 0.122800
vn -0.151300 0.981000 0.120800
vn -0.002300 1.000000 0.005900
vn -0.009400 0.999700 0.023700
vn -0.019300 0.998800 0.044000
vn -0.030400 0.997400 0.064800
vn -0.045100 0.994800 0.091700
vn -0.061300 0.991100 0.118000
vn -0.079700 0.987700 0.134700
vn -0.099700 0.983400 0.151300
vn -0.110000 0.979900 0.166400
vn -0.125100 0.980900 0.148700
vn -0.154300 0.976600 0.150000
vn -0.000300 1.000000 0.000400
vn -0.003600 0.999900 0.011100
vn -0.012200 0.999300 0.034100
vn -0.023400 0.998200 0.054500
vn -0.033400 0.996600 0.075400
vn -0.042200 0.993600 0.104700
vn -0.048200 0.990700 0.127300
vn -0.055000 0.987000 0.150900
vn -0.065200 0.983900 0.166100
vn -0.066200 0.984200 0.164300
vn -0.070000 0.982800 0.170700
vn -0.085200 0.981100 0.173800
vn -0.000800 1.000000 0.001600
vn -0.005300 0.999800 0.017800
vn -0.015000 0.998800 0.045700
vn -0.027100 0.997400 0.066100
vn -0.038100 0.995600 0.084800
vn -0.044900 0.992800 0.111000
vn -0.042700 0.991200 0.124900
vn -0.030500 0.988500 0.148300
vn -0.021400 0.985100 0.170400
vn -0.024800 0.985900 0.165300
vn -0.028900 0.983600 0.177800
vn -0.022800 0.985700 0.166800
vn -0.001300 1.000000 0.003700
vn -0.006200 0.999700 0.025100
vn -0.015700 0.998200 0.057500
vn -0.027800 0.996500 0.078400
vn -0.040600 0.994500 0.096300
vn -0.049400 0.992100 0.115200
vn -0.050200 0.991600 0.119400
vn -0.050400 0.988500 0.142200
vn -0.059100 0.982600 0.176100
vn -0.063100 0.984100 0.165800
vn -0.042900 0.986000 0.161000
vn -0.021500 0.987500 0.155600
vn -0.001500 1.000000 0.006500
vn -0.006100 0.999500 0.031800
vn -0.012500 0.997700 0.066700
vn -0.021200 0.995700 0.089900
vn -0.032300 0.993500 0.108600
vn -0.043500 0.991400 0.123000
vn -0.054400 0.990900 0.123200
vn -0.070800 0.985400 0.154800
vn -0.084200 0.979000 0.185500
vn -0.070200 0.986900 0.145300
vn -0.036000 0.991200 0.127300
vn -0.017000 0.986100 0.165300
vn -0.000100 1.000000 0.000100
vn -0.001700 0.999900 0.009800
vn -0.005900 0.999300 0.037300
vn -0.009400 0.997400 0.071100
vn -0.013700 0.995000 0.098500
vn -0.020000 0.992900 0.117400
vn -0.027100 0.990800 0.132500
vn -0.041000 0.989500 0.138300
vn -0.055100 0.983800 0.170500
vn -0.056100 0.981100 0.184900
vn -0.054800 0.989900 0.130600
vn -0.053200 0.992900 0.106200
vn -0.042700 0.985000 0.167400
vn -0.001900 0.999900 0.012900
vn -0.005400 0.999100 0.041400
vn -0.007800 0.997300 0.072600
vn -0.011200 0.994500 0.104100
vn -0.019400 0.992000 0.124500
vn -0.030000 0.989600 0.140600
vn -0.040200 0.987400 0.152700
vn -0.039800 0.984400 0.171400
vn -0.034700 0.982600 0.182200
vn -0.056600 0.986900 0.150900
vn -0.087000 0.990100 0.109700
vn -0.088200 0.984400 0.152100
vn -0.085100 0.989600 0.116200
vn -0.096800 0.984800 0.144000
vn -0.000500 1.000000 0.000700
vn -0.002000 0.999900 0.014300
vn -0.005000 0.999100 0.043100
vn -0.025500 0.991400 0.128600
vn -0.044100 0.988500 0.144700
vn -0.012400 0.994200 0.106600
vn -0.007500 0.997300 0.073000
vn -0.053300 0.986100 0.157300
vn -0.042600 0.984900 0.167700
vn -0.032200 0.982700 0.182500
vn -0.051800 0.984200 0.169400
vn -0.094700 0.974100 0.205400
vn -0.080600 0.974000 0.211500
vn -0.156100 0.977000 0.145500
vn -0.112500 0.986600 0.118300
vn -0.169000 0.970500 0.171900
vn -0.085000 0.992300 0.089800
vn -0.088400 0.992200 0.088000
vn -0.035700 0.975500 0.217300
vn -0.015900 0.982600 0.184900
vn -0.096900 0.990200 0.100500
vn -0.103100 0.988600 0.109900
vn -0.017000 0.990600 0.136000
vn -0.017300 0.990000 0.139800
vn -0.092100 0.981100 0.170000
usemtl None
s 1
f 181//1 179//1 1//1 153//1
f 153//1 1//1 2//1 149//1
f 149//1 2//1 3//2 150//1
f 150//1 3//2 4//3 147//4
f 147//4 4//3 5//5 156//6
f 156//6 5//5 6//7 145//8
f 145//8 6//7 7//9 146//10
f 146//10 7//9 8//11 151//12
f 151//12 8//11 9//13 148//14
f 148//14 9//13 10//15 154//16
f 154//16 10//15 11//17 155//18
f 155//18 11//17 12//19 152//20
f 179//1 176//1 13//1 1//1
f 1//1 13//1 14//1 2//1
f 2//1 14//1 15//21 3//2
f 3//2 15//21 16//22 4//3
f 4//3 16//22 17//23 5//5
f 5//5 17//23 18//24 6//7
f 6//7 18//24 19//25 7//9
f 7//9 19//25 20//26 8//11
f 8//11 20//26 21//27 9//13
f 9//13 21//27 22//28 10//15
f 10//15 22//28 23//29 11//17
f 11//17 23//29 24//30 12//19
f 176//1 173//1 25//1 13//1
f 13//1 25//1 26//1 14//1
f 14//1 26//1 27//31 15//21
f 15//21 27//31 28//32 16//22
f 16//22 28//32 29//33 17//23
f 17//23 29//33 30//34 18//24
f 18//24 30//34 31//35 19//25
f 19//25 31//35 32//36 20//26
f 20//26 32//36 33//37 21//27
f 21//27 33//37 34//38 22//28
f 22//28 34//38 35//39 23//29
f 23//29 35//39 36//40 24//30
f 173//1 180//1 37//1 25//1
f 25//1 37//1 38//41 26//1
f 26//1 38//41 39//42 27//31
f 27//31 39//42 40//43 28//32
f 28//32 40//43 41//44 29//33
f 29//33 41//44 42//45 30//34
f 30//34 42//45 43//46 31//35
f 31//35 43//46 44//47 32//36
f 32//36 44//47 45//48 33//37
f 33//37 45//48 46//49 34//38
f 34//38 46//49 47//50 35//39
f 35//39 47//50 48//51 36//40
f 180//1 169//1 49//1 37//1
f 37//1 49//1 50//52 38//41
f 38//41 50//52 51//53 39//42
f 39//42 51//53 52//54 40//43
f 40//43 52//54 53//55 41//44
f 41//44 53//55 54//56 42//45
f 42//45 54//56 55//57 43//46
f 43//46 55//57 56//58 44//47
f 44//47 56//58 57//59 45//48
f 45//48 57//59 58//60 46//49
f 46//49 58//60 59//61 47//50
f 47//50 59//61 60//62 48//51
f 169//1 178//1 61//1 49//1
f 49//1 61//1 62//63 50//52
f 50//52 62//63 63//64 51//53
f 51//53 63//64 64//65 52//54
f 52//54 64//65 65//66 53//55
f 53//55 65//66 66//67 54//56
f 54//56 66//67 67//68 55//57
f 55//57 67//68 68//69 56//58
f 56//58 68//69 69//70 57//59
f 57//59 69//70 70//71 58//60
f 58//60 70//71 71//72 59//61
f 59//61 71//72 72//73 60//62
f 178//1 172//1 73//74 61//1
f 61//1 73//74 74//75 62//63
f 62//63 74//75 75//76 63//64
f 63//64 75//76 76//77 64//65
f 64//65 76//77 77//78 65//66
f 65//66 77//78 78//79 66//67
f 66//67 78//79 79//80 67//68
f 67//68 79//80 80//81 68//69
f 68//69 80//81 81//82 69//70
f 69//70 81//82 82//83 70//71
f 70//71 82//83 83//84 71//72
f 71//72 83//84 84//85 72//73
f 172//1 174//1 85//86 73//74
f 73//74 85//86 86//87 74//75
f 74//75 86//87 87//88 75//76
f 75//76 87//88 88//89 76//77
f 76//77 88//89 89//90 77//78
f 77//78 89//90 90//91 78//79
f 78//79 90//91 91//92 79//80
f 79//80 91//92 92//93 80//81
f 80//81 92//93 93//94 81//82
f 81//82 93//94 94//95 82//83
f 82//83 94//95 95//96 83//84
f 83//84 95//96 96//97 84//85
f 174//1 175//1 97//98 85//86
f 85//86 97//98 98//99 86//87
f 86//87 98//99 99//100 87//88
f 87//88 99//100 100//101 88//89
f 88//89 100//101 101//102 89//90
f 89//90 101//102 102//103 90//91
f 90//91 102//103 103//104 91//92
f 91//92 103//104 104//105 92//93
f 92//93 104//105 105//106 93//94
f 93//94 105//106 106//107 94//95
f 94//95 106//107 107//108 95//96
f 95//96 107//108 108//109 96//97
f 175//1 171//1 109//110 97//98
f 97//98 109//110 110//111 98//99
f 98//99 110//111 111//112 99//100
f 99//100 111//112 112//113 100//101
f 100//101 112//113 113//114 101//102
f 101//102 113//114 114//115 102//103
f 102//103 114//115 115//116 103//104
f 103//104 115//116 116//117 104//105
f 104//105 116//117 117//118 105//106
f 105//106 117//118 118//119 106//107
f 106//107 118//119 119//120 107//108
f 107//108 119//120 120//121 108//109
f 171//1 177//122 121//123 109//110
f 109//110 121//123 122//124 110//111
f 110//111 122//124 123//125 111//112
f 111//112 123//125 124//126 112//113
f 112//113 124//126 125//127 113//114
f 113//114 125//127 126//128 114//115
f 114//115 126//128 127//129 115//116
f 115//116 127//129 128//130 116//117
f 116//117 128//130 129//131 117//118
f 117//118 129//131 130//132 118//119
f 118//119 130//132 131//133 119//120
f 119//120 131//133 132//134 120//121
f 177//122 170//74 133//135 121//123
f 121//123 133//135 134//136 122//124
f 122//124 134//136 135//137 123//125
f 123//125 135//137 136//138 124//126
f 124//126 136//138 137//139 125//127
f 125//127 137//139 138//140 126//128
f 126//128 138//140 139//141 127//129
f 127//129 139//141 140//142 128//130
f 128//130 140//142 141//143 129//131
f 129//131 141//143 142//144 130//132
f 130//132 142//144 143//145 131//133
f 131//133 143//145 144//146 132//134
f 143//145 158//147 157//148 144//146
f 170//74 182//149 159//150 133//135
f 133//135 159//150 160//151 134//136
f 137//139 161//152 162//153 138//140
f 136//138 163//154 161//152 137//139
f 134//136 160//151 164//155 135//137
f 135//137 164//155 163//154 136//138
f 138//140 162//153 165//156 139//141
f 139//141 165//156 166//157 140//142
f 140//142 166//157 167//158 141//143
f 141//143 167//158 168//159 142//144
f 142//144 168//159 158//147 143//145
f 144//146 157//148 183//160 184//161
f 48//51 60//62 185//162 186//163
f 60//62 72//73 187//164 185//162
f 152//20 12//19 188//165 189//166
f 120//121 132//134 190//167 191//168
f 132//134 144//146 184//161 190//167
f 12//19 24//30 192//169 188//165
f 24//30 36//40 193//170 192//169
f 36//40 48//51 186//163 193//170
f 96//97 108//109 194//171 195//172
f 108//109 120//121 191//168 194//171
f 72//73 84//85 196//173 187//164
f 84//85 96//97 195//172 196//173
