# Blender v2.73 (sub 0) OBJ File: 'untitled.blend'
# www.blender.org
mtllib Landscape.067.mtl
o Landscape.067
v 96.969696 2.901096 63.353535
v 96.969696 3.366804 60.767677
v 96.969696 3.860754 58.181820
v 96.969696 4.627987 55.595959
v 96.969696 5.030455 53.010101
v 96.969696 5.429000 50.424244
v 96.969696 5.478788 47.838383
v 96.969696 5.943885 45.252525
v 96.969696 6.492719 42.666668
v 96.969696 7.063741 40.080807
v 96.969696 7.781870 37.494949
v 96.969696 8.198701 34.909092
v 96.969696 8.943233 32.323231
v 99.555557 2.393200 63.353535
v 99.555557 2.792884 60.767677
v 99.555557 3.354484 58.181820
v 99.555557 3.998859 55.595959
v 99.555557 4.311835 53.010101
v 99.555557 4.673515 50.424244
v 99.555557 4.820427 47.838383
v 99.555557 5.589681 45.252525
v 99.555557 6.077323 42.666668
v 99.555557 6.661624 40.080807
v 99.555557 7.209194 37.494949
v 99.555557 7.653842 34.909092
v 99.555557 7.945368 32.323231
v 102.141411 2.058538 63.353535
v 102.141411 2.321043 60.767677
v 102.141411 2.837785 58.181820
v 102.141411 3.276954 55.595959
v 102.141411 3.744062 53.010101
v 102.141411 4.098169 50.424244
v 102.141411 4.362135 47.838383
v 102.141411 4.734981 45.252525
v 102.141411 5.196081 42.666668
v 102.141411 5.774301 40.080807
v 102.141411 6.721512 37.494949
v 102.141411 7.083593 34.909092
v 102.141411 7.407146 32.323231
v 104.727272 1.736944 63.353535
v 104.727272 2.017375 60.767677
v 104.727272 2.411932 58.181820
v 104.727272 2.787871 55.595959
v 104.727272 3.236109 53.010101
v 104.727272 3.678915 50.424244
v 104.727272 3.899506 47.838383
v 104.727272 3.961753 45.252525
v 104.727272 4.270383 42.666668
v 104.727272 5.073096 40.080807
v 104.727272 5.965241 37.494949
v 104.727272 6.383942 34.909092
v 104.727272 6.513414 32.323231
v 107.313133 1.550011 63.353535
v 107.313133 1.799124 60.767677
v 107.313133 2.081624 58.181820
v 107.313133 2.439844 55.595959
v 107.313133 2.827621 53.010101
v 107.313133 3.071202 50.424244
v 107.313133 3.325887 47.838383
v 107.313133 3.396185 45.252525
v 107.313133 3.790755 42.666668
v 107.313133 4.222656 40.080807
v 107.313133 4.803030 37.494949
v 107.313133 5.247182 34.909092
v 107.313133 5.675697 32.323231
v 109.898987 1.331969 63.353535
v 109.898987 1.448951 60.767677
v 109.898987 1.685509 58.181820
v 109.898987 1.997592 55.595959
v 109.898987 2.266344 53.010101
v 109.898987 2.689860 50.424244
v 109.898987 2.822944 47.838383
v 109.898987 2.915454 45.252525
v 109.898987 3.252175 42.666668
v 109.898987 3.412189 40.080807
v 109.898987 3.882059 37.494949
v 109.898987 4.219198 34.909092
v 109.898987 4.327064 32.323231
v 112.484848 1.083292 63.353535
v 112.484848 1.180011 60.767677
v 112.484848 1.368621 58.181820
v 112.484848 1.567979 55.595959
v 112.484848 1.775354 53.010101
v 112.484848 2.057692 50.424244
v 112.484848 2.224942 47.838383
v 112.484848 2.367312 45.252525
v 112.484848 2.611309 42.666668
v 112.484848 2.741447 40.080807
v 112.484848 3.046407 37.494949
v 112.484848 3.167863 34.909092
v 112.484848 3.101303 32.323231
v 115.070709 0.851118 63.353535
v 115.070709 0.927562 60.767677
v 115.070709 1.061244 58.181820
v 115.070709 1.181686 55.595959
v 115.070709 1.278005 53.010101
v 115.070709 1.502596 50.424244
v 115.070709 1.633992 47.838383
v 115.070709 1.788274 45.252525
v 115.070709 1.902051 42.666668
v 115.070709 1.965997 40.080807
v 115.070709 2.091659 37.494949
v 115.070709 2.183335 34.909092
v 115.070709 2.229680 32.323231
v 117.656563 0.565815 63.353535
v 117.656563 0.644800 60.767677
v 117.656563 0.744250 58.181820
v 117.656563 0.765596 55.595959
v 117.656563 0.804687 53.010101
v 117.656563 0.923525 50.424244
v 117.656563 0.999889 47.838383
v 117.656563 1.112683 45.252525
v 117.656563 1.152750 42.666668
v 117.656563 1.182374 40.080807
v 117.656563 1.257074 37.494949
v 117.656563 1.273894 34.909092
v 117.656563 1.342712 32.323231
v 120.242424 0.296464 63.353535
v 120.242424 0.348473 60.767677
v 120.242424 0.416974 58.181820
v 120.242424 0.432124 55.595959
v 120.242424 0.449883 53.010101
v 120.242424 0.516783 50.424244
v 120.242424 0.562293 47.838383
v 120.242424 0.614056 45.252525
v 120.242424 0.610349 42.666668
v 120.242424 0.634148 40.080807
v 120.242424 0.689964 37.494949
v 120.242424 0.716664 34.909092
v 120.242424 0.740821 32.323231
v 122.828285 0.102266 63.353535
v 122.828285 0.123314 60.767677
v 122.828285 0.146979 58.181820
v 122.828285 0.172852 55.595959
v 122.828285 0.189428 53.010101
v 122.828285 0.213204 50.424244
v 122.828285 0.238520 47.838383
v 122.828285 0.257358 45.252525
v 122.828285 0.254355 42.666668
v 122.828285 0.265234 40.080807
v 122.828285 0.295491 37.494949
v 122.828285 0.326035 34.909092
v 122.828285 0.330495 32.323231
v 125.414139 0.003805 63.353535
v 125.414139 0.008833 60.767677
v 125.414139 0.014740 58.181820
v 125.414139 0.020985 55.595959
v 125.414139 0.028329 53.010101
v 125.414139 0.036093 50.424244
v 125.414139 0.044216 47.838383
v 125.414139 0.050381 45.252525
v 125.414139 0.055295 42.666668
v 125.414139 0.057231 40.080807
v 125.414139 0.068078 37.494949
v 125.414139 0.074436 34.909092
v 125.414139 0.075504 32.323231
v 128.000000 0.000000 63.353535
v 128.000000 0.000000 60.767677
v 128.000000 0.000000 58.181820
v 128.000000 0.000000 55.595959
v 128.000000 0.000000 53.010101
v 128.000000 0.000000 50.424244
v 128.000000 0.000000 47.838383
v 128.000000 0.000000 45.252525
v 128.000000 0.000000 42.666668
v 128.000000 0.000000 40.080807
v 128.000000 0.000000 37.494949
v 128.000000 0.000000 34.909092
v 128.000000 0.000000 32.323231
v 96.000000 3.111253 63.353535
v 96.000000 5.630358 50.424244
v 96.000000 5.754030 47.838383
v 96.000000 4.812152 55.595959
v 96.000000 6.680873 42.666668
v 96.000000 3.560633 60.767677
v 96.000000 4.049869 58.181820
v 96.000000 6.164564 45.252525
v 96.000000 5.300285 53.010101
v 96.000000 9.284101 32.323231
v 96.000000 8.524387 34.909092
v 96.000000 7.306205 40.080807
v 96.000000 7.891140 37.494949
v 96.969696 2.808861 64.000000
v 99.555557 2.342723 64.000000
v 115.070709 0.824390 64.000000
v 117.656563 0.543247 64.000000
v 112.484848 1.047908 64.000000
v 104.727272 1.671566 64.000000
v 109.898987 1.299017 64.000000
v 125.414139 0.003026 64.000000
v 107.313133 1.496203 64.000000
v 122.828285 0.096492 64.000000
v 102.141411 1.995857 64.000000
v 128.000000 0.000000 64.000000
v 120.242424 0.286188 64.000000
v 96.000000 3.006300 64.000000
v 109.898987 4.331285 32.000000
v 107.313133 5.634824 32.000000
v 120.242424 0.745292 32.000000
v 117.656563 1.346371 32.000000
v 122.828285 0.332339 32.000000
v 125.414139 0.075852 32.000000
v 104.727272 6.514469 32.000000
v 115.070709 2.218082 32.000000
v 96.969696 8.980623 32.000000
v 96.000000 9.315188 32.000000
v 99.555557 8.015925 32.000000
v 112.484848 3.101972 32.000000
v 128.000000 0.000000 32.000000
v 102.141411 7.417641 32.000000
vn 0.203400 0.967900 0.147600
vn 0.193600 0.972800 0.127400
vn 0.197700 0.969100 0.147100
vn 0.202200 0.966300 0.159400
vn 0.198500 0.963800 0.178000
vn 0.195600 0.964600 0.177200
vn 0.195200 0.953600 0.228900
vn 0.186100 0.954600 0.232800
vn 0.216300 0.953700 0.208900
vn 0.204100 0.953700 0.221000
vn 0.245200 0.958800 0.143700
vn 0.229500 0.961700 0.150100
vn 0.252000 0.963900 0.086200
vn 0.236600 0.968000 0.083600
vn 0.233900 0.965300 0.115600
vn 0.242100 0.965200 0.098600
vn 0.194800 0.961200 0.195300
vn 0.222900 0.958000 0.180200
vn 0.177700 0.962100 0.207000
vn 0.207000 0.955700 0.209200
vn 0.179800 0.957000 0.227500
vn 0.191700 0.953900 0.230900
vn 0.194300 0.958800 0.207200
vn 0.194400 0.956600 0.217200
vn 0.254100 0.945900 0.201700
vn 0.267200 0.935300 0.232100
vn 0.319400 0.930600 0.178700
vn 0.321800 0.929600 0.179600
vn 0.156900 0.982800 0.097100
vn 0.167300 0.978500 0.120300
vn 0.185100 0.967700 0.171200
vn 0.205300 0.955200 0.213100
vn 0.231300 0.955200 0.184500
vn 0.243400 0.960100 0.137800
vn 0.236500 0.966700 0.097400
vn 0.223200 0.965000 0.137900
vn 0.222600 0.953900 0.201000
vn 0.232800 0.952100 0.198300
vn 0.223700 0.946400 0.232700
vn 0.208400 0.956600 0.203800
vn 0.223900 0.962400 0.153900
vn 0.262600 0.953900 0.145400
vn 0.126700 0.987600 0.092200
vn 0.131400 0.985900 0.103300
vn 0.148400 0.977400 0.150400
vn 0.180500 0.966700 0.181500
vn 0.206700 0.963900 0.167900
vn 0.203800 0.967400 0.150000
vn 0.188000 0.975600 0.113500
vn 0.209200 0.971100 0.114800
vn 0.274200 0.949700 0.151400
vn 0.307400 0.931900 0.192500
vn 0.278800 0.923700 0.262600
vn 0.243600 0.944200 0.221400
vn 0.242300 0.962300 0.123400
vn 0.261000 0.961600 0.084500
vn 0.096300 0.990800 0.094700
vn 0.097500 0.990300 0.098700
vn 0.109900 0.985800 0.126500
vn 0.135800 0.979500 0.148600
vn 0.157600 0.975200 0.155500
vn 0.174100 0.972900 0.152100
vn 0.188900 0.975200 0.115100
vn 0.209000 0.975200 0.071900
vn 0.238000 0.966600 0.094800
vn 0.260200 0.947500 0.185700
vn 0.287800 0.920900 0.262900
vn 0.320400 0.921300 0.220300
vn 0.329100 0.936600 0.119600
vn 0.323300 0.945600 0.035600
vn 0.074700 0.994100 0.079100
vn 0.084000 0.993000 0.082500
vn 0.108400 0.989000 0.100000
vn 0.133600 0.983300 0.123600
vn 0.155000 0.978400 0.136900
vn 0.175100 0.975300 0.134300
vn 0.189700 0.976300 0.104600
vn 0.198200 0.978600 0.054800
vn 0.197700 0.976800 0.081500
vn 0.220700 0.963600 0.150800
vn 0.289200 0.937000 0.195900
vn 0.353700 0.916800 0.185300
vn 0.381800 0.916200 0.121400
vn 0.385300 0.922500 0.021400
vn 0.088000 0.994300 0.059600
vn 0.096100 0.993700 0.057600
vn 0.115700 0.990600 0.072900
vn 0.138800 0.985100 0.101100
vn 0.166200 0.980000 0.109600
vn 0.188200 0.975000 0.118100
vn 0.196900 0.975600 0.097000
vn 0.200500 0.978300 0.051400
vn 0.204600 0.975500 0.080300
vn 0.227700 0.968300 0.102700
vn 0.271300 0.954500 0.123800
vn 0.320400 0.937000 0.138900
vn 0.378000 0.922200 0.081400
vn 0.426500 0.904400 0.014700
vn 0.091900 0.994500 0.050200
vn 0.094100 0.994600 0.043700
vn 0.103100 0.993200 0.054400
vn 0.123600 0.989400 0.075400
vn 0.154400 0.985000 0.076700
vn 0.187900 0.977700 0.094000
vn 0.214100 0.973100 0.085300
vn 0.220900 0.973800 0.053200
vn 0.225200 0.971900 0.068800
vn 0.246400 0.966900 0.066700
vn 0.279000 0.957100 0.077700
vn 0.321500 0.943000 0.086000
vn 0.358700 0.932900 0.031500
vn 0.373100 0.927800 -0.001400
vn 0.098300 0.994200 0.042800
vn 0.099700 0.994300 0.037200
vn 0.106200 0.993400 0.042400
vn 0.123900 0.991100 0.048700
vn 0.152700 0.987300 0.043000
vn 0.183800 0.981000 0.061000
vn 0.210500 0.975500 0.064000
vn 0.227500 0.972500 0.050300
vn 0.243100 0.968700 0.050300
vn 0.266700 0.963000 0.037300
vn 0.293700 0.955000 0.042200
vn 0.321400 0.945900 0.043600
vn 0.334100 0.942300 0.019000
vn 0.327300 0.944900 -0.002600
vn 0.105000 0.994000 0.031600
vn 0.107000 0.993800 0.029500
vn 0.113100 0.993000 0.033000
vn 0.125400 0.991700 0.027800
vn 0.142100 0.989700 0.017700
vn 0.161500 0.986300 0.034200
vn 0.183600 0.982100 0.040700
vn 0.203200 0.978500 0.035900
vn 0.221700 0.974600 0.029200
vn 0.238500 0.971000 0.015700
vn 0.250100 0.968000 0.022200
vn 0.260700 0.965100 0.022500
vn 0.270000 0.962700 0.016700
vn 0.274300 0.961600 0.009800
vn 0.087600 0.996000 0.018800
vn 0.091200 0.995600 0.019200
vn 0.101100 0.994600 0.022300
vn 0.110900 0.993700 0.016200
vn 0.115100 0.993300 0.008100
vn 0.121500 0.992400 0.017600
vn 0.133900 0.990700 0.022400
vn 0.147500 0.988800 0.020400
vn 0.160700 0.986900 0.012600
vn 0.169800 0.985400 0.005600
vn 0.175500 0.984300 0.014500
vn 0.179900 0.983600 0.015100
vn 0.183600 0.982900 0.010500
vn 0.188900 0.981900 0.011200
vn 0.055600 0.998400 0.008700
vn 0.058300 0.998200 0.009100
vn 0.066200 0.997700 0.010600
vn 0.074900 0.997100 0.009400
vn 0.079300 0.996800 0.006300
vn 0.083500 0.996500 0.008700
vn 0.091400 0.995700 0.010900
vn 0.100000 0.994900 0.009600
vn 0.105700 0.994400 0.004300
vn 0.108000 0.994100 0.002000
vn 0.111800 0.993700 0.008400
vn 0.118100 0.992900 0.010600
vn 0.123300 0.992300 0.006100
vn 0.126600 0.991900 0.004900
vn 0.019200 0.999800 0.002800
vn 0.020500 0.999800 0.002900
vn 0.023900 0.999700 0.003200
vn 0.028500 0.999600 0.003500
vn 0.032900 0.999500 0.003400
vn 0.036900 0.999300 0.003400
vn 0.041200 0.999100 0.003900
vn 0.045700 0.998900 0.003500
vn 0.048600 0.998800 0.001800
vn 0.049700 0.998700 0.001000
vn 0.052100 0.998600 0.003200
vn 0.057000 0.998400 0.004600
vn 0.061600 0.998100 0.002400
vn 0.063600 0.998000 0.001300
vn 0.001300 1.000000 0.000600
vn 0.001900 1.000000 0.000800
vn 0.003500 1.000000 0.001100
vn 0.005700 1.000000 0.001200
vn 0.008200 1.000000 0.001300
vn 0.011000 0.999900 0.001500
vn 0.014000 0.999900 0.001500
vn 0.016900 0.999900 0.001400
vn 0.019400 0.999800 0.001100
vn 0.021100 0.999800 0.000700
vn 0.023000 0.999700 0.001200
vn 0.025900 0.999700 0.001700
vn 0.028300 0.999600 0.000700
vn 0.029100 0.999600 0.000400
vn 0.442600 0.896500 -0.021900
vn 0.388500 0.919900 -0.054400
vn 0.192100 0.981300 0.011000
vn 0.274700 0.961500 0.000300
vn 0.127900 0.991800 0.006500
vn 0.063900 0.998000 0.002000
vn 0.321600 0.946600 -0.020700
vn 0.321700 0.946800 -0.013800
vn 0.338800 0.932400 0.126300
vn 0.327300 0.939700 0.099500
vn 0.285200 0.948300 0.138900
vn 0.375800 0.926700 -0.004600
vn 0.029300 0.999600 0.000500
vn 0.271100 0.960000 0.069700
usemtl None
s 1
f 196//1 183//2 1//3 170//4
f 170//4 1//3 2//5 175//6
f 175//6 2//5 3//7 176//8
f 176//8 3//7 4//9 173//10
f 173//10 4//9 5//11 178//12
f 178//12 5//11 6//13 171//14
f 171//14 6//13 7//15 172//16
f 172//16 7//15 8//17 177//18
f 177//18 8//17 9//19 174//20
f 174//20 9//19 10//21 181//22
f 181//22 10//21 11//23 182//24
f 182//24 11//23 12//25 180//26
f 180//26 12//25 13//27 179//28
f 183//2 184//29 14//30 1//3
f 1//3 14//30 15//31 2//5
f 2//5 15//31 16//32 3//7
f 3//7 16//32 17//33 4//9
f 4//9 17//33 18//34 5//11
f 5//11 18//34 19//35 6//13
f 6//13 19//35 20//36 7//15
f 7//15 20//36 21//37 8//17
f 8//17 21//37 22//38 9//19
f 9//19 22//38 23//39 10//21
f 10//21 23//39 24//40 11//23
f 11//23 24//40 25//41 12//25
f 12//25 25//41 26//42 13//27
f 184//29 193//43 27//44 14//30
f 14//30 27//44 28//45 15//31
f 15//31 28//45 29//46 16//32
f 16//32 29//46 30//47 17//33
f 17//33 30//47 31//48 18//34
f 18//34 31//48 32//49 19//35
f 19//35 32//49 33//50 20//36
f 20//36 33//50 34//51 21//37
f 21//37 34//51 35//52 22//38
f 22//38 35//52 36//53 23//39
f 23//39 36//53 37//54 24//40
f 24//40 37//54 38//55 25//41
f 25//41 38//55 39//56 26//42
f 193//43 188//57 40//58 27//44
f 27//44 40//58 41//59 28//45
f 28//45 41//59 42//60 29//46
f 29//46 42//60 43//61 30//47
f 30//47 43//61 44//62 31//48
f 31//48 44//62 45//63 32//49
f 32//49 45//63 46//64 33//50
f 33//50 46//64 47//65 34//51
f 34//51 47//65 48//66 35//52
f 35//52 48//66 49//67 36//53
f 36//53 49//67 50//68 37//54
f 37//54 50//68 51//69 38//55
f 38//55 51//69 52//70 39//56
f 188//57 191//71 53//72 40//58
f 40//58 53//72 54//73 41//59
f 41//59 54//73 55//74 42//60
f 42//60 55//74 56//75 43//61
f 43//61 56//75 57//76 44//62
f 44//62 57//76 58//77 45//63
f 45//63 58//77 59//78 46//64
f 46//64 59//78 60//79 47//65
f 47//65 60//79 61//80 48//66
f 48//66 61//80 62//81 49//67
f 49//67 62//81 63//82 50//68
f 50//68 63//82 64//83 51//69
f 51//69 64//83 65//84 52//70
f 191//71 189//85 66//86 53//72
f 53//72 66//86 67//87 54//73
f 54//73 67//87 68//88 55//74
f 55//74 68//88 69//89 56//75
f 56//75 69//89 70//90 57//76
f 57//76 70//90 71//91 58//77
f 58//77 71//91 72//92 59//78
f 59//78 72//92 73//93 60//79
f 60//79 73//93 74//94 61//80
f 61//80 74//94 75//95 62//81
f 62//81 75//95 76//96 63//82
f 63//82 76//96 77//97 64//83
f 64//83 77//97 78//98 65//84
f 189//85 187//99 79//100 66//86
f 66//86 79//100 80//101 67//87
f 67//87 80//101 81//102 68//88
f 68//88 81//102 82//103 69//89
f 69//89 82//103 83//104 70//90
f 70//90 83//104 84//105 71//91
f 71//91 84//105 85//106 72//92
f 72//92 85//106 86//107 73//93
f 73//93 86//107 87//108 74//94
f 74//94 87//108 88//109 75//95
f 75//95 88//109 89//110 76//96
f 76//96 89//110 90//111 77//97
f 77//97 90//111 91//112 78//98
f 187//99 185//113 92//114 79//100
f 79//100 92//114 93//115 80//101
f 80//101 93//115 94//116 81//102
f 81//102 94//116 95//117 82//103
f 82//103 95//117 96//118 83//104
f 83//104 96//118 97//119 84//105
f 84//105 97//119 98//120 85//106
f 85//106 98//120 99//121 86//107
f 86//107 99//121 100//122 87//108
f 87//108 100//122 101//123 88//109
f 88//109 101//123 102//124 89//110
f 89//110 102//124 103//125 90//111
f 90//111 103//125 104//126 91//112
f 185//113 186//127 105//128 92//114
f 92//114 105//128 106//129 93//115
f 93//115 106//129 107//130 94//116
f 94//116 107//130 108//131 95//117
f 95//117 108//131 109//132 96//118
f 96//118 109//132 110//133 97//119
f 97//119 110//133 111//134 98//120
f 98//120 111//134 112//135 99//121
f 99//121 112//135 113//136 100//122
f 100//122 113//136 114//137 101//123
f 101//123 114//137 115//138 102//124
f 102//124 115//138 116//139 103//125
f 103//125 116//139 117//140 104//126
f 186//127 195//141 118//142 105//128
f 105//128 118//142 119//143 106//129
f 106//129 119//143 120//144 107//130
f 107//130 120//144 121//145 108//131
f 108//131 121//145 122//146 109//132
f 109//132 122//146 123//147 110//133
f 110//133 123//147 124//148 111//134
f 111//134 124//148 125//149 112//135
f 112//135 125//149 126//150 113//136
f 113//136 126//150 127//151 114//137
f 114//137 127//151 128//152 115//138
f 115//138 128//152 129//153 116//139
f 116//139 129//153 130//154 117//140
f 195//141 192//155 131//156 118//142
f 118//142 131//156 132//157 119//143
f 119//143 132//157 133//158 120//144
f 120//144 133//158 134//159 121//145
f 121//145 134//159 135//160 122//146
f 122//146 135//160 136//161 123//147
f 123//147 136//161 137//162 124//148
f 124//148 137//162 138//163 125//149
f 125//149 138//163 139//164 126//150
f 126//150 139//164 140//165 127//151
f 127//151 140//165 141//166 128//152
f 128//152 141//166 142//167 129//153
f 129//153 142//167 143//168 130//154
f 192//155 190//169 144//170 131//156
f 131//156 144//170 145//171 132//157
f 132//157 145//171 146//172 133//158
f 133//158 146//172 147//173 134//159
f 134//159 147//173 148//174 135//160
f 135//160 148//174 149//175 136//161
f 136//161 149//175 150//176 137//162
f 137//162 150//176 151//177 138//163
f 138//163 151//177 152//178 139//164
f 139//164 152//178 153//179 140//165
f 140//165 153//179 154//180 141//166
f 141//166 154//180 155//181 142//167
f 142//167 155//181 156//182 143//168
f 190//169 194//183 157//184 144//170
f 144//170 157//184 158//185 145//171
f 145//171 158//185 159//186 146//172
f 146//172 159//186 160//187 147//173
f 147//173 160//187 161//188 148//174
f 148//174 161//188 162//189 149//175
f 149//175 162//189 163//190 150//176
f 150//176 163//190 164//191 151//177
f 151//177 164//191 165//192 152//178
f 152//178 165//192 166//193 153//179
f 153//179 166//193 167//194 154//180
f 154//180 167//194 168//195 155//181
f 155//181 168//195 169//196 156//182
f 65//84 78//98 197//197 198//198
f 117//140 130//154 199//199 200//200
f 130//154 143//168 201//201 199//199
f 143//168 156//182 202//202 201//201
f 52//70 65//84 198//198 203//203
f 104//126 117//140 200//200 204//204
f 179//28 13//27 205//205 206//206
f 13//27 26//42 207//207 205//205
f 78//98 91//112 208//208 197//197
f 91//112 104//126 204//204 208//208
f 156//182 169//196 209//209 202//202
f 26//42 39//56 210//210 207//207
f 39//56 52//70 203//203 210//210
