# Blender v2.73 (sub 0) OBJ File: 'untitled.blend'
# www.blender.org
mtllib Landscape.032.mtl
o Landscape.032
v -29.737373 22.820126 29.737373
v -29.737373 23.645769 27.151516
v -29.737373 24.934181 24.565657
v -29.737373 26.544899 21.979797
v -29.737373 25.366772 19.393940
v -29.737373 24.638084 16.808081
v -29.737373 25.154013 14.222222
v -29.737373 24.937204 11.636364
v -29.737373 23.194973 9.050505
v -29.737373 22.209074 6.464646
v -29.737373 21.561325 3.878788
v -29.737373 20.243500 1.292929
v -27.151516 23.683594 29.737373
v -27.151516 24.540567 27.151516
v -27.151516 26.660583 24.565657
v -27.151516 26.200953 21.979797
v -27.151516 24.649776 19.393940
v -27.151516 24.171455 16.808081
v -27.151516 24.307798 14.222222
v -27.151516 23.986824 11.636364
v -27.151516 23.075645 9.050505
v -27.151516 22.004789 6.464646
v -27.151516 21.898497 3.878788
v -27.151516 20.901705 1.292929
v -24.565657 24.069666 29.737373
v -24.565657 24.562794 27.151516
v -24.565657 25.548933 24.565657
v -24.565657 25.170008 21.979797
v -24.565657 24.212708 19.393940
v -24.565657 23.806591 16.808081
v -24.565657 23.484905 14.222222
v -24.565657 23.751354 11.636364
v -24.565657 23.580938 9.050505
v -24.565657 24.334980 6.464646
v -24.565657 22.892513 3.878788
v -24.565657 22.873207 1.292929
v -21.979797 25.165804 29.737373
v -21.979797 25.492184 27.151516
v -21.979797 26.308943 24.565657
v -21.979797 25.847321 21.979797
v -21.979797 25.241089 19.393940
v -21.979797 24.883545 16.808081
v -21.979797 24.815742 14.222222
v -21.979797 25.320118 11.636364
v -21.979797 26.195084 9.050505
v -21.979797 25.843939 6.464646
v -21.979797 24.940521 3.878788
v -21.979797 24.458462 1.292929
v -19.393940 25.876272 29.737373
v -19.393940 25.947229 27.151516
v -19.393940 27.282143 24.565657
v -19.393940 27.192884 21.979797
v -19.393940 26.746361 19.393940
v -19.393940 25.218868 16.808081
v -19.393940 25.310215 14.222222
v -19.393940 25.744665 11.636364
v -19.393940 26.323498 9.050505
v -19.393940 26.479506 6.464646
v -19.393940 24.478363 3.878788
v -19.393940 23.631725 1.292929
v -16.808081 25.601490 29.737373
v -16.808081 25.762236 27.151516
v -16.808081 25.848606 24.565657
v -16.808081 26.895119 21.979797
v -16.808081 28.125326 19.393940
v -16.808081 26.643143 16.808081
v -16.808081 25.969288 14.222222
v -16.808081 26.757881 11.636364
v -16.808081 26.094433 9.050505
v -16.808081 26.123764 6.464646
v -16.808081 24.191282 3.878788
v -16.808081 23.269882 1.292929
v -14.222222 23.733614 29.737373
v -14.222222 24.633772 27.151516
v -14.222222 25.218302 24.565657
v -14.222222 25.298136 21.979797
v -14.222222 26.042917 19.393940
v -14.222222 25.198973 16.808081
v -14.222222 26.042156 14.222222
v -14.222222 26.776878 11.636364
v -14.222222 25.659824 9.050505
v -14.222222 25.262751 6.464646
v -14.222222 23.503599 3.878788
v -14.222222 22.944759 1.292929
v -11.636364 22.870882 29.737373
v -11.636364 23.395952 27.151516
v -11.636364 23.574577 24.565657
v -11.636364 23.439737 21.979797
v -11.636364 24.224901 19.393940
v -11.636364 24.714752 16.808081
v -11.636364 25.749107 14.222222
v -11.636364 25.662109 11.636364
v -11.636364 24.471722 9.050505
v -11.636364 23.937059 6.464646
v -11.636364 24.237579 3.878788
v -11.636364 23.273493 1.292929
v -9.050505 21.344561 29.737373
v -9.050505 22.308647 27.151516
v -9.050505 22.446632 24.565657
v -9.050505 23.554178 21.979797
v -9.050505 25.760662 19.393940
v -9.050505 25.322540 16.808081
v -9.050505 25.257553 14.222222
v -9.050505 24.949827 11.636364
v -9.050505 24.395468 9.050505
v -9.050505 23.748919 6.464646
v -9.050505 23.770475 3.878788
v -9.050505 21.904745 1.292929
v -6.464646 20.609537 29.737373
v -6.464646 21.127932 27.151516
v -6.464646 21.013939 24.565657
v -6.464646 22.683125 21.979797
v -6.464646 23.834547 19.393940
v -6.464646 24.010204 16.808081
v -6.464646 23.001049 14.222222
v -6.464646 22.866035 11.636364
v -6.464646 22.608564 9.050505
v -6.464646 22.803026 6.464646
v -6.464646 21.565926 3.878788
v -6.464646 20.711498 1.292929
v -3.878788 18.862547 29.737373
v -3.878788 19.427778 27.151516
v -3.878788 20.368517 24.565657
v -3.878788 21.154713 21.979797
v -3.878788 21.362692 19.393940
v -3.878788 21.502697 16.808081
v -3.878788 20.623718 14.222222
v -3.878788 20.822250 11.636364
v -3.878788 21.549408 9.050505
v -3.878788 20.638474 6.464646
v -3.878788 19.865417 3.878788
v -3.878788 19.198359 1.292929
v -1.292929 17.079254 29.737373
v -1.292929 17.245113 27.151516
v -1.292929 18.560678 24.565657
v -1.292929 19.933384 21.979797
v -1.292929 18.706635 19.393940
v -1.292929 18.327488 16.808081
v -1.292929 18.225681 14.222222
v -1.292929 18.374802 11.636364
v -1.292929 17.956816 9.050505
v -1.292929 17.390886 6.464646
v -1.292929 16.974287 3.878788
v -1.292929 16.312590 1.292929
v -32.000000 24.623653 24.565657
v -32.000000 25.245163 21.979797
v -32.000000 23.151196 27.151516
v -32.000000 21.888195 29.737373
v -32.000000 20.382500 1.292929
v -32.000000 21.665487 3.878788
v -32.000000 23.675716 9.050505
v -32.000000 21.671146 6.464646
v -32.000000 24.601734 16.808081
v -32.000000 24.542519 19.393940
v -32.000000 25.193243 11.636364
v -32.000000 24.909222 14.222222
v 0.000000 14.150366 1.292929
v 0.000000 15.902435 6.464646
v 0.000000 15.190279 3.878788
v 0.000000 17.532026 16.808081
v 0.000000 17.036366 14.222222
v 0.000000 17.310314 11.636364
v 0.000000 16.645845 9.050505
v 0.000000 16.927811 29.737373
v 0.000000 19.193602 21.979797
v 0.000000 18.427944 19.393940
v 0.000000 16.766666 27.151516
v 0.000000 17.698170 24.565657
v -3.878788 18.625336 32.000000
v -9.050505 22.290091 32.000000
v -24.565657 22.577621 32.000000
v -6.464646 20.335810 32.000000
v -21.979797 23.968054 32.000000
v -1.292929 17.295988 32.000000
v -19.393940 25.245674 32.000000
v -11.636364 22.966251 32.000000
v -27.151516 22.153440 32.000000
v -14.222222 24.380636 32.000000
v -16.808081 25.625378 32.000000
v -29.737373 22.271772 32.000000
v -32.000000 22.782000 32.000000
v 0.000000 16.880091 32.000000
v 0.000000 13.936041 0.000000
v -1.292929 16.170757 0.000000
v -16.808081 22.769753 0.000000
v -19.393940 23.710716 0.000000
v -14.222222 22.501564 0.000000
v -24.565657 22.472795 0.000000
v -27.151516 20.792511 0.000000
v -21.979797 24.233379 0.000000
v -6.464646 20.892464 0.000000
v -9.050505 22.066944 0.000000
v -11.636364 23.042599 0.000000
v -29.737373 19.725014 0.000000
v -32.000000 19.389164 0.000000
v -3.878788 19.187040 0.000000
vn -0.092500 0.992800 -0.075800
vn -0.115200 0.977000 0.179700
vn -0.208000 0.942400 0.262000
vn -0.191300 0.970900 0.144000
vn -0.281600 0.868900 0.407100
vn -0.222600 0.884300 0.410400
vn -0.287600 0.867000 0.406900
vn -0.231300 0.875600 0.424000
vn -0.205800 0.976700 -0.061000
vn -0.381100 0.924000 0.032600
vn -0.055700 0.952300 -0.299900
vn -0.295100 0.929900 -0.219500
vn 0.057600 0.998100 -0.018800
vn -0.124800 0.992100 0.015500
vn 0.129200 0.990400 0.048800
vn -0.029700 0.995900 0.085800
vn 0.167800 0.947600 -0.271700
vn 0.071600 0.961600 -0.265100
vn 0.090000 0.881500 -0.463400
vn 0.068500 0.853300 -0.516900
vn -0.017400 0.955600 -0.294200
vn -0.055900 0.949100 -0.310100
vn -0.063100 0.955800 -0.287100
vn -0.024200 0.956500 -0.290600
vn -0.121900 0.908900 -0.398700
vn 0.006100 0.879100 -0.476700
vn -0.129900 0.866300 0.482300
vn -0.166200 0.908500 0.383300
vn -0.160100 0.898200 0.409400
vn -0.008300 0.961700 0.273800
vn 0.149000 0.964800 -0.216400
vn 0.202100 0.926000 -0.319000
vn 0.210800 0.974500 -0.076100
vn 0.250700 0.968000 -0.005600
vn 0.168600 0.965100 -0.200100
vn -0.081900 0.956600 -0.279700
vn -0.246300 0.944300 -0.218100
vn -0.316700 0.916500 -0.244200
vn -0.387500 0.888100 -0.247300
vn -0.242700 0.818500 0.520700
vn -0.247400 0.896400 0.367800
vn -0.142200 0.938900 0.313300
vn 0.000200 0.988800 0.149400
vn 0.014700 0.962700 -0.270000
vn -0.072300 0.963300 -0.258300
vn -0.109900 0.988300 -0.105200
vn -0.126400 0.991900 0.004200
vn -0.261700 0.965100 0.006700
vn -0.454800 0.890100 -0.028500
vn -0.552600 0.819800 -0.150200
vn -0.532400 0.821200 -0.205400
vn -0.541100 0.827000 -0.152500
vn -0.363000 0.830800 0.421900
vn -0.329100 0.907400 0.261400
vn -0.282800 0.931400 0.229200
vn -0.313500 0.942700 0.114000
vn -0.365400 0.913900 -0.176700
vn -0.365200 0.901400 -0.232600
vn -0.322000 0.937500 -0.132200
vn -0.318000 0.946100 0.061400
vn -0.363300 0.915400 0.173100
vn -0.375700 0.920800 0.104700
vn -0.349200 0.911900 -0.215300
vn -0.246700 0.914300 -0.321200
vn -0.170700 0.972600 -0.157500
vn -0.189500 0.948600 0.253400
vn -0.122400 0.980700 0.152300
vn -0.024200 0.980300 0.196000
vn -0.019700 0.983400 0.180200
vn -0.202200 0.979200 0.014500
vn -0.375200 0.900800 -0.218400
vn -0.320700 0.922000 -0.216700
vn -0.253400 0.964500 0.074300
vn -0.183900 0.968700 0.166900
vn -0.072100 0.995400 0.063500
vn 0.009200 0.960500 -0.278100
vn 0.110600 0.900500 -0.420500
vn 0.211800 0.957600 -0.195200
vn 0.257700 0.966200 0.003700
vn 0.280800 0.957900 0.059300
vn 0.301200 0.941600 0.150600
vn 0.329100 0.925500 0.187300
vn 0.286500 0.933200 0.217000
vn 0.122000 0.987100 -0.104000
vn 0.003800 0.962700 -0.270600
vn -0.118600 0.986700 0.111400
vn -0.097300 0.994400 0.039600
vn 0.072400 0.992600 -0.097200
vn 0.178200 0.933400 -0.311200
vn 0.163900 0.878200 -0.449300
vn 0.165000 0.948200 -0.271400
vn 0.460500 0.877100 -0.136600
vn 0.444800 0.894800 0.038500
vn 0.422200 0.891000 0.167100
vn 0.439700 0.891400 0.109500
vn 0.521600 0.833800 0.180800
vn 0.537300 0.843000 0.024200
vn 0.343600 0.939100 -0.000200
vn 0.162500 0.967300 0.194900
vn 0.176900 0.981400 -0.074500
vn 0.289900 0.926500 -0.240000
vn 0.270200 0.920400 -0.282400
vn 0.080400 0.933500 -0.349400
vn -0.015900 0.957300 -0.288600
vn 0.391200 0.903000 -0.177600
vn 0.406400 0.912900 0.036900
vn 0.419900 0.891400 0.170700
vn 0.414000 0.905800 0.090000
vn 0.274600 0.930600 0.241900
vn 0.097300 0.973900 0.205000
vn 0.036000 0.992200 0.118800
vn 0.155700 0.977000 0.145500
vn 0.263300 0.949600 -0.169600
vn 0.253500 0.929000 -0.269300
vn 0.179000 0.972400 -0.149200
vn 0.089800 0.966000 -0.242300
vn 0.093800 0.957100 -0.274300
vn 0.416900 0.892300 -0.173300
vn 0.412700 0.909700 0.046300
vn 0.409700 0.901000 0.142700
vn 0.361500 0.914300 0.182600
vn 0.186400 0.886300 0.424000
vn 0.078200 0.967600 0.240100
vn 0.189200 0.981900 -0.005200
vn 0.366200 0.929900 -0.032800
vn 0.412700 0.898100 -0.151700
vn 0.325800 0.925600 -0.192600
vn 0.299600 0.947500 -0.111200
vn 0.362000 0.897400 -0.252200
vn 0.430100 0.881800 -0.193500
vn 0.511500 0.859200 -0.013700
vn 0.481900 0.870600 0.098800
vn 0.435700 0.888000 0.146600
vn 0.402300 0.881500 0.247300
vn 0.446200 0.809100 0.382400
vn 0.569600 0.799000 0.192600
vn 0.613500 0.782900 -0.103300
vn 0.637000 0.760600 -0.125100
vn 0.603500 0.796800 -0.027500
vn 0.526900 0.847800 -0.059200
vn 0.517700 0.838900 -0.167700
vn 0.528200 0.796100 -0.295300
vn 0.502500 0.856500 -0.117700
vn 0.534600 0.843800 0.047200
vn 0.557900 0.824400 0.095100
vn 0.542500 0.816500 0.197500
vn 0.455600 0.837200 0.302400
vn 0.517900 0.831000 0.203000
vn 0.666400 0.745300 0.018300
vn 0.710600 0.696800 -0.097600
vn 0.688700 0.720900 -0.077300
vn 0.662300 0.748000 0.042600
vn 0.643300 0.764500 -0.040000
vn 0.672900 0.714500 -0.191600
vn 0.650600 0.728800 -0.213600
vn 0.647500 0.755600 -0.099500
vn 0.373400 0.927500 -0.016000
vn 0.397700 0.917300 0.019800
vn 0.469400 0.859300 0.203000
vn 0.497300 0.786500 0.366300
vn 0.508300 0.857900 0.074800
vn 0.526700 0.827900 -0.192400
vn 0.620600 0.774400 -0.123200
vn 0.670900 0.741100 -0.027100
vn 0.697000 0.717100 0.002300
vn 0.738800 0.663500 -0.117900
vn 0.759600 0.631600 -0.155200
vn 0.771800 0.616400 -0.156400
vn 0.797800 0.591900 -0.114600
vn 0.754900 0.638500 -0.149500
vn 0.805000 0.571500 -0.159500
vn 0.845900 0.520800 -0.115200
vn 0.505700 0.849100 -0.152400
vn 0.633700 0.773500 -0.013400
vn 0.666300 0.744100 -0.048600
vn 0.700200 0.695400 -0.162000
vn 0.214200 0.976100 -0.036500
vn 0.225500 0.974100 -0.017800
vn 0.448400 0.891700 0.061200
vn 0.360800 0.890300 -0.277900
vn 0.338000 0.924000 0.178800
vn 0.449900 0.804200 0.388500
vn 0.859900 0.505700 -0.069700
vn 0.812400 0.580400 -0.055400
vn 0.171800 0.951600 -0.254900
vn 0.247100 0.963300 -0.104900
vn -0.025500 0.954100 -0.298400
vn -0.553100 0.814100 -0.177000
vn -0.440500 0.876400 -0.194600
vn -0.161500 0.976900 -0.140200
vn 0.469200 0.878600 0.089300
vn 0.414100 0.909100 0.045700
vn 0.135000 0.980500 -0.142600
vn -0.167500 0.909300 -0.380900
vn -0.037500 0.862700 -0.504400
vn 0.647700 0.761900 0.008200
usemtl None
s 1
f 181//1 180//2 1//3 148//4
f 148//4 1//3 2//5 147//6
f 147//6 2//5 3//7 145//8
f 145//8 3//7 4//9 146//10
f 146//10 4//9 5//11 154//12
f 154//12 5//11 6//13 153//14
f 153//14 6//13 7//15 156//16
f 156//16 7//15 8//17 155//18
f 155//18 8//17 9//19 151//20
f 151//20 9//19 10//21 152//22
f 152//22 10//21 11//23 150//24
f 150//24 11//23 12//25 149//26
f 180//2 177//27 13//28 1//3
f 1//3 13//28 14//29 2//5
f 2//5 14//29 15//30 3//7
f 3//7 15//30 16//31 4//9
f 4//9 16//31 17//32 5//11
f 5//11 17//32 18//33 6//13
f 6//13 18//33 19//34 7//15
f 7//15 19//34 20//35 8//17
f 8//17 20//35 21//36 9//19
f 9//19 21//36 22//37 10//21
f 10//21 22//37 23//38 11//23
f 11//23 23//38 24//39 12//25
f 177//27 171//40 25//41 13//28
f 13//28 25//41 26//42 14//29
f 14//29 26//42 27//43 15//30
f 15//30 27//43 28//44 16//31
f 16//31 28//44 29//45 17//32
f 17//32 29//45 30//46 18//33
f 18//33 30//46 31//47 19//34
f 19//34 31//47 32//48 20//35
f 20//35 32//48 33//49 21//36
f 21//36 33//49 34//50 22//37
f 22//37 34//50 35//51 23//38
f 23//38 35//51 36//52 24//39
f 171//40 173//53 37//54 25//41
f 25//41 37//54 38//55 26//42
f 26//42 38//55 39//56 27//43
f 27//43 39//56 40//57 28//44
f 28//44 40//57 41//58 29//45
f 29//45 41//58 42//59 30//46
f 30//46 42//59 43//60 31//47
f 31//47 43//60 44//61 32//48
f 32//48 44//61 45//62 33//49
f 33//49 45//62 46//63 34//50
f 34//50 46//63 47//64 35//51
f 35//51 47//64 48//65 36//52
f 173//53 175//66 49//67 37//54
f 37//54 49//67 50//68 38//55
f 38//55 50//68 51//69 39//56
f 39//56 51//69 52//70 40//57
f 40//57 52//70 53//71 41//58
f 41//58 53//71 54//72 42//59
f 42//59 54//72 55//73 43//60
f 43//60 55//73 56//74 44//61
f 44//61 56//74 57//75 45//62
f 45//62 57//75 58//76 46//63
f 46//63 58//76 59//77 47//64
f 47//64 59//77 60//78 48//65
f 175//66 179//79 61//80 49//67
f 49//67 61//80 62//81 50//68
f 50//68 62//81 63//82 51//69
f 51//69 63//82 64//83 52//70
f 52//70 64//83 65//84 53//71
f 53//71 65//84 66//85 54//72
f 54//72 66//85 67//86 55//73
f 55//73 67//86 68//87 56//74
f 56//74 68//87 69//88 57//75
f 57//75 69//88 70//89 58//76
f 58//76 70//89 71//90 59//77
f 59//77 71//90 72//91 60//78
f 179//79 178//92 73//93 61//80
f 61//80 73//93 74//94 62//81
f 62//81 74//94 75//95 63//82
f 63//82 75//95 76//96 64//83
f 64//83 76//96 77//97 65//84
f 65//84 77//97 78//98 66//85
f 66//85 78//98 79//99 67//86
f 67//86 79//99 80//100 68//87
f 68//87 80//100 81//101 69//88
f 69//88 81//101 82//102 70//89
f 70//89 82//102 83//103 71//90
f 71//90 83//103 84//104 72//91
f 178//92 176//105 85//106 73//93
f 73//93 85//106 86//107 74//94
f 74//94 86//107 87//108 75//95
f 75//95 87//108 88//109 76//96
f 76//96 88//109 89//110 77//97
f 77//97 89//110 90//111 78//98
f 78//98 90//111 91//112 79//99
f 79//99 91//112 92//113 80//100
f 80//100 92//113 93//114 81//101
f 81//101 93//114 94//115 82//102
f 82//102 94//115 95//116 83//103
f 83//103 95//116 96//117 84//104
f 176//105 170//118 97//119 85//106
f 85//106 97//119 98//120 86//107
f 86//107 98//120 99//121 87//108
f 87//108 99//121 100//122 88//109
f 88//109 100//122 101//123 89//110
f 89//110 101//123 102//124 90//111
f 90//111 102//124 103//125 91//112
f 91//112 103//125 104//126 92//113
f 92//113 104//126 105//127 93//114
f 93//114 105//127 106//128 94//115
f 94//115 106//128 107//129 95//116
f 95//116 107//129 108//130 96//117
f 170//118 172//131 109//132 97//119
f 97//119 109//132 110//133 98//120
f 98//120 110//133 111//134 99//121
f 99//121 111//134 112//135 100//122
f 100//122 112//135 113//136 101//123
f 101//123 113//136 114//137 102//124
f 102//124 114//137 115//138 103//125
f 103//125 115//138 116//139 104//126
f 104//126 116//139 117//140 105//127
f 105//127 117//140 118//141 106//128
f 106//128 118//141 119//142 107//129
f 107//129 119//142 120//143 108//130
f 172//131 169//144 121//145 109//132
f 109//132 121//145 122//146 110//133
f 110//133 122//146 123//147 111//134
f 111//134 123//147 124//148 112//135
f 112//135 124//148 125//149 113//136
f 113//136 125//149 126//150 114//137
f 114//137 126//150 127//151 115//138
f 115//138 127//151 128//152 116//139
f 116//139 128//152 129//153 117//140
f 117//140 129//153 130//154 118//141
f 118//141 130//154 131//155 119//142
f 119//142 131//155 132//156 120//143
f 169//144 174//157 133//158 121//145
f 121//145 133//158 134//159 122//146
f 122//146 134//159 135//160 123//147
f 123//147 135//160 136//161 124//148
f 124//148 136//161 137//162 125//149
f 125//149 137//162 138//163 126//150
f 126//150 138//163 139//164 127//151
f 127//151 139//164 140//165 128//152
f 128//152 140//165 141//166 129//153
f 129//153 141//166 142//167 130//154
f 130//154 142//167 143//168 131//155
f 131//155 143//168 144//169 132//156
f 142//167 158//170 159//171 143//168
f 143//168 159//171 157//172 144//169
f 138//163 160//173 161//174 139//164
f 139//164 161//174 162//175 140//165
f 140//165 162//175 163//176 141//166
f 141//166 163//176 158//170 142//167
f 174//157 182//177 164//178 133//158
f 136//161 165//179 166//180 137//162
f 137//162 166//180 160//173 138//163
f 133//158 164//178 167//181 134//159
f 134//159 167//181 168//182 135//160
f 135//160 168//182 165//179 136//161
f 144//169 157//172 183//183 184//184
f 60//78 72//91 185//185 186//186
f 72//91 84//104 187//187 185//185
f 24//39 36//52 188//188 189//189
f 36//52 48//65 190//190 188//188
f 48//65 60//78 186//186 190//190
f 108//130 120//143 191//191 192//192
f 84//104 96//117 193//193 187//187
f 96//117 108//130 192//192 193//193
f 149//26 12//25 194//194 195//195
f 12//25 24//39 189//189 194//194
f 120//143 132//156 196//196 191//191
f 132//156 144//169 184//184 196//196
