# Blender v2.73 (sub 0) OBJ File: 'untitled.blend'
# www.blender.org
mtllib Landscape.012.mtl
o Landscape.012
v -94.383835 1.361423 94.383835
v -94.383835 1.556082 91.797981
v -94.383835 1.782879 89.212120
v -94.383835 2.011662 86.626259
v -94.383835 2.189018 84.040405
v -94.383835 2.449568 81.454544
v -94.383835 2.428642 78.868690
v -94.383835 2.457337 76.282829
v -94.383835 2.540914 73.696968
v -94.383835 2.646576 71.111115
v -94.383835 2.723909 68.525253
v -94.383835 2.782864 65.939392
v -91.797981 1.599257 94.383835
v -91.797981 1.825696 91.797981
v -91.797981 2.041574 89.212120
v -91.797981 2.211264 86.626259
v -91.797981 2.356768 84.040405
v -91.797981 2.622468 81.454544
v -91.797981 2.760257 78.868690
v -91.797981 2.858631 76.282829
v -91.797981 3.025193 73.696968
v -91.797981 3.057504 71.111115
v -91.797981 3.176234 68.525253
v -91.797981 3.363231 65.939392
v -89.212120 1.944029 94.383835
v -89.212120 2.216371 91.797981
v -89.212120 2.478277 89.212120
v -89.212120 2.706099 86.626259
v -89.212120 2.850683 84.040405
v -89.212120 3.013194 81.454544
v -89.212120 3.217335 78.868690
v -89.212120 3.294112 76.282829
v -89.212120 3.438499 73.696968
v -89.212120 3.562400 71.111115
v -89.212120 3.747489 68.525253
v -89.212120 4.148349 65.939392
v -86.626259 2.143528 94.383835
v -86.626259 2.581419 91.797981
v -86.626259 2.890480 89.212120
v -86.626259 3.145263 86.626259
v -86.626259 3.284802 84.040405
v -86.626259 3.447910 81.454544
v -86.626259 3.876510 78.868690
v -86.626259 3.989073 76.282829
v -86.626259 4.157619 73.696968
v -86.626259 4.167993 71.111115
v -86.626259 4.254776 68.525253
v -86.626259 4.659540 65.939392
v -84.040405 2.602303 94.383835
v -84.040405 2.919064 91.797981
v -84.040405 3.430683 89.212120
v -84.040405 3.790677 86.626259
v -84.040405 4.064181 84.040405
v -84.040405 4.266514 81.454544
v -84.040405 4.607736 78.868690
v -84.040405 4.951346 76.282829
v -84.040405 4.959864 73.696968
v -84.040405 4.833788 71.111115
v -84.040405 4.979977 68.525253
v -84.040405 5.262878 65.939392
v -81.454544 3.142098 94.383835
v -81.454544 3.519903 91.797981
v -81.454544 3.978864 89.212120
v -81.454544 4.438546 86.626259
v -81.454544 4.983514 84.040405
v -81.454544 5.285588 81.454544
v -81.454544 5.290738 78.868690
v -81.454544 5.624492 76.282829
v -81.454544 5.552103 73.696968
v -81.454544 5.454779 71.111115
v -81.454544 5.451449 68.525253
v -81.454544 5.559226 65.939392
v -78.868690 3.567607 94.383835
v -78.868690 3.793002 91.797981
v -78.868690 4.191974 89.212120
v -78.868690 5.039414 86.626259
v -78.868690 5.750271 84.040405
v -78.868690 5.868823 81.454544
v -78.868690 6.082516 78.868690
v -78.868690 6.281251 76.282829
v -78.868690 6.188552 73.696968
v -78.868690 6.137648 71.111115
v -78.868690 6.009081 68.525253
v -78.868690 5.972308 65.939392
v -76.282829 3.542001 94.383835
v -76.282829 3.958851 91.797981
v -76.282829 4.711048 89.212120
v -76.282829 5.657952 86.626259
v -76.282829 6.370057 84.040405
v -76.282829 6.527355 81.454544
v -76.282829 6.815481 78.868690
v -76.282829 6.938589 76.282829
v -76.282829 7.084509 73.696968
v -76.282829 6.841570 71.111115
v -76.282829 6.356876 68.525253
v -76.282829 6.204323 65.939392
v -73.696968 3.479153 94.383835
v -73.696968 4.168803 91.797981
v -73.696968 4.943761 89.212120
v -73.696968 5.933029 86.626259
v -73.696968 6.696221 84.040405
v -73.696968 7.049202 81.454544
v -73.696968 7.241173 78.868690
v -73.696968 7.420362 76.282829
v -73.696968 7.472734 73.696968
v -73.696968 7.312790 71.111115
v -73.696968 6.965290 68.525253
v -73.696968 6.898394 65.939392
v -71.111115 3.776278 94.383835
v -71.111115 4.456737 91.797981
v -71.111115 5.371551 89.212120
v -71.111115 5.963886 86.626259
v -71.111115 6.544845 84.040405
v -71.111115 7.382864 81.454544
v -71.111115 8.030727 78.868690
v -71.111115 8.541821 76.282829
v -71.111115 8.123064 73.696968
v -71.111115 7.805065 71.111115
v -71.111115 7.772849 68.525253
v -71.111115 7.938680 65.939392
v -68.525253 3.844552 94.383835
v -68.525253 4.599985 91.797981
v -68.525253 5.589328 89.212120
v -68.525253 6.189711 86.626259
v -68.525253 7.070395 84.040405
v -68.525253 8.203297 81.454544
v -68.525253 8.979341 78.868690
v -68.525253 9.608001 76.282829
v -68.525253 9.297580 73.696968
v -68.525253 8.531511 71.111115
v -68.525253 8.676424 68.525253
v -68.525253 9.131973 65.939392
v -65.939392 3.972755 94.383835
v -65.939392 4.687569 91.797981
v -65.939392 5.809791 89.212120
v -65.939392 6.578249 86.626259
v -65.939392 7.222611 84.040405
v -65.939392 8.606834 81.454544
v -65.939392 9.585614 78.868690
v -65.939392 10.438105 76.282829
v -65.939392 10.146061 73.696968
v -65.939392 9.465549 71.111115
v -65.939392 10.158781 68.525253
v -65.939392 10.223422 65.939392
v -96.000000 2.334596 73.696968
v -96.000000 2.264420 76.282829
v -96.000000 2.264669 78.868690
v -96.000000 2.003371 84.040405
v -96.000000 2.229739 81.454544
v -96.000000 1.407634 91.797981
v -96.000000 1.608664 89.212120
v -96.000000 1.818754 86.626259
v -96.000000 1.226711 94.383835
v -96.000000 2.387368 71.111115
v -96.000000 2.563016 65.939392
v -96.000000 2.521201 68.525253
v -64.000000 10.316333 73.696968
v -64.000000 9.855981 71.111115
v -64.000000 10.420804 76.282829
v -64.000000 9.393591 78.868690
v -64.000000 10.218360 68.525253
v -64.000000 10.528694 65.939392
v -64.000000 5.743851 89.212120
v -64.000000 6.804782 86.626259
v -64.000000 7.347179 84.040405
v -64.000000 8.464527 81.454544
v -64.000000 4.154978 94.383835
v -64.000000 4.982121 91.797981
v -78.868690 3.267271 96.000000
v -73.696968 3.316345 96.000000
v -89.212120 1.745421 96.000000
v -76.282829 3.316834 96.000000
v -91.797981 1.440300 96.000000
v -68.525253 3.464779 96.000000
v -94.383835 1.221723 96.000000
v -81.454544 2.846210 96.000000
v -71.111115 3.439115 96.000000
v -86.626259 1.981133 96.000000
v -84.040405 2.350593 96.000000
v -65.939392 3.629556 96.000000
v -96.000000 1.079827 96.000000
v -64.000000 3.816678 96.000000
v -71.111115 7.953233 64.000000
v -73.696968 7.357523 64.000000
v -86.626259 4.803391 64.000000
v -89.212120 4.291911 64.000000
v -68.525253 9.161001 64.000000
v -76.282829 6.532472 64.000000
v -94.383835 2.974072 64.000000
v -96.000000 2.694711 64.000000
v -84.040405 5.447331 64.000000
v -81.454544 6.004363 64.000000
v -91.797981 3.596029 64.000000
v -65.939392 9.857288 64.000000
v -64.000000 10.147077 64.000000
v -78.868690 6.300987 64.000000
vn -0.084900 0.992500 0.088000
vn -0.086200 0.992200 0.089800
vn -0.089200 0.992500 0.083100
vn -0.086000 0.993100 0.080100
vn -0.096200 0.992100 0.080000
vn -0.093000 0.992700 0.077100
vn -0.100200 0.991600 0.081900
vn -0.105700 0.990900 0.083000
vn -0.096800 0.992600 0.073000
vn -0.114200 0.990500 0.076700
vn -0.094100 0.992200 0.081400
vn -0.120000 0.989500 0.081100
vn -0.101100 0.993300 0.054800
vn -0.121100 0.991500 0.048100
vn -0.116200 0.993100 0.013700
vn -0.113800 0.993500 0.004100
vn -0.135300 0.990400 0.026700
vn -0.116100 0.993100 0.017500
vn -0.151000 0.987900 0.033400
vn -0.132500 0.990700 0.029900
vn -0.154700 0.987400 0.033600
vn -0.141900 0.989200 0.035300
vn -0.157800 0.986800 0.035900
vn -0.135500 0.990300 0.029900
vn -0.175700 0.982400 0.063400
vn -0.140900 0.988700 0.050600
vn -0.105600 0.989300 0.100300
vn -0.112200 0.989200 0.094200
vn -0.124000 0.988400 0.087900
vn -0.130900 0.988000 0.082000
vn -0.130900 0.989100 0.067400
vn -0.123100 0.989500 0.075000
vn -0.123200 0.990100 0.067500
vn -0.142300 0.989100 0.036400
vn -0.160200 0.986200 0.041100
vn -0.168900 0.984800 0.040700
vn -0.178300 0.983200 0.037700
vn -0.204000 0.977000 0.062600
vn -0.236800 0.967400 0.088900
vn -0.103800 0.988500 0.109900
vn -0.113700 0.987100 0.112500
vn -0.138200 0.984500 0.107500
vn -0.160900 0.982700 0.091600
vn -0.173100 0.982500 0.069100
vn -0.171800 0.983100 0.063100
vn -0.175100 0.981100 0.081700
vn -0.197800 0.978200 0.063400
vn -0.212200 0.976100 0.046600
vn -0.212300 0.976300 0.043200
vn -0.209200 0.977000 0.040900
vn -0.214700 0.972300 0.092200
vn -0.227800 0.967800 0.106800
vn -0.119900 0.985700 0.118100
vn -0.124600 0.983800 0.128500
vn -0.143000 0.980400 0.135200
vn -0.174200 0.977600 0.117600
vn -0.203900 0.975300 0.084600
vn -0.223000 0.972600 0.065200
vn -0.237700 0.966500 0.097200
vn -0.264000 0.959800 0.095000
vn -0.287400 0.956300 0.052600
vn -0.277200 0.960500 0.023500
vn -0.247700 0.968500 0.024600
vn -0.226900 0.969400 0.093500
vn -0.216600 0.970200 0.108300
vn -0.175000 0.973900 0.144400
vn -0.178700 0.973800 0.140800
vn -0.185700 0.970800 0.151700
vn -0.206200 0.966800 0.150700
vn -0.249200 0.960500 0.123600
vn -0.299100 0.949300 0.096600
vn -0.310400 0.946200 0.091400
vn -0.290200 0.951400 0.102900
vn -0.280700 0.958000 0.057700
vn -0.265600 0.964000 -0.010800
vn -0.242200 0.970200 0.001800
vn -0.215400 0.974100 0.068500
vn -0.197100 0.974100 0.110400
vn -0.176700 0.969200 0.171400
vn -0.175100 0.973500 0.147200
vn -0.163500 0.975400 0.147400
vn -0.170000 0.968000 0.184500
vn -0.227600 0.954300 0.193700
vn -0.285200 0.948500 0.138000
vn -0.292200 0.953900 0.068400
vn -0.272300 0.958600 0.082300
vn -0.250700 0.967000 0.045300
vn -0.238900 0.970600 -0.028100
vn -0.228800 0.973300 -0.016900
vn -0.192800 0.981000 0.022600
vn -0.156800 0.981500 0.109900
vn -0.082800 0.981900 0.170400
vn -0.080800 0.986200 0.144500
vn -0.095100 0.983400 0.154300
vn -0.143600 0.961300 0.235200
vn -0.208100 0.941900 0.263500
vn -0.242100 0.957800 0.155100
vn -0.251700 0.965500 0.065900
vn -0.260800 0.962600 0.073500
vn -0.264800 0.963700 0.034400
vn -0.268200 0.963000 -0.025900
vn -0.243500 0.968300 -0.055800
vn -0.182100 0.982400 -0.040800
vn -0.130100 0.987800 0.085100
vn 0.003800 0.990200 0.139900
vn -0.011800 0.988100 0.153200
vn -0.066400 0.975900 0.207900
vn -0.127400 0.947400 0.293300
vn -0.158000 0.940500 0.300700
vn -0.184700 0.967900 0.170500
vn -0.210100 0.974100 0.083400
vn -0.217500 0.973100 0.075400
vn -0.221700 0.974200 0.041300
vn -0.228000 0.973400 -0.020800
vn -0.215500 0.971300 -0.100700
vn -0.189400 0.978000 -0.086900
vn -0.180600 0.981000 0.070200
vn -0.033900 0.990100 0.135900
vn -0.051000 0.981600 0.183800
vn -0.087300 0.960600 0.263800
vn -0.097500 0.946300 0.308300
vn -0.066400 0.954300 0.291300
vn -0.071500 0.974700 0.211600
vn -0.146200 0.978800 0.143000
vn -0.226700 0.968000 0.107700
vn -0.253300 0.966600 0.038900
vn -0.217800 0.974700 -0.049200
vn -0.206100 0.973600 -0.098000
vn -0.257100 0.964300 -0.062900
vn -0.290100 0.954300 0.071700
vn -0.049000 0.981600 0.184500
vn -0.061700 0.972700 0.223400
vn -0.086200 0.951900 0.294100
vn -0.090500 0.951900 0.292700
vn -0.070800 0.963100 0.259400
vn -0.096100 0.956900 0.273800
vn -0.200200 0.947900 0.247800
vn -0.307500 0.933400 0.184600
vn -0.358600 0.932900 0.033200
vn -0.318700 0.940200 -0.120200
vn -0.274900 0.957900 -0.083000
vn -0.314200 0.949100 0.019300
vn -0.358600 0.931300 0.064200
vn -0.036400 0.975400 0.217300
vn -0.038100 0.969100 0.243800
vn -0.050100 0.947400 0.316100
vn -0.079200 0.950300 0.300900
vn -0.109000 0.960100 0.257300
vn -0.144500 0.931100 0.334800
vn -0.208000 0.917400 0.339100
vn -0.277600 0.925000 0.259500
vn -0.332700 0.941200 0.058900
vn -0.339800 0.924400 -0.173000
vn -0.348200 0.934700 -0.070700
vn -0.384700 0.918400 0.092500
vn -0.393400 0.918800 0.032100
vn -0.073800 0.974500 0.211800
vn -0.076200 0.966500 0.245200
vn -0.067400 0.945200 0.319300
vn -0.065900 0.942800 0.326500
vn -0.084700 0.958000 0.274000
vn -0.070800 0.935700 0.345700
vn -0.049000 0.922100 0.383900
vn -0.079000 0.944100 0.320000
vn -0.140100 0.984300 0.107200
vn -0.201400 0.965600 -0.164300
vn -0.259600 0.965100 -0.033200
vn -0.268500 0.954700 0.128100
vn -0.255600 0.966400 -0.027500
vn -0.089600 0.985400 -0.145000
vn -0.129200 0.991600 -0.007900
vn 0.005900 0.990700 0.135800
vn 0.066000 0.937000 0.343100
vn -0.103400 0.985400 0.135500
vn -0.122200 0.990800 -0.057600
vn -0.047200 0.940100 0.337500
vn -0.064100 0.958600 0.277300
vn -0.041600 0.942100 0.332900
vn 0.041800 0.919100 0.391700
vn -0.105200 0.963700 0.245400
vn -0.085400 0.945600 0.313900
vn -0.092800 0.974300 0.205400
vn -0.361700 0.930200 0.063100
vn -0.288800 0.945200 0.152000
vn -0.213800 0.973800 0.077300
vn -0.233600 0.968800 0.082700
vn -0.374100 0.926700 -0.036100
vn -0.185200 0.966100 0.179800
vn -0.189300 0.977400 0.094200
vn -0.152100 0.985000 0.082000
vn -0.197000 0.972900 0.120800
vn -0.146800 0.973300 0.176500
vn -0.250200 0.963100 0.099300
vn -0.240700 0.961300 -0.134000
vn -0.149000 0.971000 -0.187200
vn -0.110500 0.977400 0.180000
usemtl None
s 1
f 181//1 175//2 1//3 153//4
f 153//4 1//3 2//5 150//6
f 150//6 2//5 3//7 151//8
f 151//8 3//7 4//9 152//10
f 152//10 4//9 5//11 148//12
f 148//12 5//11 6//13 149//14
f 149//14 6//13 7//15 147//16
f 147//16 7//15 8//17 146//18
f 146//18 8//17 9//19 145//20
f 145//20 9//19 10//21 154//22
f 154//22 10//21 11//23 156//24
f 156//24 11//23 12//25 155//26
f 175//2 173//27 13//28 1//3
f 1//3 13//28 14//29 2//5
f 2//5 14//29 15//30 3//7
f 3//7 15//30 16//31 4//9
f 4//9 16//31 17//32 5//11
f 5//11 17//32 18//33 6//13
f 6//13 18//33 19//34 7//15
f 7//15 19//34 20//35 8//17
f 8//17 20//35 21//36 9//19
f 9//19 21//36 22//37 10//21
f 10//21 22//37 23//38 11//23
f 11//23 23//38 24//39 12//25
f 173//27 171//40 25//41 13//28
f 13//28 25//41 26//42 14//29
f 14//29 26//42 27//43 15//30
f 15//30 27//43 28//44 16//31
f 16//31 28//44 29//45 17//32
f 17//32 29//45 30//46 18//33
f 18//33 30//46 31//47 19//34
f 19//34 31//47 32//48 20//35
f 20//35 32//48 33//49 21//36
f 21//36 33//49 34//50 22//37
f 22//37 34//50 35//51 23//38
f 23//38 35//51 36//52 24//39
f 171//40 178//53 37//54 25//41
f 25//41 37//54 38//55 26//42
f 26//42 38//55 39//56 27//43
f 27//43 39//56 40//57 28//44
f 28//44 40//57 41//58 29//45
f 29//45 41//58 42//59 30//46
f 30//46 42//59 43//60 31//47
f 31//47 43//60 44//61 32//48
f 32//48 44//61 45//62 33//49
f 33//49 45//62 46//63 34//50
f 34//50 46//63 47//64 35//51
f 35//51 47//64 48//65 36//52
f 178//53 179//66 49//67 37//54
f 37//54 49//67 50//68 38//55
f 38//55 50//68 51//69 39//56
f 39//56 51//69 52//70 40//57
f 40//57 52//70 53//71 41//58
f 41//58 53//71 54//72 42//59
f 42//59 54//72 55//73 43//60
f 43//60 55//73 56//74 44//61
f 44//61 56//74 57//75 45//62
f 45//62 57//75 58//76 46//63
f 46//63 58//76 59//77 47//64
f 47//64 59//77 60//78 48//65
f 179//66 176//79 61//80 49//67
f 49//67 61//80 62//81 50//68
f 50//68 62//81 63//82 51//69
f 51//69 63//82 64//83 52//70
f 52//70 64//83 65//84 53//71
f 53//71 65//84 66//85 54//72
f 54//72 66//85 67//86 55//73
f 55//73 67//86 68//87 56//74
f 56//74 68//87 69//88 57//75
f 57//75 69//88 70//89 58//76
f 58//76 70//89 71//90 59//77
f 59//77 71//90 72//91 60//78
f 176//79 169//92 73//93 61//80
f 61//80 73//93 74//94 62//81
f 62//81 74//94 75//95 63//82
f 63//82 75//95 76//96 64//83
f 64//83 76//96 77//97 65//84
f 65//84 77//97 78//98 66//85
f 66//85 78//98 79//99 67//86
f 67//86 79//99 80//100 68//87
f 68//87 80//100 81//101 69//88
f 69//88 81//101 82//102 70//89
f 70//89 82//102 83//103 71//90
f 71//90 83//103 84//104 72//91
f 169//92 172//105 85//106 73//93
f 73//93 85//106 86//107 74//94
f 74//94 86//107 87//108 75//95
f 75//95 87//108 88//109 76//96
f 76//96 88//109 89//110 77//97
f 77//97 89//110 90//111 78//98
f 78//98 90//111 91//112 79//99
f 79//99 91//112 92//113 80//100
f 80//100 92//113 93//114 81//101
f 81//101 93//114 94//115 82//102
f 82//102 94//115 95//116 83//103
f 83//103 95//116 96//117 84//104
f 172//105 170//118 97//119 85//106
f 85//106 97//119 98//120 86//107
f 86//107 98//120 99//121 87//108
f 87//108 99//121 100//122 88//109
f 88//109 100//122 101//123 89//110
f 89//110 101//123 102//124 90//111
f 90//111 102//124 103//125 91//112
f 91//112 103//125 104//126 92//113
f 92//113 104//126 105//127 93//114
f 93//114 105//127 106//128 94//115
f 94//115 106//128 107//129 95//116
f 95//116 107//129 108//130 96//117
f 170//118 177//131 109//132 97//119
f 97//119 109//132 110//133 98//120
f 98//120 110//133 111//134 99//121
f 99//121 111//134 112//135 100//122
f 100//122 112//135 113//136 101//123
f 101//123 113//136 114//137 102//124
f 102//124 114//137 115//138 103//125
f 103//125 115//138 116//139 104//126
f 104//126 116//139 117//140 105//127
f 105//127 117//140 118//141 106//128
f 106//128 118//141 119//142 107//129
f 107//129 119//142 120//143 108//130
f 177//131 174//144 121//145 109//132
f 109//132 121//145 122//146 110//133
f 110//133 122//146 123//147 111//134
f 111//134 123//147 124//148 112//135
f 112//135 124//148 125//149 113//136
f 113//136 125//149 126//150 114//137
f 114//137 126//150 127//151 115//138
f 115//138 127//151 128//152 116//139
f 116//139 128//152 129//153 117//140
f 117//140 129//153 130//154 118//141
f 118//141 130//154 131//155 119//142
f 119//142 131//155 132//156 120//143
f 174//144 180//157 133//158 121//145
f 121//145 133//158 134//159 122//146
f 122//146 134//159 135//160 123//147
f 123//147 135//160 136//161 124//148
f 124//148 136//161 137//162 125//149
f 125//149 137//162 138//163 126//150
f 126//150 138//163 139//164 127//151
f 127//151 139//164 140//165 128//152
f 128//152 140//165 141//166 129//153
f 129//153 141//166 142//167 130//154
f 130//154 142//167 143//168 131//155
f 131//155 143//168 144//169 132//156
f 141//166 157//170 158//171 142//167
f 140//165 159//172 157//170 141//166
f 139//164 160//173 159//172 140//165
f 142//167 158//171 161//174 143//168
f 143//168 161//174 162//175 144//169
f 135//160 163//176 164//177 136//161
f 136//161 164//177 165//178 137//162
f 137//162 165//178 166//179 138//163
f 138//163 166//179 160//173 139//164
f 133//158 167//180 168//181 134//159
f 134//159 168//181 163//176 135//160
f 180//157 182//182 167//180 133//158
f 108//130 120//143 183//183 184//184
f 36//52 48//65 185//185 186//186
f 120//143 132//156 187//187 183//183
f 96//117 108//130 184//184 188//188
f 155//26 12//25 189//189 190//190
f 48//65 60//78 191//191 185//185
f 60//78 72//91 192//192 191//191
f 12//25 24//39 193//193 189//189
f 24//39 36//52 186//186 193//193
f 132//156 144//169 194//194 187//187
f 144//169 162//175 195//195 194//194
f 72//91 84//104 196//196 192//192
f 84//104 96//117 188//188 196//196
