# Blender v2.73 (sub 0) OBJ File: 'untitled.blend'
# www.blender.org
mtllib Landscape.003.mtl
o Landscape.003
v -128.000000 0.000000 94.383835
v -128.000000 0.000000 91.797981
v -128.000000 0.000000 89.212120
v -128.000000 0.000000 86.626259
v -128.000000 0.000000 84.040405
v -128.000000 0.000000 81.454544
v -128.000000 0.000000 78.868690
v -128.000000 0.000000 76.282829
v -128.000000 0.000000 73.696968
v -128.000000 0.000000 71.111115
v -128.000000 0.000000 68.525253
v -128.000000 0.000000 65.939392
v -125.414139 0.000000 94.383835
v -125.414139 0.000000 91.797981
v -125.414139 0.000000 89.212120
v -125.414139 0.000000 86.626259
v -125.414139 0.000000 84.040405
v -125.414139 0.000000 81.454544
v -125.414139 0.000000 78.868690
v -125.414139 0.000000 76.282829
v -125.414139 0.000000 73.696968
v -125.414139 0.000000 71.111115
v -125.414139 0.000000 68.525253
v -125.414139 0.000642 65.939392
v -122.828285 0.000000 94.383835
v -122.828285 0.000000 91.797981
v -122.828285 0.000000 89.212120
v -122.828285 0.000000 86.626259
v -122.828285 0.000000 84.040405
v -122.828285 0.000000 81.454544
v -122.828285 0.000614 78.868690
v -122.828285 0.006440 76.282829
v -122.828285 0.017252 73.696968
v -122.828285 0.031566 71.111115
v -122.828285 0.047565 68.525253
v -122.828285 0.063404 65.939392
v -120.242424 0.000000 94.383835
v -120.242424 0.000000 91.797981
v -120.242424 0.000000 89.212120
v -120.242424 0.001419 86.626259
v -120.242424 0.013889 84.040405
v -120.242424 0.034705 81.454544
v -120.242424 0.061281 78.868690
v -120.242424 0.091619 76.282829
v -120.242424 0.132594 73.696968
v -120.242424 0.165589 71.111115
v -120.242424 0.190326 68.525253
v -120.242424 0.218573 65.939392
v -117.656563 0.000000 94.383835
v -117.656563 0.004308 91.797981
v -117.656563 0.026063 89.212120
v -117.656563 0.063223 86.626259
v -117.656563 0.109842 84.040405
v -117.656563 0.155065 81.454544
v -117.656563 0.205199 78.868690
v -117.656563 0.263756 76.282829
v -117.656563 0.331021 73.696968
v -117.656563 0.376393 71.111115
v -117.656563 0.430413 68.525253
v -117.656563 0.488007 65.939392
v -115.070709 0.022170 94.383835
v -115.070709 0.064129 91.797981
v -115.070709 0.126091 89.212120
v -115.070709 0.203019 86.626259
v -115.070709 0.283353 84.040405
v -115.070709 0.340124 81.454544
v -115.070709 0.405381 78.868690
v -115.070709 0.482064 76.282829
v -115.070709 0.566963 73.696968
v -115.070709 0.619957 71.111115
v -115.070709 0.695075 68.525253
v -115.070709 0.754516 65.939392
v -112.484848 0.099799 94.383835
v -112.484848 0.178548 91.797981
v -112.484848 0.275946 89.212120
v -112.484848 0.387950 86.626259
v -112.484848 0.495061 84.040405
v -112.484848 0.573557 81.454544
v -112.484848 0.650952 78.868690
v -112.484848 0.699174 76.282829
v -112.484848 0.811670 73.696968
v -112.484848 0.883114 71.111115
v -112.484848 0.959577 68.525253
v -112.484848 1.047950 65.939392
v -109.898987 0.223316 94.383835
v -109.898987 0.334628 91.797981
v -109.898987 0.456119 89.212120
v -109.898987 0.599403 86.626259
v -109.898987 0.746005 84.040405
v -109.898987 0.851468 81.454544
v -109.898987 0.873486 78.868690
v -109.898987 0.921462 76.282829
v -109.898987 1.044841 73.696968
v -109.898987 1.118423 71.111115
v -109.898987 1.216357 68.525253
v -109.898987 1.331782 65.939392
v -107.313133 0.373546 94.383835
v -107.313133 0.495513 91.797981
v -107.313133 0.664187 89.212120
v -107.313133 0.860072 86.626259
v -107.313133 0.969475 84.040405
v -107.313133 1.105993 81.454544
v -107.313133 1.092151 78.868690
v -107.313133 1.122332 76.282829
v -107.313133 1.186768 73.696968
v -107.313133 1.272678 71.111115
v -107.313133 1.396471 68.525253
v -107.313133 1.589687 65.939392
v -104.727272 0.532629 94.383835
v -104.727272 0.703955 91.797981
v -104.727272 0.910801 89.212120
v -104.727272 1.161683 86.626259
v -104.727272 1.237533 84.040405
v -104.727272 1.260044 81.454544
v -104.727272 1.268154 78.868690
v -104.727272 1.286040 76.282829
v -104.727272 1.371530 73.696968
v -104.727272 1.456105 71.111115
v -104.727272 1.622365 68.525253
v -104.727272 1.718245 65.939392
v -102.141411 0.720268 94.383835
v -102.141411 0.926102 91.797981
v -102.141411 1.124902 89.212120
v -102.141411 1.334519 86.626259
v -102.141411 1.505681 84.040405
v -102.141411 1.479331 81.454544
v -102.141411 1.444147 78.868690
v -102.141411 1.584697 76.282829
v -102.141411 1.615340 73.696968
v -102.141411 1.674955 71.111115
v -102.141411 1.843679 68.525253
v -102.141411 1.867702 65.939392
v -99.555557 0.943177 94.383835
v -99.555557 1.151563 91.797981
v -99.555557 1.268093 89.212120
v -99.555557 1.448312 86.626259
v -99.555557 1.647333 84.040405
v -99.555557 1.754015 81.454544
v -99.555557 1.737461 78.868690
v -99.555557 1.840728 76.282829
v -99.555557 1.967236 73.696968
v -99.555557 2.007392 71.111115
v -99.555557 2.104914 68.525253
v -99.555557 2.097219 65.939392
v -96.969696 1.145885 94.383835
v -96.969696 1.318565 91.797981
v -96.969696 1.504135 89.212120
v -96.969696 1.703010 86.626259
v -96.969696 1.891983 84.040405
v -96.969696 2.097842 81.454544
v -96.969696 2.166286 78.868690
v -96.969696 2.148669 76.282829
v -96.969696 2.210806 73.696968
v -96.969696 2.231843 71.111115
v -96.969696 2.399576 68.525253
v -96.969696 2.431108 65.939392
v -96.000000 2.521201 68.525253
v -96.000000 2.563016 65.939392
v -96.000000 2.387368 71.111115
v -96.000000 1.226711 94.383835
v -96.000000 1.608664 89.212120
v -96.000000 1.818754 86.626259
v -96.000000 1.407634 91.797981
v -96.000000 2.003371 84.040405
v -96.000000 2.229739 81.454544
v -96.000000 2.264669 78.868690
v -96.000000 2.264420 76.282829
v -96.000000 2.334596 73.696968
v -96.969696 0.994689 96.000000
v -109.898987 0.172276 96.000000
v -128.000000 0.000000 96.000000
v -104.727272 0.453414 96.000000
v -120.242424 0.000000 96.000000
v -107.313133 0.307226 96.000000
v -122.828285 0.000000 96.000000
v -112.484848 0.065569 96.000000
v -125.414139 0.000000 96.000000
v -102.141411 0.624614 96.000000
v -117.656563 0.000000 96.000000
v -115.070709 0.009825 96.000000
v -99.555557 0.815423 96.000000
v -96.000000 1.079827 96.000000
v -115.070709 0.804043 64.000000
v -117.656563 0.531954 64.000000
v -102.141411 1.951249 64.000000
v -104.727272 1.792073 64.000000
v -112.484848 1.140507 64.000000
v -109.898987 1.399268 64.000000
v -120.242424 0.254541 64.000000
v -99.555557 2.143699 64.000000
v -107.313133 1.635088 64.000000
v -125.414139 0.002619 64.000000
v -128.000000 0.000000 64.000000
v -122.828285 0.076223 64.000000
v -96.969696 2.527096 64.000000
v -96.000000 2.694711 64.000000
vn 0.000000 1.000000 0.000000
vn -0.000400 1.000000 0.000300
vn -0.001500 1.000000 0.000800
vn -0.003500 1.000000 0.001200
vn -0.006200 1.000000 0.001500
vn -0.009200 0.999900 0.001600
vn -0.000100 1.000000 0.000100
vn -0.012100 0.999900 0.001900
vn -0.000800 1.000000 0.000600
vn -0.003100 1.000000 0.001600
vn -0.007000 1.000000 0.002300
vn -0.012000 0.999900 0.003400
vn -0.018200 0.999800 0.005000
vn -0.025200 0.999600 0.006000
vn -0.031600 0.999500 0.005700
vn -0.036900 0.999300 0.005600
vn -0.042400 0.999100 0.007000
vn -0.000200 1.000000 0.000200
vn -0.001600 1.000000 0.001300
vn -0.005800 1.000000 0.003000
vn -0.012700 0.999900 0.005400
vn -0.021100 0.999700 0.007600
vn -0.030200 0.999500 0.009200
vn -0.039600 0.999100 0.011000
vn -0.049800 0.998700 0.013700
vn -0.059300 0.998100 0.013800
vn -0.066800 0.997700 0.011800
vn -0.073900 0.997200 0.012000
vn -0.081200 0.996600 0.014500
vn -0.003100 1.000000 0.001900
vn -0.005700 1.000000 0.003400
vn -0.013300 0.999900 0.007500
vn -0.025000 0.999600 0.012500
vn -0.038500 0.999100 0.016300
vn -0.050400 0.998600 0.017100
vn -0.059100 0.998100 0.017400
vn -0.066700 0.997600 0.020100
vn -0.075100 0.996900 0.023300
vn -0.082500 0.996300 0.021000
vn -0.088900 0.995800 0.018500
vn -0.096200 0.995100 0.019700
vn -0.102200 0.994500 0.020800
vn -0.016000 0.999800 0.009100
vn -0.021200 0.999700 0.012600
vn -0.033700 0.999200 0.019800
vn -0.048200 0.998500 0.026300
vn -0.061900 0.997600 0.029800
vn -0.072900 0.997000 0.026600
vn -0.080300 0.996500 0.023800
vn -0.084000 0.996100 0.024900
vn -0.086500 0.995800 0.029300
vn -0.091600 0.995400 0.027500
vn -0.097300 0.994900 0.024200
vn -0.102100 0.994400 0.026200
vn -0.108400 0.993700 0.027800
vn -0.035100 0.999200 0.020400
vn -0.040300 0.998800 0.025200
vn -0.051700 0.998100 0.033200
vn -0.063900 0.997200 0.039600
vn -0.076300 0.996200 0.042600
vn -0.088200 0.995400 0.036600
vn -0.094000 0.995200 0.027000
vn -0.090800 0.995600 0.022300
vn -0.087800 0.995600 0.031500
vn -0.091100 0.995200 0.033800
vn -0.096000 0.995000 0.028600
vn -0.101800 0.994300 0.032500
vn -0.109000 0.993300 0.036200
vn -0.049700 0.998300 0.031300
vn -0.053300 0.997900 0.036000
vn -0.062400 0.997000 0.044900
vn -0.075300 0.995700 0.053100
vn -0.086900 0.994800 0.053100
vn -0.093900 0.994500 0.045000
vn -0.095200 0.995100 0.025600
vn -0.088500 0.996000 0.013600
vn -0.080100 0.996400 0.028800
vn -0.075300 0.996500 0.035100
vn -0.076600 0.996500 0.033700
vn -0.086800 0.995200 0.043700
vn -0.096800 0.994400 0.042100
vn -0.056900 0.997600 0.040600
vn -0.061200 0.997100 0.045600
vn -0.072300 0.995700 0.057300
vn -0.088400 0.993600 0.069700
vn -0.099400 0.993300 0.058900
vn -0.094000 0.994800 0.040500
vn -0.082000 0.996400 0.019400
vn -0.075300 0.997100 0.006200
vn -0.069900 0.997300 0.022300
vn -0.065300 0.997300 0.032200
vn -0.067800 0.996900 0.040500
vn -0.073900 0.995800 0.053400
vn -0.075700 0.996200 0.043600
vn -0.064000 0.996700 0.049400
vn -0.069400 0.995900 0.056900
vn -0.080200 0.994300 0.069800
vn -0.087700 0.992800 0.081000
vn -0.093400 0.993500 0.064300
vn -0.092300 0.995300 0.028300
vn -0.078800 0.996900 0.005900
vn -0.074200 0.997200 0.008300
vn -0.082100 0.996300 0.022700
vn -0.082900 0.996200 0.028000
vn -0.080900 0.995700 0.045200
vn -0.075800 0.995800 0.049800
vn -0.063600 0.997300 0.037500
vn -0.074300 0.995300 0.061300
vn -0.078400 0.994500 0.068700
vn -0.079900 0.994100 0.072700
vn -0.069600 0.994700 0.075500
vn -0.064500 0.995400 0.070600
vn -0.077000 0.996500 0.033400
vn -0.089900 0.995900 -0.000100
vn -0.095600 0.995300 0.015500
vn -0.104500 0.994000 0.032400
vn -0.110300 0.993600 0.024800
vn -0.104700 0.993700 0.040600
vn -0.091200 0.995200 0.035400
vn -0.076700 0.996700 0.025000
vn -0.076500 0.994100 0.077200
vn -0.077500 0.994000 0.076800
vn -0.076400 0.994800 0.067900
vn -0.073000 0.995100 0.066700
vn -0.072200 0.994700 0.073400
vn -0.084600 0.994900 0.055300
vn -0.112600 0.993400 0.018900
vn -0.125900 0.991900 0.015800
vn -0.117300 0.992600 0.032400
vn -0.111000 0.993500 0.024300
vn -0.108700 0.993500 0.033200
vn -0.107200 0.993800 0.027400
vn -0.108400 0.993900 0.019300
vn -0.079100 0.992900 0.088600
vn -0.079100 0.993700 0.079600
vn -0.083700 0.994100 0.068400
vn -0.095800 0.992900 0.070900
vn -0.104600 0.991700 0.074300
vn -0.112200 0.991100 0.072100
vn -0.125700 0.991100 0.043100
vn -0.129100 0.991500 0.010700
vn -0.119800 0.992600 0.018600
vn -0.115300 0.993100 0.021900
vn -0.118400 0.992400 0.033600
vn -0.122900 0.991900 0.031800
vn -0.135000 0.990400 0.028200
vn -0.135400 0.990100 0.035800
vn -0.141100 0.989300 0.036100
vn -0.141900 0.989200 0.036000
vn -0.084900 0.992200 0.091500
vn -0.086000 0.993100 0.079700
vn -0.105800 0.991500 0.076300
vn -0.114300 0.990600 0.074900
vn -0.093100 0.993100 0.071100
vn -0.120100 0.989800 0.077100
vn -0.121000 0.991300 0.051100
vn -0.113800 0.993500 0.008200
vn -0.116200 0.993200 0.011000
vn -0.132600 0.991000 0.019700
vn -0.112200 0.993200 0.030200
vn -0.104300 0.994300 0.022200
vn -0.070400 0.996800 0.036900
vn -0.057300 0.997700 0.035600
vn -0.112500 0.992900 0.038700
vn -0.099600 0.994400 0.035000
vn -0.084800 0.996300 0.016500
vn -0.109400 0.993400 0.034900
vn -0.075000 0.996700 0.029800
vn -0.013500 0.999900 0.002200
vn -0.000600 1.000000 0.000500
vn -0.045400 0.998900 0.008200
vn -0.144900 0.988300 0.047200
vn -0.152400 0.986600 0.057900
usemtl None
s 1
f 171//1 177//1 13//1 1//1
f 1//1 13//1 14//1 2//1
f 2//1 14//1 15//1 3//1
f 3//1 15//1 16//1 4//1
f 4//1 16//1 17//1 5//1
f 5//1 17//1 18//1 6//1
f 6//1 18//1 19//2 7//1
f 7//1 19//2 20//3 8//1
f 8//1 20//3 21//4 9//1
f 9//1 21//4 22//5 10//1
f 10//1 22//5 23//6 11//7
f 11//7 23//6 24//8 12//2
f 177//1 175//1 25//1 13//1
f 13//1 25//1 26//1 14//1
f 14//1 26//1 27//7 15//1
f 15//1 27//7 28//9 16//1
f 16//1 28//9 29//10 17//1
f 17//1 29//10 30//11 18//1
f 18//1 30//11 31//12 19//2
f 19//2 31//12 32//13 20//3
f 20//3 32//13 33//14 21//4
f 21//4 33//14 34//15 22//5
f 22//5 34//15 35//16 23//6
f 23//6 35//16 36//17 24//8
f 175//1 173//1 37//18 25//1
f 25//1 37//18 38//19 26//1
f 26//1 38//19 39//20 27//7
f 27//7 39//20 40//21 28//9
f 28//9 40//21 41//22 29//10
f 29//10 41//22 42//23 30//11
f 30//11 42//23 43//24 31//12
f 31//12 43//24 44//25 32//13
f 32//13 44//25 45//26 33//14
f 33//14 45//26 46//27 34//15
f 34//15 46//27 47//28 35//16
f 35//16 47//28 48//29 36//17
f 173//1 179//30 49//31 37//18
f 37//18 49//31 50//32 38//19
f 38//19 50//32 51//33 39//20
f 39//20 51//33 52//34 40//21
f 40//21 52//34 53//35 41//22
f 41//22 53//35 54//36 42//23
f 42//23 54//36 55//37 43//24
f 43//24 55//37 56//38 44//25
f 44//25 56//38 57//39 45//26
f 45//26 57//39 58//40 46//27
f 46//27 58//40 59//41 47//28
f 47//28 59//41 60//42 48//29
f 179//30 180//43 61//44 49//31
f 49//31 61//44 62//45 50//32
f 50//32 62//45 63//46 51//33
f 51//33 63//46 64//47 52//34
f 52//34 64//47 65//48 53//35
f 53//35 65//48 66//49 54//36
f 54//36 66//49 67//50 55//37
f 55//37 67//50 68//51 56//38
f 56//38 68//51 69//52 57//39
f 57//39 69//52 70//53 58//40
f 58//40 70//53 71//54 59//41
f 59//41 71//54 72//55 60//42
f 180//43 176//56 73//57 61//44
f 61//44 73//57 74//58 62//45
f 62//45 74//58 75//59 63//46
f 63//46 75//59 76//60 64//47
f 64//47 76//60 77//61 65//48
f 65//48 77//61 78//62 66//49
f 66//49 78//62 79//63 67//50
f 67//50 79//63 80//64 68//51
f 68//51 80//64 81//65 69//52
f 69//52 81//65 82//66 70//53
f 70//53 82//66 83//67 71//54
f 71//54 83//67 84//68 72//55
f 176//56 170//69 85//70 73//57
f 73//57 85//70 86//71 74//58
f 74//58 86//71 87//72 75//59
f 75//59 87//72 88//73 76//60
f 76//60 88//73 89//74 77//61
f 77//61 89//74 90//75 78//62
f 78//62 90//75 91//76 79//63
f 79//63 91//76 92//77 80//64
f 80//64 92//77 93//78 81//65
f 81//65 93//78 94//79 82//66
f 82//66 94//79 95//80 83//67
f 83//67 95//80 96//81 84//68
f 170//69 174//82 97//83 85//70
f 85//70 97//83 98//84 86//71
f 86//71 98//84 99//85 87//72
f 87//72 99//85 100//86 88//73
f 88//73 100//86 101//87 89//74
f 89//74 101//87 102//88 90//75
f 90//75 102//88 103//89 91//76
f 91//76 103//89 104//90 92//77
f 92//77 104//90 105//91 93//78
f 93//78 105//91 106//92 94//79
f 94//79 106//92 107//93 95//80
f 95//80 107//93 108//94 96//81
f 174//82 172//95 109//96 97//83
f 97//83 109//96 110//97 98//84
f 98//84 110//97 111//98 99//85
f 99//85 111//98 112//99 100//86
f 100//86 112//99 113//100 101//87
f 101//87 113//100 114//101 102//88
f 102//88 114//101 115//102 103//89
f 103//89 115//102 116//103 104//90
f 104//90 116//103 117//104 105//91
f 105//91 117//104 118//105 106//92
f 106//92 118//105 119//106 107//93
f 107//93 119//106 120//107 108//94
f 172//95 178//108 121//109 109//96
f 109//96 121//109 122//110 110//97
f 110//97 122//110 123//111 111//98
f 111//98 123//111 124//112 112//99
f 112//99 124//112 125//113 113//100
f 113//100 125//113 126//114 114//101
f 114//101 126//114 127//115 115//102
f 115//102 127//115 128//116 116//103
f 116//103 128//116 129//117 117//104
f 117//104 129//117 130//118 118//105
f 118//105 130//118 131//119 119//106
f 119//106 131//119 132//120 120//107
f 178//108 181//121 133//122 121//109
f 121//109 133//122 134//123 122//110
f 122//110 134//123 135//124 123//111
f 123//111 135//124 136//125 124//112
f 124//112 136//125 137//126 125//113
f 125//113 137//126 138//127 126//114
f 126//114 138//127 139//128 127//115
f 127//115 139//128 140//129 128//116
f 128//116 140//129 141//130 129//117
f 129//117 141//130 142//131 130//118
f 130//118 142//131 143//132 131//119
f 131//119 143//132 144//133 132//120
f 181//121 169//134 145//135 133//122
f 133//122 145//135 146//136 134//123
f 134//123 146//136 147//137 135//124
f 135//124 147//137 148//138 136//125
f 136//125 148//138 149//139 137//126
f 137//126 149//139 150//140 138//127
f 138//127 150//140 151//141 139//128
f 139//128 151//141 152//142 140//129
f 140//129 152//142 153//143 141//130
f 141//130 153//143 154//144 142//131
f 142//131 154//144 155//145 143//132
f 143//132 155//145 156//146 144//133
f 155//145 157//147 158//148 156//146
f 154//144 159//149 157//147 155//145
f 169//134 182//150 160//151 145//135
f 147//137 161//152 162//153 148//138
f 145//135 160//151 163//154 146//136
f 146//136 163//154 161//152 147//137
f 148//138 162//153 164//155 149//139
f 149//139 164//155 165//156 150//140
f 150//140 165//156 166//157 151//141
f 151//141 166//157 167//158 152//142
f 152//142 167//158 168//159 153//143
f 153//143 168//159 159//149 154//144
f 60//42 72//55 183//160 184//161
f 120//107 132//120 185//162 186//163
f 72//55 84//68 187//164 183//160
f 84//68 96//81 188//165 187//164
f 48//29 60//42 184//161 189//166
f 132//120 144//133 190//167 185//162
f 96//81 108//94 191//168 188//165
f 108//94 120//107 186//163 191//168
f 12//2 24//8 192//169 193//170
f 24//8 36//17 194//171 192//169
f 36//17 48//29 189//166 194//171
f 144//133 156//146 195//172 190//167
f 156//146 158//148 196//173 195//172
