# Blender v2.73 (sub 0) OBJ File: 'untitled.blend'
# www.blender.org
mtllib Landscape.039.mtl
o Landscape.039
v 1.292929 4.782483 94.383835
v 1.292929 6.109037 91.797981
v 1.292929 7.055803 89.212120
v 1.292929 8.152969 86.626259
v 1.292929 9.266396 84.040405
v 1.292929 9.730769 81.454544
v 1.292929 9.939194 78.868690
v 1.292929 9.873793 76.282829
v 1.292929 9.593563 73.696968
v 1.292929 9.513646 71.111115
v 1.292929 9.709094 68.525253
v 1.292929 9.773359 65.939392
v 3.878788 4.533972 94.383835
v 3.878788 5.857111 91.797981
v 3.878788 6.918397 89.212120
v 3.878788 8.227156 86.626259
v 3.878788 9.138893 84.040405
v 3.878788 9.823301 81.454544
v 3.878788 10.495661 78.868690
v 3.878788 10.268589 76.282829
v 3.878788 10.443370 73.696968
v 3.878788 10.013340 71.111115
v 3.878788 9.766939 68.525253
v 3.878788 9.847327 65.939392
v 6.464646 4.377731 94.383835
v 6.464646 5.481608 91.797981
v 6.464646 6.701635 89.212120
v 6.464646 7.670268 86.626259
v 6.464646 8.525868 84.040405
v 6.464646 9.173972 81.454544
v 6.464646 9.974156 78.868690
v 6.464646 10.290991 76.282829
v 6.464646 10.205290 73.696968
v 6.464646 9.552486 71.111115
v 6.464646 9.576920 68.525253
v 6.464646 9.746565 65.939392
v 9.050505 4.579693 94.383835
v 9.050505 5.816875 91.797981
v 9.050505 7.105516 89.212120
v 9.050505 7.751277 86.626259
v 9.050505 8.208184 84.040405
v 9.050505 8.733722 81.454544
v 9.050505 9.775201 78.868690
v 9.050505 9.789752 76.282829
v 9.050505 9.809890 73.696968
v 9.050505 9.382865 71.111115
v 9.050505 9.123312 68.525253
v 9.050505 9.808355 65.939392
v 11.636364 4.927551 94.383835
v 11.636364 6.288995 91.797981
v 11.636364 7.513776 89.212120
v 11.636364 8.238881 86.626259
v 11.636364 8.548920 84.040405
v 11.636364 8.814140 81.454544
v 11.636364 9.605808 78.868690
v 11.636364 9.416896 76.282829
v 11.636364 9.247535 73.696968
v 11.636364 8.847457 71.111115
v 11.636364 9.043272 68.525253
v 11.636364 9.484531 65.939392
v 14.222222 5.202203 94.383835
v 14.222222 6.534956 91.797981
v 14.222222 7.919847 89.212120
v 14.222222 8.819552 86.626259
v 14.222222 9.260253 84.040405
v 14.222222 9.084679 81.454544
v 14.222222 9.422955 78.868690
v 14.222222 9.296262 76.282829
v 14.222222 9.167559 73.696968
v 14.222222 8.880701 71.111115
v 14.222222 8.956299 68.525253
v 14.222222 9.531992 65.939392
v 16.808081 5.712190 94.383835
v 16.808081 6.928904 91.797981
v 16.808081 7.940882 89.212120
v 16.808081 9.119331 86.626259
v 16.808081 9.927612 84.040405
v 16.808081 10.116237 81.454544
v 16.808081 9.871548 78.868690
v 16.808081 9.939562 76.282829
v 16.808081 9.509171 73.696968
v 16.808081 9.569764 71.111115
v 16.808081 9.153137 68.525253
v 16.808081 9.302566 65.939392
v 19.393940 5.746212 94.383835
v 19.393940 6.972733 91.797981
v 19.393940 8.418192 89.212120
v 19.393940 8.862185 86.626259
v 19.393940 10.274708 84.040405
v 19.393940 10.316581 81.454544
v 19.393940 10.730446 78.868690
v 19.393940 10.541091 76.282829
v 19.393940 9.796976 73.696968
v 19.393940 10.090549 71.111115
v 19.393940 10.025956 68.525253
v 19.393940 9.857129 65.939392
v 21.979797 6.079314 94.383835
v 21.979797 7.347606 91.797981
v 21.979797 8.142716 89.212120
v 21.979797 9.072957 86.626259
v 21.979797 10.063589 84.040405
v 21.979797 11.565266 81.454544
v 21.979797 12.035514 78.868690
v 21.979797 11.216890 76.282829
v 21.979797 10.796959 73.696968
v 21.979797 10.699930 71.111115
v 21.979797 10.473858 68.525253
v 21.979797 10.350425 65.939392
v 24.565657 5.926871 94.383835
v 24.565657 7.195908 91.797981
v 24.565657 8.061740 89.212120
v 24.565657 9.168237 86.626259
v 24.565657 10.443426 84.040405
v 24.565657 12.407655 81.454544
v 24.565657 12.430126 78.868690
v 24.565657 11.388318 76.282829
v 24.565657 10.966762 73.696968
v 24.565657 10.419298 71.111115
v 24.565657 10.206301 68.525253
v 24.565657 10.370959 65.939392
v 27.151516 6.261139 94.383835
v 27.151516 7.240845 91.797981
v 27.151516 8.435728 89.212120
v 27.151516 10.057025 86.626259
v 27.151516 11.086516 84.040405
v 27.151516 11.941380 81.454544
v 27.151516 11.689850 78.868690
v 27.151516 11.135351 76.282829
v 27.151516 10.304161 73.696968
v 27.151516 9.885046 71.111115
v 27.151516 9.894557 68.525253
v 27.151516 10.301067 65.939392
v 29.737373 7.351910 94.383835
v 29.737373 8.316031 91.797981
v 29.737373 9.305229 89.212120
v 29.737373 10.634648 86.626259
v 29.737373 11.672689 84.040405
v 29.737373 11.651507 81.454544
v 29.737373 11.242172 78.868690
v 29.737373 10.968799 76.282829
v 29.737373 10.469284 73.696968
v 29.737373 10.387595 71.111115
v 29.737373 10.859303 68.525253
v 29.737373 10.761072 65.939392
v 0.000000 9.178386 76.282829
v 0.000000 9.462935 81.454544
v 0.000000 9.512684 78.868690
v 0.000000 8.269238 86.626259
v 0.000000 9.254446 84.040405
v 0.000000 4.841977 94.383835
v 0.000000 6.067904 91.797981
v 0.000000 7.202270 89.212120
v 0.000000 9.192224 73.696968
v 0.000000 9.425743 71.111115
v 0.000000 9.641779 68.525253
v 0.000000 9.892009 65.939392
v 32.000000 12.107292 84.040405
v 32.000000 11.639420 81.454544
v 32.000000 11.021635 78.868690
v 32.000000 10.586997 76.282829
v 32.000000 11.192507 86.626259
v 32.000000 9.614541 89.212120
v 32.000000 7.815639 94.383835
v 32.000000 8.786313 91.797981
v 32.000000 10.271271 73.696968
v 32.000000 10.801777 68.525253
v 32.000000 11.087316 65.939392
v 32.000000 10.101170 71.111115
v 9.050505 3.973301 96.000000
v 1.292929 3.969205 96.000000
v 14.222222 4.617741 96.000000
v 29.737373 6.741751 96.000000
v 27.151516 5.833905 96.000000
v 11.636364 4.235888 96.000000
v 24.565657 5.342092 96.000000
v 16.808081 5.051733 96.000000
v 19.393940 5.060773 96.000000
v 3.878788 3.859304 96.000000
v 6.464646 3.782035 96.000000
v 21.979797 5.334096 96.000000
v 0.000000 4.071955 96.000000
v 32.000000 7.214870 96.000000
v 1.292929 10.242030 64.000000
v 0.000000 10.329735 64.000000
v 3.878788 10.220205 64.000000
v 29.737373 11.351428 64.000000
v 27.151516 11.130309 64.000000
v 32.000000 11.619320 64.000000
v 19.393940 10.569049 64.000000
v 16.808081 10.028773 64.000000
v 6.464646 9.873807 64.000000
v 9.050505 9.850588 64.000000
v 11.636364 9.928348 64.000000
v 24.565657 11.147015 64.000000
v 21.979797 10.943054 64.000000
v 14.222222 10.030272 64.000000
vn 0.056300 0.896600 0.439200
vn 0.059600 0.901800 0.428100
vn 0.053200 0.897000 0.438800
vn 0.031000 0.897000 0.441000
vn 0.050000 0.911800 0.407600
vn 0.022000 0.912500 0.408400
vn 0.052500 0.921200 0.385500
vn 0.066300 0.923000 0.379000
vn 0.038200 0.921200 0.387100
vn 0.064800 0.922700 0.380100
vn -0.013500 0.961900 0.272900
vn -0.034900 0.966300 0.254900
vn -0.121600 0.982500 0.140800
vn -0.183100 0.979100 0.088800
vn -0.241700 0.970100 0.022700
vn -0.330200 0.943800 -0.012000
vn -0.301300 0.952300 -0.048600
vn -0.393500 0.917400 -0.058800
vn -0.267300 0.963000 -0.033700
vn -0.290700 0.956800 -0.009500
vn -0.151700 0.988400 0.001100
vn -0.123300 0.990900 0.054200
vn -0.043200 0.998300 0.039500
vn -0.020100 0.997300 0.070000
vn 0.015400 0.991100 0.132100
vn 0.049100 0.988200 0.145100
vn 0.052300 0.918800 0.391300
vn 0.070900 0.906900 0.415300
vn 0.088400 0.907500 0.410600
vn 0.080800 0.914600 0.396200
vn 0.092500 0.922000 0.376000
vn 0.114600 0.951100 0.286800
vn 0.082200 0.970600 0.226300
vn 0.001000 0.995000 0.099800
vn -0.070500 0.997400 -0.010400
vn -0.078200 0.994000 -0.076400
vn -0.026600 0.995600 -0.090000
vn 0.012200 0.999900 0.005900
vn 0.026700 0.994200 0.104400
vn -0.014300 0.933900 0.357200
vn -0.007700 0.921800 0.387600
vn -0.006100 0.907800 0.419300
vn 0.005200 0.922000 0.387100
vn 0.074700 0.945100 0.318100
vn 0.157400 0.953300 0.257500
vn 0.175200 0.947700 0.266800
vn 0.141900 0.974600 0.172900
vn 0.110600 0.993600 0.021200
vn 0.113400 0.988400 -0.100800
vn 0.120700 0.985000 -0.123600
vn 0.094100 0.995100 0.031100
vn 0.052200 0.994000 0.095600
vn -0.089600 0.929000 0.358900
vn -0.103500 0.913500 0.393400
vn -0.128500 0.893400 0.430500
vn -0.133600 0.925100 0.355300
vn -0.092100 0.967200 0.236800
vn -0.013500 0.981400 0.191600
vn 0.048400 0.964400 0.259900
vn 0.094300 0.979700 0.177000
vn 0.146900 0.989100 -0.002700
vn 0.165200 0.981100 -0.100200
vn 0.138200 0.984900 -0.104500
vn 0.097800 0.992000 0.079700
vn 0.047500 0.989600 0.135600
vn -0.112900 0.923100 0.367700
vn -0.114500 0.904600 0.410400
vn -0.123100 0.886400 0.446200
vn -0.152000 0.921100 0.358300
vn -0.185500 0.960100 0.209100
vn -0.166400 0.979400 0.113900
vn -0.067800 0.981300 0.180300
vn 0.041400 0.992400 0.115400
vn 0.095100 0.994400 -0.045100
vn 0.108600 0.989600 -0.093900
vn 0.085600 0.994400 -0.061600
vn 0.053300 0.992300 0.111900
vn 0.025800 0.981000 0.192000
vn -0.141800 0.922200 0.359800
vn -0.132300 0.905000 0.404300
vn -0.108200 0.890700 0.441400
vn -0.106100 0.917500 0.383300
vn -0.164400 0.951300 0.260600
vn -0.230700 0.968000 0.098600
vn -0.198200 0.978100 0.064100
vn -0.112100 0.992900 0.040400
vn -0.074400 0.995500 -0.059400
vn -0.084100 0.992800 -0.084900
vn -0.086100 0.995100 -0.047100
vn -0.036600 0.996100 0.080100
vn 0.007100 0.975900 0.218100
vn -0.089700 0.924600 0.370300
vn -0.086200 0.911100 0.403000
vn -0.082100 0.900000 0.428100
vn -0.066000 0.921900 0.381600
vn -0.074200 0.942700 0.325200
vn -0.155300 0.972800 0.171700
vn -0.223200 0.974500 0.024300
vn -0.238900 0.971000 0.003800
vn -0.208300 0.973900 -0.090500
vn -0.176200 0.981500 -0.075000
vn -0.195200 0.980200 -0.032500
vn -0.172500 0.985000 -0.004100
vn -0.104800 0.975200 0.195100
vn -0.056500 0.917500 0.393800
vn -0.062500 0.909100 0.411700
vn -0.062300 0.904600 0.421700
vn -0.033500 0.938300 0.344300
vn -0.011200 0.939400 0.342700
vn -0.079800 0.954500 0.287400
vn -0.233800 0.963700 0.128600
vn -0.321900 0.946700 -0.003900
vn -0.275300 0.948300 -0.157800
vn -0.230000 0.969800 -0.081000
vn -0.228900 0.973400 -0.010300
vn -0.226100 0.972700 -0.051100
vn -0.203200 0.967200 0.152400
vn -0.041400 0.918800 0.392500
vn -0.037800 0.908800 0.415400
vn -0.010200 0.918900 0.394300
vn 0.008500 0.942900 0.333000
vn -0.018500 0.931600 0.362900
vn -0.115100 0.902500 0.414900
vn -0.272400 0.920200 0.281000
vn -0.284000 0.956100 -0.071800
vn -0.208600 0.952300 -0.222800
vn -0.164000 0.979500 -0.117100
vn -0.094200 0.993900 -0.057300
vn -0.057100 0.997200 -0.047200
vn -0.084700 0.984400 0.154100
vn -0.060900 0.938300 0.340400
vn -0.035600 0.924600 0.379200
vn -0.011600 0.925000 0.379800
vn -0.060500 0.924700 0.375800
vn -0.139300 0.902400 0.407600
vn -0.148900 0.876500 0.457700
vn -0.055900 0.961300 0.269600
vn 0.017300 0.989200 -0.145300
vn 0.046200 0.964900 -0.258300
vn 0.086900 0.980600 -0.175500
vn 0.128800 0.985800 -0.107400
vn 0.097200 0.995200 -0.001200
vn 0.024100 0.977100 0.211300
vn -0.245100 0.924200 0.292700
vn -0.232300 0.914900 0.330000
vn -0.211100 0.905300 0.368400
vn -0.216800 0.881600 0.419100
vn -0.230200 0.875600 0.424500
vn -0.138500 0.924100 0.356000
vn 0.072900 0.989500 0.124600
vn 0.166900 0.973500 -0.156300
vn 0.117500 0.965500 -0.232600
vn 0.066400 0.979500 -0.190300
vn -0.004700 0.998400 -0.056700
vn -0.076100 0.995500 0.055300
vn -0.076600 0.971400 0.224500
vn -0.273400 0.908900 0.315000
vn -0.274100 0.904100 0.327900
vn -0.261300 0.901800 0.344100
vn -0.221800 0.880900 0.418100
vn -0.201000 0.884900 0.420200
vn -0.141300 0.970200 0.197000
vn 0.010800 0.997800 -0.064800
vn 0.109200 0.982100 -0.153300
vn 0.093200 0.980300 -0.174400
vn 0.026600 0.990000 -0.138300
vn -0.056600 0.997500 0.043000
vn -0.130800 0.986100 0.102300
vn -0.145000 0.972800 0.180400
vn -0.150300 0.980400 0.127400
vn -0.021100 0.989200 -0.144700
vn 0.091200 0.982200 -0.164300
vn 0.128100 0.981200 -0.144600
vn -0.184600 0.892600 0.411300
vn -0.163300 0.897600 0.409600
vn -0.190100 0.919500 0.344200
vn -0.174500 0.925800 0.335300
vn -0.190300 0.919300 0.344400
vn 0.116100 0.988100 -0.101300
vn 0.007600 0.991600 0.129400
vn -0.093500 0.982800 0.159200
vn 0.091100 0.992100 0.085800
vn 0.034100 0.975000 0.219700
vn 0.077500 0.970800 0.226900
vn 0.037500 0.984700 0.170400
vn -0.124000 0.943300 0.308000
vn -0.054500 0.930400 0.362500
vn -0.125100 0.953000 0.275800
vn -0.175200 0.928500 0.327500
vn -0.079300 0.942800 0.323700
vn 0.039200 0.995500 0.085800
vn 0.019900 0.996300 0.084000
vn 0.009400 0.983500 0.180800
vn -0.012500 0.933700 0.357900
vn -0.097900 0.940800 0.324400
vn 0.007400 0.963200 0.268800
usemtl None
s 1
f 181//1 170//2 1//3 150//4
f 150//4 1//3 2//5 151//6
f 151//6 2//5 3//7 152//8
f 152//8 3//7 4//9 148//10
f 148//10 4//9 5//11 149//12
f 149//12 5//11 6//13 146//14
f 146//14 6//13 7//15 147//16
f 147//16 7//15 8//17 145//18
f 145//18 8//17 9//19 153//20
f 153//20 9//19 10//21 154//22
f 154//22 10//21 11//23 155//24
f 155//24 11//23 12//25 156//26
f 170//2 178//27 13//28 1//3
f 1//3 13//28 14//29 2//5
f 2//5 14//29 15//30 3//7
f 3//7 15//30 16//31 4//9
f 4//9 16//31 17//32 5//11
f 5//11 17//32 18//33 6//13
f 6//13 18//33 19//34 7//15
f 7//15 19//34 20//35 8//17
f 8//17 20//35 21//36 9//19
f 9//19 21//36 22//37 10//21
f 10//21 22//37 23//38 11//23
f 11//23 23//38 24//39 12//25
f 178//27 179//40 25//41 13//28
f 13//28 25//41 26//42 14//29
f 14//29 26//42 27//43 15//30
f 15//30 27//43 28//44 16//31
f 16//31 28//44 29//45 17//32
f 17//32 29//45 30//46 18//33
f 18//33 30//46 31//47 19//34
f 19//34 31//47 32//48 20//35
f 20//35 32//48 33//49 21//36
f 21//36 33//49 34//50 22//37
f 22//37 34//50 35//51 23//38
f 23//38 35//51 36//52 24//39
f 179//40 169//53 37//54 25//41
f 25//41 37//54 38//55 26//42
f 26//42 38//55 39//56 27//43
f 27//43 39//56 40//57 28//44
f 28//44 40//57 41//58 29//45
f 29//45 41//58 42//59 30//46
f 30//46 42//59 43//60 31//47
f 31//47 43//60 44//61 32//48
f 32//48 44//61 45//62 33//49
f 33//49 45//62 46//63 34//50
f 34//50 46//63 47//64 35//51
f 35//51 47//64 48//65 36//52
f 169//53 174//66 49//67 37//54
f 37//54 49//67 50//68 38//55
f 38//55 50//68 51//69 39//56
f 39//56 51//69 52//70 40//57
f 40//57 52//70 53//71 41//58
f 41//58 53//71 54//72 42//59
f 42//59 54//72 55//73 43//60
f 43//60 55//73 56//74 44//61
f 44//61 56//74 57//75 45//62
f 45//62 57//75 58//76 46//63
f 46//63 58//76 59//77 47//64
f 47//64 59//77 60//78 48//65
f 174//66 171//79 61//80 49//67
f 49//67 61//80 62//81 50//68
f 50//68 62//81 63//82 51//69
f 51//69 63//82 64//83 52//70
f 52//70 64//83 65//84 53//71
f 53//71 65//84 66//85 54//72
f 54//72 66//85 67//86 55//73
f 55//73 67//86 68//87 56//74
f 56//74 68//87 69//88 57//75
f 57//75 69//88 70//89 58//76
f 58//76 70//89 71//90 59//77
f 59//77 71//90 72//91 60//78
f 171//79 176//92 73//93 61//80
f 61//80 73//93 74//94 62//81
f 62//81 74//94 75//95 63//82
f 63//82 75//95 76//96 64//83
f 64//83 76//96 77//97 65//84
f 65//84 77//97 78//98 66//85
f 66//85 78//98 79//99 67//86
f 67//86 79//99 80//100 68//87
f 68//87 80//100 81//101 69//88
f 69//88 81//101 82//102 70//89
f 70//89 82//102 83//103 71//90
f 71//90 83//103 84//104 72//91
f 176//92 177//105 85//106 73//93
f 73//93 85//106 86//107 74//94
f 74//94 86//107 87//108 75//95
f 75//95 87//108 88//109 76//96
f 76//96 88//109 89//110 77//97
f 77//97 89//110 90//111 78//98
f 78//98 90//111 91//112 79//99
f 79//99 91//112 92//113 80//100
f 80//100 92//113 93//114 81//101
f 81//101 93//114 94//115 82//102
f 82//102 94//115 95//116 83//103
f 83//103 95//116 96//117 84//104
f 177//105 180//118 97//119 85//106
f 85//106 97//119 98//120 86//107
f 86//107 98//120 99//121 87//108
f 87//108 99//121 100//122 88//109
f 88//109 100//122 101//123 89//110
f 89//110 101//123 102//124 90//111
f 90//111 102//124 103//125 91//112
f 91//112 103//125 104//126 92//113
f 92//113 104//126 105//127 93//114
f 93//114 105//127 106//128 94//115
f 94//115 106//128 107//129 95//116
f 95//116 107//129 108//130 96//117
f 180//118 175//131 109//132 97//119
f 97//119 109//132 110//133 98//120
f 98//120 110//133 111//134 99//121
f 99//121 111//134 112//135 100//122
f 100//122 112//135 113//136 101//123
f 101//123 113//136 114//137 102//124
f 102//124 114//137 115//138 103//125
f 103//125 115//138 116//139 104//126
f 104//126 116//139 117//140 105//127
f 105//127 117//140 118//141 106//128
f 106//128 118//141 119//142 107//129
f 107//129 119//142 120//143 108//130
f 175//131 173//144 121//145 109//132
f 109//132 121//145 122//146 110//133
f 110//133 122//146 123//147 111//134
f 111//134 123//147 124//148 112//135
f 112//135 124//148 125//149 113//136
f 113//136 125//149 126//150 114//137
f 114//137 126//150 127//151 115//138
f 115//138 127//151 128//152 116//139
f 116//139 128//152 129//153 117//140
f 117//140 129//153 130//154 118//141
f 118//141 130//154 131//155 119//142
f 119//142 131//155 132//156 120//143
f 173//144 172//157 133//158 121//145
f 121//145 133//158 134//159 122//146
f 122//146 134//159 135//160 123//147
f 123//147 135//160 136//161 124//148
f 124//148 136//161 137//162 125//149
f 125//149 137//162 138//163 126//150
f 126//150 138//163 139//164 127//151
f 127//151 139//164 140//165 128//152
f 128//152 140//165 141//166 129//153
f 129//153 141//166 142//167 130//154
f 130//154 142//167 143//168 131//155
f 131//155 143//168 144//169 132//156
f 137//162 157//170 158//171 138//163
f 138//163 158//171 159//172 139//164
f 139//164 159//172 160//173 140//165
f 136//161 161//174 157//170 137//162
f 135//160 162//175 161//174 136//161
f 133//158 163//176 164//177 134//159
f 134//159 164//177 162//175 135//160
f 172//157 182//178 163//176 133//158
f 140//165 160//173 165//179 141//166
f 143//168 166//180 167//181 144//169
f 141//166 165//179 168//182 142//167
f 142//167 168//182 166//180 143//168
f 156//26 12//25 183//183 184//184
f 12//25 24//39 185//185 183//183
f 132//156 144//169 186//186 187//187
f 144//169 167//181 188//188 186//186
f 84//104 96//117 189//189 190//190
f 24//39 36//52 191//191 185//185
f 36//52 48//65 192//192 191//191
f 48//65 60//78 193//193 192//192
f 120//143 132//156 187//187 194//194
f 96//117 108//130 195//195 189//189
f 108//130 120//143 194//194 195//195
f 60//78 72//91 196//196 193//193
f 72//91 84//104 190//190 196//196
