# Blender v2.73 (sub 0) OBJ File: 'untitled.blend'
# www.blender.org
mtllib Landscape.041.mtl
o Landscape.041
v 1.292929 16.776367 29.737373
v 1.292929 16.288221 27.151516
v 1.292929 16.835661 24.565657
v 1.292929 18.453819 21.979797
v 1.292929 18.149252 19.393940
v 1.292929 16.736565 16.808081
v 1.292929 15.847051 14.222222
v 1.292929 16.245825 11.636364
v 1.292929 15.334874 9.050505
v 1.292929 14.413984 6.464646
v 1.292929 13.406271 3.878788
v 1.292929 11.988142 1.292929
v 3.878788 15.182748 29.737373
v 3.878788 15.365353 27.151516
v 3.878788 16.842028 24.565657
v 3.878788 17.413513 21.979797
v 3.878788 16.319717 19.393940
v 3.878788 14.856512 16.808081
v 3.878788 14.851325 14.222222
v 3.878788 14.732075 11.636364
v 3.878788 13.034163 9.050505
v 3.878788 11.951372 6.464646
v 3.878788 10.337347 3.878788
v 3.878788 9.200061 1.292929
v 6.464646 15.280593 29.737373
v 6.464646 15.680697 27.151516
v 6.464646 16.151922 24.565657
v 6.464646 16.305603 21.979797
v 6.464646 15.486120 19.393940
v 6.464646 13.586523 16.808081
v 6.464646 13.235582 14.222222
v 6.464646 12.891935 11.636364
v 6.464646 10.905795 9.050505
v 6.464646 9.716588 6.464646
v 6.464646 8.226178 3.878788
v 6.464646 7.566473 1.292929
v 9.050505 15.359605 29.737373
v 9.050505 15.994208 27.151516
v 9.050505 16.095821 24.565657
v 9.050505 15.414392 21.979797
v 9.050505 13.930362 19.393940
v 9.050505 12.421320 16.808081
v 9.050505 11.396574 14.222222
v 9.050505 10.562626 11.636364
v 9.050505 9.095010 9.050505
v 9.050505 7.969409 6.464646
v 9.050505 7.154968 3.878788
v 9.050505 6.284057 1.292929
v 11.636364 14.715790 29.737373
v 11.636364 15.427597 27.151516
v 11.636364 15.636150 24.565657
v 11.636364 14.743873 21.979797
v 11.636364 12.837749 19.393940
v 11.636364 11.071659 16.808081
v 11.636364 10.001450 14.222222
v 11.636364 9.134459 11.636364
v 11.636364 7.596136 9.050505
v 11.636364 6.853257 6.464646
v 11.636364 6.277758 3.878788
v 11.636364 5.312897 1.292929
v 14.222222 13.800185 29.737373
v 14.222222 14.106205 27.151516
v 14.222222 13.884669 24.565657
v 14.222222 13.278622 21.979797
v 14.222222 11.508832 19.393940
v 14.222222 9.532903 16.808081
v 14.222222 8.705140 14.222222
v 14.222222 8.028596 11.636364
v 14.222222 6.737794 9.050505
v 14.222222 6.125516 6.464646
v 14.222222 5.552945 3.878788
v 14.222222 4.965271 1.292929
v 16.808081 13.132002 29.737373
v 16.808081 12.528491 27.151516
v 16.808081 11.941638 24.565657
v 16.808081 11.515668 21.979797
v 16.808081 10.312783 19.393940
v 16.808081 8.629583 16.808081
v 16.808081 7.851810 14.222222
v 16.808081 7.318793 11.636364
v 16.808081 6.314902 9.050505
v 16.808081 5.498562 6.464646
v 16.808081 4.743971 3.878788
v 16.808081 4.313809 1.292929
v 19.393940 12.576422 29.737373
v 19.393940 11.357202 27.151516
v 19.393940 11.109201 24.565657
v 19.393940 10.323910 21.979797
v 19.393940 9.227229 19.393940
v 19.393940 7.671028 16.808081
v 19.393940 6.785610 14.222222
v 19.393940 6.227123 11.636364
v 19.393940 5.638884 9.050505
v 19.393940 4.881167 6.464646
v 19.393940 4.376065 3.878788
v 19.393940 3.660475 1.292929
v 21.979797 11.794789 29.737373
v 21.979797 11.125718 27.151516
v 21.979797 10.519372 24.565657
v 21.979797 9.686085 21.979797
v 21.979797 8.579526 19.393940
v 21.979797 6.957338 16.808081
v 21.979797 6.238237 14.222222
v 21.979797 5.666295 11.636364
v 21.979797 5.248929 9.050505
v 21.979797 4.724685 6.464646
v 21.979797 3.947543 3.878788
v 21.979797 3.180323 1.292929
v 24.565657 11.147223 29.737373
v 24.565657 10.939728 27.151516
v 24.565657 9.993689 24.565657
v 24.565657 9.037702 21.979797
v 24.565657 7.645160 19.393940
v 24.565657 6.401034 16.808081
v 24.565657 6.004416 14.222222
v 24.565657 5.491142 11.636364
v 24.565657 5.046348 9.050505
v 24.565657 4.422354 6.464646
v 24.565657 3.659899 3.878788
v 24.565657 3.124093 1.292929
v 27.151516 10.521577 29.737373
v 27.151516 10.168158 27.151516
v 27.151516 9.524371 24.565657
v 27.151516 8.475702 21.979797
v 27.151516 7.150289 19.393940
v 27.151516 6.244323 16.808081
v 27.151516 5.784662 14.222222
v 27.151516 5.357602 11.636364
v 27.151516 4.968868 9.050505
v 27.151516 4.164702 6.464646
v 27.151516 3.608891 3.878788
v 27.151516 3.094512 1.292929
v 29.737373 9.866978 29.737373
v 29.737373 9.587960 27.151516
v 29.737373 9.668825 24.565657
v 29.737373 8.840280 21.979797
v 29.737373 7.509748 19.393940
v 29.737373 6.576900 16.808081
v 29.737373 5.943386 14.222222
v 29.737373 5.278812 11.636364
v 29.737373 4.604574 9.050505
v 29.737373 3.998920 6.464646
v 29.737373 3.398350 3.878788
v 29.737373 2.937877 1.292929
v 0.000000 17.698170 24.565657
v 0.000000 16.766666 27.151516
v 0.000000 18.427944 19.393940
v 0.000000 16.645845 9.050505
v 0.000000 19.193602 21.979797
v 0.000000 17.310314 11.636364
v 0.000000 17.036366 14.222222
v 0.000000 17.532026 16.808081
v 0.000000 16.927811 29.737373
v 0.000000 15.190279 3.878788
v 0.000000 15.902435 6.464646
v 0.000000 14.150366 1.292929
v 32.000000 3.277701 3.878788
v 32.000000 2.805519 1.292929
v 32.000000 4.378471 9.050505
v 32.000000 3.731647 6.464646
v 32.000000 5.107989 11.636364
v 32.000000 5.801287 14.222222
v 32.000000 9.649526 27.151516
v 32.000000 9.530987 24.565657
v 32.000000 9.599267 29.737373
v 32.000000 8.866527 21.979797
v 32.000000 7.732446 19.393940
v 32.000000 6.496265 16.808081
v 19.393940 13.604927 32.000000
v 27.151516 10.660075 32.000000
v 21.979797 12.693451 32.000000
v 6.464646 15.063177 32.000000
v 24.565657 11.623841 32.000000
v 9.050505 14.532740 32.000000
v 29.737373 9.875725 32.000000
v 3.878788 15.663922 32.000000
v 11.636364 14.374627 32.000000
v 1.292929 16.464193 32.000000
v 16.808081 13.675660 32.000000
v 14.222222 13.674417 32.000000
v 0.000000 16.880091 32.000000
v 32.000000 9.669003 32.000000
v 1.292929 11.701325 0.000000
v 0.000000 13.936041 0.000000
v 27.151516 2.926505 0.000000
v 24.565657 2.978526 0.000000
v 16.808081 4.166625 0.000000
v 14.222222 4.717128 0.000000
v 3.878788 8.862804 0.000000
v 11.636364 5.142723 0.000000
v 29.737373 2.781565 0.000000
v 32.000000 2.646474 0.000000
v 6.464646 7.182666 0.000000
v 19.393940 3.555444 0.000000
v 9.050505 6.064093 0.000000
v 21.979797 3.094578 0.000000
vn 0.213700 0.973800 0.077400
vn 0.321800 0.946600 0.020500
vn 0.325600 0.944900 -0.032600
vn 0.225400 0.974000 -0.021800
vn 0.328600 0.937700 0.113100
vn 0.352100 0.933400 0.069500
vn 0.314300 0.878500 0.359700
vn 0.462300 0.806500 0.368600
vn 0.404400 0.906900 0.117700
vn 0.437600 0.890000 0.127800
vn 0.428100 0.851900 -0.301600
vn 0.359200 0.889500 -0.282600
vn 0.506600 0.810200 -0.294800
vn 0.470500 0.827900 -0.305400
vn 0.543000 0.838100 -0.051300
vn 0.632000 0.772800 -0.058400
vn 0.596300 0.795100 -0.110300
vn 0.665400 0.744400 -0.056400
vn 0.646600 0.711400 -0.275300
vn 0.686000 0.694600 -0.216600
vn 0.710000 0.657600 -0.252000
vn 0.740300 0.639200 -0.208500
vn 0.750300 0.600600 -0.276200
vn 0.786400 0.576100 -0.223000
vn 0.780600 0.589400 -0.207900
vn 0.833000 0.521000 -0.186400
vn 0.267600 0.962400 -0.046100
vn 0.220100 0.975400 -0.007800
vn 0.153500 0.969300 0.191900
vn 0.189800 0.932600 0.307000
vn 0.345700 0.938300 -0.005100
vn 0.423000 0.823500 -0.378000
vn 0.457400 0.839500 -0.293200
vn 0.490700 0.869400 -0.058600
vn 0.533200 0.816100 -0.222800
vn 0.589600 0.717100 -0.371800
vn 0.640400 0.692600 -0.331900
vn 0.641700 0.687600 -0.339800
vn 0.636400 0.732900 -0.240500
vn 0.091500 0.992100 0.085800
vn 0.007000 0.992800 0.119600
vn -0.033600 0.980300 0.194600
vn 0.133000 0.982800 0.127800
vn 0.315800 0.933300 -0.170500
vn 0.363400 0.825800 -0.431200
vn 0.438300 0.835800 -0.330600
vn 0.538600 0.831700 -0.134600
vn 0.574400 0.758500 -0.307700
vn 0.563700 0.721200 -0.402400
vn 0.548400 0.751400 -0.367000
vn 0.499200 0.802600 -0.326500
vn 0.476500 0.845000 -0.242700
vn 0.117600 0.964600 0.236100
vn 0.095800 0.968600 0.229500
vn 0.073300 0.985400 0.153200
vn 0.134000 0.989500 -0.053500
vn 0.272200 0.905000 -0.326900
vn 0.359400 0.798200 -0.483300
vn 0.429500 0.813700 -0.391500
vn 0.507900 0.822800 -0.255100
vn 0.524100 0.775700 -0.351500
vn 0.489600 0.777900 -0.393700
vn 0.439000 0.840400 -0.317800
vn 0.379100 0.877400 -0.293900
vn 0.368100 0.900000 -0.233300
vn 0.225000 0.959000 0.172400
vn 0.267200 0.944000 0.193700
vn 0.333200 0.935000 0.121200
vn 0.357100 0.926500 -0.118100
vn 0.357200 0.845500 -0.396900
vn 0.368400 0.769300 -0.521900
vn 0.423500 0.800200 -0.424700
vn 0.443500 0.846300 -0.295100
vn 0.411100 0.835600 -0.364200
vn 0.368400 0.854500 -0.366100
vn 0.331400 0.909600 -0.250500
vn 0.283600 0.921900 -0.263900
vn 0.250900 0.941700 -0.224000
vn 0.213400 0.976900 0.003000
vn 0.307200 0.951000 0.032500
vn 0.468600 0.883400 0.001600
vn 0.540500 0.830300 -0.135400
vn 0.490900 0.797600 -0.350400
vn 0.399200 0.760400 -0.512200
vn 0.376400 0.825500 -0.420500
vn 0.364000 0.892000 -0.267900
vn 0.303400 0.890900 -0.338100
vn 0.247400 0.907700 -0.338800
vn 0.249500 0.938500 -0.238400
vn 0.246000 0.941400 -0.230800
vn 0.208700 0.958600 -0.193500
vn 0.121400 0.970200 -0.209900
vn 0.239600 0.950100 -0.199700
vn 0.409800 0.896700 -0.167400
vn 0.464500 0.870300 -0.163900
vn 0.441600 0.842900 -0.307300
vn 0.361600 0.804800 -0.470600
vn 0.324800 0.853400 -0.407700
vn 0.329600 0.911600 -0.245600
vn 0.292700 0.915900 -0.274500
vn 0.234700 0.923000 -0.305000
vn 0.218000 0.942100 -0.254800
vn 0.224500 0.949900 -0.217600
vn 0.228900 0.960100 -0.160600
vn 0.197600 0.915300 -0.351000
vn 0.226300 0.912500 -0.340600
vn 0.249200 0.938000 -0.240900
vn 0.274800 0.939600 -0.204000
vn 0.296000 0.900000 -0.319900
vn 0.283800 0.848500 -0.446600
vn 0.280200 0.872600 -0.399900
vn 0.290800 0.925100 -0.244100
vn 0.268300 0.938000 -0.219200
vn 0.206400 0.946400 -0.248300
vn 0.156000 0.956000 -0.248500
vn 0.161600 0.957500 -0.238800
vn 0.193500 0.967300 -0.163700
vn 0.295400 0.896300 -0.330700
vn 0.233800 0.927900 -0.290400
vn 0.156300 0.958900 -0.236900
vn 0.179500 0.947200 -0.265700
vn 0.229400 0.906900 -0.353500
vn 0.238600 0.861900 -0.447400
vn 0.212700 0.903400 -0.372300
vn 0.164500 0.959700 -0.227600
vn 0.132800 0.972400 -0.191700
vn 0.111400 0.973000 -0.202100
vn 0.103700 0.964100 -0.244200
vn 0.112900 0.958900 -0.260300
vn 0.111000 0.979300 -0.169300
vn 0.298200 0.931800 -0.207100
vn 0.253200 0.952600 -0.168500
vn 0.193100 0.958500 -0.209800
vn 0.188100 0.931400 -0.311600
vn 0.210800 0.896800 -0.389000
vn 0.201600 0.877300 -0.435500
vn 0.145000 0.940700 -0.306700
vn 0.090800 0.977800 -0.188800
vn 0.064100 0.982200 -0.176500
vn 0.067400 0.977200 -0.201300
vn 0.081100 0.963900 -0.253400
vn 0.061400 0.968000 -0.243300
vn 0.032100 0.986000 -0.163300
vn 0.280100 0.956600 -0.080800
vn 0.262600 0.960100 -0.095400
vn 0.201400 0.966800 -0.157000
vn 0.100100 0.955600 -0.277200
vn 0.036500 0.911700 -0.409100
vn 0.010400 0.912600 -0.408700
vn -0.007400 0.962200 -0.272100
vn 0.007900 0.981900 -0.188900
vn 0.043900 0.981500 -0.186300
vn 0.071100 0.972500 -0.221800
vn 0.072400 0.966000 -0.248000
vn 0.053300 0.975800 -0.212200
vn 0.039600 0.986700 -0.157300
vn 0.186800 0.982100 -0.024400
vn 0.163400 0.985100 -0.053300
vn 0.094000 0.993100 -0.069400
vn 0.008200 0.982800 -0.184500
vn -0.060300 0.924700 -0.375700
vn -0.082000 0.911900 -0.402100
vn -0.050400 0.953900 -0.295700
vn 0.001400 0.973400 -0.229100
vn 0.055000 0.971500 -0.230600
vn 0.093000 0.966300 -0.239900
vn 0.089600 0.969500 -0.228200
vn 0.069800 0.978400 -0.194600
vn 0.060200 0.986500 -0.151800
vn 0.069200 0.979700 -0.188100
vn 0.056800 0.987200 -0.148900
vn 0.095000 0.964300 -0.247400
vn 0.094400 0.971700 -0.216400
vn 0.075700 0.963400 -0.257300
vn 0.057300 0.966300 -0.251000
vn 0.031200 0.999200 -0.025700
vn 0.020500 0.989300 -0.144400
vn 0.104300 0.994400 -0.017200
vn 0.074900 0.996700 -0.030700
vn -0.012900 0.934900 -0.354700
vn -0.039600 0.911800 -0.408800
vn 0.009700 0.948000 -0.318100
vn 0.789600 0.598900 -0.133800
vn 0.857900 0.504500 -0.097800
vn 0.036800 0.991800 -0.122300
vn 0.024400 0.994200 -0.104800
vn 0.230400 0.965600 -0.120400
vn 0.186000 0.970600 -0.152600
vn 0.620600 0.758200 -0.200100
vn 0.242300 0.958500 -0.150100
vn 0.058200 0.990800 -0.122500
vn 0.058600 0.990900 -0.120900
vn 0.464700 0.858400 -0.217400
vn 0.207300 0.974700 -0.083300
vn 0.375200 0.910700 -0.172700
vn 0.105800 0.991100 -0.081000
usemtl None
s 1
f 181//1 178//2 1//3 153//4
f 153//4 1//3 2//5 146//6
f 146//6 2//5 3//7 145//8
f 145//8 3//7 4//9 149//10
f 149//10 4//9 5//11 147//12
f 147//12 5//11 6//13 152//14
f 152//14 6//13 7//15 151//16
f 151//16 7//15 8//17 150//18
f 150//18 8//17 9//19 148//20
f 148//20 9//19 10//21 155//22
f 155//22 10//21 11//23 154//24
f 154//24 11//23 12//25 156//26
f 178//2 176//27 13//28 1//3
f 1//3 13//28 14//29 2//5
f 2//5 14//29 15//30 3//7
f 3//7 15//30 16//31 4//9
f 4//9 16//31 17//32 5//11
f 5//11 17//32 18//33 6//13
f 6//13 18//33 19//34 7//15
f 7//15 19//34 20//35 8//17
f 8//17 20//35 21//36 9//19
f 9//19 21//36 22//37 10//21
f 10//21 22//37 23//38 11//23
f 11//23 23//38 24//39 12//25
f 176//27 172//40 25//41 13//28
f 13//28 25//41 26//42 14//29
f 14//29 26//42 27//43 15//30
f 15//30 27//43 28//44 16//31
f 16//31 28//44 29//45 17//32
f 17//32 29//45 30//46 18//33
f 18//33 30//46 31//47 19//34
f 19//34 31//47 32//48 20//35
f 20//35 32//48 33//49 21//36
f 21//36 33//49 34//50 22//37
f 22//37 34//50 35//51 23//38
f 23//38 35//51 36//52 24//39
f 172//40 174//53 37//54 25//41
f 25//41 37//54 38//55 26//42
f 26//42 38//55 39//56 27//43
f 27//43 39//56 40//57 28//44
f 28//44 40//57 41//58 29//45
f 29//45 41//58 42//59 30//46
f 30//46 42//59 43//60 31//47
f 31//47 43//60 44//61 32//48
f 32//48 44//61 45//62 33//49
f 33//49 45//62 46//63 34//50
f 34//50 46//63 47//64 35//51
f 35//51 47//64 48//65 36//52
f 174//53 177//66 49//67 37//54
f 37//54 49//67 50//68 38//55
f 38//55 50//68 51//69 39//56
f 39//56 51//69 52//70 40//57
f 40//57 52//70 53//71 41//58
f 41//58 53//71 54//72 42//59
f 42//59 54//72 55//73 43//60
f 43//60 55//73 56//74 44//61
f 44//61 56//74 57//75 45//62
f 45//62 57//75 58//76 46//63
f 46//63 58//76 59//77 47//64
f 47//64 59//77 60//78 48//65
f 177//66 180//79 61//80 49//67
f 49//67 61//80 62//81 50//68
f 50//68 62//81 63//82 51//69
f 51//69 63//82 64//83 52//70
f 52//70 64//83 65//84 53//71
f 53//71 65//84 66//85 54//72
f 54//72 66//85 67//86 55//73
f 55//73 67//86 68//87 56//74
f 56//74 68//87 69//88 57//75
f 57//75 69//88 70//89 58//76
f 58//76 70//89 71//90 59//77
f 59//77 71//90 72//91 60//78
f 180//79 179//92 73//93 61//80
f 61//80 73//93 74//94 62//81
f 62//81 74//94 75//95 63//82
f 63//82 75//95 76//96 64//83
f 64//83 76//96 77//97 65//84
f 65//84 77//97 78//98 66//85
f 66//85 78//98 79//99 67//86
f 67//86 79//99 80//100 68//87
f 68//87 80//100 81//101 69//88
f 69//88 81//101 82//102 70//89
f 70//89 82//102 83//103 71//90
f 71//90 83//103 84//104 72//91
f 179//92 169//105 85//106 73//93
f 73//93 85//106 86//107 74//94
f 74//94 86//107 87//108 75//95
f 75//95 87//108 88//109 76//96
f 76//96 88//109 89//110 77//97
f 77//97 89//110 90//111 78//98
f 78//98 90//111 91//112 79//99
f 79//99 91//112 92//113 80//100
f 80//100 92//113 93//114 81//101
f 81//101 93//114 94//115 82//102
f 82//102 94//115 95//116 83//103
f 83//103 95//116 96//117 84//104
f 169//105 171//118 97//119 85//106
f 85//106 97//119 98//120 86//107
f 86//107 98//120 99//121 87//108
f 87//108 99//121 100//122 88//109
f 88//109 100//122 101//123 89//110
f 89//110 101//123 102//124 90//111
f 90//111 102//124 103//125 91//112
f 91//112 103//125 104//126 92//113
f 92//113 104//126 105//127 93//114
f 93//114 105//127 106//128 94//115
f 94//115 106//128 107//129 95//116
f 95//116 107//129 108//130 96//117
f 171//118 173//131 109//132 97//119
f 97//119 109//132 110//133 98//120
f 98//120 110//133 111//134 99//121
f 99//121 111//134 112//135 100//122
f 100//122 112//135 113//136 101//123
f 101//123 113//136 114//137 102//124
f 102//124 114//137 115//138 103//125
f 103//125 115//138 116//139 104//126
f 104//126 116//139 117//140 105//127
f 105//127 117//140 118//141 106//128
f 106//128 118//141 119//142 107//129
f 107//129 119//142 120//143 108//130
f 173//131 170//144 121//145 109//132
f 109//132 121//145 122//146 110//133
f 110//133 122//146 123//147 111//134
f 111//134 123//147 124//148 112//135
f 112//135 124//148 125//149 113//136
f 113//136 125//149 126//150 114//137
f 114//137 126//150 127//151 115//138
f 115//138 127//151 128//152 116//139
f 116//139 128//152 129//153 117//140
f 117//140 129//153 130//154 118//141
f 118//141 130//154 131//155 119//142
f 119//142 131//155 132//156 120//143
f 170//144 175//157 133//158 121//145
f 121//145 133//158 134//159 122//146
f 122//146 134//159 135//160 123//147
f 123//147 135//160 136//161 124//148
f 124//148 136//161 137//162 125//149
f 125//149 137//162 138//163 126//150
f 126//150 138//163 139//164 127//151
f 127//151 139//164 140//165 128//152
f 128//152 140//165 141//166 129//153
f 129//153 141//166 142//167 130//154
f 130//154 142//167 143//168 131//155
f 131//155 143//168 144//169 132//156
f 143//168 157//170 158//171 144//169
f 141//166 159//172 160//173 142//167
f 142//167 160//173 157//170 143//168
f 140//165 161//174 159//172 141//166
f 139//164 162//175 161//174 140//165
f 134//159 163//176 164//177 135//160
f 175//157 182//178 165//179 133//158
f 133//158 165//179 163//176 134//159
f 135//160 164//177 166//180 136//161
f 136//161 166//180 167//181 137//162
f 137//162 167//181 168//182 138//163
f 138//163 168//182 162//175 139//164
f 156//26 12//25 183//183 184//184
f 120//143 132//156 185//185 186//186
f 72//91 84//104 187//187 188//188
f 12//25 24//39 189//189 183//183
f 60//78 72//91 188//188 190//190
f 132//156 144//169 191//191 185//185
f 144//169 158//171 192//192 191//191
f 24//39 36//52 193//193 189//189
f 84//104 96//117 194//194 187//187
f 36//52 48//65 195//195 193//193
f 48//65 60//78 190//190 195//195
f 96//117 108//130 196//196 194//194
f 108//130 120//143 186//186 196//196
