# Blender v2.73 (sub 0) OBJ File: 'untitled.blend'
# www.blender.org
mtllib Landscape.049.mtl
o Landscape.049
v 32.323231 11.832147 63.353535
v 32.323231 12.423098 60.767677
v 32.323231 12.573667 58.181820
v 32.323231 13.209843 55.595959
v 32.323231 13.082428 53.010101
v 32.323231 13.398127 50.424244
v 32.323231 14.148096 47.838383
v 32.323231 14.746861 45.252525
v 32.323231 14.567165 42.666668
v 32.323231 14.312250 40.080807
v 32.323231 12.245378 37.494949
v 32.323231 11.205886 34.909092
v 32.323231 9.650679 32.323231
v 34.909092 12.420941 63.353535
v 34.909092 12.616879 60.767677
v 34.909092 12.461232 58.181820
v 34.909092 12.320632 55.595959
v 34.909092 12.383431 53.010101
v 34.909092 12.667937 50.424244
v 34.909092 13.314399 47.838383
v 34.909092 13.738517 45.252525
v 34.909092 14.144284 42.666668
v 34.909092 13.602359 40.080807
v 34.909092 11.907803 37.494949
v 34.909092 10.612273 34.909092
v 34.909092 9.191086 32.323231
v 37.494949 12.761578 63.353535
v 37.494949 12.741127 60.767677
v 37.494949 12.289003 58.181820
v 37.494949 11.727129 55.595959
v 37.494949 12.160499 53.010101
v 37.494949 12.927439 50.424244
v 37.494949 13.779928 47.838383
v 37.494949 13.656099 45.252525
v 37.494949 13.017789 42.666668
v 37.494949 12.078347 40.080807
v 37.494949 11.831909 37.494949
v 37.494949 10.409553 34.909092
v 37.494949 9.238000 32.323231
v 40.080807 12.860900 63.353535
v 40.080807 12.678839 60.767677
v 40.080807 11.892876 58.181820
v 40.080807 11.182447 55.595959
v 40.080807 11.737487 53.010101
v 40.080807 12.354881 50.424244
v 40.080807 12.991033 47.838383
v 40.080807 13.093352 45.252525
v 40.080807 12.683431 42.666668
v 40.080807 12.057021 40.080807
v 40.080807 11.580265 37.494949
v 40.080807 9.634766 34.909092
v 40.080807 8.510115 32.323231
v 42.666668 12.579094 63.353535
v 42.666668 12.379095 60.767677
v 42.666668 11.688776 58.181820
v 42.666668 11.692309 55.595959
v 42.666668 11.930333 53.010101
v 42.666668 12.358967 50.424244
v 42.666668 12.874336 47.838383
v 42.666668 12.546947 45.252525
v 42.666668 12.944328 42.666668
v 42.666668 12.464084 40.080807
v 42.666668 11.215786 37.494949
v 42.666668 9.736513 34.909092
v 42.666668 8.621143 32.323231
v 45.252525 11.510197 63.353535
v 45.252525 11.290834 60.767677
v 45.252525 10.914566 58.181820
v 45.252525 11.896458 55.595959
v 45.252525 12.668595 53.010101
v 45.252525 12.932936 50.424244
v 45.252525 12.910818 47.838383
v 45.252525 12.937568 45.252525
v 45.252525 13.274611 42.666668
v 45.252525 12.634625 40.080807
v 45.252525 10.901810 37.494949
v 45.252525 9.397996 34.909092
v 45.252525 8.692646 32.323231
v 47.838383 10.742166 63.353535
v 47.838383 10.746070 60.767677
v 47.838383 11.570831 58.181820
v 47.838383 12.240595 55.595959
v 47.838383 13.547751 53.010101
v 47.838383 13.337062 50.424244
v 47.838383 13.038227 47.838383
v 47.838383 12.748694 45.252525
v 47.838383 12.353673 42.666668
v 47.838383 11.772029 40.080807
v 47.838383 10.029765 37.494949
v 47.838383 8.882971 34.909092
v 47.838383 8.811812 32.323231
v 50.424244 10.302709 63.353535
v 50.424244 11.063896 60.767677
v 50.424244 11.994061 58.181820
v 50.424244 12.624048 55.595959
v 50.424244 13.119425 53.010101
v 50.424244 13.049972 50.424244
v 50.424244 12.606062 47.838383
v 50.424244 12.127059 45.252525
v 50.424244 11.557466 42.666668
v 50.424244 10.679514 40.080807
v 50.424244 9.269900 37.494949
v 50.424244 8.925732 34.909092
v 50.424244 8.625168 32.323231
v 53.010101 9.501935 63.353535
v 53.010101 10.314584 60.767677
v 53.010101 11.371433 58.181820
v 53.010101 11.913454 55.595959
v 53.010101 12.206189 53.010101
v 53.010101 12.350776 50.424244
v 53.010101 11.877305 47.838383
v 53.010101 11.598876 45.252525
v 53.010101 11.104341 42.666668
v 53.010101 10.513625 40.080807
v 53.010101 9.519835 37.494949
v 53.010101 9.086588 34.909092
v 53.010101 8.852208 32.323231
v 55.595959 8.979239 63.353535
v 55.595959 9.430066 60.767677
v 55.595959 10.198344 58.181820
v 55.595959 10.771464 55.595959
v 55.595959 11.206717 53.010101
v 55.595959 12.144792 50.424244
v 55.595959 12.044172 47.838383
v 55.595959 12.129492 45.252525
v 55.595959 11.561675 42.666668
v 55.595959 10.897147 40.080807
v 55.595959 10.293027 37.494949
v 55.595959 10.230968 34.909092
v 55.595959 9.990808 32.323231
v 58.181820 8.112424 63.353535
v 58.181820 9.021296 60.767677
v 58.181820 9.583051 58.181820
v 58.181820 9.976736 55.595959
v 58.181820 11.102649 53.010101
v 58.181820 12.199765 50.424244
v 58.181820 13.157574 47.838383
v 58.181820 13.279551 45.252525
v 58.181820 12.386493 42.666668
v 58.181820 11.940204 40.080807
v 58.181820 11.204853 37.494949
v 58.181820 11.368928 34.909092
v 58.181820 11.227975 32.323231
v 60.767677 7.705624 63.353535
v 60.767677 8.657236 60.767677
v 60.767677 9.419512 58.181820
v 60.767677 10.001820 55.595959
v 60.767677 11.443082 53.010101
v 60.767677 12.984845 50.424244
v 60.767677 14.080731 47.838383
v 60.767677 14.207685 45.252525
v 60.767677 13.804659 42.666668
v 60.767677 12.833861 40.080807
v 60.767677 12.538323 37.494949
v 60.767677 12.431621 34.909092
v 60.767677 12.187555 32.323231
v 63.353535 7.710688 63.353535
v 63.353535 8.514542 60.767677
v 63.353535 9.256296 58.181820
v 63.353535 10.305539 55.595959
v 63.353535 11.581879 53.010101
v 63.353535 12.772595 50.424244
v 63.353535 13.925715 47.838383
v 63.353535 13.998423 45.252525
v 63.353535 14.648076 42.666668
v 63.353535 13.219190 40.080807
v 63.353535 13.447743 37.494949
v 63.353535 12.348949 34.909092
v 63.353535 11.941321 32.323231
v 32.000000 11.796656 63.353535
v 32.000000 9.678966 32.323231
v 32.000000 13.642738 50.424244
v 32.000000 14.275118 47.838383
v 32.000000 14.819530 45.252525
v 32.000000 13.223214 53.010101
v 32.000000 12.292192 37.494949
v 32.000000 11.168580 34.909092
v 32.000000 14.375659 40.080807
v 32.000000 14.793053 42.666668
v 32.000000 12.541761 58.181820
v 32.000000 13.221708 55.595959
v 32.000000 12.420849 60.767677
v 64.000000 8.410563 60.767677
v 64.000000 9.229226 58.181820
v 64.000000 7.652833 63.353535
v 64.000000 10.283601 55.595959
v 64.000000 11.461548 53.010101
v 64.000000 12.585921 50.424244
v 64.000000 13.622912 47.838383
v 64.000000 12.235627 34.909092
v 64.000000 11.777618 32.323231
v 64.000000 13.329126 40.080807
v 64.000000 13.425902 37.494949
v 64.000000 14.498771 42.666668
v 64.000000 13.867534 45.252525
v 45.252525 11.452940 64.000000
v 53.010101 9.379658 64.000000
v 40.080807 12.782600 64.000000
v 55.595959 8.825012 64.000000
v 42.666668 12.462118 64.000000
v 37.494949 12.543144 64.000000
v 60.767677 7.613996 64.000000
v 50.424244 10.211687 64.000000
v 34.909092 12.228526 64.000000
v 32.323231 11.657590 64.000000
v 63.353535 7.634769 64.000000
v 47.838383 10.683805 64.000000
v 58.181820 8.034740 64.000000
v 32.000000 11.619320 64.000000
v 64.000000 7.587268 64.000000
v 60.767677 12.221129 32.000000
v 58.181820 11.266887 32.000000
v 32.323231 9.639472 32.000000
v 32.000000 9.669003 32.000000
v 47.838383 8.853301 32.000000
v 45.252525 8.729784 32.000000
v 34.909092 9.176309 32.000000
v 42.666668 8.548051 32.000000
v 55.595959 9.992871 32.000000
v 53.010101 8.929717 32.000000
v 40.080807 8.444329 32.000000
v 37.494949 9.140232 32.000000
v 50.424244 8.690841 32.000000
v 63.353535 11.978142 32.000000
v 64.000000 11.823678 32.000000
vn -0.109400 0.959100 0.261000
vn -0.158900 0.951300 0.264200
vn -0.132000 0.964700 0.227700
vn -0.083600 0.965900 0.245100
vn -0.068800 0.991800 0.107800
vn -0.054900 0.988500 0.141000
vn 0.023100 0.994800 0.099400
vn -0.041700 0.987900 0.149200
vn 0.172200 0.982000 0.077400
vn 0.102100 0.988300 0.113000
vn 0.325600 0.944200 0.049500
vn 0.377200 0.924700 0.050900
vn 0.386400 0.905000 0.178000
vn 0.496800 0.849500 0.177700
vn 0.351400 0.910700 0.216900
vn 0.384300 0.897300 0.217000
vn 0.328400 0.939300 0.099200
vn 0.358200 0.929800 0.084400
vn 0.328300 0.942300 -0.065900
vn 0.412900 0.907600 -0.075800
vn 0.235700 0.894400 -0.380000
vn 0.288200 0.881900 -0.373100
vn 0.117500 0.856900 -0.501900
vn 0.076300 0.854100 -0.514500
vn 0.084600 0.890200 -0.447600
vn 0.000400 0.893200 -0.449600
vn 0.111900 0.953900 -0.278300
vn 0.039000 0.958500 -0.282500
vn -0.167000 0.944300 0.283600
vn -0.142300 0.971600 0.188800
vn -0.061300 0.998000 0.016100
vn 0.082600 0.995800 -0.039600
vn 0.196800 0.980400 0.010400
vn 0.177800 0.979000 0.099200
vn 0.102600 0.971900 0.211700
vn 0.102800 0.974600 0.198800
vn 0.191400 0.979500 0.062000
vn 0.288100 0.952500 -0.098800
vn 0.280000 0.897200 -0.341600
vn 0.164200 0.878500 -0.448600
vn 0.103300 0.884300 -0.455200
vn 0.094800 0.952000 -0.290900
vn -0.092500 0.960300 0.263100
vn -0.070400 0.989000 0.130000
vn -0.000500 0.996000 -0.089000
vn 0.103700 0.978200 -0.179800
vn 0.166600 0.985700 -0.022900
vn 0.129300 0.974300 0.184200
vn 0.072900 0.964700 0.253000
vn 0.073500 0.985800 0.150600
vn 0.145500 0.988300 -0.045700
vn 0.234700 0.951300 -0.199700
vn 0.206900 0.943700 -0.258100
vn 0.137400 0.916800 -0.375000
vn 0.122900 0.875900 -0.466400
vn 0.137500 0.937500 -0.319500
vn 0.025600 0.982100 0.186600
vn 0.039000 0.997100 0.065400
vn 0.071300 0.985400 -0.154700
vn 0.075100 0.972500 -0.220500
vn 0.041700 0.999100 -0.008500
vn 0.048500 0.978900 0.198300
vn 0.103200 0.966200 0.236000
vn 0.164900 0.979800 0.112900
vn 0.152300 0.986300 -0.062700
vn 0.040300 0.983400 -0.176800
vn -0.003100 0.970800 -0.239600
vn 0.064900 0.917100 -0.393300
vn 0.108500 0.875500 -0.470700
vn 0.109700 0.943900 -0.311400
vn 0.247800 0.959100 0.137100
vn 0.246000 0.968700 0.031300
vn 0.231800 0.960400 -0.154500
vn 0.124500 0.986500 -0.106400
vn -0.066000 0.992900 0.099000
vn -0.147300 0.974800 0.167400
vn -0.095400 0.982300 0.160900
vn -0.012700 0.998500 0.053300
vn -0.009500 0.999900 0.009000
vn -0.076800 0.994500 -0.071000
vn -0.051700 0.948600 -0.312100
vn 0.041700 0.881100 -0.471100
vn 0.041500 0.892600 -0.448800
vn -0.020000 0.967700 -0.251100
vn 0.326500 0.939400 0.104500
vn 0.323600 0.945900 0.023800
vn 0.240800 0.968900 -0.057500
vn 0.062900 0.993300 0.096200
vn -0.118500 0.957600 0.262300
vn -0.221300 0.958800 0.177900
vn -0.176700 0.983300 0.042700
vn -0.072500 0.997200 -0.019000
vn 0.000600 1.000000 0.005400
vn 0.073700 0.994400 -0.075900
vn 0.131200 0.920100 -0.369000
vn 0.161400 0.851100 -0.499600
vn 0.119600 0.924800 -0.361100
vn 0.007200 0.994400 -0.105600
vn 0.227800 0.968600 0.099600
vn 0.183200 0.980100 0.076600
vn 0.030300 0.991100 0.129300
vn -0.124100 0.962600 0.240700
vn -0.137000 0.940900 0.309900
vn -0.077400 0.983800 0.161700
vn -0.018000 0.997900 -0.062100
vn 0.061100 0.993100 -0.100100
vn 0.170900 0.980600 -0.096000
vn 0.281900 0.944700 -0.167500
vn 0.305900 0.871900 -0.382300
vn 0.235500 0.864700 -0.443700
vn 0.116900 0.964900 -0.235000
vn 0.031100 0.999400 0.016400
vn 0.236800 0.962100 0.135000
vn 0.195400 0.964700 0.176600
vn 0.101800 0.954500 0.280100
vn 0.050800 0.957400 0.284200
vn 0.102700 0.966200 0.236300
vn 0.186000 0.976200 0.111100
vn 0.208900 0.974000 -0.087200
vn 0.208200 0.966600 -0.149000
vn 0.219600 0.961500 -0.165000
vn 0.225200 0.947500 -0.227100
vn 0.185000 0.909100 -0.373300
vn 0.080700 0.937800 -0.337600
vn 0.001800 0.988600 -0.150300
vn -0.017100 0.998500 0.051400
vn 0.247400 0.951800 0.181200
vn 0.257900 0.941600 0.216500
vn 0.283600 0.913000 0.293100
vn 0.310300 0.912200 0.267500
vn 0.329900 0.928500 0.170400
vn 0.299400 0.946200 0.122700
vn 0.201900 0.979200 -0.017600
vn 0.093100 0.988900 -0.115500
vn 0.024800 0.988800 -0.147300
vn -0.011100 0.973400 -0.228800
vn -0.068000 0.949000 -0.307700
vn -0.165000 0.956500 -0.240400
vn -0.227800 0.967700 -0.107400
vn -0.239800 0.970100 0.036200
vn 0.252400 0.949500 0.186300
vn 0.246100 0.945400 0.213400
vn 0.255700 0.931700 0.257800
vn 0.301800 0.924100 0.234400
vn 0.302700 0.932100 0.199000
vn 0.197100 0.948400 0.248300
vn 0.006400 0.987300 0.158400
vn -0.188500 0.982000 0.012000
vn -0.271600 0.955400 -0.116000
vn -0.255800 0.941100 -0.221000
vn -0.261100 0.935000 -0.240000
vn -0.318400 0.935900 -0.150500
vn -0.384000 0.921700 -0.055500
vn -0.412400 0.911000 0.004700
vn 0.228200 0.962200 0.148400
vn 0.208000 0.952700 0.221400
vn 0.165000 0.949000 0.268400
vn 0.143200 0.966100 0.214900
vn 0.097900 0.956200 0.275800
vn -0.018900 0.920900 0.389300
vn -0.174000 0.925300 0.336900
vn -0.317500 0.935700 0.153800
vn -0.376100 0.921300 -0.098800
vn -0.368800 0.900400 -0.230800
vn -0.365800 0.906000 -0.213000
vn -0.382100 0.918900 -0.097900
vn -0.392600 0.919300 -0.026900
vn -0.392500 0.919700 0.006100
vn 0.075600 0.988800 0.128800
vn 0.079300 0.970200 0.228800
vn 0.080400 0.951600 0.296500
vn 0.038900 0.966500 0.253600
vn -0.034500 0.936100 0.350100
vn -0.081100 0.886000 0.456500
vn -0.104100 0.902100 0.418800
vn -0.125600 0.969300 0.211500
vn -0.201000 0.979300 -0.022100
vn -0.287400 0.932900 -0.216800
vn -0.315800 0.924500 -0.213300
vn -0.305500 0.946400 -0.104700
vn -0.223500 0.969100 -0.104300
vn -0.143900 0.989600 0.004900
vn 0.038000 0.992200 0.118600
vn 0.055500 0.975400 0.213000
vn 0.074100 0.952900 0.294000
vn 0.040900 0.949300 0.311600
vn 0.007900 0.918600 0.395000
vn 0.064000 0.894900 0.441600
vn 0.157800 0.897600 0.411600
vn 0.196100 0.956300 0.217000
vn 0.121300 0.987800 0.097700
vn -0.023300 0.988900 -0.146500
vn -0.131300 0.969100 -0.209000
vn -0.093100 0.984800 -0.146500
vn 0.053800 0.970800 -0.233900
vn 0.152900 0.988100 -0.014100
vn 0.108100 0.951700 0.287300
vn 0.066200 0.940900 0.332100
vn 0.100100 0.975200 0.197600
vn 0.080700 0.990800 0.108400
vn 0.066800 0.913300 0.401700
vn 0.153000 0.897200 0.414300
vn 0.267000 0.883200 0.385600
vn 0.327900 0.917400 0.225500
vn 0.154200 0.947300 -0.280800
vn 0.224300 0.974300 -0.018800
vn -0.020100 0.978500 -0.205400
vn 0.014400 0.984200 -0.176700
vn 0.123500 0.985200 -0.118600
vn 0.264300 0.953400 0.145600
vn -0.127100 0.985900 0.108900
vn -0.389800 0.917300 0.081600
vn 0.132500 0.990500 -0.036100
vn 0.089000 0.995500 -0.032600
vn 0.009900 0.989800 0.142100
vn -0.047900 0.998300 0.033100
vn 0.087000 0.990500 -0.106400
vn -0.044800 0.990000 -0.133700
vn -0.413000 0.906800 0.084700
vn -0.246900 0.955000 0.164400
vn 0.107800 0.968200 -0.225800
vn 0.132300 0.969400 -0.207000
vn -0.010800 0.981700 0.190000
vn 0.165000 0.979500 0.115900
vn 0.237100 0.963600 0.123500
usemtl None
s 1
f 209//1 205//2 1//3 170//4
f 170//4 1//3 2//5 182//6
f 182//6 2//5 3//7 180//8
f 180//8 3//7 4//9 181//10
f 181//10 4//9 5//11 175//12
f 175//12 5//11 6//13 172//14
f 172//14 6//13 7//15 173//16
f 173//16 7//15 8//17 174//18
f 174//18 8//17 9//19 179//20
f 179//20 9//19 10//21 178//22
f 178//22 10//21 11//23 176//24
f 176//24 11//23 12//25 177//26
f 177//26 12//25 13//27 171//28
f 205//2 204//29 14//30 1//3
f 1//3 14//30 15//31 2//5
f 2//5 15//31 16//32 3//7
f 3//7 16//32 17//33 4//9
f 4//9 17//33 18//34 5//11
f 5//11 18//34 19//35 6//13
f 6//13 19//35 20//36 7//15
f 7//15 20//36 21//37 8//17
f 8//17 21//37 22//38 9//19
f 9//19 22//38 23//39 10//21
f 10//21 23//39 24//40 11//23
f 11//23 24//40 25//41 12//25
f 12//25 25//41 26//42 13//27
f 204//29 201//43 27//44 14//30
f 14//30 27//44 28//45 15//31
f 15//31 28//45 29//46 16//32
f 16//32 29//46 30//47 17//33
f 17//33 30//47 31//48 18//34
f 18//34 31//48 32//49 19//35
f 19//35 32//49 33//50 20//36
f 20//36 33//50 34//51 21//37
f 21//37 34//51 35//52 22//38
f 22//38 35//52 36//53 23//39
f 23//39 36//53 37//54 24//40
f 24//40 37//54 38//55 25//41
f 25//41 38//55 39//56 26//42
f 201//43 198//57 40//58 27//44
f 27//44 40//58 41//59 28//45
f 28//45 41//59 42//60 29//46
f 29//46 42//60 43//61 30//47
f 30//47 43//61 44//62 31//48
f 31//48 44//62 45//63 32//49
f 32//49 45//63 46//64 33//50
f 33//50 46//64 47//65 34//51
f 34//51 47//65 48//66 35//52
f 35//52 48//66 49//67 36//53
f 36//53 49//67 50//68 37//54
f 37//54 50//68 51//69 38//55
f 38//55 51//69 52//70 39//56
f 198//57 200//71 53//72 40//58
f 40//58 53//72 54//73 41//59
f 41//59 54//73 55//74 42//60
f 42//60 55//74 56//75 43//61
f 43//61 56//75 57//76 44//62
f 44//62 57//76 58//77 45//63
f 45//63 58//77 59//78 46//64
f 46//64 59//78 60//79 47//65
f 47//65 60//79 61//80 48//66
f 48//66 61//80 62//81 49//67
f 49//67 62//81 63//82 50//68
f 50//68 63//82 64//83 51//69
f 51//69 64//83 65//84 52//70
f 200//71 196//85 66//86 53//72
f 53//72 66//86 67//87 54//73
f 54//73 67//87 68//88 55//74
f 55//74 68//88 69//89 56//75
f 56//75 69//89 70//90 57//76
f 57//76 70//90 71//91 58//77
f 58//77 71//91 72//92 59//78
f 59//78 72//92 73//93 60//79
f 60//79 73//93 74//94 61//80
f 61//80 74//94 75//95 62//81
f 62//81 75//95 76//96 63//82
f 63//82 76//96 77//97 64//83
f 64//83 77//97 78//98 65//84
f 196//85 207//99 79//100 66//86
f 66//86 79//100 80//101 67//87
f 67//87 80//101 81//102 68//88
f 68//88 81//102 82//103 69//89
f 69//89 82//103 83//104 70//90
f 70//90 83//104 84//105 71//91
f 71//91 84//105 85//106 72//92
f 72//92 85//106 86//107 73//93
f 73//93 86//107 87//108 74//94
f 74//94 87//108 88//109 75//95
f 75//95 88//109 89//110 76//96
f 76//96 89//110 90//111 77//97
f 77//97 90//111 91//112 78//98
f 207//99 203//113 92//114 79//100
f 79//100 92//114 93//115 80//101
f 80//101 93//115 94//116 81//102
f 81//102 94//116 95//117 82//103
f 82//103 95//117 96//118 83//104
f 83//104 96//118 97//119 84//105
f 84//105 97//119 98//120 85//106
f 85//106 98//120 99//121 86//107
f 86//107 99//121 100//122 87//108
f 87//108 100//122 101//123 88//109
f 88//109 101//123 102//124 89//110
f 89//110 102//124 103//125 90//111
f 90//111 103//125 104//126 91//112
f 203//113 197//127 105//128 92//114
f 92//114 105//128 106//129 93//115
f 93//115 106//129 107//130 94//116
f 94//116 107//130 108//131 95//117
f 95//117 108//131 109//132 96//118
f 96//118 109//132 110//133 97//119
f 97//119 110//133 111//134 98//120
f 98//120 111//134 112//135 99//121
f 99//121 112//135 113//136 100//122
f 100//122 113//136 114//137 101//123
f 101//123 114//137 115//138 102//124
f 102//124 115//138 116//139 103//125
f 103//125 116//139 117//140 104//126
f 197//127 199//141 118//142 105//128
f 105//128 118//142 119//143 106//129
f 106//129 119//143 120//144 107//130
f 107//130 120//144 121//145 108//131
f 108//131 121//145 122//146 109//132
f 109//132 122//146 123//147 110//133
f 110//133 123//147 124//148 111//134
f 111//134 124//148 125//149 112//135
f 112//135 125//149 126//150 113//136
f 113//136 126//150 127//151 114//137
f 114//137 127//151 128//152 115//138
f 115//138 128//152 129//153 116//139
f 116//139 129//153 130//154 117//140
f 199//141 208//155 131//156 118//142
f 118//142 131//156 132//157 119//143
f 119//143 132//157 133//158 120//144
f 120//144 133//158 134//159 121//145
f 121//145 134//159 135//160 122//146
f 122//146 135//160 136//161 123//147
f 123//147 136//161 137//162 124//148
f 124//148 137//162 138//163 125//149
f 125//149 138//163 139//164 126//150
f 126//150 139//164 140//165 127//151
f 127//151 140//165 141//166 128//152
f 128//152 141//166 142//167 129//153
f 129//153 142//167 143//168 130//154
f 208//155 202//169 144//170 131//156
f 131//156 144//170 145//171 132//157
f 132//157 145//171 146//172 133//158
f 133//158 146//172 147//173 134//159
f 134//159 147//173 148//174 135//160
f 135//160 148//174 149//175 136//161
f 136//161 149//175 150//176 137//162
f 137//162 150//176 151//177 138//163
f 138//163 151//177 152//178 139//164
f 139//164 152//178 153//179 140//165
f 140//165 153//179 154//180 141//166
f 141//166 154//180 155//181 142//167
f 142//167 155//181 156//182 143//168
f 202//169 206//183 157//184 144//170
f 144//170 157//184 158//185 145//171
f 145//171 158//185 159//186 146//172
f 146//172 159//186 160//187 147//173
f 147//173 160//187 161//188 148//174
f 148//174 161//188 162//189 149//175
f 149//175 162//189 163//190 150//176
f 150//176 163//190 164//191 151//177
f 151//177 164//191 165//192 152//178
f 152//178 165//192 166//193 153//179
f 153//179 166//193 167//194 154//180
f 154//180 167//194 168//195 155//181
f 155//181 168//195 169//196 156//182
f 158//185 183//197 184//198 159//186
f 157//184 185//199 183//197 158//185
f 206//183 210//200 185//199 157//184
f 159//186 184//198 186//201 160//187
f 160//187 186//201 187//202 161//188
f 161//188 187//202 188//203 162//189
f 162//189 188//203 189//204 163//190
f 168//195 190//205 191//206 169//196
f 166//193 192//207 193//208 167//194
f 167//194 193//208 190//205 168//195
f 165//192 194//209 192//207 166//193
f 163//190 189//204 195//210 164//191
f 164//191 195//210 194//209 165//192
f 143//168 156//182 211//211 212//212
f 171//28 13//27 213//213 214//214
f 78//98 91//112 215//215 216//216
f 13//27 26//42 217//217 213//213
f 65//84 78//98 216//216 218//218
f 130//154 143//168 212//212 219//219
f 117//140 130//154 219//219 220//220
f 52//70 65//84 218//218 221//221
f 26//42 39//56 222//222 217//217
f 39//56 52//70 221//221 222//222
f 91//112 104//126 223//223 215//215
f 104//126 117//140 220//220 223//223
f 156//182 169//196 224//224 211//211
f 169//196 191//206 225//225 224//224
