# Blender v2.73 (sub 0) OBJ File: 'untitled.blend'
# www.blender.org
mtllib Landscape.014.mtl
o Landscape.014
v -94.383835 6.953514 29.737373
v -94.383835 6.988509 27.151516
v -94.383835 6.975421 24.565657
v -94.383835 6.859668 21.979797
v -94.383835 6.769406 19.393940
v -94.383835 6.368165 16.808081
v -94.383835 5.958607 14.222222
v -94.383835 6.111392 11.636364
v -94.383835 6.366709 9.050505
v -94.383835 6.177164 6.464646
v -94.383835 6.273408 3.878788
v -94.383835 6.278432 1.292929
v -91.797981 8.706876 29.737373
v -91.797981 8.456581 27.151516
v -91.797981 8.394787 24.565657
v -91.797981 8.276556 21.979797
v -91.797981 8.175098 19.393940
v -91.797981 7.872517 16.808081
v -91.797981 7.405604 14.222222
v -91.797981 7.330010 11.636364
v -91.797981 7.464076 9.050505
v -91.797981 7.579482 6.464646
v -91.797981 7.591617 3.878788
v -91.797981 7.055114 1.292929
v -89.212120 10.360038 29.737373
v -89.212120 9.947105 27.151516
v -89.212120 9.732641 24.565657
v -89.212120 9.387200 21.979797
v -89.212120 8.855922 19.393940
v -89.212120 9.102151 16.808081
v -89.212120 8.648031 14.222222
v -89.212120 8.353971 11.636364
v -89.212120 8.546937 9.050505
v -89.212120 8.424356 6.464646
v -89.212120 8.444636 3.878788
v -89.212120 8.218488 1.292929
v -86.626259 11.827732 29.737373
v -86.626259 11.057772 27.151516
v -86.626259 10.515831 24.565657
v -86.626259 10.319575 21.979797
v -86.626259 10.085247 19.393940
v -86.626259 9.874375 16.808081
v -86.626259 9.459600 14.222222
v -86.626259 9.099877 11.636364
v -86.626259 9.238338 9.050505
v -86.626259 9.078309 6.464646
v -86.626259 9.215795 3.878788
v -86.626259 9.282753 1.292929
v -84.040405 12.630100 29.737373
v -84.040405 12.264566 27.151516
v -84.040405 12.319875 24.565657
v -84.040405 11.981307 21.979797
v -84.040405 11.273438 19.393940
v -84.040405 10.322185 16.808081
v -84.040405 9.894841 14.222222
v -84.040405 10.000333 11.636364
v -84.040405 9.818406 9.050505
v -84.040405 9.443625 6.464646
v -84.040405 9.744245 3.878788
v -84.040405 9.583953 1.292929
v -81.454544 13.611708 29.737373
v -81.454544 13.539502 27.151516
v -81.454544 13.259706 24.565657
v -81.454544 13.383981 21.979797
v -81.454544 12.833164 19.393940
v -81.454544 11.402640 16.808081
v -81.454544 10.785930 14.222222
v -81.454544 10.026706 11.636364
v -81.454544 10.174452 9.050505
v -81.454544 10.152781 6.464646
v -81.454544 10.127088 3.878788
v -81.454544 9.854261 1.292929
v -78.868690 14.321990 29.737373
v -78.868690 13.907784 27.151516
v -78.868690 14.325989 24.565657
v -78.868690 14.083651 21.979797
v -78.868690 12.834935 19.393940
v -78.868690 11.787112 16.808081
v -78.868690 10.649240 14.222222
v -78.868690 10.407196 11.636364
v -78.868690 10.442747 9.050505
v -78.868690 10.283785 6.464646
v -78.868690 9.886667 3.878788
v -78.868690 9.714983 1.292929
v -76.282829 14.260571 29.737373
v -76.282829 14.589106 27.151516
v -76.282829 15.170992 24.565657
v -76.282829 14.144755 21.979797
v -76.282829 12.375020 19.393940
v -76.282829 11.100148 16.808081
v -76.282829 10.210284 14.222222
v -76.282829 10.339315 11.636364
v -76.282829 10.520505 9.050505
v -76.282829 10.324007 6.464646
v -76.282829 9.810988 3.878788
v -76.282829 9.386065 1.292929
v -73.696968 15.422600 29.737373
v -73.696968 16.382055 27.151516
v -73.696968 15.777218 24.565657
v -73.696968 14.600919 21.979797
v -73.696968 12.512198 19.393940
v -73.696968 11.040007 16.808081
v -73.696968 10.693167 14.222222
v -73.696968 10.202013 11.636364
v -73.696968 10.264515 9.050505
v -73.696968 10.070455 6.464646
v -73.696968 9.850598 3.878788
v -73.696968 9.241088 1.292929
v -71.111115 16.465515 29.737373
v -71.111115 16.865997 27.151516
v -71.111115 16.054089 24.565657
v -71.111115 15.101667 21.979797
v -71.111115 13.627404 19.393940
v -71.111115 11.777205 16.808081
v -71.111115 10.994596 14.222222
v -71.111115 10.599747 11.636364
v -71.111115 10.616537 9.050505
v -71.111115 10.679259 6.464646
v -71.111115 9.932199 3.878788
v -71.111115 9.164821 1.292929
v -68.525253 16.381559 29.737373
v -68.525253 16.297672 27.151516
v -68.525253 17.086716 24.565657
v -68.525253 17.540920 21.979797
v -68.525253 15.285885 19.393940
v -68.525253 13.539477 16.808081
v -68.525253 11.916014 14.222222
v -68.525253 11.265467 11.636364
v -68.525253 12.017454 9.050505
v -68.525253 11.844949 6.464646
v -68.525253 10.789219 3.878788
v -68.525253 9.818077 1.292929
v -65.939392 16.131493 29.737373
v -65.939392 16.670795 27.151516
v -65.939392 17.279970 24.565657
v -65.939392 17.784908 21.979797
v -65.939392 16.005371 19.393940
v -65.939392 14.522432 16.808081
v -65.939392 13.377324 14.222222
v -65.939392 12.477295 11.636364
v -65.939392 12.913545 9.050505
v -65.939392 12.466312 6.464646
v -65.939392 11.883509 3.878788
v -65.939392 10.644707 1.292929
v -96.000000 6.311124 29.737373
v -96.000000 6.408796 24.565657
v -96.000000 6.622959 27.151516
v -96.000000 5.329112 14.222222
v -96.000000 5.710233 16.808081
v -96.000000 6.117364 21.979797
v -96.000000 6.053839 19.393940
v -96.000000 5.481349 1.292929
v -96.000000 5.720324 9.050505
v -96.000000 5.427971 11.636364
v -96.000000 5.580359 6.464646
v -96.000000 5.634960 3.878788
v -64.000000 16.471407 19.393940
v -64.000000 15.029226 16.808081
v -64.000000 11.053998 1.292929
v -64.000000 13.408220 9.050505
v -64.000000 13.013017 6.464646
v -64.000000 12.457547 3.878788
v -64.000000 13.304622 11.636364
v -64.000000 13.871402 14.222222
v -64.000000 17.969843 21.979797
v -64.000000 15.824352 29.737373
v -64.000000 16.441692 27.151516
v -64.000000 17.181046 24.565657
v -78.868690 14.239057 32.000000
v -91.797981 8.349477 32.000000
v -68.525253 16.336288 32.000000
v -84.040405 12.568229 32.000000
v -65.939392 16.022743 32.000000
v -81.454544 13.516281 32.000000
v -94.383835 6.835700 32.000000
v -76.282829 14.011001 32.000000
v -71.111115 16.194422 32.000000
v -86.626259 11.450704 32.000000
v -73.696968 14.636491 32.000000
v -89.212120 10.040059 32.000000
v -96.000000 6.126322 32.000000
v -64.000000 15.570517 32.000000
v -94.383835 6.204724 0.000000
v -96.000000 5.398174 0.000000
v -91.797981 7.061749 0.000000
v -89.212120 8.072154 0.000000
v -81.454544 9.681721 0.000000
v -84.040405 9.292318 0.000000
v -68.525253 9.353507 0.000000
v -71.111115 8.778666 0.000000
v -86.626259 9.117299 0.000000
v -73.696968 9.066383 0.000000
v -76.282829 9.214548 0.000000
v -65.939392 9.972263 0.000000
v -64.000000 10.354350 0.000000
v -78.868690 9.571211 0.000000
vn -0.385100 0.920800 0.061600
vn -0.459100 0.885200 0.075100
vn -0.439200 0.897200 0.045200
vn -0.342500 0.937400 0.062800
vn -0.401000 0.916000 -0.006700
vn -0.287400 0.957700 0.011000
vn -0.406900 0.912500 -0.041900
vn -0.327100 0.943200 -0.057900
vn -0.436600 0.898600 -0.043200
vn -0.393200 0.918100 -0.049500
vn -0.443000 0.893200 -0.077300
vn -0.399700 0.913100 -0.080400
vn -0.434000 0.890800 -0.134400
vn -0.376700 0.916300 -0.136200
vn -0.423400 0.904100 -0.056900
vn -0.372800 0.926700 -0.046800
vn -0.405700 0.912300 0.056200
vn -0.377400 0.923300 0.070800
vn -0.396400 0.917800 0.023500
vn -0.369700 0.928900 0.019600
vn -0.404100 0.914700 -0.006800
vn -0.357900 0.933600 -0.015900
vn -0.401600 0.915600 -0.018800
vn -0.381700 0.924300 0.000400
vn -0.381400 0.923000 -0.050000
vn -0.425200 0.904200 -0.040500
vn -0.535300 0.838000 0.105600
vn -0.531300 0.847000 0.017200
vn -0.503400 0.862600 -0.050400
vn -0.468600 0.882300 -0.045000
vn -0.428800 0.900900 -0.067200
vn -0.410500 0.909300 -0.068200
vn -0.439300 0.891600 -0.109400
vn -0.445800 0.890600 -0.089400
vn -0.411700 0.911100 0.019000
vn -0.392800 0.919200 0.028200
vn -0.391200 0.920300 0.002600
vn -0.379100 0.923900 -0.052000
vn -0.356100 0.931400 -0.075800
vn -0.511900 0.849300 0.128900
vn -0.497700 0.867200 -0.014100
vn -0.445400 0.886800 -0.123200
vn -0.391100 0.915900 -0.090600
vn -0.363800 0.925200 -0.107600
vn -0.353700 0.933200 -0.063300
vn -0.355900 0.931000 -0.080400
vn -0.352200 0.927300 -0.126600
vn -0.335400 0.941900 -0.016100
vn -0.311300 0.950200 0.016400
vn -0.295100 0.955400 -0.004600
vn -0.318600 0.947300 -0.032000
vn -0.364600 0.927500 -0.082600
vn -0.418700 0.901000 0.113300
vn -0.408100 0.911800 -0.044700
vn -0.413800 0.897200 -0.154300
vn -0.429500 0.897300 -0.101700
vn -0.433400 0.893100 -0.120400
vn -0.379900 0.916400 -0.125800
vn -0.279200 0.951400 -0.130000
vn -0.248800 0.960900 -0.121300
vn -0.270500 0.962300 -0.028900
vn -0.243700 0.969500 -0.025400
vn -0.217400 0.976000 -0.010400
vn -0.232900 0.972400 0.016500
vn -0.240200 0.967100 -0.083600
vn -0.348100 0.935400 0.061800
vn -0.365000 0.930200 -0.038200
vn -0.413300 0.904900 -0.101300
vn -0.465300 0.883100 -0.060700
vn -0.486000 0.865100 -0.123700
vn -0.425200 0.871600 -0.244000
vn -0.309300 0.922200 -0.231800
vn -0.234700 0.963500 -0.128800
vn -0.193400 0.980000 -0.046800
vn -0.183400 0.981900 -0.047600
vn -0.189400 0.981800 -0.010200
vn -0.165300 0.986200 0.008400
vn -0.125000 0.985700 -0.112500
vn -0.308700 0.950500 0.035300
vn -0.305600 0.951800 -0.024800
vn -0.316700 0.947400 -0.045900
vn -0.350800 0.936200 -0.018800
vn -0.338800 0.928600 -0.151500
vn -0.279000 0.898400 -0.339000
vn -0.230100 0.912500 -0.338100
vn -0.157600 0.965200 -0.208400
vn -0.105300 0.991900 -0.071000
vn -0.119400 0.992600 -0.020300
vn -0.116500 0.992600 -0.035000
vn -0.059800 0.996900 -0.049700
vn -0.032300 0.992600 -0.116600
vn -0.107300 0.992600 0.056300
vn -0.133900 0.991000 0.001300
vn -0.218900 0.975400 0.024000
vn -0.261800 0.965000 -0.012000
vn -0.142200 0.950300 -0.277000
vn 0.016500 0.906900 -0.420900
vn 0.071500 0.920900 -0.383100
vn 0.053600 0.972300 -0.227500
vn -0.018900 0.999200 -0.034200
vn -0.056600 0.998400 -0.006600
vn -0.018000 0.995800 -0.089700
vn 0.044600 0.992500 -0.113800
vn 0.082100 0.990500 -0.110300
vn -0.133600 0.980400 0.145000
vn -0.221400 0.967300 0.123200
vn -0.331900 0.938000 0.099600
vn -0.273000 0.954800 -0.117600
vn -0.095600 0.893200 -0.439200
vn 0.042300 0.867900 -0.494900
vn 0.076500 0.926200 -0.369100
vn 0.038000 0.984500 -0.171100
vn 0.026400 0.999600 -0.000600
vn 0.037200 0.999200 -0.013700
vn 0.030800 0.993000 -0.114300
vn 0.036300 0.987100 -0.156100
vn 0.071200 0.987400 -0.141000
vn -0.375400 0.903100 0.208600
vn -0.388400 0.895300 0.218000
vn -0.331600 0.942300 0.044600
vn -0.227500 0.938700 -0.258700
vn -0.170800 0.860400 -0.480100
vn -0.162700 0.827900 -0.536700
vn -0.143100 0.922500 -0.358400
vn -0.118000 0.978200 -0.170800
vn -0.066700 0.996800 -0.043500
vn -0.038500 0.999200 -0.009600
vn -0.043800 0.993300 -0.107000
vn -0.017500 0.980700 -0.194600
vn 0.036000 0.979200 -0.199600
vn -0.236500 0.961100 0.142400
vn -0.153500 0.976700 0.149600
vn -0.097600 0.995100 0.011300
vn -0.247800 0.950600 -0.186900
vn -0.386300 0.829200 -0.403900
vn -0.389600 0.759300 -0.521100
vn -0.347300 0.843900 -0.408900
vn -0.260100 0.936000 -0.237100
vn -0.235500 0.970500 -0.051700
vn -0.287300 0.957400 0.027400
vn -0.283600 0.948900 -0.138600
vn -0.187100 0.945500 -0.266500
vn -0.105300 0.956200 -0.273100
vn 0.048700 0.997500 0.051900
vn 0.049700 0.996800 0.063100
vn -0.022500 0.994500 0.101800
vn -0.221100 0.970800 0.092600
vn -0.335600 0.905900 -0.258200
vn -0.372200 0.760000 -0.532700
vn -0.397500 0.792000 -0.463200
vn -0.392000 0.864000 -0.315800
vn -0.373200 0.927300 -0.026500
vn -0.368300 0.928100 0.053700
vn -0.346300 0.920300 -0.182000
vn -0.311700 0.894200 -0.321200
vn -0.264200 0.900900 -0.344300
vn 0.150300 0.987000 0.056300
vn 0.103500 0.989000 0.105200
vn 0.021100 0.978300 0.206100
vn -0.032200 0.971600 0.234400
vn -0.106400 0.975100 -0.194300
vn -0.191200 0.822600 -0.535400
vn -0.272800 0.846100 -0.457800
vn -0.344900 0.873800 -0.342700
vn -0.373800 0.926000 -0.052800
vn -0.309800 0.950700 0.008100
vn -0.277800 0.941500 -0.190700
vn -0.278600 0.901500 -0.331100
vn -0.243600 0.875300 -0.417600
vn -0.174300 0.843600 -0.507800
vn -0.221000 0.869400 -0.442000
vn -0.291400 0.956200 -0.027700
vn -0.263700 0.947600 -0.180400
vn -0.249500 0.913800 -0.320300
vn -0.200200 0.869200 -0.452100
vn -0.321400 0.943100 -0.085600
vn -0.269300 0.904000 -0.332000
vn -0.087700 0.984200 -0.153800
vn 0.191500 0.978400 0.078400
vn 0.163600 0.975600 0.146600
vn 0.108200 0.966300 0.233700
vn 0.030500 0.968400 0.247400
vn -0.374600 0.926300 -0.039800
vn -0.443800 0.894500 -0.054300
vn -0.344500 0.938000 -0.037300
vn -0.381500 0.920900 -0.079600
vn -0.038900 0.988100 -0.149000
vn -0.107200 0.978800 -0.174300
vn -0.233600 0.908800 -0.345800
vn -0.075200 0.962500 -0.260800
vn -0.238000 0.960700 -0.143200
vn 0.062500 0.983000 -0.172400
vn 0.093000 0.987600 -0.126400
vn -0.215100 0.879800 -0.423900
vn -0.177400 0.869300 -0.461300
vn 0.089500 0.988600 -0.120700
usemtl None
s 1
f 181//1 175//2 1//3 145//4
f 145//4 1//3 2//5 147//6
f 147//6 2//5 3//7 146//8
f 146//8 3//7 4//9 150//10
f 150//10 4//9 5//11 151//12
f 151//12 5//11 6//13 149//14
f 149//14 6//13 7//15 148//16
f 148//16 7//15 8//17 154//18
f 154//18 8//17 9//19 153//20
f 153//20 9//19 10//21 155//22
f 155//22 10//21 11//23 156//24
f 156//24 11//23 12//25 152//26
f 175//2 170//27 13//28 1//3
f 1//3 13//28 14//29 2//5
f 2//5 14//29 15//30 3//7
f 3//7 15//30 16//31 4//9
f 4//9 16//31 17//32 5//11
f 5//11 17//32 18//33 6//13
f 6//13 18//33 19//34 7//15
f 7//15 19//34 20//35 8//17
f 8//17 20//35 21//36 9//19
f 9//19 21//36 22//37 10//21
f 10//21 22//37 23//38 11//23
f 11//23 23//38 24//39 12//25
f 170//27 180//40 25//41 13//28
f 13//28 25//41 26//42 14//29
f 14//29 26//42 27//43 15//30
f 15//30 27//43 28//44 16//31
f 16//31 28//44 29//45 17//32
f 17//32 29//45 30//46 18//33
f 18//33 30//46 31//47 19//34
f 19//34 31//47 32//48 20//35
f 20//35 32//48 33//49 21//36
f 21//36 33//49 34//50 22//37
f 22//37 34//50 35//51 23//38
f 23//38 35//51 36//52 24//39
f 180//40 178//53 37//54 25//41
f 25//41 37//54 38//55 26//42
f 26//42 38//55 39//56 27//43
f 27//43 39//56 40//57 28//44
f 28//44 40//57 41//58 29//45
f 29//45 41//58 42//59 30//46
f 30//46 42//59 43//60 31//47
f 31//47 43//60 44//61 32//48
f 32//48 44//61 45//62 33//49
f 33//49 45//62 46//63 34//50
f 34//50 46//63 47//64 35//51
f 35//51 47//64 48//65 36//52
f 178//53 172//66 49//67 37//54
f 37//54 49//67 50//68 38//55
f 38//55 50//68 51//69 39//56
f 39//56 51//69 52//70 40//57
f 40//57 52//70 53//71 41//58
f 41//58 53//71 54//72 42//59
f 42//59 54//72 55//73 43//60
f 43//60 55//73 56//74 44//61
f 44//61 56//74 57//75 45//62
f 45//62 57//75 58//76 46//63
f 46//63 58//76 59//77 47//64
f 47//64 59//77 60//78 48//65
f 172//66 174//79 61//80 49//67
f 49//67 61//80 62//81 50//68
f 50//68 62//81 63//82 51//69
f 51//69 63//82 64//83 52//70
f 52//70 64//83 65//84 53//71
f 53//71 65//84 66//85 54//72
f 54//72 66//85 67//86 55//73
f 55//73 67//86 68//87 56//74
f 56//74 68//87 69//88 57//75
f 57//75 69//88 70//89 58//76
f 58//76 70//89 71//90 59//77
f 59//77 71//90 72//91 60//78
f 174//79 169//92 73//93 61//80
f 61//80 73//93 74//94 62//81
f 62//81 74//94 75//95 63//82
f 63//82 75//95 76//96 64//83
f 64//83 76//96 77//97 65//84
f 65//84 77//97 78//98 66//85
f 66//85 78//98 79//99 67//86
f 67//86 79//99 80//100 68//87
f 68//87 80//100 81//101 69//88
f 69//88 81//101 82//102 70//89
f 70//89 82//102 83//103 71//90
f 71//90 83//103 84//104 72//91
f 169//92 176//105 85//106 73//93
f 73//93 85//106 86//107 74//94
f 74//94 86//107 87//108 75//95
f 75//95 87//108 88//109 76//96
f 76//96 88//109 89//110 77//97
f 77//97 89//110 90//111 78//98
f 78//98 90//111 91//112 79//99
f 79//99 91//112 92//113 80//100
f 80//100 92//113 93//114 81//101
f 81//101 93//114 94//115 82//102
f 82//102 94//115 95//116 83//103
f 83//103 95//116 96//117 84//104
f 176//105 179//118 97//119 85//106
f 85//106 97//119 98//120 86//107
f 86//107 98//120 99//121 87//108
f 87//108 99//121 100//122 88//109
f 88//109 100//122 101//123 89//110
f 89//110 101//123 102//124 90//111
f 90//111 102//124 103//125 91//112
f 91//112 103//125 104//126 92//113
f 92//113 104//126 105//127 93//114
f 93//114 105//127 106//128 94//115
f 94//115 106//128 107//129 95//116
f 95//116 107//129 108//130 96//117
f 179//118 177//131 109//132 97//119
f 97//119 109//132 110//133 98//120
f 98//120 110//133 111//134 99//121
f 99//121 111//134 112//135 100//122
f 100//122 112//135 113//136 101//123
f 101//123 113//136 114//137 102//124
f 102//124 114//137 115//138 103//125
f 103//125 115//138 116//139 104//126
f 104//126 116//139 117//140 105//127
f 105//127 117//140 118//141 106//128
f 106//128 118//141 119//142 107//129
f 107//129 119//142 120//143 108//130
f 177//131 171//144 121//145 109//132
f 109//132 121//145 122//146 110//133
f 110//133 122//146 123//147 111//134
f 111//134 123//147 124//148 112//135
f 112//135 124//148 125//149 113//136
f 113//136 125//149 126//150 114//137
f 114//137 126//150 127//151 115//138
f 115//138 127//151 128//152 116//139
f 116//139 128//152 129//153 117//140
f 117//140 129//153 130//154 118//141
f 118//141 130//154 131//155 119//142
f 119//142 131//155 132//156 120//143
f 171//144 173//157 133//158 121//145
f 121//145 133//158 134//159 122//146
f 122//146 134//159 135//160 123//147
f 123//147 135//160 136//161 124//148
f 124//148 136//161 137//162 125//149
f 125//149 137//162 138//163 126//150
f 126//150 138//163 139//164 127//151
f 127//151 139//164 140//165 128//152
f 128//152 140//165 141//166 129//153
f 129//153 141//166 142//167 130//154
f 130//154 142//167 143//168 131//155
f 131//155 143//168 144//169 132//156
f 137//162 157//170 158//171 138//163
f 141//166 160//172 161//173 142//167
f 142//167 161//173 162//174 143//168
f 143//168 162//174 159//175 144//169
f 140//165 163//176 160//172 141//166
f 138//163 158//171 164//177 139//164
f 139//164 164//177 163//176 140//165
f 136//161 165//178 157//170 137//162
f 173//157 182//179 166//180 133//158
f 133//158 166//180 167//181 134//159
f 134//159 167//181 168//182 135//160
f 135//160 168//182 165//178 136//161
f 152//26 12//25 183//183 184//184
f 12//25 24//39 185//185 183//183
f 24//39 36//52 186//186 185//185
f 60//78 72//91 187//187 188//188
f 120//143 132//156 189//189 190//190
f 36//52 48//65 191//191 186//186
f 48//65 60//78 188//188 191//191
f 96//117 108//130 192//192 193//193
f 108//130 120//143 190//190 192//192
f 132//156 144//169 194//194 189//189
f 144//169 159//175 195//195 194//194
f 72//91 84//104 196//196 187//187
f 84//104 96//117 193//193 196//196
