# Blender v2.73 (sub 0) OBJ File: 'untitled.blend'
# www.blender.org
mtllib Landscape.050.mtl
o Landscape.050
v 32.323231 9.561023 29.737373
v 32.323231 9.658320 27.151516
v 32.323231 9.511295 24.565657
v 32.323231 8.870276 21.979797
v 32.323231 7.764259 19.393940
v 32.323231 6.484746 16.808081
v 32.323231 5.780987 14.222222
v 32.323231 5.083586 11.636364
v 32.323231 4.346171 9.050505
v 32.323231 3.693465 6.464646
v 32.323231 3.260466 3.878788
v 32.323231 2.786611 1.292929
v 34.909092 9.072865 29.737373
v 34.909092 8.926052 27.151516
v 34.909092 8.784816 24.565657
v 34.909092 8.641172 21.979797
v 34.909092 7.418161 19.393940
v 34.909092 6.651547 16.808081
v 34.909092 5.986927 14.222222
v 34.909092 4.849788 11.636364
v 34.909092 4.046647 9.050505
v 34.909092 3.549377 6.464646
v 34.909092 3.057878 3.878788
v 34.909092 2.630578 1.292929
v 37.494949 8.455857 29.737373
v 37.494949 8.492996 27.151516
v 37.494949 8.254416 24.565657
v 37.494949 8.017138 21.979797
v 37.494949 7.452683 19.393940
v 37.494949 6.991738 16.808081
v 37.494949 6.047567 14.222222
v 37.494949 5.009583 11.636364
v 37.494949 4.367159 9.050505
v 37.494949 3.632773 6.464646
v 37.494949 3.000956 3.878788
v 37.494949 2.529212 1.292929
v 40.080807 7.983833 29.737373
v 40.080807 8.087138 27.151516
v 40.080807 8.044303 24.565657
v 40.080807 7.660686 21.979797
v 40.080807 7.275397 19.393940
v 40.080807 6.957768 16.808081
v 40.080807 6.101384 14.222222
v 40.080807 5.379863 11.636364
v 40.080807 4.816952 9.050505
v 40.080807 3.852078 6.464646
v 40.080807 2.927802 3.878788
v 40.080807 2.494177 1.292929
v 42.666668 8.036402 29.737373
v 42.666668 8.220120 27.151516
v 42.666668 8.108770 24.565657
v 42.666668 7.659584 21.979797
v 42.666668 7.756872 19.393940
v 42.666668 7.783269 16.808081
v 42.666668 6.991601 14.222222
v 42.666668 6.249194 11.636364
v 42.666668 5.431216 9.050505
v 42.666668 4.166283 6.464646
v 42.666668 3.216048 3.878788
v 42.666668 2.643638 1.292929
v 45.252525 8.989751 29.737373
v 45.252525 8.864313 27.151516
v 45.252525 8.683223 24.565657
v 45.252525 8.470462 21.979797
v 45.252525 8.210414 19.393940
v 45.252525 8.079835 16.808081
v 45.252525 7.523155 14.222222
v 45.252525 6.748631 11.636364
v 45.252525 5.716406 9.050505
v 45.252525 4.651053 6.464646
v 45.252525 3.603145 3.878788
v 45.252525 2.970009 1.292929
v 47.838383 9.143723 29.737373
v 47.838383 9.548645 27.151516
v 47.838383 9.331725 24.565657
v 47.838383 8.997485 21.979797
v 47.838383 9.048659 19.393940
v 47.838383 8.990146 16.808081
v 47.838383 8.325513 14.222222
v 47.838383 7.160424 11.636364
v 47.838383 6.391479 9.050505
v 47.838383 4.993619 6.464646
v 47.838383 4.310908 3.878788
v 47.838383 3.779472 1.292929
v 50.424244 9.150557 29.737373
v 50.424244 9.725384 27.151516
v 50.424244 9.597871 24.565657
v 50.424244 9.757666 21.979797
v 50.424244 10.047843 19.393940
v 50.424244 9.861017 16.808081
v 50.424244 9.126121 14.222222
v 50.424244 7.895262 11.636364
v 50.424244 7.139070 9.050505
v 50.424244 6.029769 6.464646
v 50.424244 5.322168 3.878788
v 50.424244 4.729336 1.292929
v 53.010101 9.472284 29.737373
v 53.010101 10.112507 27.151516
v 53.010101 10.539932 24.565657
v 53.010101 10.174903 21.979797
v 53.010101 11.000009 19.393940
v 53.010101 10.988102 16.808081
v 53.010101 9.970937 14.222222
v 53.010101 8.525590 11.636364
v 53.010101 8.078672 9.050505
v 53.010101 7.177492 6.464646
v 53.010101 6.209810 3.878788
v 53.010101 5.802847 1.292929
v 55.595959 10.007320 29.737373
v 55.595959 10.780635 27.151516
v 55.595959 11.451339 24.565657
v 55.595959 11.497317 21.979797
v 55.595959 11.545402 19.393940
v 55.595959 11.585964 16.808081
v 55.595959 10.734092 14.222222
v 55.595959 9.816620 11.636364
v 55.595959 9.227380 9.050505
v 55.595959 8.612816 6.464646
v 55.595959 7.938923 3.878788
v 55.595959 7.508783 1.292929
v 58.181820 11.539269 29.737373
v 58.181820 11.449964 27.151516
v 58.181820 11.973154 24.565657
v 58.181820 12.190619 21.979797
v 58.181820 11.951704 19.393940
v 58.181820 11.659385 16.808081
v 58.181820 11.261781 14.222222
v 58.181820 10.933022 11.636364
v 58.181820 10.218376 9.050505
v 58.181820 9.278262 6.464646
v 58.181820 8.890433 3.878788
v 58.181820 8.338734 1.292929
v 60.767677 12.456149 29.737373
v 60.767677 12.108111 27.151516
v 60.767677 12.204914 24.565657
v 60.767677 12.041353 21.979797
v 60.767677 11.671702 19.393940
v 60.767677 11.724964 16.808081
v 60.767677 11.299406 14.222222
v 60.767677 10.865081 11.636364
v 60.767677 10.780845 9.050505
v 60.767677 10.113997 6.464646
v 60.767677 9.807944 3.878788
v 60.767677 9.641165 1.292929
v 63.353535 12.235888 29.737373
v 63.353535 11.793813 27.151516
v 63.353535 12.093598 24.565657
v 63.353535 11.881957 21.979797
v 63.353535 11.662595 19.393940
v 63.353535 11.751824 16.808081
v 63.353535 11.172855 14.222222
v 63.353535 10.752001 11.636364
v 63.353535 11.259757 9.050505
v 63.353535 10.926410 6.464646
v 63.353535 10.544813 3.878788
v 63.353535 10.292007 1.292929
v 32.000000 6.496265 16.808081
v 32.000000 8.866527 21.979797
v 32.000000 7.732446 19.393940
v 32.000000 9.599267 29.737373
v 32.000000 9.649526 27.151516
v 32.000000 9.530987 24.565657
v 32.000000 5.801287 14.222222
v 32.000000 5.107989 11.636364
v 32.000000 3.731647 6.464646
v 32.000000 4.378471 9.050505
v 32.000000 3.277701 3.878788
v 32.000000 2.805519 1.292929
v 64.000000 11.135046 14.222222
v 64.000000 10.863980 11.636364
v 64.000000 11.286852 9.050505
v 64.000000 10.951082 6.464646
v 64.000000 10.278022 1.292929
v 64.000000 10.579871 3.878788
v 64.000000 11.518255 19.393940
v 64.000000 11.544160 16.808081
v 64.000000 11.838766 21.979797
v 64.000000 12.146095 29.737373
v 64.000000 11.853428 27.151516
v 64.000000 12.107892 24.565657
v 63.353535 11.978142 32.000000
v 50.424244 8.690841 32.000000
v 37.494949 9.140232 32.000000
v 40.080807 8.444329 32.000000
v 53.010101 8.929717 32.000000
v 55.595959 9.992871 32.000000
v 42.666668 8.548051 32.000000
v 34.909092 9.176309 32.000000
v 47.838383 8.853301 32.000000
v 32.323231 9.639472 32.000000
v 60.767677 12.221129 32.000000
v 45.252525 8.729784 32.000000
v 58.181820 11.266887 32.000000
v 32.000000 9.669003 32.000000
v 64.000000 11.823678 32.000000
v 45.252525 2.853556 0.000000
v 42.666668 2.571290 0.000000
v 58.181820 8.035548 0.000000
v 55.595959 7.134441 0.000000
v 47.838383 3.653413 0.000000
v 60.767677 9.226632 0.000000
v 50.424244 4.559301 0.000000
v 37.494949 2.427329 0.000000
v 34.909092 2.521751 0.000000
v 53.010101 5.707053 0.000000
v 40.080807 2.388055 0.000000
v 32.323231 2.627176 0.000000
v 32.000000 2.646474 0.000000
v 63.353535 10.101380 0.000000
v 64.000000 10.154989 0.000000
vn 0.104200 0.994000 -0.032600
vn 0.142500 0.989100 -0.036000
vn 0.140700 0.990000 -0.013300
vn 0.074900 0.997200 -0.002000
vn 0.141300 0.989700 -0.021500
vn 0.031200 0.999400 -0.011400
vn 0.123600 0.984400 -0.125300
vn 0.020400 0.988800 -0.148100
vn 0.064400 0.951400 -0.301200
vn -0.013400 0.946600 -0.322300
vn 0.014100 0.914800 -0.403500
vn -0.039000 0.907700 -0.417800
vn -0.004700 0.943600 -0.330900
vn 0.009400 0.936100 -0.351500
vn 0.012700 0.960400 -0.278100
vn 0.056900 0.963900 -0.260000
vn 0.063300 0.955600 -0.287900
vn 0.075300 0.961200 -0.265400
vn 0.092900 0.962700 -0.253900
vn 0.094500 0.961700 -0.257400
vn 0.084600 0.976000 -0.200500
vn 0.094900 0.973900 -0.206100
vn 0.068200 0.982400 -0.173800
vn 0.069600 0.982300 -0.174000
vn 0.058000 0.987900 -0.144100
vn 0.056700 0.986900 -0.151100
vn 0.152600 0.982700 -0.104900
vn 0.183700 0.981100 -0.060300
vn 0.220900 0.974500 -0.039000
vn 0.212700 0.973300 -0.086600
vn 0.153400 0.958500 -0.240100
vn 0.042000 0.941600 -0.334000
vn -0.045200 0.956300 -0.288800
vn -0.044700 0.946800 -0.318700
vn -0.006000 0.947700 -0.318900
vn 0.004200 0.968100 -0.250400
vn 0.017200 0.977700 -0.209100
vn 0.039800 0.982400 -0.182700
vn 0.046500 0.990200 -0.131700
vn 0.167800 0.964400 -0.204400
vn 0.177900 0.978700 -0.102000
vn 0.167100 0.985500 -0.030100
vn 0.156900 0.984400 -0.079000
vn 0.133800 0.975200 -0.176100
vn 0.045000 0.974000 -0.222100
vn -0.026700 0.967500 -0.251400
vn -0.048700 0.941400 -0.333600
vn -0.090100 0.949400 -0.300900
vn -0.109900 0.959500 -0.259400
vn -0.057300 0.963700 -0.260700
vn 0.004600 0.977400 -0.211300
vn 0.025700 0.991600 -0.126300
vn 0.094600 0.969400 -0.226700
vn 0.079400 0.992500 -0.092500
vn 0.053200 0.998600 -0.000400
vn 0.044200 0.994900 -0.090700
vn 0.026200 0.991300 -0.128900
vn -0.050100 0.992600 -0.110700
vn -0.131500 0.968500 -0.211300
vn -0.174800 0.937100 -0.302100
vn -0.201800 0.942900 -0.265000
vn -0.176200 0.938900 -0.295500
vn -0.105400 0.937300 -0.332200
vn -0.049400 0.967600 -0.247400
vn -0.028000 0.991400 -0.128100
vn -0.123400 0.983500 -0.132500
vn -0.143700 0.988300 -0.050400
vn -0.151300 0.988500 -0.004700
vn -0.135700 0.986400 -0.092500
vn -0.149600 0.984400 -0.092300
vn -0.180100 0.982800 -0.040200
vn -0.211000 0.965400 -0.153300
vn -0.239300 0.932600 -0.269900
vn -0.227600 0.932300 -0.280800
vn -0.178100 0.921600 -0.344900
vn -0.141100 0.917000 -0.373100
vn -0.120200 0.952900 -0.278200
vn -0.099300 0.985300 -0.139200
vn -0.134900 0.990300 0.033000
vn -0.180900 0.982900 0.033500
vn -0.234100 0.972000 -0.016500
vn -0.238700 0.967000 -0.088600
vn -0.242800 0.967200 -0.074000
vn -0.239800 0.970300 -0.031100
vn -0.233800 0.963200 -0.132500
vn -0.215100 0.937400 -0.273900
vn -0.185200 0.929700 -0.318400
vn -0.161400 0.913600 -0.373200
vn -0.163500 0.912600 -0.374700
vn -0.189700 0.942000 -0.276700
vn -0.205800 0.967000 -0.149800
vn -0.011700 0.989800 0.142200
vn -0.054900 0.989800 0.131200
vn -0.132600 0.990800 0.025200
vn -0.187900 0.979800 -0.069000
vn -0.248700 0.968100 -0.028500
vn -0.309600 0.950700 -0.013900
vn -0.317500 0.938100 -0.137800
vn -0.271800 0.912300 -0.306200
vn -0.234000 0.912700 -0.334800
vn -0.235200 0.902500 -0.360800
vn -0.255900 0.901900 -0.348100
vn -0.291900 0.925200 -0.242400
vn -0.313600 0.937300 -0.152100
vn -0.037800 0.981100 0.189700
vn -0.060700 0.978300 0.198200
vn -0.126800 0.986600 0.102100
vn -0.195800 0.980400 -0.020600
vn -0.257100 0.965100 0.048700
vn -0.322800 0.945200 0.047800
vn -0.340600 0.926400 -0.160400
vn -0.286000 0.891000 -0.352300
vn -0.265300 0.903700 -0.336000
vn -0.301400 0.900900 -0.312300
vn -0.338500 0.883000 -0.325000
vn -0.351500 0.908400 -0.226400
vn -0.357200 0.922700 -0.144800
vn -0.197000 0.965800 0.168600
vn -0.188900 0.960600 0.203800
vn -0.222700 0.957100 0.185500
vn -0.299700 0.953100 0.041400
vn -0.309500 0.948500 0.067000
vn -0.296900 0.951400 0.082000
vn -0.294600 0.940900 -0.166800
vn -0.296100 0.882200 -0.366100
vn -0.324600 0.893800 -0.309500
vn -0.373700 0.894000 -0.247000
vn -0.413000 0.864000 -0.287800
vn -0.439600 0.871900 -0.215900
vn -0.451000 0.881300 -0.141200
vn -0.386600 0.918200 0.086700
vn -0.344900 0.928100 0.140200
vn -0.281900 0.938700 0.198100
vn -0.284600 0.953100 0.103300
vn -0.293900 0.955400 0.029000
vn -0.214400 0.976500 0.019500
vn -0.166100 0.974400 -0.151500
vn -0.248900 0.922400 -0.295300
vn -0.357300 0.896800 -0.261000
vn -0.377900 0.895800 -0.233700
vn -0.381100 0.891200 -0.246000
vn -0.420900 0.885900 -0.194900
vn -0.424500 0.887700 -0.178500
vn -0.410600 0.908300 0.079800
vn -0.374200 0.926000 0.050300
vn -0.269800 0.958100 0.096300
vn -0.159000 0.982300 0.099100
vn -0.092800 0.995400 -0.023500
vn -0.044600 0.997000 -0.062300
vn -0.045900 0.991500 -0.121800
vn -0.105400 0.975800 -0.191700
vn -0.187900 0.963700 -0.189300
vn -0.255300 0.937200 -0.237600
vn -0.290300 0.931300 -0.219900
vn -0.331700 0.930400 -0.155600
vn -0.361900 0.910900 -0.198300
vn -0.129600 0.985600 0.108900
vn -0.110800 0.993800 -0.004600
vn -0.071000 0.997400 -0.010000
vn -0.012700 0.999400 0.033200
vn 0.037800 0.996600 -0.073000
vn 0.038100 0.997300 -0.062000
vn 0.009300 0.995700 -0.092000
vn 0.012600 0.986300 -0.164300
vn -0.028400 0.995000 -0.095600
vn -0.165000 0.976800 -0.136600
vn -0.273500 0.944300 -0.182800
vn -0.313500 0.942700 -0.114300
vn -0.336300 0.926900 -0.166400
vn 0.137200 0.983700 0.116600
vn 0.100500 0.994800 -0.014600
vn 0.037700 0.998900 -0.027100
vn 0.025000 0.999700 0.004500
vn 0.062300 0.993500 -0.095300
vn 0.109700 0.993000 -0.042100
vn 0.115800 0.989900 -0.081500
vn 0.048400 0.984500 -0.168300
vn -0.046900 0.998800 -0.009900
vn -0.114600 0.993300 -0.013700
vn -0.152600 0.977300 -0.147000
vn -0.152800 0.981500 -0.114800
vn -0.146300 0.980400 -0.131500
vn 0.063200 0.985200 -0.159500
vn -0.082100 0.996400 0.022600
vn -0.073400 0.997000 0.024200
vn -0.042700 0.989800 -0.136000
vn -0.031000 0.991600 -0.125400
vn -0.023300 0.993300 -0.113500
vn 0.204000 0.978200 -0.040300
vn 0.223800 0.971100 -0.083500
vn 0.083000 0.991700 -0.097900
vn 0.184200 0.974900 0.125000
vn 0.105000 0.994400 -0.007700
vn -0.016900 0.999700 -0.017300
vn -0.017400 0.999800 0.007000
vn -0.206100 0.975200 -0.081000
vn -0.090300 0.993400 -0.070500
vn -0.362300 0.900000 -0.242300
vn -0.420200 0.886100 -0.195600
vn -0.315600 0.943800 -0.098000
vn -0.355000 0.905500 -0.232400
vn -0.363600 0.926100 -0.100800
vn 0.026000 0.996400 -0.080700
vn 0.044000 0.994800 -0.092100
vn -0.452500 0.883200 -0.123600
vn -0.024800 0.996900 -0.074500
vn 0.054400 0.992200 -0.112500
vn 0.058600 0.990800 -0.122000
vn -0.157000 0.972500 -0.172200
vn -0.030400 0.992300 -0.120400
usemtl None
s 1
f 194//1 190//2 1//3 160//4
f 160//4 1//3 2//5 161//6
f 161//6 2//5 3//7 162//8
f 162//8 3//7 4//9 158//10
f 158//10 4//9 5//11 159//12
f 159//12 5//11 6//13 157//14
f 157//14 6//13 7//15 163//16
f 163//16 7//15 8//17 164//18
f 164//18 8//17 9//19 166//20
f 166//20 9//19 10//21 165//22
f 165//22 10//21 11//23 167//24
f 167//24 11//23 12//25 168//26
f 190//2 188//27 13//28 1//3
f 1//3 13//28 14//29 2//5
f 2//5 14//29 15//30 3//7
f 3//7 15//30 16//31 4//9
f 4//9 16//31 17//32 5//11
f 5//11 17//32 18//33 6//13
f 6//13 18//33 19//34 7//15
f 7//15 19//34 20//35 8//17
f 8//17 20//35 21//36 9//19
f 9//19 21//36 22//37 10//21
f 10//21 22//37 23//38 11//23
f 11//23 23//38 24//39 12//25
f 188//27 183//40 25//41 13//28
f 13//28 25//41 26//42 14//29
f 14//29 26//42 27//43 15//30
f 15//30 27//43 28//44 16//31
f 16//31 28//44 29//45 17//32
f 17//32 29//45 30//46 18//33
f 18//33 30//46 31//47 19//34
f 19//34 31//47 32//48 20//35
f 20//35 32//48 33//49 21//36
f 21//36 33//49 34//50 22//37
f 22//37 34//50 35//51 23//38
f 23//38 35//51 36//52 24//39
f 183//40 184//53 37//54 25//41
f 25//41 37//54 38//55 26//42
f 26//42 38//55 39//56 27//43
f 27//43 39//56 40//57 28//44
f 28//44 40//57 41//58 29//45
f 29//45 41//58 42//59 30//46
f 30//46 42//59 43//60 31//47
f 31//47 43//60 44//61 32//48
f 32//48 44//61 45//62 33//49
f 33//49 45//62 46//63 34//50
f 34//50 46//63 47//64 35//51
f 35//51 47//64 48//65 36//52
f 184//53 187//66 49//67 37//54
f 37//54 49//67 50//68 38//55
f 38//55 50//68 51//69 39//56
f 39//56 51//69 52//70 40//57
f 40//57 52//70 53//71 41//58
f 41//58 53//71 54//72 42//59
f 42//59 54//72 55//73 43//60
f 43//60 55//73 56//74 44//61
f 44//61 56//74 57//75 45//62
f 45//62 57//75 58//76 46//63
f 46//63 58//76 59//77 47//64
f 47//64 59//77 60//78 48//65
f 187//66 192//79 61//80 49//67
f 49//67 61//80 62//81 50//68
f 50//68 62//81 63//82 51//69
f 51//69 63//82 64//83 52//70
f 52//70 64//83 65//84 53//71
f 53//71 65//84 66//85 54//72
f 54//72 66//85 67//86 55//73
f 55//73 67//86 68//87 56//74
f 56//74 68//87 69//88 57//75
f 57//75 69//88 70//89 58//76
f 58//76 70//89 71//90 59//77
f 59//77 71//90 72//91 60//78
f 192//79 189//92 73//93 61//80
f 61//80 73//93 74//94 62//81
f 62//81 74//94 75//95 63//82
f 63//82 75//95 76//96 64//83
f 64//83 76//96 77//97 65//84
f 65//84 77//97 78//98 66//85
f 66//85 78//98 79//99 67//86
f 67//86 79//99 80//100 68//87
f 68//87 80//100 81//101 69//88
f 69//88 81//101 82//102 70//89
f 70//89 82//102 83//103 71//90
f 71//90 83//103 84//104 72//91
f 189//92 182//105 85//106 73//93
f 73//93 85//106 86//107 74//94
f 74//94 86//107 87//108 75//95
f 75//95 87//108 88//109 76//96
f 76//96 88//109 89//110 77//97
f 77//97 89//110 90//111 78//98
f 78//98 90//111 91//112 79//99
f 79//99 91//112 92//113 80//100
f 80//100 92//113 93//114 81//101
f 81//101 93//114 94//115 82//102
f 82//102 94//115 95//116 83//103
f 83//103 95//116 96//117 84//104
f 182//105 185//118 97//119 85//106
f 85//106 97//119 98//120 86//107
f 86//107 98//120 99//121 87//108
f 87//108 99//121 100//122 88//109
f 88//109 100//122 101//123 89//110
f 89//110 101//123 102//124 90//111
f 90//111 102//124 103//125 91//112
f 91//112 103//125 104//126 92//113
f 92//113 104//126 105//127 93//114
f 93//114 105//127 106//128 94//115
f 94//115 106//128 107//129 95//116
f 95//116 107//129 108//130 96//117
f 185//118 186//131 109//132 97//119
f 97//119 109//132 110//133 98//120
f 98//120 110//133 111//134 99//121
f 99//121 111//134 112//135 100//122
f 100//122 112//135 113//136 101//123
f 101//123 113//136 114//137 102//124
f 102//124 114//137 115//138 103//125
f 103//125 115//138 116//139 104//126
f 104//126 116//139 117//140 105//127
f 105//127 117//140 118//141 106//128
f 106//128 118//141 119//142 107//129
f 107//129 119//142 120//143 108//130
f 186//131 193//144 121//145 109//132
f 109//132 121//145 122//146 110//133
f 110//133 122//146 123//147 111//134
f 111//134 123//147 124//148 112//135
f 112//135 124//148 125//149 113//136
f 113//136 125//149 126//150 114//137
f 114//137 126//150 127//151 115//138
f 115//138 127//151 128//152 116//139
f 116//139 128//152 129//153 117//140
f 117//140 129//153 130//154 118//141
f 118//141 130//154 131//155 119//142
f 119//142 131//155 132//156 120//143
f 193//144 191//157 133//158 121//145
f 121//145 133//158 134//159 122//146
f 122//146 134//159 135//160 123//147
f 123//147 135//160 136//161 124//148
f 124//148 136//161 137//162 125//149
f 125//149 137//162 138//163 126//150
f 126//150 138//163 139//164 127//151
f 127//151 139//164 140//165 128//152
f 128//152 140//165 141//166 129//153
f 129//153 141//166 142//167 130//154
f 130//154 142//167 143//168 131//155
f 131//155 143//168 144//169 132//156
f 191//157 181//170 145//171 133//158
f 133//158 145//171 146//172 134//159
f 134//159 146//172 147//173 135//160
f 135//160 147//173 148//174 136//161
f 136//161 148//174 149//175 137//162
f 137//162 149//175 150//176 138//163
f 138//163 150//176 151//177 139//164
f 139//164 151//177 152//178 140//165
f 140//165 152//178 153//179 141//166
f 141//166 153//179 154//180 142//167
f 142//167 154//180 155//181 143//168
f 143//168 155//181 156//182 144//169
f 151//177 169//183 170//184 152//178
f 152//178 170//184 171//185 153//179
f 153//179 171//185 172//186 154//180
f 154//180 172//186 174//187 155//181
f 155//181 174//187 173//188 156//182
f 149//175 175//189 176//190 150//176
f 150//176 176//190 169//183 151//177
f 148//174 177//191 175//189 149//175
f 181//170 195//192 178//193 145//171
f 145//171 178//193 179//194 146//172
f 146//172 179//194 180//195 147//173
f 147//173 180//195 177//191 148//174
f 60//78 72//91 196//196 197//197
f 120//143 132//156 198//198 199//199
f 72//91 84//104 200//200 196//196
f 132//156 144//169 201//201 198//198
f 84//104 96//117 202//202 200//200
f 24//39 36//52 203//203 204//204
f 96//117 108//130 205//205 202//202
f 108//130 120//143 199//199 205//205
f 36//52 48//65 206//206 203//203
f 48//65 60//78 197//197 206//206
f 168//26 12//25 207//207 208//208
f 12//25 24//39 204//204 207//207
f 144//169 156//182 209//209 201//201
f 156//182 173//188 210//210 209//209
