# Blender v2.73 (sub 0) OBJ File: 'untitled.blend'
# www.blender.org
mtllib Landscape.047.mtl
o Landscape.047
v 32.323231 0.032588 125.414139
v 32.323231 0.144151 122.828285
v 32.323231 0.356574 120.242424
v 32.323231 0.614752 117.656563
v 32.323231 0.955262 115.070709
v 32.323231 1.521929 112.484848
v 32.323231 2.183595 109.898987
v 32.323231 2.968045 107.313133
v 32.323231 3.677694 104.727272
v 32.323231 4.448820 102.141411
v 32.323231 5.663745 99.555557
v 32.323231 6.922803 96.969696
v 34.909092 0.031695 125.414139
v 34.909092 0.144327 122.828285
v 34.909092 0.370210 120.242424
v 34.909092 0.665842 117.656563
v 34.909092 1.037858 115.070709
v 34.909092 1.561376 112.484848
v 34.909092 2.286804 109.898987
v 34.909092 3.098070 107.313133
v 34.909092 3.906540 104.727272
v 34.909092 4.924462 102.141411
v 34.909092 5.761118 99.555557
v 34.909092 6.783004 96.969696
v 37.494949 0.032068 125.414139
v 37.494949 0.145327 122.828285
v 37.494949 0.367033 120.242424
v 37.494949 0.649912 117.656563
v 37.494949 1.034070 115.070709
v 37.494949 1.630276 112.484848
v 37.494949 2.380767 109.898987
v 37.494949 3.251298 107.313133
v 37.494949 4.057352 104.727272
v 37.494949 5.049396 102.141411
v 37.494949 6.133260 99.555557
v 37.494949 6.940294 96.969696
v 40.080807 0.032351 125.414139
v 40.080807 0.146370 122.828285
v 40.080807 0.347967 120.242424
v 40.080807 0.620804 117.656563
v 40.080807 0.991410 115.070709
v 40.080807 1.540581 112.484848
v 40.080807 2.364142 109.898987
v 40.080807 3.211932 107.313133
v 40.080807 4.155225 104.727272
v 40.080807 5.211372 102.141411
v 40.080807 6.361605 99.555557
v 40.080807 6.950082 96.969696
v 42.666668 0.030678 125.414139
v 42.666668 0.143213 122.828285
v 42.666668 0.335148 120.242424
v 42.666668 0.591465 117.656563
v 42.666668 0.961434 115.070709
v 42.666668 1.567234 112.484848
v 42.666668 2.374451 109.898987
v 42.666668 3.238164 107.313133
v 42.666668 4.409124 104.727272
v 42.666668 5.548352 102.141411
v 42.666668 6.268736 99.555557
v 42.666668 7.308536 96.969696
v 45.252525 0.027060 125.414139
v 45.252525 0.141006 122.828285
v 45.252525 0.345165 120.242424
v 45.252525 0.634062 117.656563
v 45.252525 1.015863 115.070709
v 45.252525 1.492054 112.484848
v 45.252525 2.357842 109.898987
v 45.252525 3.418956 107.313133
v 45.252525 4.514018 104.727272
v 45.252525 5.425195 102.141411
v 45.252525 6.529105 99.555557
v 45.252525 7.610366 96.969696
v 47.838383 0.023816 125.414139
v 47.838383 0.134322 122.828285
v 47.838383 0.353361 120.242424
v 47.838383 0.640206 117.656563
v 47.838383 0.984704 115.070709
v 47.838383 1.540315 112.484848
v 47.838383 2.300942 109.898987
v 47.838383 3.392379 107.313133
v 47.838383 4.687622 104.727272
v 47.838383 5.704672 102.141411
v 47.838383 6.802623 99.555557
v 47.838383 7.670488 96.969696
v 50.424244 0.021468 125.414139
v 50.424244 0.130743 122.828285
v 50.424244 0.347077 120.242424
v 50.424244 0.619114 117.656563
v 50.424244 0.966084 115.070709
v 50.424244 1.487321 112.484848
v 50.424244 2.263901 109.898987
v 50.424244 3.204427 107.313133
v 50.424244 4.458603 104.727272
v 50.424244 5.704154 102.141411
v 50.424244 6.888701 99.555557
v 50.424244 7.631535 96.969696
v 53.010101 0.017146 125.414139
v 53.010101 0.121237 122.828285
v 53.010101 0.315671 120.242424
v 53.010101 0.582990 117.656563
v 53.010101 0.931554 115.070709
v 53.010101 1.448412 112.484848
v 53.010101 2.099728 109.898987
v 53.010101 3.102149 107.313133
v 53.010101 4.099461 104.727272
v 53.010101 5.208780 102.141411
v 53.010101 6.290402 99.555557
v 53.010101 7.055484 96.969696
v 55.595959 0.012729 125.414139
v 55.595959 0.101343 122.828285
v 55.595959 0.274731 120.242424
v 55.595959 0.526348 117.656563
v 55.595959 0.862358 115.070709
v 55.595959 1.328963 112.484848
v 55.595959 1.972035 109.898987
v 55.595959 2.852637 107.313133
v 55.595959 3.680600 104.727272
v 55.595959 4.556923 102.141411
v 55.595959 5.688378 99.555557
v 55.595959 6.281887 96.969696
v 58.181820 0.009160 125.414139
v 58.181820 0.091666 122.828285
v 58.181820 0.256431 120.242424
v 58.181820 0.470337 117.656563
v 58.181820 0.801415 115.070709
v 58.181820 1.206334 112.484848
v 58.181820 1.782473 109.898987
v 58.181820 2.470132 107.313133
v 58.181820 3.146811 104.727272
v 58.181820 4.026563 102.141411
v 58.181820 5.002919 99.555557
v 58.181820 5.651087 96.969696
v 60.767677 0.005423 125.414139
v 60.767677 0.081059 122.828285
v 60.767677 0.230694 120.242424
v 60.767677 0.433780 117.656563
v 60.767677 0.727206 115.070709
v 60.767677 1.114501 112.484848
v 60.767677 1.601282 109.898987
v 60.767677 2.199658 107.313133
v 60.767677 2.826930 104.727272
v 60.767677 3.701325 102.141411
v 60.767677 4.480618 99.555557
v 60.767677 5.120915 96.969696
v 63.353535 0.002479 125.414139
v 63.353535 0.065232 122.828285
v 63.353535 0.205682 120.242424
v 63.353535 0.408865 117.656563
v 63.353535 0.706798 115.070709
v 63.353535 1.038294 112.484848
v 63.353535 1.486034 109.898987
v 63.353535 2.000374 107.313133
v 63.353535 2.469012 104.727272
v 63.353535 3.119703 102.141411
v 63.353535 3.807688 99.555557
v 63.353535 4.664308 96.969696
v 32.000000 0.609492 117.656563
v 32.000000 0.353418 120.242424
v 32.000000 0.032612 125.414139
v 32.000000 5.635983 99.555557
v 32.000000 6.854411 96.969696
v 32.000000 4.410799 102.141411
v 32.000000 3.627508 104.727272
v 32.000000 2.928558 107.313133
v 32.000000 2.160186 109.898987
v 32.000000 0.943178 115.070709
v 32.000000 1.498902 112.484848
v 32.000000 0.144089 122.828285
v 64.000000 0.199870 120.242424
v 64.000000 0.402490 117.656563
v 64.000000 0.001978 125.414139
v 64.000000 0.062398 122.828285
v 64.000000 1.458618 109.898987
v 64.000000 1.943777 107.313133
v 64.000000 0.689544 115.070709
v 64.000000 1.024086 112.484848
v 64.000000 2.377981 104.727272
v 64.000000 4.553895 96.969696
v 64.000000 3.690243 99.555557
v 64.000000 2.988253 102.141411
v 58.181820 0.000000 128.000000
v 34.909092 0.000000 128.000000
v 47.838383 0.000000 128.000000
v 32.323231 0.000000 128.000000
v 60.767677 0.000000 128.000000
v 45.252525 0.000000 128.000000
v 55.595959 0.000000 128.000000
v 50.424244 0.000000 128.000000
v 42.666668 0.000000 128.000000
v 63.353535 0.000000 128.000000
v 37.494949 0.000000 128.000000
v 53.010101 0.000000 128.000000
v 40.080807 0.000000 128.000000
v 32.000000 0.000000 128.000000
v 64.000000 0.000000 128.000000
v 32.323231 7.282458 96.000000
v 32.000000 7.214870 96.000000
v 34.909092 7.292200 96.000000
v 64.000000 4.809692 96.000000
v 63.353535 4.922474 96.000000
v 50.424244 7.910179 96.000000
v 47.838383 7.965635 96.000000
v 60.767677 5.379968 96.000000
v 37.494949 7.279930 96.000000
v 40.080807 7.386419 96.000000
v 58.181820 5.924284 96.000000
v 55.595959 6.692037 96.000000
v 42.666668 7.740333 96.000000
v 53.010101 7.428267 96.000000
v 45.252525 8.076488 96.000000
vn 0.000000 0.999900 0.012600
vn 0.000100 0.999900 0.012500
vn 0.000100 0.999600 0.027800
vn -0.000000 0.999600 0.027800
vn -0.001900 0.998000 0.063000
vn -0.002500 0.998100 0.062200
vn -0.008200 0.995600 0.092800
vn -0.009000 0.995900 0.090100
vn -0.019400 0.992800 0.117800
vn -0.019800 0.993300 0.114100
vn -0.032100 0.984700 0.171100
vn -0.039800 0.984600 0.170500
vn -0.043100 0.971900 0.231200
vn -0.061100 0.971400 0.229400
vn -0.058000 0.960500 0.272000
vn -0.081000 0.960400 0.266600
vn -0.083900 0.956100 0.280600
vn -0.112300 0.955200 0.273700
vn -0.113900 0.950800 0.288000
vn -0.131200 0.953100 0.272600
vn -0.113000 0.929300 0.351400
vn -0.111400 0.928500 0.354300
vn -0.080500 0.910100 0.406500
vn -0.111800 0.897500 0.426600
vn -0.074900 0.915000 0.396300
vn -0.161900 0.907500 0.387600
vn 0.000100 0.999900 0.012400
vn 0.000000 0.999600 0.027900
vn -0.000600 0.997900 0.064400
vn -0.002700 0.995300 0.097100
vn -0.007600 0.992200 0.124700
vn -0.014300 0.984500 0.174900
vn -0.023000 0.971000 0.237800
vn -0.036300 0.958000 0.284200
vn -0.052700 0.953900 0.295500
vn -0.075400 0.945600 0.316400
vn -0.092000 0.932000 0.350500
vn -0.069900 0.929200 0.363000
vn -0.023200 0.922000 0.386500
vn -0.000100 0.999900 0.012400
vn -0.000200 0.999600 0.028100
vn 0.000800 0.998000 0.063800
vn 0.004200 0.995300 0.096400
vn 0.007600 0.991900 0.126800
vn 0.007500 0.983700 0.179400
vn 0.000500 0.968600 0.248700
vn -0.011400 0.954600 0.297600
vn -0.025500 0.950200 0.310600
vn -0.040700 0.940500 0.337200
vn -0.063800 0.927600 0.367900
vn -0.075000 0.939300 0.334600
vn -0.046600 0.938500 0.342000
vn 0.000100 0.999900 0.012300
vn 0.000200 0.999600 0.028100
vn 0.001800 0.998100 0.061300
vn 0.006000 0.995800 0.091500
vn 0.010600 0.992200 0.123700
vn 0.012700 0.983500 0.180200
vn 0.009600 0.966500 0.256600
vn 0.004100 0.952200 0.305300
vn -0.014300 0.943100 0.332100
vn -0.052800 0.929900 0.364100
vn -0.066800 0.925100 0.373700
vn -0.051600 0.944700 0.323700
vn -0.059200 0.940600 0.334300
vn 0.000500 0.999900 0.011700
vn 0.000800 0.999600 0.027700
vn 0.000900 0.998200 0.059900
vn -0.000100 0.995900 0.089700
vn -0.002300 0.992400 0.123100
vn -0.000700 0.984200 0.177100
vn 0.003700 0.966100 0.258200
vn -0.006600 0.948100 0.317900
vn -0.034200 0.932100 0.360500
vn -0.051000 0.921700 0.384400
vn -0.042300 0.933000 0.357300
vn -0.054200 0.939700 0.337500
vn -0.096900 0.921400 0.376300
vn 0.000700 0.999900 0.010500
vn 0.001100 0.999600 0.027000
vn 0.000300 0.998100 0.061300
vn -0.003700 0.995600 0.093400
vn -0.006700 0.992200 0.124600
vn -0.003200 0.985300 0.171000
vn 0.004800 0.967700 0.252200
vn 0.000900 0.942000 0.335500
vn -0.022900 0.921000 0.388800
vn -0.038400 0.922200 0.384800
vn -0.050200 0.931600 0.360000
vn -0.071600 0.928700 0.363800
vn -0.065900 0.923000 0.379000
vn 0.000500 1.000000 0.009300
vn 0.001000 0.999600 0.026100
vn 0.001200 0.998000 0.062800
vn 0.001000 0.995400 0.095900
vn 0.003700 0.992500 0.122400
vn 0.005700 0.985800 0.167900
vn 0.007100 0.969100 0.246500
vn 0.018400 0.942400 0.333900
vn 0.025600 0.914700 0.403300
vn 0.000800 0.915300 0.402700
vn -0.038700 0.921400 0.386500
vn -0.045300 0.931300 0.361300
vn -0.010500 0.945600 0.325000
vn 0.000600 1.000000 0.008100
vn 0.001300 0.999700 0.025000
vn 0.003400 0.998100 0.061700
vn 0.007000 0.995600 0.093500
vn 0.009800 0.992800 0.119200
vn 0.012100 0.985900 0.166700
vn 0.020500 0.971000 0.238000
vn 0.035800 0.947600 0.317400
vn 0.060500 0.919200 0.388900
vn 0.086600 0.906600 0.413000
vn 0.091900 0.910500 0.403200
vn 0.095400 0.934400 0.343100
vn 0.103300 0.950300 0.293600
vn 0.000800 1.000000 0.006600
vn 0.002300 0.999700 0.022900
vn 0.006700 0.998300 0.057100
vn 0.012800 0.996000 0.088400
vn 0.017300 0.993000 0.117000
vn 0.021900 0.986500 0.162100
vn 0.033500 0.974200 0.223200
vn 0.050300 0.952400 0.300600
vn 0.080000 0.931300 0.355300
vn 0.135600 0.917800 0.373100
vn 0.186600 0.903500 0.385800
vn 0.218000 0.920200 0.325100
vn 0.229400 0.925900 0.300100
vn 0.000800 1.000000 0.005000
vn 0.002200 0.999800 0.020100
vn 0.006100 0.998600 0.051600
vn 0.012500 0.996600 0.081400
vn 0.019900 0.993500 0.112200
vn 0.029300 0.987800 0.153000
vn 0.044000 0.977500 0.206200
vn 0.069900 0.958700 0.275700
vn 0.115900 0.943900 0.309200
vn 0.167200 0.932900 0.318800
vn 0.202800 0.912500 0.355300
vn 0.230600 0.923300 0.307100
vn 0.249700 0.924300 0.288800
vn 0.000700 1.000000 0.003500
vn 0.001700 0.999800 0.017700
vn 0.004400 0.998800 0.047400
vn 0.009700 0.997200 0.074000
vn 0.017500 0.994400 0.104400
vn 0.027600 0.989600 0.141300
vn 0.044300 0.981400 0.186900
vn 0.075000 0.967900 0.239900
vn 0.116700 0.957900 0.262100
vn 0.146400 0.946200 0.288600
vn 0.168800 0.928800 0.330000
vn 0.200700 0.935900 0.289300
vn 0.219500 0.940100 0.260800
vn 0.000600 1.000000 0.002200
vn 0.001900 0.999900 0.015400
vn 0.005300 0.999000 0.043500
vn 0.009100 0.997600 0.068800
vn 0.012900 0.995100 0.098000
vn 0.020000 0.991200 0.130600
vn 0.034500 0.985400 0.167000
vn 0.057900 0.976500 0.207300
vn 0.089700 0.970200 0.224900
vn 0.126500 0.956700 0.262000
vn 0.167900 0.940500 0.295500
vn 0.194400 0.941800 0.274100
vn 0.190700 0.947800 0.255400
vn 0.000500 1.000000 0.001200
vn 0.001800 0.999900 0.013200
vn 0.005200 0.999200 0.040000
vn 0.008400 0.997700 0.066500
vn 0.011400 0.995300 0.095600
vn 0.017400 0.992200 0.122800
vn 0.027700 0.987900 0.152800
vn 0.047800 0.981300 0.186300
vn 0.084900 0.977300 0.194100
vn 0.138400 0.965000 0.222500
vn 0.186300 0.947800 0.258700
vn 0.195200 0.940900 0.276700
vn 0.176200 0.945900 0.272300
vn 0.008000 0.997800 0.065900
vn 0.013800 0.995400 0.095300
vn 0.001500 0.999900 0.012300
vn 0.004600 0.999200 0.038700
vn 0.000400 1.000000 0.000900
vn 0.047600 0.982700 0.178700
vn 0.087500 0.979700 0.180300
vn 0.021100 0.992500 0.120000
vn 0.027900 0.988600 0.147900
vn 0.138000 0.969600 0.201900
vn 0.174200 0.943300 0.282400
vn 0.164800 0.944800 0.283000
vn 0.173600 0.954100 0.244100
vn -0.083200 0.921900 0.378400
vn -0.193500 0.919700 0.341500
vn -0.001400 0.914400 0.404900
vn 0.164600 0.953400 0.252700
vn 0.166500 0.952900 0.253400
vn 0.102800 0.948700 0.299000
vn 0.013300 0.945600 0.325100
vn 0.182900 0.949000 0.256900
vn -0.023300 0.922200 0.386100
vn -0.074100 0.918100 0.389400
vn 0.223100 0.929900 0.292300
vn 0.254800 0.904100 0.343100
vn -0.117800 0.903700 0.411700
vn 0.224200 0.914800 0.336000
vn -0.050400 0.918600 0.392000
usemtl None
s 1
f 194//1 184//2 1//3 159//4
f 159//4 1//3 2//5 168//6
f 168//6 2//5 3//7 158//8
f 158//8 3//7 4//9 157//10
f 157//10 4//9 5//11 166//12
f 166//12 5//11 6//13 167//14
f 167//14 6//13 7//15 165//16
f 165//16 7//15 8//17 164//18
f 164//18 8//17 9//19 163//20
f 163//20 9//19 10//21 162//22
f 162//22 10//21 11//23 160//24
f 160//24 11//23 12//25 161//26
f 184//2 182//27 13//28 1//3
f 1//3 13//28 14//29 2//5
f 2//5 14//29 15//30 3//7
f 3//7 15//30 16//31 4//9
f 4//9 16//31 17//32 5//11
f 5//11 17//32 18//33 6//13
f 6//13 18//33 19//34 7//15
f 7//15 19//34 20//35 8//17
f 8//17 20//35 21//36 9//19
f 9//19 21//36 22//37 10//21
f 10//21 22//37 23//38 11//23
f 11//23 23//38 24//39 12//25
f 182//27 191//40 25//41 13//28
f 13//28 25//41 26//42 14//29
f 14//29 26//42 27//43 15//30
f 15//30 27//43 28//44 16//31
f 16//31 28//44 29//45 17//32
f 17//32 29//45 30//46 18//33
f 18//33 30//46 31//47 19//34
f 19//34 31//47 32//48 20//35
f 20//35 32//48 33//49 21//36
f 21//36 33//49 34//50 22//37
f 22//37 34//50 35//51 23//38
f 23//38 35//51 36//52 24//39
f 191//40 193//53 37//54 25//41
f 25//41 37//54 38//55 26//42
f 26//42 38//55 39//56 27//43
f 27//43 39//56 40//57 28//44
f 28//44 40//57 41//58 29//45
f 29//45 41//58 42//59 30//46
f 30//46 42//59 43//60 31//47
f 31//47 43//60 44//61 32//48
f 32//48 44//61 45//62 33//49
f 33//49 45//62 46//63 34//50
f 34//50 46//63 47//64 35//51
f 35//51 47//64 48//65 36//52
f 193//53 189//66 49//67 37//54
f 37//54 49//67 50//68 38//55
f 38//55 50//68 51//69 39//56
f 39//56 51//69 52//70 40//57
f 40//57 52//70 53//71 41//58
f 41//58 53//71 54//72 42//59
f 42//59 54//72 55//73 43//60
f 43//60 55//73 56//74 44//61
f 44//61 56//74 57//75 45//62
f 45//62 57//75 58//76 46//63
f 46//63 58//76 59//77 47//64
f 47//64 59//77 60//78 48//65
f 189//66 186//79 61//80 49//67
f 49//67 61//80 62//81 50//68
f 50//68 62//81 63//82 51//69
f 51//69 63//82 64//83 52//70
f 52//70 64//83 65//84 53//71
f 53//71 65//84 66//85 54//72
f 54//72 66//85 67//86 55//73
f 55//73 67//86 68//87 56//74
f 56//74 68//87 69//88 57//75
f 57//75 69//88 70//89 58//76
f 58//76 70//89 71//90 59//77
f 59//77 71//90 72//91 60//78
f 186//79 183//92 73//93 61//80
f 61//80 73//93 74//94 62//81
f 62//81 74//94 75//95 63//82
f 63//82 75//95 76//96 64//83
f 64//83 76//96 77//97 65//84
f 65//84 77//97 78//98 66//85
f 66//85 78//98 79//99 67//86
f 67//86 79//99 80//100 68//87
f 68//87 80//100 81//101 69//88
f 69//88 81//101 82//102 70//89
f 70//89 82//102 83//103 71//90
f 71//90 83//103 84//104 72//91
f 183//92 188//105 85//106 73//93
f 73//93 85//106 86//107 74//94
f 74//94 86//107 87//108 75//95
f 75//95 87//108 88//109 76//96
f 76//96 88//109 89//110 77//97
f 77//97 89//110 90//111 78//98
f 78//98 90//111 91//112 79//99
f 79//99 91//112 92//113 80//100
f 80//100 92//113 93//114 81//101
f 81//101 93//114 94//115 82//102
f 82//102 94//115 95//116 83//103
f 83//103 95//116 96//117 84//104
f 188//105 192//118 97//119 85//106
f 85//106 97//119 98//120 86//107
f 86//107 98//120 99//121 87//108
f 87//108 99//121 100//122 88//109
f 88//109 100//122 101//123 89//110
f 89//110 101//123 102//124 90//111
f 90//111 102//124 103//125 91//112
f 91//112 103//125 104//126 92//113
f 92//113 104//126 105//127 93//114
f 93//114 105//127 106//128 94//115
f 94//115 106//128 107//129 95//116
f 95//116 107//129 108//130 96//117
f 192//118 187//131 109//132 97//119
f 97//119 109//132 110//133 98//120
f 98//120 110//133 111//134 99//121
f 99//121 111//134 112//135 100//122
f 100//122 112//135 113//136 101//123
f 101//123 113//136 114//137 102//124
f 102//124 114//137 115//138 103//125
f 103//125 115//138 116//139 104//126
f 104//126 116//139 117//140 105//127
f 105//127 117//140 118//141 106//128
f 106//128 118//141 119//142 107//129
f 107//129 119//142 120//143 108//130
f 187//131 181//144 121//145 109//132
f 109//132 121//145 122//146 110//133
f 110//133 122//146 123//147 111//134
f 111//134 123//147 124//148 112//135
f 112//135 124//148 125//149 113//136
f 113//136 125//149 126//150 114//137
f 114//137 126//150 127//151 115//138
f 115//138 127//151 128//152 116//139
f 116//139 128//152 129//153 117//140
f 117//140 129//153 130//154 118//141
f 118//141 130//154 131//155 119//142
f 119//142 131//155 132//156 120//143
f 181//144 185//157 133//158 121//145
f 121//145 133//158 134//159 122//146
f 122//146 134//159 135//160 123//147
f 123//147 135//160 136//161 124//148
f 124//148 136//161 137//162 125//149
f 125//149 137//162 138//163 126//150
f 126//150 138//163 139//164 127//151
f 127//151 139//164 140//165 128//152
f 128//152 140//165 141//166 129//153
f 129//153 141//166 142//167 130//154
f 130//154 142//167 143//168 131//155
f 131//155 143//168 144//169 132//156
f 185//157 190//170 145//171 133//158
f 133//158 145//171 146//172 134//159
f 134//159 146//172 147//173 135//160
f 135//160 147//173 148//174 136//161
f 136//161 148//174 149//175 137//162
f 137//162 149//175 150//176 138//163
f 138//163 150//176 151//177 139//164
f 139//164 151//177 152//178 140//165
f 140//165 152//178 153//179 141//166
f 141//166 153//179 154//180 142//167
f 142//167 154//180 155//181 143//168
f 143//168 155//181 156//182 144//169
f 147//173 169//183 170//184 148//174
f 145//171 171//185 172//186 146//172
f 146//172 172//186 169//183 147//173
f 190//170 195//187 171//185 145//171
f 151//177 173//188 174//189 152//178
f 148//174 170//184 175//190 149//175
f 149//175 175//190 176//191 150//176
f 150//176 176//191 173//188 151//177
f 152//178 174//189 177//192 153//179
f 155//181 179//193 178//194 156//182
f 153//179 177//192 180//195 154//180
f 154//180 180//195 179//193 155//181
f 161//26 12//25 196//196 197//197
f 12//25 24//39 198//198 196//196
f 156//182 178//194 199//199 200//200
f 84//104 96//117 201//201 202//202
f 144//169 156//182 200//200 203//203
f 24//39 36//52 204//204 198//198
f 36//52 48//65 205//205 204//204
f 120//143 132//156 206//206 207//207
f 132//156 144//169 203//203 206//206
f 48//65 60//78 208//208 205//205
f 96//117 108//130 209//209 201//201
f 108//130 120//143 207//207 209//209
f 60//78 72//91 210//210 208//208
f 72//91 84//104 202//202 210//210
