# Blender v2.73 (sub 0) OBJ File: 'untitled.blend'
# www.blender.org
mtllib Landscape.004.mtl
o Landscape.004
v -128.000000 0.000000 63.353535
v -128.000000 0.000000 60.767677
v -128.000000 0.000000 58.181820
v -128.000000 0.000000 55.595959
v -128.000000 0.000000 53.010101
v -128.000000 0.000000 50.424244
v -128.000000 0.000000 47.838383
v -128.000000 0.000000 45.252525
v -128.000000 0.000000 42.666668
v -128.000000 0.000000 40.080807
v -128.000000 0.000000 37.494949
v -128.000000 0.000000 34.909092
v -128.000000 0.000000 32.323231
v -125.414139 0.003277 63.353535
v -125.414139 0.008175 60.767677
v -125.414139 0.014188 58.181820
v -125.414139 0.022754 55.595959
v -125.414139 0.030710 53.010101
v -125.414139 0.041903 50.424244
v -125.414139 0.052357 47.838383
v -125.414139 0.062869 45.252525
v -125.414139 0.074216 42.666668
v -125.414139 0.074888 40.080807
v -125.414139 0.072256 37.494949
v -125.414139 0.071050 34.909092
v -125.414139 0.067505 32.323231
v -122.828285 0.080496 63.353535
v -122.828285 0.106302 60.767677
v -122.828285 0.135063 58.181820
v -122.828285 0.169728 55.595959
v -122.828285 0.202269 53.010101
v -122.828285 0.234066 50.424244
v -122.828285 0.256153 47.838383
v -122.828285 0.279468 45.252525
v -122.828285 0.308840 42.666668
v -122.828285 0.297492 40.080807
v -122.828285 0.278244 37.494949
v -122.828285 0.278808 34.909092
v -122.828285 0.262731 32.323231
v -120.242424 0.266530 63.353535
v -120.242424 0.319700 60.767677
v -120.242424 0.384662 58.181820
v -120.242424 0.432714 55.595959
v -120.242424 0.491354 53.010101
v -120.242424 0.567437 50.424244
v -120.242424 0.592513 47.838383
v -120.242424 0.594408 45.252525
v -120.242424 0.625939 42.666668
v -120.242424 0.624317 40.080807
v -120.242424 0.580321 37.494949
v -120.242424 0.547349 34.909092
v -120.242424 0.510857 32.323231
v -117.656563 0.546603 63.353535
v -117.656563 0.644873 60.767677
v -117.656563 0.726427 58.181820
v -117.656563 0.843885 55.595959
v -117.656563 0.903837 53.010101
v -117.656563 0.923443 50.424244
v -117.656563 0.985045 47.838383
v -117.656563 0.995838 45.252525
v -117.656563 0.995039 42.666668
v -117.656563 1.033372 40.080807
v -117.656563 0.965866 37.494949
v -117.656563 0.893307 34.909092
v -117.656563 0.867892 32.323231
v -115.070709 0.820552 63.353535
v -115.070709 0.990531 60.767677
v -115.070709 1.155908 58.181820
v -115.070709 1.277259 55.595959
v -115.070709 1.346440 53.010101
v -115.070709 1.336977 50.424244
v -115.070709 1.358117 47.838383
v -115.070709 1.470208 45.252525
v -115.070709 1.475619 42.666668
v -115.070709 1.501693 40.080807
v -115.070709 1.408710 37.494949
v -115.070709 1.326110 34.909092
v -115.070709 1.231568 32.323231
v -112.484848 1.171360 63.353535
v -112.484848 1.375030 60.767677
v -112.484848 1.488640 58.181820
v -112.484848 1.619084 55.595959
v -112.484848 1.663908 53.010101
v -112.484848 1.677093 50.424244
v -112.484848 1.813982 47.838383
v -112.484848 1.881042 45.252525
v -112.484848 1.924575 42.666668
v -112.484848 1.874733 40.080807
v -112.484848 1.809907 37.494949
v -112.484848 1.694434 34.909092
v -112.484848 1.577649 32.323231
v -109.898987 1.421764 63.353535
v -109.898987 1.589043 60.767677
v -109.898987 1.727262 58.181820
v -109.898987 1.799643 55.595959
v -109.898987 1.899595 53.010101
v -109.898987 2.034022 50.424244
v -109.898987 2.134774 47.838383
v -109.898987 2.218819 45.252525
v -109.898987 2.223959 42.666668
v -109.898987 2.272314 40.080807
v -109.898987 2.193341 37.494949
v -109.898987 2.106783 34.909092
v -109.898987 2.039626 32.323231
v -107.313133 1.650221 63.353535
v -107.313133 1.776059 60.767677
v -107.313133 1.968464 58.181820
v -107.313133 1.969770 55.595959
v -107.313133 2.087838 53.010101
v -107.313133 2.273304 50.424244
v -107.313133 2.300044 47.838383
v -107.313133 2.533625 45.252525
v -107.313133 2.576396 42.666668
v -107.313133 2.488703 40.080807
v -107.313133 2.547053 37.494949
v -107.313133 2.542823 34.909092
v -107.313133 2.549988 32.323231
v -104.727272 1.816683 63.353535
v -104.727272 1.957666 60.767677
v -104.727272 2.057477 58.181820
v -104.727272 2.158230 55.595959
v -104.727272 2.213040 53.010101
v -104.727272 2.353658 50.424244
v -104.727272 2.590169 47.838383
v -104.727272 2.749483 45.252525
v -104.727272 2.891565 42.666668
v -104.727272 2.765633 40.080807
v -104.727272 2.794727 37.494949
v -104.727272 2.980848 34.909092
v -104.727272 3.214880 32.323231
v -102.141411 1.979098 63.353535
v -102.141411 2.168654 60.767677
v -102.141411 2.247419 58.181820
v -102.141411 2.407662 55.595959
v -102.141411 2.383263 53.010101
v -102.141411 2.446903 50.424244
v -102.141411 2.831482 47.838383
v -102.141411 3.148990 45.252525
v -102.141411 3.256052 42.666668
v -102.141411 3.202791 40.080807
v -102.141411 3.448660 37.494949
v -102.141411 3.624272 34.909092
v -102.141411 4.064057 32.323231
v -99.555557 2.159192 63.353535
v -99.555557 2.412748 60.767677
v -99.555557 2.498175 58.181820
v -99.555557 2.633796 55.595959
v -99.555557 2.785603 53.010101
v -99.555557 2.923032 50.424244
v -99.555557 3.168844 47.838383
v -99.555557 3.493334 45.252525
v -99.555557 3.487347 42.666668
v -99.555557 3.766243 40.080807
v -99.555557 3.895289 37.494949
v -99.555557 4.304562 34.909092
v -99.555557 4.899148 32.323231
v -96.969696 2.559092 63.353535
v -96.969696 2.856013 60.767677
v -96.969696 2.978374 58.181820
v -96.969696 2.946013 55.595959
v -96.969696 3.051835 53.010101
v -96.969696 3.145949 50.424244
v -96.969696 3.559804 47.838383
v -96.969696 3.974026 45.252525
v -96.969696 4.284597 42.666668
v -96.969696 4.441865 40.080807
v -96.969696 4.629123 37.494949
v -96.969696 5.113655 34.909092
v -96.969696 5.668555 32.323231
v -96.000000 3.684734 47.838383
v -96.000000 4.188226 45.252525
v -96.000000 3.342591 50.424244
v -96.000000 3.236747 53.010101
v -96.000000 4.658258 42.666668
v -96.000000 4.849985 40.080807
v -96.000000 6.099922 32.323231
v -96.000000 4.949440 37.494949
v -96.000000 5.458929 34.909092
v -96.000000 2.738610 63.353535
v -96.000000 3.087935 60.767677
v -96.000000 3.181917 58.181820
v -96.000000 3.168247 55.595959
v -96.969696 2.527096 64.000000
v -122.828285 0.076223 64.000000
v -128.000000 0.000000 64.000000
v -125.414139 0.002619 64.000000
v -107.313133 1.635088 64.000000
v -99.555557 2.143699 64.000000
v -120.242424 0.254541 64.000000
v -112.484848 1.140507 64.000000
v -102.141411 1.951249 64.000000
v -117.656563 0.531954 64.000000
v -115.070709 0.804043 64.000000
v -104.727272 1.792073 64.000000
v -109.898987 1.399268 64.000000
v -96.000000 2.694711 64.000000
v -117.656563 0.866596 32.000000
v -120.242424 0.513978 32.000000
v -102.141411 4.094801 32.000000
v -104.727272 3.223186 32.000000
v -107.313133 2.557496 32.000000
v -96.000000 6.126322 32.000000
v -96.969696 5.700697 32.000000
v -125.414139 0.067630 32.000000
v -128.000000 0.000000 32.000000
v -115.070709 1.229077 32.000000
v -112.484848 1.577098 32.000000
v -99.555557 4.943952 32.000000
v -109.898987 2.035123 32.000000
v -122.828285 0.262021 32.000000
vn -0.001100 1.000000 0.000500
vn -0.015100 0.999900 0.002200
vn -0.016600 0.999800 0.002800
vn -0.001700 1.000000 0.000700
vn -0.020700 0.999800 0.003700
vn -0.003300 1.000000 0.001100
vn -0.026400 0.999600 0.004500
vn -0.005700 1.000000 0.001400
vn -0.032700 0.999500 0.004800
vn -0.008700 1.000000 0.001600
vn -0.039000 0.999200 0.004900
vn -0.012200 0.999900 0.001900
vn -0.044700 0.999000 0.004700
vn -0.016100 0.999900 0.002100
vn -0.049500 0.998700 0.004200
vn -0.020200 0.999800 0.002000
vn -0.054200 0.998500 0.004600
vn -0.024400 0.999700 0.002100
vn -0.057600 0.998300 0.002000
vn -0.027700 0.999600 0.001200
vn -0.057000 0.998400 -0.001600
vn -0.028600 0.999600 -0.000200
vn -0.054600 0.998500 -0.001300
vn -0.028100 0.999600 -0.000400
vn -0.053000 0.998600 -0.001200
vn -0.027200 0.999600 -0.000500
vn -0.051400 0.998700 -0.001300
vn -0.026500 0.999700 -0.000200
vn -0.049700 0.998700 0.008200
vn -0.052600 0.998600 0.009400
vn -0.060600 0.998100 0.011500
vn -0.070500 0.997400 0.012200
vn -0.079500 0.996700 0.012400
vn -0.089300 0.995900 0.013600
vn -0.098600 0.995100 0.011100
vn -0.102700 0.994700 0.006700
vn -0.103500 0.994600 0.007700
vn -0.105000 0.994400 0.003700
vn -0.103700 0.994600 -0.005200
vn -0.098200 0.995100 -0.005700
vn -0.091600 0.995800 -0.005000
vn -0.087100 0.996200 -0.002700
vn -0.088700 0.995900 0.016500
vn -0.092700 0.995500 0.019300
vn -0.102500 0.994400 0.022600
vn -0.114900 0.993100 0.023400
vn -0.126500 0.991700 0.021900
vn -0.132500 0.991000 0.019800
vn -0.134500 0.990800 0.016100
vn -0.137100 0.990500 0.008200
vn -0.136300 0.990600 0.006200
vn -0.135300 0.990800 0.005500
vn -0.136200 0.990600 -0.007200
vn -0.130600 0.991300 -0.015000
vn -0.120900 0.992600 -0.012100
vn -0.116600 0.993200 -0.003800
vn -0.106100 0.994100 0.022200
vn -0.111800 0.993200 0.031200
vn -0.127700 0.991000 0.038900
vn -0.146100 0.988500 0.038100
vn -0.158100 0.986900 0.031100
vn -0.158600 0.987200 0.016900
vn -0.150900 0.988400 0.013200
vn -0.151700 0.988300 0.014600
vn -0.160600 0.987000 0.008100
vn -0.164600 0.986300 0.006500
vn -0.163700 0.986400 -0.008100
vn -0.158000 0.987100 -0.025400
vn -0.148400 0.988700 -0.021100
vn -0.140400 0.990000 -0.009400
vn -0.118300 0.992500 0.030100
vn -0.124000 0.991200 0.045700
vn -0.136100 0.989100 0.055800
vn -0.144700 0.988300 0.048600
vn -0.146800 0.988500 0.035000
vn -0.145700 0.989200 0.012300
vn -0.148000 0.988900 0.012100
vn -0.157300 0.987200 0.025900
vn -0.168100 0.985600 0.016900
vn -0.170800 0.985300 0.004500
vn -0.164700 0.986200 -0.013200
vn -0.158800 0.986800 -0.032000
vn -0.150700 0.988000 -0.032700
vn -0.140300 0.989900 -0.018400
vn -0.114800 0.992600 0.038700
vn -0.114900 0.991900 0.055000
vn -0.113500 0.991600 0.061100
vn -0.108600 0.993000 0.047300
vn -0.104100 0.994000 0.034200
vn -0.111600 0.993500 0.019700
vn -0.130500 0.991100 0.026200
vn -0.143300 0.989000 0.034700
vn -0.144400 0.989300 0.020400
vn -0.144200 0.989500 0.003400
vn -0.146900 0.989000 -0.015600
vn -0.149100 0.988300 -0.033500
vn -0.150600 0.987900 -0.038000
vn -0.152900 0.988000 -0.021900
vn -0.093600 0.995000 0.035000
vn -0.089100 0.994800 0.049400
vn -0.084600 0.994600 0.059900
vn -0.082400 0.995700 0.041400
vn -0.077300 0.996500 0.030800
vn -0.086300 0.995500 0.039900
vn -0.101000 0.994100 0.040000
vn -0.106600 0.993500 0.040000
vn -0.117200 0.992700 0.027200
vn -0.123300 0.992300 0.002700
vn -0.125400 0.992000 -0.009800
vn -0.140500 0.989800 -0.021800
vn -0.162400 0.986400 -0.025600
vn -0.179400 0.983700 -0.012400
vn -0.075900 0.996700 0.029800
vn -0.074700 0.996300 0.041900
vn -0.070400 0.995900 0.056900
vn -0.066800 0.997000 0.038400
vn -0.065600 0.997500 0.027300
vn -0.062900 0.996800 0.049900
vn -0.067800 0.996400 0.049900
vn -0.084700 0.995000 0.052900
vn -0.104900 0.993400 0.045300
vn -0.113300 0.993600 -0.000900
vn -0.108400 0.994000 -0.008900
vn -0.123200 0.992300 0.007600
vn -0.167800 0.985700 0.012900
vn -0.208400 0.977900 0.015600
vn -0.062200 0.997400 0.035600
vn -0.065800 0.996700 0.046500
vn -0.067100 0.996400 0.051500
vn -0.066900 0.996900 0.040100
vn -0.069900 0.997200 0.027300
vn -0.058000 0.997700 0.035400
vn -0.056500 0.996100 0.068000
vn -0.088700 0.992500 0.084200
vn -0.116900 0.991100 0.062500
vn -0.128900 0.991600 0.002000
vn -0.143600 0.989600 -0.001600
vn -0.170400 0.984400 0.042800
vn -0.214900 0.974200 0.068000
vn -0.262500 0.962900 0.063100
vn -0.066900 0.997100 0.036900
vn -0.071800 0.995800 0.055600
vn -0.081500 0.995200 0.053700
vn -0.087200 0.995200 0.043200
vn -0.094500 0.994900 0.034400
vn -0.105000 0.994100 0.027000
vn -0.109200 0.990800 0.079100
vn -0.117900 0.986600 0.112900
vn -0.127300 0.989300 0.070200
vn -0.140400 0.989900 0.019000
vn -0.175800 0.983900 0.032800
vn -0.213000 0.974100 0.075100
vn -0.251600 0.960000 0.122400
vn -0.294000 0.948100 0.120500
vn -0.110700 0.993200 0.034900
vn -0.115800 0.991100 0.064800
vn -0.128300 0.989600 0.065300
vn -0.128600 0.991000 0.037000
vn -0.118800 0.992200 0.037600
vn -0.123400 0.991600 0.039200
vn -0.133300 0.987600 0.082200
vn -0.141200 0.981800 0.126700
vn -0.161600 0.983200 0.084800
vn -0.193700 0.979800 0.050100
vn -0.220300 0.973300 0.063700
vn -0.236900 0.966300 0.100500
vn -0.264500 0.949700 0.167700
vn -0.288200 0.944900 0.155300
vn -0.162700 0.985600 0.046900
vn -0.172900 0.981700 0.080000
vn -0.190400 0.978700 0.076700
vn -0.190300 0.981400 0.022800
vn -0.170600 0.985000 0.023400
vn -0.151000 0.987600 0.041200
vn -0.141600 0.986000 0.087600
vn -0.153500 0.977400 0.145000
vn -0.215500 0.968000 0.128100
vn -0.293600 0.952000 0.086600
vn -0.315300 0.946800 0.063600
vn -0.304500 0.945700 0.113300
vn -0.312300 0.930700 0.190200
vn -0.334500 0.929700 0.154400
vn -0.165900 0.973500 0.157700
vn -0.230300 0.960300 0.157500
vn -0.177500 0.979900 0.091000
vn -0.199100 0.979300 0.035500
vn -0.332000 0.937800 0.101700
vn -0.362000 0.930400 0.057100
vn -0.335600 0.934700 0.117000
vn -0.342600 0.919000 0.195200
vn -0.384800 0.911700 0.143800
vn -0.191200 0.977400 0.089900
vn -0.212700 0.973800 0.080600
vn -0.216700 0.976100 0.016000
vn -0.209900 0.977600 0.012200
vn -0.175900 0.982700 0.057700
vn -0.137500 0.990500 -0.001500
vn -0.116100 0.993200 0.003300
vn -0.311500 0.946500 0.084400
vn -0.282500 0.958400 0.040600
vn -0.222600 0.974800 0.014200
vn -0.402800 0.911600 0.082500
vn -0.344100 0.933800 0.097900
vn -0.050600 0.998700 -0.000400
vn -0.026100 0.999700 0.000200
vn -0.136000 0.990700 -0.005200
vn -0.154100 0.988000 -0.006200
vn -0.294200 0.949200 0.112000
vn -0.185500 0.982600 -0.001600
vn -0.085700 0.996300 0.001400
usemtl None
s 1
f 185//1 186//2 14//3 1//4
f 1//4 14//3 15//5 2//6
f 2//6 15//5 16//7 3//8
f 3//8 16//7 17//9 4//10
f 4//10 17//9 18//11 5//12
f 5//12 18//11 19//13 6//14
f 6//14 19//13 20//15 7//16
f 7//16 20//15 21//17 8//18
f 8//18 21//17 22//19 9//20
f 9//20 22//19 23//21 10//22
f 10//22 23//21 24//23 11//24
f 11//24 24//23 25//25 12//26
f 12//26 25//25 26//27 13//28
f 186//2 184//29 27//30 14//3
f 14//3 27//30 28//31 15//5
f 15//5 28//31 29//32 16//7
f 16//7 29//32 30//33 17//9
f 17//9 30//33 31//34 18//11
f 18//11 31//34 32//35 19//13
f 19//13 32//35 33//36 20//15
f 20//15 33//36 34//37 21//17
f 21//17 34//37 35//38 22//19
f 22//19 35//38 36//39 23//21
f 23//21 36//39 37//40 24//23
f 24//23 37//40 38//41 25//25
f 25//25 38//41 39//42 26//27
f 184//29 189//43 40//44 27//30
f 27//30 40//44 41//45 28//31
f 28//31 41//45 42//46 29//32
f 29//32 42//46 43//47 30//33
f 30//33 43//47 44//48 31//34
f 31//34 44//48 45//49 32//35
f 32//35 45//49 46//50 33//36
f 33//36 46//50 47//51 34//37
f 34//37 47//51 48//52 35//38
f 35//38 48//52 49//53 36//39
f 36//39 49//53 50//54 37//40
f 37//40 50//54 51//55 38//41
f 38//41 51//55 52//56 39//42
f 189//43 192//57 53//58 40//44
f 40//44 53//58 54//59 41//45
f 41//45 54//59 55//60 42//46
f 42//46 55//60 56//61 43//47
f 43//47 56//61 57//62 44//48
f 44//48 57//62 58//63 45//49
f 45//49 58//63 59//64 46//50
f 46//50 59//64 60//65 47//51
f 47//51 60//65 61//66 48//52
f 48//52 61//66 62//67 49//53
f 49//53 62//67 63//68 50//54
f 50//54 63//68 64//69 51//55
f 51//55 64//69 65//70 52//56
f 192//57 193//71 66//72 53//58
f 53//58 66//72 67//73 54//59
f 54//59 67//73 68//74 55//60
f 55//60 68//74 69//75 56//61
f 56//61 69//75 70//76 57//62
f 57//62 70//76 71//77 58//63
f 58//63 71//77 72//78 59//64
f 59//64 72//78 73//79 60//65
f 60//65 73//79 74//80 61//66
f 61//66 74//80 75//81 62//67
f 62//67 75//81 76//82 63//68
f 63//68 76//82 77//83 64//69
f 64//69 77//83 78//84 65//70
f 193//71 190//85 79//86 66//72
f 66//72 79//86 80//87 67//73
f 67//73 80//87 81//88 68//74
f 68//74 81//88 82//89 69//75
f 69//75 82//89 83//90 70//76
f 70//76 83//90 84//91 71//77
f 71//77 84//91 85//92 72//78
f 72//78 85//92 86//93 73//79
f 73//79 86//93 87//94 74//80
f 74//80 87//94 88//95 75//81
f 75//81 88//95 89//96 76//82
f 76//82 89//96 90//97 77//83
f 77//83 90//97 91//98 78//84
f 190//85 195//99 92//100 79//86
f 79//86 92//100 93//101 80//87
f 80//87 93//101 94//102 81//88
f 81//88 94//102 95//103 82//89
f 82//89 95//103 96//104 83//90
f 83//90 96//104 97//105 84//91
f 84//91 97//105 98//106 85//92
f 85//92 98//106 99//107 86//93
f 86//93 99//107 100//108 87//94
f 87//94 100//108 101//109 88//95
f 88//95 101//109 102//110 89//96
f 89//96 102//110 103//111 90//97
f 90//97 103//111 104//112 91//98
f 195//99 187//113 105//114 92//100
f 92//100 105//114 106//115 93//101
f 93//101 106//115 107//116 94//102
f 94//102 107//116 108//117 95//103
f 95//103 108//117 109//118 96//104
f 96//104 109//118 110//119 97//105
f 97//105 110//119 111//120 98//106
f 98//106 111//120 112//121 99//107
f 99//107 112//121 113//122 100//108
f 100//108 113//122 114//123 101//109
f 101//109 114//123 115//124 102//110
f 102//110 115//124 116//125 103//111
f 103//111 116//125 117//126 104//112
f 187//113 194//127 118//128 105//114
f 105//114 118//128 119//129 106//115
f 106//115 119//129 120//130 107//116
f 107//116 120//130 121//131 108//117
f 108//117 121//131 122//132 109//118
f 109//118 122//132 123//133 110//119
f 110//119 123//133 124//134 111//120
f 111//120 124//134 125//135 112//121
f 112//121 125//135 126//136 113//122
f 113//122 126//136 127//137 114//123
f 114//123 127//137 128//138 115//124
f 115//124 128//138 129//139 116//125
f 116//125 129//139 130//140 117//126
f 194//127 191//141 131//142 118//128
f 118//128 131//142 132//143 119//129
f 119//129 132//143 133//144 120//130
f 120//130 133//144 134//145 121//131
f 121//131 134//145 135//146 122//132
f 122//132 135//146 136//147 123//133
f 123//133 136//147 137//148 124//134
f 124//134 137//148 138//149 125//135
f 125//135 138//149 139//150 126//136
f 126//136 139//150 140//151 127//137
f 127//137 140//151 141//152 128//138
f 128//138 141//152 142//153 129//139
f 129//139 142//153 143//154 130//140
f 191//141 188//155 144//156 131//142
f 131//142 144//156 145//157 132//143
f 132//143 145//157 146//158 133//144
f 133//144 146//158 147//159 134//145
f 134//145 147//159 148//160 135//146
f 135//146 148//160 149//161 136//147
f 136//147 149//161 150//162 137//148
f 137//148 150//162 151//163 138//149
f 138//149 151//163 152//164 139//150
f 139//150 152//164 153//165 140//151
f 140//151 153//165 154//166 141//152
f 141//152 154//166 155//167 142//153
f 142//153 155//167 156//168 143//154
f 188//155 183//169 157//170 144//156
f 144//156 157//170 158//171 145//157
f 145//157 158//171 159//172 146//158
f 146//158 159//172 160//173 147//159
f 147//159 160//173 161//174 148//160
f 148//160 161//174 162//175 149//161
f 149//161 162//175 163//176 150//162
f 150//162 163//176 164//177 151//163
f 151//163 164//177 165//178 152//164
f 152//164 165//178 166//179 153//165
f 153//165 166//179 167//180 154//166
f 154//166 167//180 168//181 155//167
f 155//167 168//181 169//182 156//168
f 163//176 170//183 171//184 164//177
f 162//175 172//185 170//183 163//176
f 161//174 173//186 172//185 162//175
f 164//177 171//184 174//187 165//178
f 165//178 174//187 175//188 166//179
f 166//179 175//188 177//189 167//180
f 167//180 177//189 178//190 168//181
f 168//181 178//190 176//191 169//182
f 157//170 179//192 180//193 158//171
f 158//171 180//193 181//194 159//172
f 159//172 181//194 182//195 160//173
f 160//173 182//195 173//186 161//174
f 183//169 196//196 179//192 157//170
f 52//56 65//70 197//197 198//198
f 130//140 143//154 199//199 200//200
f 117//126 130//140 200//200 201//201
f 169//182 176//191 202//202 203//203
f 13//28 26//27 204//204 205//205
f 65//70 78//84 206//206 197//197
f 78//84 91//98 207//207 206//206
f 143//154 156//168 208//208 199//199
f 156//168 169//182 203//203 208//208
f 91//98 104//112 209//209 207//207
f 104//112 117//126 201//201 209//209
f 26//27 39//42 210//210 204//204
f 39//42 52//56 198//198 210//210
