# Blender v2.73 (sub 0) OBJ File: 'untitled.blend'
# www.blender.org
mtllib Landscape.020.mtl
o Landscape.020
v -63.353535 0.003496 125.414139
v -63.353535 0.083319 122.828285
v -63.353535 0.236494 120.242424
v -63.353535 0.468267 117.656563
v -63.353535 0.817507 115.070709
v -63.353535 1.197788 112.484848
v -63.353535 1.637789 109.898987
v -63.353535 2.021062 107.313133
v -63.353535 2.450674 104.727272
v -63.353535 2.980445 102.141411
v -63.353535 3.470342 99.555557
v -63.353535 3.677053 96.969696
v -60.767677 0.007717 125.414139
v -60.767677 0.096596 122.828285
v -60.767677 0.255633 120.242424
v -60.767677 0.488202 117.656563
v -60.767677 0.844693 115.070709
v -60.767677 1.309066 112.484848
v -60.767677 1.752418 109.898987
v -60.767677 2.110758 107.313133
v -60.767677 2.538379 104.727272
v -60.767677 3.005299 102.141411
v -60.767677 3.493050 99.555557
v -60.767677 3.879169 96.969696
v -58.181820 0.011884 125.414139
v -58.181820 0.107531 122.828285
v -58.181820 0.267077 120.242424
v -58.181820 0.505940 117.656563
v -58.181820 0.857813 115.070709
v -58.181820 1.240680 112.484848
v -58.181820 1.642860 109.898987
v -58.181820 2.028679 107.313133
v -58.181820 2.476518 104.727272
v -58.181820 2.922830 102.141411
v -58.181820 3.409096 99.555557
v -58.181820 3.875654 96.969696
v -55.595959 0.017582 125.414139
v -55.595959 0.122242 122.828285
v -55.595959 0.294824 120.242424
v -55.595959 0.527544 117.656563
v -55.595959 0.845303 115.070709
v -55.595959 1.218539 112.484848
v -55.595959 1.575611 109.898987
v -55.595959 1.984324 107.313133
v -55.595959 2.469970 104.727272
v -55.595959 3.001163 102.141411
v -55.595959 3.638562 99.555557
v -55.595959 4.071895 96.969696
v -53.010101 0.023469 125.414139
v -53.010101 0.140789 122.828285
v -53.010101 0.327715 120.242424
v -53.010101 0.567721 117.656563
v -53.010101 0.855322 115.070709
v -53.010101 1.168496 112.484848
v -53.010101 1.518275 109.898987
v -53.010101 2.001153 107.313133
v -53.010101 2.617025 104.727272
v -53.010101 3.167801 102.141411
v -53.010101 3.805695 99.555557
v -53.010101 4.077180 96.969696
v -50.424244 0.028743 125.414139
v -50.424244 0.156277 122.828285
v -50.424244 0.340427 120.242424
v -50.424244 0.574459 117.656563
v -50.424244 0.885906 115.070709
v -50.424244 1.193580 112.484848
v -50.424244 1.530386 109.898987
v -50.424244 2.052233 107.313133
v -50.424244 2.629400 104.727272
v -50.424244 3.302344 102.141411
v -50.424244 3.792789 99.555557
v -50.424244 3.815233 96.969696
v -47.838383 0.031025 125.414139
v -47.838383 0.159145 122.828285
v -47.838383 0.346064 120.242424
v -47.838383 0.581208 117.656563
v -47.838383 0.914987 115.070709
v -47.838383 1.182710 112.484848
v -47.838383 1.563809 109.898987
v -47.838383 2.106471 107.313133
v -47.838383 2.714657 104.727272
v -47.838383 3.240562 102.141411
v -47.838383 3.630984 99.555557
v -47.838383 3.884489 96.969696
v -45.252525 0.032462 125.414139
v -45.252525 0.154553 122.828285
v -45.252525 0.341435 120.242424
v -45.252525 0.590441 117.656563
v -45.252525 0.937217 115.070709
v -45.252525 1.262140 112.484848
v -45.252525 1.620127 109.898987
v -45.252525 2.158064 107.313133
v -45.252525 2.612672 104.727272
v -45.252525 3.062807 102.141411
v -45.252525 3.373104 99.555557
v -45.252525 3.414383 96.969696
v -42.666668 0.036532 125.414139
v -42.666668 0.156861 122.828285
v -42.666668 0.339215 120.242424
v -42.666668 0.598934 117.656563
v -42.666668 0.956613 115.070709
v -42.666668 1.379654 112.484848
v -42.666668 1.792576 109.898987
v -42.666668 2.194381 107.313133
v -42.666668 2.588789 104.727272
v -42.666668 2.844240 102.141411
v -42.666668 3.125838 99.555557
v -42.666668 3.433146 96.969696
v -40.080807 0.038732 125.414139
v -40.080807 0.151348 122.828285
v -40.080807 0.340623 120.242424
v -40.080807 0.620155 117.656563
v -40.080807 1.017418 115.070709
v -40.080807 1.394911 112.484848
v -40.080807 1.839701 109.898987
v -40.080807 2.177121 107.313133
v -40.080807 2.509879 104.727272
v -40.080807 2.910859 102.141411
v -40.080807 3.069792 99.555557
v -40.080807 3.555361 96.969696
v -37.494949 0.041159 125.414139
v -37.494949 0.157022 122.828285
v -37.494949 0.330392 120.242424
v -37.494949 0.578990 117.656563
v -37.494949 0.960510 115.070709
v -37.494949 1.393261 112.484848
v -37.494949 1.791524 109.898987
v -37.494949 2.090164 107.313133
v -37.494949 2.472461 104.727272
v -37.494949 2.954217 102.141411
v -37.494949 3.410817 99.555557
v -37.494949 3.835708 96.969696
v -34.909092 0.041983 125.414139
v -34.909092 0.151382 122.828285
v -34.909092 0.321738 120.242424
v -34.909092 0.547160 117.656563
v -34.909092 0.828621 115.070709
v -34.909092 1.237187 112.484848
v -34.909092 1.634972 109.898987
v -34.909092 1.959307 107.313133
v -34.909092 2.309476 104.727272
v -34.909092 2.845526 102.141411
v -34.909092 3.352762 99.555557
v -34.909092 3.788310 96.969696
v -32.323231 0.042019 125.414139
v -32.323231 0.148563 122.828285
v -32.323231 0.316916 120.242424
v -32.323231 0.569825 117.656563
v -32.323231 0.828695 115.070709
v -32.323231 1.135110 112.484848
v -32.323231 1.485114 109.898987
v -32.323231 1.923974 107.313133
v -32.323231 2.246360 104.727272
v -32.323231 2.586173 102.141411
v -32.323231 3.182207 99.555557
v -32.323231 3.718263 96.969696
v -64.000000 2.951966 102.141411
v -64.000000 2.437018 104.727272
v -64.000000 1.597169 109.898987
v -64.000000 1.992180 107.313133
v -64.000000 0.231776 120.242424
v -64.000000 0.462079 117.656563
v -64.000000 1.168121 112.484848
v -64.000000 0.802234 115.070709
v -64.000000 0.079604 122.828285
v -64.000000 0.002795 125.414139
v -64.000000 3.405228 99.555557
v -64.000000 3.613699 96.969696
v -32.000000 0.318150 120.242424
v -32.000000 0.568047 117.656563
v -32.000000 2.264359 104.727272
v -32.000000 2.591121 102.141411
v -32.000000 0.829491 115.070709
v -32.000000 1.921059 107.313133
v -32.000000 1.482958 109.898987
v -32.000000 1.129202 112.484848
v -32.000000 0.041825 125.414139
v -32.000000 0.148241 122.828285
v -32.000000 3.161654 99.555557
v -32.000000 3.721815 96.969696
v -40.080807 0.000000 128.000000
v -47.838383 0.000000 128.000000
v -34.909092 0.000000 128.000000
v -58.181820 0.000000 128.000000
v -42.666668 0.000000 128.000000
v -32.323231 0.000000 128.000000
v -60.767677 0.000000 128.000000
v -45.252525 0.000000 128.000000
v -50.424244 0.000000 128.000000
v -63.353535 0.000000 128.000000
v -55.595959 0.000000 128.000000
v -53.010101 0.000000 128.000000
v -37.494949 0.000000 128.000000
v -64.000000 0.000000 128.000000
v -32.000000 0.000000 128.000000
v -40.080807 3.651955 96.000000
v -42.666668 3.587966 96.000000
v -55.595959 4.203187 96.000000
v -58.181820 4.000735 96.000000
v -37.494949 4.067882 96.000000
v -34.909092 4.034227 96.000000
v -32.323231 4.029835 96.000000
v -32.000000 4.044583 96.000000
v -47.838383 4.000906 96.000000
v -50.424244 4.025382 96.000000
v -63.353535 3.879053 96.000000
v -64.000000 3.816678 96.000000
v -60.767677 4.041183 96.000000
v -45.252525 3.603232 96.000000
v -53.010101 4.227705 96.000000
vn -0.000500 1.000000 0.001200
vn -0.000700 1.000000 0.001700
vn -0.002000 0.999800 0.016500
vn -0.002000 0.999900 0.015700
vn -0.004900 0.998900 0.045500
vn -0.005000 0.999000 0.044600
vn -0.007200 0.997200 0.074400
vn -0.007500 0.997200 0.074000
vn -0.010300 0.993700 0.111500
vn -0.012400 0.993800 0.110600
vn -0.021600 0.989500 0.142800
vn -0.025400 0.990200 0.137400
vn -0.039300 0.986400 0.159400
vn -0.043900 0.987100 0.154100
vn -0.047200 0.986600 0.156000
vn -0.053300 0.986100 0.157100
vn -0.039600 0.987100 0.155100
vn -0.042800 0.986600 0.157600
vn -0.029900 0.983300 0.179300
vn -0.032200 0.982700 0.182300
vn -0.033400 0.981600 0.188000
vn -0.051400 0.980700 0.188500
vn -0.055500 0.988600 0.139600
vn -0.084800 0.987900 0.129900
vn -0.076500 0.986400 0.145600
vn -0.096900 0.985200 0.141300
vn -0.000800 1.000000 0.003000
vn -0.002000 0.999800 0.018600
vn -0.004200 0.998800 0.047500
vn -0.005900 0.997100 0.075500
vn -0.007000 0.993600 0.112800
vn -0.007700 0.988900 0.148400
vn -0.006200 0.986600 0.163100
vn -0.002900 0.988100 0.153500
vn -0.002200 0.988100 0.153700
vn -0.000000 0.984800 0.173400
vn 0.007200 0.983000 0.183500
vn -0.001000 0.986800 0.161900
vn -0.021900 0.988100 0.152000
vn -0.001000 1.000000 0.004700
vn -0.002200 0.999800 0.020900
vn -0.004800 0.998700 0.050000
vn -0.006900 0.997000 0.076800
vn -0.005700 0.993700 0.111400
vn 0.002400 0.989700 0.142600
vn 0.017000 0.988000 0.153200
vn 0.027300 0.988300 0.150200
vn 0.023800 0.986900 0.159600
vn 0.012700 0.984300 0.176000
vn -0.003100 0.981900 0.189200
vn -0.022600 0.982800 0.183000
vn -0.033100 0.987700 0.152900
vn -0.001100 1.000000 0.006800
vn -0.002700 0.999700 0.023800
vn -0.006700 0.998500 0.053700
vn -0.010400 0.996800 0.078800
vn -0.008700 0.994200 0.106600
vn 0.000700 0.991500 0.130200
vn 0.013000 0.990200 0.139200
vn 0.016700 0.988400 0.150600
vn 0.001900 0.984200 0.176900
vn -0.023500 0.980700 0.194100
vn -0.048400 0.976400 0.210300
vn -0.058700 0.980100 0.189500
vn -0.048900 0.988200 0.145100
vn -0.001100 1.000000 0.009000
vn -0.002700 0.999600 0.027000
vn -0.006000 0.998300 0.057800
vn -0.008300 0.996700 0.080800
vn -0.008600 0.994600 0.103400
vn -0.004900 0.992700 0.120500
vn 0.002600 0.991600 0.129400
vn 0.002300 0.987600 0.156900
vn -0.011800 0.980000 0.198400
vn -0.032500 0.975600 0.216900
vn -0.043100 0.974100 0.221800
vn -0.016300 0.986800 0.161200
vn 0.025700 0.991200 0.129900
vn -0.000700 0.999900 0.010800
vn -0.001600 0.999500 0.029600
vn -0.003000 0.998200 0.059900
vn -0.003300 0.996700 0.081200
vn -0.005000 0.994400 0.105100
vn -0.007000 0.993100 0.117100
vn -0.006400 0.992200 0.124700
vn -0.010000 0.986100 0.165400
vn -0.016700 0.977500 0.210100
vn -0.017600 0.973900 0.226000
vn -0.003100 0.977800 0.209300
vn 0.022600 0.992100 0.123000
vn 0.037500 0.992700 0.114500
vn -0.000400 0.999900 0.011900
vn -0.000300 0.999500 0.030400
vn -0.000100 0.998200 0.060300
vn -0.000800 0.996600 0.081800
vn -0.004000 0.994000 0.109500
vn -0.009000 0.992800 0.119700
vn -0.013300 0.991900 0.125800
vn -0.016800 0.985000 0.171300
vn -0.013500 0.978100 0.207700
vn 0.008100 0.977900 0.209000
vn 0.043600 0.983000 0.178300
vn 0.070900 0.992100 0.103000
vn 0.078400 0.991000 0.108100
vn -0.000500 0.999900 0.012800
vn -0.000400 0.999500 0.030200
vn 0.000300 0.998200 0.059600
vn -0.000100 0.996500 0.083600
vn -0.003400 0.993400 0.114100
vn -0.014300 0.991300 0.130600
vn -0.031700 0.990100 0.136400
vn -0.035400 0.985100 0.168000
vn -0.013200 0.982300 0.186700
vn 0.026600 0.984900 0.171000
vn 0.068000 0.987500 0.141900
vn 0.088900 0.991700 0.092800
vn 0.086400 0.989800 0.113000
vn -0.000600 0.999900 0.013900
vn -0.000400 0.999500 0.029900
vn 0.000000 0.998300 0.058700
vn -0.001200 0.996300 0.086100
vn -0.006600 0.992700 0.120200
vn -0.015400 0.989500 0.143800
vn -0.027000 0.988000 0.151700
vn -0.028100 0.987100 0.157800
vn -0.007300 0.987800 0.155400
vn 0.016200 0.989900 0.140600
vn 0.033900 0.992800 0.114900
vn 0.029700 0.994100 0.104400
vn -0.001200 0.991400 0.130600
vn -0.000400 0.999900 0.015000
vn -0.000400 0.999500 0.029800
vn 0.000200 0.998300 0.057700
vn 0.001800 0.996200 0.086700
vn 0.002100 0.992200 0.124700
vn -0.000100 0.988600 0.150300
vn -0.001400 0.987400 0.158100
vn 0.004500 0.989100 0.147000
vn 0.015600 0.990700 0.134900
vn 0.010900 0.989700 0.142600
vn -0.018600 0.992000 0.124300
vn -0.051300 0.990000 0.131600
vn -0.074600 0.985100 0.154700
vn -0.000300 0.999900 0.015800
vn -0.000300 0.999500 0.029800
vn 0.000700 0.998400 0.056000
vn 0.005300 0.996600 0.082300
vn 0.016900 0.993000 0.117200
vn 0.029100 0.988600 0.147800
vn 0.033800 0.987000 0.157000
vn 0.037500 0.989600 0.138600
vn 0.040300 0.990700 0.129600
vn 0.032600 0.986600 0.159600
vn 0.002000 0.986100 0.165700
vn -0.035000 0.986500 0.159900
vn -0.053700 0.981100 0.185900
vn -0.000100 0.999900 0.016200
vn 0.000300 0.999500 0.029400
vn 0.001400 0.998500 0.054200
vn 0.002100 0.996900 0.078700
vn 0.007800 0.994600 0.103600
vn 0.025300 0.990900 0.132100
vn 0.045600 0.987900 0.148000
vn 0.049600 0.988900 0.140100
vn 0.041400 0.990200 0.133500
vn 0.047000 0.986400 0.157100
vn 0.056500 0.980600 0.187800
vn 0.044600 0.981700 0.184900
vn 0.023700 0.976000 0.216300
vn 0.000100 0.999900 0.016200
vn 0.000400 0.999600 0.028800
vn 0.000300 0.998600 0.053300
vn -0.000600 0.996800 0.079900
vn -0.001300 0.995100 0.098200
vn 0.006100 0.993400 0.114300
vn 0.021900 0.990900 0.132800
vn 0.025900 0.988700 0.147700
vn 0.009700 0.989700 0.142400
vn 0.005500 0.990400 0.137800
vn 0.032600 0.983000 0.180700
vn 0.044100 0.977800 0.205000
vn 0.014600 0.969400 0.244900
vn -0.000300 0.996700 0.081000
vn 0.001200 0.995100 0.098400
vn -0.029200 0.991400 0.127700
vn -0.005800 0.984700 0.174200
vn 0.004700 0.994100 0.108300
vn -0.007700 0.989000 0.147500
vn 0.010000 0.988500 0.151000
vn 0.010100 0.992000 0.125600
vn 0.000500 0.999600 0.028700
vn -0.000300 0.998600 0.053200
vn 0.000300 0.999900 0.016200
vn 0.024600 0.976600 0.213700
vn -0.000600 0.965700 0.259600
vn -0.084000 0.985500 0.147400
vn -0.018200 0.988300 0.151500
vn -0.040800 0.989700 0.137300
vn -0.034000 0.989800 0.138700
vn -0.057600 0.977400 0.203600
vn 0.014500 0.966100 0.257800
vn -0.006600 0.955900 0.293700
vn -0.026900 0.950100 0.310800
vn 0.077300 0.984000 0.160400
vn 0.040000 0.983900 0.174300
vn -0.081800 0.977600 0.193700
vn -0.094800 0.974500 0.203500
vn -0.030300 0.985800 0.165300
vn 0.082500 0.982900 0.164400
vn 0.041000 0.985800 0.163100
usemtl None
s 1
f 194//1 190//2 1//3 166//4
f 166//4 1//3 2//5 165//6
f 165//6 2//5 3//7 161//8
f 161//8 3//7 4//9 162//10
f 162//10 4//9 5//11 164//12
f 164//12 5//11 6//13 163//14
f 163//14 6//13 7//15 159//16
f 159//16 7//15 8//17 160//18
f 160//18 8//17 9//19 158//20
f 158//20 9//19 10//21 157//22
f 157//22 10//21 11//23 167//24
f 167//24 11//23 12//25 168//26
f 190//2 187//27 13//28 1//3
f 1//3 13//28 14//29 2//5
f 2//5 14//29 15//30 3//7
f 3//7 15//30 16//31 4//9
f 4//9 16//31 17//32 5//11
f 5//11 17//32 18//33 6//13
f 6//13 18//33 19//34 7//15
f 7//15 19//34 20//35 8//17
f 8//17 20//35 21//36 9//19
f 9//19 21//36 22//37 10//21
f 10//21 22//37 23//38 11//23
f 11//23 23//38 24//39 12//25
f 187//27 184//40 25//41 13//28
f 13//28 25//41 26//42 14//29
f 14//29 26//42 27//43 15//30
f 15//30 27//43 28//44 16//31
f 16//31 28//44 29//45 17//32
f 17//32 29//45 30//46 18//33
f 18//33 30//46 31//47 19//34
f 19//34 31//47 32//48 20//35
f 20//35 32//48 33//49 21//36
f 21//36 33//49 34//50 22//37
f 22//37 34//50 35//51 23//38
f 23//38 35//51 36//52 24//39
f 184//40 191//53 37//54 25//41
f 25//41 37//54 38//55 26//42
f 26//42 38//55 39//56 27//43
f 27//43 39//56 40//57 28//44
f 28//44 40//57 41//58 29//45
f 29//45 41//58 42//59 30//46
f 30//46 42//59 43//60 31//47
f 31//47 43//60 44//61 32//48
f 32//48 44//61 45//62 33//49
f 33//49 45//62 46//63 34//50
f 34//50 46//63 47//64 35//51
f 35//51 47//64 48//65 36//52
f 191//53 192//66 49//67 37//54
f 37//54 49//67 50//68 38//55
f 38//55 50//68 51//69 39//56
f 39//56 51//69 52//70 40//57
f 40//57 52//70 53//71 41//58
f 41//58 53//71 54//72 42//59
f 42//59 54//72 55//73 43//60
f 43//60 55//73 56//74 44//61
f 44//61 56//74 57//75 45//62
f 45//62 57//75 58//76 46//63
f 46//63 58//76 59//77 47//64
f 47//64 59//77 60//78 48//65
f 192//66 189//79 61//80 49//67
f 49//67 61//80 62//81 50//68
f 50//68 62//81 63//82 51//69
f 51//69 63//82 64//83 52//70
f 52//70 64//83 65//84 53//71
f 53//71 65//84 66//85 54//72
f 54//72 66//85 67//86 55//73
f 55//73 67//86 68//87 56//74
f 56//74 68//87 69//88 57//75
f 57//75 69//88 70//89 58//76
f 58//76 70//89 71//90 59//77
f 59//77 71//90 72//91 60//78
f 189//79 182//92 73//93 61//80
f 61//80 73//93 74//94 62//81
f 62//81 74//94 75//95 63//82
f 63//82 75//95 76//96 64//83
f 64//83 76//96 77//97 65//84
f 65//84 77//97 78//98 66//85
f 66//85 78//98 79//99 67//86
f 67//86 79//99 80//100 68//87
f 68//87 80//100 81//101 69//88
f 69//88 81//101 82//102 70//89
f 70//89 82//102 83//103 71//90
f 71//90 83//103 84//104 72//91
f 182//92 188//105 85//106 73//93
f 73//93 85//106 86//107 74//94
f 74//94 86//107 87//108 75//95
f 75//95 87//108 88//109 76//96
f 76//96 88//109 89//110 77//97
f 77//97 89//110 90//111 78//98
f 78//98 90//111 91//112 79//99
f 79//99 91//112 92//113 80//100
f 80//100 92//113 93//114 81//101
f 81//101 93//114 94//115 82//102
f 82//102 94//115 95//116 83//103
f 83//103 95//116 96//117 84//104
f 188//105 185//118 97//119 85//106
f 85//106 97//119 98//120 86//107
f 86//107 98//120 99//121 87//108
f 87//108 99//121 100//122 88//109
f 88//109 100//122 101//123 89//110
f 89//110 101//123 102//124 90//111
f 90//111 102//124 103//125 91//112
f 91//112 103//125 104//126 92//113
f 92//113 104//126 105//127 93//114
f 93//114 105//127 106//128 94//115
f 94//115 106//128 107//129 95//116
f 95//116 107//129 108//130 96//117
f 185//118 181//131 109//132 97//119
f 97//119 109//132 110//133 98//120
f 98//120 110//133 111//134 99//121
f 99//121 111//134 112//135 100//122
f 100//122 112//135 113//136 101//123
f 101//123 113//136 114//137 102//124
f 102//124 114//137 115//138 103//125
f 103//125 115//138 116//139 104//126
f 104//126 116//139 117//140 105//127
f 105//127 117//140 118//141 106//128
f 106//128 118//141 119//142 107//129
f 107//129 119//142 120//143 108//130
f 181//131 193//144 121//145 109//132
f 109//132 121//145 122//146 110//133
f 110//133 122//146 123//147 111//134
f 111//134 123//147 124//148 112//135
f 112//135 124//148 125//149 113//136
f 113//136 125//149 126//150 114//137
f 114//137 126//150 127//151 115//138
f 115//138 127//151 128//152 116//139
f 116//139 128//152 129//153 117//140
f 117//140 129//153 130//154 118//141
f 118//141 130//154 131//155 119//142
f 119//142 131//155 132//156 120//143
f 193//144 183//157 133//158 121//145
f 121//145 133//158 134//159 122//146
f 122//146 134//159 135//160 123//147
f 123//147 135//160 136//161 124//148
f 124//148 136//161 137//162 125//149
f 125//149 137//162 138//163 126//150
f 126//150 138//163 139//164 127//151
f 127//151 139//164 140//165 128//152
f 128//152 140//165 141//166 129//153
f 129//153 141//166 142//167 130//154
f 130//154 142//167 143//168 131//155
f 131//155 143//168 144//169 132//156
f 183//157 186//170 145//171 133//158
f 133//158 145//171 146//172 134//159
f 134//159 146//172 147//173 135//160
f 135//160 147//173 148//174 136//161
f 136//161 148//174 149//175 137//162
f 137//162 149//175 150//176 138//163
f 138//163 150//176 151//177 139//164
f 139//164 151//177 152//178 140//165
f 140//165 152//178 153//179 141//166
f 141//166 153//179 154//180 142//167
f 142//167 154//180 155//181 143//168
f 143//168 155//181 156//182 144//169
f 147//173 169//183 170//184 148//174
f 153//179 171//185 172//186 154//180
f 148//174 170//184 173//187 149//175
f 152//178 174//188 171//185 153//179
f 151//177 175//189 174//188 152//178
f 149//175 173//187 176//190 150//176
f 150//176 176//190 175//189 151//177
f 145//171 177//191 178//192 146//172
f 146//172 178//192 169//183 147//173
f 186//170 195//193 177//191 145//171
f 154//180 172//186 179//194 155//181
f 155//181 179//194 180//195 156//182
f 108//130 120//143 196//196 197//197
f 36//52 48//65 198//198 199//199
f 120//143 132//156 200//200 196//196
f 132//156 144//169 201//201 200//200
f 144//169 156//182 202//202 201//201
f 156//182 180//195 203//203 202//202
f 72//91 84//104 204//204 205//205
f 168//26 12//25 206//206 207//207
f 12//25 24//39 208//208 206//206
f 24//39 36//52 199//199 208//208
f 84//104 96//117 209//209 204//204
f 96//117 108//130 197//197 209//209
f 48//65 60//78 210//210 198//198
f 60//78 72//91 205//205 210//210
