# Blender v2.73 (sub 0) OBJ File: 'untitled.blend'
# www.blender.org
mtllib Landscape.054.mtl
o Landscape.054
v 32.323231 6.872842 -96.969696
v 32.323231 6.359341 -99.555557
v 32.323231 5.312989 -102.141411
v 32.323231 4.296462 -104.727272
v 32.323231 3.447620 -107.313133
v 32.323231 2.781948 -109.898987
v 32.323231 2.112584 -112.484848
v 32.323231 1.478415 -115.070709
v 32.323231 0.989532 -117.656563
v 32.323231 0.574599 -120.242424
v 32.323231 0.260843 -122.828285
v 32.323231 0.065988 -125.414139
v 32.323231 0.000000 -128.000000
v 34.909092 6.616117 -96.969696
v 34.909092 5.864192 -99.555557
v 34.909092 5.088681 -102.141411
v 34.909092 4.105223 -104.727272
v 34.909092 3.443802 -107.313133
v 34.909092 2.565156 -109.898987
v 34.909092 1.958054 -112.484848
v 34.909092 1.443262 -115.070709
v 34.909092 0.952257 -117.656563
v 34.909092 0.560078 -120.242424
v 34.909092 0.245106 -122.828285
v 34.909092 0.060550 -125.414139
v 34.909092 0.000000 -128.000000
v 37.494949 6.357506 -96.969696
v 37.494949 5.392964 -99.555557
v 37.494949 4.767749 -102.141411
v 37.494949 3.997549 -104.727272
v 37.494949 3.198241 -107.313133
v 37.494949 2.546055 -109.898987
v 37.494949 1.950674 -112.484848
v 37.494949 1.419612 -115.070709
v 37.494949 0.971507 -117.656563
v 37.494949 0.551163 -120.242424
v 37.494949 0.235251 -122.828285
v 37.494949 0.057082 -125.414139
v 37.494949 0.000000 -128.000000
v 40.080807 6.004360 -96.969696
v 40.080807 5.194864 -99.555557
v 40.080807 4.603545 -102.141411
v 40.080807 4.083964 -104.727272
v 40.080807 3.255382 -107.313133
v 40.080807 2.564270 -109.898987
v 40.080807 2.008145 -112.484848
v 40.080807 1.449709 -115.070709
v 40.080807 1.019774 -117.656563
v 40.080807 0.562062 -120.242424
v 40.080807 0.230938 -122.828285
v 40.080807 0.052369 -125.414139
v 40.080807 0.000000 -128.000000
v 42.666668 5.737622 -96.969696
v 42.666668 5.114434 -99.555557
v 42.666668 4.558537 -102.141411
v 42.666668 3.878050 -104.727272
v 42.666668 3.217590 -107.313133
v 42.666668 2.652331 -109.898987
v 42.666668 2.050357 -112.484848
v 42.666668 1.490166 -115.070709
v 42.666668 0.995212 -117.656563
v 42.666668 0.554426 -120.242424
v 42.666668 0.232513 -122.828285
v 42.666668 0.050162 -125.414139
v 42.666668 0.000000 -128.000000
v 45.252525 5.785757 -96.969696
v 45.252525 5.109076 -99.555557
v 45.252525 4.682517 -102.141411
v 45.252525 3.818611 -104.727272
v 45.252525 3.338387 -107.313133
v 45.252525 2.622021 -109.898987
v 45.252525 2.011539 -112.484848
v 45.252525 1.543357 -115.070709
v 45.252525 1.047618 -117.656563
v 45.252525 0.560125 -120.242424
v 45.252525 0.226359 -122.828285
v 45.252525 0.045803 -125.414139
v 45.252525 0.000000 -128.000000
v 47.838383 5.565486 -96.969696
v 47.838383 5.049438 -99.555557
v 47.838383 4.392141 -102.141411
v 47.838383 3.639982 -104.727272
v 47.838383 3.069637 -107.313133
v 47.838383 2.565319 -109.898987
v 47.838383 2.074463 -112.484848
v 47.838383 1.550718 -115.070709
v 47.838383 1.066118 -117.656563
v 47.838383 0.577694 -120.242424
v 47.838383 0.238556 -122.828285
v 47.838383 0.046210 -125.414139
v 47.838383 0.000000 -128.000000
v 50.424244 5.155039 -96.969696
v 50.424244 5.019051 -99.555557
v 50.424244 4.382183 -102.141411
v 50.424244 3.603245 -104.727272
v 50.424244 3.141510 -107.313133
v 50.424244 2.599706 -109.898987
v 50.424244 2.136962 -112.484848
v 50.424244 1.582120 -115.070709
v 50.424244 1.076160 -117.656563
v 50.424244 0.570983 -120.242424
v 50.424244 0.230536 -122.828285
v 50.424244 0.040675 -125.414139
v 50.424244 0.000000 -128.000000
v 53.010101 5.060983 -96.969696
v 53.010101 4.804834 -99.555557
v 53.010101 4.130485 -102.141411
v 53.010101 3.570639 -104.727272
v 53.010101 3.025437 -107.313133
v 53.010101 2.613069 -109.898987
v 53.010101 2.086832 -112.484848
v 53.010101 1.576070 -115.070709
v 53.010101 1.076275 -117.656563
v 53.010101 0.585557 -120.242424
v 53.010101 0.239655 -122.828285
v 53.010101 0.036764 -125.414139
v 53.010101 0.000000 -128.000000
v 55.595959 5.105834 -96.969696
v 55.595959 4.484657 -99.555557
v 55.595959 3.795950 -102.141411
v 55.595959 3.418354 -104.727272
v 55.595959 2.975938 -107.313133
v 55.595959 2.456373 -109.898987
v 55.595959 1.975953 -112.484848
v 55.595959 1.550889 -115.070709
v 55.595959 1.092880 -117.656563
v 55.595959 0.604560 -120.242424
v 55.595959 0.238783 -122.828285
v 55.595959 0.030698 -125.414139
v 55.595959 0.000000 -128.000000
v 58.181820 5.438621 -96.969696
v 58.181820 4.617340 -99.555557
v 58.181820 3.923151 -102.141411
v 58.181820 3.447236 -104.727272
v 58.181820 2.961293 -107.313133
v 58.181820 2.422356 -109.898987
v 58.181820 1.963215 -112.484848
v 58.181820 1.548271 -115.070709
v 58.181820 1.032068 -117.656563
v 58.181820 0.597355 -120.242424
v 58.181820 0.216803 -122.828285
v 58.181820 0.022701 -125.414139
v 58.181820 0.000000 -128.000000
v 60.767677 5.668763 -96.969696
v 60.767677 5.034245 -99.555557
v 60.767677 4.339795 -102.141411
v 60.767677 3.564654 -104.727272
v 60.767677 2.852854 -107.313133
v 60.767677 2.345636 -109.898987
v 60.767677 1.977706 -112.484848
v 60.767677 1.568937 -115.070709
v 60.767677 1.049238 -117.656563
v 60.767677 0.558222 -120.242424
v 60.767677 0.192877 -122.828285
v 60.767677 0.014597 -125.414139
v 60.767677 0.000000 -128.000000
v 63.353535 5.802450 -96.969696
v 63.353535 5.246540 -99.555557
v 63.353535 4.463393 -102.141411
v 63.353535 3.645714 -104.727272
v 63.353535 2.933714 -107.313133
v 63.353535 2.340189 -109.898987
v 63.353535 1.891694 -112.484848
v 63.353535 1.460621 -115.070709
v 63.353535 1.004916 -117.656563
v 63.353535 0.539263 -120.242424
v 63.353535 0.178302 -122.828285
v 63.353535 0.006727 -125.414139
v 63.353535 0.000000 -128.000000
v 32.000000 4.325321 -104.727272
v 32.000000 3.478453 -107.313133
v 32.000000 6.358254 -99.555557
v 32.000000 5.327960 -102.141411
v 32.000000 6.827448 -96.969696
v 32.000000 2.790447 -109.898987
v 32.000000 2.127532 -112.484848
v 32.000000 1.499904 -115.070709
v 32.000000 1.003533 -117.656563
v 32.000000 0.066734 -125.414139
v 32.000000 0.000000 -128.000000
v 32.000000 0.581907 -120.242424
v 32.000000 0.264044 -122.828285
v 64.000000 5.250129 -99.555557
v 64.000000 4.477167 -102.141411
v 64.000000 3.659339 -104.727272
v 64.000000 5.749212 -96.969696
v 64.000000 1.874748 -112.484848
v 64.000000 1.420251 -115.070709
v 64.000000 2.951117 -107.313133
v 64.000000 2.348396 -109.898987
v 64.000000 0.982009 -117.656563
v 64.000000 0.526578 -120.242424
v 64.000000 0.170055 -122.828285
v 64.000000 0.005367 -125.414139
v 64.000000 0.000000 -128.000000
v 50.424244 5.280967 -96.000000
v 32.323231 6.989769 -96.000000
v 63.353535 5.867621 -96.000000
v 55.595959 5.206232 -96.000000
v 42.666668 5.920418 -96.000000
v 58.181820 5.499257 -96.000000
v 60.767677 5.760822 -96.000000
v 45.252525 5.902878 -96.000000
v 34.909092 6.865809 -96.000000
v 47.838383 5.739472 -96.000000
v 40.080807 6.287559 -96.000000
v 53.010101 5.128886 -96.000000
v 37.494949 6.585441 -96.000000
v 32.000000 6.944557 -96.000000
v 64.000000 5.813062 -96.000000
vn -0.137800 0.983300 -0.118700
vn -0.032700 0.987700 -0.153000
vn 0.000500 0.983200 -0.182300
vn -0.103800 0.982700 -0.153100
vn 0.054800 0.957900 -0.281900
vn -0.025400 0.959400 -0.281000
vn 0.072400 0.931500 -0.356300
vn 0.041200 0.929000 -0.367900
vn 0.065600 0.942200 -0.328600
vn 0.075000 0.938400 -0.337300
vn 0.055700 0.957700 -0.282100
vn 0.073400 0.956500 -0.282200
vn 0.050900 0.965100 -0.257000
vn 0.047000 0.966800 -0.251100
vn 0.048900 0.970600 -0.235500
vn 0.044800 0.969000 -0.243100
vn 0.039500 0.977600 -0.206600
vn 0.054300 0.975700 -0.212100
vn 0.027500 0.984700 -0.171700
vn 0.043200 0.983900 -0.173300
vn 0.016100 0.990100 -0.138900
vn 0.024400 0.989800 -0.140500
vn 0.008000 0.995200 -0.097700
vn 0.011100 0.995100 -0.098500
vn 0.003100 0.998700 -0.049700
vn 0.003600 0.998700 -0.050700
vn 0.001100 0.999700 -0.025100
vn 0.001200 0.999700 -0.025700
vn 0.086300 0.973600 -0.211400
vn 0.111600 0.963600 -0.242900
vn 0.137200 0.948500 -0.285300
vn 0.107600 0.942200 -0.317100
vn 0.063600 0.949300 -0.307800
vn 0.047900 0.958700 -0.280100
vn 0.041200 0.965100 -0.258700
vn 0.029000 0.975000 -0.220200
vn 0.014000 0.980700 -0.195000
vn 0.005600 0.985700 -0.168500
vn 0.004300 0.990400 -0.137800
vn 0.004000 0.995300 -0.096200
vn 0.002100 0.998800 -0.047600
vn 0.000900 0.999700 -0.023600
vn 0.110600 0.963100 -0.245300
vn 0.114000 0.952700 -0.281600
vn 0.112100 0.953200 -0.280700
vn 0.076800 0.961700 -0.263100
vn 0.032900 0.958300 -0.283700
vn 0.018400 0.960700 -0.276800
vn 0.006400 0.969500 -0.244800
vn -0.005000 0.977200 -0.212000
vn -0.006200 0.982200 -0.187600
vn -0.006800 0.985900 -0.167100
vn -0.002700 0.989800 -0.142000
vn 0.001600 0.995400 -0.096000
vn 0.001500 0.998900 -0.045700
vn 0.000800 0.999800 -0.021900
vn 0.119600 0.962700 -0.242700
vn 0.101200 0.957800 -0.269100
vn 0.064100 0.963800 -0.258600
vn 0.038200 0.972800 -0.228200
vn 0.020200 0.965100 -0.261100
vn -0.001200 0.963900 -0.266200
vn -0.015600 0.972900 -0.230800
vn -0.017700 0.976800 -0.213300
vn -0.012500 0.981600 -0.190300
vn -0.005800 0.985300 -0.170500
vn -0.001300 0.989100 -0.147000
vn 0.000400 0.995300 -0.097000
vn 0.000800 0.999000 -0.044900
vn 0.000700 0.999800 -0.020500
vn 0.056900 0.979500 -0.193300
vn 0.042200 0.973500 -0.224400
vn 0.014400 0.973400 -0.228500
vn 0.009100 0.973300 -0.229200
vn 0.017200 0.967700 -0.251400
vn 0.001800 0.970200 -0.242200
vn -0.009500 0.972900 -0.230800
vn -0.007400 0.976900 -0.213300
vn -0.010300 0.981200 -0.192700
vn -0.007000 0.984000 -0.178000
vn -0.000900 0.988700 -0.149800
vn 0.000800 0.995200 -0.097700
vn 0.000900 0.999000 -0.044500
vn 0.000600 0.999800 -0.019200
vn 0.033600 0.988000 -0.150600
vn 0.028000 0.980900 -0.192300
vn 0.022100 0.976300 -0.215100
vn 0.029300 0.969400 -0.243600
vn 0.037000 0.967500 -0.250000
vn 0.029300 0.974800 -0.221000
vn 0.014100 0.973800 -0.226700
vn -0.001100 0.978800 -0.205000
vn -0.010200 0.981800 -0.189400
vn -0.010700 0.982800 -0.184100
vn -0.005900 0.988000 -0.154300
vn -0.001500 0.995100 -0.099200
vn 0.000100 0.999000 -0.044600
vn 0.000400 0.999800 -0.018200
vn 0.118000 0.981700 -0.149500
vn 0.093900 0.982200 -0.162500
vn 0.052800 0.978500 -0.199300
vn 0.042300 0.965200 -0.257900
vn 0.043200 0.968800 -0.244000
vn 0.029600 0.978100 -0.205700
vn 0.005300 0.978900 -0.204400
vn -0.012700 0.980600 -0.195600
vn -0.011000 0.981400 -0.191700
vn -0.005100 0.982300 -0.187100
vn -0.002600 0.987400 -0.158400
vn -0.000700 0.994800 -0.101300
vn 0.000300 0.999000 -0.045000
vn 0.000500 0.999900 -0.017300
vn 0.106300 0.986400 -0.125600
vn 0.088500 0.989700 -0.112600
vn 0.059600 0.983200 -0.172200
vn 0.039200 0.966000 -0.255600
vn 0.020800 0.972800 -0.230400
vn 0.005200 0.981400 -0.191600
vn -0.003000 0.982300 -0.187200
vn -0.004600 0.981000 -0.193800
vn -0.003400 0.980500 -0.196200
vn -0.002500 0.981900 -0.189200
vn -0.001300 0.987100 -0.159900
vn 0.000000 0.994700 -0.102800
vn 0.000900 0.999000 -0.045300
vn 0.000900 0.999900 -0.015900
vn 0.011900 0.995600 -0.092900
vn 0.033900 0.993700 -0.107200
vn 0.080100 0.979300 -0.185600
vn 0.088600 0.968700 -0.231900
vn 0.053100 0.978000 -0.201700
vn 0.031300 0.982400 -0.184300
vn 0.029100 0.982400 -0.184300
vn 0.023600 0.981500 -0.189600
vn 0.009800 0.982100 -0.188200
vn -0.001700 0.982300 -0.187000
vn -0.004400 0.987000 -0.160800
vn -0.001900 0.994400 -0.105700
vn 0.000500 0.998900 -0.045700
vn 0.001000 0.999900 -0.014000
vn -0.071900 0.993800 -0.084400
vn -0.044600 0.987300 -0.152300
vn 0.010200 0.971300 -0.237800
vn 0.033800 0.976400 -0.213100
vn 0.024400 0.984000 -0.176300
vn 0.021000 0.982400 -0.185500
vn 0.027000 0.982000 -0.186900
vn 0.022100 0.983900 -0.177000
vn 0.010600 0.984300 -0.176400
vn 0.004900 0.983200 -0.182200
vn 0.002000 0.987100 -0.160300
vn 0.002300 0.994000 -0.109000
vn 0.002400 0.999000 -0.045000
vn 0.001400 0.999900 -0.011700
vn -0.107000 0.991000 -0.080100
vn -0.105700 0.978900 -0.174800
vn -0.102400 0.959300 -0.262900
vn -0.082700 0.970100 -0.228200
vn -0.033400 0.979200 -0.200000
vn 0.009900 0.979700 -0.200300
vn 0.016300 0.982800 -0.183900
vn 0.004200 0.986500 -0.163500
vn 0.000200 0.984600 -0.174800
vn 0.005500 0.983000 -0.183300
vn 0.008700 0.987200 -0.159400
vn 0.007400 0.994000 -0.108800
vn 0.003800 0.999100 -0.041700
vn 0.001600 1.000000 -0.008800
vn -0.070200 0.994400 -0.079500
vn -0.081500 0.983200 -0.163300
vn -0.100000 0.961400 -0.256300
vn -0.088800 0.960100 -0.265100
vn -0.042600 0.966000 -0.255000
vn -0.002700 0.974500 -0.224300
vn 0.012500 0.983600 -0.180100
vn 0.014900 0.987300 -0.157800
vn 0.013000 0.984500 -0.174800
vn 0.009500 0.982700 -0.184900
vn 0.008700 0.987100 -0.160000
vn 0.007200 0.994400 -0.105300
vn 0.003400 0.999300 -0.037700
vn 0.001500 1.000000 -0.005700
vn 0.018300 0.997100 -0.073600
vn 0.002300 0.989700 -0.142800
vn -0.025700 0.968700 -0.246700
vn -0.033400 0.956600 -0.289500
vn -0.027800 0.959200 -0.281400
vn -0.021700 0.970300 -0.241000
vn -0.002300 0.981500 -0.191300
vn 0.026200 0.985900 -0.165100
vn 0.039400 0.984500 -0.171100
vn 0.029100 0.983600 -0.178100
vn 0.015400 0.987200 -0.158500
vn 0.008500 0.994700 -0.102300
vn 0.003600 0.999400 -0.034700
vn 0.001300 1.000000 -0.003200
vn 0.012400 0.969600 -0.244200
vn -0.016500 0.955400 -0.294800
vn -0.021700 0.958800 -0.283200
vn 0.060300 0.989200 -0.133700
vn 0.082900 0.994400 -0.066200
vn 0.025200 0.984800 -0.172100
vn 0.045900 0.984500 -0.169400
vn -0.021200 0.969300 -0.245200
vn -0.006300 0.979700 -0.200500
vn 0.037600 0.984300 -0.172700
vn 0.021600 0.987500 -0.156300
vn 0.011700 0.994800 -0.101200
vn 0.004200 0.999400 -0.033600
vn 0.001100 1.000000 -0.002300
usemtl None
s 1
f 209//1 197//2 1//3 174//4
f 174//4 1//3 2//5 172//6
f 172//6 2//5 3//7 173//8
f 173//8 3//7 4//9 170//10
f 170//10 4//9 5//11 171//12
f 171//12 5//11 6//13 175//14
f 175//14 6//13 7//15 176//16
f 176//16 7//15 8//17 177//18
f 177//18 8//17 9//19 178//20
f 178//20 9//19 10//21 181//22
f 181//22 10//21 11//23 182//24
f 182//24 11//23 12//25 179//26
f 179//26 12//25 13//27 180//28
f 197//2 204//29 14//30 1//3
f 1//3 14//30 15//31 2//5
f 2//5 15//31 16//32 3//7
f 3//7 16//32 17//33 4//9
f 4//9 17//33 18//34 5//11
f 5//11 18//34 19//35 6//13
f 6//13 19//35 20//36 7//15
f 7//15 20//36 21//37 8//17
f 8//17 21//37 22//38 9//19
f 9//19 22//38 23//39 10//21
f 10//21 23//39 24//40 11//23
f 11//23 24//40 25//41 12//25
f 12//25 25//41 26//42 13//27
f 204//29 208//43 27//44 14//30
f 14//30 27//44 28//45 15//31
f 15//31 28//45 29//46 16//32
f 16//32 29//46 30//47 17//33
f 17//33 30//47 31//48 18//34
f 18//34 31//48 32//49 19//35
f 19//35 32//49 33//50 20//36
f 20//36 33//50 34//51 21//37
f 21//37 34//51 35//52 22//38
f 22//38 35//52 36//53 23//39
f 23//39 36//53 37//54 24//40
f 24//40 37//54 38//55 25//41
f 25//41 38//55 39//56 26//42
f 208//43 206//57 40//58 27//44
f 27//44 40//58 41//59 28//45
f 28//45 41//59 42//60 29//46
f 29//46 42//60 43//61 30//47
f 30//47 43//61 44//62 31//48
f 31//48 44//62 45//63 32//49
f 32//49 45//63 46//64 33//50
f 33//50 46//64 47//65 34//51
f 34//51 47//65 48//66 35//52
f 35//52 48//66 49//67 36//53
f 36//53 49//67 50//68 37//54
f 37//54 50//68 51//69 38//55
f 38//55 51//69 52//70 39//56
f 206//57 200//71 53//72 40//58
f 40//58 53//72 54//73 41//59
f 41//59 54//73 55//74 42//60
f 42//60 55//74 56//75 43//61
f 43//61 56//75 57//76 44//62
f 44//62 57//76 58//77 45//63
f 45//63 58//77 59//78 46//64
f 46//64 59//78 60//79 47//65
f 47//65 60//79 61//80 48//66
f 48//66 61//80 62//81 49//67
f 49//67 62//81 63//82 50//68
f 50//68 63//82 64//83 51//69
f 51//69 64//83 65//84 52//70
f 200//71 203//85 66//86 53//72
f 53//72 66//86 67//87 54//73
f 54//73 67//87 68//88 55//74
f 55//74 68//88 69//89 56//75
f 56//75 69//89 70//90 57//76
f 57//76 70//90 71//91 58//77
f 58//77 71//91 72//92 59//78
f 59//78 72//92 73//93 60//79
f 60//79 73//93 74//94 61//80
f 61//80 74//94 75//95 62//81
f 62//81 75//95 76//96 63//82
f 63//82 76//96 77//97 64//83
f 64//83 77//97 78//98 65//84
f 203//85 205//99 79//100 66//86
f 66//86 79//100 80//101 67//87
f 67//87 80//101 81//102 68//88
f 68//88 81//102 82//103 69//89
f 69//89 82//103 83//104 70//90
f 70//90 83//104 84//105 71//91
f 71//91 84//105 85//106 72//92
f 72//92 85//106 86//107 73//93
f 73//93 86//107 87//108 74//94
f 74//94 87//108 88//109 75//95
f 75//95 88//109 89//110 76//96
f 76//96 89//110 90//111 77//97
f 77//97 90//111 91//112 78//98
f 205//99 196//113 92//114 79//100
f 79//100 92//114 93//115 80//101
f 80//101 93//115 94//116 81//102
f 81//102 94//116 95//117 82//103
f 82//103 95//117 96//118 83//104
f 83//104 96//118 97//119 84//105
f 84//105 97//119 98//120 85//106
f 85//106 98//120 99//121 86//107
f 86//107 99//121 100//122 87//108
f 87//108 100//122 101//123 88//109
f 88//109 101//123 102//124 89//110
f 89//110 102//124 103//125 90//111
f 90//111 103//125 104//126 91//112
f 196//113 207//127 105//128 92//114
f 92//114 105//128 106//129 93//115
f 93//115 106//129 107//130 94//116
f 94//116 107//130 108//131 95//117
f 95//117 108//131 109//132 96//118
f 96//118 109//132 110//133 97//119
f 97//119 110//133 111//134 98//120
f 98//120 111//134 112//135 99//121
f 99//121 112//135 113//136 100//122
f 100//122 113//136 114//137 101//123
f 101//123 114//137 115//138 102//124
f 102//124 115//138 116//139 103//125
f 103//125 116//139 117//140 104//126
f 207//127 199//141 118//142 105//128
f 105//128 118//142 119//143 106//129
f 106//129 119//143 120//144 107//130
f 107//130 120//144 121//145 108//131
f 108//131 121//145 122//146 109//132
f 109//132 122//146 123//147 110//133
f 110//133 123//147 124//148 111//134
f 111//134 124//148 125//149 112//135
f 112//135 125//149 126//150 113//136
f 113//136 126//150 127//151 114//137
f 114//137 127//151 128//152 115//138
f 115//138 128//152 129//153 116//139
f 116//139 129//153 130//154 117//140
f 199//141 201//155 131//156 118//142
f 118//142 131//156 132//157 119//143
f 119//143 132//157 133//158 120//144
f 120//144 133//158 134//159 121//145
f 121//145 134//159 135//160 122//146
f 122//146 135//160 136//161 123//147
f 123//147 136//161 137//162 124//148
f 124//148 137//162 138//163 125//149
f 125//149 138//163 139//164 126//150
f 126//150 139//164 140//165 127//151
f 127//151 140//165 141//166 128//152
f 128//152 141//166 142//167 129//153
f 129//153 142//167 143//168 130//154
f 201//155 202//169 144//170 131//156
f 131//156 144//170 145//171 132//157
f 132//157 145//171 146//172 133//158
f 133//158 146//172 147//173 134//159
f 134//159 147//173 148//174 135//160
f 135//160 148//174 149//175 136//161
f 136//161 149//175 150//176 137//162
f 137//162 150//176 151//177 138//163
f 138//163 151//177 152//178 139//164
f 139//164 152//178 153//179 140//165
f 140//165 153//179 154//180 141//166
f 141//166 154//180 155//181 142//167
f 142//167 155//181 156//182 143//168
f 202//169 198//183 157//184 144//170
f 144//170 157//184 158//185 145//171
f 145//171 158//185 159//186 146//172
f 146//172 159//186 160//187 147//173
f 147//173 160//187 161//188 148//174
f 148//174 161//188 162//189 149//175
f 149//175 162//189 163//190 150//176
f 150//176 163//190 164//191 151//177
f 151//177 164//191 165//192 152//178
f 152//178 165//192 166//193 153//179
f 153//179 166//193 167//194 154//180
f 154//180 167//194 168//195 155//181
f 155//181 168//195 169//196 156//182
f 158//185 183//197 184//198 159//186
f 159//186 184//198 185//199 160//187
f 157//184 186//200 183//197 158//185
f 198//183 210//201 186//200 157//184
f 163//190 187//202 188//203 164//191
f 160//187 185//199 189//204 161//188
f 161//188 189//204 190//205 162//189
f 162//189 190//205 187//202 163//190
f 164//191 188//203 191//206 165//192
f 165//192 191//206 192//207 166//193
f 166//193 192//207 193//208 167//194
f 167//194 193//208 194//209 168//195
f 168//195 194//209 195//210 169//196
