# Blender v2.73 (sub 0) OBJ File: 'untitled.blend'
# www.blender.org
mtllib Landscape.060.mtl
o Landscape.060
v 65.939392 10.395569 -1.292929
v 65.939392 9.349439 -3.878788
v 65.939392 8.364620 -6.464646
v 65.939392 7.455648 -9.050505
v 65.939392 6.578698 -11.636364
v 65.939392 5.969979 -14.222222
v 65.939392 5.149858 -16.808081
v 65.939392 4.648276 -19.393940
v 65.939392 4.068884 -21.979797
v 65.939392 3.600883 -24.565657
v 65.939392 3.309220 -27.151516
v 65.939392 3.252974 -29.737373
v 68.525253 10.938226 -1.292929
v 68.525253 10.397508 -3.878788
v 68.525253 9.517531 -6.464646
v 68.525253 8.146315 -9.050505
v 68.525253 7.401321 -11.636364
v 68.525253 6.641446 -14.222222
v 68.525253 5.625267 -16.808081
v 68.525253 4.906698 -19.393940
v 68.525253 4.066461 -21.979797
v 68.525253 3.562787 -24.565657
v 68.525253 3.501656 -27.151516
v 68.525253 3.395478 -29.737373
v 71.111115 11.084359 -1.292929
v 71.111115 10.692417 -3.878788
v 71.111115 9.622967 -6.464646
v 71.111115 8.561103 -9.050505
v 71.111115 7.995631 -11.636364
v 71.111115 7.121461 -14.222222
v 71.111115 6.160968 -16.808081
v 71.111115 5.388246 -19.393940
v 71.111115 4.570366 -21.979797
v 71.111115 3.915296 -24.565657
v 71.111115 3.659091 -27.151516
v 71.111115 3.601847 -29.737373
v 73.696968 10.788727 -1.292929
v 73.696968 10.638143 -3.878788
v 73.696968 9.598103 -6.464646
v 73.696968 9.187541 -9.050505
v 73.696968 8.399986 -11.636364
v 73.696968 7.399333 -14.222222
v 73.696968 6.420975 -16.808081
v 73.696968 5.653269 -19.393940
v 73.696968 4.832632 -21.979797
v 73.696968 4.259322 -24.565657
v 73.696968 3.646359 -27.151516
v 73.696968 3.585891 -29.737373
v 76.282829 10.339788 -1.292929
v 76.282829 9.761305 -3.878788
v 76.282829 9.360456 -6.464646
v 76.282829 8.985792 -9.050505
v 76.282829 8.312689 -11.636364
v 76.282829 7.601628 -14.222222
v 76.282829 6.764186 -16.808081
v 76.282829 5.740982 -19.393940
v 76.282829 5.250896 -21.979797
v 76.282829 4.412986 -24.565657
v 76.282829 3.724001 -27.151516
v 76.282829 3.475881 -29.737373
v 78.868690 8.968666 -1.292929
v 78.868690 9.403644 -3.878788
v 78.868690 9.236808 -6.464646
v 78.868690 9.145883 -9.050505
v 78.868690 8.260591 -11.636364
v 78.868690 7.205965 -14.222222
v 78.868690 6.340136 -16.808081
v 78.868690 5.846514 -19.393940
v 78.868690 5.411126 -21.979797
v 78.868690 4.678275 -24.565657
v 78.868690 3.944827 -27.151516
v 78.868690 3.534679 -29.737373
v 81.454544 8.593626 -1.292929
v 81.454544 8.982223 -3.878788
v 81.454544 8.776556 -6.464646
v 81.454544 8.818745 -9.050505
v 81.454544 8.085074 -11.636364
v 81.454544 7.215999 -14.222222
v 81.454544 6.489222 -16.808081
v 81.454544 5.676993 -19.393940
v 81.454544 5.403367 -21.979797
v 81.454544 4.781763 -24.565657
v 81.454544 4.049966 -27.151516
v 81.454544 3.744343 -29.737373
v 84.040405 8.223017 -1.292929
v 84.040405 8.564519 -3.878788
v 84.040405 8.510530 -6.464646
v 84.040405 8.256596 -9.050505
v 84.040405 7.984171 -11.636364
v 84.040405 7.602650 -14.222222
v 84.040405 6.774451 -16.808081
v 84.040405 6.277041 -19.393940
v 84.040405 5.471333 -21.979797
v 84.040405 4.736806 -24.565657
v 84.040405 4.330478 -27.151516
v 84.040405 4.167522 -29.737373
v 86.626259 7.488683 -1.292929
v 86.626259 8.031932 -3.878788
v 86.626259 7.788163 -6.464646
v 86.626259 7.763998 -9.050505
v 86.626259 7.931836 -11.636364
v 86.626259 7.478806 -14.222222
v 86.626259 6.646892 -16.808081
v 86.626259 6.311646 -19.393940
v 86.626259 5.789805 -21.979797
v 86.626259 5.080372 -24.565657
v 86.626259 4.649324 -27.151516
v 86.626259 4.346107 -29.737373
v 89.212120 6.573410 -1.292929
v 89.212120 6.798947 -3.878788
v 89.212120 6.935341 -6.464646
v 89.212120 7.351356 -9.050505
v 89.212120 7.646415 -11.636364
v 89.212120 7.247157 -14.222222
v 89.212120 6.762466 -16.808081
v 89.212120 6.553224 -19.393940
v 89.212120 5.819153 -21.979797
v 89.212120 5.224750 -24.565657
v 89.212120 4.929772 -27.151516
v 89.212120 4.548856 -29.737373
v 91.797981 6.251061 -1.292929
v 91.797981 6.671763 -3.878788
v 91.797981 6.725453 -6.464646
v 91.797981 7.018087 -9.050505
v 91.797981 7.193808 -11.636364
v 91.797981 6.895782 -14.222222
v 91.797981 6.752343 -16.808081
v 91.797981 6.236264 -19.393940
v 91.797981 5.528456 -21.979797
v 91.797981 5.115113 -24.565657
v 91.797981 4.754950 -27.151516
v 91.797981 4.675834 -29.737373
v 94.383835 6.559125 -1.292929
v 94.383835 6.883423 -3.878788
v 94.383835 6.569618 -6.464646
v 94.383835 6.602401 -9.050505
v 94.383835 6.676579 -11.636364
v 94.383835 6.564170 -14.222222
v 94.383835 6.157504 -16.808081
v 94.383835 5.500129 -19.393940
v 94.383835 5.048542 -21.979797
v 94.383835 4.621769 -24.565657
v 94.383835 4.404872 -27.151516
v 94.383835 4.423187 -29.737373
v 64.000000 8.722579 -3.878788
v 64.000000 10.031958 -1.292929
v 64.000000 3.378221 -27.151516
v 64.000000 3.328308 -29.737373
v 64.000000 5.370234 -14.222222
v 64.000000 5.960269 -11.636364
v 64.000000 4.475632 -19.393940
v 64.000000 4.098446 -21.979797
v 64.000000 7.731264 -6.464646
v 64.000000 3.636849 -24.565657
v 64.000000 6.487400 -9.050505
v 64.000000 4.766677 -16.808081
v 96.000000 6.550591 -1.292929
v 96.000000 6.774883 -3.878788
v 96.000000 6.305921 -6.464646
v 96.000000 6.260582 -9.050505
v 96.000000 5.040499 -19.393940
v 96.000000 4.646516 -21.979797
v 96.000000 4.253105 -29.737373
v 96.000000 4.309061 -24.565657
v 96.000000 4.204885 -27.151516
v 96.000000 5.981030 -14.222222
v 96.000000 5.568175 -16.808081
v 96.000000 6.287501 -11.636364
v 84.040405 7.868542 0.000000
v 71.111115 10.941204 0.000000
v 68.525253 10.846369 0.000000
v 81.454544 8.344528 0.000000
v 91.797981 6.120688 0.000000
v 65.939392 10.315817 0.000000
v 86.626259 7.065532 0.000000
v 78.868690 8.863192 0.000000
v 89.212120 6.371739 0.000000
v 73.696968 10.575358 0.000000
v 94.383835 6.408801 0.000000
v 76.282829 10.178846 0.000000
v 64.000000 10.154989 0.000000
v 96.000000 6.387418 0.000000
v 89.212120 4.307722 -32.000000
v 86.626259 4.190767 -32.000000
v 84.040405 3.879902 -32.000000
v 81.454544 3.668276 -32.000000
v 73.696968 3.396020 -32.000000
v 71.111115 3.430724 -32.000000
v 76.282829 3.346318 -32.000000
v 78.868690 3.583537 -32.000000
v 91.797981 4.497602 -32.000000
v 65.939392 3.328781 -32.000000
v 64.000000 3.244869 -32.000000
v 94.383835 4.599524 -32.000000
v 96.000000 4.344387 -32.000000
v 68.525253 3.437678 -32.000000
vn -0.134000 0.990800 -0.016600
vn -0.168400 0.985400 0.023900
vn -0.216500 0.962900 -0.161100
vn -0.185600 0.957500 -0.221000
vn -0.294100 0.893900 -0.338200
vn -0.261200 0.891300 -0.370500
vn -0.329900 0.876200 -0.351300
vn -0.326100 0.877700 -0.351300
vn -0.325600 0.889400 -0.320800
vn -0.362900 0.883400 -0.296500
vn -0.301000 0.920600 -0.248500
vn -0.328700 0.916100 -0.229500
vn -0.251100 0.931600 -0.262800
vn -0.263900 0.934700 -0.237900
vn -0.180600 0.953500 -0.241300
vn -0.188300 0.960800 -0.203400
vn -0.090400 0.974300 -0.206400
vn -0.088000 0.982200 -0.166200
vn -0.014900 0.979200 -0.202100
vn -0.009900 0.983700 -0.179400
vn 0.005400 0.990900 -0.134000
vn 0.021800 0.989700 -0.141500
vn -0.007600 0.998400 -0.056400
vn 0.032100 0.997500 -0.063300
vn -0.019500 0.999800 -0.006900
vn 0.017500 0.999800 -0.011100
vn -0.125400 0.989100 0.077800
vn -0.155200 0.984900 -0.076100
vn -0.202000 0.937100 -0.284500
vn -0.213600 0.903800 -0.370900
vn -0.217800 0.916200 -0.336300
vn -0.229800 0.935200 -0.269300
vn -0.212900 0.928200 -0.305200
vn -0.177800 0.938800 -0.295100
vn -0.137900 0.953800 -0.266700
vn -0.094500 0.965800 -0.241600
vn -0.069900 0.988700 -0.132500
vn -0.065600 0.996700 -0.048000
vn -0.055500 0.998300 -0.016300
vn 0.040100 0.992700 0.113500
vn 0.015700 0.999800 -0.013900
vn -0.018600 0.967100 -0.253800
vn -0.065000 0.931700 -0.357200
vn -0.144900 0.943100 -0.299200
vn -0.172700 0.943900 -0.281400
vn -0.148800 0.930900 -0.333500
vn -0.140300 0.938600 -0.315200
vn -0.139600 0.946900 -0.289500
vn -0.137500 0.955100 -0.262300
vn -0.108900 0.979600 -0.168600
vn -0.056600 0.995900 -0.070300
vn -0.023300 0.998900 -0.040600
vn 0.143000 0.980000 0.138500
vn 0.150900 0.988500 0.009400
vn 0.132900 0.966000 -0.221500
vn 0.048700 0.962100 -0.268400
vn -0.039900 0.970700 -0.237000
vn -0.070600 0.953200 -0.293700
vn -0.085600 0.939000 -0.333100
vn -0.092700 0.941900 -0.322700
vn -0.091700 0.953000 -0.288800
vn -0.102700 0.960200 -0.259700
vn -0.081600 0.970800 -0.225700
vn -0.023700 0.992100 -0.123300
vn 0.013100 0.998200 -0.058000
vn 0.316900 0.941200 0.117100
vn 0.296500 0.954800 0.017500
vn 0.216600 0.966900 -0.134800
vn 0.093300 0.983800 -0.153200
vn 0.027600 0.979100 -0.201400
vn 0.023400 0.953800 -0.299400
vn 0.027500 0.946900 -0.320200
vn 0.008200 0.949500 -0.313500
vn -0.041500 0.965300 -0.257800
vn -0.082400 0.966400 -0.243400
vn -0.079800 0.961000 -0.264900
vn -0.045300 0.983700 -0.173900
vn -0.018400 0.997500 -0.068500
vn 0.315200 0.942100 0.114200
vn 0.277200 0.956500 0.091200
vn 0.183900 0.982800 -0.013500
vn 0.101100 0.992400 -0.069900
vn 0.054600 0.983600 -0.171700
vn 0.046400 0.948100 -0.314300
vn 0.058400 0.945900 -0.319100
vn 0.045000 0.958100 -0.282700
vn 0.011700 0.977600 -0.210200
vn -0.028200 0.976400 -0.214000
vn -0.056400 0.961100 -0.270100
vn -0.061000 0.977800 -0.200600
vn -0.057000 0.995800 -0.071700
vn 0.163100 0.970000 0.180400
vn 0.156600 0.974200 0.162700
vn 0.150400 0.987600 0.043500
vn 0.151700 0.987500 -0.042500
vn 0.132200 0.981900 -0.135500
vn 0.048700 0.961900 -0.268800
vn -0.044600 0.955400 -0.291800
vn -0.078700 0.960400 -0.267300
vn -0.062300 0.976400 -0.206700
vn -0.028400 0.976800 -0.212000
vn -0.026300 0.968200 -0.248600
vn -0.069800 0.981400 -0.178700
vn -0.093200 0.992600 -0.078200
vn 0.218400 0.942700 0.252300
vn 0.203700 0.958200 0.200700
vn 0.188400 0.980800 0.049300
vn 0.188200 0.980900 -0.049600
vn 0.154800 0.985000 -0.076400
vn 0.052600 0.987000 -0.151700
vn -0.023900 0.968800 -0.246700
vn -0.056000 0.966600 -0.249900
vn -0.084700 0.973100 -0.214000
vn -0.080100 0.966600 -0.243200
vn -0.074200 0.971900 -0.223500
vn -0.099800 0.985300 -0.138400
vn -0.111200 0.989800 -0.088900
vn 0.282200 0.926300 0.249500
vn 0.296700 0.933500 0.201300
vn 0.306100 0.950300 0.056300
vn 0.270200 0.962700 -0.013400
vn 0.176500 0.984000 0.022600
vn 0.092900 0.993600 -0.063500
vn 0.050300 0.974500 -0.218800
vn 0.004100 0.978900 -0.204200
vn -0.041900 0.981400 -0.187500
vn -0.067700 0.966200 -0.248800
vn -0.090700 0.975000 -0.202900
vn -0.098700 0.986600 -0.129500
vn -0.085700 0.991200 -0.101000
vn 0.198900 0.964100 0.175800
vn 0.218100 0.963600 0.154800
vn 0.229900 0.970600 0.070900
vn 0.196800 0.978800 0.056800
vn 0.156600 0.982900 0.096500
vn 0.134100 0.990500 -0.029200
vn 0.085600 0.982400 -0.165900
vn 0.021300 0.988000 -0.153100
vn 0.013700 0.982300 -0.186600
vn 0.026500 0.971500 -0.235400
vn 0.004200 0.984400 -0.175500
vn -0.027300 0.992200 -0.121100
vn -0.051500 0.993700 -0.099700
vn -0.002200 0.993100 0.117700
vn -0.004400 0.992100 0.125400
vn 0.010200 0.997900 0.063600
vn 0.067000 0.996700 0.046000
vn 0.135200 0.987200 0.083800
vn 0.160700 0.986800 -0.018400
vn 0.139600 0.984200 -0.108600
vn 0.137500 0.979900 -0.144400
vn 0.161300 0.964400 -0.209700
vn 0.149400 0.966700 -0.207600
vn 0.118600 0.982100 -0.146200
vn 0.085300 0.992800 -0.084100
vn 0.023400 0.998500 -0.048300
vn -0.052700 0.992100 0.114000
vn -0.042000 0.992000 0.119100
vn 0.010000 0.999800 0.012200
vn 0.099800 0.994400 -0.035200
vn 0.173100 0.984400 0.031700
vn 0.212000 0.977000 -0.022200
vn 0.240300 0.965400 -0.101600
vn 0.265700 0.948900 -0.170300
vn 0.256400 0.945700 -0.199700
vn 0.218800 0.961300 -0.167300
vn 0.178500 0.976800 -0.117900
vn 0.136600 0.989700 -0.042300
vn 0.097400 0.995100 0.014900
vn 0.009200 0.992700 0.120300
vn 0.022600 0.993300 0.112900
vn 0.075300 0.996900 -0.022100
vn 0.149500 0.985900 -0.075000
vn 0.202400 0.979300 0.008300
vn 0.277500 0.943000 -0.183800
vn 0.233700 0.960800 -0.149300
vn 0.185000 0.977500 -0.101700
vn 0.135200 0.990500 -0.024200
vn 0.122000 0.991900 0.035600
vn 0.313300 0.942900 -0.113500
vn 0.319000 0.930200 -0.181500
vn 0.254600 0.966600 -0.029600
vn -0.061200 0.994100 -0.089600
vn -0.077700 0.992700 -0.092100
vn -0.107700 0.990300 -0.088200
vn -0.089200 0.995100 -0.042800
vn 0.020300 0.997000 -0.074900
vn -0.014400 0.998400 -0.054000
vn -0.013100 0.998900 -0.044200
vn -0.057000 0.998300 -0.011900
vn -0.016000 0.998800 -0.046500
vn -0.025400 0.999600 0.012200
vn -0.002200 1.000000 -0.001700
vn 0.079700 0.996400 0.029000
vn 0.130200 0.989800 0.058500
vn -0.043500 0.999100 -0.001200
usemtl None
s 1
f 181//1 174//2 1//3 146//4
f 146//4 1//3 2//5 145//6
f 145//6 2//5 3//7 153//8
f 153//8 3//7 4//9 155//10
f 155//10 4//9 5//11 150//12
f 150//12 5//11 6//13 149//14
f 149//14 6//13 7//15 156//16
f 156//16 7//15 8//17 151//18
f 151//18 8//17 9//19 152//20
f 152//20 9//19 10//21 154//22
f 154//22 10//21 11//23 147//24
f 147//24 11//23 12//25 148//26
f 174//2 171//27 13//28 1//3
f 1//3 13//28 14//29 2//5
f 2//5 14//29 15//30 3//7
f 3//7 15//30 16//31 4//9
f 4//9 16//31 17//32 5//11
f 5//11 17//32 18//33 6//13
f 6//13 18//33 19//34 7//15
f 7//15 19//34 20//35 8//17
f 8//17 20//35 21//36 9//19
f 9//19 21//36 22//37 10//21
f 10//21 22//37 23//38 11//23
f 11//23 23//38 24//39 12//25
f 171//27 170//40 25//41 13//28
f 13//28 25//41 26//42 14//29
f 14//29 26//42 27//43 15//30
f 15//30 27//43 28//44 16//31
f 16//31 28//44 29//45 17//32
f 17//32 29//45 30//46 18//33
f 18//33 30//46 31//47 19//34
f 19//34 31//47 32//48 20//35
f 20//35 32//48 33//49 21//36
f 21//36 33//49 34//50 22//37
f 22//37 34//50 35//51 23//38
f 23//38 35//51 36//52 24//39
f 170//40 178//53 37//54 25//41
f 25//41 37//54 38//55 26//42
f 26//42 38//55 39//56 27//43
f 27//43 39//56 40//57 28//44
f 28//44 40//57 41//58 29//45
f 29//45 41//58 42//59 30//46
f 30//46 42//59 43//60 31//47
f 31//47 43//60 44//61 32//48
f 32//48 44//61 45//62 33//49
f 33//49 45//62 46//63 34//50
f 34//50 46//63 47//64 35//51
f 35//51 47//64 48//65 36//52
f 178//53 180//66 49//67 37//54
f 37//54 49//67 50//68 38//55
f 38//55 50//68 51//69 39//56
f 39//56 51//69 52//70 40//57
f 40//57 52//70 53//71 41//58
f 41//58 53//71 54//72 42//59
f 42//59 54//72 55//73 43//60
f 43//60 55//73 56//74 44//61
f 44//61 56//74 57//75 45//62
f 45//62 57//75 58//76 46//63
f 46//63 58//76 59//77 47//64
f 47//64 59//77 60//78 48//65
f 180//66 176//79 61//80 49//67
f 49//67 61//80 62//81 50//68
f 50//68 62//81 63//82 51//69
f 51//69 63//82 64//83 52//70
f 52//70 64//83 65//84 53//71
f 53//71 65//84 66//85 54//72
f 54//72 66//85 67//86 55//73
f 55//73 67//86 68//87 56//74
f 56//74 68//87 69//88 57//75
f 57//75 69//88 70//89 58//76
f 58//76 70//89 71//90 59//77
f 59//77 71//90 72//91 60//78
f 176//79 172//92 73//93 61//80
f 61//80 73//93 74//94 62//81
f 62//81 74//94 75//95 63//82
f 63//82 75//95 76//96 64//83
f 64//83 76//96 77//97 65//84
f 65//84 77//97 78//98 66//85
f 66//85 78//98 79//99 67//86
f 67//86 79//99 80//100 68//87
f 68//87 80//100 81//101 69//88
f 69//88 81//101 82//102 70//89
f 70//89 82//102 83//103 71//90
f 71//90 83//103 84//104 72//91
f 172//92 169//105 85//106 73//93
f 73//93 85//106 86//107 74//94
f 74//94 86//107 87//108 75//95
f 75//95 87//108 88//109 76//96
f 76//96 88//109 89//110 77//97
f 77//97 89//110 90//111 78//98
f 78//98 90//111 91//112 79//99
f 79//99 91//112 92//113 80//100
f 80//100 92//113 93//114 81//101
f 81//101 93//114 94//115 82//102
f 82//102 94//115 95//116 83//103
f 83//103 95//116 96//117 84//104
f 169//105 175//118 97//119 85//106
f 85//106 97//119 98//120 86//107
f 86//107 98//120 99//121 87//108
f 87//108 99//121 100//122 88//109
f 88//109 100//122 101//123 89//110
f 89//110 101//123 102//124 90//111
f 90//111 102//124 103//125 91//112
f 91//112 103//125 104//126 92//113
f 92//113 104//126 105//127 93//114
f 93//114 105//127 106//128 94//115
f 94//115 106//128 107//129 95//116
f 95//116 107//129 108//130 96//117
f 175//118 177//131 109//132 97//119
f 97//119 109//132 110//133 98//120
f 98//120 110//133 111//134 99//121
f 99//121 111//134 112//135 100//122
f 100//122 112//135 113//136 101//123
f 101//123 113//136 114//137 102//124
f 102//124 114//137 115//138 103//125
f 103//125 115//138 116//139 104//126
f 104//126 116//139 117//140 105//127
f 105//127 117//140 118//141 106//128
f 106//128 118//141 119//142 107//129
f 107//129 119//142 120//143 108//130
f 177//131 173//144 121//145 109//132
f 109//132 121//145 122//146 110//133
f 110//133 122//146 123//147 111//134
f 111//134 123//147 124//148 112//135
f 112//135 124//148 125//149 113//136
f 113//136 125//149 126//150 114//137
f 114//137 126//150 127//151 115//138
f 115//138 127//151 128//152 116//139
f 116//139 128//152 129//153 117//140
f 117//140 129//153 130//154 118//141
f 118//141 130//154 131//155 119//142
f 119//142 131//155 132//156 120//143
f 173//144 179//157 133//158 121//145
f 121//145 133//158 134//159 122//146
f 122//146 134//159 135//160 123//147
f 123//147 135//160 136//161 124//148
f 124//148 136//161 137//162 125//149
f 125//149 137//162 138//163 126//150
f 126//150 138//163 139//164 127//151
f 127//151 139//164 140//165 128//152
f 128//152 140//165 141//166 129//153
f 129//153 141//166 142//167 130//154
f 130//154 142//167 143//168 131//155
f 131//155 143//168 144//169 132//156
f 179//157 182//170 157//171 133//158
f 133//158 157//171 158//172 134//159
f 134//159 158//172 159//173 135//160
f 135//160 159//173 160//174 136//161
f 140//165 161//175 162//176 141//166
f 141//166 162//176 164//177 142//167
f 142//167 164//177 165//178 143//168
f 143//168 165//178 163//179 144//169
f 138//163 166//180 167//181 139//164
f 139//164 167//181 161//175 140//165
f 136//161 160//174 168//182 137//162
f 137//162 168//182 166//180 138//163
f 108//130 120//143 183//183 184//184
f 84//104 96//117 185//185 186//186
f 96//117 108//130 184//184 185//185
f 36//52 48//65 187//187 188//188
f 48//65 60//78 189//189 187//187
f 60//78 72//91 190//190 189//189
f 72//91 84//104 186//186 190//190
f 120//143 132//156 191//191 183//183
f 148//26 12//25 192//192 193//193
f 132//156 144//169 194//194 191//191
f 144//169 163//179 195//195 194//194
f 12//25 24//39 196//196 192//192
f 24//39 36//52 188//188 196//196
