# Blender v2.73 (sub 0) OBJ File: 'untitled.blend'
# www.blender.org
mtllib Landscape.008.mtl
o Landscape.008
v -128.000000 0.000000 -65.939392
v -128.000000 0.000000 -68.525253
v -128.000000 0.000000 -71.111115
v -128.000000 0.000000 -73.696968
v -128.000000 0.000000 -76.282829
v -128.000000 0.000000 -78.868690
v -128.000000 0.000000 -81.454544
v -128.000000 0.000000 -84.040405
v -128.000000 0.000000 -86.626259
v -128.000000 0.000000 -89.212120
v -128.000000 0.000000 -91.797981
v -128.000000 0.000000 -94.383835
v -125.414139 0.000813 -65.939392
v -125.414139 0.000000 -68.525253
v -125.414139 0.000000 -71.111115
v -125.414139 0.000000 -73.696968
v -125.414139 0.000000 -76.282829
v -125.414139 0.000000 -78.868690
v -125.414139 0.000000 -81.454544
v -125.414139 0.000000 -84.040405
v -125.414139 0.000000 -86.626259
v -125.414139 0.000000 -89.212120
v -125.414139 0.000000 -91.797981
v -125.414139 0.000000 -94.383835
v -122.828285 0.090402 -65.939392
v -122.828285 0.062815 -68.525253
v -122.828285 0.036090 -71.111115
v -122.828285 0.018024 -73.696968
v -122.828285 0.005891 -76.282829
v -122.828285 0.000543 -78.868690
v -122.828285 0.000000 -81.454544
v -122.828285 0.000000 -84.040405
v -122.828285 0.000000 -86.626259
v -122.828285 0.000000 -89.212120
v -122.828285 0.000000 -91.797981
v -122.828285 0.000000 -94.383835
v -120.242424 0.319992 -65.939392
v -120.242424 0.240247 -68.525253
v -120.242424 0.182724 -71.111115
v -120.242424 0.131627 -73.696968
v -120.242424 0.087588 -76.282829
v -120.242424 0.059952 -78.868690
v -120.242424 0.032430 -81.454544
v -120.242424 0.011824 -84.040405
v -120.242424 0.001210 -86.626259
v -120.242424 0.000000 -89.212120
v -120.242424 0.000000 -91.797981
v -120.242424 0.000000 -94.383835
v -117.656563 0.655166 -65.939392
v -117.656563 0.577777 -68.525253
v -117.656563 0.468533 -71.111115
v -117.656563 0.376689 -73.696968
v -117.656563 0.295403 -76.282829
v -117.656563 0.240337 -78.868690
v -117.656563 0.174662 -81.454544
v -117.656563 0.109581 -84.040405
v -117.656563 0.057817 -86.626259
v -117.656563 0.024807 -89.212120
v -117.656563 0.004287 -91.797981
v -117.656563 0.000000 -94.383835
v -115.070709 1.180869 -65.939392
v -115.070709 1.107058 -68.525253
v -115.070709 0.941872 -71.111115
v -115.070709 0.780192 -73.696968
v -115.070709 0.645844 -76.282829
v -115.070709 0.571954 -78.868690
v -115.070709 0.460654 -81.454544
v -115.070709 0.324951 -84.040405
v -115.070709 0.209669 -86.626259
v -115.070709 0.140654 -89.212120
v -115.070709 0.071209 -91.797981
v -115.070709 0.024023 -94.383835
v -112.484848 1.814314 -65.939392
v -112.484848 1.741663 -68.525253
v -112.484848 1.631321 -71.111115
v -112.484848 1.403640 -73.696968
v -112.484848 1.209116 -76.282829
v -112.484848 1.129062 -78.868690
v -112.484848 0.900079 -81.454544
v -112.484848 0.678244 -84.040405
v -112.484848 0.477616 -86.626259
v -112.484848 0.316012 -89.212120
v -112.484848 0.210346 -91.797981
v -112.484848 0.113417 -94.383835
v -109.898987 2.638248 -65.939392
v -109.898987 2.621914 -68.525253
v -109.898987 2.472030 -71.111115
v -109.898987 2.148257 -73.696968
v -109.898987 1.888026 -76.282829
v -109.898987 1.782302 -78.868690
v -109.898987 1.417128 -81.454544
v -109.898987 1.109341 -84.040405
v -109.898987 0.876810 -86.626259
v -109.898987 0.618514 -89.212120
v -109.898987 0.440067 -91.797981
v -109.898987 0.287581 -94.383835
v -107.313133 3.448009 -65.939392
v -107.313133 3.513779 -68.525253
v -107.313133 3.420807 -71.111115
v -107.313133 3.028440 -73.696968
v -107.313133 2.666612 -76.282829
v -107.313133 2.446982 -78.868690
v -107.313133 2.071271 -81.454544
v -107.313133 1.636862 -84.040405
v -107.313133 1.290682 -86.626259
v -107.313133 0.985941 -89.212120
v -107.313133 0.733974 -91.797981
v -107.313133 0.543588 -94.383835
v -104.727272 4.664263 -65.939392
v -104.727272 4.605935 -68.525253
v -104.727272 4.440832 -71.111115
v -104.727272 4.057997 -73.696968
v -104.727272 3.449053 -76.282829
v -104.727272 3.129746 -78.868690
v -104.727272 2.677786 -81.454544
v -104.727272 2.228490 -84.040405
v -104.727272 1.852413 -86.626259
v -104.727272 1.430993 -89.212120
v -104.727272 1.118391 -91.797981
v -104.727272 0.900646 -94.383835
v -102.141411 5.834827 -65.939392
v -102.141411 5.769899 -68.525253
v -102.141411 5.326768 -71.111115
v -102.141411 4.897983 -73.696968
v -102.141411 4.131301 -76.282829
v -102.141411 3.749488 -78.868690
v -102.141411 3.214673 -81.454544
v -102.141411 2.679849 -84.040405
v -102.141411 2.148924 -86.626259
v -102.141411 1.805910 -89.212120
v -102.141411 1.556689 -91.797981
v -102.141411 1.305204 -94.383835
v -99.555557 6.413085 -65.939392
v -99.555557 6.517070 -68.525253
v -99.555557 6.161082 -71.111115
v -99.555557 5.684852 -73.696968
v -99.555557 4.798011 -76.282829
v -99.555557 4.358831 -78.868690
v -99.555557 3.648304 -81.454544
v -99.555557 3.096126 -84.040405
v -99.555557 2.446746 -86.626259
v -99.555557 2.082702 -89.212120
v -99.555557 1.944237 -91.797981
v -99.555557 1.697764 -94.383835
v -96.969696 7.040505 -65.939392
v -96.969696 7.226575 -68.525253
v -96.969696 6.704972 -71.111115
v -96.969696 5.954758 -73.696968
v -96.969696 5.268153 -76.282829
v -96.969696 4.715077 -78.868690
v -96.969696 3.980991 -81.454544
v -96.969696 3.423090 -84.040405
v -96.969696 2.842569 -86.626259
v -96.969696 2.380774 -89.212120
v -96.969696 2.175072 -91.797981
v -96.969696 1.975544 -94.383835
v -96.000000 7.230882 -65.939392
v -96.000000 7.309207 -68.525253
v -96.000000 3.562312 -84.040405
v -96.000000 3.009697 -86.626259
v -96.000000 6.752433 -71.111115
v -96.000000 6.098963 -73.696968
v -96.000000 4.151160 -81.454544
v -96.000000 5.457928 -76.282829
v -96.000000 4.835319 -78.868690
v -96.000000 2.515994 -89.212120
v -96.000000 2.248935 -91.797981
v -96.000000 2.021400 -94.383835
v -104.727272 4.786447 -64.000000
v -117.656563 0.752072 -64.000000
v -99.555557 6.489338 -64.000000
v -122.828285 0.108300 -64.000000
v -102.141411 5.771374 -64.000000
v -120.242424 0.365143 -64.000000
v -115.070709 1.241841 -64.000000
v -107.313133 3.535203 -64.000000
v -96.969696 7.110276 -64.000000
v -125.414139 0.003569 -64.000000
v -109.898987 2.676226 -64.000000
v -112.484848 1.901136 -64.000000
v -128.000000 0.000000 -64.000000
v -96.000000 7.306643 -64.000000
v -96.000000 1.859918 -96.000000
v -96.969696 1.771106 -96.000000
v -125.414139 0.000000 -96.000000
v -128.000000 0.000000 -96.000000
v -109.898987 0.211138 -96.000000
v -112.484848 0.072715 -96.000000
v -115.070709 0.010513 -96.000000
v -102.141411 1.154150 -96.000000
v -104.727272 0.776009 -96.000000
v -107.313133 0.440536 -96.000000
v -122.828285 0.000000 -96.000000
v -120.242424 0.000000 -96.000000
v -99.555557 1.520324 -96.000000
v -117.656563 0.000000 -96.000000
vn -0.000800 1.000000 -0.000700
vn -0.019200 0.999800 -0.003000
vn -0.017000 0.999800 -0.002900
vn -0.000500 1.000000 -0.000400
vn -0.012200 0.999900 -0.002700
vn -0.000100 1.000000 -0.000100
vn -0.007400 1.000000 -0.002100
vn 0.000000 1.000000 0.000000
vn -0.003800 1.000000 -0.001400
vn -0.001500 1.000000 -0.000800
vn -0.000300 1.000000 -0.000300
vn -0.065600 0.997800 -0.010800
vn -0.059800 0.998100 -0.011900
vn -0.047400 0.998800 -0.011900
vn -0.035600 0.999300 -0.009600
vn -0.025800 0.999600 -0.007500
vn -0.017700 0.999800 -0.005100
vn -0.011600 0.999900 -0.003200
vn -0.006600 1.000000 -0.002300
vn -0.002700 1.000000 -0.001500
vn -0.000700 1.000000 -0.000500
vn -0.116000 0.992900 -0.026200
vn -0.109800 0.993600 -0.025800
vn -0.097400 0.994900 -0.024800
vn -0.083600 0.996200 -0.022300
vn -0.069300 0.997400 -0.019000
vn -0.056800 0.998300 -0.014300
vn -0.045500 0.998900 -0.011400
vn -0.033700 0.999400 -0.011000
vn -0.021800 0.999700 -0.008600
vn -0.012100 0.999900 -0.005200
vn -0.005400 1.000000 -0.002700
vn -0.001600 1.000000 -0.001200
vn -0.000200 1.000000 -0.000200
vn -0.165600 0.985500 -0.038100
vn -0.164900 0.985700 -0.033700
vn -0.159700 0.986500 -0.035700
vn -0.144700 0.988600 -0.039900
vn -0.125100 0.991500 -0.035300
vn -0.109300 0.993700 -0.026500
vn -0.096600 0.995000 -0.023200
vn -0.080900 0.996300 -0.026800
vn -0.060900 0.997800 -0.024800
vn -0.042000 0.998900 -0.017600
vn -0.027100 0.999500 -0.011900
vn -0.014800 0.999800 -0.008000
vn -0.006300 1.000000 -0.003700
vn -0.217600 0.975300 -0.038400
vn -0.218200 0.975300 -0.033200
vn -0.219100 0.974900 -0.039900
vn -0.212700 0.975500 -0.056200
vn -0.195100 0.979200 -0.056100
vn -0.177500 0.983300 -0.039200
vn -0.162600 0.985900 -0.038100
vn -0.138800 0.989000 -0.051300
vn -0.109400 0.992700 -0.049900
vn -0.081700 0.995900 -0.039200
vn -0.058200 0.997900 -0.028800
vn -0.039400 0.999000 -0.022200
vn -0.024400 0.999600 -0.014700
vn -0.269100 0.962500 -0.033800
vn -0.272300 0.961800 -0.027900
vn -0.278800 0.959700 -0.035800
vn -0.275200 0.958900 -0.068500
vn -0.256200 0.963300 -0.080100
vn -0.237200 0.970000 -0.052500
vn -0.217500 0.974200 -0.060100
vn -0.184700 0.979000 -0.086000
vn -0.152000 0.985300 -0.077800
vn -0.124100 0.990000 -0.066900
vn -0.095600 0.994000 -0.053200
vn -0.071200 0.996600 -0.041000
vn -0.052900 0.998100 -0.032200
vn -0.301100 0.953100 -0.030700
vn -0.306900 0.951600 -0.017200
vn -0.319100 0.947400 -0.024800
vn -0.318600 0.944400 -0.081000
vn -0.297600 0.948600 -0.107300
vn -0.271400 0.959700 -0.073300
vn -0.245800 0.965500 -0.086200
vn -0.216100 0.968700 -0.122000
vn -0.184000 0.977000 -0.107600
vn -0.154600 0.983400 -0.094800
vn -0.127800 0.988500 -0.081000
vn -0.103000 0.992700 -0.062700
vn -0.084200 0.995100 -0.051300
vn -0.370000 0.928200 -0.039900
vn -0.364500 0.931000 -0.017200
vn -0.358800 0.933200 -0.020000
vn -0.352700 0.931400 -0.089600
vn -0.331100 0.933200 -0.139400
vn -0.292300 0.949700 -0.112000
vn -0.256000 0.960100 -0.112800
vn -0.231800 0.961300 -0.148500
vn -0.209400 0.968200 -0.136800
vn -0.182900 0.975500 -0.122000
vn -0.155400 0.981900 -0.108200
vn -0.132700 0.987600 -0.083300
vn -0.118200 0.990700 -0.067100
vn -0.407200 0.912800 -0.031100
vn -0.408700 0.912400 -0.020900
vn -0.391100 0.919300 -0.044100
vn -0.355500 0.928200 -0.109900
vn -0.319600 0.930700 -0.177700
vn -0.279100 0.946300 -0.162800
vn -0.241900 0.959900 -0.141800
vn -0.215200 0.961500 -0.171100
vn -0.191000 0.967800 -0.163700
vn -0.168500 0.974700 -0.146900
vn -0.157400 0.979700 -0.123900
vn -0.153400 0.983600 -0.095200
vn -0.145800 0.986100 -0.080200
vn -0.315200 0.949000 -0.008600
vn -0.322500 0.946500 -0.007800
vn -0.329700 0.941600 -0.067700
vn -0.316700 0.937900 -0.141600
vn -0.285600 0.934100 -0.214200
vn -0.253500 0.945100 -0.206200
vn -0.221500 0.959400 -0.174200
vn -0.187600 0.961700 -0.199800
vn -0.154600 0.968600 -0.194800
vn -0.127900 0.977500 -0.167700
vn -0.129600 0.984800 -0.115200
vn -0.147600 0.984800 -0.091300
vn -0.150600 0.984300 -0.092000
vn -0.238800 0.970900 -0.020000
vn -0.244100 0.969700 0.005400
vn -0.255800 0.964700 -0.062100
vn -0.241900 0.954200 -0.176100
vn -0.210700 0.946700 -0.243600
vn -0.198100 0.952400 -0.231600
vn -0.178200 0.961500 -0.209000
vn -0.150900 0.962100 -0.227000
vn -0.137900 0.966800 -0.215300
vn -0.127400 0.974400 -0.185300
vn -0.117300 0.987200 -0.107800
vn -0.118600 0.989700 -0.080100
vn -0.122900 0.987400 -0.099300
vn -0.214900 0.975900 -0.036700
vn -0.205500 0.978600 0.007900
vn -0.172400 0.982800 -0.065900
vn -0.136900 0.967200 -0.214000
vn -0.137200 0.957000 -0.255400
vn -0.152200 0.959900 -0.235400
vn -0.145000 0.961500 -0.233400
vn -0.137100 0.961600 -0.237700
vn -0.141200 0.966200 -0.215600
vn -0.142600 0.970500 -0.194400
vn -0.122800 0.984700 -0.123200
vn -0.091800 0.992500 -0.081000
vn -0.082200 0.991700 -0.099100
vn -0.167600 0.985800 0.006900
vn -0.103500 0.991700 -0.076600
vn -0.195400 0.980000 -0.036800
vn -0.153200 0.965000 -0.212700
vn -0.152000 0.968800 -0.195900
vn -0.080200 0.969400 -0.232100
vn -0.129000 0.958700 -0.253300
vn -0.148300 0.959700 -0.238500
vn -0.159400 0.959400 -0.232600
vn -0.148600 0.959300 -0.240000
vn -0.129600 0.982200 -0.135800
vn -0.084200 0.992700 -0.086400
vn -0.065100 0.993100 -0.097200
vn -0.068800 0.991300 -0.112200
vn -0.085000 0.989800 -0.114500
vn -0.076800 0.996000 -0.045700
vn -0.044800 0.998600 -0.026500
vn -0.018000 0.999800 -0.010500
vn -0.146800 0.984900 -0.092000
vn -0.140700 0.987100 -0.076800
vn -0.112800 0.991700 -0.062400
vn -0.122900 0.986500 -0.108300
vn -0.003300 1.000000 -0.002100
usemtl None
s 1
f 181//1 178//2 13//3 1//4
f 1//4 13//3 14//5 2//6
f 2//6 14//5 15//7 3//8
f 3//8 15//7 16//9 4//8
f 4//8 16//9 17//10 5//8
f 5//8 17//10 18//11 6//8
f 6//8 18//11 19//8 7//8
f 7//8 19//8 20//8 8//8
f 8//8 20//8 21//8 9//8
f 9//8 21//8 22//8 10//8
f 10//8 22//8 23//8 11//8
f 11//8 23//8 24//8 12//8
f 178//2 172//12 25//13 13//3
f 13//3 25//13 26//14 14//5
f 14//5 26//14 27//15 15//7
f 15//7 27//15 28//16 16//9
f 16//9 28//16 29//17 17//10
f 17//10 29//17 30//18 18//11
f 18//11 30//18 31//19 19//8
f 19//8 31//19 32//20 20//8
f 20//8 32//20 33//21 21//8
f 21//8 33//21 34//8 22//8
f 22//8 34//8 35//8 23//8
f 23//8 35//8 36//8 24//8
f 172//12 174//22 37//23 25//13
f 25//13 37//23 38//24 26//14
f 26//14 38//24 39//25 27//15
f 27//15 39//25 40//26 28//16
f 28//16 40//26 41//27 29//17
f 29//17 41//27 42//28 30//18
f 30//18 42//28 43//29 31//19
f 31//19 43//29 44//30 32//20
f 32//20 44//30 45//31 33//21
f 33//21 45//31 46//32 34//8
f 34//8 46//32 47//33 35//8
f 35//8 47//33 48//34 36//8
f 174//22 170//35 49//36 37//23
f 37//23 49//36 50//37 38//24
f 38//24 50//37 51//38 39//25
f 39//25 51//38 52//39 40//26
f 40//26 52//39 53//40 41//27
f 41//27 53//40 54//41 42//28
f 42//28 54//41 55//42 43//29
f 43//29 55//42 56//43 44//30
f 44//30 56//43 57//44 45//31
f 45//31 57//44 58//45 46//32
f 46//32 58//45 59//46 47//33
f 47//33 59//46 60//47 48//34
f 170//35 175//48 61//49 49//36
f 49//36 61//49 62//50 50//37
f 50//37 62//50 63//51 51//38
f 51//38 63//51 64//52 52//39
f 52//39 64//52 65//53 53//40
f 53//40 65//53 66//54 54//41
f 54//41 66//54 67//55 55//42
f 55//42 67//55 68//56 56//43
f 56//43 68//56 69//57 57//44
f 57//44 69//57 70//58 58//45
f 58//45 70//58 71//59 59//46
f 59//46 71//59 72//60 60//47
f 175//48 180//61 73//62 61//49
f 61//49 73//62 74//63 62//50
f 62//50 74//63 75//64 63//51
f 63//51 75//64 76//65 64//52
f 64//52 76//65 77//66 65//53
f 65//53 77//66 78//67 66//54
f 66//54 78//67 79//68 67//55
f 67//55 79//68 80//69 68//56
f 68//56 80//69 81//70 69//57
f 69//57 81//70 82//71 70//58
f 70//58 82//71 83//72 71//59
f 71//59 83//72 84//73 72//60
f 180//61 179//74 85//75 73//62
f 73//62 85//75 86//76 74//63
f 74//63 86//76 87//77 75//64
f 75//64 87//77 88//78 76//65
f 76//65 88//78 89//79 77//66
f 77//66 89//79 90//80 78//67
f 78//67 90//80 91//81 79//68
f 79//68 91//81 92//82 80//69
f 80//69 92//82 93//83 81//70
f 81//70 93//83 94//84 82//71
f 82//71 94//84 95//85 83//72
f 83//72 95//85 96//86 84//73
f 179//74 176//87 97//88 85//75
f 85//75 97//88 98//89 86//76
f 86//76 98//89 99//90 87//77
f 87//77 99//90 100//91 88//78
f 88//78 100//91 101//92 89//79
f 89//79 101//92 102//93 90//80
f 90//80 102//93 103//94 91//81
f 91//81 103//94 104//95 92//82
f 92//82 104//95 105//96 93//83
f 93//83 105//96 106//97 94//84
f 94//84 106//97 107//98 95//85
f 95//85 107//98 108//99 96//86
f 176//87 169//100 109//101 97//88
f 97//88 109//101 110//102 98//89
f 98//89 110//102 111//103 99//90
f 99//90 111//103 112//104 100//91
f 100//91 112//104 113//105 101//92
f 101//92 113//105 114//106 102//93
f 102//93 114//106 115//107 103//94
f 103//94 115//107 116//108 104//95
f 104//95 116//108 117//109 105//96
f 105//96 117//109 118//110 106//97
f 106//97 118//110 119//111 107//98
f 107//98 119//111 120//112 108//99
f 169//100 173//113 121//114 109//101
f 109//101 121//114 122//115 110//102
f 110//102 122//115 123//116 111//103
f 111//103 123//116 124//117 112//104
f 112//104 124//117 125//118 113//105
f 113//105 125//118 126//119 114//106
f 114//106 126//119 127//120 115//107
f 115//107 127//120 128//121 116//108
f 116//108 128//121 129//122 117//109
f 117//109 129//122 130//123 118//110
f 118//110 130//123 131//124 119//111
f 119//111 131//124 132//125 120//112
f 173//113 171//126 133//127 121//114
f 121//114 133//127 134//128 122//115
f 122//115 134//128 135//129 123//116
f 123//116 135//129 136//130 124//117
f 124//117 136//130 137//131 125//118
f 125//118 137//131 138//132 126//119
f 126//119 138//132 139//133 127//120
f 127//120 139//133 140//134 128//121
f 128//121 140//134 141//135 129//122
f 129//122 141//135 142//136 130//123
f 130//123 142//136 143//137 131//124
f 131//124 143//137 144//138 132//125
f 171//126 177//139 145//140 133//127
f 133//127 145//140 146//141 134//128
f 134//128 146//141 147//142 135//129
f 135//129 147//142 148//143 136//130
f 136//130 148//143 149//144 137//131
f 137//131 149//144 150//145 138//132
f 138//132 150//145 151//146 139//133
f 139//133 151//146 152//147 140//134
f 140//134 152//147 153//148 141//135
f 141//135 153//148 154//149 142//136
f 142//136 154//149 155//150 143//137
f 143//137 155//150 156//151 144//138
f 145//140 157//152 158//153 146//141
f 177//139 182//154 157//152 145//140
f 152//147 159//155 160//156 153//148
f 146//141 158//153 161//157 147//142
f 147//142 161//157 162//158 148//143
f 151//146 163//159 159//155 152//147
f 148//143 162//158 164//160 149//144
f 149//144 164//160 165//161 150//145
f 150//145 165//161 163//159 151//146
f 153//148 160//156 166//162 154//149
f 154//149 166//162 167//163 155//150
f 155//150 167//163 168//164 156//151
f 156//151 168//164 183//165 184//166
f 12//8 24//8 185//8 186//8
f 84//73 96//86 187//167 188//168
f 72//60 84//73 188//168 189//169
f 120//112 132//125 190//170 191//171
f 96//86 108//99 192//172 187//167
f 108//99 120//112 191//171 192//172
f 24//8 36//8 193//8 185//8
f 36//8 48//34 194//8 193//8
f 132//125 144//138 195//173 190//170
f 144//138 156//151 184//166 195//173
f 48//34 60//47 196//174 194//8
f 60//47 72//60 189//169 196//174
