# Blender v2.73 (sub 0) OBJ File: 'untitled.blend'
# www.blender.org
mtllib Landscape.061.mtl
o Landscape.061
v 65.939392 3.339610 -32.323231
v 65.939392 3.450152 -34.909092
v 65.939392 3.204875 -37.494949
v 65.939392 3.413530 -40.080807
v 65.939392 3.801031 -42.666668
v 65.939392 4.321083 -45.252525
v 65.939392 5.180632 -47.838383
v 65.939392 5.737678 -50.424244
v 65.939392 6.205247 -53.010101
v 65.939392 6.834541 -55.595959
v 65.939392 7.055897 -58.181820
v 65.939392 7.049233 -60.767677
v 65.939392 7.402443 -63.353535
v 68.525253 3.443707 -32.323231
v 68.525253 3.351757 -34.909092
v 68.525253 3.317607 -37.494949
v 68.525253 3.466982 -40.080807
v 68.525253 3.797668 -42.666668
v 68.525253 4.346133 -45.252525
v 68.525253 5.047604 -47.838383
v 68.525253 5.467795 -50.424244
v 68.525253 6.202277 -53.010101
v 68.525253 6.847243 -55.595959
v 68.525253 7.093544 -58.181820
v 68.525253 7.260253 -60.767677
v 68.525253 7.487105 -63.353535
v 71.111115 3.406278 -32.323231
v 71.111115 3.309817 -34.909092
v 71.111115 3.237686 -37.494949
v 71.111115 3.348266 -40.080807
v 71.111115 3.847783 -42.666668
v 71.111115 4.350685 -45.252525
v 71.111115 5.191980 -47.838383
v 71.111115 5.959653 -50.424244
v 71.111115 6.316298 -53.010101
v 71.111115 6.987642 -55.595959
v 71.111115 7.040531 -58.181820
v 71.111115 7.010405 -60.767677
v 71.111115 7.219619 -63.353535
v 73.696968 3.368896 -32.323231
v 73.696968 3.317559 -34.909092
v 73.696968 3.260944 -37.494949
v 73.696968 3.470386 -40.080807
v 73.696968 3.870282 -42.666668
v 73.696968 4.354620 -45.252525
v 73.696968 5.124095 -47.838383
v 73.696968 5.874821 -50.424244
v 73.696968 6.224143 -53.010101
v 73.696968 6.565309 -55.595959
v 73.696968 6.591947 -58.181820
v 73.696968 6.549136 -60.767677
v 73.696968 7.002370 -63.353535
v 76.282829 3.327810 -32.323231
v 76.282829 3.292459 -34.909092
v 76.282829 3.432405 -37.494949
v 76.282829 3.735641 -40.080807
v 76.282829 4.026146 -42.666668
v 76.282829 4.352293 -45.252525
v 76.282829 5.200846 -47.838383
v 76.282829 5.778135 -50.424244
v 76.282829 6.049412 -53.010101
v 76.282829 6.170293 -55.595959
v 76.282829 6.216540 -58.181820
v 76.282829 6.391207 -60.767677
v 76.282829 6.496475 -63.353535
v 78.868690 3.590516 -32.323231
v 78.868690 3.520919 -34.909092
v 78.868690 3.751308 -37.494949
v 78.868690 4.094736 -40.080807
v 78.868690 4.296765 -42.666668
v 78.868690 4.293985 -45.252525
v 78.868690 4.691917 -47.838383
v 78.868690 5.373265 -50.424244
v 78.868690 5.770390 -53.010101
v 78.868690 5.585278 -55.595959
v 78.868690 5.600879 -58.181820
v 78.868690 5.688655 -60.767677
v 78.868690 5.767587 -63.353535
v 81.454544 3.657409 -32.323231
v 81.454544 3.779457 -34.909092
v 81.454544 3.927618 -37.494949
v 81.454544 4.170985 -40.080807
v 81.454544 4.302610 -42.666668
v 81.454544 4.044196 -45.252525
v 81.454544 4.159120 -47.838383
v 81.454544 4.741475 -50.424244
v 81.454544 5.137045 -53.010101
v 81.454544 5.168227 -55.595959
v 81.454544 5.422808 -58.181820
v 81.454544 5.509270 -60.767677
v 81.454544 5.674361 -63.353535
v 84.040405 3.838814 -32.323231
v 84.040405 3.756429 -34.909092
v 84.040405 3.848115 -37.494949
v 84.040405 4.189435 -40.080807
v 84.040405 4.448593 -42.666668
v 84.040405 4.275774 -45.252525
v 84.040405 4.214186 -47.838383
v 84.040405 4.518047 -50.424244
v 84.040405 4.709930 -53.010101
v 84.040405 4.691616 -55.595959
v 84.040405 4.858706 -58.181820
v 84.040405 5.018185 -60.767677
v 84.040405 5.412862 -63.353535
v 86.626259 4.168576 -32.323231
v 86.626259 3.878049 -34.909092
v 86.626259 3.770092 -37.494949
v 86.626259 4.135634 -40.080807
v 86.626259 4.317773 -42.666668
v 86.626259 4.567791 -45.252525
v 86.626259 4.311372 -47.838383
v 86.626259 4.261827 -50.424244
v 86.626259 4.421163 -53.010101
v 86.626259 4.419398 -55.595959
v 86.626259 4.588866 -58.181820
v 86.626259 4.985249 -60.767677
v 86.626259 5.261448 -63.353535
v 89.212120 4.273274 -32.323231
v 89.212120 3.916237 -34.909092
v 89.212120 3.969378 -37.494949
v 89.212120 4.414410 -40.080807
v 89.212120 4.586483 -42.666668
v 89.212120 4.719492 -45.252525
v 89.212120 4.326027 -47.838383
v 89.212120 4.201094 -50.424244
v 89.212120 4.291338 -53.010101
v 89.212120 4.041549 -55.595959
v 89.212120 4.329707 -58.181820
v 89.212120 4.613108 -60.767677
v 89.212120 5.214695 -63.353535
v 91.797981 4.472140 -32.323231
v 91.797981 4.241056 -34.909092
v 91.797981 4.342443 -37.494949
v 91.797981 4.440018 -40.080807
v 91.797981 4.398643 -42.666668
v 91.797981 4.632081 -45.252525
v 91.797981 4.321893 -47.838383
v 91.797981 4.315534 -50.424244
v 91.797981 4.235050 -53.010101
v 91.797981 4.191544 -55.595959
v 91.797981 4.362558 -58.181820
v 91.797981 4.791183 -60.767677
v 91.797981 5.134808 -63.353535
v 94.383835 4.624715 -32.323231
v 94.383835 4.537537 -34.909092
v 94.383835 4.160278 -37.494949
v 94.383835 4.040082 -40.080807
v 94.383835 4.021560 -42.666668
v 94.383835 4.242666 -45.252525
v 94.383835 4.350757 -47.838383
v 94.383835 4.210722 -50.424244
v 94.383835 4.025354 -53.010101
v 94.383835 4.222113 -55.595959
v 94.383835 4.395868 -58.181820
v 94.383835 4.609579 -60.767677
v 94.383835 4.806787 -63.353535
v 64.000000 3.475668 -40.080807
v 64.000000 3.840610 -42.666668
v 64.000000 4.470376 -45.252525
v 64.000000 3.263900 -37.494949
v 64.000000 3.232949 -32.323231
v 64.000000 3.305809 -34.909092
v 64.000000 6.477324 -53.010101
v 64.000000 7.065142 -55.595959
v 64.000000 5.183299 -47.838383
v 64.000000 6.820423 -60.767677
v 64.000000 7.265159 -63.353535
v 64.000000 5.845626 -50.424244
v 64.000000 6.996074 -58.181820
v 96.000000 4.135540 -55.595959
v 96.000000 4.235159 -58.181820
v 96.000000 3.907313 -40.080807
v 96.000000 3.812034 -42.666668
v 96.000000 3.913366 -45.252525
v 96.000000 3.932306 -47.838383
v 96.000000 3.889766 -50.424244
v 96.000000 3.844041 -53.010101
v 96.000000 4.433475 -60.767677
v 96.000000 4.612167 -63.353535
v 96.000000 4.392295 -34.909092
v 96.000000 4.090184 -37.494949
v 96.000000 4.357427 -32.323231
v 68.525253 3.437678 -32.000000
v 94.383835 4.599524 -32.000000
v 65.939392 3.328781 -32.000000
v 91.797981 4.497602 -32.000000
v 78.868690 3.583537 -32.000000
v 73.696968 3.396020 -32.000000
v 84.040405 3.879902 -32.000000
v 71.111115 3.430724 -32.000000
v 86.626259 4.190767 -32.000000
v 81.454544 3.668276 -32.000000
v 89.212120 4.307722 -32.000000
v 76.282829 3.346318 -32.000000
v 64.000000 3.244869 -32.000000
v 96.000000 4.344387 -32.000000
v 96.000000 4.613497 -64.000000
v 94.383835 4.871130 -64.000000
v 71.111115 7.320519 -64.000000
v 68.525253 7.541330 -64.000000
v 73.696968 7.082576 -64.000000
v 65.939392 7.514744 -64.000000
v 64.000000 7.402684 -64.000000
v 86.626259 5.366974 -64.000000
v 84.040405 5.446097 -64.000000
v 89.212120 5.307857 -64.000000
v 76.282829 6.667516 -64.000000
v 78.868690 5.916777 -64.000000
v 91.797981 5.222728 -64.000000
v 81.454544 5.740286 -64.000000
vn -0.049100 0.998800 -0.001700
vn -0.045100 0.998900 0.012200
vn -0.039000 0.999100 0.015800
vn -0.056800 0.998200 0.016800
vn -0.022600 0.999600 -0.017600
vn -0.043300 0.999000 -0.010000
vn -0.006400 0.999900 0.010200
vn 0.004600 0.999900 0.012900
vn 0.003800 0.994100 0.107900
vn 0.028500 0.993200 0.112600
vn 0.014900 0.984400 0.175200
vn 0.036800 0.982900 0.180600
vn 0.025200 0.968000 0.249700
vn 0.042400 0.966200 0.254400
vn 0.040500 0.967700 0.248600
vn 0.032600 0.965000 0.260200
vn 0.062500 0.975200 0.212200
vn 0.061900 0.973900 0.218200
vn 0.067400 0.972000 0.225100
vn 0.110600 0.969800 0.217400
vn 0.040000 0.988200 0.147900
vn 0.084800 0.988100 0.128400
vn -0.022000 0.999300 0.028900
vn -0.015200 0.999900 -0.002900
vn -0.068200 0.995500 0.065000
vn -0.083900 0.994800 0.058200
vn -0.058500 0.987600 0.145200
vn -0.078100 0.982300 0.170500
vn -0.016300 0.999900 -0.001200
vn -0.004600 0.999900 -0.008800
vn 0.008700 0.999600 -0.026800
vn 0.006700 0.999900 0.011200
vn 0.002400 0.994600 0.104000
vn -0.002700 0.984600 0.174400
vn -0.005500 0.969700 0.244300
vn -0.012500 0.969000 0.246700
vn -0.026200 0.977200 0.210500
vn -0.028200 0.972900 0.229600
vn -0.019100 0.987000 0.159200
vn -0.004000 0.998700 0.051300
vn 0.013300 0.997900 0.063400
vn 0.028700 0.993400 0.110600
vn 0.011200 0.998500 -0.054000
vn 0.010900 0.999000 -0.043200
vn 0.009600 0.999500 -0.027600
vn 0.007000 0.999800 0.016600
vn -0.001000 0.993900 0.110400
vn -0.007400 0.983800 0.179200
vn -0.007800 0.970000 0.242800
vn -0.026900 0.961900 0.272100
vn -0.042500 0.976400 0.211600
vn -0.007500 0.980700 0.195300
vn 0.050000 0.990500 0.127900
vn 0.095500 0.995200 0.021400
vn 0.115300 0.991800 0.055700
vn 0.102100 0.987900 0.116600
vn 0.015700 0.997100 -0.075000
vn 0.012500 0.998700 -0.048800
vn -0.003900 0.999900 -0.013500
vn -0.036500 0.998600 0.037800
vn -0.055000 0.991700 0.116000
vn -0.035600 0.986200 0.161400
vn -0.009100 0.971900 0.235100
vn 0.007500 0.959400 0.281700
vn 0.029600 0.980000 0.196700
vn 0.073200 0.988300 0.133500
vn 0.130200 0.988400 0.077800
vn 0.147400 0.989000 0.010100
vn 0.133100 0.989200 0.060900
vn 0.129000 0.981700 0.140100
vn -0.039500 0.998200 -0.044100
vn -0.040100 0.998700 -0.031300
vn -0.053800 0.998400 0.012500
vn -0.086600 0.993200 0.077200
vn -0.103400 0.988300 0.112000
vn -0.067900 0.991500 0.111000
vn 0.005600 0.982100 0.188300
vn 0.066900 0.964800 0.254100
vn 0.088700 0.979200 0.182400
vn 0.114200 0.990200 0.080600
vn 0.162100 0.986400 0.025600
vn 0.181200 0.983100 0.025100
vn 0.186100 0.981000 0.053900
vn 0.210000 0.967400 0.141500
vn -0.062800 0.998000 -0.011900
vn -0.070700 0.997400 -0.008400
vn -0.086600 0.995700 0.033400
vn -0.091700 0.991200 0.095000
vn -0.078400 0.992000 0.098600
vn -0.032500 0.998500 0.042700
vn 0.065900 0.994100 0.086200
vn 0.160000 0.966600 0.200000
vn 0.187500 0.964700 0.185000
vn 0.182400 0.981500 0.058300
vn 0.176300 0.984300 0.005500
vn 0.164300 0.985700 0.036600
vn 0.159500 0.986300 0.041200
vn 0.160000 0.979900 0.119200
vn -0.052500 0.997700 -0.043000
vn -0.049600 0.998600 -0.017000
vn -0.039300 0.998600 0.034300
vn -0.025100 0.995900 0.086200
vn -0.021100 0.995600 0.091200
vn -0.018400 0.999800 0.001600
vn 0.017200 0.999800 -0.006300
vn 0.084800 0.988200 0.127400
vn 0.152200 0.974200 0.166200
vn 0.183700 0.981200 0.058700
vn 0.170900 0.984900 0.026300
vn 0.145000 0.988000 0.052900
vn 0.116300 0.991500 0.058600
vn 0.088500 0.991200 0.098400
vn -0.099200 0.991100 -0.088400
vn -0.078800 0.995100 -0.060200
vn -0.026500 0.999600 -0.005200
vn 0.012100 0.997300 0.072800
vn 0.010200 0.994700 0.102000
vn -0.025000 0.999400 0.023100
vn -0.058600 0.997800 -0.029900
vn -0.016900 0.999000 0.042000
vn 0.073000 0.992300 0.099600
vn 0.127400 0.990800 0.044600
vn 0.145200 0.988700 0.035700
vn 0.139900 0.987300 0.074600
vn 0.109300 0.989200 0.097200
vn 0.082600 0.991100 0.104500
vn -0.082400 0.992300 -0.092000
vn -0.069900 0.993000 -0.095100
vn -0.042200 0.997700 -0.052500
vn -0.030000 0.997100 0.069100
vn -0.033900 0.993200 0.111100
vn -0.045400 0.997100 0.060500
vn -0.054800 0.998200 -0.024400
vn -0.016900 0.998900 -0.042700
vn 0.045200 0.998400 0.032700
vn 0.086900 0.996100 0.015900
vn 0.108000 0.993800 0.025000
vn 0.101200 0.990100 0.097100
vn 0.073200 0.988400 0.133000
vn 0.044800 0.989300 0.138600
vn -0.058700 0.994200 -0.089600
vn -0.061300 0.992700 -0.104000
vn -0.076900 0.995500 -0.054400
vn -0.087000 0.993800 0.069500
vn -0.060400 0.994300 0.087900
vn -0.025400 0.997900 0.059500
vn -0.010600 0.999500 -0.028800
vn -0.006700 0.996800 -0.079700
vn 0.003300 1.000000 -0.002200
vn 0.026400 0.999500 -0.013700
vn 0.041500 0.999000 0.017800
vn 0.041700 0.993000 0.110700
vn 0.035300 0.987500 0.153200
vn 0.028300 0.986800 0.159300
vn -0.061900 0.997000 -0.046100
vn -0.077600 0.994800 -0.066600
vn -0.085800 0.995100 -0.049400
vn -0.030100 0.999400 0.019200
vn 0.054000 0.998100 0.028500
vn 0.095100 0.994500 0.042900
vn 0.071700 0.997400 -0.004300
vn 0.020100 0.998200 -0.056900
vn 0.010700 0.999600 -0.025800
vn 0.016500 0.999700 -0.019100
vn -0.007800 0.999500 0.032000
vn -0.014900 0.994500 0.103700
vn 0.016900 0.990500 0.136000
vn 0.060100 0.989000 0.134800
vn 0.055700 0.998000 0.029200
vn 0.037600 0.999300 -0.003400
vn 0.021100 0.997700 -0.063700
vn 0.054800 0.996600 -0.061600
vn 0.107100 0.993900 -0.024000
vn 0.141200 0.989600 0.028600
vn 0.151800 0.987800 0.033400
vn 0.133400 0.990800 -0.019500
vn 0.113300 0.992700 -0.039600
vn 0.083100 0.996500 0.007100
vn 0.045200 0.997100 0.060600
vn 0.049000 0.995500 0.080500
vn 0.085700 0.991800 0.094500
vn 0.119800 0.989100 0.085400
vn 0.079200 0.994200 0.073200
vn 0.089700 0.993800 0.065800
vn 0.084000 0.995700 -0.040100
vn 0.134900 0.990700 0.019800
vn 0.194800 0.979900 0.042700
vn 0.224200 0.974500 -0.005300
vn 0.188200 0.981300 -0.039300
vn 0.118300 0.992700 0.024600
vn 0.108500 0.991200 0.075500
vn 0.126000 0.990100 0.061200
vn 0.096400 0.992900 -0.070300
vn 0.064300 0.993500 -0.094100
vn 0.159300 0.985500 0.058300
vn 0.143100 0.989400 0.024200
vn 0.138400 0.989100 0.050200
vn 0.133900 0.987500 0.083500
vn 0.090100 0.987600 0.128300
vn 0.035900 0.991700 0.123400
vn 0.129300 0.978100 0.163000
vn -0.042100 0.986500 0.158500
vn -0.063000 0.979900 0.189300
vn 0.032300 0.991100 0.129200
vn 0.075500 0.993000 0.091300
vn 0.025900 0.989100 0.145300
vn 0.218500 0.953100 0.209300
vn 0.163200 0.966100 0.200000
vn 0.080200 0.988600 0.127500
vn 0.078900 0.989600 0.120400
usemtl None
s 1
f 195//1 185//2 1//3 161//4
f 161//4 1//3 2//5 162//6
f 162//6 2//5 3//7 160//8
f 160//8 3//7 4//9 157//10
f 157//10 4//9 5//11 158//12
f 158//12 5//11 6//13 159//14
f 159//14 6//13 7//15 165//16
f 165//16 7//15 8//17 168//18
f 168//18 8//17 9//19 163//20
f 163//20 9//19 10//21 164//22
f 164//22 10//21 11//23 169//24
f 169//24 11//23 12//25 166//26
f 166//26 12//25 13//27 167//28
f 185//2 183//29 14//30 1//3
f 1//3 14//30 15//31 2//5
f 2//5 15//31 16//32 3//7
f 3//7 16//32 17//33 4//9
f 4//9 17//33 18//34 5//11
f 5//11 18//34 19//35 6//13
f 6//13 19//35 20//36 7//15
f 7//15 20//36 21//37 8//17
f 8//17 21//37 22//38 9//19
f 9//19 22//38 23//39 10//21
f 10//21 23//39 24//40 11//23
f 11//23 24//40 25//41 12//25
f 12//25 25//41 26//42 13//27
f 183//29 190//43 27//44 14//30
f 14//30 27//44 28//45 15//31
f 15//31 28//45 29//46 16//32
f 16//32 29//46 30//47 17//33
f 17//33 30//47 31//48 18//34
f 18//34 31//48 32//49 19//35
f 19//35 32//49 33//50 20//36
f 20//36 33//50 34//51 21//37
f 21//37 34//51 35//52 22//38
f 22//38 35//52 36//53 23//39
f 23//39 36//53 37//54 24//40
f 24//40 37//54 38//55 25//41
f 25//41 38//55 39//56 26//42
f 190//43 188//57 40//58 27//44
f 27//44 40//58 41//59 28//45
f 28//45 41//59 42//60 29//46
f 29//46 42//60 43//61 30//47
f 30//47 43//61 44//62 31//48
f 31//48 44//62 45//63 32//49
f 32//49 45//63 46//64 33//50
f 33//50 46//64 47//65 34//51
f 34//51 47//65 48//66 35//52
f 35//52 48//66 49//67 36//53
f 36//53 49//67 50//68 37//54
f 37//54 50//68 51//69 38//55
f 38//55 51//69 52//70 39//56
f 188//57 194//71 53//72 40//58
f 40//58 53//72 54//73 41//59
f 41//59 54//73 55//74 42//60
f 42//60 55//74 56//75 43//61
f 43//61 56//75 57//76 44//62
f 44//62 57//76 58//77 45//63
f 45//63 58//77 59//78 46//64
f 46//64 59//78 60//79 47//65
f 47//65 60//79 61//80 48//66
f 48//66 61//80 62//81 49//67
f 49//67 62//81 63//82 50//68
f 50//68 63//82 64//83 51//69
f 51//69 64//83 65//84 52//70
f 194//71 187//85 66//86 53//72
f 53//72 66//86 67//87 54//73
f 54//73 67//87 68//88 55//74
f 55//74 68//88 69//89 56//75
f 56//75 69//89 70//90 57//76
f 57//76 70//90 71//91 58//77
f 58//77 71//91 72//92 59//78
f 59//78 72//92 73//93 60//79
f 60//79 73//93 74//94 61//80
f 61//80 74//94 75//95 62//81
f 62//81 75//95 76//96 63//82
f 63//82 76//96 77//97 64//83
f 64//83 77//97 78//98 65//84
f 187//85 192//99 79//100 66//86
f 66//86 79//100 80//101 67//87
f 67//87 80//101 81//102 68//88
f 68//88 81//102 82//103 69//89
f 69//89 82//103 83//104 70//90
f 70//90 83//104 84//105 71//91
f 71//91 84//105 85//106 72//92
f 72//92 85//106 86//107 73//93
f 73//93 86//107 87//108 74//94
f 74//94 87//108 88//109 75//95
f 75//95 88//109 89//110 76//96
f 76//96 89//110 90//111 77//97
f 77//97 90//111 91//112 78//98
f 192//99 189//113 92//114 79//100
f 79//100 92//114 93//115 80//101
f 80//101 93//115 94//116 81//102
f 81//102 94//116 95//117 82//103
f 82//103 95//117 96//118 83//104
f 83//104 96//118 97//119 84//105
f 84//105 97//119 98//120 85//106
f 85//106 98//120 99//121 86//107
f 86//107 99//121 100//122 87//108
f 87//108 100//122 101//123 88//109
f 88//109 101//123 102//124 89//110
f 89//110 102//124 103//125 90//111
f 90//111 103//125 104//126 91//112
f 189//113 191//127 105//128 92//114
f 92//114 105//128 106//129 93//115
f 93//115 106//129 107//130 94//116
f 94//116 107//130 108//131 95//117
f 95//117 108//131 109//132 96//118
f 96//118 109//132 110//133 97//119
f 97//119 110//133 111//134 98//120
f 98//120 111//134 112//135 99//121
f 99//121 112//135 113//136 100//122
f 100//122 113//136 114//137 101//123
f 101//123 114//137 115//138 102//124
f 102//124 115//138 116//139 103//125
f 103//125 116//139 117//140 104//126
f 191//127 193//141 118//142 105//128
f 105//128 118//142 119//143 106//129
f 106//129 119//143 120//144 107//130
f 107//130 120//144 121//145 108//131
f 108//131 121//145 122//146 109//132
f 109//132 122//146 123//147 110//133
f 110//133 123//147 124//148 111//134
f 111//134 124//148 125//149 112//135
f 112//135 125//149 126//150 113//136
f 113//136 126//150 127//151 114//137
f 114//137 127//151 128//152 115//138
f 115//138 128//152 129//153 116//139
f 116//139 129//153 130//154 117//140
f 193//141 186//155 131//156 118//142
f 118//142 131//156 132//157 119//143
f 119//143 132//157 133//158 120//144
f 120//144 133//158 134//159 121//145
f 121//145 134//159 135//160 122//146
f 122//146 135//160 136//161 123//147
f 123//147 136//161 137//162 124//148
f 124//148 137//162 138//163 125//149
f 125//149 138//163 139//164 126//150
f 126//150 139//164 140//165 127//151
f 127//151 140//165 141//166 128//152
f 128//152 141//166 142//167 129//153
f 129//153 142//167 143//168 130//154
f 186//155 184//169 144//170 131//156
f 131//156 144//170 145//171 132//157
f 132//157 145//171 146//172 133//158
f 133//158 146//172 147//173 134//159
f 134//159 147//173 148//174 135//160
f 135//160 148//174 149//175 136//161
f 136//161 149//175 150//176 137//162
f 137//162 150//176 151//177 138//163
f 138//163 151//177 152//178 139//164
f 139//164 152//178 153//179 140//165
f 140//165 153//179 154//180 141//166
f 141//166 154//180 155//181 142//167
f 142//167 155//181 156//182 143//168
f 153//179 170//183 171//184 154//180
f 147//173 172//185 173//186 148//174
f 148//174 173//186 174//187 149//175
f 149//175 174//187 175//188 150//176
f 150//176 175//188 176//189 151//177
f 151//177 176//189 177//190 152//178
f 152//178 177//190 170//183 153//179
f 154//180 171//184 178//191 155//181
f 155//181 178//191 179//192 156//182
f 145//171 180//193 181//194 146//172
f 146//172 181//194 172//185 147//173
f 184//169 196//195 182//196 144//170
f 144//170 182//196 180//193 145//171
f 156//182 179//192 197//197 198//198
f 26//42 39//56 199//199 200//200
f 39//56 52//70 201//201 199//199
f 167//28 13//27 202//202 203//203
f 13//27 26//42 200//200 202//202
f 104//126 117//140 204//204 205//205
f 117//140 130//154 206//206 204//204
f 52//70 65//84 207//207 201//201
f 65//84 78//98 208//208 207//207
f 130//154 143//168 209//209 206//206
f 143//168 156//182 198//198 209//209
f 78//98 91//112 210//210 208//208
f 91//112 104//126 205//205 210//210
