# Blender v2.73 (sub 0) OBJ File: 'untitled.blend'
# www.blender.org
mtllib Landscape.017.mtl
o Landscape.017
v -94.383835 7.548177 -65.939392
v -94.383835 7.446927 -68.525253
v -94.383835 6.831536 -71.111115
v -94.383835 6.339304 -73.696968
v -94.383835 5.774220 -76.282829
v -94.383835 5.035722 -78.868690
v -94.383835 4.434776 -81.454544
v -94.383835 3.794349 -84.040405
v -94.383835 3.288246 -86.626259
v -94.383835 2.741362 -89.212120
v -94.383835 2.372040 -91.797981
v -94.383835 2.097826 -94.383835
v -91.797981 7.624074 -65.939392
v -91.797981 7.214433 -68.525253
v -91.797981 6.997202 -71.111115
v -91.797981 6.589876 -73.696968
v -91.797981 5.897860 -76.282829
v -91.797981 5.416297 -78.868690
v -91.797981 4.812440 -81.454544
v -91.797981 4.128171 -84.040405
v -91.797981 3.685553 -86.626259
v -91.797981 3.064605 -89.212120
v -91.797981 2.770575 -91.797981
v -91.797981 2.402058 -94.383835
v -89.212120 8.054126 -65.939392
v -89.212120 7.318055 -68.525253
v -89.212120 7.031877 -71.111115
v -89.212120 6.647343 -73.696968
v -89.212120 6.197001 -76.282829
v -89.212120 5.503845 -78.868690
v -89.212120 5.112766 -81.454544
v -89.212120 4.575130 -84.040405
v -89.212120 4.142578 -86.626259
v -89.212120 3.407929 -89.212120
v -89.212120 2.960925 -91.797981
v -89.212120 2.781576 -94.383835
v -86.626259 8.465691 -65.939392
v -86.626259 7.662747 -68.525253
v -86.626259 7.648935 -71.111115
v -86.626259 6.926744 -73.696968
v -86.626259 6.370572 -76.282829
v -86.626259 5.860705 -78.868690
v -86.626259 5.677387 -81.454544
v -86.626259 5.120598 -84.040405
v -86.626259 4.567604 -86.626259
v -86.626259 3.817312 -89.212120
v -86.626259 3.324716 -91.797981
v -86.626259 3.046456 -94.383835
v -84.040405 7.806293 -65.939392
v -84.040405 7.861538 -68.525253
v -84.040405 7.873520 -71.111115
v -84.040405 7.325786 -73.696968
v -84.040405 6.631934 -76.282829
v -84.040405 5.926602 -78.868690
v -84.040405 5.552030 -81.454544
v -84.040405 5.398850 -84.040405
v -84.040405 4.932443 -86.626259
v -84.040405 4.243025 -89.212120
v -84.040405 3.714021 -91.797981
v -84.040405 3.202769 -94.383835
v -81.454544 7.450446 -65.939392
v -81.454544 7.585105 -68.525253
v -81.454544 7.841740 -71.111115
v -81.454544 7.147001 -73.696968
v -81.454544 6.758819 -76.282829
v -81.454544 6.176936 -78.868690
v -81.454544 5.578325 -81.454544
v -81.454544 5.516392 -84.040405
v -81.454544 5.125055 -86.626259
v -81.454544 4.728825 -89.212120
v -81.454544 4.306799 -91.797981
v -81.454544 3.775684 -94.383835
v -78.868690 7.111299 -65.939392
v -78.868690 6.974961 -68.525253
v -78.868690 7.390259 -71.111115
v -78.868690 7.246383 -73.696968
v -78.868690 6.711017 -76.282829
v -78.868690 6.061443 -78.868690
v -78.868690 5.500852 -81.454544
v -78.868690 5.228253 -84.040405
v -78.868690 5.429474 -86.626259
v -78.868690 4.953194 -89.212120
v -78.868690 4.754262 -91.797981
v -78.868690 4.100564 -94.383835
v -76.282829 6.684095 -65.939392
v -76.282829 6.568459 -68.525253
v -76.282829 6.998300 -71.111115
v -76.282829 6.769231 -73.696968
v -76.282829 6.616957 -76.282829
v -76.282829 6.160244 -78.868690
v -76.282829 5.701487 -81.454544
v -76.282829 5.458879 -84.040405
v -76.282829 5.227077 -86.626259
v -76.282829 5.158773 -89.212120
v -76.282829 4.822595 -91.797981
v -76.282829 4.258003 -94.383835
v -73.696968 6.663154 -65.939392
v -73.696968 6.516062 -68.525253
v -73.696968 6.579504 -71.111115
v -73.696968 6.411966 -73.696968
v -73.696968 6.298810 -76.282829
v -73.696968 6.192191 -78.868690
v -73.696968 5.853779 -81.454544
v -73.696968 5.635223 -84.040405
v -73.696968 5.584597 -86.626259
v -73.696968 5.222583 -89.212120
v -73.696968 4.982491 -91.797981
v -73.696968 4.468429 -94.383835
v -71.111115 7.070921 -65.939392
v -71.111115 6.705873 -68.525253
v -71.111115 6.746446 -71.111115
v -71.111115 6.551301 -73.696968
v -71.111115 6.494636 -76.282829
v -71.111115 6.504912 -78.868690
v -71.111115 6.079512 -81.454544
v -71.111115 5.763361 -84.040405
v -71.111115 5.480784 -86.626259
v -71.111115 5.005100 -89.212120
v -71.111115 4.888508 -91.797981
v -71.111115 4.462567 -94.383835
v -68.525253 7.916983 -65.939392
v -68.525253 7.633137 -68.525253
v -68.525253 7.117935 -71.111115
v -68.525253 6.767973 -73.696968
v -68.525253 6.638632 -76.282829
v -68.525253 6.738283 -78.868690
v -68.525253 6.589849 -81.454544
v -68.525253 6.029885 -84.040405
v -68.525253 5.714647 -86.626259
v -68.525253 5.143609 -89.212120
v -68.525253 4.911546 -91.797981
v -68.525253 4.421434 -94.383835
v -65.939392 8.627700 -65.939392
v -65.939392 8.553410 -68.525253
v -65.939392 7.669218 -71.111115
v -65.939392 6.917737 -73.696968
v -65.939392 6.762435 -76.282829
v -65.939392 6.842202 -78.868690
v -65.939392 6.934250 -81.454544
v -65.939392 6.433270 -84.040405
v -65.939392 6.103813 -86.626259
v -65.939392 5.416832 -89.212120
v -65.939392 4.950049 -91.797981
v -65.939392 4.309763 -94.383835
v -96.000000 2.021400 -94.383835
v -96.000000 2.515994 -89.212120
v -96.000000 2.248935 -91.797981
v -96.000000 4.835319 -78.868690
v -96.000000 5.457928 -76.282829
v -96.000000 4.151160 -81.454544
v -96.000000 6.752433 -71.111115
v -96.000000 6.098963 -73.696968
v -96.000000 3.009697 -86.626259
v -96.000000 3.562312 -84.040405
v -96.000000 7.230882 -65.939392
v -96.000000 7.309207 -68.525253
v -64.000000 6.467744 -84.040405
v -64.000000 6.053445 -86.626259
v -64.000000 5.335150 -89.212120
v -64.000000 4.730463 -91.797981
v -64.000000 4.144045 -94.383835
v -64.000000 7.473725 -78.868690
v -64.000000 7.061854 -81.454544
v -64.000000 7.226936 -76.282829
v -64.000000 7.688578 -73.696968
v -64.000000 8.402429 -71.111115
v -64.000000 9.138389 -65.939392
v -64.000000 8.916853 -68.525253
v -86.626259 8.454774 -64.000000
v -68.525253 8.118090 -64.000000
v -91.797981 7.779393 -64.000000
v -71.111115 7.468866 -64.000000
v -89.212120 8.042769 -64.000000
v -84.040405 7.814640 -64.000000
v -76.282829 6.743001 -64.000000
v -81.454544 7.554171 -64.000000
v -94.383835 7.633924 -64.000000
v -78.868690 7.188996 -64.000000
v -65.939392 8.606207 -64.000000
v -73.696968 7.023798 -64.000000
v -96.000000 7.306643 -64.000000
v -64.000000 9.341494 -64.000000
v -84.040405 3.012185 -96.000000
v -86.626259 2.845489 -96.000000
v -81.454544 3.474216 -96.000000
v -65.939392 3.862374 -96.000000
v -68.525253 4.056800 -96.000000
v -64.000000 3.675908 -96.000000
v -94.383835 2.007939 -96.000000
v -96.000000 1.859918 -96.000000
v -89.212120 2.676037 -96.000000
v -71.111115 4.197679 -96.000000
v -91.797981 2.334201 -96.000000
v -78.868690 3.701572 -96.000000
v -76.282829 3.863842 -96.000000
v -73.696968 4.069484 -96.000000
vn -0.195400 0.979900 -0.040800
vn -0.119100 0.991500 -0.051600
vn -0.087300 0.994800 -0.051600
vn -0.167500 0.985600 -0.022600
vn -0.040800 0.991900 -0.120700
vn -0.102800 0.988200 -0.113800
vn -0.057100 0.979800 -0.191700
vn -0.080800 0.972600 -0.217900
vn -0.102400 0.971900 -0.211800
vn -0.131600 0.966600 -0.219900
vn -0.120800 0.964500 -0.234900
vn -0.158900 0.958100 -0.238200
vn -0.133500 0.962500 -0.236000
vn -0.148200 0.958100 -0.245000
vn -0.142600 0.961500 -0.234600
vn -0.148700 0.960900 -0.233500
vn -0.144100 0.966400 -0.212800
vn -0.153200 0.965000 -0.213100
vn -0.144100 0.969600 -0.197800
vn -0.152000 0.968600 -0.196600
vn -0.132600 0.977300 -0.165300
vn -0.128600 0.979000 -0.157900
vn -0.109700 0.987100 -0.116600
vn -0.083800 0.990500 -0.108900
vn -0.096200 0.991600 -0.086000
vn -0.065200 0.994100 -0.086800
vn -0.088000 0.994900 -0.049400
vn -0.061700 0.992600 -0.104100
vn -0.021000 0.989500 -0.142700
vn -0.027500 0.989100 -0.144600
vn -0.058600 0.979400 -0.193200
vn -0.076100 0.971300 -0.225100
vn -0.095300 0.971800 -0.215700
vn -0.121900 0.967400 -0.221800
vn -0.144900 0.968100 -0.204300
vn -0.147600 0.967900 -0.203500
vn -0.130400 0.974200 -0.184200
vn -0.120300 0.985000 -0.123500
vn -0.125500 0.988700 -0.082200
vn -0.145100 0.989300 -0.015600
vn -0.133500 0.982000 -0.133600
vn -0.112700 0.980100 -0.163000
vn -0.098900 0.986700 -0.129100
vn -0.084300 0.977900 -0.191000
vn -0.081300 0.973600 -0.213000
vn -0.105400 0.976900 -0.185800
vn -0.148600 0.971900 -0.182600
vn -0.173700 0.965300 -0.195000
vn -0.163300 0.962100 -0.218300
vn -0.137500 0.967800 -0.210600
vn -0.119000 0.984600 -0.127400
vn -0.112600 0.990000 -0.084900
vn 0.044100 0.999000 0.003200
vn 0.009200 0.994400 -0.105100
vn -0.080600 0.989100 -0.122900
vn -0.137300 0.982500 -0.125400
vn -0.123500 0.968400 -0.216800
vn -0.092200 0.971300 -0.219300
vn -0.081200 0.982400 -0.168400
vn -0.099400 0.985300 -0.138800
vn -0.135100 0.974400 -0.179400
vn -0.150700 0.961800 -0.228600
vn -0.149500 0.962300 -0.226900
vn -0.130600 0.979700 -0.151700
vn -0.092300 0.989300 -0.112900
vn 0.181400 0.983300 -0.014000
vn 0.143300 0.989100 -0.033500
vn 0.046900 0.998800 -0.013700
vn -0.024800 0.994100 -0.105500
vn -0.047500 0.972500 -0.227800
vn -0.061800 0.971900 -0.227100
vn -0.043300 0.980700 -0.190500
vn -0.024600 0.992700 -0.117500
vn -0.059200 0.989300 -0.133400
vn -0.113400 0.971900 -0.206000
vn -0.157300 0.965000 -0.209900
vn -0.168800 0.969400 -0.178400
vn -0.143900 0.977700 -0.152800
vn 0.126500 0.991300 -0.037500
vn 0.138900 0.990200 -0.009800
vn 0.140800 0.988600 0.054000
vn 0.092400 0.994200 -0.054300
vn 0.026500 0.980700 -0.193500
vn -0.009900 0.976900 -0.213400
vn -0.014100 0.975500 -0.219400
vn 0.006700 0.991700 -0.127900
vn -0.004800 0.997000 -0.076700
vn -0.072800 0.987000 -0.143100
vn -0.139000 0.976200 -0.166400
vn -0.172300 0.968800 -0.178000
vn -0.164600 0.967200 -0.193500
vn 0.150600 0.987800 -0.040500
vn 0.160300 0.986500 -0.032300
vn 0.172800 0.983200 0.059500
vn 0.147200 0.989000 0.013700
vn 0.083200 0.987400 -0.134600
vn 0.032400 0.981800 -0.187100
vn 0.002300 0.977000 -0.213200
vn -0.008100 0.989500 -0.144000
vn -0.005200 0.998600 -0.051500
vn -0.027300 0.996600 -0.078200
vn -0.070600 0.989900 -0.123100
vn -0.091700 0.981500 -0.167800
vn -0.087900 0.970400 -0.224900
vn 0.058700 0.995700 -0.071500
vn 0.072800 0.995500 -0.060500
vn 0.103900 0.993800 0.038600
vn 0.139600 0.989800 0.027300
vn 0.137900 0.987000 -0.082300
vn 0.073300 0.989400 -0.125200
vn -0.009400 0.986100 -0.166000
vn -0.059500 0.989300 -0.133400
vn -0.063700 0.996000 -0.062000
vn -0.047400 0.996900 -0.062100
vn -0.044300 0.994000 -0.100200
vn -0.052100 0.985400 -0.161900
vn -0.062500 0.971800 -0.227100
vn -0.106000 0.983100 -0.149500
vn -0.077400 0.990800 -0.111400
vn -0.019700 0.999800 -0.008500
vn 0.028000 0.999600 -0.007800
vn 0.038500 0.997600 -0.057500
vn 0.005400 0.998600 -0.052800
vn -0.045400 0.993300 -0.106600
vn -0.067100 0.990200 -0.122300
vn -0.059600 0.995200 -0.077500
vn -0.031800 0.995400 -0.090400
vn -0.000600 0.994400 -0.105800
vn -0.008400 0.990000 -0.140600
vn -0.038000 0.977900 -0.205400
vn -0.219200 0.961100 -0.167900
vn -0.218800 0.965800 -0.138700
vn -0.187000 0.979800 -0.071200
vn -0.121300 0.990700 -0.061000
vn -0.076400 0.995200 -0.060600
vn -0.076200 0.996900 -0.016500
vn -0.104000 0.992600 -0.063000
vn -0.114700 0.984700 -0.131000
vn -0.078800 0.990600 -0.111700
vn -0.027400 0.990500 -0.134700
vn 0.004900 0.992300 -0.123500
vn 0.012800 0.992400 -0.122600
vn 0.008400 0.982400 -0.186400
vn -0.250200 0.963500 -0.095400
vn -0.281100 0.955000 -0.094200
vn -0.283700 0.949600 -0.133500
vn -0.188400 0.968400 -0.163000
vn -0.091700 0.990700 -0.100500
vn -0.059800 0.998200 -0.008700
vn -0.086300 0.996100 -0.016000
vn -0.129000 0.984100 -0.121600
vn -0.133400 0.979600 -0.150100
vn -0.110200 0.979600 -0.167800
vn -0.071200 0.984800 -0.158600
vn -0.018400 0.988900 -0.147500
vn 0.027200 0.978200 -0.205600
vn -0.265700 0.963000 -0.044800
vn -0.262900 0.963400 -0.052800
vn -0.263300 0.951900 -0.156300
vn -0.255700 0.935800 -0.242700
vn -0.209000 0.965100 -0.157500
vn -0.168600 0.985500 -0.018200
vn -0.149200 0.988800 0.006200
vn -0.115200 0.986100 -0.119900
vn -0.082100 0.982300 -0.168400
vn -0.059500 0.979800 -0.190700
vn -0.019000 0.977600 -0.209400
vn 0.031500 0.980300 -0.195100
vn 0.063700 0.968800 -0.239600
vn -0.018500 0.984400 -0.174900
vn 0.018500 0.979000 -0.202800
vn 0.054500 0.971200 -0.232100
vn 0.086200 0.972500 -0.216300
vn 0.091600 0.963700 -0.250900
vn -0.232400 0.972600 0.000400
vn -0.117500 0.984000 -0.133900
vn -0.287700 0.957400 -0.026800
vn -0.327800 0.925800 -0.188400
vn -0.304500 0.918100 -0.253800
vn -0.305500 0.951100 -0.044500
vn -0.263400 0.963400 -0.050100
vn -0.242300 0.958100 -0.153000
vn -0.127700 0.982700 -0.134000
vn -0.072700 0.991600 -0.107000
vn -0.149900 0.972400 -0.178900
vn 0.072400 0.963500 -0.257600
vn 0.046000 0.975000 -0.217500
vn 0.087000 0.958500 -0.271500
vn -0.094900 0.993500 -0.063000
vn -0.069100 0.994600 -0.077300
vn -0.110800 0.991100 -0.073500
vn 0.005700 0.980600 -0.196200
vn -0.129400 0.990300 -0.050700
vn -0.082100 0.971100 -0.224200
vn -0.068800 0.968900 -0.237700
vn -0.050800 0.974300 -0.219600
usemtl None
s 1
f 181//1 177//2 1//3 155//4
f 155//4 1//3 2//5 156//6
f 156//6 2//5 3//7 151//8
f 151//8 3//7 4//9 152//10
f 152//10 4//9 5//11 149//12
f 149//12 5//11 6//13 148//14
f 148//14 6//13 7//15 150//16
f 150//16 7//15 8//17 154//18
f 154//18 8//17 9//19 153//20
f 153//20 9//19 10//21 146//22
f 146//22 10//21 11//23 147//24
f 147//24 11//23 12//25 145//26
f 177//2 171//27 13//28 1//3
f 1//3 13//28 14//29 2//5
f 2//5 14//29 15//30 3//7
f 3//7 15//30 16//31 4//9
f 4//9 16//31 17//32 5//11
f 5//11 17//32 18//33 6//13
f 6//13 18//33 19//34 7//15
f 7//15 19//34 20//35 8//17
f 8//17 20//35 21//36 9//19
f 9//19 21//36 22//37 10//21
f 10//21 22//37 23//38 11//23
f 11//23 23//38 24//39 12//25
f 171//27 173//40 25//41 13//28
f 13//28 25//41 26//42 14//29
f 14//29 26//42 27//43 15//30
f 15//30 27//43 28//44 16//31
f 16//31 28//44 29//45 17//32
f 17//32 29//45 30//46 18//33
f 18//33 30//46 31//47 19//34
f 19//34 31//47 32//48 20//35
f 20//35 32//48 33//49 21//36
f 21//36 33//49 34//50 22//37
f 22//37 34//50 35//51 23//38
f 23//38 35//51 36//52 24//39
f 173//40 169//53 37//54 25//41
f 25//41 37//54 38//55 26//42
f 26//42 38//55 39//56 27//43
f 27//43 39//56 40//57 28//44
f 28//44 40//57 41//58 29//45
f 29//45 41//58 42//59 30//46
f 30//46 42//59 43//60 31//47
f 31//47 43//60 44//61 32//48
f 32//48 44//61 45//62 33//49
f 33//49 45//62 46//63 34//50
f 34//50 46//63 47//64 35//51
f 35//51 47//64 48//65 36//52
f 169//53 174//66 49//67 37//54
f 37//54 49//67 50//68 38//55
f 38//55 50//68 51//69 39//56
f 39//56 51//69 52//70 40//57
f 40//57 52//70 53//71 41//58
f 41//58 53//71 54//72 42//59
f 42//59 54//72 55//73 43//60
f 43//60 55//73 56//74 44//61
f 44//61 56//74 57//75 45//62
f 45//62 57//75 58//76 46//63
f 46//63 58//76 59//77 47//64
f 47//64 59//77 60//78 48//65
f 174//66 176//79 61//80 49//67
f 49//67 61//80 62//81 50//68
f 50//68 62//81 63//82 51//69
f 51//69 63//82 64//83 52//70
f 52//70 64//83 65//84 53//71
f 53//71 65//84 66//85 54//72
f 54//72 66//85 67//86 55//73
f 55//73 67//86 68//87 56//74
f 56//74 68//87 69//88 57//75
f 57//75 69//88 70//89 58//76
f 58//76 70//89 71//90 59//77
f 59//77 71//90 72//91 60//78
f 176//79 178//92 73//93 61//80
f 61//80 73//93 74//94 62//81
f 62//81 74//94 75//95 63//82
f 63//82 75//95 76//96 64//83
f 64//83 76//96 77//97 65//84
f 65//84 77//97 78//98 66//85
f 66//85 78//98 79//99 67//86
f 67//86 79//99 80//100 68//87
f 68//87 80//100 81//101 69//88
f 69//88 81//101 82//102 70//89
f 70//89 82//102 83//103 71//90
f 71//90 83//103 84//104 72//91
f 178//92 175//105 85//106 73//93
f 73//93 85//106 86//107 74//94
f 74//94 86//107 87//108 75//95
f 75//95 87//108 88//109 76//96
f 76//96 88//109 89//110 77//97
f 77//97 89//110 90//111 78//98
f 78//98 90//111 91//112 79//99
f 79//99 91//112 92//113 80//100
f 80//100 92//113 93//114 81//101
f 81//101 93//114 94//115 82//102
f 82//102 94//115 95//116 83//103
f 83//103 95//116 96//117 84//104
f 175//105 180//118 97//119 85//106
f 85//106 97//119 98//120 86//107
f 86//107 98//120 99//121 87//108
f 87//108 99//121 100//122 88//109
f 88//109 100//122 101//123 89//110
f 89//110 101//123 102//124 90//111
f 90//111 102//124 103//125 91//112
f 91//112 103//125 104//126 92//113
f 92//113 104//126 105//127 93//114
f 93//114 105//127 106//128 94//115
f 94//115 106//128 107//129 95//116
f 95//116 107//129 108//130 96//117
f 180//118 172//131 109//132 97//119
f 97//119 109//132 110//133 98//120
f 98//120 110//133 111//134 99//121
f 99//121 111//134 112//135 100//122
f 100//122 112//135 113//136 101//123
f 101//123 113//136 114//137 102//124
f 102//124 114//137 115//138 103//125
f 103//125 115//138 116//139 104//126
f 104//126 116//139 117//140 105//127
f 105//127 117//140 118//141 106//128
f 106//128 118//141 119//142 107//129
f 107//129 119//142 120//143 108//130
f 172//131 170//144 121//145 109//132
f 109//132 121//145 122//146 110//133
f 110//133 122//146 123//147 111//134
f 111//134 123//147 124//148 112//135
f 112//135 124//148 125//149 113//136
f 113//136 125//149 126//150 114//137
f 114//137 126//150 127//151 115//138
f 115//138 127//151 128//152 116//139
f 116//139 128//152 129//153 117//140
f 117//140 129//153 130//154 118//141
f 118//141 130//154 131//155 119//142
f 119//142 131//155 132//156 120//143
f 170//144 179//157 133//158 121//145
f 121//145 133//158 134//159 122//146
f 122//146 134//159 135//160 123//147
f 123//147 135//160 136//161 124//148
f 124//148 136//161 137//162 125//149
f 125//149 137//162 138//163 126//150
f 126//150 138//163 139//164 127//151
f 127//151 139//164 140//165 128//152
f 128//152 140//165 141//166 129//153
f 129//153 141//166 142//167 130//154
f 130//154 142//167 143//168 131//155
f 131//155 143//168 144//169 132//156
f 140//165 157//170 158//171 141//166
f 141//166 158//171 159//172 142//167
f 142//167 159//172 160//173 143//168
f 143//168 160//173 161//174 144//169
f 138//163 162//175 163//176 139//164
f 139//164 163//176 157//170 140//165
f 137//162 164//177 162//175 138//163
f 136//161 165//178 164//177 137//162
f 135//160 166//179 165//178 136//161
f 179//157 182//180 167//181 133//158
f 133//158 167//181 168//182 134//159
f 134//159 168//182 166//179 135//160
f 48//65 60//78 183//183 184//184
f 60//78 72//91 185//185 183//183
f 132//156 144//169 186//186 187//187
f 144//169 161//174 188//188 186//186
f 145//26 12//25 189//189 190//190
f 36//52 48//65 184//184 191//191
f 120//143 132//156 187//187 192//192
f 12//25 24//39 193//193 189//189
f 24//39 36//52 191//191 193//193
f 72//91 84//104 194//194 185//185
f 84//104 96//117 195//195 194//194
f 96//117 108//130 196//196 195//195
f 108//130 120//143 192//192 196//196
