# Blender v2.73 (sub 0) OBJ File: 'untitled.blend'
# www.blender.org
mtllib Landscape.069.mtl
o Landscape.069
v 96.969696 6.545470 -1.292929
v 96.969696 6.709759 -3.878788
v 96.969696 6.147703 -6.464646
v 96.969696 6.055492 -9.050505
v 96.969696 6.054055 -11.636364
v 96.969696 5.631148 -14.222222
v 96.969696 5.214579 -16.808081
v 96.969696 4.764721 -19.393940
v 96.969696 4.405301 -21.979797
v 96.969696 4.121436 -24.565657
v 96.969696 4.084893 -27.151516
v 96.969696 4.151056 -29.737373
v 99.555557 6.085281 -1.292929
v 99.555557 5.992107 -3.878788
v 99.555557 5.694074 -6.464646
v 99.555557 5.554772 -9.050505
v 99.555557 5.284023 -11.636364
v 99.555557 4.926681 -14.222222
v 99.555557 4.385677 -16.808081
v 99.555557 3.951345 -19.393940
v 99.555557 3.770898 -21.979797
v 99.555557 3.763726 -24.565657
v 99.555557 3.904758 -27.151516
v 99.555557 3.920070 -29.737373
v 102.141411 5.549279 -1.292929
v 102.141411 5.717474 -3.878788
v 102.141411 5.409410 -6.464646
v 102.141411 5.167149 -9.050505
v 102.141411 4.640965 -11.636364
v 102.141411 4.294561 -14.222222
v 102.141411 3.912237 -16.808081
v 102.141411 3.395258 -19.393940
v 102.141411 3.279461 -21.979797
v 102.141411 3.381773 -24.565657
v 102.141411 3.558334 -27.151516
v 102.141411 3.467652 -29.737373
v 104.727272 5.224717 -1.292929
v 104.727272 5.379109 -3.878788
v 104.727272 5.221513 -6.464646
v 104.727272 4.555662 -9.050505
v 104.727272 4.170406 -11.636364
v 104.727272 3.823259 -14.222222
v 104.727272 3.552811 -16.808081
v 104.727272 3.100676 -19.393940
v 104.727272 3.060750 -21.979797
v 104.727272 3.151687 -24.565657
v 104.727272 3.174857 -27.151516
v 104.727272 3.075000 -29.737373
v 107.313133 4.828776 -1.292929
v 107.313133 4.683146 -3.878788
v 107.313133 4.450084 -6.464646
v 107.313133 4.223105 -9.050505
v 107.313133 3.741970 -11.636364
v 107.313133 3.548583 -14.222222
v 107.313133 3.448598 -16.808081
v 107.313133 3.080040 -19.393940
v 107.313133 2.933839 -21.979797
v 107.313133 2.833604 -24.565657
v 107.313133 2.773901 -27.151516
v 107.313133 2.542099 -29.737373
v 109.898987 4.056714 -1.292929
v 109.898987 3.914648 -3.878788
v 109.898987 3.721704 -6.464646
v 109.898987 3.519315 -9.050505
v 109.898987 3.229329 -11.636364
v 109.898987 3.017002 -14.222222
v 109.898987 2.881561 -16.808081
v 109.898987 2.766830 -19.393940
v 109.898987 2.574529 -21.979797
v 109.898987 2.320421 -24.565657
v 109.898987 2.254794 -27.151516
v 109.898987 2.138255 -29.737373
v 112.484848 3.188942 -1.292929
v 112.484848 3.128636 -3.878788
v 112.484848 3.061708 -6.464646
v 112.484848 2.726828 -9.050505
v 112.484848 2.482649 -11.636364
v 112.484848 2.368332 -14.222222
v 112.484848 2.196418 -16.808081
v 112.484848 2.170669 -19.393940
v 112.484848 2.165908 -21.979797
v 112.484848 1.925927 -24.565657
v 112.484848 1.827557 -27.151516
v 112.484848 1.720361 -29.737373
v 115.070709 2.367882 -1.292929
v 115.070709 2.358844 -3.878788
v 115.070709 2.262319 -6.464646
v 115.070709 2.108952 -9.050505
v 115.070709 1.878969 -11.636364
v 115.070709 1.686026 -14.222222
v 115.070709 1.560837 -16.808081
v 115.070709 1.585325 -19.393940
v 115.070709 1.547609 -21.979797
v 115.070709 1.385015 -24.565657
v 115.070709 1.326494 -27.151516
v 115.070709 1.354715 -29.737373
v 117.656563 1.584032 -1.292929
v 117.656563 1.563107 -3.878788
v 117.656563 1.482202 -6.464646
v 117.656563 1.376889 -9.050505
v 117.656563 1.256075 -11.636364
v 117.656563 1.086066 -14.222222
v 117.656563 1.004878 -16.808081
v 117.656563 0.990306 -19.393940
v 117.656563 0.973338 -21.979797
v 117.656563 0.944007 -24.565657
v 117.656563 0.929969 -27.151516
v 117.656563 0.969312 -29.737373
v 120.242424 0.923298 -1.292929
v 120.242424 0.931430 -3.878788
v 120.242424 0.907821 -6.464646
v 120.242424 0.830459 -9.050505
v 120.242424 0.711109 -11.636364
v 120.242424 0.629398 -14.222222
v 120.242424 0.567261 -16.808081
v 120.242424 0.540195 -19.393940
v 120.242424 0.570623 -21.979797
v 120.242424 0.558045 -24.565657
v 120.242424 0.557474 -27.151516
v 120.242424 0.564730 -29.737373
v 122.828285 0.455620 -1.292929
v 122.828285 0.430911 -3.878788
v 122.828285 0.409223 -6.464646
v 122.828285 0.370901 -9.050505
v 122.828285 0.338958 -11.636364
v 122.828285 0.307972 -14.222222
v 122.828285 0.271035 -16.808081
v 122.828285 0.260883 -19.393940
v 122.828285 0.267998 -21.979797
v 122.828285 0.264170 -24.565657
v 122.828285 0.266712 -27.151516
v 122.828285 0.271627 -29.737373
v 125.414139 0.120395 -1.292929
v 125.414139 0.112768 -3.878788
v 125.414139 0.103374 -6.464646
v 125.414139 0.097997 -9.050505
v 125.414139 0.093799 -11.636364
v 125.414139 0.080629 -14.222222
v 125.414139 0.071975 -16.808081
v 125.414139 0.068041 -19.393940
v 125.414139 0.068448 -21.979797
v 125.414139 0.068935 -24.565657
v 125.414139 0.069496 -27.151516
v 125.414139 0.069710 -29.737373
v 128.000000 0.000000 -1.292929
v 128.000000 0.000000 -3.878788
v 128.000000 0.000000 -6.464646
v 128.000000 0.000000 -9.050505
v 128.000000 0.000000 -11.636364
v 128.000000 0.000000 -14.222222
v 128.000000 0.000000 -16.808081
v 128.000000 0.000000 -19.393940
v 128.000000 0.000000 -21.979797
v 128.000000 0.000000 -24.565657
v 128.000000 0.000000 -27.151516
v 128.000000 0.000000 -29.737373
v 96.000000 6.287501 -11.636364
v 96.000000 5.568175 -16.808081
v 96.000000 5.981030 -14.222222
v 96.000000 4.204885 -27.151516
v 96.000000 4.309061 -24.565657
v 96.000000 5.040499 -19.393940
v 96.000000 4.646516 -21.979797
v 96.000000 4.253105 -29.737373
v 96.000000 6.260582 -9.050505
v 96.000000 6.305921 -6.464646
v 96.000000 6.774883 -3.878788
v 96.000000 6.550591 -1.292929
v 115.070709 2.345444 0.000000
v 99.555557 5.991485 0.000000
v 112.484848 3.238864 0.000000
v 128.000000 0.000000 0.000000
v 125.414139 0.119618 0.000000
v 109.898987 4.079552 0.000000
v 96.969696 6.374588 0.000000
v 122.828285 0.460147 0.000000
v 102.141411 5.472566 0.000000
v 117.656563 1.562237 0.000000
v 104.727272 5.070431 0.000000
v 120.242424 0.939413 0.000000
v 107.313133 4.741624 0.000000
v 96.000000 6.387418 0.000000
v 115.070709 1.334835 -32.000000
v 112.484848 1.645996 -32.000000
v 117.656563 0.975861 -32.000000
v 102.141411 3.281116 -32.000000
v 99.555557 3.818261 -32.000000
v 104.727272 2.912225 -32.000000
v 107.313133 2.409940 -32.000000
v 96.969696 4.191304 -32.000000
v 96.000000 4.344387 -32.000000
v 109.898987 1.974295 -32.000000
v 125.414139 0.066500 -32.000000
v 122.828285 0.270052 -32.000000
v 128.000000 0.000000 -32.000000
v 120.242424 0.573416 -32.000000
vn 0.009200 0.991700 0.128100
vn 0.085400 0.989700 0.114600
vn 0.107400 0.991000 0.079400
vn 0.022700 0.994600 0.101500
vn 0.147500 0.986800 -0.066700
vn 0.074800 0.995400 -0.060000
vn 0.175100 0.978800 -0.106300
vn 0.148400 0.982600 -0.111500
vn 0.206200 0.978100 -0.029100
vn 0.202400 0.979300 -0.010700
vn 0.254500 0.963700 -0.080900
vn 0.253500 0.965200 -0.064200
vn 0.294000 0.943900 -0.150300
vn 0.310700 0.940000 -0.141300
vn 0.304500 0.937900 -0.165800
vn 0.321200 0.933000 -0.162500
vn 0.281500 0.948600 -0.144500
vn 0.280300 0.946700 -0.158800
vn 0.231800 0.967300 -0.102900
vn 0.235300 0.963400 -0.128200
vn 0.165900 0.985100 -0.044500
vn 0.186100 0.979900 -0.072200
vn 0.113300 0.993500 0.007700
vn 0.135300 0.990800 -0.002500
vn 0.109900 0.993800 0.013200
vn 0.122100 0.992200 0.025400
vn 0.180000 0.980200 0.082400
vn 0.184300 0.981700 0.048300
vn 0.176400 0.982300 -0.062700
vn 0.158700 0.982400 -0.098100
vn 0.185700 0.979400 -0.079300
vn 0.235400 0.964500 -0.119400
vn 0.249200 0.955900 -0.155400
vn 0.244500 0.954400 -0.171300
vn 0.239300 0.963000 -0.124000
vn 0.205400 0.977500 -0.048200
vn 0.149500 0.988700 0.011000
vn 0.118700 0.992700 0.020500
vn 0.133900 0.990800 -0.018600
vn 0.168900 0.982700 0.076400
vn 0.155100 0.986200 0.057300
vn 0.122700 0.991900 -0.032400
vn 0.121700 0.986200 -0.112200
vn 0.168600 0.975500 -0.141100
vn 0.202900 0.968300 -0.145400
vn 0.194600 0.970900 -0.139700
vn 0.170000 0.971700 -0.163900
vn 0.153400 0.981800 -0.111700
vn 0.137500 0.990400 -0.007600
vn 0.127500 0.991100 0.038500
vn 0.139600 0.990100 0.012100
vn 0.158600 0.986200 -0.047400
vn 0.138400 0.986300 0.090100
vn 0.152800 0.986400 0.060900
vn 0.176900 0.983900 -0.024600
vn 0.182900 0.975200 -0.124700
vn 0.176100 0.969900 -0.167800
vn 0.164300 0.976100 -0.142000
vn 0.135600 0.984900 -0.107300
vn 0.094600 0.986400 -0.134000
vn 0.068600 0.992500 -0.101400
vn 0.074900 0.997200 -0.007600
vn 0.106900 0.994100 0.016700
vn 0.145400 0.989200 -0.017000
vn 0.166700 0.984200 -0.059900
vn 0.203700 0.977300 0.057900
vn 0.224500 0.974300 0.016400
vn 0.260700 0.964000 -0.050900
vn 0.255400 0.961600 -0.099900
vn 0.210700 0.967700 -0.138300
vn 0.175900 0.976800 -0.121900
vn 0.153200 0.985400 -0.074000
vn 0.118000 0.988800 -0.091300
vn 0.087400 0.992300 -0.087600
vn 0.102400 0.993800 -0.042500
vn 0.146500 0.988900 -0.025100
vn 0.171600 0.984300 -0.040000
vn 0.177200 0.982100 -0.064300
vn 0.290500 0.956900 -0.001300
vn 0.292700 0.955900 -0.023400
vn 0.284000 0.957200 -0.054500
vn 0.270300 0.959700 -0.076500
vn 0.261200 0.959400 -0.105700
vn 0.242300 0.965500 -0.094900
vn 0.228700 0.971600 -0.059800
vn 0.216200 0.974800 -0.055200
vn 0.181900 0.981700 -0.055100
vn 0.159700 0.985000 -0.065800
vn 0.167900 0.984300 -0.054200
vn 0.172200 0.984200 -0.041000
vn 0.159800 0.985500 -0.056300
vn 0.314100 0.949200 -0.018500
vn 0.306700 0.951500 -0.021700
vn 0.289400 0.956700 -0.032100
vn 0.273000 0.959600 -0.067200
vn 0.261500 0.960600 -0.094400
vn 0.253300 0.964300 -0.076400
vn 0.249200 0.966700 -0.057900
vn 0.241600 0.969700 -0.034900
vn 0.221900 0.974900 -0.018000
vn 0.197000 0.978900 -0.053800
vn 0.181600 0.981700 -0.057700
vn 0.170200 0.985000 -0.029700
vn 0.149700 0.988200 -0.032600
vn 0.302300 0.953200 0.003200
vn 0.297700 0.954600 -0.003000
vn 0.291900 0.956200 -0.020300
vn 0.281300 0.958300 -0.050500
vn 0.256400 0.963800 -0.073200
vn 0.238200 0.968700 -0.069900
vn 0.233800 0.970700 -0.055100
vn 0.227900 0.973400 -0.023200
vn 0.223500 0.974700 -0.004200
vn 0.214600 0.976100 -0.032700
vn 0.192000 0.980600 -0.038900
vn 0.168000 0.985700 -0.011400
vn 0.146700 0.989100 -0.006400
vn 0.265400 0.964100 0.009200
vn 0.266500 0.963800 0.002600
vn 0.263400 0.964500 -0.015100
vn 0.252800 0.966900 -0.033800
vn 0.237900 0.970100 -0.048400
vn 0.219700 0.973900 -0.056700
vn 0.202000 0.978300 -0.045500
vn 0.193700 0.980900 -0.018000
vn 0.192500 0.981300 -0.003400
vn 0.181700 0.983200 -0.013000
vn 0.162100 0.986600 -0.015200
vn 0.150800 0.988600 0.001300
vn 0.148700 0.988900 0.005600
vn 0.210600 0.977600 -0.002900
vn 0.211900 0.977300 -0.002800
vn 0.210900 0.977400 -0.008500
vn 0.202700 0.979000 -0.021200
vn 0.189800 0.981300 -0.032700
vn 0.172000 0.984400 -0.035900
vn 0.153000 0.987800 -0.028900
vn 0.142200 0.989700 -0.015400
vn 0.138600 0.990300 -0.001300
vn 0.135000 0.990800 -0.000300
vn 0.130700 0.991400 -0.003400
vn 0.129600 0.991500 0.002200
vn 0.132400 0.991200 0.004000
vn 0.154900 0.987900 -0.004600
vn 0.154800 0.987900 -0.004600
vn 0.154800 0.987900 -0.006000
vn 0.150800 0.988500 -0.011200
vn 0.138000 0.990300 -0.016500
vn 0.120600 0.992600 -0.016500
vn 0.106200 0.994200 -0.014500
vn 0.096700 0.995200 -0.009400
vn 0.093400 0.995600 -0.000300
vn 0.094500 0.995500 0.001200
vn 0.094700 0.995500 -0.000700
vn 0.094300 0.995500 0.001100
vn 0.095500 0.995400 0.000900
vn 0.088000 0.996100 -0.000600
vn 0.086600 0.996200 -0.002200
vn 0.083000 0.996500 -0.003800
vn 0.077900 0.996900 -0.004300
vn 0.071700 0.997400 -0.004300
vn 0.065400 0.997800 -0.004700
vn 0.059100 0.998200 -0.005400
vn 0.053600 0.998500 -0.003500
vn 0.051200 0.998700 -0.000500
vn 0.051200 0.998700 0.000200
vn 0.051300 0.998700 0.000000
vn 0.051600 0.998700 0.000400
vn 0.052100 0.998600 -0.000200
vn 0.046400 0.998900 0.000300
vn 0.045700 0.999000 -0.000600
vn 0.043400 0.999100 -0.001600
vn 0.040300 0.999200 -0.001400
vn 0.038000 0.999300 -0.000900
vn 0.035400 0.999400 -0.001700
vn 0.031600 0.999500 -0.002100
vn 0.028300 0.999600 -0.001200
vn 0.026700 0.999600 -0.000300
vn 0.026500 0.999600 0.000100
vn 0.026700 0.999600 0.000100
vn 0.026800 0.999600 0.000100
vn 0.026600 0.999600 -0.000300
vn 0.136100 0.990600 -0.011800
vn 0.136200 0.990000 -0.036300
vn 0.148300 0.988900 0.000200
vn 0.166300 0.983600 -0.069400
vn 0.152100 0.987600 -0.038100
vn 0.170800 0.982800 -0.069900
vn 0.177800 0.982000 -0.064100
vn 0.123200 0.992300 0.007700
vn 0.130400 0.991000 0.028800
vn 0.151200 0.986800 -0.058200
vn 0.052300 0.998600 -0.000900
vn 0.096400 0.995300 0.000300
vn 0.026300 0.999700 -0.000700
vn 0.134400 0.990900 0.002400
usemtl None
s 1
f 182//1 175//2 1//3 168//4
f 168//4 1//3 2//5 167//6
f 167//6 2//5 3//7 166//8
f 166//8 3//7 4//9 165//10
f 165//10 4//9 5//11 157//12
f 157//12 5//11 6//13 159//14
f 159//14 6//13 7//15 158//16
f 158//16 7//15 8//17 162//18
f 162//18 8//17 9//19 163//20
f 163//20 9//19 10//21 161//22
f 161//22 10//21 11//23 160//24
f 160//24 11//23 12//25 164//26
f 175//2 170//27 13//28 1//3
f 1//3 13//28 14//29 2//5
f 2//5 14//29 15//30 3//7
f 3//7 15//30 16//31 4//9
f 4//9 16//31 17//32 5//11
f 5//11 17//32 18//33 6//13
f 6//13 18//33 19//34 7//15
f 7//15 19//34 20//35 8//17
f 8//17 20//35 21//36 9//19
f 9//19 21//36 22//37 10//21
f 10//21 22//37 23//38 11//23
f 11//23 23//38 24//39 12//25
f 170//27 177//40 25//41 13//28
f 13//28 25//41 26//42 14//29
f 14//29 26//42 27//43 15//30
f 15//30 27//43 28//44 16//31
f 16//31 28//44 29//45 17//32
f 17//32 29//45 30//46 18//33
f 18//33 30//46 31//47 19//34
f 19//34 31//47 32//48 20//35
f 20//35 32//48 33//49 21//36
f 21//36 33//49 34//50 22//37
f 22//37 34//50 35//51 23//38
f 23//38 35//51 36//52 24//39
f 177//40 179//53 37//54 25//41
f 25//41 37//54 38//55 26//42
f 26//42 38//55 39//56 27//43
f 27//43 39//56 40//57 28//44
f 28//44 40//57 41//58 29//45
f 29//45 41//58 42//59 30//46
f 30//46 42//59 43//60 31//47
f 31//47 43//60 44//61 32//48
f 32//48 44//61 45//62 33//49
f 33//49 45//62 46//63 34//50
f 34//50 46//63 47//64 35//51
f 35//51 47//64 48//65 36//52
f 179//53 181//66 49//67 37//54
f 37//54 49//67 50//68 38//55
f 38//55 50//68 51//69 39//56
f 39//56 51//69 52//70 40//57
f 40//57 52//70 53//71 41//58
f 41//58 53//71 54//72 42//59
f 42//59 54//72 55//73 43//60
f 43//60 55//73 56//74 44//61
f 44//61 56//74 57//75 45//62
f 45//62 57//75 58//76 46//63
f 46//63 58//76 59//77 47//64
f 47//64 59//77 60//78 48//65
f 181//66 174//79 61//80 49//67
f 49//67 61//80 62//81 50//68
f 50//68 62//81 63//82 51//69
f 51//69 63//82 64//83 52//70
f 52//70 64//83 65//84 53//71
f 53//71 65//84 66//85 54//72
f 54//72 66//85 67//86 55//73
f 55//73 67//86 68//87 56//74
f 56//74 68//87 69//88 57//75
f 57//75 69//88 70//89 58//76
f 58//76 70//89 71//90 59//77
f 59//77 71//90 72//91 60//78
f 174//79 171//92 73//93 61//80
f 61//80 73//93 74//94 62//81
f 62//81 74//94 75//95 63//82
f 63//82 75//95 76//96 64//83
f 64//83 76//96 77//97 65//84
f 65//84 77//97 78//98 66//85
f 66//85 78//98 79//99 67//86
f 67//86 79//99 80//100 68//87
f 68//87 80//100 81//101 69//88
f 69//88 81//101 82//102 70//89
f 70//89 82//102 83//103 71//90
f 71//90 83//103 84//104 72//91
f 171//92 169//105 85//106 73//93
f 73//93 85//106 86//107 74//94
f 74//94 86//107 87//108 75//95
f 75//95 87//108 88//109 76//96
f 76//96 88//109 89//110 77//97
f 77//97 89//110 90//111 78//98
f 78//98 90//111 91//112 79//99
f 79//99 91//112 92//113 80//100
f 80//100 92//113 93//114 81//101
f 81//101 93//114 94//115 82//102
f 82//102 94//115 95//116 83//103
f 83//103 95//116 96//117 84//104
f 169//105 178//118 97//119 85//106
f 85//106 97//119 98//120 86//107
f 86//107 98//120 99//121 87//108
f 87//108 99//121 100//122 88//109
f 88//109 100//122 101//123 89//110
f 89//110 101//123 102//124 90//111
f 90//111 102//124 103//125 91//112
f 91//112 103//125 104//126 92//113
f 92//113 104//126 105//127 93//114
f 93//114 105//127 106//128 94//115
f 94//115 106//128 107//129 95//116
f 95//116 107//129 108//130 96//117
f 178//118 180//131 109//132 97//119
f 97//119 109//132 110//133 98//120
f 98//120 110//133 111//134 99//121
f 99//121 111//134 112//135 100//122
f 100//122 112//135 113//136 101//123
f 101//123 113//136 114//137 102//124
f 102//124 114//137 115//138 103//125
f 103//125 115//138 116//139 104//126
f 104//126 116//139 117//140 105//127
f 105//127 117//140 118//141 106//128
f 106//128 118//141 119//142 107//129
f 107//129 119//142 120//143 108//130
f 180//131 176//144 121//145 109//132
f 109//132 121//145 122//146 110//133
f 110//133 122//146 123//147 111//134
f 111//134 123//147 124//148 112//135
f 112//135 124//148 125//149 113//136
f 113//136 125//149 126//150 114//137
f 114//137 126//150 127//151 115//138
f 115//138 127//151 128//152 116//139
f 116//139 128//152 129//153 117//140
f 117//140 129//153 130//154 118//141
f 118//141 130//154 131//155 119//142
f 119//142 131//155 132//156 120//143
f 176//144 173//157 133//158 121//145
f 121//145 133//158 134//159 122//146
f 122//146 134//159 135//160 123//147
f 123//147 135//160 136//161 124//148
f 124//148 136//161 137//162 125//149
f 125//149 137//162 138//163 126//150
f 126//150 138//163 139//164 127//151
f 127//151 139//164 140//165 128//152
f 128//152 140//165 141//166 129//153
f 129//153 141//166 142//167 130//154
f 130//154 142//167 143//168 131//155
f 131//155 143//168 144//169 132//156
f 173//157 172//170 145//171 133//158
f 133//158 145//171 146//172 134//159
f 134//159 146//172 147//173 135//160
f 135//160 147//173 148//174 136//161
f 136//161 148//174 149//175 137//162
f 137//162 149//175 150//176 138//163
f 138//163 150//176 151//177 139//164
f 139//164 151//177 152//178 140//165
f 140//165 152//178 153//179 141//166
f 141//166 153//179 154//180 142//167
f 142//167 154//180 155//181 143//168
f 143//168 155//181 156//182 144//169
f 84//104 96//117 183//183 184//184
f 96//117 108//130 185//185 183//183
f 24//39 36//52 186//186 187//187
f 36//52 48//65 188//188 186//186
f 48//65 60//78 189//189 188//188
f 164//26 12//25 190//190 191//191
f 12//25 24//39 187//187 190//190
f 60//78 72//91 192//192 189//189
f 72//91 84//104 184//184 192//192
f 132//156 144//169 193//193 194//194
f 144//169 156//182 195//195 193//193
f 108//130 120//143 196//196 185//185
f 120//143 132//156 194//194 196//196
