# Blender v2.73 (sub 0) OBJ File: 'untitled.blend'
# www.blender.org
mtllib Landscape.018.mtl
o Landscape.018
v -94.383835 1.954007 -96.969696
v -94.383835 1.682202 -99.555557
v -94.383835 1.383370 -102.141411
v -94.383835 1.066255 -104.727272
v -94.383835 0.714658 -107.313133
v -94.383835 0.372398 -109.898987
v -94.383835 0.162172 -112.484848
v -94.383835 0.035192 -115.070709
v -94.383835 0.000000 -117.656563
v -94.383835 0.000000 -120.242424
v -94.383835 0.000000 -122.828285
v -94.383835 0.000000 -125.414139
v -94.383835 0.000000 -128.000000
v -91.797981 2.293486 -96.969696
v -91.797981 2.079529 -99.555557
v -91.797981 1.742227 -102.141411
v -91.797981 1.336035 -104.727272
v -91.797981 0.865774 -107.313133
v -91.797981 0.489269 -109.898987
v -91.797981 0.256239 -112.484848
v -91.797981 0.088212 -115.070709
v -91.797981 0.006131 -117.656563
v -91.797981 0.000000 -120.242424
v -91.797981 0.000000 -122.828285
v -91.797981 0.000000 -125.414139
v -91.797981 0.000000 -128.000000
v -89.212120 2.612714 -96.969696
v -89.212120 2.417960 -99.555557
v -89.212120 2.006083 -102.141411
v -89.212120 1.506911 -104.727272
v -89.212120 0.975171 -107.313133
v -89.212120 0.579786 -109.898987
v -89.212120 0.331507 -112.484848
v -89.212120 0.146315 -115.070709
v -89.212120 0.030606 -117.656563
v -89.212120 0.000000 -120.242424
v -89.212120 0.000000 -122.828285
v -89.212120 0.000000 -125.414139
v -89.212120 0.000000 -128.000000
v -86.626259 2.724909 -96.969696
v -86.626259 2.448338 -99.555557
v -86.626259 2.084879 -102.141411
v -86.626259 1.633528 -104.727272
v -86.626259 1.120796 -107.313133
v -86.626259 0.678770 -109.898987
v -86.626259 0.400099 -112.484848
v -86.626259 0.222831 -115.070709
v -86.626259 0.068536 -117.656563
v -86.626259 0.001678 -120.242424
v -86.626259 0.000000 -122.828285
v -86.626259 0.000000 -125.414139
v -86.626259 0.000000 -128.000000
v -84.040405 2.897835 -96.969696
v -84.040405 2.599944 -99.555557
v -84.040405 2.137371 -102.141411
v -84.040405 1.666131 -104.727272
v -84.040405 1.222121 -107.313133
v -84.040405 0.796037 -109.898987
v -84.040405 0.485856 -112.484848
v -84.040405 0.280194 -115.070709
v -84.040405 0.116059 -117.656563
v -84.040405 0.015435 -120.242424
v -84.040405 0.000000 -122.828285
v -84.040405 0.000000 -125.414139
v -84.040405 0.000000 -128.000000
v -81.454544 3.293335 -96.969696
v -81.454544 2.798214 -99.555557
v -81.454544 2.327296 -102.141411
v -81.454544 1.764606 -104.727272
v -81.454544 1.256054 -107.313133
v -81.454544 0.899714 -109.898987
v -81.454544 0.563675 -112.484848
v -81.454544 0.335771 -115.070709
v -81.454544 0.163626 -117.656563
v -81.454544 0.038628 -120.242424
v -81.454544 0.000000 -122.828285
v -81.454544 0.000000 -125.414139
v -81.454544 0.000000 -128.000000
v -78.868690 3.462177 -96.969696
v -78.868690 2.868842 -99.555557
v -78.868690 2.347662 -102.141411
v -78.868690 1.822398 -104.727272
v -78.868690 1.365294 -107.313133
v -78.868690 0.963468 -109.898987
v -78.868690 0.638576 -112.484848
v -78.868690 0.393809 -115.070709
v -78.868690 0.212675 -117.656563
v -78.868690 0.068343 -120.242424
v -78.868690 0.000709 -122.828285
v -78.868690 0.000000 -125.414139
v -78.868690 0.000000 -128.000000
v -76.282829 3.627346 -96.969696
v -76.282829 3.029030 -99.555557
v -76.282829 2.315337 -102.141411
v -76.282829 1.919502 -104.727272
v -76.282829 1.493657 -107.313133
v -76.282829 1.058047 -109.898987
v -76.282829 0.714032 -112.484848
v -76.282829 0.473256 -115.070709
v -76.282829 0.267711 -117.656563
v -76.282829 0.102031 -120.242424
v -76.282829 0.007632 -122.828285
v -76.282829 0.000000 -125.414139
v -76.282829 0.000000 -128.000000
v -73.696968 3.830117 -96.969696
v -73.696968 3.213875 -99.555557
v -73.696968 2.542112 -102.141411
v -73.696968 2.035533 -104.727272
v -73.696968 1.597176 -107.313133
v -73.696968 1.179459 -109.898987
v -73.696968 0.811933 -112.484848
v -73.696968 0.529460 -115.070709
v -73.696968 0.312454 -117.656563
v -73.696968 0.129273 -120.242424
v -73.696968 0.019645 -122.828285
v -73.696968 0.000000 -125.414139
v -73.696968 0.000000 -128.000000
v -71.111115 4.038746 -96.969696
v -71.111115 3.410818 -99.555557
v -71.111115 2.643284 -102.141411
v -71.111115 2.135583 -104.727272
v -71.111115 1.733636 -107.313133
v -71.111115 1.246569 -109.898987
v -71.111115 0.846772 -112.484848
v -71.111115 0.577912 -115.070709
v -71.111115 0.349803 -117.656563
v -71.111115 0.160235 -120.242424
v -71.111115 0.034710 -122.828285
v -71.111115 0.000000 -125.414139
v -71.111115 0.000000 -128.000000
v -68.525253 3.838020 -96.969696
v -68.525253 3.277877 -99.555557
v -68.525253 2.566075 -102.141411
v -68.525253 2.069424 -104.727272
v -68.525253 1.673240 -107.313133
v -68.525253 1.285838 -109.898987
v -68.525253 0.895906 -112.484848
v -68.525253 0.631448 -115.070709
v -68.525253 0.376337 -117.656563
v -68.525253 0.188191 -120.242424
v -68.525253 0.048776 -122.828285
v -68.525253 0.000000 -125.414139
v -68.525253 0.000000 -128.000000
v -65.939392 3.593941 -96.969696
v -65.939392 3.059442 -99.555557
v -65.939392 2.427292 -102.141411
v -65.939392 1.990508 -104.727272
v -65.939392 1.636942 -107.313133
v -65.939392 1.304117 -109.898987
v -65.939392 0.938314 -112.484848
v -65.939392 0.664947 -115.070709
v -65.939392 0.414155 -117.656563
v -65.939392 0.207756 -120.242424
v -65.939392 0.062381 -122.828285
v -65.939392 0.000577 -125.414139
v -65.939392 0.000000 -128.000000
v -96.000000 1.763029 -96.969696
v -96.000000 1.485084 -99.555557
v -96.000000 1.207197 -102.141411
v -96.000000 0.575431 -107.313133
v -96.000000 0.900480 -104.727272
v -96.000000 0.000000 -120.242424
v -96.000000 0.000000 -117.656563
v -96.000000 0.015687 -115.070709
v -96.000000 0.000000 -122.828285
v -96.000000 0.291880 -109.898987
v -96.000000 0.000000 -128.000000
v -96.000000 0.000000 -125.414139
v -96.000000 0.109397 -112.484848
v -64.000000 1.318007 -109.898987
v -64.000000 0.974339 -112.484848
v -64.000000 0.070578 -122.828285
v -64.000000 0.002460 -125.414139
v -64.000000 0.000000 -128.000000
v -64.000000 2.904182 -99.555557
v -64.000000 2.364149 -102.141411
v -64.000000 1.902643 -104.727272
v -64.000000 3.395027 -96.969696
v -64.000000 0.218090 -120.242424
v -64.000000 0.425452 -117.656563
v -64.000000 0.670987 -115.070709
v -64.000000 1.619529 -107.313133
v -73.696968 4.069484 -96.000000
v -78.868690 3.701572 -96.000000
v -76.282829 3.863842 -96.000000
v -91.797981 2.334201 -96.000000
v -71.111115 4.197679 -96.000000
v -89.212120 2.676037 -96.000000
v -94.383835 2.007939 -96.000000
v -65.939392 3.862374 -96.000000
v -81.454544 3.474216 -96.000000
v -68.525253 4.056800 -96.000000
v -84.040405 3.012185 -96.000000
v -86.626259 2.845489 -96.000000
v -96.000000 1.859918 -96.000000
v -64.000000 3.675908 -96.000000
vn -0.104000 0.991600 -0.077100
vn -0.115800 0.991300 -0.062700
vn -0.122700 0.989100 -0.080800
vn -0.111300 0.989600 -0.091200
vn -0.129200 0.985800 -0.107200
vn -0.116300 0.987400 -0.107600
vn -0.120400 0.985200 -0.121900
vn -0.109200 0.987400 -0.114600
vn -0.099200 0.985700 -0.135600
vn -0.098800 0.987300 -0.124200
vn -0.073000 0.988000 -0.135700
vn -0.080200 0.989000 -0.124500
vn -0.050100 0.993200 -0.104600
vn -0.054200 0.993700 -0.097700
vn -0.033100 0.997300 -0.065100
vn -0.031700 0.997700 -0.059100
vn -0.017000 0.999300 -0.033000
vn -0.014200 0.999600 -0.026200
vn -0.004600 0.999900 -0.008400
vn -0.003000 1.000000 -0.004900
vn -0.000300 1.000000 -0.000300
vn 0.000000 1.000000 0.000000
vn -0.127100 0.990600 -0.050700
vn -0.130100 0.989100 -0.068000
vn -0.131000 0.985400 -0.108600
vn -0.115100 0.983000 -0.143200
vn -0.083900 0.982900 -0.164000
vn -0.055700 0.985900 -0.157800
vn -0.040500 0.992400 -0.115800
vn -0.031600 0.996600 -0.075700
vn -0.020400 0.998700 -0.046500
vn -0.008300 0.999800 -0.017300
vn -0.001500 1.000000 -0.002000
vn -0.090300 0.993200 -0.073800
vn -0.083500 0.993300 -0.079100
vn -0.072200 0.990700 -0.114900
vn -0.064400 0.984900 -0.160800
vn -0.056600 0.981100 -0.185000
vn -0.047400 0.983600 -0.173700
vn -0.037200 0.991400 -0.125300
vn -0.029500 0.996100 -0.083000
vn -0.022900 0.998100 -0.057100
vn -0.012600 0.999500 -0.029100
vn -0.003200 1.000000 -0.006600
vn -0.000100 1.000000 -0.000100
vn -0.059600 0.992400 -0.107200
vn -0.052200 0.993200 -0.103800
vn -0.037400 0.991200 -0.126800
vn -0.028700 0.985800 -0.165500
vn -0.033000 0.982400 -0.183900
vn -0.041400 0.983500 -0.176200
vn -0.039900 0.990100 -0.134900
vn -0.031700 0.995500 -0.089500
vn -0.024400 0.997600 -0.064300
vn -0.015400 0.999000 -0.041200
vn -0.005600 0.999900 -0.013700
vn -0.000700 1.000000 -0.000900
vn -0.114000 0.984300 -0.134600
vn -0.100400 0.986100 -0.132500
vn -0.071900 0.986200 -0.149000
vn -0.045800 0.983200 -0.176600
vn -0.030300 0.982500 -0.183600
vn -0.029600 0.985100 -0.169500
vn -0.035400 0.989800 -0.138000
vn -0.031800 0.994600 -0.098600
vn -0.023300 0.997200 -0.070900
vn -0.016400 0.998600 -0.050600
vn -0.008100 0.999700 -0.022400
vn -0.001800 1.000000 -0.003400
vn -0.117700 0.976500 -0.180600
vn -0.098900 0.978800 -0.179200
vn -0.062300 0.981600 -0.180500
vn -0.040100 0.980600 -0.191800
vn -0.031600 0.981000 -0.191500
vn -0.029100 0.985900 -0.164700
vn -0.030200 0.990200 -0.136300
vn -0.028200 0.993900 -0.106300
vn -0.022900 0.996800 -0.076900
vn -0.017300 0.998200 -0.057100
vn -0.009800 0.999500 -0.031600
vn -0.002600 0.999900 -0.007800
vn -0.067900 0.972100 -0.224700
vn -0.060700 0.973700 -0.219700
vn -0.036900 0.976400 -0.212700
vn -0.017100 0.979500 -0.200500
vn -0.025500 0.982700 -0.183200
vn -0.037500 0.985700 -0.164100
vn -0.033700 0.989600 -0.139900
vn -0.028600 0.993500 -0.109800
vn -0.025500 0.996300 -0.081800
vn -0.019700 0.997800 -0.063600
vn -0.011500 0.999100 -0.040900
vn -0.003800 0.999900 -0.013400
vn -0.000400 1.000000 -0.000400
vn -0.069000 0.968900 -0.237700
vn -0.067900 0.970300 -0.231900
vn -0.058800 0.970000 -0.235700
vn -0.044500 0.976800 -0.209200
vn -0.040500 0.984600 -0.169900
vn -0.042500 0.985600 -0.163800
vn -0.040000 0.988300 -0.146700
vn -0.033500 0.992800 -0.114600
vn -0.026200 0.995800 -0.087500
vn -0.019100 0.997300 -0.070800
vn -0.011600 0.998700 -0.049400
vn -0.004800 0.999800 -0.019400
vn -0.000900 1.000000 -0.001700
vn -0.070000 0.973200 -0.219000
vn -0.072300 0.971600 -0.225000
vn -0.070200 0.966500 -0.246800
vn -0.058900 0.973100 -0.222800
vn -0.047600 0.983900 -0.172200
vn -0.042100 0.985400 -0.165000
vn -0.035700 0.987300 -0.154500
vn -0.026800 0.992100 -0.122400
vn -0.020400 0.995400 -0.093400
vn -0.015700 0.996900 -0.076600
vn -0.010900 0.998400 -0.056000
vn -0.005400 0.999700 -0.025100
vn -0.001300 1.000000 -0.003900
vn 0.000500 0.980600 -0.196200
vn -0.003000 0.977200 -0.212400
vn -0.007400 0.968200 -0.250100
vn -0.006900 0.972700 -0.231900
vn -0.008000 0.984700 -0.174100
vn -0.013900 0.986500 -0.162900
vn -0.017800 0.987100 -0.159200
vn -0.018000 0.991800 -0.126600
vn -0.016900 0.995100 -0.096800
vn -0.013900 0.996600 -0.080800
vn -0.010200 0.998100 -0.060300
vn -0.005600 0.999500 -0.030800
vn -0.001400 1.000000 -0.006700
vn 0.073300 0.973500 -0.216600
vn 0.074100 0.973500 -0.216100
vn 0.063900 0.968900 -0.239000
vn 0.043700 0.973700 -0.223700
vn 0.028700 0.985700 -0.166000
vn 0.013400 0.988600 -0.150200
vn -0.005200 0.988600 -0.150100
vn -0.015700 0.992000 -0.125400
vn -0.015900 0.994900 -0.099100
vn -0.012700 0.996300 -0.084800
vn -0.009000 0.997900 -0.063800
vn -0.005000 0.999300 -0.035900
vn -0.001400 0.999900 -0.009400
vn 0.088500 0.962400 -0.256900
vn 0.088400 0.969400 -0.228800
vn 0.074500 0.973100 -0.218000
vn 0.050300 0.977400 -0.205100
vn 0.032200 0.987600 -0.153600
vn 0.013300 0.991200 -0.131300
vn -0.005000 0.990800 -0.135000
vn -0.012400 0.992200 -0.123700
vn -0.010900 0.994700 -0.101800
vn -0.008700 0.996100 -0.087200
vn -0.006900 0.997700 -0.066800
vn -0.004100 0.999200 -0.039500
vn -0.001500 0.999900 -0.011800
vn -0.005900 0.991600 -0.128800
vn -0.011800 0.992300 -0.123400
vn -0.003700 0.999200 -0.040800
vn -0.001500 0.999900 -0.012900
vn -0.000500 1.000000 -0.000600
vn 0.071900 0.975600 -0.207400
vn 0.046600 0.979500 -0.195800
vn 0.032600 0.988700 -0.146500
vn 0.092200 0.968300 -0.232100
vn 0.095200 0.957800 -0.271300
vn -0.005200 0.997700 -0.068200
vn -0.005000 0.996100 -0.087600
vn -0.007600 0.994600 -0.103200
vn 0.013900 0.992400 -0.122000
usemtl None
s 1
f 195//1 189//2 1//3 157//4
f 157//4 1//3 2//5 158//6
f 158//6 2//5 3//7 159//8
f 159//8 3//7 4//9 161//10
f 161//10 4//9 5//11 160//12
f 160//12 5//11 6//13 166//14
f 166//14 6//13 7//15 169//16
f 169//16 7//15 8//17 164//18
f 164//18 8//17 9//19 163//20
f 163//20 9//19 10//21 162//22
f 162//22 10//21 11//22 165//22
f 165//22 11//22 12//22 168//22
f 168//22 12//22 13//22 167//22
f 189//2 186//23 14//24 1//3
f 1//3 14//24 15//25 2//5
f 2//5 15//25 16//26 3//7
f 3//7 16//26 17//27 4//9
f 4//9 17//27 18//28 5//11
f 5//11 18//28 19//29 6//13
f 6//13 19//29 20//30 7//15
f 7//15 20//30 21//31 8//17
f 8//17 21//31 22//32 9//19
f 9//19 22//32 23//33 10//21
f 10//21 23//33 24//22 11//22
f 11//22 24//22 25//22 12//22
f 12//22 25//22 26//22 13//22
f 186//23 188//34 27//35 14//24
f 14//24 27//35 28//36 15//25
f 15//25 28//36 29//37 16//26
f 16//26 29//37 30//38 17//27
f 17//27 30//38 31//39 18//28
f 18//28 31//39 32//40 19//29
f 19//29 32//40 33//41 20//30
f 20//30 33//41 34//42 21//31
f 21//31 34//42 35//43 22//32
f 22//32 35//43 36//44 23//33
f 23//33 36//44 37//45 24//22
f 24//22 37//45 38//22 25//22
f 25//22 38//22 39//22 26//22
f 188//34 194//46 40//47 27//35
f 27//35 40//47 41//48 28//36
f 28//36 41//48 42//49 29//37
f 29//37 42//49 43//50 30//38
f 30//38 43//50 44//51 31//39
f 31//39 44//51 45//52 32//40
f 32//40 45//52 46//53 33//41
f 33//41 46//53 47//54 34//42
f 34//42 47//54 48//55 35//43
f 35//43 48//55 49//56 36//44
f 36//44 49//56 50//57 37//45
f 37//45 50//57 51//22 38//22
f 38//22 51//22 52//22 39//22
f 194//46 193//58 53//59 40//47
f 40//47 53//59 54//60 41//48
f 41//48 54//60 55//61 42//49
f 42//49 55//61 56//62 43//50
f 43//50 56//62 57//63 44//51
f 44//51 57//63 58//64 45//52
f 45//52 58//64 59//65 46//53
f 46//53 59//65 60//66 47//54
f 47//54 60//66 61//67 48//55
f 48//55 61//67 62//68 49//56
f 49//56 62//68 63//69 50//57
f 50//57 63//69 64//22 51//22
f 51//22 64//22 65//22 52//22
f 193//58 191//70 66//71 53//59
f 53//59 66//71 67//72 54//60
f 54//60 67//72 68//73 55//61
f 55//61 68//73 69//74 56//62
f 56//62 69//74 70//75 57//63
f 57//63 70//75 71//76 58//64
f 58//64 71//76 72//77 59//65
f 59//65 72//77 73//78 60//66
f 60//66 73//78 74//79 61//67
f 61//67 74//79 75//80 62//68
f 62//68 75//80 76//81 63//69
f 63//69 76//81 77//22 64//22
f 64//22 77//22 78//22 65//22
f 191//70 184//82 79//83 66//71
f 66//71 79//83 80//84 67//72
f 67//72 80//84 81//85 68//73
f 68//73 81//85 82//86 69//74
f 69//74 82//86 83//87 70//75
f 70//75 83//87 84//88 71//76
f 71//76 84//88 85//89 72//77
f 72//77 85//89 86//90 73//78
f 73//78 86//90 87//91 74//79
f 74//79 87//91 88//92 75//80
f 75//80 88//92 89//93 76//81
f 76//81 89//93 90//94 77//22
f 77//22 90//94 91//22 78//22
f 184//82 185//95 92//96 79//83
f 79//83 92//96 93//97 80//84
f 80//84 93//97 94//98 81//85
f 81//85 94//98 95//99 82//86
f 82//86 95//99 96//100 83//87
f 83//87 96//100 97//101 84//88
f 84//88 97//101 98//102 85//89
f 85//89 98//102 99//103 86//90
f 86//90 99//103 100//104 87//91
f 87//91 100//104 101//105 88//92
f 88//92 101//105 102//106 89//93
f 89//93 102//106 103//107 90//94
f 90//94 103//107 104//22 91//22
f 185//95 183//108 105//109 92//96
f 92//96 105//109 106//110 93//97
f 93//97 106//110 107//111 94//98
f 94//98 107//111 108//112 95//99
f 95//99 108//112 109//113 96//100
f 96//100 109//113 110//114 97//101
f 97//101 110//114 111//115 98//102
f 98//102 111//115 112//116 99//103
f 99//103 112//116 113//117 100//104
f 100//104 113//117 114//118 101//105
f 101//105 114//118 115//119 102//106
f 102//106 115//119 116//120 103//107
f 103//107 116//120 117//22 104//22
f 183//108 187//121 118//122 105//109
f 105//109 118//122 119//123 106//110
f 106//110 119//123 120//124 107//111
f 107//111 120//124 121//125 108//112
f 108//112 121//125 122//126 109//113
f 109//113 122//126 123//127 110//114
f 110//114 123//127 124//128 111//115
f 111//115 124//128 125//129 112//116
f 112//116 125//129 126//130 113//117
f 113//117 126//130 127//131 114//118
f 114//118 127//131 128//132 115//119
f 115//119 128//132 129//133 116//120
f 116//120 129//133 130//22 117//22
f 187//121 192//134 131//135 118//122
f 118//122 131//135 132//136 119//123
f 119//123 132//136 133//137 120//124
f 120//124 133//137 134//138 121//125
f 121//125 134//138 135//139 122//126
f 122//126 135//139 136//140 123//127
f 123//127 136//140 137//141 124//128
f 124//128 137//141 138//142 125//129
f 125//129 138//142 139//143 126//130
f 126//130 139//143 140//144 127//131
f 127//131 140//144 141//145 128//132
f 128//132 141//145 142//146 129//133
f 129//133 142//146 143//45 130//22
f 192//134 190//147 144//148 131//135
f 131//135 144//148 145//149 132//136
f 132//136 145//149 146//150 133//137
f 133//137 146//150 147//151 134//138
f 134//138 147//151 148//152 135//139
f 135//139 148//152 149//153 136//140
f 136//140 149//153 150//154 137//141
f 137//141 150//154 151//155 138//142
f 138//142 151//155 152//156 139//143
f 139//143 152//156 153//157 140//144
f 140//144 153//157 154//158 141//145
f 141//145 154//158 155//159 142//146
f 142//146 155//159 156//21 143//45
f 149//153 170//160 171//161 150//154
f 154//158 172//162 173//163 155//159
f 155//159 173//163 174//164 156//21
f 145//149 175//165 176//166 146//150
f 146//150 176//166 177//167 147//151
f 144//148 178//168 175//165 145//149
f 190//147 196//169 178//168 144//148
f 153//157 179//170 172//162 154//158
f 152//156 180//171 179//170 153//157
f 150//154 171//161 181//172 151//155
f 151//155 181//172 180//171 152//156
f 147//151 177//167 182//173 148//152
f 148//152 182//173 170//160 149//153
