# Blender v2.73 (sub 0) OBJ File: 'untitled.blend'
# www.blender.org
mtllib Landscape.053.mtl
o Landscape.053
v 32.323231 14.105814 -65.939392
v 32.323231 13.149683 -68.525253
v 32.323231 11.580845 -71.111115
v 32.323231 11.058745 -73.696968
v 32.323231 9.852013 -76.282829
v 32.323231 8.410852 -78.868690
v 32.323231 7.613052 -81.454544
v 32.323231 7.251521 -84.040405
v 32.323231 7.307500 -86.626259
v 32.323231 7.477702 -89.212120
v 32.323231 7.374741 -91.797981
v 32.323231 7.184648 -94.383835
v 34.909092 13.388219 -65.939392
v 34.909092 12.280408 -68.525253
v 34.909092 10.940166 -71.111115
v 34.909092 10.057049 -73.696968
v 34.909092 9.203638 -76.282829
v 34.909092 8.421336 -78.868690
v 34.909092 7.934208 -81.454544
v 34.909092 7.455653 -84.040405
v 34.909092 7.346154 -86.626259
v 34.909092 7.626668 -89.212120
v 34.909092 7.270099 -91.797981
v 34.909092 7.281964 -94.383835
v 37.494949 12.364432 -65.939392
v 37.494949 11.590980 -68.525253
v 37.494949 10.371223 -71.111115
v 37.494949 9.542879 -73.696968
v 37.494949 9.071790 -76.282829
v 37.494949 8.243602 -78.868690
v 37.494949 7.928593 -81.454544
v 37.494949 7.917348 -84.040405
v 37.494949 7.711629 -86.626259
v 37.494949 7.654585 -89.212120
v 37.494949 7.209232 -91.797981
v 37.494949 6.965332 -94.383835
v 40.080807 11.383349 -65.939392
v 40.080807 10.380183 -68.525253
v 40.080807 9.765688 -71.111115
v 40.080807 9.171776 -73.696968
v 40.080807 8.580069 -76.282829
v 40.080807 8.338721 -78.868690
v 40.080807 8.218119 -81.454544
v 40.080807 8.074928 -84.040405
v 40.080807 7.462287 -86.626259
v 40.080807 7.601808 -89.212120
v 40.080807 7.085741 -91.797981
v 40.080807 6.759559 -94.383835
v 42.666668 10.599933 -65.939392
v 42.666668 10.034323 -68.525253
v 42.666668 9.255621 -71.111115
v 42.666668 8.864285 -73.696968
v 42.666668 8.355579 -76.282829
v 42.666668 7.981428 -78.868690
v 42.666668 7.841390 -81.454544
v 42.666668 7.691575 -84.040405
v 42.666668 7.174164 -86.626259
v 42.666668 7.280296 -89.212120
v 42.666668 6.826335 -91.797981
v 42.666668 6.225080 -94.383835
v 45.252525 10.139684 -65.939392
v 45.252525 9.672309 -68.525253
v 45.252525 9.089029 -71.111115
v 45.252525 8.559908 -73.696968
v 45.252525 8.099972 -76.282829
v 45.252525 7.576802 -78.868690
v 45.252525 6.918996 -81.454544
v 45.252525 6.942808 -84.040405
v 45.252525 6.932271 -86.626259
v 45.252525 6.999862 -89.212120
v 45.252525 6.467170 -91.797981
v 45.252525 6.098080 -94.383835
v 47.838383 9.342447 -65.939392
v 47.838383 8.773835 -68.525253
v 47.838383 8.140592 -71.111115
v 47.838383 7.979952 -73.696968
v 47.838383 7.484618 -76.282829
v 47.838383 6.979004 -78.868690
v 47.838383 6.434726 -81.454544
v 47.838383 6.395556 -84.040405
v 47.838383 6.504718 -86.626259
v 47.838383 6.296875 -89.212120
v 47.838383 5.986463 -91.797981
v 47.838383 6.029449 -94.383835
v 50.424244 8.677499 -65.939392
v 50.424244 8.252679 -68.525253
v 50.424244 7.615905 -71.111115
v 50.424244 7.155355 -73.696968
v 50.424244 7.181211 -76.282829
v 50.424244 7.035677 -78.868690
v 50.424244 6.462231 -81.454544
v 50.424244 6.214690 -84.040405
v 50.424244 6.074205 -86.626259
v 50.424244 5.829915 -89.212120
v 50.424244 5.726414 -91.797981
v 50.424244 5.490848 -94.383835
v 53.010101 8.581283 -65.939392
v 53.010101 8.217420 -68.525253
v 53.010101 7.657392 -71.111115
v 53.010101 7.062411 -73.696968
v 53.010101 6.841633 -76.282829
v 53.010101 6.779056 -78.868690
v 53.010101 6.398663 -81.454544
v 53.010101 5.938162 -84.040405
v 53.010101 5.980783 -86.626259
v 53.010101 5.862678 -89.212120
v 53.010101 5.619788 -91.797981
v 53.010101 5.242057 -94.383835
v 55.595959 8.148265 -65.939392
v 55.595959 7.959763 -68.525253
v 55.595959 7.621008 -71.111115
v 55.595959 7.096246 -73.696968
v 55.595959 6.786575 -76.282829
v 55.595959 6.924734 -78.868690
v 55.595959 6.604191 -81.454544
v 55.595959 6.183090 -84.040405
v 55.595959 5.743133 -86.626259
v 55.595959 5.475878 -89.212120
v 55.595959 5.566884 -91.797981
v 55.595959 5.373562 -94.383835
v 58.181820 7.883432 -65.939392
v 58.181820 7.709431 -68.525253
v 58.181820 7.190279 -71.111115
v 58.181820 6.806608 -73.696968
v 58.181820 6.690988 -76.282829
v 58.181820 6.634434 -78.868690
v 58.181820 6.380244 -81.454544
v 58.181820 6.342164 -84.040405
v 58.181820 5.921384 -86.626259
v 58.181820 5.671157 -89.212120
v 58.181820 5.723715 -91.797981
v 58.181820 5.600317 -94.383835
v 60.767677 7.752140 -65.939392
v 60.767677 7.662531 -68.525253
v 60.767677 7.344694 -71.111115
v 60.767677 6.997389 -73.696968
v 60.767677 6.541282 -76.282829
v 60.767677 6.602180 -78.868690
v 60.767677 6.338942 -81.454544
v 60.767677 6.322624 -84.040405
v 60.767677 5.840219 -86.626259
v 60.767677 5.698621 -89.212120
v 60.767677 5.714989 -91.797981
v 60.767677 5.914254 -94.383835
v 63.353535 7.803128 -65.939392
v 63.353535 7.689877 -68.525253
v 63.353535 7.637635 -71.111115
v 63.353535 7.182797 -73.696968
v 63.353535 6.551857 -76.282829
v 63.353535 6.500881 -78.868690
v 63.353535 6.225452 -81.454544
v 63.353535 5.778458 -84.040405
v 63.353535 5.654984 -86.626259
v 63.353535 5.313181 -89.212120
v 63.353535 5.667595 -91.797981
v 63.353535 5.976239 -94.383835
v 32.000000 14.021710 -65.939392
v 32.000000 13.114859 -68.525253
v 32.000000 11.634242 -71.111115
v 32.000000 11.094090 -73.696968
v 32.000000 9.922425 -76.282829
v 32.000000 7.283751 -84.040405
v 32.000000 7.329573 -86.626259
v 32.000000 8.455111 -78.868690
v 32.000000 7.639535 -81.454544
v 32.000000 7.479109 -89.212120
v 32.000000 7.378820 -91.797981
v 32.000000 7.139738 -94.383835
v 64.000000 7.781082 -68.525253
v 64.000000 7.783236 -71.111115
v 64.000000 7.379931 -73.696968
v 64.000000 6.727475 -76.282829
v 64.000000 6.497857 -78.868690
v 64.000000 5.664995 -84.040405
v 64.000000 5.573908 -86.626259
v 64.000000 6.169432 -81.454544
v 64.000000 7.815258 -65.939392
v 64.000000 5.313902 -89.212120
v 64.000000 5.919479 -94.383835
v 64.000000 5.633333 -91.797981
v 45.252525 9.639915 -64.000000
v 50.424244 8.679460 -64.000000
v 58.181820 7.578712 -64.000000
v 60.767677 7.476113 -64.000000
v 32.323231 14.384759 -64.000000
v 34.909092 13.422590 -64.000000
v 47.838383 9.245945 -64.000000
v 42.666668 10.272856 -64.000000
v 40.080807 11.442476 -64.000000
v 55.595959 7.863428 -64.000000
v 37.494949 12.075886 -64.000000
v 53.010101 8.493467 -64.000000
v 63.353535 7.365330 -64.000000
v 32.000000 14.355389 -64.000000
v 64.000000 7.402684 -64.000000
v 40.080807 6.287559 -96.000000
v 37.494949 6.585441 -96.000000
v 34.909092 6.865809 -96.000000
v 47.838383 5.739472 -96.000000
v 45.252525 5.902878 -96.000000
v 60.767677 5.760822 -96.000000
v 58.181820 5.499257 -96.000000
v 42.666668 5.920418 -96.000000
v 55.595959 5.206232 -96.000000
v 53.010101 5.128886 -96.000000
v 63.353535 5.867621 -96.000000
v 64.000000 5.813062 -96.000000
v 32.323231 6.989769 -96.000000
v 32.000000 6.944557 -96.000000
v 50.424244 5.280967 -96.000000
vn -0.170800 0.973200 -0.153700
vn 0.067800 0.990600 -0.119200
vn 0.062600 0.970300 -0.233600
vn -0.171400 0.953300 -0.248500
vn 0.093800 0.901300 -0.422900
vn -0.070800 0.901400 -0.427200
vn 0.179500 0.913800 -0.364300
vn 0.078200 0.927900 -0.364600
vn 0.214800 0.927500 -0.305900
vn 0.140900 0.941500 -0.306000
vn 0.177800 0.893000 -0.413300
vn 0.149800 0.881900 -0.447000
vn 0.076800 0.931800 -0.354700
vn 0.129900 0.909100 -0.395800
vn 0.007800 0.977900 -0.208800
vn 0.097200 0.971100 -0.218200
vn 0.006700 0.997400 -0.072000
vn 0.086900 0.994500 -0.059100
vn 0.009200 0.999200 0.039500
vn 0.059900 0.997400 0.040700
vn 0.000000 1.000000 0.005200
vn 0.022400 0.999700 0.011200
vn -0.015400 0.998000 -0.061300
vn -0.027200 0.997800 -0.060900
vn -0.048300 0.993200 -0.105700
vn -0.100400 0.989800 -0.100900
vn 0.363200 0.931700 -0.008900
vn 0.329300 0.927400 -0.177400
vn 0.259300 0.879200 -0.399700
vn 0.238800 0.899000 -0.367200
vn 0.224400 0.929200 -0.293600
vn 0.142300 0.935100 -0.324600
vn 0.036000 0.961400 -0.272800
vn -0.053600 0.985200 -0.162600
vn -0.098300 0.991800 -0.081300
vn -0.079200 0.996700 0.014900
vn -0.028700 0.999200 -0.028200
vn 0.018000 0.996600 -0.080400
vn 0.047600 0.990900 -0.125600
vn 0.355500 0.932900 0.058000
vn 0.352200 0.926700 -0.131000
vn 0.299600 0.888500 -0.347500
vn 0.227900 0.916000 -0.330000
vn 0.163600 0.953400 -0.253500
vn 0.103900 0.966000 -0.236500
vn 0.023100 0.982600 -0.184300
vn -0.053200 0.994500 -0.090300
vn -0.078400 0.993300 -0.085400
vn -0.039800 0.998400 -0.039800
vn 0.005600 0.997600 -0.069600
vn 0.044000 0.991500 -0.122700
vn 0.085700 0.983000 -0.162200
vn 0.325000 0.943800 0.060400
vn 0.315600 0.941300 -0.119400
vn 0.261400 0.920100 -0.291500
vn 0.200800 0.945600 -0.255900
vn 0.148700 0.965700 -0.212700
vn 0.111500 0.977000 -0.181600
vn 0.063400 0.991500 -0.113900
vn 0.031600 0.998000 -0.055200
vn 0.050700 0.992200 -0.113500
vn 0.080700 0.993700 -0.077000
vn 0.079900 0.993900 -0.076000
vn 0.089100 0.982600 -0.162600
vn 0.118300 0.974200 -0.192400
vn 0.276400 0.951200 0.137500
vn 0.234900 0.970400 -0.055200
vn 0.154000 0.956700 -0.246900
vn 0.124700 0.968100 -0.217400
vn 0.112000 0.975800 -0.187500
vn 0.110500 0.979300 -0.169200
vn 0.155800 0.980300 -0.121500
vn 0.210200 0.975100 -0.069800
vn 0.192500 0.976300 -0.098500
vn 0.133600 0.989300 -0.057700
vn 0.112600 0.991000 -0.072700
vn 0.118200 0.976200 -0.181900
vn 0.109400 0.976400 -0.186100
vn 0.212600 0.961300 0.175400
vn 0.224200 0.974500 -0.006900
vn 0.222100 0.951300 -0.213700
vn 0.201400 0.959900 -0.195000
vn 0.175600 0.970400 -0.165700
vn 0.169300 0.968900 -0.180100
vn 0.199700 0.962700 -0.182200
vn 0.237900 0.966100 -0.099700
vn 0.219400 0.975200 -0.026900
vn 0.172000 0.984900 -0.018600
vn 0.163900 0.982800 -0.084200
vn 0.135500 0.979600 -0.148000
vn 0.067400 0.988300 -0.136900
vn 0.227200 0.970100 0.085700
vn 0.248400 0.967300 -0.050300
vn 0.262800 0.942700 -0.205700
vn 0.262600 0.949200 -0.173500
vn 0.241700 0.961900 -0.127700
vn 0.177600 0.973300 -0.145600
vn 0.114300 0.975400 -0.188400
vn 0.102700 0.987000 -0.123300
vn 0.132100 0.991100 -0.011400
vn 0.172000 0.984800 -0.024800
vn 0.186200 0.978500 -0.087800
vn 0.154300 0.984500 -0.083700
vn 0.122200 0.987500 -0.099500
vn 0.143600 0.989400 0.023000
vn 0.134600 0.988200 -0.073500
vn 0.109800 0.973600 -0.199900
vn 0.114000 0.974200 -0.194400
vn 0.138800 0.984000 -0.111100
vn 0.114500 0.990700 -0.072900
vn 0.051900 0.988900 -0.139400
vn 0.034900 0.988600 -0.146100
vn 0.071000 0.996000 -0.054100
vn 0.093100 0.994600 -0.045400
vn 0.083800 0.993600 -0.075500
vn 0.093600 0.992800 -0.075100
vn 0.121600 0.987400 -0.101500
vn 0.128200 0.990000 0.058200
vn 0.103300 0.994000 -0.035200
vn 0.053100 0.985100 -0.163300
vn 0.016300 0.979200 -0.202100
vn 0.024500 0.990100 -0.138000
vn 0.046100 0.998100 -0.041300
vn 0.022700 0.996000 -0.085900
vn -0.006800 0.987900 -0.154900
vn 0.012500 0.994900 -0.099600
vn 0.050300 0.996900 -0.059800
vn 0.057600 0.996500 -0.060100
vn 0.038100 0.996000 -0.080900
vn 0.022400 0.994400 -0.103300
vn 0.151900 0.980800 0.122200
vn 0.135100 0.990700 0.017000
vn 0.103800 0.986400 -0.127200
vn 0.080300 0.980500 -0.179400
vn 0.054000 0.988300 -0.142400
vn 0.033900 0.998700 -0.038400
vn 0.022000 0.998300 -0.053500
vn -0.010300 0.992000 -0.125300
vn -0.035000 0.991600 -0.124600
vn -0.004200 0.994600 -0.103600
vn 0.016100 0.998900 -0.043800
vn -0.018100 0.998900 -0.043200
vn -0.057300 0.994700 -0.084900
vn 0.074400 0.986100 0.148700
vn 0.071200 0.996500 0.044600
vn 0.060800 0.991900 -0.111100
vn 0.044600 0.986300 -0.158900
vn 0.034100 0.991500 -0.125900
vn 0.044000 0.998000 -0.043900
vn 0.055700 0.997300 -0.048400
vn 0.034100 0.996400 -0.077200
vn -0.005100 0.994000 -0.108900
vn -0.026600 0.991400 -0.128000
vn -0.033300 0.998900 -0.033600
vn -0.051100 0.998700 -0.001300
vn -0.085800 0.995000 -0.051800
vn 0.028000 0.986000 0.164600
vn 0.019000 0.998000 0.060200
vn -0.015700 0.996600 -0.080400
vn -0.059800 0.989500 -0.131100
vn -0.050500 0.987000 -0.152300
vn 0.002000 0.996900 -0.078400
vn 0.027000 0.998400 -0.050100
vn 0.048300 0.995900 -0.075700
vn 0.073700 0.992600 -0.096800
vn 0.069600 0.991000 -0.114000
vn 0.050000 0.998500 -0.021000
vn 0.004500 0.998700 0.049300
vn -0.051100 0.998600 -0.011500
vn -0.013000 0.980200 0.197600
vn -0.030400 0.996100 0.082500
vn -0.084400 0.995700 -0.037100
vn -0.147900 0.984000 -0.098700
vn -0.164200 0.968200 -0.188800
vn -0.104800 0.986900 -0.122500
vn -0.007000 0.997700 -0.068100
vn 0.085100 0.988900 -0.121800
vn 0.135400 0.985000 -0.106700
vn 0.114800 0.989200 -0.091000
vn 0.070200 0.997500 -0.001800
vn 0.044100 0.993700 0.103100
vn 0.030100 0.999400 0.016200
vn -0.130000 0.991300 -0.019000
vn -0.216900 0.972600 -0.083400
vn -0.261100 0.945600 -0.193900
vn -0.204100 0.968000 -0.146300
vn -0.043600 0.995400 -0.085200
vn 0.138700 0.984200 -0.109600
vn 0.105100 0.991400 -0.078500
vn 0.087100 0.985100 -0.148100
vn -0.059000 0.993900 0.093400
vn -0.037400 0.976100 0.214000
vn 0.044000 0.999000 0.007000
vn 0.047700 0.991400 0.121600
vn 0.078000 0.996700 0.024100
vn 0.131400 0.961400 -0.242000
vn 0.102400 0.963900 -0.245800
vn 0.059000 0.975400 -0.212400
vn 0.117000 0.981800 -0.149600
vn 0.036000 0.987900 -0.150500
vn -0.071600 0.994300 -0.079400
vn -0.104900 0.991200 -0.080200
vn 0.097100 0.976600 -0.191800
vn -0.069800 0.994000 -0.084400
vn 0.018300 0.995500 -0.092900
vn 0.026600 0.996900 -0.073600
vn 0.085600 0.994100 -0.066100
vn -0.066500 0.986100 -0.152600
vn -0.137100 0.983400 -0.118700
vn 0.131800 0.983400 -0.124600
usemtl None
s 1
f 194//1 185//2 1//3 157//4
f 157//4 1//3 2//5 158//6
f 158//6 2//5 3//7 159//8
f 159//8 3//7 4//9 160//10
f 160//10 4//9 5//11 161//12
f 161//12 5//11 6//13 164//14
f 164//14 6//13 7//15 165//16
f 165//16 7//15 8//17 162//18
f 162//18 8//17 9//19 163//20
f 163//20 9//19 10//21 166//22
f 166//22 10//21 11//23 167//24
f 167//24 11//23 12//25 168//26
f 185//2 186//27 13//28 1//3
f 1//3 13//28 14//29 2//5
f 2//5 14//29 15//30 3//7
f 3//7 15//30 16//31 4//9
f 4//9 16//31 17//32 5//11
f 5//11 17//32 18//33 6//13
f 6//13 18//33 19//34 7//15
f 7//15 19//34 20//35 8//17
f 8//17 20//35 21//36 9//19
f 9//19 21//36 22//37 10//21
f 10//21 22//37 23//38 11//23
f 11//23 23//38 24//39 12//25
f 186//27 191//40 25//41 13//28
f 13//28 25//41 26//42 14//29
f 14//29 26//42 27//43 15//30
f 15//30 27//43 28//44 16//31
f 16//31 28//44 29//45 17//32
f 17//32 29//45 30//46 18//33
f 18//33 30//46 31//47 19//34
f 19//34 31//47 32//48 20//35
f 20//35 32//48 33//49 21//36
f 21//36 33//49 34//50 22//37
f 22//37 34//50 35//51 23//38
f 23//38 35//51 36//52 24//39
f 191//40 189//53 37//54 25//41
f 25//41 37//54 38//55 26//42
f 26//42 38//55 39//56 27//43
f 27//43 39//56 40//57 28//44
f 28//44 40//57 41//58 29//45
f 29//45 41//58 42//59 30//46
f 30//46 42//59 43//60 31//47
f 31//47 43//60 44//61 32//48
f 32//48 44//61 45//62 33//49
f 33//49 45//62 46//63 34//50
f 34//50 46//63 47//64 35//51
f 35//51 47//64 48//65 36//52
f 189//53 188//66 49//67 37//54
f 37//54 49//67 50//68 38//55
f 38//55 50//68 51//69 39//56
f 39//56 51//69 52//70 40//57
f 40//57 52//70 53//71 41//58
f 41//58 53//71 54//72 42//59
f 42//59 54//72 55//73 43//60
f 43//60 55//73 56//74 44//61
f 44//61 56//74 57//75 45//62
f 45//62 57//75 58//76 46//63
f 46//63 58//76 59//77 47//64
f 47//64 59//77 60//78 48//65
f 188//66 181//79 61//80 49//67
f 49//67 61//80 62//81 50//68
f 50//68 62//81 63//82 51//69
f 51//69 63//82 64//83 52//70
f 52//70 64//83 65//84 53//71
f 53//71 65//84 66//85 54//72
f 54//72 66//85 67//86 55//73
f 55//73 67//86 68//87 56//74
f 56//74 68//87 69//88 57//75
f 57//75 69//88 70//89 58//76
f 58//76 70//89 71//90 59//77
f 59//77 71//90 72//91 60//78
f 181//79 187//92 73//93 61//80
f 61//80 73//93 74//94 62//81
f 62//81 74//94 75//95 63//82
f 63//82 75//95 76//96 64//83
f 64//83 76//96 77//97 65//84
f 65//84 77//97 78//98 66//85
f 66//85 78//98 79//99 67//86
f 67//86 79//99 80//100 68//87
f 68//87 80//100 81//101 69//88
f 69//88 81//101 82//102 70//89
f 70//89 82//102 83//103 71//90
f 71//90 83//103 84//104 72//91
f 187//92 182//105 85//106 73//93
f 73//93 85//106 86//107 74//94
f 74//94 86//107 87//108 75//95
f 75//95 87//108 88//109 76//96
f 76//96 88//109 89//110 77//97
f 77//97 89//110 90//111 78//98
f 78//98 90//111 91//112 79//99
f 79//99 91//112 92//113 80//100
f 80//100 92//113 93//114 81//101
f 81//101 93//114 94//115 82//102
f 82//102 94//115 95//116 83//103
f 83//103 95//116 96//117 84//104
f 182//105 192//118 97//119 85//106
f 85//106 97//119 98//120 86//107
f 86//107 98//120 99//121 87//108
f 87//108 99//121 100//122 88//109
f 88//109 100//122 101//123 89//110
f 89//110 101//123 102//124 90//111
f 90//111 102//124 103//125 91//112
f 91//112 103//125 104//126 92//113
f 92//113 104//126 105//127 93//114
f 93//114 105//127 106//128 94//115
f 94//115 106//128 107//129 95//116
f 95//116 107//129 108//130 96//117
f 192//118 190//131 109//132 97//119
f 97//119 109//132 110//133 98//120
f 98//120 110//133 111//134 99//121
f 99//121 111//134 112//135 100//122
f 100//122 112//135 113//136 101//123
f 101//123 113//136 114//137 102//124
f 102//124 114//137 115//138 103//125
f 103//125 115//138 116//139 104//126
f 104//126 116//139 117//140 105//127
f 105//127 117//140 118//141 106//128
f 106//128 118//141 119//142 107//129
f 107//129 119//142 120//143 108//130
f 190//131 183//144 121//145 109//132
f 109//132 121//145 122//146 110//133
f 110//133 122//146 123//147 111//134
f 111//134 123//147 124//148 112//135
f 112//135 124//148 125//149 113//136
f 113//136 125//149 126//150 114//137
f 114//137 126//150 127//151 115//138
f 115//138 127//151 128//152 116//139
f 116//139 128//152 129//153 117//140
f 117//140 129//153 130//154 118//141
f 118//141 130//154 131//155 119//142
f 119//142 131//155 132//156 120//143
f 183//144 184//157 133//158 121//145
f 121//145 133//158 134//159 122//146
f 122//146 134//159 135//160 123//147
f 123//147 135//160 136//161 124//148
f 124//148 136//161 137//162 125//149
f 125//149 137//162 138//163 126//150
f 126//150 138//163 139//164 127//151
f 127//151 139//164 140//165 128//152
f 128//152 140//165 141//166 129//153
f 129//153 141//166 142//167 130//154
f 130//154 142//167 143//168 131//155
f 131//155 143//168 144//169 132//156
f 184//157 193//170 145//171 133//158
f 133//158 145//171 146//172 134//159
f 134//159 146//172 147//173 135//160
f 135//160 147//173 148//174 136//161
f 136//161 148//174 149//175 137//162
f 137//162 149//175 150//176 138//163
f 138//163 150//176 151//177 139//164
f 139//164 151//177 152//178 140//165
f 140//165 152//178 153//179 141//166
f 141//166 153//179 154//180 142//167
f 142//167 154//180 155//181 143//168
f 143//168 155//181 156//182 144//169
f 146//172 169//183 170//184 147//173
f 147//173 170//184 171//185 148//174
f 148//174 171//185 172//186 149//175
f 149//175 172//186 173//187 150//176
f 152//178 174//188 175//189 153//179
f 150//176 173//187 176//190 151//177
f 151//177 176//190 174//188 152//178
f 145//171 177//191 169//183 146//172
f 193//170 195//192 177//191 145//171
f 153//179 175//189 178//193 154//180
f 154//180 178//193 180//194 155//181
f 155//181 180//194 179//195 156//182
f 36//52 48//65 196//196 197//197
f 24//39 36//52 197//197 198//198
f 72//91 84//104 199//199 200//200
f 132//156 144//169 201//201 202//202
f 48//65 60//78 203//203 196//196
f 60//78 72//91 200//200 203//203
f 108//130 120//143 204//204 205//205
f 120//143 132//156 202//202 204//204
f 144//169 156//182 206//206 201//201
f 156//182 179//195 207//207 206//206
f 168//26 12//25 208//208 209//209
f 12//25 24//39 198//198 208//208
f 84//104 96//117 210//210 199//199
f 96//117 108//130 205//205 210//210
