# Blender v2.73 (sub 0) OBJ File: 'untitled.blend'
# www.blender.org
mtllib Landscape.016.mtl
o Landscape.016
v -94.383835 8.339852 -32.323231
v -94.383835 8.726347 -34.909092
v -94.383835 9.317482 -37.494949
v -94.383835 10.356695 -40.080807
v -94.383835 10.515845 -42.666668
v -94.383835 9.837364 -45.252525
v -94.383835 8.766607 -47.838383
v -94.383835 7.909194 -50.424244
v -94.383835 7.459392 -53.010101
v -94.383835 7.639863 -55.595959
v -94.383835 7.332257 -58.181820
v -94.383835 7.492403 -60.767677
v -94.383835 7.662506 -63.353535
v -91.797981 9.482371 -32.323231
v -91.797981 10.144783 -34.909092
v -91.797981 10.514019 -37.494949
v -91.797981 10.820056 -40.080807
v -91.797981 10.164868 -42.666668
v -91.797981 9.634283 -45.252525
v -91.797981 9.245343 -47.838383
v -91.797981 8.187787 -50.424244
v -91.797981 7.746837 -53.010101
v -91.797981 7.939864 -55.595959
v -91.797981 7.749388 -58.181820
v -91.797981 7.759481 -60.767677
v -91.797981 7.831166 -63.353535
v -89.212120 10.486917 -32.323231
v -89.212120 11.219301 -34.909092
v -89.212120 11.431612 -37.494949
v -89.212120 11.291154 -40.080807
v -89.212120 10.153628 -42.666668
v -89.212120 9.657871 -45.252525
v -89.212120 9.906657 -47.838383
v -89.212120 8.814513 -50.424244
v -89.212120 7.943507 -53.010101
v -89.212120 7.862772 -55.595959
v -89.212120 8.024164 -58.181820
v -89.212120 8.336684 -60.767677
v -89.212120 8.038984 -63.353535
v -86.626259 12.066692 -32.323231
v -86.626259 12.864661 -34.909092
v -86.626259 12.383814 -37.494949
v -86.626259 11.761469 -40.080807
v -86.626259 11.172567 -42.666668
v -86.626259 10.317036 -45.252525
v -86.626259 9.631749 -47.838383
v -86.626259 8.948243 -50.424244
v -86.626259 8.334818 -53.010101
v -86.626259 7.624487 -55.595959
v -86.626259 7.653545 -58.181820
v -86.626259 8.066772 -60.767677
v -86.626259 8.451135 -63.353535
v -84.040405 13.766667 -32.323231
v -84.040405 13.166550 -34.909092
v -84.040405 12.503799 -37.494949
v -84.040405 11.791287 -40.080807
v -84.040405 11.006524 -42.666668
v -84.040405 10.417429 -45.252525
v -84.040405 9.565001 -47.838383
v -84.040405 8.788013 -50.424244
v -84.040405 7.879154 -53.010101
v -84.040405 7.407361 -55.595959
v -84.040405 7.208003 -58.181820
v -84.040405 7.853572 -60.767677
v -84.040405 7.817423 -63.353535
v -81.454544 15.417202 -32.323231
v -81.454544 14.337893 -34.909092
v -81.454544 13.349670 -37.494949
v -81.454544 12.093993 -40.080807
v -81.454544 11.477550 -42.666668
v -81.454544 10.530662 -45.252525
v -81.454544 9.765909 -47.838383
v -81.454544 8.815924 -50.424244
v -81.454544 8.123839 -53.010101
v -81.454544 7.502773 -55.595959
v -81.454544 7.389112 -58.181820
v -81.454544 7.615785 -60.767677
v -81.454544 7.588746 -63.353535
v -78.868690 16.617504 -32.323231
v -78.868690 15.457961 -34.909092
v -78.868690 14.659919 -37.494949
v -78.868690 13.643116 -40.080807
v -78.868690 12.572434 -42.666668
v -78.868690 10.803103 -45.252525
v -78.868690 10.160937 -47.838383
v -78.868690 9.533601 -50.424244
v -78.868690 8.489512 -53.010101
v -78.868690 7.734892 -55.595959
v -78.868690 7.298343 -58.181820
v -78.868690 7.014398 -60.767677
v -78.868690 7.214895 -63.353535
v -76.282829 17.759933 -32.323231
v -76.282829 17.979380 -34.909092
v -76.282829 16.532780 -37.494949
v -76.282829 15.287504 -40.080807
v -76.282829 13.626584 -42.666668
v -76.282829 11.721085 -45.252525
v -76.282829 10.922453 -47.838383
v -76.282829 9.802920 -50.424244
v -76.282829 8.514321 -53.010101
v -76.282829 7.752053 -55.595959
v -76.282829 7.663007 -58.181820
v -76.282829 7.275214 -60.767677
v -76.282829 6.762637 -63.353535
v -73.696968 18.354486 -32.323231
v -73.696968 19.070269 -34.909092
v -73.696968 17.976791 -37.494949
v -73.696968 16.790367 -40.080807
v -73.696968 15.149376 -42.666668
v -73.696968 13.128387 -45.252525
v -73.696968 11.770243 -47.838383
v -73.696968 10.342766 -50.424244
v -73.696968 9.498131 -53.010101
v -73.696968 8.392940 -55.595959
v -73.696968 8.238380 -58.181820
v -73.696968 7.917201 -60.767677
v -73.696968 7.144013 -63.353535
v -71.111115 18.946146 -32.323231
v -71.111115 19.664434 -34.909092
v -71.111115 18.420872 -37.494949
v -71.111115 16.779663 -40.080807
v -71.111115 15.454938 -42.666668
v -71.111115 14.051780 -45.252525
v -71.111115 12.338359 -47.838383
v -71.111115 10.989332 -50.424244
v -71.111115 10.326780 -53.010101
v -71.111115 9.027120 -55.595959
v -71.111115 8.759179 -58.181820
v -71.111115 8.402971 -60.767677
v -71.111115 7.601515 -63.353535
v -68.525253 20.522961 -32.323231
v -68.525253 18.963026 -34.909092
v -68.525253 17.654781 -37.494949
v -68.525253 16.091599 -40.080807
v -68.525253 15.010345 -42.666668
v -68.525253 13.813240 -45.252525
v -68.525253 12.555027 -47.838383
v -68.525253 10.761355 -50.424244
v -68.525253 10.153536 -53.010101
v -68.525253 9.272168 -55.595959
v -68.525253 8.961212 -58.181820
v -68.525253 8.701776 -60.767677
v -68.525253 8.185125 -63.353535
v -65.939392 20.156290 -32.323231
v -65.939392 19.404312 -34.909092
v -65.939392 17.472170 -37.494949
v -65.939392 15.463262 -40.080807
v -65.939392 15.133724 -42.666668
v -65.939392 13.976025 -45.252525
v -65.939392 12.144678 -47.838383
v -65.939392 11.052370 -50.424244
v -65.939392 10.321130 -53.010101
v -65.939392 9.719445 -55.595959
v -65.939392 9.370490 -58.181820
v -65.939392 8.984761 -60.767677
v -65.939392 8.599043 -63.353535
v -96.000000 9.745615 -42.666668
v -96.000000 9.437875 -45.252525
v -96.000000 8.459479 -47.838383
v -96.000000 9.542511 -40.080807
v -96.000000 7.842215 -32.323231
v -96.000000 7.498164 -55.595959
v -96.000000 7.202678 -58.181820
v -96.000000 7.331898 -63.353535
v -96.000000 7.246715 -60.767677
v -96.000000 8.069543 -34.909092
v -96.000000 8.631204 -37.494949
v -96.000000 7.406545 -53.010101
v -96.000000 7.799953 -50.424244
v -64.000000 17.465450 -37.494949
v -64.000000 15.419149 -40.080807
v -64.000000 20.428318 -32.323231
v -64.000000 19.362074 -34.909092
v -64.000000 14.945580 -42.666668
v -64.000000 14.118167 -45.252525
v -64.000000 9.775881 -58.181820
v -64.000000 9.612619 -60.767677
v -64.000000 12.759727 -47.838383
v -64.000000 11.317291 -50.424244
v -64.000000 10.223465 -55.595959
v -64.000000 10.446702 -53.010101
v -64.000000 9.409196 -63.353535
v -91.797981 9.437468 -32.000000
v -68.525253 20.481285 -32.000000
v -84.040405 13.724974 -32.000000
v -86.626259 12.051392 -32.000000
v -71.111115 19.043316 -32.000000
v -89.212120 10.481416 -32.000000
v -76.282829 17.698929 -32.000000
v -65.939392 20.140425 -32.000000
v -81.454544 15.425695 -32.000000
v -78.868690 16.617525 -32.000000
v -94.383835 8.361233 -32.000000
v -73.696968 18.254435 -32.000000
v -96.000000 7.869864 -32.000000
v -64.000000 20.531855 -32.000000
v -64.000000 9.341494 -64.000000
v -65.939392 8.606207 -64.000000
v -94.383835 7.633924 -64.000000
v -96.000000 7.306643 -64.000000
v -78.868690 7.188996 -64.000000
v -81.454544 7.554171 -64.000000
v -76.282829 6.743001 -64.000000
v -73.696968 7.023798 -64.000000
v -84.040405 7.814640 -64.000000
v -71.111115 7.468866 -64.000000
v -91.797981 7.779393 -64.000000
v -89.212120 8.042769 -64.000000
v -68.525253 8.118090 -64.000000
v -86.626259 8.454774 -64.000000
vn -0.291800 0.953700 -0.072300
vn -0.344600 0.938500 -0.018800
vn -0.365200 0.928800 0.062000
vn -0.314400 0.949100 0.019400
vn -0.398600 0.902100 0.165200
vn -0.354800 0.922000 0.154900
vn -0.383900 0.893100 0.234400
vn -0.387200 0.884900 0.259000
vn -0.295400 0.946100 0.132500
vn -0.421400 0.884000 0.202500
vn -0.176300 0.978000 -0.111300
vn -0.390200 0.918900 -0.058000
vn -0.123000 0.957600 -0.260600
vn -0.266400 0.924100 -0.273800
vn -0.129300 0.939800 -0.316200
vn -0.159800 0.934100 -0.319300
vn -0.104200 0.965500 -0.238600
vn -0.086000 0.971700 -0.220100
vn -0.082700 0.995200 -0.051600
vn -0.055000 0.997000 -0.054300
vn -0.098600 0.994900 -0.021600
vn -0.071800 0.996900 -0.031800
vn -0.116700 0.992600 -0.034700
vn -0.099500 0.994300 -0.038000
vn -0.126600 0.991100 0.041700
vn -0.145300 0.988400 0.043900
vn -0.129900 0.991500 -0.002000
vn -0.187500 0.982300 0.003900
vn -0.381200 0.923000 0.052200
vn -0.392400 0.910200 0.131900
vn -0.400700 0.899500 0.174200
vn -0.340900 0.930100 0.136500
vn -0.170400 0.984500 -0.041100
vn -0.000400 0.977100 -0.212700
vn -0.020800 0.983200 -0.181200
vn -0.138200 0.955800 -0.259300
vn -0.154700 0.946600 -0.282900
vn -0.099800 0.991800 -0.080200
vn -0.077800 0.996900 -0.001800
vn -0.117500 0.993000 -0.001800
vn -0.131900 0.990900 0.024400
vn -0.096400 0.995000 -0.023900
vn -0.445000 0.894100 0.050200
vn -0.441600 0.885100 0.147000
vn -0.427100 0.893400 0.139300
vn -0.334800 0.942100 -0.014200
vn -0.222300 0.956800 -0.187400
vn -0.162900 0.949500 -0.268200
vn -0.126900 0.982300 -0.137400
vn -0.101300 0.973900 -0.202900
vn -0.114200 0.944700 -0.307400
vn -0.076200 0.983700 -0.162600
vn 0.006700 0.999700 -0.024800
vn 0.009500 0.998200 0.058400
vn -0.054500 0.997500 0.043700
vn -0.106800 0.994100 -0.014600
vn -0.532400 0.845000 0.050200
vn -0.492300 0.864500 0.101200
vn -0.354000 0.935200 -0.001600
vn -0.209900 0.963700 -0.165200
vn -0.133600 0.961600 -0.239700
vn -0.131600 0.953200 -0.272300
vn -0.095700 0.969900 -0.223900
vn -0.002600 0.969800 -0.243600
vn 0.021200 0.957200 -0.288800
vn 0.027900 0.971700 -0.234400
vn 0.086300 0.991900 -0.093000
vn 0.122800 0.988700 0.085900
vn 0.095700 0.989800 0.105600
vn 0.054300 0.998300 0.022400
vn -0.544200 0.836900 0.059000
vn -0.486200 0.873000 -0.037400
vn -0.318100 0.929300 -0.187600
vn -0.164600 0.946400 -0.277900
vn -0.087400 0.956200 -0.279300
vn -0.053000 0.962000 -0.267800
vn -0.039900 0.957900 -0.284100
vn -0.015800 0.956000 -0.293000
vn 0.016100 0.956400 -0.291700
vn 0.031200 0.967400 -0.251200
vn 0.034000 0.990800 -0.130700
vn 0.052200 0.996300 0.067900
vn 0.097300 0.989600 0.105500
vn 0.146500 0.989200 0.006500
vn -0.482400 0.875800 0.015400
vn -0.457400 0.875400 -0.156700
vn -0.402900 0.863000 -0.304700
vn -0.359100 0.874800 -0.325000
vn -0.309400 0.897900 -0.313000
vn -0.229300 0.917200 -0.325700
vn -0.129500 0.937000 -0.324300
vn -0.107200 0.950700 -0.290900
vn -0.122100 0.944900 -0.303700
vn -0.104800 0.957700 -0.268000
vn -0.064000 0.985500 -0.157300
vn 0.015900 0.999800 -0.002600
vn 0.104900 0.993500 0.044600
vn 0.127700 0.991700 -0.013500
vn -0.407200 0.912600 0.037200
vn -0.454700 0.884300 -0.105700
vn -0.497400 0.816200 -0.293800
vn -0.499700 0.801400 -0.328700
vn -0.457200 0.814700 -0.356600
vn -0.351500 0.830900 -0.431300
vn -0.239100 0.893700 -0.379700
vn -0.201100 0.938600 -0.280300
vn -0.158000 0.929900 -0.332200
vn -0.092500 0.944000 -0.316600
vn -0.055300 0.980800 -0.187100
vn -0.021800 0.996000 -0.086800
vn 0.059100 0.997300 -0.042000
vn 0.134200 0.990600 -0.026900
vn -0.307600 0.938000 0.159900
vn -0.378600 0.921400 0.087700
vn -0.478800 0.859700 -0.177700
vn -0.509900 0.782100 -0.358200
vn -0.467100 0.784200 -0.408400
vn -0.396700 0.767700 -0.503300
vn -0.345800 0.831900 -0.433900
vn -0.273900 0.898900 -0.341800
vn -0.185800 0.905800 -0.380800
vn -0.152100 0.924800 -0.348800
vn -0.148900 0.970500 -0.189400
vn -0.162800 0.981300 -0.102100
vn -0.125700 0.981900 -0.141300
vn -0.026600 0.993500 -0.110700
vn -0.235000 0.963700 0.126700
vn -0.250300 0.953900 0.165400
vn -0.286100 0.953200 -0.097700
vn -0.279100 0.861700 -0.423800
vn -0.260200 0.846000 -0.465300
vn -0.280300 0.804900 -0.523100
vn -0.312100 0.810000 -0.496400
vn -0.266300 0.859700 -0.435800
vn -0.242300 0.891800 -0.381900
vn -0.264300 0.900000 -0.346700
vn -0.248200 0.944200 -0.216600
vn -0.215700 0.971700 -0.096200
vn -0.194800 0.960900 -0.196700
vn -0.164600 0.964700 -0.205400
vn -0.392400 0.919000 -0.037900
vn -0.287800 0.957500 0.016800
vn -0.085600 0.977900 -0.190400
vn 0.056100 0.885000 -0.462100
vn 0.078200 0.872400 -0.482400
vn 0.019500 0.877000 -0.480000
vn -0.076800 0.861400 -0.502000
vn -0.111300 0.859900 -0.498100
vn -0.099500 0.918100 -0.383500
vn -0.113000 0.938000 -0.327800
vn -0.145800 0.956300 -0.253400
vn -0.147300 0.983100 -0.108900
vn -0.155800 0.968500 -0.194000
vn -0.184100 0.958500 -0.217400
vn -0.199600 0.979900 0.006200
vn -0.139900 0.979900 -0.142100
vn 0.014800 0.917500 -0.397300
vn 0.141400 0.845700 -0.514500
vn 0.163200 0.880400 -0.445200
vn 0.088200 0.917600 -0.387400
vn 0.027600 0.882400 -0.469700
vn 0.016900 0.863200 -0.504600
vn 0.002600 0.927200 -0.374600
vn -0.034700 0.956600 -0.289300
vn -0.094000 0.969400 -0.226700
vn -0.118700 0.985700 -0.119100
vn -0.130600 0.977800 -0.163600
vn -0.174400 0.972700 -0.152800
vn -0.016200 0.999600 -0.022600
vn -0.026000 0.978900 -0.202800
vn -0.025200 0.883500 -0.467600
vn 0.027700 0.815300 -0.578300
vn 0.073200 0.911400 -0.404900
vn 0.029100 0.954200 -0.297800
vn -0.042400 0.890100 -0.453700
vn -0.076700 0.869400 -0.488100
vn -0.089300 0.925000 -0.369300
vn -0.113500 0.963200 -0.243400
vn -0.165400 0.970200 -0.176900
vn -0.194400 0.973000 -0.124500
vn -0.217900 0.967800 -0.125800
vn -0.255100 0.962500 -0.092200
vn 0.010200 0.795300 -0.606100
vn 0.036000 0.917200 -0.396700
vn -0.113900 0.966400 -0.230300
vn -0.022900 0.882700 -0.469400
vn -0.167100 0.977000 -0.132500
vn 0.034900 0.965300 -0.258800
vn -0.075500 0.894700 -0.440200
vn -0.240800 0.962400 -0.125600
vn -0.300600 0.948000 -0.104200
vn -0.180300 0.859000 -0.479200
vn -0.150100 0.918100 -0.366800
vn -0.191400 0.969700 -0.152100
vn -0.127100 0.965700 -0.226300
vn -0.357600 0.930800 -0.075600
vn -0.369800 0.928100 -0.043500
vn -0.272400 0.961200 -0.044700
vn -0.130500 0.990100 -0.051400
vn -0.199300 0.979100 -0.040800
vn 0.156200 0.986900 -0.040400
vn 0.117800 0.992300 -0.037600
vn 0.022500 0.997200 -0.071500
vn -0.147400 0.978000 -0.147400
vn 0.167100 0.985800 -0.014100
vn -0.198400 0.965400 -0.169500
vn -0.075500 0.995900 -0.049500
vn -0.124100 0.992100 -0.015600
vn -0.201200 0.974600 -0.098000
vn 0.041700 0.999100 0.003200
usemtl None
s 1
f 195//1 193//2 1//3 161//4
f 161//4 1//3 2//5 166//6
f 166//6 2//5 3//7 167//8
f 167//8 3//7 4//9 160//10
f 160//10 4//9 5//11 157//12
f 157//12 5//11 6//13 158//14
f 158//14 6//13 7//15 159//16
f 159//16 7//15 8//17 169//18
f 169//18 8//17 9//19 168//20
f 168//20 9//19 10//21 162//22
f 162//22 10//21 11//23 163//24
f 163//24 11//23 12//25 165//26
f 165//26 12//25 13//27 164//28
f 193//2 183//29 14//30 1//3
f 1//3 14//30 15//31 2//5
f 2//5 15//31 16//32 3//7
f 3//7 16//32 17//33 4//9
f 4//9 17//33 18//34 5//11
f 5//11 18//34 19//35 6//13
f 6//13 19//35 20//36 7//15
f 7//15 20//36 21//37 8//17
f 8//17 21//37 22//38 9//19
f 9//19 22//38 23//39 10//21
f 10//21 23//39 24//40 11//23
f 11//23 24//40 25//41 12//25
f 12//25 25//41 26//42 13//27
f 183//29 188//43 27//44 14//30
f 14//30 27//44 28//45 15//31
f 15//31 28//45 29//46 16//32
f 16//32 29//46 30//47 17//33
f 17//33 30//47 31//48 18//34
f 18//34 31//48 32//49 19//35
f 19//35 32//49 33//50 20//36
f 20//36 33//50 34//51 21//37
f 21//37 34//51 35//52 22//38
f 22//38 35//52 36//53 23//39
f 23//39 36//53 37//54 24//40
f 24//40 37//54 38//55 25//41
f 25//41 38//55 39//56 26//42
f 188//43 186//57 40//58 27//44
f 27//44 40//58 41//59 28//45
f 28//45 41//59 42//60 29//46
f 29//46 42//60 43//61 30//47
f 30//47 43//61 44//62 31//48
f 31//48 44//62 45//63 32//49
f 32//49 45//63 46//64 33//50
f 33//50 46//64 47//65 34//51
f 34//51 47//65 48//66 35//52
f 35//52 48//66 49//67 36//53
f 36//53 49//67 50//68 37//54
f 37//54 50//68 51//69 38//55
f 38//55 51//69 52//70 39//56
f 186//57 185//71 53//72 40//58
f 40//58 53//72 54//73 41//59
f 41//59 54//73 55//74 42//60
f 42//60 55//74 56//75 43//61
f 43//61 56//75 57//76 44//62
f 44//62 57//76 58//77 45//63
f 45//63 58//77 59//78 46//64
f 46//64 59//78 60//79 47//65
f 47//65 60//79 61//80 48//66
f 48//66 61//80 62//81 49//67
f 49//67 62//81 63//82 50//68
f 50//68 63//82 64//83 51//69
f 51//69 64//83 65//84 52//70
f 185//71 191//85 66//86 53//72
f 53//72 66//86 67//87 54//73
f 54//73 67//87 68//88 55//74
f 55//74 68//88 69//89 56//75
f 56//75 69//89 70//90 57//76
f 57//76 70//90 71//91 58//77
f 58//77 71//91 72//92 59//78
f 59//78 72//92 73//93 60//79
f 60//79 73//93 74//94 61//80
f 61//80 74//94 75//95 62//81
f 62//81 75//95 76//96 63//82
f 63//82 76//96 77//97 64//83
f 64//83 77//97 78//98 65//84
f 191//85 192//99 79//100 66//86
f 66//86 79//100 80//101 67//87
f 67//87 80//101 81//102 68//88
f 68//88 81//102 82//103 69//89
f 69//89 82//103 83//104 70//90
f 70//90 83//104 84//105 71//91
f 71//91 84//105 85//106 72//92
f 72//92 85//106 86//107 73//93
f 73//93 86//107 87//108 74//94
f 74//94 87//108 88//109 75//95
f 75//95 88//109 89//110 76//96
f 76//96 89//110 90//111 77//97
f 77//97 90//111 91//112 78//98
f 192//99 189//113 92//114 79//100
f 79//100 92//114 93//115 80//101
f 80//101 93//115 94//116 81//102
f 81//102 94//116 95//117 82//103
f 82//103 95//117 96//118 83//104
f 83//104 96//118 97//119 84//105
f 84//105 97//119 98//120 85//106
f 85//106 98//120 99//121 86//107
f 86//107 99//121 100//122 87//108
f 87//108 100//122 101//123 88//109
f 88//109 101//123 102//124 89//110
f 89//110 102//124 103//125 90//111
f 90//111 103//125 104//126 91//112
f 189//113 194//127 105//128 92//114
f 92//114 105//128 106//129 93//115
f 93//115 106//129 107//130 94//116
f 94//116 107//130 108//131 95//117
f 95//117 108//131 109//132 96//118
f 96//118 109//132 110//133 97//119
f 97//119 110//133 111//134 98//120
f 98//120 111//134 112//135 99//121
f 99//121 112//135 113//136 100//122
f 100//122 113//136 114//137 101//123
f 101//123 114//137 115//138 102//124
f 102//124 115//138 116//139 103//125
f 103//125 116//139 117//140 104//126
f 194//127 187//141 118//142 105//128
f 105//128 118//142 119//143 106//129
f 106//129 119//143 120//144 107//130
f 107//130 120//144 121//145 108//131
f 108//131 121//145 122//146 109//132
f 109//132 122//146 123//147 110//133
f 110//133 123//147 124//148 111//134
f 111//134 124//148 125//149 112//135
f 112//135 125//149 126//150 113//136
f 113//136 126//150 127//151 114//137
f 114//137 127//151 128//152 115//138
f 115//138 128//152 129//153 116//139
f 116//139 129//153 130//154 117//140
f 187//141 184//155 131//156 118//142
f 118//142 131//156 132//157 119//143
f 119//143 132//157 133//158 120//144
f 120//144 133//158 134//159 121//145
f 121//145 134//159 135//160 122//146
f 122//146 135//160 136//161 123//147
f 123//147 136//161 137//162 124//148
f 124//148 137//162 138//163 125//149
f 125//149 138//163 139//164 126//150
f 126//150 139//164 140//165 127//151
f 127//151 140//165 141//166 128//152
f 128//152 141//166 142//167 129//153
f 129//153 142//167 143//168 130//154
f 184//155 190//169 144//170 131//156
f 131//156 144//170 145//171 132//157
f 132//157 145//171 146//172 133//158
f 133//158 146//172 147//173 134//159
f 134//159 147//173 148//174 135//160
f 135//160 148//174 149//175 136//161
f 136//161 149//175 150//176 137//162
f 137//162 150//176 151//177 138//163
f 138//163 151//177 152//178 139//164
f 139//164 152//178 153//179 140//165
f 140//165 153//179 154//180 141//166
f 141//166 154//180 155//181 142//167
f 142//167 155//181 156//182 143//168
f 146//172 170//183 171//184 147//173
f 144//170 172//185 173//186 145//171
f 145//171 173//186 170//183 146//172
f 190//169 196//187 172//185 144//170
f 147//173 171//184 174//188 148//174
f 148//174 174//188 175//189 149//175
f 154//180 176//190 177//191 155//181
f 149//175 175//189 178//192 150//176
f 150//176 178//192 179//193 151//177
f 153//179 180//194 176//190 154//180
f 151//177 179//193 181//195 152//178
f 152//178 181//195 180//194 153//179
f 155//181 177//191 182//196 156//182
f 156//182 182//196 197//197 198//198
f 164//28 13//27 199//199 200//200
f 78//98 91//112 201//201 202//202
f 91//112 104//126 203//203 201//201
f 104//126 117//140 204//204 203//203
f 65//84 78//98 202//202 205//205
f 117//140 130//154 206//206 204//204
f 13//27 26//42 207//207 199//199
f 26//42 39//56 208//208 207//207
f 130//154 143//168 209//209 206//206
f 143//168 156//182 198//198 209//209
f 39//56 52//70 210//210 208//208
f 52//70 65//84 205//205 210//210
