# Blender v2.73 (sub 0) OBJ File: 'untitled.blend'
# www.blender.org
mtllib Landscape.002.mtl
o Landscape.002
v -128.000000 0.000000 125.414139
v -128.000000 0.000000 122.828285
v -128.000000 0.000000 120.242424
v -128.000000 0.000000 117.656563
v -128.000000 0.000000 115.070709
v -128.000000 0.000000 112.484848
v -128.000000 0.000000 109.898987
v -128.000000 0.000000 107.313133
v -128.000000 0.000000 104.727272
v -128.000000 0.000000 102.141411
v -128.000000 0.000000 99.555557
v -128.000000 0.000000 96.969696
v -125.414139 0.000000 125.414139
v -125.414139 0.000000 122.828285
v -125.414139 0.000000 120.242424
v -125.414139 0.000000 117.656563
v -125.414139 0.000000 115.070709
v -125.414139 0.000000 112.484848
v -125.414139 0.000000 109.898987
v -125.414139 0.000000 107.313133
v -125.414139 0.000000 104.727272
v -125.414139 0.000000 102.141411
v -125.414139 0.000000 99.555557
v -125.414139 0.000000 96.969696
v -122.828285 0.000000 125.414139
v -122.828285 0.000000 122.828285
v -122.828285 0.000000 120.242424
v -122.828285 0.000000 117.656563
v -122.828285 0.000000 115.070709
v -122.828285 0.000000 112.484848
v -122.828285 0.000000 109.898987
v -122.828285 0.000000 107.313133
v -122.828285 0.000000 104.727272
v -122.828285 0.000000 102.141411
v -122.828285 0.000000 99.555557
v -122.828285 0.000000 96.969696
v -120.242424 0.000000 125.414139
v -120.242424 0.000000 122.828285
v -120.242424 0.000000 120.242424
v -120.242424 0.000000 117.656563
v -120.242424 0.000000 115.070709
v -120.242424 0.000000 112.484848
v -120.242424 0.000000 109.898987
v -120.242424 0.000000 107.313133
v -120.242424 0.000000 104.727272
v -120.242424 0.000000 102.141411
v -120.242424 0.000000 99.555557
v -120.242424 0.000000 96.969696
v -117.656563 0.000000 125.414139
v -117.656563 0.000000 122.828285
v -117.656563 0.000000 120.242424
v -117.656563 0.000000 117.656563
v -117.656563 0.000000 115.070709
v -117.656563 0.000000 112.484848
v -117.656563 0.000000 109.898987
v -117.656563 0.000000 107.313133
v -117.656563 0.000000 104.727272
v -117.656563 0.000000 102.141411
v -117.656563 0.000000 99.555557
v -117.656563 0.000000 96.969696
v -115.070709 0.000000 125.414139
v -115.070709 0.000000 122.828285
v -115.070709 0.000000 120.242424
v -115.070709 0.000000 117.656563
v -115.070709 0.000000 115.070709
v -115.070709 0.000000 112.484848
v -115.070709 0.000000 109.898987
v -115.070709 0.000000 107.313133
v -115.070709 0.000000 104.727272
v -115.070709 0.000000 102.141411
v -115.070709 0.000000 99.555557
v -115.070709 0.002418 96.969696
v -112.484848 0.000000 125.414139
v -112.484848 0.000000 122.828285
v -112.484848 0.000000 120.242424
v -112.484848 0.000000 117.656563
v -112.484848 0.000000 115.070709
v -112.484848 0.000000 112.484848
v -112.484848 0.000000 109.898987
v -112.484848 0.000000 107.313133
v -112.484848 0.000000 104.727272
v -112.484848 0.000000 102.141411
v -112.484848 0.010725 99.555557
v -112.484848 0.045032 96.969696
v -109.898987 0.000000 125.414139
v -109.898987 0.000000 122.828285
v -109.898987 0.000000 120.242424
v -109.898987 0.000000 117.656563
v -109.898987 0.000000 115.070709
v -109.898987 0.000000 112.484848
v -109.898987 0.000000 109.898987
v -109.898987 0.000000 107.313133
v -109.898987 0.000486 104.727272
v -109.898987 0.019431 102.141411
v -109.898987 0.066160 99.555557
v -109.898987 0.141652 96.969696
v -107.313133 0.000000 125.414139
v -107.313133 0.000000 122.828285
v -107.313133 0.000000 120.242424
v -107.313133 0.000000 117.656563
v -107.313133 0.000000 115.070709
v -107.313133 0.000000 112.484848
v -107.313133 0.000000 109.898987
v -107.313133 0.000899 107.313133
v -107.313133 0.023925 104.727272
v -107.313133 0.079500 102.141411
v -107.313133 0.167749 99.555557
v -107.313133 0.267433 96.969696
v -104.727272 0.000000 125.414139
v -104.727272 0.000000 122.828285
v -104.727272 0.000000 120.242424
v -104.727272 0.000000 117.656563
v -104.727272 0.000000 115.070709
v -104.727272 0.000000 112.484848
v -104.727272 0.000433 109.898987
v -104.727272 0.022097 107.313133
v -104.727272 0.078894 104.727272
v -104.727272 0.167428 102.141411
v -104.727272 0.280290 99.555557
v -104.727272 0.405885 96.969696
v -102.141411 0.000000 125.414139
v -102.141411 0.000000 122.828285
v -102.141411 0.000000 120.242424
v -102.141411 0.000000 117.656563
v -102.141411 0.000000 115.070709
v -102.141411 0.000000 112.484848
v -102.141411 0.015301 109.898987
v -102.141411 0.064224 107.313133
v -102.141411 0.152909 104.727272
v -102.141411 0.269004 102.141411
v -102.141411 0.406275 99.555557
v -102.141411 0.567222 96.969696
v -99.555557 0.000000 125.414139
v -99.555557 0.000000 122.828285
v -99.555557 0.000000 120.242424
v -99.555557 0.000000 117.656563
v -99.555557 0.000000 115.070709
v -99.555557 0.008040 112.484848
v -99.555557 0.047797 109.898987
v -99.555557 0.124938 107.313133
v -99.555557 0.250028 104.727272
v -99.555557 0.396165 102.141411
v -99.555557 0.551385 99.555557
v -99.555557 0.738771 96.969696
v -96.969696 0.000000 125.414139
v -96.969696 0.000000 122.828285
v -96.969696 0.000000 120.242424
v -96.969696 0.000000 117.656563
v -96.969696 0.001784 115.070709
v -96.969696 0.033499 112.484848
v -96.969696 0.101599 109.898987
v -96.969696 0.212883 107.313133
v -96.969696 0.370513 104.727272
v -96.969696 0.502811 102.141411
v -96.969696 0.693847 99.555557
v -96.969696 0.903972 96.969696
v -96.000000 0.577940 102.141411
v -96.000000 0.773391 99.555557
v -96.000000 0.000000 125.414139
v -96.000000 0.991696 96.969696
v -96.000000 0.000000 122.828285
v -96.000000 0.000000 120.242424
v -96.000000 0.259391 107.313133
v -96.000000 0.421967 104.727272
v -96.000000 0.000000 117.656563
v -96.000000 0.007324 115.070709
v -96.000000 0.131338 109.898987
v -96.000000 0.049796 112.484848
v -128.000000 0.000000 128.000000
v -96.969696 0.000000 128.000000
v -115.070709 0.000000 128.000000
v -102.141411 0.000000 128.000000
v -109.898987 0.000000 128.000000
v -120.242424 0.000000 128.000000
v -104.727272 0.000000 128.000000
v -122.828285 0.000000 128.000000
v -107.313133 0.000000 128.000000
v -112.484848 0.000000 128.000000
v -99.555557 0.000000 128.000000
v -117.656563 0.000000 128.000000
v -125.414139 0.000000 128.000000
v -96.000000 0.000000 128.000000
v -115.070709 0.009825 96.000000
v -117.656563 0.000000 96.000000
v -99.555557 0.815423 96.000000
v -102.141411 0.624614 96.000000
v -112.484848 0.065569 96.000000
v -122.828285 0.000000 96.000000
v -125.414139 0.000000 96.000000
v -120.242424 0.000000 96.000000
v -104.727272 0.453414 96.000000
v -107.313133 0.307226 96.000000
v -128.000000 0.000000 96.000000
v -109.898987 0.172276 96.000000
v -96.969696 0.994689 96.000000
v -96.000000 1.079827 96.000000
vn 0.000000 1.000000 0.000000
vn -0.000100 1.000000 0.000100
vn -0.000700 1.000000 0.001100
vn -0.000500 1.000000 0.000500
vn -0.003200 1.000000 0.002400
vn -0.008000 0.999900 0.006400
vn -0.001000 1.000000 0.000900
vn -0.005100 1.000000 0.004200
vn -0.014000 0.999800 0.010300
vn -0.024500 0.999500 0.017200
vn -0.001200 1.000000 0.001200
vn -0.006200 0.999900 0.005700
vn -0.016400 0.999800 0.013800
vn -0.029700 0.999300 0.023000
vn -0.040700 0.998700 0.029400
vn -0.001100 1.000000 0.001100
vn -0.005900 0.999900 0.006100
vn -0.015800 0.999700 0.015500
vn -0.028400 0.999200 0.026800
vn -0.040600 0.998500 0.035500
vn -0.049400 0.998000 0.039600
vn -0.000700 1.000000 0.000800
vn -0.004500 1.000000 0.005300
vn -0.013100 0.999800 0.015400
vn -0.024700 0.999300 0.027700
vn -0.036000 0.998600 0.038600
vn -0.046600 0.997800 0.046400
vn -0.055700 0.997200 0.049400
vn -0.000400 1.000000 0.000400
vn -0.003100 1.000000 0.003800
vn -0.009900 0.999800 0.012900
vn -0.020500 0.999400 0.026800
vn -0.032500 0.998700 0.039900
vn -0.043400 0.997900 0.048700
vn -0.053200 0.996900 0.056700
vn -0.062500 0.996200 0.061300
vn -0.001800 1.000000 0.002400
vn -0.007500 0.999900 0.010200
vn -0.017100 0.999600 0.023000
vn -0.029000 0.998800 0.039100
vn -0.039400 0.998000 0.050000
vn -0.046900 0.997300 0.056800
vn -0.055100 0.996200 0.066700
vn -0.064000 0.995100 0.074500
vn -0.000800 1.000000 0.000500
vn -0.004900 1.000000 0.006000
vn -0.013900 0.999700 0.017900
vn -0.026400 0.999100 0.033100
vn -0.039300 0.998000 0.049700
vn -0.049800 0.997200 0.056400
vn -0.059000 0.996300 0.062600
vn -0.068000 0.994800 0.074900
vn -0.074900 0.993600 0.084000
vn -0.072200 0.995300 0.064900
vn -0.082500 0.993500 0.078300
vn -0.087000 0.992400 0.086900
vn -0.044800 0.997500 0.054000
vn -0.057700 0.996600 0.058600
vn -0.001400 1.000000 0.000900
vn -0.007100 0.999900 0.008100
vn -0.031500 0.998800 0.037600
vn -0.017500 0.999600 0.021600
vn -0.010700 0.999900 0.009100
vn -0.001200 1.000000 0.001900
vn -0.068000 0.994700 0.077300
vn -0.066900 0.995900 0.061400
vn -0.029100 0.999400 0.020400
vn -0.059500 0.997000 0.049400
vn -0.052600 0.997800 0.040600
vn -0.044800 0.998500 0.031300
vn -0.077400 0.993100 0.088600
vn -0.088400 0.991900 0.091500
usemtl None
s 1
f 169//1 181//1 13//1 1//1
f 1//1 13//1 14//1 2//1
f 2//1 14//1 15//1 3//1
f 3//1 15//1 16//1 4//1
f 4//1 16//1 17//1 5//1
f 5//1 17//1 18//1 6//1
f 6//1 18//1 19//1 7//1
f 7//1 19//1 20//1 8//1
f 8//1 20//1 21//1 9//1
f 9//1 21//1 22//1 10//1
f 10//1 22//1 23//1 11//1
f 11//1 23//1 24//1 12//1
f 181//1 176//1 25//1 13//1
f 13//1 25//1 26//1 14//1
f 14//1 26//1 27//1 15//1
f 15//1 27//1 28//1 16//1
f 16//1 28//1 29//1 17//1
f 17//1 29//1 30//1 18//1
f 18//1 30//1 31//1 19//1
f 19//1 31//1 32//1 20//1
f 20//1 32//1 33//1 21//1
f 21//1 33//1 34//1 22//1
f 22//1 34//1 35//1 23//1
f 23//1 35//1 36//1 24//1
f 176//1 174//1 37//1 25//1
f 25//1 37//1 38//1 26//1
f 26//1 38//1 39//1 27//1
f 27//1 39//1 40//1 28//1
f 28//1 40//1 41//1 29//1
f 29//1 41//1 42//1 30//1
f 30//1 42//1 43//1 31//1
f 31//1 43//1 44//1 32//1
f 32//1 44//1 45//1 33//1
f 33//1 45//1 46//1 34//1
f 34//1 46//1 47//1 35//1
f 35//1 47//1 48//1 36//1
f 174//1 180//1 49//1 37//1
f 37//1 49//1 50//1 38//1
f 38//1 50//1 51//1 39//1
f 39//1 51//1 52//1 40//1
f 40//1 52//1 53//1 41//1
f 41//1 53//1 54//1 42//1
f 42//1 54//1 55//1 43//1
f 43//1 55//1 56//1 44//1
f 44//1 56//1 57//1 45//1
f 45//1 57//1 58//1 46//1
f 46//1 58//1 59//2 47//1
f 47//1 59//2 60//3 48//1
f 180//1 171//1 61//1 49//1
f 49//1 61//1 62//1 50//1
f 50//1 62//1 63//1 51//1
f 51//1 63//1 64//1 52//1
f 52//1 64//1 65//1 53//1
f 53//1 65//1 66//1 54//1
f 54//1 66//1 67//1 55//1
f 55//1 67//1 68//1 56//1
f 56//1 68//1 69//1 57//1
f 57//1 69//1 70//4 58//1
f 58//1 70//4 71//5 59//2
f 59//2 71//5 72//6 60//3
f 171//1 178//1 73//1 61//1
f 61//1 73//1 74//1 62//1
f 62//1 74//1 75//1 63//1
f 63//1 75//1 76//1 64//1
f 64//1 76//1 77//1 65//1
f 65//1 77//1 78//1 66//1
f 66//1 78//1 79//1 67//1
f 67//1 79//1 80//1 68//1
f 68//1 80//1 81//7 69//1
f 69//1 81//7 82//8 70//4
f 70//4 82//8 83//9 71//5
f 71//5 83//9 84//10 72//6
f 178//1 173//1 85//1 73//1
f 73//1 85//1 86//1 74//1
f 74//1 86//1 87//1 75//1
f 75//1 87//1 88//1 76//1
f 76//1 88//1 89//1 77//1
f 77//1 89//1 90//1 78//1
f 78//1 90//1 91//1 79//1
f 79//1 91//1 92//11 80//1
f 80//1 92//11 93//12 81//7
f 81//7 93//12 94//13 82//8
f 82//8 94//13 95//14 83//9
f 83//9 95//14 96//15 84//10
f 173//1 177//1 97//1 85//1
f 85//1 97//1 98//1 86//1
f 86//1 98//1 99//1 87//1
f 87//1 99//1 100//1 88//1
f 88//1 100//1 101//1 89//1
f 89//1 101//1 102//1 90//1
f 90//1 102//1 103//16 91//1
f 91//1 103//16 104//17 92//11
f 92//11 104//17 105//18 93//12
f 93//12 105//18 106//19 94//13
f 94//13 106//19 107//20 95//14
f 95//14 107//20 108//21 96//15
f 177//1 175//1 109//1 97//1
f 97//1 109//1 110//1 98//1
f 98//1 110//1 111//1 99//1
f 99//1 111//1 112//1 100//1
f 100//1 112//1 113//1 101//1
f 101//1 113//1 114//22 102//1
f 102//1 114//22 115//23 103//16
f 103//16 115//23 116//24 104//17
f 104//17 116//24 117//25 105//18
f 105//18 117//25 118//26 106//19
f 106//19 118//26 119//27 107//20
f 107//20 119//27 120//28 108//21
f 175//1 172//1 121//1 109//1
f 109//1 121//1 122//1 110//1
f 110//1 122//1 123//1 111//1
f 111//1 123//1 124//1 112//1
f 112//1 124//1 125//29 113//1
f 113//1 125//29 126//30 114//22
f 114//22 126//30 127//31 115//23
f 115//23 127//31 128//32 116//24
f 116//24 128//32 129//33 117//25
f 117//25 129//33 130//34 118//26
f 118//26 130//34 131//35 119//27
f 119//27 131//35 132//36 120//28
f 172//1 179//1 133//1 121//1
f 121//1 133//1 134//1 122//1
f 122//1 134//1 135//1 123//1
f 123//1 135//1 136//2 124//1
f 124//1 136//2 137//37 125//29
f 125//29 137//37 138//38 126//30
f 126//30 138//38 139//39 127//31
f 127//31 139//39 140//40 128//32
f 128//32 140//40 141//41 129//33
f 129//33 141//41 142//42 130//34
f 130//34 142//42 143//43 131//35
f 131//35 143//43 144//44 132//36
f 179//1 170//1 145//1 133//1
f 133//1 145//1 146//1 134//1
f 134//1 146//1 147//1 135//1
f 135//1 147//1 148//45 136//2
f 136//2 148//45 149//46 137//37
f 137//37 149//46 150//47 138//38
f 138//38 150//47 151//48 139//39
f 139//39 151//48 152//49 140//40
f 140//40 152//49 153//50 141//41
f 141//41 153//50 154//51 142//42
f 142//42 154//51 155//52 143//43
f 143//43 155//52 156//53 144//44
f 154//51 157//54 158//55 155//52
f 170//1 182//1 159//1 145//1
f 155//52 158//55 160//56 156//53
f 145//1 159//1 161//1 146//1
f 146//1 161//1 162//1 147//1
f 152//49 163//57 164//58 153//50
f 153//50 164//58 157//54 154//51
f 147//1 162//1 165//59 148//45
f 148//45 165//59 166//60 149//46
f 151//48 167//61 163//57 152//49
f 149//46 166//60 168//62 150//47
f 150//47 168//62 167//61 151//48
f 60//3 72//6 183//63 184//64
f 132//36 144//44 185//65 186//66
f 72//6 84//10 187//67 183//63
f 24//1 36//1 188//1 189//1
f 36//1 48//1 190//1 188//1
f 48//1 60//3 184//64 190//1
f 108//21 120//28 191//68 192//69
f 120//28 132//36 186//66 191//68
f 12//1 24//1 189//1 193//1
f 84//10 96//15 194//70 187//67
f 96//15 108//21 192//69 194//70
f 144//44 156//53 195//71 185//65
f 156//53 160//56 196//72 195//71
