# Blender v2.73 (sub 0) OBJ File: 'untitled.blend'
# www.blender.org
mtllib Landscape.062.mtl
o Landscape.062
v 65.939392 7.851648 -65.939392
v 65.939392 8.054696 -68.525253
v 65.939392 8.220037 -71.111115
v 65.939392 7.971333 -73.696968
v 65.939392 7.254326 -76.282829
v 65.939392 6.488785 -78.868690
v 65.939392 6.001371 -81.454544
v 65.939392 5.324605 -84.040405
v 65.939392 5.330683 -86.626259
v 65.939392 5.316066 -89.212120
v 65.939392 5.530547 -91.797981
v 65.939392 5.749201 -94.383835
v 68.525253 7.704005 -65.939392
v 68.525253 8.127581 -68.525253
v 68.525253 8.257303 -71.111115
v 68.525253 8.048594 -73.696968
v 68.525253 7.346468 -76.282829
v 68.525253 6.641854 -78.868690
v 68.525253 6.019842 -81.454544
v 68.525253 5.599925 -84.040405
v 68.525253 5.444689 -86.626259
v 68.525253 5.500247 -89.212120
v 68.525253 5.164202 -91.797981
v 68.525253 5.318221 -94.383835
v 71.111115 7.623217 -65.939392
v 71.111115 8.189077 -68.525253
v 71.111115 8.265557 -71.111115
v 71.111115 8.182207 -73.696968
v 71.111115 7.427640 -76.282829
v 71.111115 6.809114 -78.868690
v 71.111115 6.337923 -81.454544
v 71.111115 5.929169 -84.040405
v 71.111115 5.578039 -86.626259
v 71.111115 5.155765 -89.212120
v 71.111115 4.841871 -91.797981
v 71.111115 4.827144 -94.383835
v 73.696968 7.323194 -65.939392
v 73.696968 7.663638 -68.525253
v 73.696968 8.382517 -71.111115
v 73.696968 8.288900 -73.696968
v 73.696968 7.657851 -76.282829
v 73.696968 6.971585 -78.868690
v 73.696968 6.203410 -81.454544
v 73.696968 5.861430 -84.040405
v 73.696968 5.156561 -86.626259
v 73.696968 4.572719 -89.212120
v 73.696968 4.287220 -91.797981
v 73.696968 4.405467 -94.383835
v 76.282829 7.180635 -65.939392
v 76.282829 7.666121 -68.525253
v 76.282829 8.109060 -71.111115
v 76.282829 8.100955 -73.696968
v 76.282829 7.152781 -76.282829
v 76.282829 6.488474 -78.868690
v 76.282829 5.643554 -81.454544
v 76.282829 5.113454 -84.040405
v 76.282829 4.403034 -86.626259
v 76.282829 3.880927 -89.212120
v 76.282829 3.735592 -91.797981
v 76.282829 3.688662 -94.383835
v 78.868690 6.364347 -65.939392
v 78.868690 6.947486 -68.525253
v 78.868690 7.595109 -71.111115
v 78.868690 7.264972 -73.696968
v 78.868690 6.462934 -76.282829
v 78.868690 5.948925 -78.868690
v 78.868690 5.265776 -81.454544
v 78.868690 4.653896 -84.040405
v 78.868690 3.991381 -86.626259
v 78.868690 3.461083 -89.212120
v 78.868690 3.181680 -91.797981
v 78.868690 3.077350 -94.383835
v 81.454544 5.938061 -65.939392
v 81.454544 6.520611 -68.525253
v 81.454544 6.669440 -71.111115
v 81.454544 6.456226 -73.696968
v 81.454544 6.156631 -76.282829
v 81.454544 5.355018 -78.868690
v 81.454544 5.013057 -81.454544
v 81.454544 4.344627 -84.040405
v 81.454544 3.735449 -86.626259
v 81.454544 3.164133 -89.212120
v 81.454544 2.785701 -91.797981
v 81.454544 2.710131 -94.383835
v 84.040405 5.545802 -65.939392
v 84.040405 5.846981 -68.525253
v 84.040405 5.740695 -71.111115
v 84.040405 5.531489 -73.696968
v 84.040405 5.432980 -76.282829
v 84.040405 5.126339 -78.868690
v 84.040405 4.883968 -81.454544
v 84.040405 4.275059 -84.040405
v 84.040405 3.694681 -86.626259
v 84.040405 3.057793 -89.212120
v 84.040405 2.625234 -91.797981
v 84.040405 2.589492 -94.383835
v 86.626259 5.683552 -65.939392
v 86.626259 5.429868 -68.525253
v 86.626259 5.031548 -71.111115
v 86.626259 4.989026 -73.696968
v 86.626259 5.216848 -76.282829
v 86.626259 5.010776 -78.868690
v 86.626259 4.766455 -81.454544
v 86.626259 4.238865 -84.040405
v 86.626259 3.667492 -86.626259
v 86.626259 3.138229 -89.212120
v 86.626259 2.663870 -91.797981
v 86.626259 2.435394 -94.383835
v 89.212120 5.587339 -65.939392
v 89.212120 5.338963 -68.525253
v 89.212120 4.806060 -71.111115
v 89.212120 4.770942 -73.696968
v 89.212120 4.647720 -76.282829
v 89.212120 4.367056 -78.868690
v 89.212120 4.352379 -81.454544
v 89.212120 4.194234 -84.040405
v 89.212120 3.643463 -86.626259
v 89.212120 3.183671 -89.212120
v 89.212120 2.535565 -91.797981
v 89.212120 2.235793 -94.383835
v 91.797981 5.486487 -65.939392
v 91.797981 5.012266 -68.525253
v 91.797981 4.635516 -71.111115
v 91.797981 4.496403 -73.696968
v 91.797981 4.297901 -76.282829
v 91.797981 3.887558 -78.868690
v 91.797981 3.992866 -81.454544
v 91.797981 3.925979 -84.040405
v 91.797981 3.585744 -86.626259
v 91.797981 3.192647 -89.212120
v 91.797981 2.573677 -91.797981
v 91.797981 2.209646 -94.383835
v 94.383835 5.064157 -65.939392
v 94.383835 4.908791 -68.525253
v 94.383835 4.723848 -71.111115
v 94.383835 4.307754 -73.696968
v 94.383835 4.029988 -76.282829
v 94.383835 3.650913 -78.868690
v 94.383835 3.599793 -81.454544
v 94.383835 3.680288 -84.040405
v 94.383835 3.475278 -86.626259
v 94.383835 3.073608 -89.212120
v 94.383835 2.661899 -91.797981
v 94.383835 2.049517 -94.383835
v 64.000000 5.633333 -91.797981
v 64.000000 5.919479 -94.383835
v 64.000000 5.313902 -89.212120
v 64.000000 7.815258 -65.939392
v 64.000000 6.169432 -81.454544
v 64.000000 5.664995 -84.040405
v 64.000000 5.573908 -86.626259
v 64.000000 6.497857 -78.868690
v 64.000000 7.379931 -73.696968
v 64.000000 6.727475 -76.282829
v 64.000000 7.781082 -68.525253
v 64.000000 7.783236 -71.111115
v 96.000000 4.560749 -71.111115
v 96.000000 4.142966 -73.696968
v 96.000000 3.839443 -76.282829
v 96.000000 3.510349 -78.868690
v 96.000000 4.624174 -68.525253
v 96.000000 4.617487 -65.939392
v 96.000000 3.377442 -81.454544
v 96.000000 3.114787 -86.626259
v 96.000000 2.868567 -89.212120
v 96.000000 3.401906 -84.040405
v 96.000000 2.434961 -91.797981
v 96.000000 1.892782 -94.383835
v 81.454544 5.740286 -64.000000
v 91.797981 5.222728 -64.000000
v 76.282829 6.667516 -64.000000
v 78.868690 5.916777 -64.000000
v 86.626259 5.366974 -64.000000
v 65.939392 7.514744 -64.000000
v 73.696968 7.082576 -64.000000
v 71.111115 7.320519 -64.000000
v 84.040405 5.446097 -64.000000
v 94.383835 4.871130 -64.000000
v 68.525253 7.541330 -64.000000
v 89.212120 5.307857 -64.000000
v 64.000000 7.402684 -64.000000
v 96.000000 4.613497 -64.000000
v 96.000000 1.624395 -96.000000
v 94.383835 1.765139 -96.000000
v 84.040405 2.484577 -96.000000
v 81.454544 2.695339 -96.000000
v 71.111115 4.800822 -96.000000
v 68.525253 5.227930 -96.000000
v 78.868690 3.115119 -96.000000
v 65.939392 5.649386 -96.000000
v 64.000000 5.813062 -96.000000
v 76.282829 3.608580 -96.000000
v 73.696968 4.205886 -96.000000
v 91.797981 1.971265 -96.000000
v 89.212120 2.097736 -96.000000
v 86.626259 2.318396 -96.000000
vn -0.037600 0.981100 0.189600
vn -0.007300 0.987300 0.158900
vn -0.020000 0.992800 0.117700
vn -0.058800 0.992000 0.111500
vn -0.067000 0.995900 0.060600
vn -0.130000 0.991000 0.032200
vn -0.119800 0.992300 -0.030100
vn -0.218400 0.974800 -0.045500
vn -0.144400 0.972800 -0.180900
vn -0.262200 0.946800 -0.186500
vn -0.121100 0.961900 -0.244900
vn -0.197900 0.956000 -0.216800
vn -0.040800 0.977500 -0.206900
vn -0.042700 0.984100 -0.172200
vn 0.021300 0.979700 -0.199100
vn 0.085700 0.978400 -0.188200
vn 0.036300 0.992300 -0.118300
vn 0.138400 0.983000 -0.120500
vn 0.019600 0.999500 -0.022600
vn 0.105700 0.993800 -0.034500
vn 0.016400 0.999800 0.008600
vn 0.044000 0.998700 0.024900
vn 0.071100 0.995500 0.062100
vn 0.047900 0.993900 0.099800
vn 0.117600 0.993000 0.011700
vn 0.078000 0.996800 0.016700
vn 0.040500 0.991500 0.123300
vn 0.024800 0.990000 0.138800
vn -0.004200 0.994800 0.101400
vn -0.021100 0.999700 -0.011900
vn -0.030400 0.984800 -0.170900
vn -0.040900 0.963700 -0.264000
vn -0.054100 0.970600 -0.234300
vn -0.075600 0.977900 -0.194900
vn -0.085500 0.988700 -0.123000
vn -0.045200 0.997800 -0.047200
vn 0.036200 0.998000 -0.052500
vn 0.118000 0.992900 -0.012700
vn 0.161300 0.986900 0.001100
vn 0.080400 0.988400 0.128600
vn 0.080300 0.984800 0.154200
vn 0.055400 0.988900 0.137700
vn -0.001500 0.999700 0.025300
vn -0.043600 0.986800 -0.155800
vn -0.055700 0.965300 -0.255200
vn -0.054000 0.971000 -0.232800
vn -0.045300 0.981500 -0.185700
vn -0.020300 0.988500 -0.150000
vn 0.057700 0.988500 -0.139600
vn 0.142800 0.981900 -0.124600
vn 0.171100 0.984100 -0.047700
vn 0.177100 0.984100 -0.014400
vn 0.103900 0.980900 0.164200
vn 0.097300 0.981600 0.164000
vn 0.078200 0.981400 0.175100
vn 0.043800 0.995900 0.079000
vn 0.027700 0.988100 -0.151500
vn 0.043000 0.964000 -0.262200
vn 0.073200 0.963900 -0.255900
vn 0.117300 0.970600 -0.210000
vn 0.160800 0.968600 -0.189800
vn 0.204700 0.955600 -0.211900
vn 0.225300 0.963200 -0.146200
vn 0.218100 0.975100 -0.040000
vn 0.215400 0.976100 -0.029600
vn 0.197700 0.957100 0.211800
vn 0.174200 0.965400 0.194000
vn 0.146500 0.969900 0.194200
vn 0.155900 0.984100 0.085100
vn 0.184800 0.967900 -0.170400
vn 0.202700 0.942100 -0.267100
vn 0.191800 0.946600 -0.259100
vn 0.189400 0.953000 -0.236300
vn 0.208000 0.952700 -0.221500
vn 0.212500 0.950500 -0.226700
vn 0.209100 0.967800 -0.140100
vn 0.219000 0.974700 -0.044100
vn 0.228200 0.973200 -0.028000
vn 0.196900 0.960400 0.196900
vn 0.209600 0.956500 0.202600
vn 0.230200 0.954500 0.189700
vn 0.263300 0.963500 0.047300
vn 0.263700 0.949200 -0.171500
vn 0.216800 0.945700 -0.242200
vn 0.179400 0.955500 -0.233800
vn 0.147100 0.961900 -0.230400
vn 0.131900 0.962700 -0.236000
vn 0.131400 0.965800 -0.223600
vn 0.144100 0.977700 -0.152500
vn 0.170600 0.983000 -0.067300
vn 0.181200 0.983300 -0.017200
vn 0.122900 0.985200 0.119300
vn 0.151300 0.976200 0.155400
vn 0.227000 0.964500 0.134800
vn 0.301100 0.953600 -0.004800
vn 0.290800 0.949900 -0.114100
vn 0.214600 0.959600 -0.181700
vn 0.143100 0.971600 -0.188400
vn 0.092500 0.976200 -0.196100
vn 0.067200 0.969600 -0.235200
vn 0.064500 0.972400 -0.224100
vn 0.078700 0.980700 -0.178700
vn 0.095800 0.991800 -0.084100
vn 0.103700 0.994400 -0.021500
vn 0.060000 0.994000 0.091500
vn 0.093400 0.991600 0.089400
vn 0.192400 0.981000 0.022800
vn 0.270600 0.961200 -0.053200
vn 0.255600 0.965800 -0.043200
vn 0.173400 0.980700 -0.089400
vn 0.088600 0.987800 -0.127700
vn 0.045000 0.985200 -0.165300
vn 0.024800 0.974300 -0.223900
vn 0.012600 0.974900 -0.222200
vn 0.011500 0.981000 -0.193700
vn 0.026200 0.994600 -0.100100
vn 0.050500 0.997700 -0.044400
vn 0.009300 0.991600 0.129400
vn 0.027200 0.998700 0.042900
vn 0.091400 0.991700 -0.090400
vn 0.148300 0.985400 -0.084000
vn 0.154200 0.988000 -0.004400
vn 0.146800 0.988500 -0.036400
vn 0.134500 0.987400 -0.083500
vn 0.091000 0.988300 -0.122400
vn 0.035400 0.980400 -0.193900
vn 0.002700 0.977800 -0.209300
vn -0.005200 0.980100 -0.198200
vn 0.019500 0.990700 -0.134800
vn 0.056900 0.995500 -0.074900
vn 0.032600 0.988900 0.145200
vn 0.046100 0.998800 0.014100
vn 0.068000 0.986900 -0.146000
vn 0.081700 0.991600 -0.099700
vn 0.110400 0.993600 -0.022500
vn 0.164200 0.984200 -0.066100
vn 0.186300 0.980400 -0.063700
vn 0.142300 0.988500 -0.051700
vn 0.071000 0.987700 -0.139100
vn 0.020100 0.982900 -0.183100
vn 0.003000 0.979700 -0.200200
vn 0.016900 0.985300 -0.169800
vn 0.042700 0.993500 -0.105700
vn 0.091800 0.987600 0.127300
vn 0.091700 0.995800 -0.000900
vn 0.070000 0.988400 -0.134900
vn 0.050600 0.993100 -0.105200
vn 0.078100 0.994200 -0.073400
vn 0.115300 0.987400 -0.108600
vn 0.133700 0.989000 -0.063500
vn 0.131000 0.991400 -0.003200
vn 0.093500 0.992500 -0.079000
vn 0.045900 0.988000 -0.147200
vn 0.012600 0.982300 -0.187000
vn 0.002100 0.982400 -0.186700
vn 0.027500 0.988700 -0.147000
vn 0.180300 0.980100 0.082400
vn 0.170500 0.985300 0.004200
vn 0.115800 0.990300 -0.076200
vn 0.064900 0.992300 -0.105200
vn 0.079000 0.990000 -0.117100
vn 0.098300 0.987600 -0.122000
vn 0.107600 0.991100 -0.077600
vn 0.127000 0.991900 -0.000500
vn 0.134400 0.990000 -0.043800
vn 0.119200 0.985800 -0.118100
vn 0.088100 0.983500 -0.157700
vn 0.066400 0.979600 -0.189400
vn 0.072500 0.980500 -0.182500
vn 0.118400 0.987600 -0.103500
vn 0.104200 0.985400 -0.134500
vn 0.104800 0.986800 -0.123100
vn 0.106400 0.990700 -0.085000
vn 0.178900 0.983100 -0.037800
vn 0.216800 0.976200 0.010800
vn 0.212600 0.975900 0.049600
vn 0.132400 0.991200 -0.007600
vn 0.181900 0.977400 -0.107900
vn 0.150800 0.978400 -0.141400
vn 0.173500 0.984100 -0.036800
vn 0.122800 0.974300 -0.188700
vn 0.102600 0.976000 -0.192000
vn 0.090300 0.981700 -0.167900
vn 0.080100 0.983300 -0.163600
vn 0.062800 0.996600 -0.052700
vn 0.107300 0.994100 -0.015000
vn 0.183600 0.981600 -0.052000
vn 0.168600 0.984600 -0.046700
vn 0.179800 0.983700 -0.002900
vn 0.124300 0.990400 -0.060700
vn 0.085600 0.994300 -0.063400
vn 0.227200 0.972700 -0.048000
vn 0.219500 0.972600 -0.076200
vn 0.049700 0.989200 -0.137600
vn 0.055000 0.993800 -0.097100
vn 0.071200 0.994800 -0.073400
usemtl None
s 1
f 181//1 174//2 1//3 148//4
f 148//4 1//3 2//5 155//6
f 155//6 2//5 3//7 156//8
f 156//8 3//7 4//9 153//10
f 153//10 4//9 5//11 154//12
f 154//12 5//11 6//13 152//14
f 152//14 6//13 7//15 149//16
f 149//16 7//15 8//17 150//18
f 150//18 8//17 9//19 151//20
f 151//20 9//19 10//21 147//22
f 147//22 10//21 11//23 145//24
f 145//24 11//23 12//25 146//26
f 174//2 179//27 13//28 1//3
f 1//3 13//28 14//29 2//5
f 2//5 14//29 15//30 3//7
f 3//7 15//30 16//31 4//9
f 4//9 16//31 17//32 5//11
f 5//11 17//32 18//33 6//13
f 6//13 18//33 19//34 7//15
f 7//15 19//34 20//35 8//17
f 8//17 20//35 21//36 9//19
f 9//19 21//36 22//37 10//21
f 10//21 22//37 23//38 11//23
f 11//23 23//38 24//39 12//25
f 179//27 176//40 25//41 13//28
f 13//28 25//41 26//42 14//29
f 14//29 26//42 27//43 15//30
f 15//30 27//43 28//44 16//31
f 16//31 28//44 29//45 17//32
f 17//32 29//45 30//46 18//33
f 18//33 30//46 31//47 19//34
f 19//34 31//47 32//48 20//35
f 20//35 32//48 33//49 21//36
f 21//36 33//49 34//50 22//37
f 22//37 34//50 35//51 23//38
f 23//38 35//51 36//52 24//39
f 176//40 175//53 37//54 25//41
f 25//41 37//54 38//55 26//42
f 26//42 38//55 39//56 27//43
f 27//43 39//56 40//57 28//44
f 28//44 40//57 41//58 29//45
f 29//45 41//58 42//59 30//46
f 30//46 42//59 43//60 31//47
f 31//47 43//60 44//61 32//48
f 32//48 44//61 45//62 33//49
f 33//49 45//62 46//63 34//50
f 34//50 46//63 47//64 35//51
f 35//51 47//64 48//65 36//52
f 175//53 171//66 49//67 37//54
f 37//54 49//67 50//68 38//55
f 38//55 50//68 51//69 39//56
f 39//56 51//69 52//70 40//57
f 40//57 52//70 53//71 41//58
f 41//58 53//71 54//72 42//59
f 42//59 54//72 55//73 43//60
f 43//60 55//73 56//74 44//61
f 44//61 56//74 57//75 45//62
f 45//62 57//75 58//76 46//63
f 46//63 58//76 59//77 47//64
f 47//64 59//77 60//78 48//65
f 171//66 172//79 61//80 49//67
f 49//67 61//80 62//81 50//68
f 50//68 62//81 63//82 51//69
f 51//69 63//82 64//83 52//70
f 52//70 64//83 65//84 53//71
f 53//71 65//84 66//85 54//72
f 54//72 66//85 67//86 55//73
f 55//73 67//86 68//87 56//74
f 56//74 68//87 69//88 57//75
f 57//75 69//88 70//89 58//76
f 58//76 70//89 71//90 59//77
f 59//77 71//90 72//91 60//78
f 172//79 169//92 73//93 61//80
f 61//80 73//93 74//94 62//81
f 62//81 74//94 75//95 63//82
f 63//82 75//95 76//96 64//83
f 64//83 76//96 77//97 65//84
f 65//84 77//97 78//98 66//85
f 66//85 78//98 79//99 67//86
f 67//86 79//99 80//100 68//87
f 68//87 80//100 81//101 69//88
f 69//88 81//101 82//102 70//89
f 70//89 82//102 83//103 71//90
f 71//90 83//103 84//104 72//91
f 169//92 177//105 85//106 73//93
f 73//93 85//106 86//107 74//94
f 74//94 86//107 87//108 75//95
f 75//95 87//108 88//109 76//96
f 76//96 88//109 89//110 77//97
f 77//97 89//110 90//111 78//98
f 78//98 90//111 91//112 79//99
f 79//99 91//112 92//113 80//100
f 80//100 92//113 93//114 81//101
f 81//101 93//114 94//115 82//102
f 82//102 94//115 95//116 83//103
f 83//103 95//116 96//117 84//104
f 177//105 173//118 97//119 85//106
f 85//106 97//119 98//120 86//107
f 86//107 98//120 99//121 87//108
f 87//108 99//121 100//122 88//109
f 88//109 100//122 101//123 89//110
f 89//110 101//123 102//124 90//111
f 90//111 102//124 103//125 91//112
f 91//112 103//125 104//126 92//113
f 92//113 104//126 105//127 93//114
f 93//114 105//127 106//128 94//115
f 94//115 106//128 107//129 95//116
f 95//116 107//129 108//130 96//117
f 173//118 180//131 109//132 97//119
f 97//119 109//132 110//133 98//120
f 98//120 110//133 111//134 99//121
f 99//121 111//134 112//135 100//122
f 100//122 112//135 113//136 101//123
f 101//123 113//136 114//137 102//124
f 102//124 114//137 115//138 103//125
f 103//125 115//138 116//139 104//126
f 104//126 116//139 117//140 105//127
f 105//127 117//140 118//141 106//128
f 106//128 118//141 119//142 107//129
f 107//129 119//142 120//143 108//130
f 180//131 170//144 121//145 109//132
f 109//132 121//145 122//146 110//133
f 110//133 122//146 123//147 111//134
f 111//134 123//147 124//148 112//135
f 112//135 124//148 125//149 113//136
f 113//136 125//149 126//150 114//137
f 114//137 126//150 127//151 115//138
f 115//138 127//151 128//152 116//139
f 116//139 128//152 129//153 117//140
f 117//140 129//153 130//154 118//141
f 118//141 130//154 131//155 119//142
f 119//142 131//155 132//156 120//143
f 170//144 178//157 133//158 121//145
f 121//145 133//158 134//159 122//146
f 122//146 134//159 135//160 123//147
f 123//147 135//160 136//161 124//148
f 124//148 136//161 137//162 125//149
f 125//149 137//162 138//163 126//150
f 126//150 138//163 139//164 127//151
f 127//151 139//164 140//165 128//152
f 128//152 140//165 141//166 129//153
f 129//153 141//166 142//167 130//154
f 130//154 142//167 143//168 131//155
f 131//155 143//168 144//169 132//156
f 135//160 157//170 158//171 136//161
f 136//161 158//171 159//172 137//162
f 137//162 159//172 160//173 138//163
f 134//159 161//174 157//170 135//160
f 133//158 162//175 161//174 134//159
f 178//157 182//176 162//175 133//158
f 138//163 160//173 163//177 139//164
f 141//166 164//178 165//179 142//167
f 139//164 163//177 166//180 140//165
f 140//165 166//180 164//178 141//166
f 142//167 165//179 167//181 143//168
f 143//168 167//181 168//182 144//169
f 144//169 168//182 183//183 184//184
f 84//104 96//117 185//185 186//186
f 24//39 36//52 187//187 188//188
f 72//91 84//104 186//186 189//189
f 146//26 12//25 190//190 191//191
f 12//25 24//39 188//188 190//190
f 60//78 72//91 189//189 192//192
f 36//52 48//65 193//193 187//187
f 48//65 60//78 192//192 193//193
f 132//156 144//169 184//184 194//194
f 120//143 132//156 194//194 195//195
f 96//117 108//130 196//196 185//185
f 108//130 120//143 195//195 196//196
